<?xml version="1.0" encoding="utf-8"?>
<!-- Generator: Fusion 360, Shaper Origin Export Add-In, Version 1.7.0  -->
<svg xmlns="http://www.w3.org/2000/svg" xmlns:xlink="http://www.w3.org/1999/xlink" xmlns:shaper="http://www.shapertools.com/namespaces/shaper" shaper:fusionaddin="version:1.7.0" width="7.058524cm" height="7.3cm" version="1.1" x="0cm" y="0cm" viewBox="0 0 7.058524 7.3" enable-background="new 0 0 7.058524 7.3" xml:space="preserve"><path d="M-3.529262,-2.0046781 L-1.8572407,-3.5690658 A0.3,0.3 226.9047902 0,1 -1.6522768,-3.65 L3.229262,-3.65 A0.3,0.3 270 0,1 3.529262,-3.35 L3.529262,-2.7885309 3.229262,-2.7885309 3.229262,-0.7885309 3.529262,-0.7885309 3.529262,3.35 A0.3,0.3 0 0,1 3.229262,3.65 L-1.6522768,3.65 A0.3,0.3 90 0,1 -1.8572407,3.5690658 L-3.529262,2.0046781 -3.529262,1.65 -3.2342727,1.65 -3.2342727,-1.65 -3.529262,-1.65 -3.529262,-2.0046781z" transform="matrix(1,0,0,-1,3.529262,3.65)" fill="rgb(0,0,0)" shaper:cutDepth="0.3cm" stroke-linecap="round" stroke-linejoin="round" /><path d="M-0.0908467,2.2251902 L-0.0908467,1.9607973 -0.0908467,1.9607973 -0.0995715,1.9610523 -0.1081885,1.9619481 -0.1166251,1.9639152 -0.1249532,1.9665272 -0.1249532,1.9665272 -0.139226,1.9729978 -0.152951,1.9803781 -0.1658056,1.9892031 -0.1781591,1.9988601 -0.1781591,1.9988601 -0.1942907,2.0139833 -0.2098339,2.0296666 -0.2245182,2.0461676 -0.2387321,2.0631165 -0.2387321,2.0631165 -0.2583152,2.0867172 -0.2786737,2.1095566 -0.3005051,2.1309498 -0.3234525,2.1512475 -0.3234525,2.1512475 -0.337035,2.1601659 -0.3440167,2.164113 -0.3512268,2.1674456 -0.3587341,2.1699792 -0.3665128,2.1717826 -0.3825248,2.174167 -0.3825248,2.174167 -0.3963662,2.1725513 -0.4030268,2.1711305 -0.4093751,2.168974 -0.415341,2.1659164 -0.4209931,2.1621195 -0.4317744,2.1532939 -0.4317744,2.1532939 -0.4405668,2.1411131 -0.4442985,2.1347717 -0.4472333,2.1281292 -0.4492388,2.1211355 -0.4505101,2.1138645 -0.451829,2.0988601 -0.451829,2.0988601 -0.4504603,2.083147 -0.4491237,2.0755421 -0.4470043,2.0682393 -0.4438908,2.06132 -0.4399195,2.0547317 -0.4305466,2.042107 -0.4305466,2.042107 -0.4173933,2.0325604 -0.4105339,2.0285306 -0.403336,2.0253917 -0.3957539,2.0232631 -0.3878724,2.0219219 -0.3716107,2.0205517 -0.3767949,1.9700743 -0.3767949,1.9700743 -0.4009913,1.9741205 -0.4126533,1.9770745 -0.4237918,1.9811453 -0.4342578,1.9866511 -0.4441292,1.9934255 -0.4628795,2.009092 -0.4628795,2.009092 -0.4761566,2.0298133 -0.4817421,2.0405313 -0.4860661,2.0516772 -0.4889646,2.0633068 -0.4907538,2.0753126 -0.4924838,2.0999515 -0.4924838,2.0999515 -0.4905709,2.1249418 -0.4886224,2.1370761 -0.4854833,2.1487773 -0.4808183,2.1599235 -0.474812,2.1705818 -0.4605602,2.1910838 -0.4605602,2.1910838 -0.4432628,2.2053126 -0.434189,2.2114279 -0.424605,2.2163443 -0.4144009,2.2198032 -0.4036921,2.222076 -0.3814334,2.2246445 -0.3814334,2.2246445 -0.3692908,2.2238413 -0.3573364,2.2221286 -0.3456915,2.2189189 -0.3342301,2.2148219 -0.3342301,2.2148219 -0.3211059,2.2080585 -0.308511,2.2004914 -0.2967238,2.1916978 -0.2853897,2.1822161 -0.2853897,2.1822161 -0.266911,2.1641141 -0.2489802,2.1454971 -0.2149941,2.1064999 -0.2149941,2.1064999 -0.1904339,2.0775756 -0.164653,2.0497468 -0.164653,2.0497468 -0.1518926,2.0386814 -0.13805,2.0290101 -0.13805,2.2251902 -0.0908467,2.2251902z" transform="matrix(1,0,0,-1,3.529262,3.65)" fill="rgb(116,116,116)" fill-rule="nonzero" shaper:cutDepth="0.05cm" stroke-linecap="round" stroke-linejoin="round" /><path d="M2.2318593,1.354538 L2.2318593,1.354538 2.2476175,1.357897 2.2552379,1.3601075 2.2625478,1.3629551 2.2694552,1.3666287 2.2759985,1.3710495 2.288476,1.381141 2.288476,1.381141 2.296567,1.3924553 2.3000363,1.398331 2.3028142,1.4044691 2.3047577,1.4109236 2.3060264,1.4176342 2.3074392,1.4314821 2.3074392,1.4314821 2.3052977,1.4485049 2.3034488,1.456671 2.300666,1.4644227 2.2967496,1.4716715 2.2919116,1.4785113 2.2806997,1.4915094 2.2806997,1.4915094 2.264669,1.5024104 2.2563507,1.5070149 2.2476695,1.5106052 2.2385719,1.5130327 2.2291485,1.5145496 2.2097584,1.516066 2.2097584,1.516066 2.1915252,1.5146497 2.1826797,1.5132082 2.1741594,1.5108869 2.1660559,1.5074379 2.1583186,1.502998 2.1434555,1.4924643 2.1434555,1.4924643 2.1328816,1.4788207 2.128382,1.4716831 2.1248269,1.4641665 2.1223832,1.4562039 2.1208223,1.4478872 2.1191718,1.4306635 2.1191718,1.4306635 2.1199469,1.4194657 2.1217535,1.4085303 2.1253138,1.3980413 2.1299494,1.3878259 2.1299494,1.3878259 2.1356589,1.3791218 2.1420583,1.3710636 2.1496289,1.3641022 2.1579166,1.3578122 2.1519139,1.3117004 1.9464569,1.3504452 1.9464569,1.5493538 1.9933873,1.5493538 1.9933873,1.3897358 2.1008907,1.3681806 2.1008907,1.3681806 2.0905691,1.3857513 2.0860845,1.394758 2.0824113,1.4040302 2.0797548,1.4136352 2.0779561,1.4235209 2.0757884,1.4437604 2.0757884,1.4437604 2.0785497,1.4684625 2.0810008,1.4803723 2.0847363,1.4917528 2.0900524,1.5024818 2.0966707,1.5126741 2.1120776,1.5321642 2.1120776,1.5321642 2.1327997,1.5477977 2.1436153,1.5544584 2.1549763,1.5597319 2.1669818,1.5633666 2.1795004,1.5656963 2.2053928,1.5681806 2.2053928,1.5681806 2.230773,1.5658857 2.2431411,1.5637935 2.2551227,1.5605676 2.2666236,1.5559316 2.2777232,1.5501184 2.2992536,1.5365298 2.2992536,1.5365298 2.3100026,1.5255905 2.3201456,1.5143672 2.3290768,1.5025763 2.3361904,1.4899338 2.3411318,1.4762736 2.3443301,1.4617968 2.3463661,1.4467756 2.3478211,1.4314821 2.3478211,1.4314821 2.3458598,1.407207 2.3439421,1.3954001 2.3409,1.3839899 2.3364294,1.3730837 2.3307257,1.3626127 2.3172618,1.3423961 2.3172618,1.3423961 2.2997091,1.3270492 2.2904622,1.3203302 2.2806508,1.3147564 2.2701691,1.3105423 2.2591519,1.3074144 2.236225,1.3029691 2.2318593,1.354538z" transform="matrix(1,0,0,-1,3.529262,3.65)" fill="rgb(116,116,116)" fill-rule="nonzero" shaper:cutDepth="0.05cm" stroke-linecap="round" stroke-linejoin="round" /><path d="M2.9684955,-0.3518489 L2.9684955,-0.6162418 2.9684955,-0.6162418 2.9597707,-0.6159869 2.9511538,-0.6150911 2.9427172,-0.6131239 2.9343891,-0.6105119 2.9343891,-0.6105119 2.9201162,-0.6040413 2.9063913,-0.596661 2.8935366,-0.587836 2.8811831,-0.5781791 2.8811831,-0.5781791 2.8650516,-0.5630559 2.8495083,-0.5473725 2.834824,-0.5308715 2.8206101,-0.5139226 2.8206101,-0.5139226 2.8010271,-0.4903219 2.7806686,-0.4674826 2.7588371,-0.4460893 2.7358898,-0.4257916 2.7358898,-0.4257916 2.7223073,-0.4168732 2.7153256,-0.4129261 2.7081154,-0.4095935 2.7006082,-0.4070599 2.6928295,-0.4052565 2.6768175,-0.4028721 2.6768175,-0.4028721 2.662976,-0.4044878 2.6563155,-0.4059087 2.6499671,-0.4080651 2.6440013,-0.4111228 2.6383492,-0.4149196 2.6275678,-0.4237452 2.6275678,-0.4237452 2.6187755,-0.435926 2.6150438,-0.4422674 2.6121089,-0.4489099 2.6101034,-0.4559036 2.6088322,-0.4631746 2.6075133,-0.4781791 2.6075133,-0.4781791 2.6088819,-0.4938922 2.6102185,-0.501497 2.6123379,-0.5087999 2.6154515,-0.5157191 2.6194227,-0.5223074 2.6287957,-0.5349322 2.6287957,-0.5349322 2.641949,-0.5444787 2.6488083,-0.5485085 2.6560063,-0.5516475 2.6635884,-0.553776 2.6714698,-0.5551172 2.6877315,-0.5564874 2.6825474,-0.6069649 2.6825474,-0.6069649 2.6583509,-0.6029186 2.6466889,-0.5999647 2.6355504,-0.5958938 2.6250845,-0.590388 2.615213,-0.5836137 2.5964628,-0.5679471 2.5964628,-0.5679471 2.5831856,-0.5472258 2.5776002,-0.5365078 2.5732761,-0.5253619 2.5703777,-0.5137324 2.5685884,-0.5017265 2.5668584,-0.4770877 2.5668584,-0.4770877 2.5687713,-0.4520973 2.5707199,-0.439963 2.573859,-0.4282618 2.5785239,-0.4171156 2.5845303,-0.4064574 2.598782,-0.3859554 2.598782,-0.3859554 2.6160794,-0.3717265 2.6251533,-0.3656112 2.6347372,-0.3606949 2.6449413,-0.3572359 2.6556501,-0.3549632 2.6779089,-0.3523946 2.6779089,-0.3523946 2.6900514,-0.3531978 2.7020059,-0.3549106 2.7136508,-0.3581202 2.7251122,-0.3622173 2.7251122,-0.3622173 2.7382363,-0.3689806 2.7508313,-0.3765477 2.7626184,-0.3853414 2.7739525,-0.394823 2.7739525,-0.394823 2.7924312,-0.412925 2.8103621,-0.431542 2.8443482,-0.4705392 2.8443482,-0.4705392 2.8689084,-0.4994635 2.8946892,-0.5272923 2.8946892,-0.5272923 2.9074496,-0.5383577 2.9212923,-0.548029 2.9212923,-0.3518489 2.9684955,-0.3518489z" transform="matrix(1,0,0,-1,3.529262,3.65)" fill="rgb(116,116,116)" fill-rule="nonzero" shaper:cutDepth="0.05cm" stroke-linecap="round" stroke-linejoin="round" /><path d="M1.5720501,-2.2417876 L1.5720501,-2.415321 1.5270297,-2.415321 1.2678209,-2.2327835 1.2678209,-2.1926743 1.5270297,-2.1926743 1.5270297,-2.1386498 1.5720501,-2.1386498 1.5720501,-2.1926743 1.6678209,-2.1926743 1.6678209,-2.2417876 1.5720501,-2.2417876z M1.346675,-2.2417876 L1.5270297,-2.3670263 1.5270297,-2.2417876 1.346675,-2.2417876z" transform="matrix(1,0,0,-1,3.529262,3.65)" fill="rgb(116,116,116)" fill-rule="nonzero" shaper:cutDepth="0.05cm" stroke-linecap="round" stroke-linejoin="round" /><path d="M-0.3451807,-0.0849201 L-0.3451807,-0.2584536 -0.3902012,-0.2584536 -0.6494099,-0.075916 -0.6494099,-0.0358069 -0.3902012,-0.0358069 -0.3902012,0.0182176 -0.3451807,0.0182176 -0.3451807,-0.0358069 -0.2494099,-0.0358069 -0.2494099,-0.0849201 -0.3451807,-0.0849201z M-0.5705559,-0.0849201 L-0.3902012,-0.2101589 -0.3902012,-0.0849201 -0.5705559,-0.0849201z" transform="matrix(1,0,0,-1,3.529262,3.65)" fill="rgb(116,116,116)" fill-rule="nonzero" shaper:cutDepth="0.05cm" stroke-linecap="round" stroke-linejoin="round" /><path d="M0.921599,-3.3751299 L0.4521583,-3.3751299 0.4521583,-3.3751299 0.4662328,-3.3915573 0.4795047,-3.4085739 0.4915507,-3.4264902 0.5029087,-3.4449116 0.5029087,-3.4449116 0.5135672,-3.4637451 0.5236346,-3.4828662 0.5326482,-3.5025 0.5409714,-3.5224696 0.4697573,-3.5224696 0.4697573,-3.5224696 0.4548428,-3.4937016 0.4469359,-3.4796117 0.4384893,-3.4658747 0.4293684,-3.4525788 0.4196809,-3.4396535 0.3993616,-3.4144205 0.3993616,-3.4144205 0.3813544,-3.3954971 0.3720225,-3.3864447 0.3622967,-3.3778833 0.352058,-3.3699612 0.3413491,-3.3626255 0.3191433,-3.3489362 0.3191433,-3.3014601 0.921599,-3.3014601 0.921599,-3.3751299z" transform="matrix(1,0,0,-1,3.529262,3.65)" fill="rgb(116,116,116)" fill-rule="nonzero" shaper:cutDepth="0.05cm" stroke-linecap="round" stroke-linejoin="round" /><path d="M0.3293753,-3.1078721 L0.3293753,-2.7194683 0.386674,-2.7194683 0.386674,-2.7194683 0.4247559,-2.7513027 0.4442393,-2.766595 0.4642519,-2.78114 0.4848494,-2.7948592 0.5058982,-2.807941 0.5487477,-2.8330426 0.5487477,-2.8330426 0.599021,-2.8588679 0.6244461,-2.8710897 0.6502174,-2.8824826 0.676416,-2.8928524 0.7029678,-2.9023762 0.7566604,-2.920014 0.7566604,-2.920014 0.7973574,-2.9301797 0.8177999,-2.9347195 0.8383552,-2.9386078 0.8590432,-2.9417296 0.8798366,-2.9442426 0.921599,-2.9482541 0.921599,-3.0239703 0.921599,-3.0239703 0.8782697,-3.0205809 0.856708,-3.0182304 0.835269,-3.0150972 0.8139631,-3.0111162 0.7927591,-3.0064851 0.7505212,-2.9961395 0.7505212,-2.9961395 0.7006513,-2.9809212 0.6759769,-2.9726512 0.6516153,-2.9635883 0.6276343,-2.9535606 0.6039633,-2.9427468 0.5571379,-2.9198093 0.5571379,-2.9198093 0.5158376,-2.8963966 0.4955258,-2.8841919 0.4756197,-2.871389 0.4562321,-2.8578223 0.4372966,-2.8435893 0.4001802,-2.8140112 0.4001802,-3.1078721 0.3293753,-3.1078721z" transform="matrix(1,0,0,-1,3.529262,3.65)" fill="rgb(116,116,116)" fill-rule="nonzero" shaper:cutDepth="0.05cm" stroke-linecap="round" stroke-linejoin="round" /><path d="M-0.6908467,1.7569092 a0.15,0.15 0 1,1 0.3,0 a0.15,0.15 0 1,1 -0.3,0z" transform="matrix(1,0,0,-1,3.529262,3.65)" fill="rgb(255,255,255)" stroke="rgb(0,0,0)" stroke-width="0.0010cm" stroke-linecap="round" stroke-linejoin="round" shaper:cutDepth="0.3cm" /><path d="M2.3684955,-0.82013 a0.15,0.15 0 1,1 0.3,0 a0.15,0.15 0 1,1 -0.3,0z" transform="matrix(1,0,0,-1,3.529262,3.65)" fill="rgb(255,255,255)" stroke="rgb(0,0,0)" stroke-width="0.0010cm" stroke-linecap="round" stroke-linejoin="round" shaper:cutDepth="0.3cm" /><path d="M1.0678209,-2.6081586 a0.15,0.15 0 1,1 0.3,0 a0.15,0.15 0 1,1 -0.3,0z" transform="matrix(1,0,0,-1,3.529262,3.65)" fill="rgb(255,255,255)" stroke="rgb(0,0,0)" stroke-width="0.0010cm" stroke-linecap="round" stroke-linejoin="round" shaper:cutDepth="0.3cm" /><path d="M1.7437284,1.0963525 a0.15,0.15 0 1,1 0.3,0 a0.15,0.15 0 1,1 -0.3,0z" transform="matrix(1,0,0,-1,3.529262,3.65)" fill="rgb(255,255,255)" stroke="rgb(0,0,0)" stroke-width="0.0010cm" stroke-linecap="round" stroke-linejoin="round" shaper:cutDepth="0.3cm" /><path d="M-0.8494099,-0.4512912 a0.15,0.15 0 1,1 0.3,0 a0.15,0.15 0 1,1 -0.3,0z" transform="matrix(1,0,0,-1,3.529262,3.65)" fill="rgb(255,255,255)" stroke="rgb(0,0,0)" stroke-width="0.0010cm" stroke-linecap="round" stroke-linejoin="round" shaper:cutDepth="0.3cm" /><path d="M-2.5342727,1.25 L-2.5342727,-1.25 -2.2342727,-1.25 -2.2342727,1.25 -2.5342727,1.25z" transform="matrix(1,0,0,-1,3.529262,3.65)" fill="rgb(255,255,255)" stroke="rgb(0,0,0)" stroke-width="0.0010cm" stroke-linecap="round" stroke-linejoin="round" shaper:cutDepth="0.3cm" /><path d="M2.979262,-3.25 a0.15,0.15 0 1,1 0.3,0 a0.15,0.15 0 1,1 -0.3,0z" transform="matrix(1,0,0,-1,3.529262,3.65)" fill="rgb(255,255,255)" stroke="rgb(0,0,0)" stroke-width="0.0010cm" stroke-linecap="round" stroke-linejoin="round" shaper:cutDepth="0.3cm" /><path d="M-1.520738,3.25 a0.15,0.15 0 1,1 0.3,0 a0.15,0.15 0 1,1 -0.3,0z" transform="matrix(1,0,0,-1,3.529262,3.65)" fill="rgb(255,255,255)" stroke="rgb(0,0,0)" stroke-width="0.0010cm" stroke-linecap="round" stroke-linejoin="round" shaper:cutDepth="0.3cm" /><path d="M2.979262,3.25 a0.15,0.15 0 1,1 0.3,0 a0.15,0.15 0 1,1 -0.3,0z" transform="matrix(1,0,0,-1,3.529262,3.65)" fill="rgb(255,255,255)" stroke="rgb(0,0,0)" stroke-width="0.0010cm" stroke-linecap="round" stroke-linejoin="round" shaper:cutDepth="0.3cm" /><path d="M-1.520738,-3.25 a0.15,0.15 0 1,1 0.3,0 a0.15,0.15 0 1,1 -0.3,0z" transform="matrix(1,0,0,-1,3.529262,3.65)" fill="rgb(255,255,255)" stroke="rgb(0,0,0)" stroke-width="0.0010cm" stroke-linecap="round" stroke-linejoin="round" shaper:cutDepth="0.3cm" /><path d="M-2.1707381,2 L-0.870738,2 -0.870738,2.7500001 -2.1707381,2.7500001 A0.3,0.3 90 0,1 -2.4707381,2.4500001 L-2.4707381,2.3 A0.3,0.3 180 0,1 -2.1707381,2z" transform="matrix(1,0,0,-1,3.529262,3.65)" fill="rgb(255,255,255)" stroke="rgb(0,0,0)" stroke-width="0.0010cm" stroke-linecap="round" stroke-linejoin="round" shaper:cutDepth="0.3cm" /></svg>