<?xml version="1.0" encoding="utf-8"?>
<!-- Generator: Fusion 360, Shaper Origin Export Add-In, Version 1.7.0  -->
<svg xmlns="http://www.w3.org/2000/svg" xmlns:xlink="http://www.w3.org/1999/xlink" xmlns:shaper="http://www.shapertools.com/namespaces/shaper" shaper:fusionaddin="version:1.7.0" width="7.058524cm" height="7.3cm" version="1.1" x="0cm" y="0cm" viewBox="0 0 7.058524 7.3" enable-background="new 0 0 7.058524 7.3" xml:space="preserve"><path d="M-3.529262,-2.0046781 L-1.8572407,-3.5690658 A0.3,0.3 226.9047902 0,1 -1.6522768,-3.65 L3.229262,-3.65 A0.3,0.3 270 0,1 3.529262,-3.35 L3.529262,-2.7885309 3.229262,-2.7885309 3.229262,-0.7885309 3.529262,-0.7885309 3.529262,3.35 A0.3,0.3 0 0,1 3.229262,3.65 L-1.6522768,3.65 A0.3,0.3 90 0,1 -1.8572407,3.5690658 L-3.529262,2.0046781 -3.529262,1.65 -3.2342727,1.65 -3.2342727,-1.65 -3.529262,-1.65 -3.529262,-2.0046781z" transform="matrix(1,0,0,-1,3.529262,3.65)" fill="rgb(0,0,0)" shaper:cutDepth="0.3cm" stroke-linecap="round" stroke-linejoin="round" /><path d="M-0.1367256,-2.0075131 L-0.1367256,-2.2719061 -0.1367256,-2.2719061 -0.1454504,-2.2716511 -0.1540674,-2.2707553 -0.162504,-2.2687881 -0.1708321,-2.2661762 -0.1708321,-2.2661762 -0.1851049,-2.2597055 -0.1988299,-2.2523252 -0.2116846,-2.2435002 -0.224038,-2.2338433 -0.224038,-2.2338433 -0.2401696,-2.2187201 -0.2557128,-2.2030368 -0.2703971,-2.1865357 -0.284611,-2.1695868 -0.284611,-2.1695868 -0.3041941,-2.1459862 -0.3245526,-2.1231468 -0.346384,-2.1017536 -0.3693314,-2.0814559 -0.3693314,-2.0814559 -0.3829139,-2.0725375 -0.3898956,-2.0685903 -0.3971057,-2.0652577 -0.404613,-2.0627241 -0.4123917,-2.0609207 -0.4284037,-2.0585363 -0.4284037,-2.0585363 -0.4422451,-2.060152 -0.4489057,-2.0615729 -0.455254,-2.0637293 -0.4612199,-2.066787 -0.466872,-2.0705838 -0.4776533,-2.0794095 -0.4776533,-2.0794095 -0.4864457,-2.0915902 -0.4901774,-2.0979316 -0.4931122,-2.1045742 -0.4951177,-2.1115678 -0.496389,-2.1188389 -0.4977079,-2.1338433 -0.4977079,-2.1338433 -0.4963393,-2.1495564 -0.4950026,-2.1571613 -0.4928832,-2.1644641 -0.4897697,-2.1713833 -0.4857984,-2.1779717 -0.4764255,-2.1905964 -0.4764255,-2.1905964 -0.4632722,-2.2001429 -0.4564129,-2.2041727 -0.4492149,-2.2073117 -0.4416328,-2.2094402 -0.4337514,-2.2107815 -0.4174896,-2.2121516 -0.4226738,-2.2626291 -0.4226738,-2.2626291 -0.4468702,-2.2585828 -0.4585322,-2.2556289 -0.4696707,-2.251558 -0.4801367,-2.2460522 -0.4900081,-2.2392779 -0.5087584,-2.2236114 -0.5087584,-2.2236114 -0.5220355,-2.20289 -0.527621,-2.1921721 -0.531945,-2.1810262 -0.5348435,-2.1693966 -0.5366328,-2.1573907 -0.5383627,-2.1327519 -0.5383627,-2.1327519 -0.5364498,-2.1077615 -0.5345013,-2.0956272 -0.5313622,-2.083926 -0.5266972,-2.0727798 -0.5206909,-2.0621216 -0.5064392,-2.0416196 -0.5064392,-2.0416196 -0.4891417,-2.0273907 -0.4800679,-2.0212754 -0.4704839,-2.0163591 -0.4602799,-2.0129001 -0.4495711,-2.0106274 -0.4273123,-2.0080588 -0.4273123,-2.0080588 -0.4151697,-2.008862 -0.4032153,-2.0105748 -0.3915704,-2.0137844 -0.380109,-2.0178815 -0.380109,-2.0178815 -0.3669848,-2.0246449 -0.3543899,-2.0322119 -0.3426027,-2.0410056 -0.3312686,-2.0504872 -0.3312686,-2.0504872 -0.31279,-2.0685892 -0.2948591,-2.0872062 -0.260873,-2.1262035 -0.260873,-2.1262035 -0.2363128,-2.1551277 -0.2105319,-2.1829565 -0.2105319,-2.1829565 -0.1977715,-2.1940219 -0.1839289,-2.2036932 -0.1839289,-2.0075131 -0.1367256,-2.0075131z" transform="matrix(1,0,0,-1,3.529262,3.65)" fill="rgb(116,116,116)" fill-rule="nonzero" shaper:cutDepth="0.05cm" stroke-linecap="round" stroke-linejoin="round" /><path d="M1.2326611,-0.4013268 L1.2326611,-0.4013268 1.2484193,-0.3979679 1.2560397,-0.3957574 1.2633496,-0.3929097 1.270257,-0.3892362 1.2768003,-0.3848154 1.2892778,-0.3747238 1.2892778,-0.3747238 1.2973688,-0.3634096 1.300838,-0.3575338 1.3036159,-0.3513958 1.3055594,-0.3449412 1.3068282,-0.3382306 1.3082409,-0.3243828 1.3082409,-0.3243828 1.3060995,-0.30736 1.3042506,-0.2991939 1.3014678,-0.2914421 1.2975514,-0.2841934 1.2927134,-0.2773536 1.2815015,-0.2643555 1.2815015,-0.2643555 1.2654707,-0.2534544 1.2571525,-0.24885 1.2484712,-0.2452597 1.2393737,-0.2428322 1.2299503,-0.2413152 1.2105602,-0.2397989 1.2105602,-0.2397989 1.192327,-0.2412152 1.1834815,-0.2426566 1.1749612,-0.2449779 1.1668577,-0.2484269 1.1591204,-0.2528668 1.1442573,-0.2634005 1.1442573,-0.2634005 1.1336834,-0.2770441 1.1291838,-0.2841818 1.1256287,-0.2916984 1.123185,-0.2996609 1.1216241,-0.3079776 1.1199735,-0.3252013 1.1199735,-0.3252013 1.1207487,-0.3363992 1.1225553,-0.3473346 1.1261156,-0.3578236 1.1307512,-0.368039 1.1307512,-0.368039 1.1364607,-0.3767431 1.14286,-0.3848013 1.1504307,-0.3917627 1.1587184,-0.3980526 1.1527157,-0.4441645 0.9472587,-0.4054196 0.9472587,-0.206511 0.9941891,-0.206511 0.9941891,-0.366129 1.1016925,-0.3876843 1.1016925,-0.3876843 1.0913709,-0.3701135 1.0868863,-0.3611069 1.083213,-0.3518346 1.0805566,-0.3422296 1.0787578,-0.3323439 1.0765902,-0.3121045 1.0765902,-0.3121045 1.0793515,-0.2874024 1.0818025,-0.2754925 1.0855381,-0.2641121 1.0908542,-0.253383 1.0974725,-0.2431907 1.1128794,-0.2237007 1.1128794,-0.2237007 1.1336015,-0.2080671 1.1444171,-0.2014065 1.1557781,-0.1961329 1.1677836,-0.1924983 1.1803021,-0.1901686 1.2061945,-0.1876843 1.2061945,-0.1876843 1.2315748,-0.1899791 1.2439429,-0.1920713 1.2559245,-0.1952972 1.2674254,-0.1999333 1.278525,-0.2057465 1.3000554,-0.219335 1.3000554,-0.219335 1.3108043,-0.2302744 1.3209474,-0.2414976 1.3298786,-0.2532886 1.3369922,-0.2659311 1.3419336,-0.2795912 1.3451318,-0.294068 1.3471679,-0.3090893 1.3486229,-0.3243828 1.3486229,-0.3243828 1.3466616,-0.3486579 1.3447439,-0.3604648 1.3417018,-0.371875 1.3372312,-0.3827811 1.3315275,-0.3932522 1.3180635,-0.4134687 1.3180635,-0.4134687 1.3005109,-0.4288157 1.291264,-0.4355347 1.2814526,-0.4411085 1.2709709,-0.4453226 1.2599537,-0.4484504 1.2370267,-0.4528957 1.2326611,-0.4013268z" transform="matrix(1,0,0,-1,3.529262,3.65)" fill="rgb(116,116,116)" fill-rule="nonzero" shaper:cutDepth="0.05cm" stroke-linecap="round" stroke-linejoin="round" /><path d="M2.8536511,-1.9958424 L2.8536511,-2.1693758 2.8086306,-2.1693758 2.5494219,-1.9868383 2.5494219,-1.9467292 2.8086306,-1.9467292 2.8086306,-1.8927046 2.8536511,-1.8927046 2.8536511,-1.9467292 2.9494219,-1.9467292 2.9494219,-1.9958424 2.8536511,-1.9958424z M2.6282759,-1.9958424 L2.8086306,-2.1210812 2.8086306,-1.9958424 2.6282759,-1.9958424z" transform="matrix(1,0,0,-1,3.529262,3.65)" fill="rgb(116,116,116)" fill-rule="nonzero" shaper:cutDepth="0.05cm" stroke-linecap="round" stroke-linejoin="round" /><path d="M-0.1475222,1.3018985 L-0.1475222,1.3018985 -0.131764,1.3052575 -0.1241436,1.3074679 -0.1168338,1.3103156 -0.1099263,1.3139891 -0.1033831,1.31841 -0.0909055,1.3285015 -0.0909055,1.3285015 -0.0828146,1.3398158 -0.0793453,1.3456915 -0.0765674,1.3518295 -0.0746239,1.3582841 -0.0733552,1.3649947 -0.0719424,1.3788426 -0.0719424,1.3788426 -0.0740838,1.3958654 -0.0759328,1.4040315 -0.0787155,1.4117832 -0.0826319,1.4190319 -0.0874699,1.4258717 -0.0986818,1.4388698 -0.0986818,1.4388698 -0.1147126,1.4497709 -0.1230308,1.4543753 -0.1317121,1.4579656 -0.1408096,1.4603931 -0.150233,1.4619101 -0.1696232,1.4634264 -0.1696232,1.4634264 -0.1878563,1.4620101 -0.1967019,1.4605687 -0.2052222,1.4582474 -0.2133257,1.4547984 -0.2210629,1.4503585 -0.235926,1.4398248 -0.235926,1.4398248 -0.2464999,1.4261812 -0.2509995,1.4190435 -0.2545547,1.4115269 -0.2569983,1.4035644 -0.2585592,1.3952477 -0.2602098,1.378024 -0.2602098,1.378024 -0.2594347,1.3668261 -0.2576281,1.3558908 -0.2540677,1.3454017 -0.2494322,1.3351863 -0.2494322,1.3351863 -0.2437226,1.3264822 -0.2373233,1.318424 -0.2297526,1.3114627 -0.2214649,1.3051727 -0.2274676,1.2590608 -0.4329247,1.2978057 -0.4329247,1.4967143 -0.3859943,1.4967143 -0.3859943,1.3370963 -0.2784908,1.3155411 -0.2784908,1.3155411 -0.2888124,1.3331118 -0.293297,1.3421185 -0.2969703,1.3513907 -0.2996268,1.3609957 -0.3014255,1.3708814 -0.3035932,1.3911208 -0.3035932,1.3911208 -0.3008319,1.4158229 -0.2983808,1.4277328 -0.2946452,1.4391132 -0.2893291,1.4498423 -0.2827109,1.4600346 -0.2673039,1.4795247 -0.2673039,1.4795247 -0.2465819,1.4951582 -0.2357662,1.5018188 -0.2244052,1.5070924 -0.2123998,1.5107271 -0.1998812,1.5130567 -0.1739888,1.515541 -0.1739888,1.515541 -0.1486085,1.5132462 -0.1362404,1.511154 -0.1242588,1.5079281 -0.1127579,1.5032921 -0.1016583,1.4974788 -0.080128,1.4838903 -0.080128,1.4838903 -0.069379,1.4729509 -0.0592359,1.4617277 -0.0503047,1.4499367 -0.0431912,1.4372942 -0.0382497,1.4236341 -0.0350515,1.4091573 -0.0330154,1.394136 -0.0315604,1.3788426 -0.0315604,1.3788426 -0.0335217,1.3545675 -0.0354394,1.3427605 -0.0384815,1.3313503 -0.0429521,1.3204442 -0.0486558,1.3099731 -0.0621198,1.2897566 -0.0621198,1.2897566 -0.0796724,1.2744097 -0.0889193,1.2676906 -0.0987307,1.2621168 -0.1092125,1.2579028 -0.1202297,1.2547749 -0.1431566,1.2503296 -0.1475222,1.3018985z" transform="matrix(1,0,0,-1,3.529262,3.65)" fill="rgb(116,116,116)" fill-rule="nonzero" shaper:cutDepth="0.05cm" stroke-linecap="round" stroke-linejoin="round" /><path d="M2.5693137,1.9563949 L2.5693137,1.692002 2.5693137,1.692002 2.5605889,1.6922569 2.5519719,1.6931527 2.5435353,1.6951199 2.5352072,1.6977318 2.5352072,1.6977318 2.5209344,1.7042025 2.5072094,1.7115828 2.4943548,1.7204078 2.4820013,1.7300647 2.4820013,1.7300647 2.4658697,1.7451879 2.4503265,1.7608712 2.4356422,1.7773723 2.4214283,1.7943212 2.4214283,1.7943212 2.4018452,1.8179219 2.3814867,1.8407612 2.3596553,1.8621544 2.3367079,1.8824521 2.3367079,1.8824521 2.3231254,1.8913705 2.3161437,1.8953177 2.3089336,1.8986503 2.3014263,1.9011839 2.2936476,1.9029873 2.2776356,1.9053717 2.2776356,1.9053717 2.2637942,1.903756 2.2571336,1.9023351 2.2507853,1.9001787 2.2448194,1.897121 2.2391673,1.8933242 2.228386,1.8844986 2.228386,1.8844986 2.2195936,1.8723178 2.2158619,1.8659764 2.2129271,1.8593338 2.2109216,1.8523402 2.2096503,1.8450692 2.2083314,1.8300647 2.2083314,1.8300647 2.2097,1.8143516 2.2110367,1.8067468 2.2131561,1.7994439 2.2162696,1.7925247 2.2202409,1.7859363 2.2296138,1.7733116 2.2296138,1.7733116 2.2427671,1.7637651 2.2496265,1.7597353 2.2568244,1.7565963 2.2644065,1.7544678 2.272288,1.7531265 2.2885497,1.7517564 2.2833655,1.7012789 2.2833655,1.7012789 2.2591691,1.7053252 2.2475071,1.7082791 2.2363686,1.71235 2.2259026,1.7178558 2.2160312,1.7246301 2.1972809,1.7402966 2.1972809,1.7402966 2.1840038,1.761018 2.1784183,1.7717359 2.1740943,1.7828819 2.1711958,1.7945114 2.1694066,1.8065173 2.1676766,1.8311561 2.1676766,1.8311561 2.1695895,1.8561465 2.171538,1.8682808 2.1746771,1.879982 2.1793421,1.8911282 2.1853484,1.9017864 2.1996002,1.9222884 2.1996002,1.9222884 2.2168976,1.9365173 2.2259714,1.9426326 2.2355554,1.9475489 2.2457595,1.9510079 2.2564683,1.9532806 2.278727,1.9558492 2.278727,1.9558492 2.2908696,1.955046 2.302824,1.9533332 2.3144689,1.9501236 2.3259303,1.9460265 2.3259303,1.9460265 2.3390545,1.9392632 2.3516494,1.9316961 2.3634366,1.9229024 2.3747707,1.9134208 2.3747707,1.9134208 2.3932493,1.8953188 2.4111802,1.8767018 2.4451663,1.8377046 2.4451663,1.8377046 2.4697265,1.8087803 2.4955074,1.7809515 2.4955074,1.7809515 2.5082678,1.7698861 2.5221104,1.7602148 2.5221104,1.9563949 2.5693137,1.9563949z" transform="matrix(1,0,0,-1,3.529262,3.65)" fill="rgb(116,116,116)" fill-rule="nonzero" shaper:cutDepth="0.05cm" stroke-linecap="round" stroke-linejoin="round" /><path d="M0.7445947,-3.4730674 L0.7445947,-3.4730674 0.7695097,-3.4669681 0.7815956,-3.4631772 0.7932357,-3.4584969 0.8042899,-3.4526477 0.8147864,-3.4456858 0.8348402,-3.4298887 0.8348402,-3.4298887 0.8466834,-3.4131724 0.8517527,-3.4044941 0.8557994,-3.3954316 0.8586188,-3.385908 0.8604503,-3.3760132 0.8624664,-3.3556049 0.8624664,-3.3556049 0.8597222,-3.3310794 0.8572881,-3.3192541 0.8535795,-3.3079535 0.8483034,-3.2972986 0.8417362,-3.2871753 0.8264501,-3.2678151 0.8264501,-3.2678151 0.8067086,-3.2525231 0.7963966,-3.2459681 0.7855551,-3.2407221 0.7740751,-3.2370544 0.7620793,-3.2346622 0.7372277,-3.2320033 0.7372277,-3.2320033 0.7139229,-3.2343644 0.7026696,-3.2365387 0.6918953,-3.2399054 0.6817189,-3.2447607 0.672044,-3.2508649 0.6535305,-3.2651547 0.6535305,-3.2651547 0.6392995,-3.283854 0.6332252,-3.2936167 0.6284001,-3.3038752 0.6250604,-3.314723 0.6229084,-3.3260421 0.6205837,-3.3494658 0.6205837,-3.3494658 0.6214819,-3.3626332 0.6230607,-3.3756982 0.6287693,-3.401444 0.5641035,-3.3932584 0.5641035,-3.3932584 0.5649221,-3.3813894 0.5649221,-3.3813894 0.563093,-3.3589515 0.5614502,-3.3479451 0.5589336,-3.3371937 0.5553363,-3.3267577 0.5508435,-3.3165829 0.5403655,-3.2966691 0.5403655,-3.2966691 0.5250395,-3.2801971 0.5167441,-3.2732 0.5076902,-3.267689 0.497749,-3.263916 0.4871058,-3.2615184 0.4646492,-3.2590156 0.4646492,-3.2590156 0.4458682,-3.2610224 0.4368147,-3.2628426 0.4281656,-3.2656427 0.4200185,-3.2696594 0.4122893,-3.2746892 0.3975278,-3.2864372 0.3975278,-3.2864372 0.3859272,-3.302238 0.3809934,-3.3104711 0.377099,-3.3191033 0.3744255,-3.3282042 0.3727205,-3.3376769 0.3709248,-3.357242 0.3709248,-3.357242 0.3728389,-3.3769996 0.3746066,-3.3865682 0.3773471,-3.3957645 0.3813032,-3.4044957 0.3862804,-3.4128361 0.3979371,-3.4288655 0.3979371,-3.4288655 0.4159386,-3.4428514 0.4253517,-3.4489717 0.4352576,-3.4540495 0.4457028,-3.4579862 0.4565627,-3.4610452 0.4789739,-3.4657004 0.4658771,-3.5393703 0.4658771,-3.5393703 0.4334262,-3.5308909 0.4178185,-3.5255199 0.402952,-3.5187913 0.389029,-3.5103349 0.3759232,-3.5003817 0.3510749,-3.4779788 0.3510749,-3.4779788 0.3333383,-3.4508404 0.3257914,-3.4368101 0.3198296,-3.4222268 0.3157326,-3.4069927 0.3131164,-3.3912419 0.3103518,-3.3588792 0.3103518,-3.3588792 0.3119056,-3.3353938 0.3133091,-3.3237983 0.3154646,-3.3123795 0.3185522,-3.3011795 0.3224143,-3.2901616 0.3314296,-3.268429 0.3314296,-3.268429 0.3427259,-3.2498014 0.3488904,-3.2409603 0.3556744,-3.2326864 0.3632319,-3.2251205 0.3714384,-3.2181488 0.388933,-3.2051957 0.388933,-3.2051957 0.4072355,-3.1960428 0.416562,-3.192089 0.4260989,-3.1888822 0.4358954,-3.1865974 0.4459065,-3.1850746 0.4662863,-3.1832994 0.4662863,-3.1832994 0.4850575,-3.1848984 0.4942614,-3.1863125 0.5032472,-3.1884643 0.5119652,-3.191522 0.5204629,-3.1953248 0.5370912,-3.2041725 0.5370912,-3.2041725 0.5528397,-3.2170766 0.5601745,-3.2239774 0.5668625,-3.2314162 0.5727987,-3.2394803 0.5781422,-3.2480374 0.5878415,-3.2659733 0.5878415,-3.2659733 0.5955272,-3.2421504 0.6002122,-3.2307648 0.6059079,-3.22001 0.6128739,-3.2100482 0.6209166,-3.2007585 0.6387966,-3.1832994 0.6387966,-3.1832994 0.6612291,-3.1702952 0.6727575,-3.1647897 0.6846604,-3.1604793 0.696996,-3.1575502 0.7096718,-3.1557072 0.7355906,-3.1538314 0.7355906,-3.1538314 0.7544944,-3.1557527 0.7731105,-3.158344 0.7911508,-3.1622754 0.7998652,-3.164953 0.8083277,-3.168217 0.8165149,-3.1721216 0.8244514,-3.1766101 0.8397154,-3.1870047 0.8544061,-3.1987338 0.8688102,-3.2111301 0.8688102,-3.2111301 0.8809895,-3.2271888 0.8924724,-3.2435147 0.9025624,-3.2603747 0.9068674,-3.2690886 0.9105634,-3.278036 0.9136141,-3.287231 0.9160889,-3.2966468 0.9196394,-3.3160151 0.9218732,-3.3358884 0.9234487,-3.3560142 0.9234487,-3.3560142 0.9221224,-3.3740779 0.9202266,-3.3919333 0.917192,-3.4093721 0.9124491,-3.426186 0.9055581,-3.442214 0.8968451,-3.4575755 0.8869172,-3.4724926 0.8763818,-3.4871875 0.8763818,-3.4871875 0.8632796,-3.4989805 0.8499002,-3.5102108 0.8359662,-3.5203161 0.8212006,-3.5287338 0.805439,-3.5351302 0.7888766,-3.5399019 0.7717804,-3.5435904 0.7544173,-3.5467373 0.7445947,-3.4730674z" transform="matrix(1,0,0,-1,3.529262,3.65)" fill="rgb(116,116,116)" fill-rule="nonzero" shaper:cutDepth="0.05cm" stroke-linecap="round" stroke-linejoin="round" /><path d="M0.3205837,-3.0760688 L0.3205837,-2.687665 0.3778825,-2.687665 0.3778825,-2.687665 0.4159644,-2.7194994 0.4354478,-2.7347917 0.4554604,-2.7493367 0.4760579,-2.7630558 0.4971066,-2.7761377 0.5399562,-2.8012393 0.5399562,-2.8012393 0.5902294,-2.8270646 0.6156545,-2.8392865 0.6414258,-2.8506794 0.6676244,-2.8610491 0.6941763,-2.870573 0.7478689,-2.8882107 0.7478689,-2.8882107 0.7885659,-2.8983764 0.8090084,-2.9029162 0.8295637,-2.9068045 0.8502517,-2.9099263 0.8710451,-2.9124393 0.9128075,-2.9164508 0.9128075,-2.9921671 0.9128075,-2.9921671 0.8694782,-2.9887777 0.8479164,-2.9864271 0.8264775,-2.9832939 0.8051715,-2.9793129 0.7839676,-2.9746818 0.7417297,-2.9643362 0.7417297,-2.9643362 0.6918598,-2.9491179 0.6671854,-2.9408479 0.6428238,-2.931785 0.6188428,-2.9217573 0.5951717,-2.9109436 0.5483464,-2.888006 0.5483464,-2.888006 0.5070461,-2.8645933 0.4867342,-2.8523886 0.4668282,-2.8395857 0.4474405,-2.826019 0.4285051,-2.811786 0.3913887,-2.782208 0.3913887,-3.0760688 0.3205837,-3.0760688z" transform="matrix(1,0,0,-1,3.529262,3.65)" fill="rgb(116,116,116)" fill-rule="nonzero" shaper:cutDepth="0.05cm" stroke-linecap="round" stroke-linejoin="round" /><path d="M1.9693136,1.4881138 a0.15,0.15 0 1,1 0.3,0 a0.15,0.15 0 1,1 -0.3,0z" transform="matrix(1,0,0,-1,3.529262,3.65)" fill="rgb(255,255,255)" stroke="rgb(0,0,0)" stroke-width="0.0010cm" stroke-linecap="round" stroke-linejoin="round" shaper:cutDepth="0.3cm" /><path d="M-0.7367257,-2.4757942 a0.15,0.15 0 1,1 0.3,0 a0.15,0.15 0 1,1 -0.3,0z" transform="matrix(1,0,0,-1,3.529262,3.65)" fill="rgb(255,255,255)" stroke="rgb(0,0,0)" stroke-width="0.0010cm" stroke-linecap="round" stroke-linejoin="round" shaper:cutDepth="0.3cm" /><path d="M2.3494219,-2.3622135 a0.15,0.15 0 1,1 0.3,0 a0.15,0.15 0 1,1 -0.3,0z" transform="matrix(1,0,0,-1,3.529262,3.65)" fill="rgb(255,255,255)" stroke="rgb(0,0,0)" stroke-width="0.0010cm" stroke-linecap="round" stroke-linejoin="round" shaper:cutDepth="0.3cm" /><path d="M0.7445301,-0.6595124 a0.15,0.15 0 1,1 0.3,0 a0.15,0.15 0 1,1 -0.3,0z" transform="matrix(1,0,0,-1,3.529262,3.65)" fill="rgb(255,255,255)" stroke="rgb(0,0,0)" stroke-width="0.0010cm" stroke-linecap="round" stroke-linejoin="round" shaper:cutDepth="0.3cm" /><path d="M-0.6356532,1.0437129 a0.15,0.15 0 1,1 0.3,0 a0.15,0.15 0 1,1 -0.3,0z" transform="matrix(1,0,0,-1,3.529262,3.65)" fill="rgb(255,255,255)" stroke="rgb(0,0,0)" stroke-width="0.0010cm" stroke-linecap="round" stroke-linejoin="round" shaper:cutDepth="0.3cm" /><path d="M-2.5342727,1.25 L-2.5342727,-1.25 -2.2342727,-1.25 -2.2342727,1.25 -2.5342727,1.25z" transform="matrix(1,0,0,-1,3.529262,3.65)" fill="rgb(255,255,255)" stroke="rgb(0,0,0)" stroke-width="0.0010cm" stroke-linecap="round" stroke-linejoin="round" shaper:cutDepth="0.3cm" /><path d="M2.979262,-3.25 a0.15,0.15 0 1,1 0.3,0 a0.15,0.15 0 1,1 -0.3,0z" transform="matrix(1,0,0,-1,3.529262,3.65)" fill="rgb(255,255,255)" stroke="rgb(0,0,0)" stroke-width="0.0010cm" stroke-linecap="round" stroke-linejoin="round" shaper:cutDepth="0.3cm" /><path d="M-1.520738,3.25 a0.15,0.15 0 1,1 0.3,0 a0.15,0.15 0 1,1 -0.3,0z" transform="matrix(1,0,0,-1,3.529262,3.65)" fill="rgb(255,255,255)" stroke="rgb(0,0,0)" stroke-width="0.0010cm" stroke-linecap="round" stroke-linejoin="round" shaper:cutDepth="0.3cm" /><path d="M2.979262,3.25 a0.15,0.15 0 1,1 0.3,0 a0.15,0.15 0 1,1 -0.3,0z" transform="matrix(1,0,0,-1,3.529262,3.65)" fill="rgb(255,255,255)" stroke="rgb(0,0,0)" stroke-width="0.0010cm" stroke-linecap="round" stroke-linejoin="round" shaper:cutDepth="0.3cm" /><path d="M-1.520738,-3.25 a0.15,0.15 0 1,1 0.3,0 a0.15,0.15 0 1,1 -0.3,0z" transform="matrix(1,0,0,-1,3.529262,3.65)" fill="rgb(255,255,255)" stroke="rgb(0,0,0)" stroke-width="0.0010cm" stroke-linecap="round" stroke-linejoin="round" shaper:cutDepth="0.3cm" /><path d="M-2.1707381,2 L-0.870738,2 -0.870738,2.7500001 -2.1707381,2.7500001 A0.3,0.3 90 0,1 -2.4707381,2.4500001 L-2.4707381,2.3 A0.3,0.3 180 0,1 -2.1707381,2z" transform="matrix(1,0,0,-1,3.529262,3.65)" fill="rgb(255,255,255)" stroke="rgb(0,0,0)" stroke-width="0.0010cm" stroke-linecap="round" stroke-linejoin="round" shaper:cutDepth="0.3cm" /></svg>