<?xml version="1.0" encoding="utf-8"?>
<!-- Generator: Fusion 360, Shaper Origin Export Add-In, Version 1.7.0  -->
<svg xmlns="http://www.w3.org/2000/svg" xmlns:xlink="http://www.w3.org/1999/xlink" xmlns:shaper="http://www.shapertools.com/namespaces/shaper" shaper:fusionaddin="version:1.7.0" width="7.058524cm" height="7.3cm" version="1.1" x="0cm" y="0cm" viewBox="0 0 7.058524 7.3" enable-background="new 0 0 7.058524 7.3" xml:space="preserve"><path d="M-3.529262,-2.0046781 L-1.8572407,-3.5690658 A0.3,0.3 226.9047902 0,1 -1.6522768,-3.65 L3.229262,-3.65 A0.3,0.3 270 0,1 3.529262,-3.35 L3.529262,-2.7885309 3.229262,-2.7885309 3.229262,-0.7885309 3.529262,-0.7885309 3.529262,3.35 A0.3,0.3 0 0,1 3.229262,3.65 L-1.6522768,3.65 A0.3,0.3 90 0,1 -1.8572407,3.5690658 L-3.529262,2.0046781 -3.529262,1.65 -3.2342727,1.65 -3.2342727,-1.65 -3.529262,-1.65 -3.529262,-2.0046781z" transform="matrix(1,0,0,-1,3.529262,3.65)" fill="rgb(0,0,0)" shaper:cutDepth="0.3cm" stroke-linecap="round" stroke-linejoin="round" /><path d="M-1.5443108,1.0916159 L-1.5443108,1.0916159 -1.5285526,1.0949749 -1.5209322,1.0971853 -1.5136223,1.100033 -1.5067149,1.1037065 -1.5001716,1.1081274 -1.4876941,1.1182189 -1.4876941,1.1182189 -1.4796031,1.1295332 -1.4761338,1.1354089 -1.4733559,1.1415469 -1.4714124,1.1480015 -1.4701437,1.1547121 -1.4687309,1.16856 -1.4687309,1.16856 -1.4708724,1.1855828 -1.4727213,1.1937489 -1.4755041,1.2015006 -1.4794205,1.2087493 -1.4842585,1.2155891 -1.4954704,1.2285872 -1.4954704,1.2285872 -1.5115011,1.2394883 -1.5198194,1.2440927 -1.5285006,1.247683 -1.5375982,1.2501105 -1.5470216,1.2516275 -1.5664117,1.2531438 -1.5664117,1.2531438 -1.5846449,1.2517275 -1.5934904,1.2502861 -1.6020107,1.2479648 -1.6101142,1.2445158 -1.6178515,1.2400759 -1.6327146,1.2295422 -1.6327146,1.2295422 -1.6432885,1.2158986 -1.6477881,1.2087609 -1.6513432,1.2012443 -1.6537869,1.1932818 -1.6553478,1.1849651 -1.6569984,1.1677414 -1.6569984,1.1677414 -1.6562232,1.1565435 -1.6544166,1.1456082 -1.6508563,1.1351191 -1.6462207,1.1249037 -1.6462207,1.1249037 -1.6405112,1.1161996 -1.6341118,1.1081414 -1.6265412,1.1011801 -1.6182535,1.0948901 -1.6242562,1.0487782 -1.8297132,1.0875231 -1.8297132,1.2864317 -1.7827828,1.2864317 -1.7827828,1.1268137 -1.6752794,1.1052584 -1.6752794,1.1052584 -1.685601,1.1228292 -1.6900856,1.1318359 -1.6937588,1.1411081 -1.6964153,1.1507131 -1.6982141,1.1605988 -1.7003817,1.1808382 -1.7003817,1.1808382 -1.6976204,1.2055403 -1.6951694,1.2174502 -1.6914338,1.2288306 -1.6861177,1.2395597 -1.6794994,1.249752 -1.6640925,1.2692421 -1.6640925,1.2692421 -1.6433704,1.2848756 -1.6325548,1.2915362 -1.6211938,1.2968098 -1.6091883,1.3004445 -1.5966697,1.3027741 -1.5707773,1.3052584 -1.5707773,1.3052584 -1.5453971,1.3029636 -1.533029,1.3008714 -1.5210474,1.2976455 -1.5095465,1.2930095 -1.4984469,1.2871962 -1.4769165,1.2736077 -1.4769165,1.2736077 -1.4661675,1.2626683 -1.4560245,1.2514451 -1.4470933,1.2396541 -1.4399797,1.2270116 -1.4350383,1.2133515 -1.43184,1.1988747 -1.429804,1.1838534 -1.428349,1.16856 -1.428349,1.16856 -1.4303103,1.1442849 -1.432228,1.1324779 -1.4352701,1.1210677 -1.4397407,1.1101616 -1.4454444,1.0996905 -1.4589083,1.079474 -1.4589083,1.079474 -1.476461,1.064127 -1.4857079,1.057408 -1.4955193,1.0518342 -1.506001,1.0476202 -1.5170182,1.0444923 -1.5399451,1.040047 -1.5443108,1.0916159z" transform="matrix(1,0,0,-1,3.529262,3.65)" fill="rgb(116,116,116)" fill-rule="nonzero" shaper:cutDepth="0.05cm" stroke-linecap="round" stroke-linejoin="round" /><path d="M0.5152733,0.0571231 L0.5152733,0.0571231 0.5310315,0.0604821 0.5386519,0.0626926 0.5459618,0.0655403 0.5528692,0.0692138 0.5594125,0.0736346 0.57189,0.0837262 0.57189,0.0837262 0.579981,0.0950404 0.5834503,0.1009162 0.5862282,0.1070542 0.5881717,0.1135088 0.5894404,0.1202194 0.5908532,0.1340672 0.5908532,0.1340672 0.5887117,0.15109 0.5868628,0.1592561 0.58408,0.1670079 0.5801636,0.1742566 0.5753256,0.1810964 0.5641137,0.1940945 0.5641137,0.1940945 0.548083,0.2049955 0.5397647,0.2096 0.5310834,0.2131903 0.5219859,0.2156178 0.5125625,0.2171347 0.4931724,0.2186511 0.4931724,0.2186511 0.4749392,0.2172348 0.4660937,0.2157934 0.4575734,0.213472 0.4494699,0.2100231 0.4417326,0.2055832 0.4268695,0.1950494 0.4268695,0.1950494 0.4162956,0.1814059 0.411796,0.1742682 0.4082409,0.1667516 0.4057972,0.1587891 0.4042363,0.1504723 0.4025857,0.1332486 0.4025857,0.1332486 0.4033609,0.1220508 0.4051675,0.1111154 0.4087278,0.1006264 0.4133634,0.090411 0.4133634,0.090411 0.4190729,0.0817069 0.4254722,0.0736487 0.4330429,0.0666873 0.4413306,0.0603974 0.4353279,0.0142855 0.2298709,0.0530304 0.2298709,0.251939 0.2768013,0.251939 0.2768013,0.092321 0.3843047,0.0707657 0.3843047,0.0707657 0.3739831,0.0883365 0.3694985,0.0973431 0.3658253,0.1066153 0.3631688,0.1162203 0.36137,0.1261061 0.3592024,0.1463455 0.3592024,0.1463455 0.3619637,0.1710476 0.3644147,0.1829575 0.3681503,0.1943379 0.3734664,0.2050669 0.3800847,0.2152592 0.3954916,0.2347493 0.3954916,0.2347493 0.4162137,0.2503829 0.4270293,0.2570435 0.4383903,0.2623171 0.4503958,0.2659517 0.4629144,0.2682814 0.4888068,0.2707657 0.4888068,0.2707657 0.514187,0.2684708 0.5265551,0.2663786 0.5385367,0.2631527 0.5500376,0.2585167 0.5611372,0.2527035 0.5826676,0.239115 0.5826676,0.239115 0.5934166,0.2281756 0.6035596,0.2169524 0.6124908,0.2051614 0.6196044,0.1925189 0.6245458,0.1788588 0.6277441,0.164382 0.6297801,0.1493607 0.6312351,0.1340672 0.6312351,0.1340672 0.6292738,0.1097921 0.6273561,0.0979852 0.624314,0.086575 0.6198434,0.0756689 0.6141397,0.0651978 0.6006758,0.0449813 0.6006758,0.0449813 0.5831231,0.0296343 0.5738762,0.0229153 0.5640648,0.0173415 0.5535831,0.0131274 0.5425659,0.0099996 0.519639,0.0055542 0.5152733,0.0571231z" transform="matrix(1,0,0,-1,3.529262,3.65)" fill="rgb(116,116,116)" fill-rule="nonzero" shaper:cutDepth="0.05cm" stroke-linecap="round" stroke-linejoin="round" /><path d="M2.254205,1.8970163 L2.254205,1.6326234 2.254205,1.6326234 2.2454802,1.6328783 2.2368632,1.6337742 2.2284266,1.6357413 2.2200985,1.6383533 2.2200985,1.6383533 2.2058257,1.6448239 2.1921007,1.6522042 2.1792461,1.6610292 2.1668926,1.6706861 2.1668926,1.6706861 2.150761,1.6858094 2.1352178,1.7014927 2.1205335,1.7179937 2.1063196,1.7349426 2.1063196,1.7349426 2.0867365,1.7585433 2.066378,1.7813826 2.0445466,1.8027759 2.0215993,1.8230736 2.0215993,1.8230736 2.0080167,1.831992 2.001035,1.8359391 1.9938249,1.8392717 1.9863177,1.8418053 1.9785389,1.8436087 1.9625269,1.8459931 1.9625269,1.8459931 1.9486855,1.8443774 1.9420249,1.8429566 1.9356766,1.8408001 1.9297107,1.8377424 1.9240586,1.8339456 1.9132773,1.82512 1.9132773,1.82512 1.904485,1.8129392 1.9007532,1.8065978 1.8978184,1.7999553 1.8958129,1.7929616 1.8945416,1.7856906 1.8932227,1.7706862 1.8932227,1.7706862 1.8945914,1.754973 1.895928,1.7473682 1.8980474,1.7400653 1.901161,1.7331461 1.9051322,1.7265578 1.9145051,1.7139331 1.9145051,1.7139331 1.9276584,1.7043865 1.9345178,1.7003567 1.9417157,1.6972178 1.9492978,1.6950892 1.9571793,1.693748 1.973441,1.6923778 1.9682568,1.6419003 1.9682568,1.6419003 1.9440604,1.6459466 1.9323984,1.6489005 1.9212599,1.6529714 1.9107939,1.6584772 1.9009225,1.6652515 1.8821722,1.6809181 1.8821722,1.6809181 1.8688951,1.7016394 1.8633096,1.7123574 1.8589856,1.7235033 1.8560872,1.7351328 1.8542979,1.7471387 1.8525679,1.7717775 1.8525679,1.7717775 1.8544808,1.7967679 1.8564294,1.8089022 1.8595684,1.8206034 1.8642334,1.8317496 1.8702397,1.8424078 1.8844915,1.8629099 1.8844915,1.8629099 1.9017889,1.8771387 1.9108627,1.883254 1.9204467,1.8881703 1.9306508,1.8916293 1.9413596,1.8939021 1.9636184,1.8964706 1.9636184,1.8964706 1.9757609,1.8956674 1.9877153,1.8939547 1.9993602,1.890745 2.0108216,1.8866479 2.0108216,1.8866479 2.0239458,1.8798846 2.0365407,1.8723175 2.0483279,1.8635239 2.059662,1.8540422 2.059662,1.8540422 2.0781407,1.8359402 2.0960715,1.8173232 2.1300576,1.778326 2.1300576,1.778326 2.1546178,1.7494017 2.1803987,1.7215729 2.1803987,1.7215729 2.1931591,1.7105075 2.2070017,1.7008362 2.2070017,1.8970163 2.254205,1.8970163z" transform="matrix(1,0,0,-1,3.529262,3.65)" fill="rgb(116,116,116)" fill-rule="nonzero" shaper:cutDepth="0.05cm" stroke-linecap="round" stroke-linejoin="round" /><path d="M2.5169505,-1.4964805 L2.5169505,-1.4964805 2.5327087,-1.4931215 2.5403291,-1.4909111 2.547639,-1.4880634 2.5545464,-1.4843899 2.5610897,-1.479969 2.5735672,-1.4698775 2.5735672,-1.4698775 2.5816582,-1.4585632 2.5851275,-1.4526875 2.5879054,-1.4465494 2.5898489,-1.4400949 2.5911176,-1.4333843 2.5925304,-1.4195364 2.5925304,-1.4195364 2.5903889,-1.4025136 2.58854,-1.3943475 2.5857572,-1.3865958 2.5818408,-1.3793471 2.5770028,-1.3725072 2.5657909,-1.3595092 2.5657909,-1.3595092 2.5497602,-1.3486081 2.5414419,-1.3440036 2.5327607,-1.3404134 2.5236631,-1.3379859 2.5142397,-1.3364689 2.4948496,-1.3349525 2.4948496,-1.3349525 2.4766164,-1.3363688 2.4677709,-1.3378103 2.4592506,-1.3401316 2.4511471,-1.3435806 2.4434098,-1.3480205 2.4285467,-1.3585542 2.4285467,-1.3585542 2.4179728,-1.3721978 2.4134732,-1.3793354 2.4099181,-1.3868521 2.4074744,-1.3948146 2.4059135,-1.4031313 2.4042629,-1.420355 2.4042629,-1.420355 2.4050381,-1.4315529 2.4068447,-1.4424882 2.410405,-1.4529773 2.4150406,-1.4631927 2.4150406,-1.4631927 2.4207501,-1.4718967 2.4271495,-1.4799549 2.4347201,-1.4869163 2.4430078,-1.4932063 2.4370051,-1.5393182 2.2315481,-1.5005733 2.2315481,-1.3016647 2.2784785,-1.3016647 2.2784785,-1.4612827 2.3859819,-1.4828379 2.3859819,-1.4828379 2.3756603,-1.4652672 2.3711757,-1.4562605 2.3675025,-1.4469883 2.364846,-1.4373833 2.3630472,-1.4274976 2.3608796,-1.4072581 2.3608796,-1.4072581 2.3636409,-1.382556 2.3660919,-1.3706462 2.3698275,-1.3592657 2.3751436,-1.3485367 2.3817619,-1.3383444 2.3971688,-1.3188543 2.3971688,-1.3188543 2.4178909,-1.3032208 2.4287065,-1.2965601 2.4400675,-1.2912866 2.452073,-1.2876519 2.4645916,-1.2853223 2.490484,-1.2828379 2.490484,-1.2828379 2.5158642,-1.2851328 2.5282323,-1.287225 2.5402139,-1.2904509 2.5517148,-1.2950869 2.5628144,-1.3009001 2.5843448,-1.3144887 2.5843448,-1.3144887 2.5950938,-1.3254281 2.6052368,-1.3366513 2.614168,-1.3484423 2.6212816,-1.3610848 2.626223,-1.3747449 2.6294213,-1.3892217 2.6314573,-1.4042429 2.6329123,-1.4195364 2.6329123,-1.4195364 2.630951,-1.4438115 2.6290333,-1.4556184 2.6259912,-1.4670286 2.6215206,-1.4779348 2.6158169,-1.4884059 2.602353,-1.5086224 2.602353,-1.5086224 2.5848003,-1.5239693 2.5755534,-1.5306883 2.565742,-1.5362621 2.5552603,-1.5404762 2.5442431,-1.5436041 2.5213162,-1.5480494 2.5169505,-1.4964805z" transform="matrix(1,0,0,-1,3.529262,3.65)" fill="rgb(116,116,116)" fill-rule="nonzero" shaper:cutDepth="0.05cm" stroke-linecap="round" stroke-linejoin="round" /><path d="M-1.1384229,-1.2842103 L-1.1384229,-1.5486033 -1.1384229,-1.5486033 -1.1471477,-1.5483483 -1.1557647,-1.5474525 -1.1642013,-1.5454853 -1.1725294,-1.5428734 -1.1725294,-1.5428734 -1.1868022,-1.5364027 -1.2005272,-1.5290224 -1.2133818,-1.5201975 -1.2257353,-1.5105405 -1.2257353,-1.5105405 -1.2418669,-1.4954173 -1.2574101,-1.479734 -1.2720944,-1.4632329 -1.2863083,-1.446284 -1.2863083,-1.446284 -1.3058914,-1.4226834 -1.3262499,-1.399844 -1.3480813,-1.3784508 -1.3710287,-1.3581531 -1.3710287,-1.3581531 -1.3846112,-1.3492347 -1.3915929,-1.3452875 -1.398803,-1.3419549 -1.4063103,-1.3394213 -1.414089,-1.3376179 -1.430101,-1.3352335 -1.430101,-1.3352335 -1.4439424,-1.3368492 -1.450603,-1.3382701 -1.4569513,-1.3404265 -1.4629172,-1.3434842 -1.4685693,-1.347281 -1.4793506,-1.3561067 -1.4793506,-1.3561067 -1.488143,-1.3682874 -1.4918747,-1.3746288 -1.4948095,-1.3812714 -1.496815,-1.388265 -1.4980863,-1.3955361 -1.4994052,-1.4105405 -1.4994052,-1.4105405 -1.4980365,-1.4262536 -1.4966999,-1.4338585 -1.4945805,-1.4411613 -1.491467,-1.4480805 -1.4874957,-1.4546689 -1.4781228,-1.4672936 -1.4781228,-1.4672936 -1.4649695,-1.4768402 -1.4581101,-1.4808699 -1.4509122,-1.4840089 -1.4433301,-1.4861374 -1.4354486,-1.4874787 -1.4191869,-1.4888488 -1.4243711,-1.5393263 -1.4243711,-1.5393263 -1.4485675,-1.53528 -1.4602295,-1.5323261 -1.471368,-1.5282552 -1.481834,-1.5227494 -1.4917054,-1.5159751 -1.5104557,-1.5003086 -1.5104557,-1.5003086 -1.5237328,-1.4795872 -1.5293183,-1.4688693 -1.5336423,-1.4577234 -1.5365408,-1.4460938 -1.53833,-1.4340879 -1.54006,-1.4094491 -1.54006,-1.4094491 -1.5381471,-1.3844587 -1.5361986,-1.3723244 -1.5330595,-1.3606232 -1.5283945,-1.349477 -1.5223882,-1.3388188 -1.5081364,-1.3183168 -1.5081364,-1.3183168 -1.490839,-1.3040879 -1.4817652,-1.2979726 -1.4721812,-1.2930563 -1.4619771,-1.2895973 -1.4512683,-1.2873246 -1.4290096,-1.284756 -1.4290096,-1.284756 -1.416867,-1.2855592 -1.4049126,-1.287272 -1.3932677,-1.2904816 -1.3818063,-1.2945787 -1.3818063,-1.2945787 -1.3686821,-1.3013421 -1.3560872,-1.3089091 -1.3443,-1.3177028 -1.3329659,-1.3271844 -1.3329659,-1.3271844 -1.3144872,-1.3452865 -1.2965564,-1.3639034 -1.2625703,-1.4029007 -1.2625703,-1.4029007 -1.2380101,-1.4318249 -1.2122292,-1.4596537 -1.2122292,-1.4596537 -1.1994688,-1.4707191 -1.1856262,-1.4803904 -1.1856262,-1.2842103 -1.1384229,-1.2842103z" transform="matrix(1,0,0,-1,3.529262,3.65)" fill="rgb(116,116,116)" fill-rule="nonzero" shaper:cutDepth="0.05cm" stroke-linecap="round" stroke-linejoin="round" /><path d="M0.9344131,-3.2912632 L0.4649724,-3.2912632 0.4649724,-3.2912632 0.4790469,-3.3076906 0.4923188,-3.3247071 0.5043648,-3.3426235 0.5157228,-3.3610449 0.5157228,-3.3610449 0.5263813,-3.3798784 0.5364487,-3.3989995 0.5454622,-3.4186333 0.5537855,-3.4386029 0.4825714,-3.4386029 0.4825714,-3.4386029 0.4676569,-3.4098349 0.4597499,-3.395745 0.4513034,-3.382008 0.4421825,-3.3687121 0.432495,-3.3557868 0.4121757,-3.3305538 0.4121757,-3.3305538 0.3941684,-3.3116304 0.3848365,-3.302578 0.3751107,-3.2940166 0.3648721,-3.2860945 0.3541631,-3.2787588 0.3319574,-3.2650695 0.3319574,-3.2175934 0.9344131,-3.2175934 0.9344131,-3.2912632z" transform="matrix(1,0,0,-1,3.529262,3.65)" fill="rgb(116,116,116)" fill-rule="nonzero" shaper:cutDepth="0.05cm" stroke-linecap="round" stroke-linejoin="round" /><path d="M0.9344131,-2.8873069 L0.4649724,-2.8873069 0.4649724,-2.8873069 0.4790469,-2.9037343 0.4923188,-2.9207508 0.5043648,-2.9386672 0.5157228,-2.9570886 0.5157228,-2.9570886 0.5263813,-2.975922 0.5364487,-2.9950431 0.5454622,-3.0146769 0.5537855,-3.0346466 0.4825714,-3.0346466 0.4825714,-3.0346466 0.4676569,-3.0058786 0.4597499,-2.9917887 0.4513034,-2.9780517 0.4421825,-2.9647558 0.432495,-2.9518305 0.4121757,-2.9265975 0.4121757,-2.9265975 0.3941684,-2.9076741 0.3848366,-2.8986216 0.3751107,-2.8900602 0.3648721,-2.8821381 0.3541631,-2.8748024 0.3319574,-2.8611131 0.3319574,-2.813637 0.9344131,-2.813637 0.9344131,-2.8873069z" transform="matrix(1,0,0,-1,3.529262,3.65)" fill="rgb(116,116,116)" fill-rule="nonzero" shaper:cutDepth="0.05cm" stroke-linecap="round" stroke-linejoin="round" /><path d="M1.654205,1.4287353 a0.15,0.15 0 1,1 0.3,0 a0.15,0.15 0 1,1 -0.3,0z" transform="matrix(1,0,0,-1,3.529262,3.65)" fill="rgb(255,255,255)" stroke="rgb(0,0,0)" stroke-width="0.0010cm" stroke-linecap="round" stroke-linejoin="round" shaper:cutDepth="0.3cm" /><path d="M-2.0324417,0.8334303 a0.15,0.15 0 1,1 0.3,0 a0.15,0.15 0 1,1 -0.3,0z" transform="matrix(1,0,0,-1,3.529262,3.65)" fill="rgb(255,255,255)" stroke="rgb(0,0,0)" stroke-width="0.0010cm" stroke-linecap="round" stroke-linejoin="round" shaper:cutDepth="0.3cm" /><path d="M-1.7384229,-1.7524914 a0.15,0.15 0 1,1 0.3,0 a0.15,0.15 0 1,1 -0.3,0z" transform="matrix(1,0,0,-1,3.529262,3.65)" fill="rgb(255,255,255)" stroke="rgb(0,0,0)" stroke-width="0.0010cm" stroke-linecap="round" stroke-linejoin="round" shaper:cutDepth="0.3cm" /><path d="M0.0271424,-0.2010624 a0.15,0.15 0 1,1 0.3,0 a0.15,0.15 0 1,1 -0.3,0z" transform="matrix(1,0,0,-1,3.529262,3.65)" fill="rgb(255,255,255)" stroke="rgb(0,0,0)" stroke-width="0.0010cm" stroke-linecap="round" stroke-linejoin="round" shaper:cutDepth="0.3cm" /><path d="M2.0288196,-1.754666 a0.15,0.15 0 1,1 0.3,0 a0.15,0.15 0 1,1 -0.3,0z" transform="matrix(1,0,0,-1,3.529262,3.65)" fill="rgb(255,255,255)" stroke="rgb(0,0,0)" stroke-width="0.0010cm" stroke-linecap="round" stroke-linejoin="round" shaper:cutDepth="0.3cm" /><path d="M-2.5342727,1.25 L-2.5342727,-1.25 -2.2342727,-1.25 -2.2342727,1.25 -2.5342727,1.25z" transform="matrix(1,0,0,-1,3.529262,3.65)" fill="rgb(255,255,255)" stroke="rgb(0,0,0)" stroke-width="0.0010cm" stroke-linecap="round" stroke-linejoin="round" shaper:cutDepth="0.3cm" /><path d="M2.979262,-3.25 a0.15,0.15 0 1,1 0.3,0 a0.15,0.15 0 1,1 -0.3,0z" transform="matrix(1,0,0,-1,3.529262,3.65)" fill="rgb(255,255,255)" stroke="rgb(0,0,0)" stroke-width="0.0010cm" stroke-linecap="round" stroke-linejoin="round" shaper:cutDepth="0.3cm" /><path d="M-1.520738,3.25 a0.15,0.15 0 1,1 0.3,0 a0.15,0.15 0 1,1 -0.3,0z" transform="matrix(1,0,0,-1,3.529262,3.65)" fill="rgb(255,255,255)" stroke="rgb(0,0,0)" stroke-width="0.0010cm" stroke-linecap="round" stroke-linejoin="round" shaper:cutDepth="0.3cm" /><path d="M2.979262,3.25 a0.15,0.15 0 1,1 0.3,0 a0.15,0.15 0 1,1 -0.3,0z" transform="matrix(1,0,0,-1,3.529262,3.65)" fill="rgb(255,255,255)" stroke="rgb(0,0,0)" stroke-width="0.0010cm" stroke-linecap="round" stroke-linejoin="round" shaper:cutDepth="0.3cm" /><path d="M-1.520738,-3.25 a0.15,0.15 0 1,1 0.3,0 a0.15,0.15 0 1,1 -0.3,0z" transform="matrix(1,0,0,-1,3.529262,3.65)" fill="rgb(255,255,255)" stroke="rgb(0,0,0)" stroke-width="0.0010cm" stroke-linecap="round" stroke-linejoin="round" shaper:cutDepth="0.3cm" /><path d="M-2.1707381,2 L-0.870738,2 -0.870738,2.7500001 -2.1707381,2.7500001 A0.3,0.3 90 0,1 -2.4707381,2.4500001 L-2.4707381,2.3 A0.3,0.3 180 0,1 -2.1707381,2z" transform="matrix(1,0,0,-1,3.529262,3.65)" fill="rgb(255,255,255)" stroke="rgb(0,0,0)" stroke-width="0.0010cm" stroke-linecap="round" stroke-linejoin="round" shaper:cutDepth="0.3cm" /></svg>