<?xml version="1.0" encoding="utf-8"?>
<!-- Generator: Fusion 360, Shaper Origin Export Add-In, Version 1.7.0  -->
<svg xmlns="http://www.w3.org/2000/svg" xmlns:xlink="http://www.w3.org/1999/xlink" xmlns:shaper="http://www.shapertools.com/namespaces/shaper" shaper:fusionaddin="version:1.7.0" width="7.058524cm" height="7.3cm" version="1.1" x="0cm" y="0cm" viewBox="0 0 7.058524 7.3" enable-background="new 0 0 7.058524 7.3" xml:space="preserve"><path d="M-3.529262,-2.0046781 L-1.8572407,-3.5690658 A0.3,0.3 226.9047902 0,1 -1.6522768,-3.65 L3.229262,-3.65 A0.3,0.3 270 0,1 3.529262,-3.35 L3.529262,-2.7885309 3.229262,-2.7885309 3.229262,-0.7885309 3.529262,-0.7885309 3.529262,3.35 A0.3,0.3 0 0,1 3.229262,3.65 L-1.6522768,3.65 A0.3,0.3 90 0,1 -1.8572407,3.5690658 L-3.529262,2.0046781 -3.529262,1.65 -3.2342727,1.65 -3.2342727,-1.65 -3.529262,-1.65 -3.529262,-2.0046781z" transform="matrix(1,0,0,-1,3.529262,3.65)" fill="rgb(0,0,0)" shaper:cutDepth="0.3cm" stroke-linecap="round" stroke-linejoin="round" /><path d="M0.1736935,1.6979314 L0.1736935,1.524398 0.128673,1.524398 -0.1305357,1.7069355 -0.1305357,1.7470447 0.128673,1.7470447 0.128673,1.8010692 0.1736935,1.8010692 0.1736935,1.7470447 0.2694643,1.7470447 0.2694643,1.6979314 0.1736935,1.6979314z M-0.0516817,1.6979314 L0.128673,1.5726927 0.128673,1.6979314 -0.0516817,1.6979314z" transform="matrix(1,0,0,-1,3.529262,3.65)" fill="rgb(116,116,116)" fill-rule="nonzero" shaper:cutDepth="0.05cm" stroke-linecap="round" stroke-linejoin="round" /><path d="M1.8368654,-2.243372 L1.8368654,-2.4169054 1.7918449,-2.4169054 1.5326362,-2.2343679 1.5326362,-2.1942588 1.7918449,-2.1942588 1.7918449,-2.1402342 1.8368654,-2.1402342 1.8368654,-2.1942588 1.9326362,-2.1942588 1.9326362,-2.243372 1.8368654,-2.243372z M1.6114902,-2.243372 L1.7918449,-2.3686107 1.7918449,-2.243372 1.6114902,-2.243372z" transform="matrix(1,0,0,-1,3.529262,3.65)" fill="rgb(116,116,116)" fill-rule="nonzero" shaper:cutDepth="0.05cm" stroke-linecap="round" stroke-linejoin="round" /><path d="M-1.0585443,0.1860633 L-1.0585443,-0.0783296 -1.0585443,-0.0783296 -1.0672691,-0.0780746 -1.075886,-0.0771788 -1.0843227,-0.0752117 -1.0926507,-0.0725997 -1.0926507,-0.0725997 -1.1069236,-0.0661291 -1.1206486,-0.0587488 -1.1335032,-0.0499238 -1.1458567,-0.0402668 -1.1458567,-0.0402668 -1.1619883,-0.0251436 -1.1775315,-0.0094603 -1.1922158,0.0070407 -1.2064297,0.0239896 -1.2064297,0.0239896 -1.2260127,0.0475903 -1.2463712,0.0704297 -1.2682027,0.0918229 -1.29115,0.1121206 -1.29115,0.1121206 -1.3047326,0.121039 -1.3117142,0.1249861 -1.3189244,0.1283187 -1.3264316,0.1308523 -1.3342104,0.1326557 -1.3502223,0.1350401 -1.3502223,0.1350401 -1.3640638,0.1334244 -1.3707244,0.1320036 -1.3770727,0.1298471 -1.3830385,0.1267895 -1.3886906,0.1229926 -1.399472,0.114167 -1.399472,0.114167 -1.4082643,0.1019862 -1.4119961,0.0956448 -1.4149309,0.0890023 -1.4169364,0.0820086 -1.4182077,0.0747376 -1.4195266,0.0597332 -1.4195266,0.0597332 -1.4181579,0.0440201 -1.4168213,0.0364152 -1.4147019,0.0291124 -1.4115883,0.0221931 -1.4076171,0.0156048 -1.3982442,0.0029801 -1.3982442,0.0029801 -1.3850908,-0.0065665 -1.3782315,-0.0105963 -1.3710335,-0.0137352 -1.3634514,-0.0158638 -1.35557,-0.017205 -1.3393083,-0.0185752 -1.3444925,-0.0690526 -1.3444925,-0.0690526 -1.3686889,-0.0650064 -1.3803509,-0.0620524 -1.3914894,-0.0579816 -1.4019554,-0.0524758 -1.4118268,-0.0457014 -1.430577,-0.0300349 -1.430577,-0.0300349 -1.4438542,-0.0093136 -1.4494397,0.0014044 -1.4537637,0.0125503 -1.4566621,0.0241799 -1.4584514,0.0361857 -1.4601814,0.0608246 -1.4601814,0.0608246 -1.4582685,0.0858149 -1.4563199,0.0979492 -1.4531809,0.1096504 -1.4485159,0.1207966 -1.4425095,0.1314549 -1.4282578,0.1519569 -1.4282578,0.1519569 -1.4109604,0.1661857 -1.4018866,0.172301 -1.3923026,0.1772174 -1.3820985,0.1806763 -1.3713897,0.1829491 -1.3491309,0.1855176 -1.3491309,0.1855176 -1.3369884,0.1847144 -1.3250339,0.1830017 -1.313389,0.179792 -1.3019276,0.175695 -1.3019276,0.175695 -1.2888035,0.1689316 -1.2762086,0.1613645 -1.2644214,0.1525709 -1.2530873,0.1430892 -1.2530873,0.1430892 -1.2346086,0.1249872 -1.2166778,0.1063702 -1.1826917,0.067373 -1.1826917,0.067373 -1.1581315,0.0384487 -1.1323506,0.0106199 -1.1323506,0.0106199 -1.1195902,-0.0004455 -1.1057475,-0.0101168 -1.1057475,0.1860633 -1.0585443,0.1860633z" transform="matrix(1,0,0,-1,3.529262,3.65)" fill="rgb(116,116,116)" fill-rule="nonzero" shaper:cutDepth="0.05cm" stroke-linecap="round" stroke-linejoin="round" /><path d="M1.3206605,-0.2475503 L1.3206605,-0.4210837 1.27564,-0.4210837 1.0164313,-0.2385461 1.0164313,-0.198437 1.27564,-0.198437 1.27564,-0.1444125 1.3206605,-0.1444125 1.3206605,-0.198437 1.4164313,-0.198437 1.4164313,-0.2475503 1.3206605,-0.2475503z M1.0952853,-0.2475503 L1.27564,-0.372789 1.27564,-0.2475503 1.0952853,-0.2475503z" transform="matrix(1,0,0,-1,3.529262,3.65)" fill="rgb(116,116,116)" fill-rule="nonzero" shaper:cutDepth="0.05cm" stroke-linecap="round" stroke-linejoin="round" /><path d="M2.8549128,1.7449627 L2.8549128,1.4805698 2.8549128,1.4805698 2.846188,1.4808248 2.837571,1.4817206 2.8291344,1.4836877 2.8208064,1.4862997 2.8208064,1.4862997 2.8065335,1.4927704 2.7928085,1.5001506 2.7799539,1.5089756 2.7676004,1.5186326 2.7676004,1.5186326 2.7514688,1.5337558 2.7359256,1.5494391 2.7212413,1.5659402 2.7070274,1.5828891 2.7070274,1.5828891 2.6874443,1.6064897 2.6670859,1.6293291 2.6452544,1.6507223 2.6223071,1.67102 2.6223071,1.67102 2.6087245,1.6799384 2.6017429,1.6838855 2.5945327,1.6872182 2.5870255,1.6897517 2.5792467,1.6915552 2.5632347,1.6939395 2.5632347,1.6939395 2.5493933,1.6923238 2.5427327,1.690903 2.5363844,1.6887466 2.5304186,1.6856889 2.5247664,1.681892 2.5139851,1.6730664 2.5139851,1.6730664 2.5051928,1.6608856 2.501461,1.6545442 2.4985262,1.6479017 2.4965207,1.6409081 2.4952494,1.633637 2.4939305,1.6186326 2.4939305,1.6186326 2.4952992,1.6029195 2.4966358,1.5953146 2.4987552,1.5880118 2.5018688,1.5810925 2.50584,1.5745042 2.5152129,1.5618795 2.5152129,1.5618795 2.5283662,1.5523329 2.5352256,1.5483032 2.5424236,1.5451642 2.5500057,1.5430356 2.5578871,1.5416944 2.5741488,1.5403242 2.5689646,1.4898468 2.5689646,1.4898468 2.5447682,1.4938931 2.5331062,1.496847 2.5219677,1.5009178 2.5115017,1.5064237 2.5016303,1.513198 2.4828801,1.5288645 2.4828801,1.5288645 2.4696029,1.5495859 2.4640174,1.5603038 2.4596934,1.5714497 2.456795,1.5830793 2.4550057,1.5950851 2.4532757,1.619724 2.4532757,1.619724 2.4551886,1.6447143 2.4571372,1.6568486 2.4602762,1.6685499 2.4649412,1.6796961 2.4709475,1.6903543 2.4851993,1.7108563 2.4851993,1.7108563 2.5024967,1.7250851 2.5115705,1.7312004 2.5211545,1.7361168 2.5313586,1.7395757 2.5420674,1.7418485 2.5643262,1.744417 2.5643262,1.744417 2.5764687,1.7436138 2.5884231,1.7419011 2.600068,1.7386914 2.6115294,1.7345944 2.6115294,1.7345944 2.6246536,1.727831 2.6372485,1.7202639 2.6490357,1.7114703 2.6603698,1.7019886 2.6603698,1.7019886 2.6788485,1.6838866 2.6967793,1.6652696 2.7307654,1.6262724 2.7307654,1.6262724 2.7553256,1.5973482 2.7811065,1.5695193 2.7811065,1.5695193 2.7938669,1.558454 2.8077095,1.5487827 2.8077095,1.7449627 2.8549128,1.7449627z" transform="matrix(1,0,0,-1,3.529262,3.65)" fill="rgb(116,116,116)" fill-rule="nonzero" shaper:cutDepth="0.05cm" stroke-linecap="round" stroke-linejoin="round" /><path d="M0.3214647,-3.4499723 L0.3214647,-3.0615685 0.3787635,-3.0615685 0.3787635,-3.0615685 0.4168453,-3.0934029 0.4363288,-3.1086952 0.4563414,-3.1232403 0.4769389,-3.1369594 0.4979876,-3.1500412 0.5408371,-3.1751429 0.5408371,-3.1751429 0.5911104,-3.2009682 0.6165355,-3.21319 0.6423068,-3.2245829 0.6685054,-3.2349526 0.6950573,-3.2444765 0.7487498,-3.2621142 0.7487498,-3.2621142 0.7894468,-3.2722799 0.8098894,-3.2768197 0.8304447,-3.280708 0.8511327,-3.2838298 0.871926,-3.2863428 0.9136885,-3.2903543 0.9136885,-3.3660705 0.9136885,-3.3660705 0.8703591,-3.3626812 0.8487974,-3.3603306 0.8273584,-3.3571974 0.8060525,-3.3532164 0.7848486,-3.3485853 0.7426107,-3.3382397 0.7426107,-3.3382397 0.6927407,-3.3230213 0.6680664,-3.3147514 0.6437048,-3.3056885 0.6197238,-3.2956608 0.5960527,-3.284847 0.5492273,-3.2619095 0.5492273,-3.2619095 0.5079271,-3.2384968 0.4876152,-3.2262921 0.4677092,-3.2134892 0.4483215,-3.1999225 0.4293861,-3.1856895 0.3922696,-3.1561115 0.3922696,-3.4499723 0.3214647,-3.4499723z" transform="matrix(1,0,0,-1,3.529262,3.65)" fill="rgb(116,116,116)" fill-rule="nonzero" shaper:cutDepth="0.05cm" stroke-linecap="round" stroke-linejoin="round" /><path d="M-2.1707381,2 L-0.870738,2 -0.870738,2.7500001 -2.1707381,2.7500001 A0.3,0.3 90 0,1 -2.4707381,2.4500001 L-2.4707381,2.3 A0.3,0.3 180 0,1 -2.1707381,2z" transform="matrix(1,0,0,-1,3.529262,3.65)" fill="rgb(255,255,255)" stroke="rgb(0,0,0)" stroke-width="0.0010cm" stroke-linecap="round" stroke-linejoin="round" shaper:cutDepth="0.3cm" /><path d="M-1.520738,-3.25 a0.15,0.15 0 1,1 0.3,0 a0.15,0.15 0 1,1 -0.3,0z" transform="matrix(1,0,0,-1,3.529262,3.65)" fill="rgb(255,255,255)" stroke="rgb(0,0,0)" stroke-width="0.0010cm" stroke-linecap="round" stroke-linejoin="round" shaper:cutDepth="0.3cm" /><path d="M2.979262,3.25 a0.15,0.15 0 1,1 0.3,0 a0.15,0.15 0 1,1 -0.3,0z" transform="matrix(1,0,0,-1,3.529262,3.65)" fill="rgb(255,255,255)" stroke="rgb(0,0,0)" stroke-width="0.0010cm" stroke-linecap="round" stroke-linejoin="round" shaper:cutDepth="0.3cm" /><path d="M-1.520738,3.25 a0.15,0.15 0 1,1 0.3,0 a0.15,0.15 0 1,1 -0.3,0z" transform="matrix(1,0,0,-1,3.529262,3.65)" fill="rgb(255,255,255)" stroke="rgb(0,0,0)" stroke-width="0.0010cm" stroke-linecap="round" stroke-linejoin="round" shaper:cutDepth="0.3cm" /><path d="M2.979262,-3.25 a0.15,0.15 0 1,1 0.3,0 a0.15,0.15 0 1,1 -0.3,0z" transform="matrix(1,0,0,-1,3.529262,3.65)" fill="rgb(255,255,255)" stroke="rgb(0,0,0)" stroke-width="0.0010cm" stroke-linecap="round" stroke-linejoin="round" shaper:cutDepth="0.3cm" /><path d="M-2.5342727,1.25 L-2.5342727,-1.25 -2.2342727,-1.25 -2.2342727,1.25 -2.5342727,1.25z" transform="matrix(1,0,0,-1,3.529262,3.65)" fill="rgb(255,255,255)" stroke="rgb(0,0,0)" stroke-width="0.0010cm" stroke-linecap="round" stroke-linejoin="round" shaper:cutDepth="0.3cm" /><path d="M1.3326362,-2.6097431 a0.15,0.15 0 1,1 0.3,0 a0.15,0.15 0 1,1 -0.3,0z" transform="matrix(1,0,0,-1,3.529262,3.65)" fill="rgb(255,255,255)" stroke="rgb(0,0,0)" stroke-width="0.0010cm" stroke-linecap="round" stroke-linejoin="round" shaper:cutDepth="0.3cm" /><path d="M-1.6585443,-0.2822177 a0.15,0.15 0 1,1 0.3,0 a0.15,0.15 0 1,1 -0.3,0z" transform="matrix(1,0,0,-1,3.529262,3.65)" fill="rgb(255,255,255)" stroke="rgb(0,0,0)" stroke-width="0.0010cm" stroke-linecap="round" stroke-linejoin="round" shaper:cutDepth="0.3cm" /><path d="M2.2549128,1.2766817 a0.15,0.15 0 1,1 0.3,0 a0.15,0.15 0 1,1 -0.3,0z" transform="matrix(1,0,0,-1,3.529262,3.65)" fill="rgb(255,255,255)" stroke="rgb(0,0,0)" stroke-width="0.0010cm" stroke-linecap="round" stroke-linejoin="round" shaper:cutDepth="0.3cm" /><path d="M-0.3305358,1.3315604 a0.15,0.15 0 1,1 0.3,0 a0.15,0.15 0 1,1 -0.3,0z" transform="matrix(1,0,0,-1,3.529262,3.65)" fill="rgb(255,255,255)" stroke="rgb(0,0,0)" stroke-width="0.0010cm" stroke-linecap="round" stroke-linejoin="round" shaper:cutDepth="0.3cm" /><path d="M0.8164313,-0.6139213 a0.15,0.15 0 1,1 0.3,0 a0.15,0.15 0 1,1 -0.3,0z" transform="matrix(1,0,0,-1,3.529262,3.65)" fill="rgb(255,255,255)" stroke="rgb(0,0,0)" stroke-width="0.0010cm" stroke-linecap="round" stroke-linejoin="round" shaper:cutDepth="0.3cm" /></svg>