<?xml version="1.0" encoding="utf-8"?>
<!-- Generator: Fusion 360, Shaper Origin Export Add-In, Version 1.7.0  -->
<svg xmlns="http://www.w3.org/2000/svg" xmlns:xlink="http://www.w3.org/1999/xlink" xmlns:shaper="http://www.shapertools.com/namespaces/shaper" shaper:fusionaddin="version:1.7.0" width="7.058524cm" height="7.3cm" version="1.1" x="0cm" y="0cm" viewBox="0 0 7.058524 7.3" enable-background="new 0 0 7.058524 7.3" xml:space="preserve"><path d="M-3.529262,0.6418363 L-1.8572407,-0.9225514 A0.3,0.3 226.9047902 0,1 -1.6522768,-1.0034856 L3.229262,-1.0034856 A0.3,0.3 270 0,1 3.529262,-0.7034856 L3.529262,-0.1420164 3.229262,-0.1420164 3.229262,1.8579836 3.529262,1.8579836 3.529262,5.9965144 A0.3,0.3 0 0,1 3.229262,6.2965144 L-1.6522768,6.2965144 A0.3,0.3 90 0,1 -1.8572407,6.2155802 L-3.529262,4.6511926 -3.529262,4.2965144 -3.2342727,4.2965144 -3.2342727,0.9965144 -3.529262,0.9965144 -3.529262,0.6418363z" transform="matrix(1,0,0,-1,3.529262,6.2965144)" fill="rgb(0,0,0)" shaper:cutDepth="0.3cm" stroke-linecap="round" stroke-linejoin="round" /><path d="M0.0165651,2.6602352 L0.0165651,2.3958423 0.0165651,2.3958423 0.0078403,2.3960973 -0.0007766,2.3969931 -0.0092132,2.3989603 -0.0175413,2.4015722 -0.0175413,2.4015722 -0.0318142,2.4080429 -0.0455391,2.4154232 -0.0583938,2.4242481 -0.0707473,2.4339051 -0.0707473,2.4339051 -0.0868788,2.4490283 -0.102422,2.4647116 -0.1171063,2.4812127 -0.1313202,2.4981616 -0.1313202,2.4981616 -0.1509033,2.5217622 -0.1712618,2.5446016 -0.1930933,2.5659948 -0.2160406,2.5862925 -0.2160406,2.5862925 -0.2296231,2.5952109 -0.2366048,2.599158 -0.2438149,2.6024907 -0.2513222,2.6050243 -0.2591009,2.6068277 -0.2751129,2.6092121 -0.2751129,2.6092121 -0.2889544,2.6075964 -0.2956149,2.6061755 -0.3019633,2.6040191 -0.3079291,2.6009614 -0.3135812,2.5971646 -0.3243625,2.5883389 -0.3243625,2.5883389 -0.3331549,2.5761582 -0.3368866,2.5698167 -0.3398215,2.5631742 -0.3418269,2.5561806 -0.3430982,2.5489095 -0.3444171,2.5339051 -0.3444171,2.5339051 -0.3430485,2.518192 -0.3417118,2.5105871 -0.3395924,2.5032843 -0.3364789,2.496365 -0.3325076,2.4897767 -0.3231347,2.477152 -0.3231347,2.477152 -0.3099814,2.4676054 -0.3031221,2.4635757 -0.2959241,2.4604367 -0.288342,2.4583081 -0.2804606,2.4569669 -0.2641988,2.4555968 -0.269383,2.4051193 -0.269383,2.4051193 -0.2935795,2.4091656 -0.3052414,2.4121195 -0.31638,2.4161904 -0.3268459,2.4216962 -0.3367173,2.4284705 -0.3554676,2.444137 -0.3554676,2.444137 -0.3687448,2.4648584 -0.3743302,2.4755763 -0.3786542,2.4867222 -0.3815527,2.4983518 -0.383342,2.5103576 -0.385072,2.5349965 -0.385072,2.5349965 -0.383159,2.5599869 -0.3812105,2.5721212 -0.3780714,2.5838224 -0.3734065,2.5949686 -0.3674001,2.6056268 -0.3531484,2.6261288 -0.3531484,2.6261288 -0.335851,2.6403577 -0.3267771,2.646473 -0.3171932,2.6513893 -0.3069891,2.6548483 -0.2962803,2.657121 -0.2740215,2.6596896 -0.2740215,2.6596896 -0.2618789,2.6588864 -0.2499245,2.6571736 -0.2382796,2.653964 -0.2268182,2.6498669 -0.2268182,2.6498669 -0.213694,2.6431035 -0.2010991,2.6355365 -0.1893119,2.6267428 -0.1779778,2.6172612 -0.1779778,2.6172612 -0.1594992,2.5991591 -0.1415683,2.5805422 -0.1075822,2.5415449 -0.1075822,2.5415449 -0.083022,2.5126207 -0.0572411,2.4847919 -0.0572411,2.4847919 -0.0444807,2.4737265 -0.0306381,2.4640552 -0.0306381,2.6602352 0.0165651,2.6602352z" transform="matrix(1,0,0,-1,3.529262,6.2965144)" fill="rgb(116,116,116)" fill-rule="nonzero" shaper:cutDepth="0.05cm" stroke-linecap="round" stroke-linejoin="round" /><path d="M2.3944196,0.3760456 L2.3944196,0.1116527 2.3944196,0.1116527 2.3856948,0.1119077 2.3770778,0.1128035 2.3686412,0.1147706 2.3603132,0.1173826 2.3603132,0.1173826 2.3460403,0.1238533 2.3323153,0.1312335 2.3194607,0.1400585 2.3071072,0.1497155 2.3071072,0.1497155 2.2909756,0.1648387 2.2754324,0.180522 2.2607481,0.197023 2.2465342,0.2139719 2.2465342,0.2139719 2.2269511,0.2375726 2.2065926,0.260412 2.1847612,0.2818052 2.1618139,0.3021029 2.1618139,0.3021029 2.1482313,0.3110213 2.1412497,0.3149684 2.1340395,0.3183011 2.1265323,0.3208346 2.1187535,0.3226381 2.1027415,0.3250224 2.1027415,0.3250224 2.0889001,0.3234067 2.0822395,0.3219859 2.0758912,0.3198294 2.0699253,0.3167718 2.0642732,0.3129749 2.0534919,0.3041493 2.0534919,0.3041493 2.0446996,0.2919685 2.0409678,0.2856271 2.038033,0.2789846 2.0360275,0.271991 2.0347562,0.2647199 2.0334373,0.2497155 2.0334373,0.2497155 2.034806,0.2340024 2.0361426,0.2263975 2.038262,0.2190947 2.0413756,0.2121754 2.0453468,0.2055871 2.0547197,0.1929624 2.0547197,0.1929624 2.067873,0.1834158 2.0747324,0.1793861 2.0819303,0.1762471 2.0895124,0.1741185 2.0973939,0.1727773 2.1136556,0.1714071 2.1084714,0.1209297 2.1084714,0.1209297 2.084275,0.124976 2.072613,0.1279299 2.0614745,0.1320007 2.0510085,0.1375066 2.0411371,0.1442809 2.0223869,0.1599474 2.0223869,0.1599474 2.0091097,0.1806687 2.0035242,0.1913867 1.9992002,0.2025326 1.9963018,0.2141622 1.9945125,0.226168 1.9927825,0.2508069 1.9927825,0.2508069 1.9946954,0.2757972 1.996644,0.2879315 1.999783,0.2996328 2.004448,0.3107789 2.0104543,0.3214372 2.0247061,0.3419392 2.0247061,0.3419392 2.0420035,0.356168 2.0510773,0.3622833 2.0606613,0.3671997 2.0708654,0.3706586 2.0815742,0.3729314 2.103833,0.3754999 2.103833,0.3754999 2.1159755,0.3746967 2.1279299,0.372984 2.1395748,0.3697743 2.1510362,0.3656773 2.1510362,0.3656773 2.1641604,0.3589139 2.1767553,0.3513468 2.1885425,0.3425532 2.1998766,0.3330715 2.1998766,0.3330715 2.2183553,0.3149695 2.2362861,0.2963525 2.2702722,0.2573553 2.2702722,0.2573553 2.2948324,0.2284311 2.3206133,0.2006022 2.3206133,0.2006022 2.3333737,0.1895368 2.3472163,0.1798655 2.3472163,0.3760456 2.3944196,0.3760456z" transform="matrix(1,0,0,-1,3.529262,6.2965144)" fill="rgb(116,116,116)" fill-rule="nonzero" shaper:cutDepth="0.05cm" stroke-linecap="round" stroke-linejoin="round" /><path d="M-0.6468764,4.5624281 L-0.6468764,4.2980352 -0.6468764,4.2980352 -0.6556012,4.2982901 -0.6642181,4.299186 -0.6726548,4.3011531 -0.6809828,4.3037651 -0.6809828,4.3037651 -0.6952557,4.3102357 -0.7089807,4.317616 -0.7218353,4.326441 -0.7341888,4.3360979 -0.7341888,4.3360979 -0.7503204,4.3512211 -0.7658636,4.3669045 -0.7805479,4.3834055 -0.7947618,4.4003544 -0.7947618,4.4003544 -0.8143448,4.4239551 -0.8347033,4.4467944 -0.8565348,4.4681877 -0.8794821,4.4884854 -0.8794821,4.4884854 -0.8930647,4.4974038 -0.9000463,4.5013509 -0.9072565,4.5046835 -0.9147637,4.5072171 -0.9225425,4.5090205 -0.9385544,4.5114049 -0.9385544,4.5114049 -0.9523959,4.5097892 -0.9590565,4.5083684 -0.9654048,4.5062119 -0.9713706,4.5031542 -0.9770227,4.4993574 -0.9878041,4.4905318 -0.9878041,4.4905318 -0.9965964,4.478351 -1.0003282,4.4720096 -1.003263,4.4653671 -1.0052685,4.4583734 -1.0065398,4.4511024 -1.0078587,4.4360979 -1.0078587,4.4360979 -1.00649,4.4203848 -1.0051534,4.41278 -1.003034,4.4054771 -0.9999204,4.3985579 -0.9959492,4.3919696 -0.9865763,4.3793448 -0.9865763,4.3793448 -0.9734229,4.3697983 -0.9665636,4.3657685 -0.9593656,4.3626295 -0.9517835,4.360501 -0.9439021,4.3591598 -0.9276404,4.3577896 -0.9328246,4.3073121 -0.9328246,4.3073121 -0.957021,4.3113584 -0.968683,4.3143123 -0.9798215,4.3183832 -0.9902875,4.323889 -1.0001589,4.3306633 -1.0189091,4.3463299 -1.0189091,4.3463299 -1.0321863,4.3670512 -1.0377718,4.3777692 -1.0420958,4.3889151 -1.0449942,4.4005446 -1.0467835,4.4125505 -1.0485135,4.4371893 -1.0485135,4.4371893 -1.0466006,4.4621797 -1.044652,4.474314 -1.041513,4.4860152 -1.036848,4.4971614 -1.0308416,4.5078196 -1.0165899,4.5283217 -1.0165899,4.5283217 -0.9992925,4.5425505 -0.9902187,4.5486658 -0.9806347,4.5535821 -0.9704306,4.5570411 -0.9597218,4.5593139 -0.937463,4.5618824 -0.937463,4.5618824 -0.9253205,4.5610792 -0.913366,4.5593665 -0.9017211,4.5561568 -0.8902597,4.5520597 -0.8902597,4.5520597 -0.8771356,4.5452964 -0.8645407,4.5377293 -0.8527535,4.5289357 -0.8414194,4.519454 -0.8414194,4.519454 -0.8229407,4.501352 -0.8050099,4.482735 -0.7710238,4.4437378 -0.7710238,4.4437378 -0.7464636,4.4148135 -0.7206827,4.3869847 -0.7206827,4.3869847 -0.7079223,4.3759193 -0.6940796,4.366248 -0.6940796,4.5624281 -0.6468764,4.5624281z" transform="matrix(1,0,0,-1,3.529262,6.2965144)" fill="rgb(116,116,116)" fill-rule="nonzero" shaper:cutDepth="0.05cm" stroke-linecap="round" stroke-linejoin="round" /><path d="M2.738376,2.5811617 L2.738376,2.5811617 2.7541342,2.5845207 2.7617546,2.5867312 2.7690644,2.5895788 2.7759719,2.5932524 2.7825152,2.5976732 2.7949927,2.6077647 2.7949927,2.6077647 2.8030836,2.619079 2.8065529,2.6249547 2.8093308,2.6310928 2.8112743,2.6375474 2.8125431,2.644258 2.8139558,2.6581058 2.8139558,2.6581058 2.8118144,2.6751286 2.8099654,2.6832947 2.8071827,2.6910464 2.8032663,2.6982952 2.7984283,2.705135 2.7872164,2.7181331 2.7872164,2.7181331 2.7711856,2.7290341 2.7628674,2.7336386 2.7541861,2.7372289 2.7450886,2.7396564 2.7356652,2.7411733 2.7162751,2.7426897 2.7162751,2.7426897 2.6980419,2.7412734 2.6891964,2.739832 2.6806761,2.7375106 2.6725725,2.7340617 2.6648353,2.7296218 2.6499722,2.719088 2.6499722,2.719088 2.6393983,2.7054445 2.6348987,2.6983068 2.6313436,2.6907902 2.6288999,2.6828276 2.627339,2.6745109 2.6256884,2.6572872 2.6256884,2.6572872 2.6264636,2.6460894 2.6282701,2.635154 2.6318305,2.624665 2.636466,2.6144496 2.636466,2.6144496 2.6421756,2.6057455 2.6485749,2.5976873 2.6561456,2.5907259 2.6644333,2.584436 2.6584306,2.5383241 2.4529736,2.5770689 2.4529736,2.7759775 2.499904,2.7759775 2.499904,2.6163595 2.6074074,2.5948043 2.6074074,2.5948043 2.5970858,2.612375 2.5926012,2.6213817 2.5889279,2.6306539 2.5862714,2.6402589 2.5844727,2.6501447 2.5823051,2.6703841 2.5823051,2.6703841 2.5850663,2.6950862 2.5875174,2.7069961 2.591253,2.7183765 2.5965691,2.7291055 2.6031874,2.7392978 2.6185943,2.7587879 2.6185943,2.7587879 2.6393163,2.7744214 2.650132,2.7810821 2.661493,2.7863556 2.6734985,2.7899903 2.686017,2.79232 2.7119094,2.7948043 2.7119094,2.7948043 2.7372897,2.7925094 2.7496578,2.7904172 2.7616394,2.7871913 2.7731403,2.7825553 2.7842399,2.7767421 2.8057703,2.7631535 2.8057703,2.7631535 2.8165192,2.7522142 2.8266623,2.7409909 2.8355935,2.7292 2.8427071,2.7165575 2.8476485,2.7028973 2.8508467,2.6884205 2.8528828,2.6733993 2.8543378,2.6581058 2.8543378,2.6581058 2.8523765,2.6338307 2.8504588,2.6220238 2.8474167,2.6106136 2.8429461,2.5997074 2.8372424,2.5892364 2.8237784,2.5690198 2.8237784,2.5690198 2.8062258,2.5536729 2.7969789,2.5469539 2.7871675,2.5413801 2.7766858,2.537166 2.7656685,2.5340382 2.7427416,2.5295928 2.738376,2.5811617z" transform="matrix(1,0,0,-1,3.529262,6.2965144)" fill="rgb(116,116,116)" fill-rule="nonzero" shaper:cutDepth="0.05cm" stroke-linecap="round" stroke-linejoin="round" /><path d="M-0.4620449,0.2002543 L-0.4620449,0.2002543 -0.4462867,0.2036133 -0.4386663,0.2058238 -0.4313565,0.2086714 -0.424449,0.212345 -0.4179057,0.2167658 -0.4054282,0.2268573 -0.4054282,0.2268573 -0.3973373,0.2381716 -0.393868,0.2440473 -0.3910901,0.2501854 -0.3891466,0.2566399 -0.3878779,0.2633505 -0.3864651,0.2771984 -0.3864651,0.2771984 -0.3886065,0.2942212 -0.3904555,0.3023873 -0.3932382,0.310139 -0.3971546,0.3173877 -0.4019926,0.3242276 -0.4132045,0.3372257 -0.4132045,0.3372257 -0.4292353,0.3481267 -0.4375535,0.3527312 -0.4462348,0.3563215 -0.4553323,0.3587489 -0.4647557,0.3602659 -0.4841458,0.3617823 -0.4841458,0.3617823 -0.502379,0.360366 -0.5112245,0.3589245 -0.5197448,0.3566032 -0.5278484,0.3531542 -0.5355856,0.3487143 -0.5504487,0.3381806 -0.5504487,0.3381806 -0.5610226,0.324537 -0.5655222,0.3173994 -0.5690774,0.3098828 -0.571521,0.3019202 -0.5730819,0.2936035 -0.5747325,0.2763798 -0.5747325,0.2763798 -0.5739573,0.2651819 -0.5721508,0.2542466 -0.5685904,0.2437575 -0.5639549,0.2335421 -0.5639549,0.2335421 -0.5582453,0.2248381 -0.551846,0.2167799 -0.5442753,0.2098185 -0.5359876,0.2035285 -0.5419903,0.1574166 -0.7474473,0.1961615 -0.7474473,0.3950701 -0.7005169,0.3950701 -0.7005169,0.2354521 -0.5930135,0.2138969 -0.5930135,0.2138969 -0.6033351,0.2314676 -0.6078197,0.2404743 -0.611493,0.2497465 -0.6141495,0.2593515 -0.6159482,0.2692372 -0.6181158,0.2894767 -0.6181158,0.2894767 -0.6153546,0.3141788 -0.6129035,0.3260886 -0.6091679,0.3374691 -0.6038518,0.3481981 -0.5972335,0.3583904 -0.5818266,0.3778805 -0.5818266,0.3778805 -0.5611046,0.393514 -0.5502889,0.4001747 -0.5389279,0.4054482 -0.5269224,0.4090829 -0.5144039,0.4114125 -0.4885115,0.4138969 -0.4885115,0.4138969 -0.4631312,0.411602 -0.4507631,0.4095098 -0.4387815,0.4062839 -0.4272806,0.4016479 -0.416181,0.3958347 -0.3946506,0.3822461 -0.3946506,0.3822461 -0.3839017,0.3713067 -0.3737586,0.3600835 -0.3648274,0.3482926 -0.3577138,0.33565 -0.3527724,0.3219899 -0.3495742,0.3075131 -0.3475381,0.2924919 -0.3460831,0.2771984 -0.3460831,0.2771984 -0.3480444,0.2529233 -0.3499621,0.2411164 -0.3530042,0.2297062 -0.3574748,0.2188 -0.3631785,0.2083289 -0.3766425,0.1881124 -0.3766425,0.1881124 -0.3941951,0.1727655 -0.403442,0.1660465 -0.4132534,0.1604727 -0.4237351,0.1562586 -0.4347524,0.1531307 -0.4576793,0.1486854 -0.4620449,0.2002543z" transform="matrix(1,0,0,-1,3.529262,6.2965144)" fill="rgb(116,116,116)" fill-rule="nonzero" shaper:cutDepth="0.05cm" stroke-linecap="round" stroke-linejoin="round" /><path d="M0.9246201,-0.5107686 L0.9246201,-0.9073579 0.9246201,-0.9073579 0.911533,-0.9069755 0.8986076,-0.9056317 0.8859526,-0.902681 0.8734605,-0.8987631 0.8734605,-0.8987631 0.8520512,-0.8890571 0.8314638,-0.8779867 0.8121818,-0.8647492 0.7936515,-0.8502638 0.7936515,-0.8502638 0.7694542,-0.8275789 0.7461394,-0.8040539 0.7241129,-0.7793024 0.702792,-0.753879 0.702792,-0.753879 0.6734174,-0.7184781 0.6583666,-0.7011345 0.6428797,-0.6842191 0.6268121,-0.6678737 0.6101325,-0.6521292 0.5757115,-0.6216826 0.5757115,-0.6216826 0.5553377,-0.608305 0.5448652,-0.6023843 0.53405,-0.5973854 0.5227892,-0.593585 0.5111211,-0.5908799 0.4871031,-0.5873034 0.4871031,-0.5873034 0.4663409,-0.5897269 0.45635,-0.5918582 0.4468275,-0.5950929 0.4378788,-0.5996794 0.4294006,-0.6053746 0.4132286,-0.618613 0.4132286,-0.618613 0.4000401,-0.6368842 0.3944425,-0.6463963 0.3900402,-0.6563601 0.387032,-0.6668506 0.3851251,-0.6777571 0.3831468,-0.7002638 0.3831468,-0.7002638 0.3851997,-0.7238334 0.3872047,-0.7352407 0.3903838,-0.746195 0.3950541,-0.7565738 0.401011,-0.7664563 0.4150704,-0.7853934 0.4150704,-0.7853934 0.4348003,-0.7997132 0.4450893,-0.8057579 0.4558863,-0.8104663 0.4672594,-0.8136592 0.4790816,-0.815671 0.5034742,-0.8177263 0.4956979,-0.8934425 0.4956979,-0.8934425 0.4774197,-0.890687 0.4594032,-0.8873731 0.4419102,-0.8829422 0.4252025,-0.8768359 0.4172235,-0.8729828 0.4095035,-0.8685772 0.3946964,-0.8584157 0.3804848,-0.8469835 0.366571,-0.8349159 0.366571,-0.8349159 0.3562972,-0.8194821 0.3466553,-0.8038339 0.3382771,-0.7877569 0.3317911,-0.7710381 0.3274434,-0.7535937 0.3247595,-0.735585 0.3221645,-0.6986267 0.3221645,-0.6986267 0.3233015,-0.6797756 0.3250339,-0.6611411 0.3279567,-0.6429397 0.3326653,-0.6253878 0.3358716,-0.6169218 0.3396627,-0.6086685 0.3486723,-0.5926812 0.3590252,-0.5771825 0.3700499,-0.5619282 0.3700499,-0.5619282 0.3828954,-0.5509568 0.395996,-0.5405849 0.4096068,-0.531412 0.4239827,-0.5240375 0.4392888,-0.5188491 0.455352,-0.5154399 0.4719199,-0.513217 0.4887402,-0.5115871 0.4887402,-0.5115871 0.506954,-0.512792 0.5248856,-0.5153611 0.542353,-0.5201755 0.5595451,-0.5263211 0.5595451,-0.5263211 0.5792313,-0.5364661 0.5981237,-0.5478167 0.6158045,-0.5610072 0.6328056,-0.5752297 0.6328056,-0.5752297 0.6605236,-0.6023827 0.6874199,-0.6303082 0.7132046,-0.6592788 0.7383991,-0.688804 0.7383991,-0.688804 0.7752394,-0.7321904 0.7943455,-0.753268 0.8139107,-0.7739336 0.8139107,-0.7739336 0.8330513,-0.7905317 0.8538153,-0.8050387 0.8538153,-0.5107686 0.9246201,-0.5107686z" transform="matrix(1,0,0,-1,3.529262,6.2965144)" fill="rgb(116,116,116)" fill-rule="nonzero" shaper:cutDepth="0.05cm" stroke-linecap="round" stroke-linejoin="round" /><path d="M0.7609094,-0.3544247 L0.7609094,-0.3544247 0.7845467,-0.3493863 0.7959772,-0.3460706 0.806942,-0.3417991 0.8173031,-0.3362888 0.8271181,-0.3296576 0.8458343,-0.3145203 0.8458343,-0.3145203 0.8579708,-0.2975489 0.8631747,-0.2887353 0.8673415,-0.2795282 0.8702568,-0.2698463 0.8721599,-0.2597805 0.8742791,-0.2390087 0.8742791,-0.2390087 0.8710669,-0.2134745 0.8682935,-0.2012253 0.8641194,-0.1895977 0.8582448,-0.1787246 0.8509878,-0.1684649 0.8341699,-0.1489678 0.8341699,-0.1489678 0.8101238,-0.1326162 0.7976465,-0.1257095 0.7846246,-0.1203241 0.7709783,-0.1166828 0.7568431,-0.1144074 0.727758,-0.1121329 0.727758,-0.1121329 0.7004082,-0.1142573 0.6871399,-0.1164194 0.6743595,-0.1199014 0.6622042,-0.1250748 0.6505984,-0.1317347 0.6283036,-0.1475352 0.6283036,-0.1475352 0.6124428,-0.1680006 0.6056934,-0.1787071 0.6003607,-0.189982 0.5966952,-0.2019259 0.5943538,-0.2144009 0.591878,-0.2402365 0.591878,-0.2402365 0.5930407,-0.2570333 0.5957506,-0.2734363 0.5981184,-0.2813801 0.6010911,-0.2891699 0.6080444,-0.304493 0.6080444,-0.304493 0.6166088,-0.3175491 0.6262078,-0.3296364 0.6375637,-0.3400785 0.6499953,-0.3495134 0.6409913,-0.4186812 0.3328057,-0.3605639 0.3328057,-0.0622011 0.4032013,-0.0622011 0.4032013,-0.301628 0.5644565,-0.3339609 0.5644565,-0.3339609 0.5489741,-0.3076048 0.5422472,-0.2940948 0.5367373,-0.2801865 0.5327525,-0.265779 0.5300545,-0.2509504 0.526803,-0.2205912 0.526803,-0.2205912 0.5285528,-0.2019323 0.5309449,-0.183538 0.5346215,-0.1656732 0.5371422,-0.1570221 0.5402249,-0.1486026 0.5439271,-0.1404384 0.548199,-0.132509 0.5581264,-0.1172205 0.569356,-0.1024688 0.5812368,-0.0879854 0.5812368,-0.0879854 0.596642,-0.0759134 0.6123199,-0.0645351 0.6285434,-0.0545442 0.6369449,-0.0502858 0.6455849,-0.0466339 0.6544768,-0.0436224 0.6635931,-0.0411819 0.682371,-0.0376874 0.701662,-0.0354979 0.7212095,-0.0339609 0.7212095,-0.0339609 0.7592799,-0.0374032 0.7778321,-0.0405414 0.7958045,-0.0453803 0.8130558,-0.0523343 0.8297052,-0.0610541 0.8459533,-0.0709512 0.8620008,-0.081437 0.8620008,-0.081437 0.8781242,-0.097846 0.8933388,-0.1146809 0.9003212,-0.1233911 0.9067356,-0.1323674 0.9124683,-0.141663 0.917406,-0.1513311 0.9214934,-0.1613976 0.9248181,-0.1718213 0.9274892,-0.1825513 0.9296155,-0.1935366 0.9326696,-0.2160685 0.9348521,-0.2390087 0.9348521,-0.2390087 0.9319101,-0.2754213 0.9290336,-0.2931317 0.9244704,-0.310247 0.9177644,-0.3266062 0.9092089,-0.3423128 0.8994195,-0.357584 0.889013,-0.3726376 0.889013,-0.3726376 0.8759897,-0.3844341 0.862684,-0.395658 0.8488137,-0.4057365 0.8340966,-0.4140972 0.818374,-0.4204183 0.8018481,-0.4251101 0.7847868,-0.4287156 0.7674578,-0.4317781 0.7609094,-0.3544247z" transform="matrix(1,0,0,-1,3.529262,6.2965144)" fill="rgb(116,116,116)" fill-rule="nonzero" shaper:cutDepth="0.05cm" stroke-linecap="round" stroke-linejoin="round" /><path d="M2.250245,2.3229762 a0.15,0.15 0 1,1 0.3,0 a0.15,0.15 0 1,1 -0.3,0z" transform="matrix(1,0,0,-1,3.529262,6.2965144)" fill="rgb(255,255,255)" stroke="rgb(0,0,0)" stroke-width="0.0010cm" stroke-linecap="round" stroke-linejoin="round" shaper:cutDepth="0.3cm" /><path d="M-0.5834349,2.1919542 a0.15,0.15 0 1,1 0.3,0 a0.15,0.15 0 1,1 -0.3,0z" transform="matrix(1,0,0,-1,3.529262,6.2965144)" fill="rgb(255,255,255)" stroke="rgb(0,0,0)" stroke-width="0.0010cm" stroke-linecap="round" stroke-linejoin="round" shaper:cutDepth="0.3cm" /><path d="M-1.4599347,4.4234189 a0.15,0.15 0 1,1 0.3,0 a0.15,0.15 0 1,1 -0.3,0z" transform="matrix(1,0,0,-1,3.529262,6.2965144)" fill="rgb(255,255,255)" stroke="rgb(0,0,0)" stroke-width="0.0010cm" stroke-linecap="round" stroke-linejoin="round" shaper:cutDepth="0.3cm" /><path d="M-0.9501759,-0.0579312 a0.15,0.15 0 1,1 0.3,0 a0.15,0.15 0 1,1 -0.3,0z" transform="matrix(1,0,0,-1,3.529262,6.2965144)" fill="rgb(255,255,255)" stroke="rgb(0,0,0)" stroke-width="0.0010cm" stroke-linecap="round" stroke-linejoin="round" shaper:cutDepth="0.3cm" /><path d="M1.7944196,-0.0922354 a0.15,0.15 0 1,1 0.3,0 a0.15,0.15 0 1,1 -0.3,0z" transform="matrix(1,0,0,-1,3.529262,6.2965144)" fill="rgb(255,255,255)" stroke="rgb(0,0,0)" stroke-width="0.0010cm" stroke-linecap="round" stroke-linejoin="round" shaper:cutDepth="0.3cm" /><path d="M-2.5342727,3.8965144 L-2.5342727,1.3965144 -2.2342727,1.3965144 -2.2342727,3.8965144 -2.5342727,3.8965144z" transform="matrix(1,0,0,-1,3.529262,6.2965144)" fill="rgb(255,255,255)" stroke="rgb(0,0,0)" stroke-width="0.0010cm" stroke-linecap="round" stroke-linejoin="round" shaper:cutDepth="0.3cm" /><path d="M2.979262,-0.6034856 a0.15,0.15 0 1,1 0.3,0 a0.15,0.15 0 1,1 -0.3,0z" transform="matrix(1,0,0,-1,3.529262,6.2965144)" fill="rgb(255,255,255)" stroke="rgb(0,0,0)" stroke-width="0.0010cm" stroke-linecap="round" stroke-linejoin="round" shaper:cutDepth="0.3cm" /><path d="M-1.520738,5.8965144 a0.15,0.15 0 1,1 0.3,0 a0.15,0.15 0 1,1 -0.3,0z" transform="matrix(1,0,0,-1,3.529262,6.2965144)" fill="rgb(255,255,255)" stroke="rgb(0,0,0)" stroke-width="0.0010cm" stroke-linecap="round" stroke-linejoin="round" shaper:cutDepth="0.3cm" /><path d="M2.979262,5.8965144 a0.15,0.15 0 1,1 0.3,0 a0.15,0.15 0 1,1 -0.3,0z" transform="matrix(1,0,0,-1,3.529262,6.2965144)" fill="rgb(255,255,255)" stroke="rgb(0,0,0)" stroke-width="0.0010cm" stroke-linecap="round" stroke-linejoin="round" shaper:cutDepth="0.3cm" /><path d="M-1.520738,-0.6034856 a0.15,0.15 0 1,1 0.3,0 a0.15,0.15 0 1,1 -0.3,0z" transform="matrix(1,0,0,-1,3.529262,6.2965144)" fill="rgb(255,255,255)" stroke="rgb(0,0,0)" stroke-width="0.0010cm" stroke-linecap="round" stroke-linejoin="round" shaper:cutDepth="0.3cm" /><path d="M-2.1707381,4.6465144 L-0.870738,4.6465144 -0.870738,5.3965145 -2.1707381,5.3965145 A0.3,0.3 90 0,1 -2.4707381,5.0965145 L-2.4707381,4.9465144 A0.3,0.3 180 0,1 -2.1707381,4.6465144z" transform="matrix(1,0,0,-1,3.529262,6.2965144)" fill="rgb(255,255,255)" stroke="rgb(0,0,0)" stroke-width="0.0010cm" stroke-linecap="round" stroke-linejoin="round" shaper:cutDepth="0.3cm" /></svg>