<?xml version="1.0" encoding="utf-8"?>
<!-- Generator: Fusion 360, Shaper Origin Export Add-In, Version 1.7.0  -->
<svg xmlns="http://www.w3.org/2000/svg" xmlns:xlink="http://www.w3.org/1999/xlink" xmlns:shaper="http://www.shapertools.com/namespaces/shaper" shaper:fusionaddin="version:1.7.0" width="7.058524cm" height="7.3cm" version="1.1" x="0cm" y="0cm" viewBox="0 0 7.058524 7.3" enable-background="new 0 0 7.058524 7.3" xml:space="preserve"><path d="M-3.529262,-2.0046781 L-1.8572407,-3.5690658 A0.3,0.3 226.9047902 0,1 -1.6522768,-3.65 L3.229262,-3.65 A0.3,0.3 270 0,1 3.529262,-3.35 L3.529262,-2.7885309 3.229262,-2.7885309 3.229262,-0.7885309 3.529262,-0.7885309 3.529262,3.35 A0.3,0.3 0 0,1 3.229262,3.65 L-1.6522768,3.65 A0.3,0.3 90 0,1 -1.8572407,3.5690658 L-3.529262,2.0046781 -3.529262,1.65 -3.2342727,1.65 -3.2342727,-1.65 -3.529262,-1.65 -3.529262,-2.0046781z" transform="matrix(1,0,0,-1,3.529262,3.65)" fill="rgb(0,0,0)" shaper:cutDepth="0.3cm" stroke-linecap="round" stroke-linejoin="round" /><path d="M1.1973821,-0.2983985 L1.1973821,-0.5627914 1.1973821,-0.5627914 1.1886573,-0.5625365 1.1800403,-0.5616407 1.1716037,-0.5596735 1.1632756,-0.5570616 1.1632756,-0.5570616 1.1490028,-0.5505909 1.1352778,-0.5432106 1.1224231,-0.5343856 1.1100697,-0.5247287 1.1100697,-0.5247287 1.0939381,-0.5096055 1.0783949,-0.4939221 1.0637106,-0.4774211 1.0494967,-0.4604722 1.0494967,-0.4604722 1.0299136,-0.4368715 1.0095551,-0.4140322 0.9877237,-0.392639 0.9647763,-0.3723412 0.9647763,-0.3723412 0.9511938,-0.3634228 0.9442121,-0.3594757 0.937002,-0.3561431 0.9294947,-0.3536095 0.921716,-0.3518061 0.905704,-0.3494217 0.905704,-0.3494217 0.8918626,-0.3510374 0.885202,-0.3524583 0.8788537,-0.3546147 0.8728878,-0.3576724 0.8672357,-0.3614692 0.8564544,-0.3702948 0.8564544,-0.3702948 0.847662,-0.3824756 0.8439303,-0.388817 0.8409955,-0.3954595 0.83899,-0.4024532 0.8377187,-0.4097242 0.8363998,-0.4247287 0.8363998,-0.4247287 0.8377684,-0.4404418 0.8391051,-0.4480466 0.8412245,-0.4553495 0.844338,-0.4622687 0.8483093,-0.468857 0.8576822,-0.4814818 0.8576822,-0.4814818 0.8708355,-0.4910283 0.8776948,-0.4950581 0.8848928,-0.4981971 0.8924749,-0.5003256 0.9003563,-0.5016668 0.9166181,-0.503037 0.9114339,-0.5535145 0.9114339,-0.5535145 0.8872375,-0.5494682 0.8755755,-0.5465143 0.864437,-0.5424434 0.853971,-0.5369376 0.8440996,-0.5301633 0.8253493,-0.5144967 0.8253493,-0.5144967 0.8120722,-0.4937754 0.8064867,-0.4830574 0.8021627,-0.4719115 0.7992642,-0.460282 0.7974749,-0.4482761 0.795745,-0.4236373 0.795745,-0.4236373 0.7976579,-0.3986469 0.7996064,-0.3865126 0.8027455,-0.3748114 0.8074105,-0.3636652 0.8134168,-0.353007 0.8276685,-0.332505 0.8276685,-0.332505 0.844966,-0.3182761 0.8540398,-0.3121608 0.8636238,-0.3072445 0.8738278,-0.3037855 0.8845366,-0.3015128 0.9067954,-0.2989442 0.9067954,-0.2989442 0.918938,-0.2997474 0.9308924,-0.3014602 0.9425373,-0.3046698 0.9539987,-0.3087669 0.9539987,-0.3087669 0.9671229,-0.3155302 0.9797178,-0.3230973 0.991505,-0.331891 1.0028391,-0.3413726 1.0028391,-0.3413726 1.0213177,-0.3594746 1.0392486,-0.3780916 1.0732347,-0.4170888 1.0732347,-0.4170888 1.0977949,-0.4460131 1.1235758,-0.4738419 1.1235758,-0.4738419 1.1363362,-0.4849073 1.1501788,-0.4945786 1.1501788,-0.2983985 1.1973821,-0.2983985z" transform="matrix(1,0,0,-1,3.529262,3.65)" fill="rgb(116,116,116)" fill-rule="nonzero" shaper:cutDepth="0.05cm" stroke-linecap="round" stroke-linejoin="round" /><path d="M2.7237913,-1.9715196 L2.7237913,-2.2359125 2.7237913,-2.2359125 2.7150665,-2.2356576 2.7064495,-2.2347617 2.6980129,-2.2327946 2.6896848,-2.2301826 2.6896848,-2.2301826 2.675412,-2.223712 2.661687,-2.2163317 2.6488324,-2.2075067 2.6364789,-2.1978498 2.6364789,-2.1978498 2.6203473,-2.1827266 2.6048041,-2.1670432 2.5901198,-2.1505422 2.5759059,-2.1335933 2.5759059,-2.1335933 2.5563228,-2.1099926 2.5359643,-2.0871533 2.5141329,-2.06576 2.4911856,-2.0454623 2.4911856,-2.0454623 2.477603,-2.0365439 2.4706213,-2.0325968 2.4634112,-2.0292642 2.455904,-2.0267306 2.4481252,-2.0249272 2.4321132,-2.0225428 2.4321132,-2.0225428 2.4182718,-2.0241585 2.4116112,-2.0255793 2.4052629,-2.0277358 2.399297,-2.0307935 2.3936449,-2.0345903 2.3828636,-2.0434159 2.3828636,-2.0434159 2.3740713,-2.0555967 2.3703395,-2.0619381 2.3674047,-2.0685806 2.3653992,-2.0755743 2.3641279,-2.0828453 2.362809,-2.0978498 2.362809,-2.0978498 2.3641777,-2.1135629 2.3655143,-2.1211677 2.3676337,-2.1284706 2.3707473,-2.1353898 2.3747185,-2.1419781 2.3840914,-2.1546029 2.3840914,-2.1546029 2.3972447,-2.1641494 2.4041041,-2.1681792 2.411302,-2.1713182 2.4188841,-2.1734467 2.4267656,-2.1747879 2.4430273,-2.1761581 2.4378431,-2.2266356 2.4378431,-2.2266356 2.4136467,-2.2225893 2.4019847,-2.2196354 2.3908462,-2.2155645 2.3803802,-2.2100587 2.3705088,-2.2032844 2.3517585,-2.1876178 2.3517585,-2.1876178 2.3384814,-2.1668965 2.3328959,-2.1561785 2.3285719,-2.1450326 2.3256735,-2.1334031 2.3238842,-2.1213972 2.3221542,-2.0967584 2.3221542,-2.0967584 2.3240671,-2.071768 2.3260157,-2.0596337 2.3291547,-2.0479325 2.3338197,-2.0367863 2.339826,-2.0261281 2.3540778,-2.005626 2.3540778,-2.005626 2.3713752,-1.9913972 2.380449,-1.9852819 2.390033,-1.9803656 2.4002371,-1.9769066 2.4109459,-1.9746338 2.4332047,-1.9720653 2.4332047,-1.9720653 2.4453472,-1.9728685 2.4573016,-1.9745812 2.4689465,-1.9777909 2.4804079,-1.981888 2.4804079,-1.981888 2.4935321,-1.9886513 2.506127,-1.9962184 2.5179142,-2.0050121 2.5292483,-2.0144937 2.5292483,-2.0144937 2.547727,-2.0325957 2.5656578,-2.0512127 2.5996439,-2.0902099 2.5996439,-2.0902099 2.6242041,-2.1191342 2.649985,-2.146963 2.649985,-2.146963 2.6627454,-2.1580284 2.676588,-2.1676997 2.676588,-1.9715196 2.7237913,-1.9715196z" transform="matrix(1,0,0,-1,3.529262,3.65)" fill="rgb(116,116,116)" fill-rule="nonzero" shaper:cutDepth="0.05cm" stroke-linecap="round" stroke-linejoin="round" /><path d="M-0.742,0.9934458 L-0.742,0.7290529 -0.742,0.7290529 -0.7507248,0.7293078 -0.7593418,0.7302037 -0.7677784,0.7321708 -0.7761064,0.7347828 -0.7761064,0.7347828 -0.7903793,0.7412534 -0.8041043,0.7486337 -0.8169589,0.7574587 -0.8293124,0.7671156 -0.8293124,0.7671156 -0.845444,0.7822389 -0.8609872,0.7979222 -0.8756715,0.8144232 -0.8898854,0.8313721 -0.8898854,0.8313721 -0.9094685,0.8549728 -0.9298269,0.8778121 -0.9516584,0.8992054 -0.9746057,0.9195031 -0.9746057,0.9195031 -0.9881883,0.9284215 -0.9951699,0.9323686 -1.0023801,0.9357012 -1.0098873,0.9382348 -1.0176661,0.9400382 -1.0336781,0.9424226 -1.0336781,0.9424226 -1.0475195,0.9408069 -1.0541801,0.9393861 -1.0605284,0.9372296 -1.0664943,0.9341719 -1.0721464,0.9303751 -1.0829277,0.9215495 -1.0829277,0.9215495 -1.09172,0.9093687 -1.0954518,0.9030273 -1.0983866,0.8963848 -1.1003921,0.8893911 -1.1016634,0.8821201 -1.1029823,0.8671157 -1.1029823,0.8671157 -1.1016136,0.8514025 -1.100277,0.8437977 -1.0981576,0.8364948 -1.095044,0.8295756 -1.0910728,0.8229873 -1.0816999,0.8103626 -1.0816999,0.8103626 -1.0685466,0.800816 -1.0616872,0.7967862 -1.0544893,0.7936473 -1.0469072,0.7915187 -1.0390257,0.7901775 -1.022764,0.7888073 -1.0279482,0.7383298 -1.0279482,0.7383298 -1.0521446,0.7423761 -1.0638066,0.7453301 -1.0749451,0.7494009 -1.0854111,0.7549067 -1.0952825,0.761681 -1.1140327,0.7773476 -1.1140327,0.7773476 -1.1273099,0.7980689 -1.1328954,0.8087869 -1.1372194,0.8199328 -1.1401178,0.8315623 -1.1419071,0.8435682 -1.1436371,0.868207 -1.1436371,0.868207 -1.1417242,0.8931974 -1.1397756,0.9053317 -1.1366366,0.9170329 -1.1319716,0.9281791 -1.1259653,0.9388373 -1.1117135,0.9593394 -1.1117135,0.9593394 -1.0944161,0.9735682 -1.0853423,0.9796835 -1.0757583,0.9845998 -1.0655542,0.9880588 -1.0548454,0.9903316 -1.0325866,0.9929001 -1.0325866,0.9929001 -1.0204441,0.9920969 -1.0084897,0.9903842 -0.9968448,0.9871745 -0.9853834,0.9830774 -0.9853834,0.9830774 -0.9722592,0.9763141 -0.9596643,0.968747 -0.9478771,0.9599534 -0.936543,0.9504717 -0.936543,0.9504717 -0.9180643,0.9323697 -0.9001335,0.9137527 -0.8661474,0.8747555 -0.8661474,0.8747555 -0.8415872,0.8458312 -0.8158063,0.8180024 -0.8158063,0.8180024 -0.8030459,0.806937 -0.7892033,0.7972657 -0.7892033,0.9934458 -0.742,0.9934458z" transform="matrix(1,0,0,-1,3.529262,3.65)" fill="rgb(116,116,116)" fill-rule="nonzero" shaper:cutDepth="0.05cm" stroke-linecap="round" stroke-linejoin="round" /><path d="M-0.3664009,-2.373456 L-0.3664009,-2.5469894 -0.4114214,-2.5469894 -0.6706301,-2.3644519 -0.6706301,-2.3243428 -0.4114214,-2.3243428 -0.4114214,-2.2703182 -0.3664009,-2.2703182 -0.3664009,-2.3243428 -0.2706301,-2.3243428 -0.2706301,-2.373456 -0.3664009,-2.373456z M-0.5917761,-2.373456 L-0.4114214,-2.4986948 -0.4114214,-2.373456 -0.5917761,-2.373456z" transform="matrix(1,0,0,-1,3.529262,3.65)" fill="rgb(116,116,116)" fill-rule="nonzero" shaper:cutDepth="0.05cm" stroke-linecap="round" stroke-linejoin="round" /><path d="M2.807756,1.0349326 L2.807756,0.8613992 2.7627355,0.8613992 2.5035268,1.0439367 2.5035268,1.0840458 2.7627355,1.0840458 2.7627355,1.1380704 2.807756,1.1380704 2.807756,1.0840458 2.9035268,1.0840458 2.9035268,1.0349326 2.807756,1.0349326z M2.5823808,1.0349326 L2.7627355,0.9096938 2.7627355,1.0349326 2.5823808,1.0349326z" transform="matrix(1,0,0,-1,3.529262,3.65)" fill="rgb(116,116,116)" fill-rule="nonzero" shaper:cutDepth="0.05cm" stroke-linecap="round" stroke-linejoin="round" /><path d="M0.9228549,-3.1496543 L0.9228549,-3.5462437 0.9228549,-3.5462437 0.9097677,-3.5458612 0.8968423,-3.5445175 0.8841874,-3.5415668 0.8716953,-3.5376489 0.8716953,-3.5376489 0.850286,-3.5279429 0.8296986,-3.5168725 0.8104166,-3.503635 0.7918863,-3.4891496 0.7918863,-3.4891496 0.767689,-3.4664647 0.7443742,-3.4429397 0.7223477,-3.4181882 0.7010268,-3.3927648 0.7010268,-3.3927648 0.6716522,-3.3573639 0.6566014,-3.3400202 0.6411145,-3.3231048 0.6250469,-3.3067595 0.6083673,-3.291015 0.5739463,-3.2605684 0.5739463,-3.2605684 0.5535725,-3.2471908 0.5431,-3.2412701 0.5322848,-3.2362712 0.5210239,-3.2324708 0.5093558,-3.2297657 0.4853379,-3.2261891 0.4853379,-3.2261891 0.4645757,-3.2286127 0.4545848,-3.230744 0.4450623,-3.2339786 0.4361136,-3.2385651 0.4276354,-3.2442604 0.4114634,-3.2574988 0.4114634,-3.2574988 0.3982749,-3.27577 0.3926773,-3.2852821 0.388275,-3.2952459 0.3852668,-3.3057363 0.3833599,-3.3166429 0.3813816,-3.3391495 0.3813816,-3.3391495 0.3834345,-3.3627192 0.3854395,-3.3741265 0.3886186,-3.3850808 0.3932889,-3.3954596 0.3992458,-3.4053421 0.4133051,-3.4242792 0.4133051,-3.4242792 0.4330351,-3.438599 0.4433241,-3.4446437 0.4541211,-3.4493521 0.4654942,-3.452545 0.4773164,-3.4545568 0.501709,-3.456612 0.4939327,-3.5323283 0.4939327,-3.5323283 0.4756545,-3.5295728 0.457638,-3.5262589 0.440145,-3.521828 0.4234373,-3.5157217 0.4154583,-3.5118686 0.4077383,-3.507463 0.3929312,-3.4973015 0.3787196,-3.4858693 0.3648058,-3.4738017 0.3648058,-3.4738017 0.354532,-3.4583679 0.3448901,-3.4427197 0.3365119,-3.4266427 0.3300258,-3.4099238 0.3256782,-3.3924795 0.3229943,-3.3744707 0.3203993,-3.3375124 0.3203993,-3.3375124 0.3215363,-3.3186614 0.3232687,-3.3000269 0.3261915,-3.2818255 0.3309001,-3.2642736 0.3341064,-3.2558076 0.3378975,-3.2475543 0.3469071,-3.231567 0.35726,-3.2160683 0.3682847,-3.200814 0.3682847,-3.200814 0.3811302,-3.1898426 0.3942308,-3.1794707 0.4078415,-3.1702978 0.4222175,-3.1629233 0.4375236,-3.1577349 0.4535868,-3.1543257 0.4701547,-3.1521028 0.486975,-3.1504729 0.486975,-3.1504729 0.5051888,-3.1516777 0.5231204,-3.1542469 0.5405878,-3.1590613 0.5577799,-3.1652069 0.5577799,-3.1652069 0.5774662,-3.1753519 0.5963585,-3.1867025 0.6140393,-3.199893 0.6310405,-3.2141155 0.6310405,-3.2141155 0.6587585,-3.2412685 0.6856548,-3.2691939 0.7114394,-3.2981645 0.7366339,-3.3276898 0.7366339,-3.3276898 0.7734743,-3.3710761 0.7925803,-3.3921538 0.8121455,-3.4128194 0.8121455,-3.4128194 0.8312861,-3.4294175 0.85205,-3.4439245 0.85205,-3.1496543 0.9228549,-3.1496543z" transform="matrix(1,0,0,-1,3.529262,3.65)" fill="rgb(116,116,116)" fill-rule="nonzero" shaper:cutDepth="0.05cm" stroke-linecap="round" stroke-linejoin="round" /><path d="M0.7791987,-2.8345111 L0.7791987,-3.0948112 0.7116681,-3.0948112 0.3228549,-2.8210049 0.3228549,-2.7608413 0.7116681,-2.7608413 0.7116681,-2.6798043 0.7791987,-2.6798043 0.7791987,-2.7608413 0.9228549,-2.7608413 0.9228549,-2.8345111 0.7791987,-2.8345111z M0.441136,-2.8345111 L0.7116681,-3.0223692 0.7116681,-2.8345111 0.441136,-2.8345111z" transform="matrix(1,0,0,-1,3.529262,3.65)" fill="rgb(116,116,116)" fill-rule="nonzero" shaper:cutDepth="0.05cm" stroke-linecap="round" stroke-linejoin="round" /><path d="M-2.1707381,2 L-0.870738,2 -0.870738,2.7500001 -2.1707381,2.7500001 A0.3,0.3 90 0,1 -2.4707381,2.4500001 L-2.4707381,2.3 A0.3,0.3 180 0,1 -2.1707381,2z" transform="matrix(1,0,0,-1,3.529262,3.65)" fill="rgb(255,255,255)" stroke="rgb(0,0,0)" stroke-width="0.0010cm" stroke-linecap="round" stroke-linejoin="round" shaper:cutDepth="0.3cm" /><path d="M-1.520738,-3.25 a0.15,0.15 0 1,1 0.3,0 a0.15,0.15 0 1,1 -0.3,0z" transform="matrix(1,0,0,-1,3.529262,3.65)" fill="rgb(255,255,255)" stroke="rgb(0,0,0)" stroke-width="0.0010cm" stroke-linecap="round" stroke-linejoin="round" shaper:cutDepth="0.3cm" /><path d="M2.979262,3.25 a0.15,0.15 0 1,1 0.3,0 a0.15,0.15 0 1,1 -0.3,0z" transform="matrix(1,0,0,-1,3.529262,3.65)" fill="rgb(255,255,255)" stroke="rgb(0,0,0)" stroke-width="0.0010cm" stroke-linecap="round" stroke-linejoin="round" shaper:cutDepth="0.3cm" /><path d="M-1.520738,3.25 a0.15,0.15 0 1,1 0.3,0 a0.15,0.15 0 1,1 -0.3,0z" transform="matrix(1,0,0,-1,3.529262,3.65)" fill="rgb(255,255,255)" stroke="rgb(0,0,0)" stroke-width="0.0010cm" stroke-linecap="round" stroke-linejoin="round" shaper:cutDepth="0.3cm" /><path d="M2.979262,-3.25 a0.15,0.15 0 1,1 0.3,0 a0.15,0.15 0 1,1 -0.3,0z" transform="matrix(1,0,0,-1,3.529262,3.65)" fill="rgb(255,255,255)" stroke="rgb(0,0,0)" stroke-width="0.0010cm" stroke-linecap="round" stroke-linejoin="round" shaper:cutDepth="0.3cm" /><path d="M-2.5342727,1.25 L-2.5342727,-1.25 -2.2342727,-1.25 -2.2342727,1.25 -2.5342727,1.25z" transform="matrix(1,0,0,-1,3.529262,3.65)" fill="rgb(255,255,255)" stroke="rgb(0,0,0)" stroke-width="0.0010cm" stroke-linecap="round" stroke-linejoin="round" shaper:cutDepth="0.3cm" /><path d="M2.1237913,-2.4398006 a0.15,0.15 0 1,1 0.3,0 a0.15,0.15 0 1,1 -0.3,0z" transform="matrix(1,0,0,-1,3.529262,3.65)" fill="rgb(255,255,255)" stroke="rgb(0,0,0)" stroke-width="0.0010cm" stroke-linecap="round" stroke-linejoin="round" shaper:cutDepth="0.3cm" /><path d="M0.597382,-0.7666796 a0.15,0.15 0 1,1 0.3,0 a0.15,0.15 0 1,1 -0.3,0z" transform="matrix(1,0,0,-1,3.529262,3.65)" fill="rgb(255,255,255)" stroke="rgb(0,0,0)" stroke-width="0.0010cm" stroke-linecap="round" stroke-linejoin="round" shaper:cutDepth="0.3cm" /><path d="M-1.342,0.5251648 a0.15,0.15 0 1,1 0.3,0 a0.15,0.15 0 1,1 -0.3,0z" transform="matrix(1,0,0,-1,3.529262,3.65)" fill="rgb(255,255,255)" stroke="rgb(0,0,0)" stroke-width="0.0010cm" stroke-linecap="round" stroke-linejoin="round" shaper:cutDepth="0.3cm" /><path d="M-0.8706302,-2.7398271 a0.15,0.15 0 1,1 0.3,0 a0.15,0.15 0 1,1 -0.3,0z" transform="matrix(1,0,0,-1,3.529262,3.65)" fill="rgb(255,255,255)" stroke="rgb(0,0,0)" stroke-width="0.0010cm" stroke-linecap="round" stroke-linejoin="round" shaper:cutDepth="0.3cm" /><path d="M2.3035268,0.6685615 a0.15,0.15 0 1,1 0.3,0 a0.15,0.15 0 1,1 -0.3,0z" transform="matrix(1,0,0,-1,3.529262,3.65)" fill="rgb(255,255,255)" stroke="rgb(0,0,0)" stroke-width="0.0010cm" stroke-linecap="round" stroke-linejoin="round" shaper:cutDepth="0.3cm" /></svg>