<?xml version="1.0" encoding="utf-8"?>
<!-- Generator: Fusion 360, Shaper Origin Export Add-In, Version 1.7.0  -->
<svg xmlns="http://www.w3.org/2000/svg" xmlns:xlink="http://www.w3.org/1999/xlink" xmlns:shaper="http://www.shapertools.com/namespaces/shaper" shaper:fusionaddin="version:1.7.0" width="7.058524cm" height="7.3cm" version="1.1" x="0cm" y="0cm" viewBox="0 0 7.058524 7.3" enable-background="new 0 0 7.058524 7.3" xml:space="preserve"><path d="M-3.529262,-2.0046781 L-1.8572407,-3.5690658 A0.3,0.3 226.9047902 0,1 -1.6522768,-3.65 L3.229262,-3.65 A0.3,0.3 270 0,1 3.529262,-3.35 L3.529262,-2.7885309 3.229262,-2.7885309 3.229262,-0.7885309 3.529262,-0.7885309 3.529262,3.35 A0.3,0.3 0 0,1 3.229262,3.65 L-1.6522768,3.65 A0.3,0.3 90 0,1 -1.8572407,3.5690658 L-3.529262,2.0046781 -3.529262,1.65 -3.2342727,1.65 -3.2342727,-1.65 -3.529262,-1.65 -3.529262,-2.0046781z" transform="matrix(1,0,0,-1,3.529262,3.65)" fill="rgb(0,0,0)" shaper:cutDepth="0.3cm" stroke-linecap="round" stroke-linejoin="round" /><path d="M0.1430177,-0.9328153 L0.1430177,-0.9328153 0.1596277,-0.928749 0.167685,-0.9262218 0.1754451,-0.9231016 0.1828145,-0.9192021 0.1898122,-0.9145608 0.2031814,-0.9040294 0.2031814,-0.9040294 0.2110769,-0.8928852 0.2144564,-0.8870997 0.2171542,-0.881058 0.2190338,-0.8747089 0.2202548,-0.8681124 0.2215989,-0.8545069 0.2215989,-0.8545069 0.2197694,-0.8381566 0.2181467,-0.830273 0.2156743,-0.8227393 0.2121569,-0.815636 0.2077788,-0.8088872 0.1975879,-0.7959803 0.1975879,-0.7959803 0.184427,-0.7857857 0.1775523,-0.7814156 0.1703246,-0.7779183 0.1626713,-0.7754732 0.1546741,-0.7738784 0.1381064,-0.7721058 0.1381064,-0.7721058 0.1225698,-0.7736799 0.1150676,-0.7751294 0.1078848,-0.7773739 0.1011005,-0.7806108 0.0946506,-0.7846802 0.0823083,-0.7942068 0.0823083,-0.7942068 0.072821,-0.8066729 0.0687714,-0.8131814 0.0655547,-0.8200204 0.0633282,-0.8272523 0.0618935,-0.8347984 0.0603437,-0.8504142 0.0603437,-0.8504142 0.061995,-0.8679024 0.0658008,-0.8850663 0.0226902,-0.8796093 0.0226902,-0.8796093 0.023236,-0.8716966 0.023236,-0.8716966 0.0220166,-0.856738 0.0209214,-0.8494004 0.0192436,-0.8422328 0.0168455,-0.8352754 0.0138503,-0.8284923 0.0068649,-0.8152164 0.0068649,-0.8152164 -0.0033524,-0.804235 -0.0088827,-0.7995703 -0.0149186,-0.7958963 -0.0215461,-0.793381 -0.0286416,-0.7917826 -0.0436126,-0.790114 -0.0436126,-0.790114 -0.0561333,-0.791452 -0.0621689,-0.7926654 -0.067935,-0.7945321 -0.0733664,-0.7972099 -0.0785192,-0.8005631 -0.0883602,-0.8083951 -0.0883602,-0.8083951 -0.0960939,-0.818929 -0.0993831,-0.8244177 -0.1019794,-0.8301725 -0.1037617,-0.8362397 -0.1048984,-0.8425549 -0.1060955,-0.8555983 -0.1060955,-0.8555983 -0.1048195,-0.86877 -0.103641,-0.8751491 -0.101814,-0.88128 -0.0991766,-0.8871007 -0.0958585,-0.892661 -0.0880873,-0.9033473 -0.0880873,-0.9033473 -0.0760863,-0.9126712 -0.0698109,-0.9167514 -0.063207,-0.9201366 -0.0562436,-0.9227611 -0.0490036,-0.9248004 -0.0340628,-0.9279039 -0.042794,-0.9770172 -0.042794,-0.9770172 -0.064428,-0.9713642 -0.0748331,-0.9677835 -0.0847441,-0.9632978 -0.0940261,-0.9576602 -0.1027633,-0.9510248 -0.1193288,-0.9360895 -0.1193288,-0.9360895 -0.1311532,-0.9179972 -0.1361845,-0.9086437 -0.140159,-0.8989215 -0.1428903,-0.8887654 -0.1446345,-0.8782649 -0.1464775,-0.8566897 -0.1464775,-0.8566897 -0.1454417,-0.8410328 -0.143069,-0.8256899 -0.1384359,-0.810878 -0.1324257,-0.7963896 -0.1324257,-0.7963896 -0.1248948,-0.7839712 -0.1162625,-0.7725612 -0.1057532,-0.7628695 -0.0940901,-0.7542341 -0.0940901,-0.7542341 -0.0818884,-0.7481322 -0.0693128,-0.7433584 -0.0561077,-0.74082 -0.0425212,-0.7396365 -0.0425212,-0.7396365 -0.0300071,-0.7407025 -0.0178806,-0.7430798 -0.0064034,-0.7476535 0.0046821,-0.753552 0.0046821,-0.753552 0.0151811,-0.7621547 0.0245296,-0.7717145 0.0320494,-0.7827953 0.0385156,-0.7947525 0.0385156,-0.7947525 0.0436394,-0.7788706 0.0467627,-0.7712801 0.0505599,-0.7641103 0.0552039,-0.7574691 0.0605656,-0.7512759 0.0724856,-0.7396365 0.0724856,-0.7396365 0.0874406,-0.7309671 0.0951262,-0.7272968 0.1030615,-0.7244232 0.1112852,-0.7224705 0.1197357,-0.7212418 0.1370149,-0.7199913 0.1370149,-0.7199913 0.1620282,-0.7229997 0.1740551,-0.7256206 0.1855064,-0.7295816 0.1962555,-0.735177 0.2064315,-0.7421068 0.2258281,-0.7581904 0.2258281,-0.7581904 0.2416029,-0.7797801 0.2483295,-0.7910201 0.2536635,-0.8027943 0.2573472,-0.8152015 0.2597142,-0.8281137 0.2622537,-0.8547798 0.2622537,-0.8547798 0.2601057,-0.8787259 0.2580826,-0.8903517 0.2549207,-0.901561 0.2503266,-0.9122463 0.244518,-0.9224873 0.2308758,-0.9422286 0.2308758,-0.9422286 0.2132213,-0.9575775 0.2039321,-0.9643143 0.1940883,-0.9699261 0.1835805,-0.9741904 0.172539,-0.9773716 0.1495661,-0.9819285 0.1430177,-0.9328153z" transform="matrix(1,0,0,-1,3.529262,3.65)" fill="rgb(116,116,116)" fill-rule="nonzero" shaper:cutDepth="0.05cm" stroke-linecap="round" stroke-linejoin="round" /><path d="M2.6094616,-0.1762821 L2.6094616,-0.1762821 2.6252198,-0.1729231 2.6328401,-0.1707126 2.64015,-0.1678649 2.6470574,-0.1641914 2.6536007,-0.1597706 2.6660782,-0.149679 2.6660782,-0.149679 2.6741692,-0.1383648 2.6776385,-0.132489 2.6804164,-0.126351 2.6823599,-0.1198964 2.6836286,-0.1131858 2.6850414,-0.099338 2.6850414,-0.099338 2.6828999,-0.0823152 2.681051,-0.0741491 2.6782683,-0.0663973 2.6743518,-0.0591486 2.6695139,-0.0523088 2.658302,-0.0393107 2.658302,-0.0393107 2.6422712,-0.0284097 2.633953,-0.0238052 2.6252717,-0.0202149 2.6161742,-0.0177874 2.6067507,-0.0162704 2.5873606,-0.0147541 2.5873606,-0.0147541 2.5691275,-0.0161704 2.5602819,-0.0176118 2.5517616,-0.0199332 2.5436581,-0.0233821 2.5359209,-0.027822 2.5210578,-0.0383557 2.5210578,-0.0383557 2.5104839,-0.0519993 2.5059843,-0.059137 2.5024291,-0.0666536 2.4999855,-0.0746161 2.4984245,-0.0829328 2.496774,-0.1001565 2.496774,-0.1001565 2.4975491,-0.1113544 2.4993557,-0.1222898 2.5029161,-0.1327788 2.5075516,-0.1429942 2.5075516,-0.1429942 2.5132612,-0.1516983 2.5196605,-0.1597565 2.5272312,-0.1667179 2.5355189,-0.1730078 2.5295162,-0.2191197 2.3240591,-0.1803748 2.3240591,0.0185338 2.3709895,0.0185338 2.3709895,-0.1410842 2.478493,-0.1626395 2.478493,-0.1626395 2.4681714,-0.1450687 2.4636868,-0.1360621 2.4600135,-0.1267898 2.457357,-0.1171848 2.4555583,-0.1072991 2.4533906,-0.0870597 2.4533906,-0.0870597 2.4561519,-0.0623576 2.458603,-0.0504477 2.4623386,-0.0390673 2.4676547,-0.0283383 2.4742729,-0.0181459 2.4896798,0.0013441 2.4896798,0.0013441 2.5104019,0.0169777 2.5212175,0.0236383 2.5325786,0.0289119 2.544584,0.0325465 2.5571026,0.0348762 2.582995,0.0373605 2.582995,0.0373605 2.6083753,0.0350656 2.6207434,0.0329735 2.632725,0.0297476 2.6442259,0.0251115 2.6553255,0.0192983 2.6768558,0.0057098 2.6768558,0.0057098 2.6876048,-0.0052296 2.6977479,-0.0164528 2.7066791,-0.0282438 2.7137926,-0.0408863 2.7187341,-0.0545464 2.7219323,-0.0690232 2.7239684,-0.0840445 2.7254234,-0.099338 2.7254234,-0.099338 2.7234621,-0.1236131 2.7215444,-0.13542 2.7185023,-0.1468302 2.7140316,-0.1577363 2.7083279,-0.1682074 2.694864,-0.1884239 2.694864,-0.1884239 2.6773113,-0.2037709 2.6680645,-0.2104899 2.6582531,-0.2160637 2.6477713,-0.2202778 2.6367541,-0.2234056 2.6138272,-0.2278509 2.6094616,-0.1762821z" transform="matrix(1,0,0,-1,3.529262,3.65)" fill="rgb(116,116,116)" fill-rule="nonzero" shaper:cutDepth="0.05cm" stroke-linecap="round" stroke-linejoin="round" /><path d="M0.973087,1.2369425 L0.973087,0.9725496 0.973087,0.9725496 0.9643622,0.9728046 0.9557453,0.9737004 0.9473087,0.9756675 0.9389806,0.9782795 0.9389806,0.9782795 0.9247077,0.9847501 0.9109828,0.9921304 0.8981281,1.0009554 0.8857746,1.0106124 0.8857746,1.0106124 0.8696431,1.0257356 0.8540999,1.0414189 0.8394156,1.0579199 0.8252017,1.0748688 0.8252017,1.0748688 0.8056186,1.0984695 0.7852601,1.1213088 0.7634286,1.1427021 0.7404813,1.1629998 0.7404813,1.1629998 0.7268988,1.1719182 0.7199171,1.1758653 0.712707,1.1791979 0.7051997,1.1817315 0.697421,1.1835349 0.681409,1.1859193 0.681409,1.1859193 0.6675675,1.1843036 0.660907,1.1828828 0.6545586,1.1807263 0.6485928,1.1776686 0.6429407,1.1738718 0.6321594,1.1650462 0.6321594,1.1650462 0.623367,1.1528654 0.6196353,1.146524 0.6167004,1.1398815 0.614695,1.1328878 0.6134237,1.1256168 0.6121048,1.1106124 0.6121048,1.1106124 0.6134734,1.0948993 0.6148101,1.0872944 0.6169295,1.0799916 0.620043,1.0730723 0.6240143,1.066484 0.6333872,1.0538593 0.6333872,1.0538593 0.6465405,1.0443127 0.6533998,1.0402829 0.6605978,1.037144 0.6681799,1.0350154 0.6760613,1.0336742 0.6923231,1.032304 0.6871389,0.9818265 0.6871389,0.9818265 0.6629424,0.9858728 0.6512805,0.9888268 0.6401419,0.9928976 0.629676,0.9984034 0.6198046,1.0051777 0.6010543,1.0208443 0.6010543,1.0208443 0.5877771,1.0415656 0.5821917,1.0522836 0.5778677,1.0634295 0.5749692,1.075059 0.5731799,1.0870649 0.5714499,1.1117038 0.5714499,1.1117038 0.5733629,1.1366941 0.5753114,1.1488284 0.5784505,1.1605296 0.5831154,1.1716758 0.5891218,1.1823341 0.6033735,1.2028361 0.6033735,1.2028361 0.6206709,1.2170649 0.6297448,1.2231802 0.6393287,1.2280966 0.6495328,1.2315555 0.6602416,1.2338283 0.6825004,1.2363968 0.6825004,1.2363968 0.694643,1.2355936 0.7065974,1.2338809 0.7182423,1.2306712 0.7297037,1.2265742 0.7297037,1.2265742 0.7428279,1.2198108 0.7554228,1.2122437 0.76721,1.2034501 0.7785441,1.1939684 0.7785441,1.1939684 0.7970227,1.1758664 0.8149536,1.1572494 0.8489397,1.1182522 0.8489397,1.1182522 0.8734999,1.0893279 0.8992808,1.0614991 0.8992808,1.0614991 0.9120412,1.0504337 0.9258838,1.0407624 0.9258838,1.2369425 0.973087,1.2369425z" transform="matrix(1,0,0,-1,3.529262,3.65)" fill="rgb(116,116,116)" fill-rule="nonzero" shaper:cutDepth="0.05cm" stroke-linecap="round" stroke-linejoin="round" /><path d="M-1.2676394,-2.3668489 L-1.2676394,-2.3668489 -1.2518812,-2.3634899 -1.2442609,-2.3612795 -1.236951,-2.3584318 -1.2300436,-2.3547583 -1.2235003,-2.3503374 -1.2110228,-2.3402459 -1.2110228,-2.3402459 -1.2029318,-2.3289316 -1.1994625,-2.3230559 -1.1966846,-2.3169179 -1.1947411,-2.3104633 -1.1934724,-2.3037527 -1.1920596,-2.2899048 -1.1920596,-2.2899048 -1.1942011,-2.272882 -1.19605,-2.2647159 -1.1988327,-2.2569642 -1.2027492,-2.2497155 -1.2075871,-2.2428757 -1.2187991,-2.2298776 -1.2187991,-2.2298776 -1.2348298,-2.2189765 -1.243148,-2.214372 -1.2518293,-2.2107818 -1.2609268,-2.2083543 -1.2703503,-2.2068373 -1.2897404,-2.2053209 -1.2897404,-2.2053209 -1.3079735,-2.2067372 -1.3168191,-2.2081787 -1.3253394,-2.2105 -1.3334429,-2.213949 -1.3411801,-2.2183889 -1.3560432,-2.2289226 -1.3560432,-2.2289226 -1.3666171,-2.2425662 -1.3711168,-2.2497038 -1.3746719,-2.2572205 -1.3771155,-2.265183 -1.3786765,-2.2734997 -1.380327,-2.2907234 -1.380327,-2.2907234 -1.3795519,-2.3019213 -1.3777453,-2.3128566 -1.3741849,-2.3233457 -1.3695494,-2.3335611 -1.3695494,-2.3335611 -1.3638398,-2.3422651 -1.3574405,-2.3503233 -1.3498698,-2.3572847 -1.3415821,-2.3635747 -1.3475848,-2.4096866 -1.5530419,-2.3709417 -1.5530419,-2.1720331 -1.5061115,-2.1720331 -1.5061115,-2.3316511 -1.3986081,-2.3532063 -1.3986081,-2.3532063 -1.4089296,-2.3356356 -1.4134142,-2.3266289 -1.4170875,-2.3173567 -1.419744,-2.3077517 -1.4215427,-2.297866 -1.4237104,-2.2776265 -1.4237104,-2.2776265 -1.4209491,-2.2529244 -1.418498,-2.2410146 -1.4147624,-2.2296341 -1.4094464,-2.2189051 -1.4028281,-2.2087128 -1.3874212,-2.1892227 -1.3874212,-2.1892227 -1.3666991,-2.1735892 -1.3558835,-2.1669285 -1.3445224,-2.161655 -1.332517,-2.1580203 -1.3199984,-2.1556907 -1.294106,-2.1532063 -1.294106,-2.1532063 -1.2687257,-2.1555012 -1.2563577,-2.1575934 -1.244376,-2.1608193 -1.2328751,-2.1654553 -1.2217755,-2.1712685 -1.2002452,-2.1848571 -1.2002452,-2.1848571 -1.1894962,-2.1957965 -1.1793531,-2.2070197 -1.1704219,-2.2188107 -1.1633084,-2.2314532 -1.1583669,-2.2451133 -1.1551687,-2.2595901 -1.1531326,-2.2746113 -1.1516776,-2.2899048 -1.1516776,-2.2899048 -1.1536389,-2.3141799 -1.1555566,-2.3259869 -1.1585987,-2.337397 -1.1630694,-2.3483032 -1.1687731,-2.3587743 -1.182237,-2.3789908 -1.182237,-2.3789908 -1.1997897,-2.3943377 -1.2090365,-2.4010567 -1.2188479,-2.4066305 -1.2293297,-2.4108446 -1.2403469,-2.4139725 -1.2632738,-2.4184178 -1.2676394,-2.3668489z" transform="matrix(1,0,0,-1,3.529262,3.65)" fill="rgb(116,116,116)" fill-rule="nonzero" shaper:cutDepth="0.05cm" stroke-linecap="round" stroke-linejoin="round" /><path d="M-1.5805255,1.6208348 L-1.5805255,1.4473013 -1.6255459,1.4473013 -1.8847547,1.6298389 -1.8847547,1.669948 -1.6255459,1.669948 -1.6255459,1.7239725 -1.5805255,1.7239725 -1.5805255,1.669948 -1.4847547,1.669948 -1.4847547,1.6208348 -1.5805255,1.6208348z M-1.8059006,1.6208348 L-1.6255459,1.495596 -1.6255459,1.6208348 -1.8059006,1.6208348z" transform="matrix(1,0,0,-1,3.529262,3.65)" fill="rgb(116,116,116)" fill-rule="nonzero" shaper:cutDepth="0.05cm" stroke-linecap="round" stroke-linejoin="round" /><path d="M0.7458506,-3.4568449 L0.7458506,-3.4568449 0.7707656,-3.4507456 0.7828516,-3.4469547 0.7944917,-3.4422744 0.8055459,-3.4364252 0.8160423,-3.4294633 0.8360962,-3.4136662 0.8360962,-3.4136662 0.8479394,-3.3969499 0.8530087,-3.3882716 0.8570553,-3.379209 0.8598748,-3.3696854 0.8617062,-3.3597907 0.8637223,-3.3393824 0.8637223,-3.3393824 0.8609781,-3.3148569 0.858544,-3.3030316 0.8548354,-3.291731 0.8495593,-3.2810761 0.8429922,-3.2709528 0.827706,-3.2515925 0.827706,-3.2515925 0.8079645,-3.2363006 0.7976525,-3.2297455 0.786811,-3.2244995 0.775331,-3.2208319 0.7633351,-3.2184396 0.7384836,-3.2157808 0.7384836,-3.2157808 0.7151788,-3.2181419 0.7039255,-3.2203162 0.6931512,-3.2236829 0.6829748,-3.2285382 0.6733,-3.2346424 0.6547865,-3.2489323 0.6547865,-3.2489323 0.6405555,-3.2676315 0.6344812,-3.2773942 0.6296561,-3.2876527 0.6263164,-3.2985005 0.6241643,-3.3098196 0.6218397,-3.3332433 0.6218397,-3.3332433 0.6227378,-3.3464107 0.6243166,-3.3594757 0.6300252,-3.3852215 0.5653594,-3.3770359 0.5653594,-3.3770359 0.566178,-3.3651669 0.566178,-3.3651669 0.5643489,-3.342729 0.5627061,-3.3317226 0.5601894,-3.3209712 0.5565922,-3.3105352 0.5520994,-3.3003604 0.5416213,-3.2804466 0.5416213,-3.2804466 0.5262954,-3.2639746 0.518,-3.2569775 0.508946,-3.2514665 0.4990049,-3.2476935 0.4883617,-3.245296 0.4659051,-3.2427931 0.4659051,-3.2427931 0.4471241,-3.2448 0.4380706,-3.2466201 0.4294215,-3.2494202 0.4212744,-3.2534369 0.4135453,-3.2584667 0.3987838,-3.2702146 0.3987838,-3.2702146 0.3871832,-3.2860155 0.3822493,-3.2942486 0.378355,-3.3028808 0.3756815,-3.3119817 0.3739765,-3.3214544 0.3721807,-3.3410195 0.3721807,-3.3410195 0.3740948,-3.3607771 0.3758626,-3.3703457 0.3786031,-3.379542 0.3825591,-3.3882732 0.3875364,-3.3966136 0.399193,-3.412643 0.399193,-3.412643 0.4171945,-3.4266289 0.4266077,-3.4327492 0.4365135,-3.437827 0.4469587,-3.4417637 0.4578186,-3.4448227 0.4802298,-3.4494779 0.467133,-3.5231478 0.467133,-3.5231478 0.4346821,-3.5146684 0.4190744,-3.5092974 0.4042079,-3.5025688 0.3902849,-3.4941124 0.3771791,-3.4841592 0.3523308,-3.4617563 0.3523308,-3.4617563 0.3345942,-3.4346179 0.3270473,-3.4205876 0.3210855,-3.4060042 0.3169885,-3.3907702 0.3143723,-3.3750194 0.3116077,-3.3426567 0.3116077,-3.3426567 0.3131615,-3.3191713 0.314565,-3.3075758 0.3167205,-3.296157 0.3198081,-3.2849571 0.3236702,-3.2739391 0.3326855,-3.2522065 0.3326855,-3.2522065 0.3439818,-3.2335789 0.3501463,-3.2247378 0.3569303,-3.2164638 0.3644878,-3.208898 0.3726943,-3.2019263 0.3901889,-3.1889732 0.3901889,-3.1889732 0.4084914,-3.1798203 0.4178179,-3.1758665 0.4273548,-3.1726597 0.4371513,-3.1703748 0.4471624,-3.1688521 0.4675422,-3.1670769 0.4675422,-3.1670769 0.4863134,-3.1686759 0.4955173,-3.17009 0.5045031,-3.1722417 0.5132211,-3.1752994 0.5217188,-3.1791023 0.5383471,-3.1879499 0.5383471,-3.1879499 0.5540956,-3.2008541 0.5614305,-3.2077548 0.5681184,-3.2151937 0.5740546,-3.2232578 0.5793982,-3.2318149 0.5890975,-3.2497508 0.5890975,-3.2497508 0.5967831,-3.2259279 0.6014681,-3.2145422 0.6071638,-3.2037874 0.6141298,-3.1938257 0.6221724,-3.1845359 0.6400525,-3.1670769 0.6400525,-3.1670769 0.6624849,-3.1540727 0.6740134,-3.1485672 0.6859162,-3.1442568 0.6982518,-3.1413277 0.7109277,-3.1394847 0.7368465,-3.1376089 0.7368465,-3.1376089 0.7557503,-3.1395302 0.7743663,-3.1421215 0.7924067,-3.1460529 0.8011211,-3.1487305 0.8095836,-3.1519944 0.8177709,-3.1558991 0.8257074,-3.1603876 0.8409713,-3.1707823 0.855662,-3.1825114 0.8700661,-3.1949077 0.8700661,-3.1949077 0.8822455,-3.2109664 0.8937283,-3.2272922 0.9038183,-3.2441523 0.9081234,-3.2528661 0.9118193,-3.2618135 0.9148701,-3.2710085 0.9173448,-3.2804243 0.9208953,-3.2997926 0.9231291,-3.3196659 0.9247046,-3.3397917 0.9247046,-3.3397917 0.9233783,-3.3578554 0.9214825,-3.3757108 0.9184479,-3.3931496 0.9137051,-3.4099635 0.906814,-3.4259915 0.898101,-3.441353 0.8881731,-3.4562701 0.8776378,-3.470965 0.8776378,-3.470965 0.8645355,-3.482758 0.8511561,-3.4939883 0.8372222,-3.5040936 0.8224566,-3.5125113 0.8066949,-3.5189078 0.7901325,-3.5236794 0.7730363,-3.5273679 0.7556732,-3.5305148 0.7458506,-3.4568449z" transform="matrix(1,0,0,-1,3.529262,3.65)" fill="rgb(116,116,116)" fill-rule="nonzero" shaper:cutDepth="0.05cm" stroke-linecap="round" stroke-linejoin="round" /><path d="M0.5408028,-3.0193278 L0.5408028,-3.0193278 0.5234225,-3.0289558 0.5145151,-3.0330521 0.5053472,-3.0362876 0.4958728,-3.0385107 0.4861552,-3.03993 0.4663144,-3.0414288 0.4663144,-3.0414288 0.4506938,-3.0398861 0.43531,-3.0377903 0.4203998,-3.0345883 0.4062002,-3.0297271 0.3928714,-3.0228323 0.380257,-3.0142691 0.3681188,-3.0045936 0.3562189,-2.994362 0.3562189,-2.994362 0.3460355,-2.9804017 0.3364623,-2.9662169 0.3281097,-2.9515832 0.321586,-2.9362768 0.3171663,-2.9201965 0.3143967,-2.9035093 0.3116077,-2.8691233 0.3116077,-2.8691233 0.3145162,-2.8343476 0.3173717,-2.8174805 0.3219087,-2.8012384 0.328584,-2.7857909 0.3371086,-2.7710307 0.3468669,-2.756729 0.3572421,-2.7426566 0.3572421,-2.7426566 0.3692533,-2.7323043 0.3815039,-2.7225083 0.3942332,-2.713825 0.4076806,-2.7068109 0.4220081,-2.7018425 0.4370578,-2.6985529 0.4525889,-2.6963823 0.4683608,-2.6947713 0.4683608,-2.6947713 0.4877261,-2.6963111 0.4972074,-2.6977392 0.506447,-2.6999573 0.5153842,-2.7031639 0.5240667,-2.7072027 0.5410074,-2.7166676 0.5410074,-2.7166676 0.5564254,-2.7307374 0.5635096,-2.7382291 0.5698451,-2.7462681 0.5753298,-2.754929 0.5801512,-2.7640749 0.5886882,-2.783175 0.5886882,-2.783175 0.5985951,-2.7589056 0.6043127,-2.747307 0.6109474,-2.7363518 0.6187449,-2.7262123 0.6275425,-2.7167744 0.6468055,-2.6990687 0.6468055,-2.6990687 0.6691132,-2.6865274 0.6805524,-2.6811869 0.6923342,-2.6769624 0.7045199,-2.674054 0.7170269,-2.6721926 0.7425764,-2.6702147 0.7425764,-2.6702147 0.7608708,-2.6719786 0.7788944,-2.6743837 0.7963767,-2.6780711 0.8048302,-2.6805961 0.8130469,-2.6836822 0.8210028,-2.6873858 0.8287194,-2.6916562 0.8435715,-2.7015739 0.8578764,-2.7127873 0.8719079,-2.7246485 0.8719079,-2.7246485 0.8837846,-2.740551 0.8949591,-2.7567176 0.9047291,-2.7734121 0.908868,-2.78204 0.9123937,-2.7908983 0.917615,-2.8093032 0.9209112,-2.8284318 0.9229241,-2.848043 0.9242953,-2.8678954 0.9242953,-2.8678954 0.9229147,-2.8877609 0.9208901,-2.9073835 0.9175778,-2.9265201 0.9152375,-2.9358303 0.9123339,-2.9449279 0.9087938,-2.9537853 0.904639,-2.9624108 0.8948337,-2.9790974 0.8836204,-2.9952527 0.8717032,-3.0111423 0.8717032,-3.0111423 0.8574449,-3.023067 0.8429116,-3.0343331 0.8278283,-3.0442825 0.8199946,-3.0485575 0.8119202,-3.0522565 0.8035853,-3.0553316 0.7950149,-3.0578427 0.7773019,-3.0614949 0.7590506,-3.0638579 0.74053,-3.0655762 0.74053,-3.0655762 0.7143117,-3.0636653 0.7014853,-3.0618006 0.6889983,-3.0588449 0.6769421,-3.0545038 0.6652576,-3.048968 0.6425082,-3.0359036 0.6425082,-3.0359036 0.6239784,-3.0180528 0.6156031,-3.0085527 0.6082951,-2.9983633 0.6022376,-2.987366 0.5971707,-2.9757289 0.5886882,-2.9513879 0.5886882,-2.9513879 0.5802082,-2.9708865 0.5753993,-2.9802263 0.5699077,-2.9890745 0.5635386,-2.9972909 0.5563925,-3.0049479 0.5408028,-3.0193278z M0.8019215,-2.9749213 L0.8019215,-2.9749213 0.8156915,-2.9662498 0.8221726,-2.9614984 0.8281691,-2.9562483 0.833576,-2.9503915 0.8385028,-2.9440405 0.8475559,-2.9305148 0.8475559,-2.9305148 0.8543938,-2.915369 0.8597033,-2.8998331 0.8624727,-2.8836489 0.8637223,-2.8670768 0.8637223,-2.8670768 0.8613195,-2.8428742 0.8590982,-2.8311763 0.8556531,-2.8199624 0.8506781,-2.8093536 0.8444173,-2.7992534 0.8297523,-2.7799008 0.8297523,-2.7799008 0.8106724,-2.7650882 0.8006975,-2.7587597 0.7902006,-2.7537245 0.7790812,-2.7502317 0.7674629,-2.7479749 0.7433949,-2.7455216 0.7433949,-2.7455216 0.7188351,-2.7480809 0.7069857,-2.7504181 0.6956529,-2.7540242 0.6849631,-2.7592097 0.6748104,-2.7657147 0.6554003,-2.7809241 0.6554003,-2.7809241 0.6404562,-2.8005949 0.6340644,-2.8108593 0.6289688,-2.8216387 0.6254249,-2.8330343 0.6231278,-2.8449252 0.6206118,-2.8695325 0.6206118,-2.8695325 0.6230967,-2.8935377 0.6253661,-2.9051257 0.6288679,-2.9162161 0.6339035,-2.9266871 0.6402206,-2.9366407 0.654991,-2.9556853 0.654991,-2.9556853 0.6740241,-2.970337 0.6839643,-2.9766083 0.6944129,-2.9816141 0.7054716,-2.9851016 0.7170213,-2.9873668 0.7409393,-2.9898599 0.7409393,-2.9898599 0.7567966,-2.9886384 0.7723171,-2.9860337 0.7872836,-2.9811523 0.8019215,-2.9749213z M0.5334358,-2.9387003 L0.5334358,-2.9387003 0.5452217,-2.9228483 0.5502332,-2.9145805 0.5541874,-2.9059027 0.5569006,-2.8967437 0.5586298,-2.8872032 0.5604481,-2.8674861 0.5604481,-2.8674861 0.5585964,-2.8481429 0.5568613,-2.8387879 0.5541552,-2.8298129 0.55023,-2.8213149 0.5452733,-2.8132205 0.5336405,-2.7977044 0.5336405,-2.7977044 0.5191841,-2.7861693 0.5116196,-2.7812111 0.5036516,-2.7772241 0.4951927,-2.7744181 0.4863343,-2.7725737 0.4679515,-2.7704875 0.4679515,-2.7704875 0.4488952,-2.7726097 0.4397093,-2.7744988 0.4309343,-2.7773817 0.4226653,-2.7814886 0.4148139,-2.7866056 0.3998069,-2.798523 0.3998069,-2.798523 0.3879722,-2.8139981 0.3829052,-2.8220756 0.3788585,-2.8305611 0.3760372,-2.8395365 0.3742033,-2.8489066 0.3721807,-2.8683046 0.3721807,-2.8683046 0.3741033,-2.8876919 0.3758744,-2.8970685 0.3786173,-2.9060648 0.3825735,-2.9145863 0.3875477,-2.9227092 0.399193,-2.938291 0.399193,-2.938291 0.4133494,-2.9499419 0.4207682,-2.9549722 0.4285956,-2.9590483 0.4369266,-2.9619486 0.4456731,-2.9638788 0.4638587,-2.9661219 0.4638587,-2.9661219 0.4832357,-2.9642113 0.4925929,-2.96243 0.5015527,-2.9596572 0.5100142,-2.9556418 0.5180551,-2.9505774 0.5334358,-2.9387003z" transform="matrix(1,0,0,-1,3.529262,3.65)" fill="rgb(116,116,116)" fill-rule="nonzero" shaper:cutDepth="0.05cm" stroke-linecap="round" stroke-linejoin="round" /><path d="M-0.3448405,-1.1903187 a0.15,0.15 0 1,1 0.3,0 a0.15,0.15 0 1,1 -0.3,0z" transform="matrix(1,0,0,-1,3.529262,3.65)" fill="rgb(255,255,255)" stroke="rgb(0,0,0)" stroke-width="0.0010cm" stroke-linecap="round" stroke-linejoin="round" shaper:cutDepth="0.3cm" /><path d="M0.373087,0.7686615 a0.15,0.15 0 1,1 0.3,0 a0.15,0.15 0 1,1 -0.3,0z" transform="matrix(1,0,0,-1,3.529262,3.65)" fill="rgb(255,255,255)" stroke="rgb(0,0,0)" stroke-width="0.0010cm" stroke-linecap="round" stroke-linejoin="round" shaper:cutDepth="0.3cm" /><path d="M2.1213306,-0.4344676 a0.15,0.15 0 1,1 0.3,0 a0.15,0.15 0 1,1 -0.3,0z" transform="matrix(1,0,0,-1,3.529262,3.65)" fill="rgb(255,255,255)" stroke="rgb(0,0,0)" stroke-width="0.0010cm" stroke-linecap="round" stroke-linejoin="round" shaper:cutDepth="0.3cm" /><path d="M-2.0847547,1.2544637 a0.15,0.15 0 1,1 0.3,0 a0.15,0.15 0 1,1 -0.3,0z" transform="matrix(1,0,0,-1,3.529262,3.65)" fill="rgb(255,255,255)" stroke="rgb(0,0,0)" stroke-width="0.0010cm" stroke-linecap="round" stroke-linejoin="round" shaper:cutDepth="0.3cm" /><path d="M-1.7557704,-2.6250344 a0.15,0.15 0 1,1 0.3,0 a0.15,0.15 0 1,1 -0.3,0z" transform="matrix(1,0,0,-1,3.529262,3.65)" fill="rgb(255,255,255)" stroke="rgb(0,0,0)" stroke-width="0.0010cm" stroke-linecap="round" stroke-linejoin="round" shaper:cutDepth="0.3cm" /><path d="M-2.5342727,1.25 L-2.5342727,-1.25 -2.2342727,-1.25 -2.2342727,1.25 -2.5342727,1.25z" transform="matrix(1,0,0,-1,3.529262,3.65)" fill="rgb(255,255,255)" stroke="rgb(0,0,0)" stroke-width="0.0010cm" stroke-linecap="round" stroke-linejoin="round" shaper:cutDepth="0.3cm" /><path d="M2.979262,-3.25 a0.15,0.15 0 1,1 0.3,0 a0.15,0.15 0 1,1 -0.3,0z" transform="matrix(1,0,0,-1,3.529262,3.65)" fill="rgb(255,255,255)" stroke="rgb(0,0,0)" stroke-width="0.0010cm" stroke-linecap="round" stroke-linejoin="round" shaper:cutDepth="0.3cm" /><path d="M-1.520738,3.25 a0.15,0.15 0 1,1 0.3,0 a0.15,0.15 0 1,1 -0.3,0z" transform="matrix(1,0,0,-1,3.529262,3.65)" fill="rgb(255,255,255)" stroke="rgb(0,0,0)" stroke-width="0.0010cm" stroke-linecap="round" stroke-linejoin="round" shaper:cutDepth="0.3cm" /><path d="M2.979262,3.25 a0.15,0.15 0 1,1 0.3,0 a0.15,0.15 0 1,1 -0.3,0z" transform="matrix(1,0,0,-1,3.529262,3.65)" fill="rgb(255,255,255)" stroke="rgb(0,0,0)" stroke-width="0.0010cm" stroke-linecap="round" stroke-linejoin="round" shaper:cutDepth="0.3cm" /><path d="M-1.520738,-3.25 a0.15,0.15 0 1,1 0.3,0 a0.15,0.15 0 1,1 -0.3,0z" transform="matrix(1,0,0,-1,3.529262,3.65)" fill="rgb(255,255,255)" stroke="rgb(0,0,0)" stroke-width="0.0010cm" stroke-linecap="round" stroke-linejoin="round" shaper:cutDepth="0.3cm" /><path d="M-2.1707381,2 L-0.870738,2 -0.870738,2.7500001 -2.1707381,2.7500001 A0.3,0.3 90 0,1 -2.4707381,2.4500001 L-2.4707381,2.3 A0.3,0.3 180 0,1 -2.1707381,2z" transform="matrix(1,0,0,-1,3.529262,3.65)" fill="rgb(255,255,255)" stroke="rgb(0,0,0)" stroke-width="0.0010cm" stroke-linecap="round" stroke-linejoin="round" shaper:cutDepth="0.3cm" /></svg>