<?xml version="1.0" encoding="utf-8"?>
<!-- Generator: Fusion 360, Shaper Origin Export Add-In, Version 1.7.0  -->
<svg xmlns="http://www.w3.org/2000/svg" xmlns:xlink="http://www.w3.org/1999/xlink" xmlns:shaper="http://www.shapertools.com/namespaces/shaper" shaper:fusionaddin="version:1.7.0" width="7.058524cm" height="7.3cm" version="1.1" x="0cm" y="0cm" viewBox="0 0 7.058524 7.3" enable-background="new 0 0 7.058524 7.3" xml:space="preserve"><path d="M-3.529262,-2.0046781 L-1.8572407,-3.5690658 A0.3,0.3 226.9047902 0,1 -1.6522768,-3.65 L3.229262,-3.65 A0.3,0.3 270 0,1 3.529262,-3.35 L3.529262,-2.7885309 3.229262,-2.7885309 3.229262,-0.7885309 3.529262,-0.7885309 3.529262,3.35 A0.3,0.3 0 0,1 3.229262,3.65 L-1.6522768,3.65 A0.3,0.3 90 0,1 -1.8572407,3.5690658 L-3.529262,2.0046781 -3.529262,1.65 -3.2342727,1.65 -3.2342727,-1.65 -3.529262,-1.65 -3.529262,-2.0046781z" transform="matrix(1,0,0,-1,3.529262,3.65)" fill="rgb(0,0,0)" shaper:cutDepth="0.3cm" stroke-linecap="round" stroke-linejoin="round" /><path d="M0.3565986,-1.3276395 L0.3565986,-1.3276395 0.3723568,-1.3242805 0.3799771,-1.32207 0.387287,-1.3192224 0.3941944,-1.3155488 0.4007377,-1.311128 0.4132152,-1.3010365 0.4132152,-1.3010365 0.4213062,-1.2897222 0.4247755,-1.2838465 0.4275534,-1.2777084 0.4294969,-1.2712539 0.4307656,-1.2645433 0.4321784,-1.2506954 0.4321784,-1.2506954 0.4300369,-1.2336726 0.428188,-1.2255065 0.4254053,-1.2177548 0.4214888,-1.210506 0.4166509,-1.2036662 0.405439,-1.1906681 0.405439,-1.1906681 0.3894082,-1.1797671 0.38109,-1.1751626 0.3724087,-1.1715723 0.3633112,-1.1691448 0.3538877,-1.1676279 0.3344976,-1.1661115 0.3344976,-1.1661115 0.3162645,-1.1675278 0.3074189,-1.1689693 0.2988986,-1.1712906 0.2907951,-1.1747396 0.2830579,-1.1791795 0.2681948,-1.1897132 0.2681948,-1.1897132 0.2576209,-1.2033568 0.2531212,-1.2104944 0.2495661,-1.218011 0.2471225,-1.2259736 0.2455615,-1.2342903 0.243911,-1.251514 0.243911,-1.251514 0.2446861,-1.2627118 0.2464927,-1.2736472 0.2500531,-1.2841362 0.2546886,-1.2943516 0.2546886,-1.2943516 0.2603982,-1.3030557 0.2667975,-1.3111139 0.2743682,-1.3180753 0.2826559,-1.3243653 0.2766532,-1.3704771 0.0711961,-1.3317323 0.0711961,-1.1328237 0.1181265,-1.1328237 0.1181265,-1.2924417 0.2256299,-1.3139969 0.2256299,-1.3139969 0.2153084,-1.2964262 0.2108238,-1.2874195 0.2071505,-1.2781473 0.204494,-1.2685423 0.2026953,-1.2586566 0.2005276,-1.2384171 0.2005276,-1.2384171 0.2032889,-1.213715 0.20574,-1.2018052 0.2094756,-1.1904247 0.2147917,-1.1796957 0.2214099,-1.1695034 0.2368168,-1.1500133 0.2368168,-1.1500133 0.2575389,-1.1343798 0.2683545,-1.1277191 0.2797156,-1.1224456 0.291721,-1.1188109 0.3042396,-1.1164813 0.330132,-1.1139969 0.330132,-1.1139969 0.3555123,-1.1162918 0.3678804,-1.118384 0.379862,-1.1216099 0.3913629,-1.1262459 0.4024625,-1.1320591 0.4239928,-1.1456477 0.4239928,-1.1456477 0.4347418,-1.156587 0.4448849,-1.1678103 0.4538161,-1.1796012 0.4609296,-1.1922438 0.4658711,-1.2059039 0.4690693,-1.2203807 0.4711054,-1.2354019 0.4725604,-1.2506954 0.4725604,-1.2506954 0.4705991,-1.2749705 0.4686814,-1.2867774 0.4656393,-1.2981876 0.4611686,-1.3090938 0.4554649,-1.3195649 0.442001,-1.3397814 0.442001,-1.3397814 0.4244483,-1.3551283 0.4152015,-1.3618473 0.4053901,-1.3674211 0.3949083,-1.3716352 0.3838911,-1.3747631 0.3609642,-1.3792084 0.3565986,-1.3276395z" transform="matrix(1,0,0,-1,3.529262,3.65)" fill="rgb(116,116,116)" fill-rule="nonzero" shaper:cutDepth="0.05cm" stroke-linecap="round" stroke-linejoin="round" /><path d="M-1.606187,-1.9836363 L-1.606187,-1.9836363 -1.5895769,-1.9795701 -1.5815196,-1.9770428 -1.5737596,-1.9739226 -1.5663901,-1.9700231 -1.5593925,-1.9653819 -1.5460233,-1.9548505 -1.5460233,-1.9548505 -1.5381278,-1.9437063 -1.5347482,-1.9379207 -1.5320505,-1.931879 -1.5301708,-1.92553 -1.5289499,-1.9189334 -1.5276058,-1.9053279 -1.5276058,-1.9053279 -1.5294352,-1.8889776 -1.531058,-1.881094 -1.5335304,-1.8735603 -1.5370478,-1.866457 -1.5414259,-1.8597082 -1.5516167,-1.8468014 -1.5516167,-1.8468014 -1.5647777,-1.8366067 -1.5716523,-1.8322367 -1.57888,-1.8287394 -1.5865333,-1.8262942 -1.5945306,-1.8246994 -1.6110983,-1.8229269 -1.6110983,-1.8229269 -1.6266348,-1.8245009 -1.634137,-1.8259505 -1.6413199,-1.8281949 -1.6481042,-1.8314318 -1.654554,-1.8355013 -1.6668964,-1.8450278 -1.6668964,-1.8450278 -1.6763837,-1.857494 -1.6804332,-1.8640025 -1.6836499,-1.8708415 -1.6858764,-1.8780734 -1.6873111,-1.8856194 -1.6888609,-1.9012352 -1.6888609,-1.9012352 -1.6872096,-1.9187235 -1.6834039,-1.9358873 -1.7265144,-1.9304303 -1.7265144,-1.9304303 -1.7259687,-1.9225176 -1.7259687,-1.9225176 -1.7271881,-1.907559 -1.7282832,-1.9002214 -1.729961,-1.8930538 -1.7323592,-1.8860965 -1.7353544,-1.8793133 -1.7423397,-1.8660374 -1.7423397,-1.8660374 -1.7525571,-1.8550561 -1.7580873,-1.8503913 -1.7641233,-1.8467173 -1.7707507,-1.844202 -1.7778462,-1.8426036 -1.7928172,-1.8409351 -1.7928172,-1.8409351 -1.8053379,-1.842273 -1.8113736,-1.8434864 -1.8171397,-1.8453532 -1.8225711,-1.848031 -1.8277238,-1.8513841 -1.8375649,-1.8592161 -1.8375649,-1.8592161 -1.8452986,-1.86975 -1.8485878,-1.8752387 -1.851184,-1.8809935 -1.8529664,-1.8870608 -1.854103,-1.8933759 -1.8553002,-1.9064194 -1.8553002,-1.9064194 -1.8540241,-1.9195911 -1.8528456,-1.9259701 -1.8510186,-1.932101 -1.8483813,-1.9379218 -1.8450631,-1.943482 -1.837292,-1.9541683 -1.837292,-1.9541683 -1.825291,-1.9634923 -1.8190155,-1.9675725 -1.8124116,-1.9709577 -1.8054482,-1.9735821 -1.7982082,-1.9756214 -1.7832674,-1.978725 -1.7919987,-2.0278382 -1.7919987,-2.0278382 -1.8136326,-2.0221852 -1.8240377,-2.0186046 -1.8339487,-2.0141188 -1.8432307,-2.0084812 -1.8519679,-2.0018458 -1.8685335,-1.9869105 -1.8685335,-1.9869105 -1.8803578,-1.9688183 -1.8853891,-1.9594648 -1.8893636,-1.9497425 -1.892095,-1.9395864 -1.8938391,-1.9290859 -1.8956822,-1.9075108 -1.8956822,-1.9075108 -1.8946463,-1.8918539 -1.8922736,-1.876511 -1.8876405,-1.8616991 -1.8816303,-1.8472106 -1.8816303,-1.8472106 -1.8740994,-1.8347923 -1.8654671,-1.8233822 -1.8549578,-1.8136905 -1.8432947,-1.8050551 -1.8432947,-1.8050551 -1.8310931,-1.7989532 -1.8185174,-1.7941795 -1.8053124,-1.7916411 -1.7917258,-1.7904576 -1.7917258,-1.7904576 -1.7792117,-1.7915236 -1.7670852,-1.7939008 -1.7556081,-1.7984745 -1.7445225,-1.804373 -1.7445225,-1.804373 -1.7340236,-1.8129758 -1.7246751,-1.8225355 -1.7171552,-1.8336163 -1.710689,-1.8455735 -1.710689,-1.8455735 -1.7055653,-1.8296916 -1.7024419,-1.8221012 -1.6986448,-1.8149313 -1.6940008,-1.8082901 -1.688639,-1.802097 -1.676719,-1.7904576 -1.676719,-1.7904576 -1.661764,-1.7817881 -1.6540784,-1.7781178 -1.6461432,-1.7752442 -1.6379195,-1.7732915 -1.6294689,-1.7720628 -1.6121897,-1.7708123 -1.6121897,-1.7708123 -1.5871765,-1.7738207 -1.5751495,-1.7764416 -1.5636983,-1.7804026 -1.5529491,-1.785998 -1.5427732,-1.7929279 -1.5233766,-1.8090115 -1.5233766,-1.8090115 -1.5076018,-1.8306011 -1.5008751,-1.8418412 -1.4955411,-1.8536154 -1.4918575,-1.8660225 -1.4894905,-1.8789347 -1.4869509,-1.9056008 -1.4869509,-1.9056008 -1.489099,-1.9295469 -1.491122,-1.9411727 -1.494284,-1.952382 -1.498878,-1.9630673 -1.5046867,-1.9733084 -1.5183289,-1.9930496 -1.5183289,-1.9930496 -1.5359833,-2.0083985 -1.5452726,-2.0151354 -1.5551163,-2.0207472 -1.5656241,-2.0250115 -1.5766657,-2.0281926 -1.5996385,-2.0327495 -1.606187,-1.9836363z" transform="matrix(1,0,0,-1,3.529262,3.65)" fill="rgb(116,116,116)" fill-rule="nonzero" shaper:cutDepth="0.05cm" stroke-linecap="round" stroke-linejoin="round" /><path d="M0.7904479,1.4116425 L0.7904479,1.1472496 0.7904479,1.1472496 0.7817231,1.1475046 0.7731061,1.1484004 0.7646695,1.1503675 0.7563414,1.1529795 0.7563414,1.1529795 0.7420686,1.1594502 0.7283436,1.1668304 0.715489,1.1756554 0.7031355,1.1853124 0.7031355,1.1853124 0.6870039,1.2004356 0.6714607,1.2161189 0.6567764,1.2326199 0.6425625,1.2495688 0.6425625,1.2495688 0.6229794,1.2731695 0.6026209,1.2960089 0.5807895,1.3174021 0.5578421,1.3376998 0.5578421,1.3376998 0.5442596,1.3466182 0.5372779,1.3505653 0.5300678,1.3538979 0.5225605,1.3564315 0.5147818,1.3582349 0.4987698,1.3606193 0.4987698,1.3606193 0.4849284,1.3590036 0.4782678,1.3575828 0.4719195,1.3554263 0.4659536,1.3523687 0.4603015,1.3485718 0.4495202,1.3397462 0.4495202,1.3397462 0.4407278,1.3275654 0.4369961,1.321224 0.4340613,1.3145815 0.4320558,1.3075878 0.4307845,1.3003168 0.4294656,1.2853124 0.4294656,1.2853124 0.4308342,1.2695993 0.4321709,1.2619944 0.4342903,1.2546916 0.4374038,1.2477723 0.4413751,1.241184 0.450748,1.2285593 0.450748,1.2285593 0.4639013,1.2190127 0.4707607,1.2149829 0.4779586,1.211844 0.4855407,1.2097154 0.4934222,1.2083742 0.5096839,1.207004 0.5044997,1.1565266 0.5044997,1.1565266 0.4803033,1.1605729 0.4686413,1.1635268 0.4575028,1.1675976 0.4470368,1.1731034 0.4371654,1.1798778 0.4184151,1.1955443 0.4184151,1.1955443 0.405138,1.2162656 0.3995525,1.2269836 0.3952285,1.2381295 0.39233,1.2497591 0.3905408,1.2617649 0.3888108,1.2864038 0.3888108,1.2864038 0.3907237,1.3113941 0.3926722,1.3235284 0.3958113,1.3352296 0.4004763,1.3463758 0.4064826,1.3570341 0.4207343,1.3775361 0.4207343,1.3775361 0.4380318,1.3917649 0.4471056,1.3978802 0.4566896,1.4027966 0.4668937,1.4062555 0.4776025,1.4085283 0.4998612,1.4110968 0.4998612,1.4110968 0.5120038,1.4102936 0.5239582,1.4085809 0.5356031,1.4053712 0.5470645,1.4012742 0.5470645,1.4012742 0.5601887,1.3945108 0.5727836,1.3869437 0.5845708,1.3781501 0.5959049,1.3686684 0.5959049,1.3686684 0.6143835,1.3505664 0.6323144,1.3319494 0.6663005,1.2929522 0.6663005,1.2929522 0.6908607,1.2640279 0.7166416,1.2361991 0.7166416,1.2361991 0.729402,1.2251337 0.7432446,1.2154624 0.7432446,1.4116425 0.7904479,1.4116425z" transform="matrix(1,0,0,-1,3.529262,3.65)" fill="rgb(116,116,116)" fill-rule="nonzero" shaper:cutDepth="0.05cm" stroke-linecap="round" stroke-linejoin="round" /><path d="M-1.405864,1.0788369 L-1.405864,0.9053035 -1.4508844,0.9053035 -1.7100932,1.087841 -1.7100932,1.1279501 -1.4508844,1.1279501 -1.4508844,1.1819747 -1.405864,1.1819747 -1.405864,1.1279501 -1.3100931,1.1279501 -1.3100931,1.0788369 -1.405864,1.0788369z M-1.6312391,1.0788369 L-1.4508844,0.9535981 -1.4508844,1.0788369 -1.6312391,1.0788369z" transform="matrix(1,0,0,-1,3.529262,3.65)" fill="rgb(116,116,116)" fill-rule="nonzero" shaper:cutDepth="0.05cm" stroke-linecap="round" stroke-linejoin="round" /><path d="M2.8522599,-2.1778349 L2.8522599,-2.3513684 2.8072394,-2.3513684 2.5480307,-2.1688308 2.5480307,-2.1287217 2.8072394,-2.1287217 2.8072394,-2.0746972 2.8522599,-2.0746972 2.8522599,-2.1287217 2.9480307,-2.1287217 2.9480307,-2.1778349 2.8522599,-2.1778349z M2.6268847,-2.1778349 L2.8072394,-2.3030737 2.8072394,-2.1778349 2.6268847,-2.1778349z" transform="matrix(1,0,0,-1,3.529262,3.65)" fill="rgb(116,116,116)" fill-rule="nonzero" shaper:cutDepth="0.05cm" stroke-linecap="round" stroke-linejoin="round" /><path d="M0.9296439,-3.1532667 L0.9296439,-3.5498561 0.9296439,-3.5498561 0.9165567,-3.5494736 0.9036313,-3.5481299 0.8909764,-3.5451792 0.8784843,-3.5412613 0.8784843,-3.5412613 0.857075,-3.5315553 0.8364875,-3.5204849 0.8172055,-3.5072474 0.7986753,-3.4927619 0.7986753,-3.4927619 0.7744779,-3.4700771 0.7511631,-3.4465521 0.7291366,-3.4218006 0.7078158,-3.3963772 0.7078158,-3.3963772 0.6784412,-3.3609762 0.6633904,-3.3436326 0.6479035,-3.3267172 0.6318359,-3.3103718 0.6151563,-3.2946274 0.5807353,-3.2641808 0.5807353,-3.2641808 0.5603615,-3.2508032 0.549889,-3.2448825 0.5390738,-3.2398836 0.5278129,-3.2360832 0.5161448,-3.2333781 0.4921268,-3.2298015 0.4921268,-3.2298015 0.4713646,-3.232225 0.4613738,-3.2343563 0.4518513,-3.237591 0.4429025,-3.2421775 0.4344243,-3.2478728 0.4182523,-3.2611112 0.4182523,-3.2611112 0.4050638,-3.2793824 0.3994662,-3.2888945 0.395064,-3.2988583 0.3920558,-3.3093487 0.3901489,-3.3202553 0.3881705,-3.3427619 0.3881705,-3.3427619 0.3902235,-3.3663316 0.3922284,-3.3777389 0.3954075,-3.3886931 0.4000779,-3.399072 0.4060347,-3.4089545 0.4200941,-3.4278916 0.4200941,-3.4278916 0.4398241,-3.4422114 0.4501131,-3.4482561 0.46091,-3.4529645 0.4722832,-3.4561574 0.4841053,-3.4581692 0.5084979,-3.4602245 0.5007217,-3.5359407 0.5007217,-3.5359407 0.4824434,-3.5331852 0.464427,-3.5298713 0.446934,-3.5254404 0.4302262,-3.5193341 0.4222473,-3.515481 0.4145273,-3.5110754 0.3997201,-3.5009139 0.3855085,-3.4894817 0.3715948,-3.4774141 0.3715948,-3.4774141 0.3613209,-3.4619803 0.351679,-3.4463321 0.3433008,-3.4302551 0.3368148,-3.4135362 0.3324671,-3.3960919 0.3297832,-3.3780831 0.3271882,-3.3411248 0.3271882,-3.3411248 0.3283253,-3.3222738 0.3300576,-3.3036393 0.3329805,-3.2854379 0.3376891,-3.267886 0.3408954,-3.25942 0.3446865,-3.2511667 0.353696,-3.2351794 0.364049,-3.2196807 0.3750736,-3.2044264 0.3750736,-3.2044264 0.3879192,-3.193455 0.4010198,-3.1830831 0.4146305,-3.1739102 0.4290065,-3.1665357 0.4443126,-3.1613473 0.4603758,-3.1579381 0.4769437,-3.1557152 0.4937639,-3.1540853 0.4937639,-3.1540853 0.5119777,-3.1552901 0.5299094,-3.1578592 0.5473767,-3.1626737 0.5645688,-3.1688193 0.5645688,-3.1688193 0.5842551,-3.1789643 0.6031475,-3.1903149 0.6208282,-3.2035054 0.6378294,-3.2177279 0.6378294,-3.2177279 0.6655474,-3.2448809 0.6924437,-3.2728064 0.7182283,-3.3017769 0.7434229,-3.3313022 0.7434229,-3.3313022 0.7802632,-3.3746886 0.7993692,-3.3957662 0.8189345,-3.4164318 0.8189345,-3.4164318 0.8380751,-3.4330299 0.858839,-3.4475368 0.858839,-3.1532667 0.9296439,-3.1532667z" transform="matrix(1,0,0,-1,3.529262,3.65)" fill="rgb(116,116,116)" fill-rule="nonzero" shaper:cutDepth="0.05cm" stroke-linecap="round" stroke-linejoin="round" /><path d="M0.7614311,-3.0001972 L0.7614311,-3.0001972 0.7863461,-2.9940979 0.7984321,-2.990307 0.8100722,-2.9856267 0.8211264,-2.9797775 0.8316228,-2.9728156 0.8516767,-2.9570184 0.8516767,-2.9570184 0.8635198,-2.9403022 0.8685892,-2.9316238 0.8726358,-2.9225613 0.8754553,-2.9130377 0.8772867,-2.9031429 0.8793028,-2.8827347 0.8793028,-2.8827347 0.8765586,-2.8582092 0.8741245,-2.8463838 0.8704159,-2.8350833 0.8651398,-2.8244284 0.8585727,-2.8143051 0.8432865,-2.7949448 0.8432865,-2.7949448 0.823545,-2.7796528 0.813233,-2.7730978 0.8023915,-2.7678518 0.7909115,-2.7641841 0.7789156,-2.7617918 0.754064,-2.7591331 0.754064,-2.7591331 0.7307592,-2.7614941 0.719506,-2.7636684 0.7087317,-2.7670351 0.6985553,-2.7718904 0.6888805,-2.7779946 0.670367,-2.7922845 0.670367,-2.7922845 0.656136,-2.8109837 0.6500617,-2.8207465 0.6452366,-2.831005 0.6418969,-2.8418528 0.6397448,-2.8531719 0.6374201,-2.8765956 0.6374201,-2.8765956 0.6383183,-2.889763 0.6398971,-2.902828 0.6456056,-2.9285737 0.5809399,-2.9203882 0.5809399,-2.9203882 0.5817585,-2.9085192 0.5817585,-2.9085192 0.5799294,-2.8860813 0.5782866,-2.8750749 0.5757699,-2.8643235 0.5721727,-2.8538874 0.5676799,-2.8437127 0.5572018,-2.8237988 0.5572018,-2.8237988 0.5418759,-2.8073269 0.5335805,-2.8003297 0.5245266,-2.7948187 0.5145854,-2.7910457 0.5039422,-2.7886482 0.4814856,-2.7861453 0.4814856,-2.7861453 0.4627046,-2.7881522 0.4536511,-2.7899723 0.445002,-2.7927724 0.4368549,-2.7967892 0.4291258,-2.8018189 0.4143642,-2.8135669 0.4143642,-2.8135669 0.4027637,-2.8293678 0.3978298,-2.8376009 0.3939355,-2.846233 0.3912619,-2.8553339 0.389557,-2.8648066 0.3877612,-2.8843718 0.3877612,-2.8843718 0.3896753,-2.9041294 0.391443,-2.9136979 0.3941835,-2.9228943 0.3981396,-2.9316254 0.4031168,-2.9399658 0.4147735,-2.9559953 0.4147735,-2.9559953 0.432775,-2.9699812 0.4421881,-2.9761015 0.452094,-2.9811793 0.4625392,-2.985116 0.4733991,-2.988175 0.4958103,-2.9928302 0.4827135,-3.0665 0.4827135,-3.0665 0.4502626,-3.0580206 0.4346549,-3.0526496 0.4197884,-3.045921 0.4058654,-3.0374646 0.3927596,-3.0275114 0.3679113,-3.0051085 0.3679113,-3.0051085 0.3501747,-2.9779701 0.3426278,-2.9639399 0.336666,-2.9493565 0.332569,-2.9341224 0.3299528,-2.9183716 0.3271882,-2.8860089 0.3271882,-2.8860089 0.328742,-2.8625235 0.3301455,-2.850928 0.332301,-2.8395092 0.3353886,-2.8283093 0.3392507,-2.8172913 0.348266,-2.7955587 0.348266,-2.7955587 0.3595623,-2.7769312 0.3657268,-2.76809 0.3725108,-2.7598161 0.3800683,-2.7522502 0.3882748,-2.7452785 0.4057694,-2.7323254 0.4057694,-2.7323254 0.4240719,-2.7231726 0.4333984,-2.7192187 0.4429353,-2.716012 0.4527318,-2.7137271 0.4627429,-2.7122044 0.4831227,-2.7104291 0.4831227,-2.7104291 0.5018939,-2.7120281 0.5110978,-2.7134423 0.5200836,-2.715594 0.5288016,-2.7186517 0.5372993,-2.7224546 0.5539276,-2.7313022 0.5539276,-2.7313022 0.5696761,-2.7442064 0.577011,-2.7511071 0.5836989,-2.758546 0.5896351,-2.7666101 0.5949787,-2.7751672 0.604678,-2.793103 0.604678,-2.793103 0.6123636,-2.7692802 0.6170486,-2.7578945 0.6227443,-2.7471397 0.6297103,-2.7371779 0.6377529,-2.7278882 0.6556329,-2.7104291 0.6556329,-2.7104291 0.6780654,-2.697425 0.6895939,-2.6919195 0.7014967,-2.6876091 0.7138323,-2.68468 0.7265082,-2.682837 0.7524269,-2.6809612 0.7524269,-2.6809612 0.7713308,-2.6828825 0.7899468,-2.6854739 0.8079872,-2.6894053 0.8167015,-2.6920829 0.825164,-2.6953468 0.8333513,-2.6992515 0.8412878,-2.7037399 0.8565518,-2.7141346 0.8712425,-2.7258637 0.8856466,-2.73826 0.8856466,-2.73826 0.8978259,-2.7543187 0.9093088,-2.7706445 0.9193989,-2.7875045 0.9237039,-2.7962184 0.9273998,-2.8051658 0.9304506,-2.8143607 0.9329253,-2.8237766 0.9364758,-2.8431449 0.9387096,-2.8630182 0.9402851,-2.883144 0.9402851,-2.883144 0.9389588,-2.9012077 0.937063,-2.9190631 0.9340284,-2.9365019 0.9292856,-2.9533157 0.9223945,-2.9693438 0.9136815,-2.9847053 0.9037536,-2.9996224 0.8932182,-3.0143172 0.8932182,-3.0143172 0.880116,-3.0261102 0.8667366,-3.0373406 0.8528026,-3.0474458 0.838037,-3.0558635 0.8222754,-3.06226 0.805713,-3.0670317 0.7886168,-3.0707201 0.7712537,-3.073867 0.7614311,-3.0001972z" transform="matrix(1,0,0,-1,3.529262,3.65)" fill="rgb(116,116,116)" fill-rule="nonzero" shaper:cutDepth="0.05cm" stroke-linecap="round" stroke-linejoin="round" /><path d="M-0.1315324,-1.585825 a0.15,0.15 0 1,1 0.3,0 a0.15,0.15 0 1,1 -0.3,0z" transform="matrix(1,0,0,-1,3.529262,3.65)" fill="rgb(255,255,255)" stroke="rgb(0,0,0)" stroke-width="0.0010cm" stroke-linecap="round" stroke-linejoin="round" shaper:cutDepth="0.3cm" /><path d="M-1.9100932,0.7124658 a0.15,0.15 0 1,1 0.3,0 a0.15,0.15 0 1,1 -0.3,0z" transform="matrix(1,0,0,-1,3.529262,3.65)" fill="rgb(255,255,255)" stroke="rgb(0,0,0)" stroke-width="0.0010cm" stroke-linecap="round" stroke-linejoin="round" shaper:cutDepth="0.3cm" /><path d="M-2.0940451,-2.2411397 a0.15,0.15 0 1,1 0.3,0 a0.15,0.15 0 1,1 -0.3,0z" transform="matrix(1,0,0,-1,3.529262,3.65)" fill="rgb(255,255,255)" stroke="rgb(0,0,0)" stroke-width="0.0010cm" stroke-linecap="round" stroke-linejoin="round" shaper:cutDepth="0.3cm" /><path d="M0.1904478,0.9433615 a0.15,0.15 0 1,1 0.3,0 a0.15,0.15 0 1,1 -0.3,0z" transform="matrix(1,0,0,-1,3.529262,3.65)" fill="rgb(255,255,255)" stroke="rgb(0,0,0)" stroke-width="0.0010cm" stroke-linecap="round" stroke-linejoin="round" shaper:cutDepth="0.3cm" /><path d="M2.3480306,-2.544206 a0.15,0.15 0 1,1 0.3,0 a0.15,0.15 0 1,1 -0.3,0z" transform="matrix(1,0,0,-1,3.529262,3.65)" fill="rgb(255,255,255)" stroke="rgb(0,0,0)" stroke-width="0.0010cm" stroke-linecap="round" stroke-linejoin="round" shaper:cutDepth="0.3cm" /><path d="M-2.5342727,1.25 L-2.5342727,-1.25 -2.2342727,-1.25 -2.2342727,1.25 -2.5342727,1.25z" transform="matrix(1,0,0,-1,3.529262,3.65)" fill="rgb(255,255,255)" stroke="rgb(0,0,0)" stroke-width="0.0010cm" stroke-linecap="round" stroke-linejoin="round" shaper:cutDepth="0.3cm" /><path d="M2.979262,-3.25 a0.15,0.15 0 1,1 0.3,0 a0.15,0.15 0 1,1 -0.3,0z" transform="matrix(1,0,0,-1,3.529262,3.65)" fill="rgb(255,255,255)" stroke="rgb(0,0,0)" stroke-width="0.0010cm" stroke-linecap="round" stroke-linejoin="round" shaper:cutDepth="0.3cm" /><path d="M-1.520738,3.25 a0.15,0.15 0 1,1 0.3,0 a0.15,0.15 0 1,1 -0.3,0z" transform="matrix(1,0,0,-1,3.529262,3.65)" fill="rgb(255,255,255)" stroke="rgb(0,0,0)" stroke-width="0.0010cm" stroke-linecap="round" stroke-linejoin="round" shaper:cutDepth="0.3cm" /><path d="M2.979262,3.25 a0.15,0.15 0 1,1 0.3,0 a0.15,0.15 0 1,1 -0.3,0z" transform="matrix(1,0,0,-1,3.529262,3.65)" fill="rgb(255,255,255)" stroke="rgb(0,0,0)" stroke-width="0.0010cm" stroke-linecap="round" stroke-linejoin="round" shaper:cutDepth="0.3cm" /><path d="M-1.520738,-3.25 a0.15,0.15 0 1,1 0.3,0 a0.15,0.15 0 1,1 -0.3,0z" transform="matrix(1,0,0,-1,3.529262,3.65)" fill="rgb(255,255,255)" stroke="rgb(0,0,0)" stroke-width="0.0010cm" stroke-linecap="round" stroke-linejoin="round" shaper:cutDepth="0.3cm" /><path d="M-2.1707381,2 L-0.870738,2 -0.870738,2.7500001 -2.1707381,2.7500001 A0.3,0.3 90 0,1 -2.4707381,2.4500001 L-2.4707381,2.3 A0.3,0.3 180 0,1 -2.1707381,2z" transform="matrix(1,0,0,-1,3.529262,3.65)" fill="rgb(255,255,255)" stroke="rgb(0,0,0)" stroke-width="0.0010cm" stroke-linecap="round" stroke-linejoin="round" shaper:cutDepth="0.3cm" /></svg>