<?xml version="1.0" encoding="utf-8"?>
<!-- Generator: Fusion 360, Shaper Origin Export Add-In, Version 1.7.0  -->
<svg xmlns="http://www.w3.org/2000/svg" xmlns:xlink="http://www.w3.org/1999/xlink" xmlns:shaper="http://www.shapertools.com/namespaces/shaper" shaper:fusionaddin="version:1.7.0" width="7.058524cm" height="7.3cm" version="1.1" x="0cm" y="0cm" viewBox="0 0 7.058524 7.3" enable-background="new 0 0 7.058524 7.3" xml:space="preserve"><path d="M-3.529262,-2.0046781 L-1.8572407,-3.5690658 A0.3,0.3 226.9047902 0,1 -1.6522768,-3.65 L3.229262,-3.65 A0.3,0.3 270 0,1 3.529262,-3.35 L3.529262,-2.7885309 3.229262,-2.7885309 3.229262,-0.7885309 3.529262,-0.7885309 3.529262,3.35 A0.3,0.3 0 0,1 3.229262,3.65 L-1.6522768,3.65 A0.3,0.3 90 0,1 -1.8572407,3.5690658 L-3.529262,2.0046781 -3.529262,1.65 -3.2342727,1.65 -3.2342727,-1.65 -3.529262,-1.65 -3.529262,-2.0046781z" transform="matrix(1,0,0,-1,3.529262,3.65)" fill="rgb(0,0,0)" shaper:cutDepth="0.3cm" stroke-linecap="round" stroke-linejoin="round" /><path d="M2.0085909,-1.4231704 L2.0085909,-1.6875634 2.0085909,-1.6875634 1.9998661,-1.6873084 1.9912491,-1.6864126 1.9828125,-1.6844454 1.9744844,-1.6818335 1.9744844,-1.6818335 1.9602116,-1.6753628 1.9464866,-1.6679825 1.933632,-1.6591576 1.9212785,-1.6495006 1.9212785,-1.6495006 1.9051469,-1.6343774 1.8896037,-1.6186941 1.8749194,-1.602193 1.8607055,-1.5852441 1.8607055,-1.5852441 1.8411224,-1.5616435 1.8207639,-1.5388041 1.7989325,-1.5174109 1.7759851,-1.4971132 1.7759851,-1.4971132 1.7624026,-1.4881948 1.7554209,-1.4842476 1.7482108,-1.480915 1.7407036,-1.4783814 1.7329248,-1.476578 1.7169128,-1.4741936 1.7169128,-1.4741936 1.7030714,-1.4758093 1.6964108,-1.4772302 1.6900625,-1.4793866 1.6840966,-1.4824443 1.6784445,-1.4862411 1.6676632,-1.4950668 1.6676632,-1.4950668 1.6588708,-1.5072475 1.6551391,-1.5135889 1.6522043,-1.5202315 1.6501988,-1.5272251 1.6489275,-1.5344962 1.6476086,-1.5495006 1.6476086,-1.5495006 1.6489773,-1.5652137 1.6503139,-1.5728186 1.6524333,-1.5801214 1.6555469,-1.5870406 1.6595181,-1.593629 1.668891,-1.6062537 1.668891,-1.6062537 1.6820443,-1.6158003 1.6889037,-1.61983 1.6961016,-1.622969 1.7036837,-1.6250975 1.7115652,-1.6264388 1.7278269,-1.6278089 1.7226427,-1.6782864 1.7226427,-1.6782864 1.6984463,-1.6742401 1.6867843,-1.6712862 1.6756458,-1.6672153 1.6651798,-1.6617095 1.6553084,-1.6549352 1.6365581,-1.6392687 1.6365581,-1.6392687 1.623281,-1.6185473 1.6176955,-1.6078294 1.6133715,-1.5966835 1.610473,-1.5850539 1.6086838,-1.573048 1.6069538,-1.5484092 1.6069538,-1.5484092 1.6088667,-1.5234188 1.6108152,-1.5112845 1.6139543,-1.4995833 1.6186193,-1.4884371 1.6246256,-1.4777789 1.6388774,-1.4572769 1.6388774,-1.4572769 1.6561748,-1.443048 1.6652486,-1.4369327 1.6748326,-1.4320164 1.6850367,-1.4285574 1.6957455,-1.4262847 1.7180042,-1.4237161 1.7180042,-1.4237161 1.7301468,-1.4245193 1.7421012,-1.4262321 1.7537461,-1.4294417 1.7652075,-1.4335388 1.7652075,-1.4335388 1.7783317,-1.4403022 1.7909266,-1.4478692 1.8027138,-1.4566629 1.8140479,-1.4661445 1.8140479,-1.4661445 1.8325266,-1.4842466 1.8504574,-1.5028635 1.8844435,-1.5418608 1.8844435,-1.5418608 1.9090037,-1.570785 1.9347846,-1.5986138 1.9347846,-1.5986138 1.947545,-1.6096792 1.9613876,-1.6193505 1.9613876,-1.4231704 2.0085909,-1.4231704z" transform="matrix(1,0,0,-1,3.529262,3.65)" fill="rgb(116,116,116)" fill-rule="nonzero" shaper:cutDepth="0.05cm" stroke-linecap="round" stroke-linejoin="round" /><path d="M-0.1544383,-1.4166413 L-0.1544383,-1.4166413 -0.1378283,-1.4125751 -0.129771,-1.4100478 -0.1220109,-1.4069276 -0.1146414,-1.4030281 -0.1076438,-1.3983869 -0.0942746,-1.3878555 -0.0942746,-1.3878555 -0.0863791,-1.3767113 -0.0829996,-1.3709257 -0.0803018,-1.364884 -0.0784222,-1.358535 -0.0772012,-1.3519384 -0.0758571,-1.3383329 -0.0758571,-1.3383329 -0.0776866,-1.3219826 -0.0793093,-1.314099 -0.0817817,-1.3065653 -0.0852991,-1.299462 -0.0896772,-1.2927132 -0.099868,-1.2798064 -0.099868,-1.2798064 -0.113029,-1.2696117 -0.1199037,-1.2652417 -0.1271314,-1.2617444 -0.1347847,-1.2592993 -0.1427819,-1.2577044 -0.1593496,-1.2559319 -0.1593496,-1.2559319 -0.1748862,-1.2575059 -0.1823883,-1.2589555 -0.1895712,-1.2611999 -0.1963555,-1.2644368 -0.2028054,-1.2685063 -0.2151477,-1.2780328 -0.2151477,-1.2780328 -0.224635,-1.290499 -0.2286846,-1.2970075 -0.2319013,-1.3038465 -0.2341277,-1.3110784 -0.2355624,-1.3186244 -0.2371122,-1.3342402 -0.2371122,-1.3342402 -0.2354609,-1.3517285 -0.2316552,-1.3688923 -0.2747657,-1.3634353 -0.2747657,-1.3634353 -0.27422,-1.3555226 -0.27422,-1.3555226 -0.2754394,-1.340564 -0.2765346,-1.3332264 -0.2782123,-1.3260588 -0.2806105,-1.3191015 -0.2836057,-1.3123183 -0.2905911,-1.2990424 -0.2905911,-1.2990424 -0.3008084,-1.2880611 -0.3063387,-1.2833964 -0.3123746,-1.2797223 -0.3190021,-1.277207 -0.3260975,-1.2756086 -0.3410686,-1.2739401 -0.3410686,-1.2739401 -0.3535892,-1.275278 -0.3596249,-1.2764914 -0.365391,-1.2783582 -0.3708224,-1.281036 -0.3759752,-1.2843891 -0.3858162,-1.2922211 -0.3858162,-1.2922211 -0.3935499,-1.302755 -0.3968391,-1.3082437 -0.3994354,-1.3139985 -0.4012177,-1.3200658 -0.4023544,-1.3263809 -0.4035515,-1.3394244 -0.4035515,-1.3394244 -0.4022754,-1.3525961 -0.401097,-1.3589751 -0.39927,-1.365106 -0.3966326,-1.3709268 -0.3933144,-1.3764871 -0.3855433,-1.3871734 -0.3855433,-1.3871734 -0.3735423,-1.3964973 -0.3672669,-1.4005775 -0.360663,-1.4039627 -0.3536995,-1.4065871 -0.3464596,-1.4086264 -0.3315188,-1.41173 -0.34025,-1.4608432 -0.34025,-1.4608432 -0.3618839,-1.4551903 -0.3722891,-1.4516096 -0.3822,-1.4471239 -0.3914821,-1.4414862 -0.4002192,-1.4348508 -0.4167848,-1.4199155 -0.4167848,-1.4199155 -0.4286092,-1.4018233 -0.4336405,-1.3924698 -0.437615,-1.3827475 -0.4403463,-1.3725914 -0.4420905,-1.3620909 -0.4439335,-1.3405158 -0.4439335,-1.3405158 -0.4428977,-1.3248589 -0.440525,-1.309516 -0.4358918,-1.2947041 -0.4298817,-1.2802156 -0.4298817,-1.2802156 -0.4223508,-1.2677973 -0.4137185,-1.2563872 -0.4032092,-1.2466955 -0.3915461,-1.2380601 -0.3915461,-1.2380601 -0.3793444,-1.2319582 -0.3667688,-1.2271845 -0.3535637,-1.2246461 -0.3399772,-1.2234626 -0.3399772,-1.2234626 -0.327463,-1.2245286 -0.3153366,-1.2269058 -0.3038594,-1.2314795 -0.2927739,-1.237378 -0.2927739,-1.237378 -0.2822749,-1.2459808 -0.2729264,-1.2555405 -0.2654066,-1.2666213 -0.2589403,-1.2785785 -0.2589403,-1.2785785 -0.2538166,-1.2626966 -0.2506933,-1.2551062 -0.2468961,-1.2479363 -0.2422521,-1.2412951 -0.2368904,-1.235102 -0.2249704,-1.2234626 -0.2249704,-1.2234626 -0.2100154,-1.2147931 -0.2023297,-1.2111228 -0.1943945,-1.2082492 -0.1861708,-1.2062965 -0.1777202,-1.2050678 -0.1604411,-1.2038173 -0.1604411,-1.2038173 -0.1354278,-1.2068257 -0.1234009,-1.2094466 -0.1119496,-1.2134077 -0.1012005,-1.2190031 -0.0910245,-1.2259329 -0.0716279,-1.2420165 -0.0716279,-1.2420165 -0.0558531,-1.2636061 -0.0491264,-1.2748462 -0.0437925,-1.2866204 -0.0401088,-1.2990276 -0.0377418,-1.3119397 -0.0352023,-1.3386058 -0.0352023,-1.3386058 -0.0373503,-1.3625519 -0.0393734,-1.3741778 -0.0425353,-1.385387 -0.0471293,-1.3960723 -0.052938,-1.4063134 -0.0665802,-1.4260547 -0.0665802,-1.4260547 -0.0842346,-1.4414035 -0.0935239,-1.4481404 -0.1033677,-1.4537522 -0.1138754,-1.4580165 -0.124917,-1.4611976 -0.1478899,-1.4657545 -0.1544383,-1.4166413z" transform="matrix(1,0,0,-1,3.529262,3.65)" fill="rgb(116,116,116)" fill-rule="nonzero" shaper:cutDepth="0.05cm" stroke-linecap="round" stroke-linejoin="round" /><path d="M2.4795702,0.9408985 L2.4795702,0.9408985 2.4953284,0.9442575 2.5029488,0.946468 2.5102586,0.9493157 2.5171661,0.9529892 2.5237093,0.95741 2.5361869,0.9675016 2.5361869,0.9675016 2.5442778,0.9788158 2.5477471,0.9846916 2.550525,0.9908296 2.5524685,0.9972842 2.5537372,1.0039948 2.55515,1.0178426 2.55515,1.0178426 2.5530086,1.0348654 2.5511596,1.0430315 2.5483769,1.0507833 2.5444605,1.058032 2.5396225,1.0648718 2.5284106,1.0778699 2.5284106,1.0778699 2.5123798,1.0887709 2.5040616,1.0933754 2.4953803,1.0969657 2.4862828,1.0993932 2.4768594,1.1009102 2.4574692,1.1024265 2.4574692,1.1024265 2.4392361,1.1010102 2.4303905,1.0995688 2.4218702,1.0972474 2.4137667,1.0937985 2.4060295,1.0893586 2.3911664,1.0788249 2.3911664,1.0788249 2.3805925,1.0651813 2.3760929,1.0580436 2.3725377,1.050527 2.3700941,1.0425645 2.3685332,1.0342477 2.3668826,1.017024 2.3668826,1.017024 2.3676578,1.0058262 2.3694643,0.9948908 2.3730247,0.9844018 2.3776602,0.9741864 2.3776602,0.9741864 2.3833698,0.9654823 2.3897691,0.9574241 2.3973398,0.9504627 2.4056275,0.9441728 2.3996248,0.8980609 2.1941677,0.9368058 2.1941677,1.1357144 2.2410982,1.1357144 2.2410982,0.9760964 2.3486016,0.9545411 2.3486016,0.9545411 2.33828,0.9721119 2.3337954,0.9811185 2.3301221,0.9903907 2.3274656,0.9999958 2.3256669,1.0098815 2.3234992,1.0301209 2.3234992,1.0301209 2.3262605,1.054823 2.3287116,1.0667329 2.3324472,1.0781133 2.3377633,1.0888423 2.3443815,1.0990346 2.3597885,1.1185247 2.3597885,1.1185247 2.3805105,1.1341583 2.3913262,1.1408189 2.4026872,1.1460925 2.4146926,1.1497271 2.4272112,1.1520568 2.4531036,1.1545411 2.4531036,1.1545411 2.4784839,1.1522462 2.490852,1.150154 2.5028336,1.1469281 2.5143345,1.1422921 2.5254341,1.1364789 2.5469645,1.1228904 2.5469645,1.1228904 2.5577134,1.111951 2.5678565,1.1007278 2.5767877,1.0889368 2.5839012,1.0762943 2.5888427,1.0626342 2.5920409,1.0481574 2.594077,1.0331361 2.595532,1.0178426 2.595532,1.0178426 2.5935707,0.9935675 2.591653,0.9817606 2.5886109,0.9703504 2.5841403,0.9594443 2.5784366,0.9489732 2.5649726,0.9287567 2.5649726,0.9287567 2.54742,0.9134097 2.5381731,0.9066907 2.5283617,0.9011169 2.5178799,0.8969028 2.5068627,0.893775 2.4839358,0.8893296 2.4795702,0.9408985z" transform="matrix(1,0,0,-1,3.529262,3.65)" fill="rgb(116,116,116)" fill-rule="nonzero" shaper:cutDepth="0.05cm" stroke-linecap="round" stroke-linejoin="round" /><path d="M-1.428994,0.3656901 L-1.428994,0.1921567 -1.4740144,0.1921567 -1.7332232,0.3746942 -1.7332232,0.4148034 -1.4740144,0.4148034 -1.4740144,0.4688279 -1.428994,0.4688279 -1.428994,0.4148034 -1.3332232,0.4148034 -1.3332232,0.3656901 -1.428994,0.3656901z M-1.6543691,0.3656901 L-1.4740144,0.2404514 -1.4740144,0.3656901 -1.6543691,0.3656901z" transform="matrix(1,0,0,-1,3.529262,3.65)" fill="rgb(116,116,116)" fill-rule="nonzero" shaper:cutDepth="0.05cm" stroke-linecap="round" stroke-linejoin="round" /><path d="M0.2683723,1.933854 L0.2683723,1.6694611 0.2683723,1.6694611 0.2596475,1.669716 0.2510305,1.6706119 0.2425939,1.672579 0.2342659,1.675191 0.2342659,1.675191 0.219993,1.6816616 0.206268,1.6890419 0.1934134,1.6978669 0.1810599,1.7075238 0.1810599,1.7075238 0.1649283,1.7226471 0.1493851,1.7383304 0.1347008,1.7548314 0.1204869,1.7717803 0.1204869,1.7717803 0.1009038,1.795381 0.0805454,1.8182203 0.0587139,1.8396136 0.0357666,1.8599113 0.0357666,1.8599113 0.022184,1.8688297 0.0152024,1.8727768 0.0079922,1.8761094 0.000485,1.878643 -0.0072938,1.8804464 -0.0233058,1.8828308 -0.0233058,1.8828308 -0.0371472,1.8812151 -0.0438078,1.8797943 -0.0501561,1.8776378 -0.0561219,1.8745801 -0.0617741,1.8707833 -0.0725554,1.8619577 -0.0725554,1.8619577 -0.0813477,1.8497769 -0.0850795,1.8434355 -0.0880143,1.836793 -0.0900198,1.8297993 -0.0912911,1.8225283 -0.09261,1.8075239 -0.09261,1.8075239 -0.0912413,1.7918107 -0.0899047,1.7842059 -0.0877853,1.776903 -0.0846717,1.7699838 -0.0807005,1.7633955 -0.0713276,1.7507708 -0.0713276,1.7507708 -0.0581743,1.7412242 -0.0513149,1.7371944 -0.0441169,1.7340555 -0.0365348,1.7319269 -0.0286534,1.7305857 -0.0123917,1.7292155 -0.0175759,1.678738 -0.0175759,1.678738 -0.0417723,1.6827843 -0.0534343,1.6857383 -0.0645728,1.6898091 -0.0750388,1.6953149 -0.0849102,1.7020892 -0.1036604,1.7177558 -0.1036604,1.7177558 -0.1169376,1.7384771 -0.1225231,1.7491951 -0.1268471,1.760341 -0.1297455,1.7719705 -0.1315348,1.7839764 -0.1332648,1.8086152 -0.1332648,1.8086152 -0.1313519,1.8336056 -0.1294033,1.8457399 -0.1262643,1.8574411 -0.1215993,1.8685873 -0.115593,1.8792455 -0.1013412,1.8997476 -0.1013412,1.8997476 -0.0840438,1.9139764 -0.07497,1.9200917 -0.065386,1.925008 -0.0551819,1.928467 -0.0444731,1.9307398 -0.0222143,1.9333083 -0.0222143,1.9333083 -0.0100718,1.9325051 0.0018826,1.9307924 0.0135275,1.9275827 0.0249889,1.9234856 0.0249889,1.9234856 0.0381131,1.9167223 0.050708,1.9091552 0.0624952,1.9003616 0.0738293,1.8908799 0.0738293,1.8908799 0.092308,1.8727779 0.1102388,1.8541609 0.1442249,1.8151637 0.1442249,1.8151637 0.1687851,1.7862394 0.194566,1.7584106 0.194566,1.7584106 0.2073264,1.7473452 0.221169,1.7376739 0.221169,1.933854 0.2683723,1.933854z" transform="matrix(1,0,0,-1,3.529262,3.65)" fill="rgb(116,116,116)" fill-rule="nonzero" shaper:cutDepth="0.05cm" stroke-linecap="round" stroke-linejoin="round" /><path d="M0.9292619,-3.146345 L0.9292619,-3.5429344 0.9292619,-3.5429344 0.9161747,-3.5425519 0.9032493,-3.5412082 0.8905944,-3.5382575 0.8781023,-3.5343396 0.8781023,-3.5343396 0.856693,-3.5246335 0.8361056,-3.5135631 0.8168236,-3.5003257 0.7982933,-3.4858402 0.7982933,-3.4858402 0.774096,-3.4631554 0.7507812,-3.4396304 0.7287547,-3.4148788 0.7074338,-3.3894555 0.7074338,-3.3894555 0.6780592,-3.3540545 0.6630084,-3.3367109 0.6475215,-3.3197955 0.6314539,-3.3034501 0.6147743,-3.2877057 0.5803533,-3.2572591 0.5803533,-3.2572591 0.5599795,-3.2438815 0.549507,-3.2379608 0.5386918,-3.2329618 0.5274309,-3.2291615 0.5157628,-3.2264564 0.4917449,-3.2228798 0.4917449,-3.2228798 0.4709827,-3.2253034 0.4609918,-3.2274346 0.4514693,-3.2306693 0.4425206,-3.2352558 0.4340424,-3.2409511 0.4178704,-3.2541895 0.4178704,-3.2541895 0.4046819,-3.2724606 0.3990843,-3.2819728 0.394682,-3.2919366 0.3916738,-3.302427 0.3897669,-3.3133336 0.3877885,-3.3358402 0.3877885,-3.3358402 0.3898415,-3.3594099 0.3918465,-3.3708172 0.3950256,-3.3817714 0.3996959,-3.3921503 0.4056528,-3.4020328 0.4197121,-3.4209698 0.4197121,-3.4209698 0.4394421,-3.4352897 0.4497311,-3.4413343 0.4605281,-3.4460428 0.4719012,-3.4492357 0.4837234,-3.4512475 0.508116,-3.4533027 0.5003397,-3.529019 0.5003397,-3.529019 0.4820615,-3.5262635 0.464045,-3.5229495 0.446552,-3.5185187 0.4298443,-3.5124124 0.4218653,-3.5085593 0.4141453,-3.5041536 0.3993382,-3.4939922 0.3851266,-3.48256 0.3712128,-3.4704924 0.3712128,-3.4704924 0.360939,-3.4550585 0.3512971,-3.4394103 0.3429189,-3.4233334 0.3364328,-3.4066145 0.3320852,-3.3891702 0.3294012,-3.3711614 0.3268063,-3.3342031 0.3268063,-3.3342031 0.3279433,-3.3153521 0.3296757,-3.2967176 0.3325985,-3.2785161 0.3373071,-3.2609643 0.3405134,-3.2524983 0.3443045,-3.244245 0.3533141,-3.2282577 0.363667,-3.212759 0.3746917,-3.1975046 0.3746917,-3.1975046 0.3875372,-3.1865333 0.4006378,-3.1761614 0.4142485,-3.1669885 0.4286245,-3.159614 0.4439306,-3.1544255 0.4599938,-3.1510164 0.4765617,-3.1487934 0.493382,-3.1471636 0.493382,-3.1471636 0.5115958,-3.1483684 0.5295274,-3.1509375 0.5469948,-3.155752 0.5641869,-3.1618975 0.5641869,-3.1618975 0.5838732,-3.1720426 0.6027655,-3.1833932 0.6204463,-3.1965836 0.6374475,-3.2108061 0.6374475,-3.2108061 0.6651655,-3.2379591 0.6920618,-3.2658846 0.7178464,-3.2948552 0.7430409,-3.3243805 0.7430409,-3.3243805 0.7798813,-3.3677668 0.7989873,-3.3888445 0.8185525,-3.4095101 0.8185525,-3.4095101 0.8376931,-3.4261082 0.858457,-3.4406151 0.858457,-3.146345 0.9292619,-3.146345z" transform="matrix(1,0,0,-1,3.529262,3.65)" fill="rgb(116,116,116)" fill-rule="nonzero" shaper:cutDepth="0.05cm" stroke-linecap="round" stroke-linejoin="round" /><path d="M0.7839686,-2.9854991 L0.7839686,-2.9854991 0.8040713,-2.9809137 0.8138065,-2.9779847 0.8231623,-2.9742922 0.832021,-2.9695993 0.8404125,-2.963966 0.8564106,-2.9511199 0.8564106,-2.9511199 0.8662993,-2.9363643 0.8704931,-2.9287199 0.8737869,-2.920756 0.8760338,-2.9124203 0.8774549,-2.9037914 0.8789209,-2.8860449 0.8789209,-2.8860449 0.8778612,-2.8704046 0.8752946,-2.8551654 0.8730177,-2.8478103 0.8701368,-2.8406159 0.8633683,-2.8264951 0.8633683,-2.8264951 0.8546845,-2.8143251 0.8450679,-2.8030772 0.8339075,-2.7933558 0.8218267,-2.7845442 0.8218267,-2.7845442 0.8050444,-2.7757731 0.7878115,-2.7681297 0.7699088,-2.7621629 0.7516357,-2.7571226 0.7516357,-2.7571226 0.7293596,-2.7524541 0.7069556,-2.7488263 0.6843389,-2.7469305 0.6615948,-2.7460722 0.6615948,-2.7460722 0.6468608,-2.7464814 0.6468608,-2.7464814 0.663735,-2.7591044 0.6717237,-2.7658416 0.6791744,-2.7730895 0.6859782,-2.7809518 0.6922603,-2.7893093 0.7039549,-2.8068498 0.7039549,-2.8068498 0.713219,-2.8265665 0.7172036,-2.8365961 0.7204111,-2.8468314 0.7226721,-2.8573173 0.7241608,-2.8680074 0.7258513,-2.8897284 0.7258513,-2.8897284 0.7240513,-2.9076073 0.7216186,-2.9252153 0.7179207,-2.9422812 0.7153996,-2.9505262 0.7123249,-2.9585341 0.7086444,-2.9662825 0.7044112,-2.9737941 0.6946025,-2.9882423 0.6835305,-3.0021493 0.6718267,-3.0157857 0.6718267,-3.0157857 0.6559859,-3.0274985 0.6398861,-3.0385162 0.6232682,-3.0481439 0.614684,-3.0522192 0.6058737,-3.0556878 0.5875802,-3.0608192 0.5685793,-3.0640523 0.5491067,-3.0660198 0.5293983,-3.0673546 0.5293983,-3.0673546 0.5090255,-3.0659525 0.4889012,-3.0638908 0.4692741,-3.0605096 0.4597246,-3.058118 0.4503927,-3.0551492 0.4413066,-3.051528 0.4324583,-3.0472754 0.4153408,-3.0372337 0.3987681,-3.0257457 0.3824679,-3.0135347 0.3824679,-3.0135347 0.3702468,-2.9988668 0.3587037,-2.983917 0.3485162,-2.9684033 0.3441428,-2.9603468 0.3403625,-2.9520437 0.3372227,-2.9434741 0.3346611,-2.934664 0.3309417,-2.91646 0.3285436,-2.8977064 0.3268063,-2.8786779 0.3268063,-2.8786779 0.3292389,-2.8503151 0.3313813,-2.8364068 0.3346352,-2.8228264 0.3392517,-2.809648 0.3449867,-2.7967994 0.3583205,-2.771652 0.3583205,-2.771652 0.3769151,-2.748558 0.3868835,-2.7378231 0.397657,-2.7280626 0.4093883,-2.719461 0.4218856,-2.7117863 0.4481569,-2.6979821 0.4481569,-2.6979821 0.4894118,-2.6858492 0.5102212,-2.6808989 0.5312452,-2.6772656 0.5524873,-2.6749709 0.5738944,-2.6736886 0.6169836,-2.6728116 0.6169836,-2.6728116 0.6635297,-2.6738726 0.686683,-2.6752213 0.7096925,-2.6775519 0.7325133,-2.6811724 0.7551546,-2.6860193 0.800135,-2.6977775 0.800135,-2.6977775 0.8299457,-2.7110204 0.8442122,-2.7185207 0.8577122,-2.7270756 0.8702379,-2.7369708 0.8819221,-2.7480239 0.9038867,-2.7720612 0.9038867,-2.7720612 0.9192357,-2.7989545 0.9257922,-2.81275 0.9310072,-2.8269641 0.9346232,-2.8416773 0.9369583,-2.8567901 0.9394938,-2.887682 0.9394938,-2.887682 0.9369931,-2.9189763 0.9345435,-2.9342041 0.9306548,-2.9489286 0.9249371,-2.9630135 0.9176392,-2.9765458 0.9004079,-3.0026888 0.9004079,-3.0026888 0.8765206,-3.0232661 0.8639417,-3.0322837 0.8506011,-3.0397774 0.8363833,-3.045516 0.821477,-3.0498773 0.790517,-3.0563041 0.7839686,-2.9854991z M0.4250327,-2.7884324 L0.4250327,-2.7884324 0.4095551,-2.8059426 0.4028552,-2.8151695 0.397402,-2.8249625 0.393496,-2.835458 0.3908779,-2.8465383 0.3877885,-2.8696738 0.3877885,-2.8696738 0.3912532,-2.8940864 0.3941278,-2.9057657 0.3983727,-2.9168127 0.4042419,-2.9271104 0.4114071,-2.93681 0.4278976,-2.9552127 0.4278976,-2.9552127 0.4513921,-2.9712448 0.4635793,-2.9780392 0.4762944,-2.9833684 0.4896216,-2.9869979 0.5034312,-2.9892886 0.531854,-2.9916383 0.531854,-2.9916383 0.5575475,-2.9893428 0.5699937,-2.987142 0.5819591,-2.9836776 0.5933169,-2.9786159 0.6041549,-2.972188 0.6249645,-2.9570544 0.6249645,-2.9570544 0.6401487,-2.9383443 0.6466744,-2.9285403 0.6519205,-2.9181976 0.6556113,-2.9072 0.6580362,-2.8956695 0.6607763,-2.8717202 0.6607763,-2.8717202 0.6581303,-2.8479849 0.6557432,-2.8365742 0.6520791,-2.825712 0.6468332,-2.8155291 0.6402735,-2.8059105 0.6249645,-2.7876137 0.6249645,-2.7876137 0.6024642,-2.7727256 0.590797,-2.7664814 0.5786306,-2.7616732 0.5659061,-2.7584706 0.5527492,-2.7565117 0.5257149,-2.7546669 0.5257149,-2.7546669 0.4982908,-2.7566515 0.4849463,-2.7586969 0.4720429,-2.762006 0.459706,-2.7669383 0.4478697,-2.7733048 0.4250327,-2.7884324z" transform="matrix(1,0,0,-1,3.529262,3.65)" fill="rgb(116,116,116)" fill-rule="nonzero" shaper:cutDepth="0.05cm" stroke-linecap="round" stroke-linejoin="round" /><path d="M-2.1707381,2 L-0.870738,2 -0.870738,2.7500001 -2.1707381,2.7500001 A0.3,0.3 90 0,1 -2.4707381,2.4500001 L-2.4707381,2.3 A0.3,0.3 180 0,1 -2.1707381,2z" transform="matrix(1,0,0,-1,3.529262,3.65)" fill="rgb(255,255,255)" stroke="rgb(0,0,0)" stroke-width="0.0010cm" stroke-linecap="round" stroke-linejoin="round" shaper:cutDepth="0.3cm" /><path d="M-1.520738,-3.25 a0.15,0.15 0 1,1 0.3,0 a0.15,0.15 0 1,1 -0.3,0z" transform="matrix(1,0,0,-1,3.529262,3.65)" fill="rgb(255,255,255)" stroke="rgb(0,0,0)" stroke-width="0.0010cm" stroke-linecap="round" stroke-linejoin="round" shaper:cutDepth="0.3cm" /><path d="M2.979262,3.25 a0.15,0.15 0 1,1 0.3,0 a0.15,0.15 0 1,1 -0.3,0z" transform="matrix(1,0,0,-1,3.529262,3.65)" fill="rgb(255,255,255)" stroke="rgb(0,0,0)" stroke-width="0.0010cm" stroke-linecap="round" stroke-linejoin="round" shaper:cutDepth="0.3cm" /><path d="M-1.520738,3.25 a0.15,0.15 0 1,1 0.3,0 a0.15,0.15 0 1,1 -0.3,0z" transform="matrix(1,0,0,-1,3.529262,3.65)" fill="rgb(255,255,255)" stroke="rgb(0,0,0)" stroke-width="0.0010cm" stroke-linecap="round" stroke-linejoin="round" shaper:cutDepth="0.3cm" /><path d="M2.979262,-3.25 a0.15,0.15 0 1,1 0.3,0 a0.15,0.15 0 1,1 -0.3,0z" transform="matrix(1,0,0,-1,3.529262,3.65)" fill="rgb(255,255,255)" stroke="rgb(0,0,0)" stroke-width="0.0010cm" stroke-linecap="round" stroke-linejoin="round" shaper:cutDepth="0.3cm" /><path d="M-2.5342727,1.25 L-2.5342727,-1.25 -2.2342727,-1.25 -2.2342727,1.25 -2.5342727,1.25z" transform="matrix(1,0,0,-1,3.529262,3.65)" fill="rgb(255,255,255)" stroke="rgb(0,0,0)" stroke-width="0.0010cm" stroke-linecap="round" stroke-linejoin="round" shaper:cutDepth="0.3cm" /><path d="M-0.6422964,-1.6741447 a0.15,0.15 0 1,1 0.3,0 a0.15,0.15 0 1,1 -0.3,0z" transform="matrix(1,0,0,-1,3.529262,3.65)" fill="rgb(255,255,255)" stroke="rgb(0,0,0)" stroke-width="0.0010cm" stroke-linecap="round" stroke-linejoin="round" shaper:cutDepth="0.3cm" /><path d="M1.9914392,0.682713 a0.15,0.15 0 1,1 0.3,0 a0.15,0.15 0 1,1 -0.3,0z" transform="matrix(1,0,0,-1,3.529262,3.65)" fill="rgb(255,255,255)" stroke="rgb(0,0,0)" stroke-width="0.0010cm" stroke-linecap="round" stroke-linejoin="round" shaper:cutDepth="0.3cm" /><path d="M-1.9332232,-0.0006809 a0.15,0.15 0 1,1 0.3,0 a0.15,0.15 0 1,1 -0.3,0z" transform="matrix(1,0,0,-1,3.529262,3.65)" fill="rgb(255,255,255)" stroke="rgb(0,0,0)" stroke-width="0.0010cm" stroke-linecap="round" stroke-linejoin="round" shaper:cutDepth="0.3cm" /><path d="M-0.3316277,1.465573 a0.15,0.15 0 1,1 0.3,0 a0.15,0.15 0 1,1 -0.3,0z" transform="matrix(1,0,0,-1,3.529262,3.65)" fill="rgb(255,255,255)" stroke="rgb(0,0,0)" stroke-width="0.0010cm" stroke-linecap="round" stroke-linejoin="round" shaper:cutDepth="0.3cm" /><path d="M1.4085909,-1.8914515 a0.15,0.15 0 1,1 0.3,0 a0.15,0.15 0 1,1 -0.3,0z" transform="matrix(1,0,0,-1,3.529262,3.65)" fill="rgb(255,255,255)" stroke="rgb(0,0,0)" stroke-width="0.0010cm" stroke-linecap="round" stroke-linejoin="round" shaper:cutDepth="0.3cm" /></svg>