<?xml version="1.0" encoding="utf-8"?>
<!-- Generator: Fusion 360, Shaper Origin Export Add-In, Version 1.7.0  -->
<svg xmlns="http://www.w3.org/2000/svg" xmlns:xlink="http://www.w3.org/1999/xlink" xmlns:shaper="http://www.shapertools.com/namespaces/shaper" shaper:fusionaddin="version:1.7.0" width="7.058524cm" height="7.3cm" version="1.1" x="0cm" y="0cm" viewBox="0 0 7.058524 7.3" enable-background="new 0 0 7.058524 7.3" xml:space="preserve"><path d="M-3.529262,-2.0046781 L-1.8572407,-3.5690658 A0.3,0.3 226.9047902 0,1 -1.6522768,-3.65 L3.229262,-3.65 A0.3,0.3 270 0,1 3.529262,-3.35 L3.529262,-2.7885309 3.229262,-2.7885309 3.229262,-0.7885309 3.529262,-0.7885309 3.529262,3.35 A0.3,0.3 0 0,1 3.229262,3.65 L-1.6522768,3.65 A0.3,0.3 90 0,1 -1.8572407,3.5690658 L-3.529262,2.0046781 -3.529262,1.65 -3.2342727,1.65 -3.2342727,-1.65 -3.529262,-1.65 -3.529262,-2.0046781z" transform="matrix(1,0,0,-1,3.529262,3.65)" fill="rgb(0,0,0)" shaper:cutDepth="0.3cm" stroke-linecap="round" stroke-linejoin="round" /><path d="M-1.1156396,0.6178434 L-1.1156396,0.6178434 -1.0998814,0.6212024 -1.092261,0.6234129 -1.0849511,0.6262605 -1.0780437,0.6299341 -1.0715004,0.6343549 -1.0590229,0.6444464 -1.0590229,0.6444464 -1.0509319,0.6557607 -1.0474626,0.6616365 -1.0446848,0.6677745 -1.0427412,0.6742291 -1.0414725,0.6809397 -1.0400598,0.6947875 -1.0400598,0.6947875 -1.0422012,0.7118103 -1.0440501,0.7199764 -1.0468329,0.7277282 -1.0507493,0.7349769 -1.0555873,0.7418167 -1.0667992,0.7548148 -1.0667992,0.7548148 -1.08283,0.7657158 -1.0911482,0.7703203 -1.0998295,0.7739106 -1.108927,0.7763381 -1.1183504,0.777855 -1.1377405,0.7793714 -1.1377405,0.7793714 -1.1559737,0.7779551 -1.1648192,0.7765137 -1.1733395,0.7741923 -1.181443,0.7707434 -1.1891803,0.7663035 -1.2040434,0.7557697 -1.2040434,0.7557697 -1.2146173,0.7421262 -1.2191169,0.7349885 -1.222672,0.7274719 -1.2251157,0.7195094 -1.2266766,0.7111926 -1.2283272,0.6939689 -1.2283272,0.6939689 -1.227552,0.6827711 -1.2257454,0.6718357 -1.2221851,0.6613467 -1.2175495,0.6511313 -1.2175495,0.6511313 -1.21184,0.6424272 -1.2054407,0.634369 -1.19787,0.6274076 -1.1895823,0.6211177 -1.195585,0.5750058 -1.401042,0.6137507 -1.401042,0.8126593 -1.3541116,0.8126593 -1.3541116,0.6530413 -1.2466082,0.631486 -1.2466082,0.631486 -1.2569298,0.6490568 -1.2614144,0.6580634 -1.2650877,0.6673356 -1.2677441,0.6769406 -1.2695429,0.6868264 -1.2717105,0.7070658 -1.2717105,0.7070658 -1.2689492,0.7317679 -1.2664982,0.7436778 -1.2627626,0.7550582 -1.2574465,0.7657872 -1.2508282,0.7759795 -1.2354213,0.7954696 -1.2354213,0.7954696 -1.2146992,0.8111032 -1.2038836,0.8177638 -1.1925226,0.8230374 -1.1805171,0.826672 -1.1679985,0.8290017 -1.1421062,0.831486 -1.1421062,0.831486 -1.1167259,0.8291911 -1.1043578,0.8270989 -1.0923762,0.823873 -1.0808753,0.819237 -1.0697757,0.8134238 -1.0482453,0.7998353 -1.0482453,0.7998353 -1.0374963,0.7888959 -1.0273533,0.7776727 -1.0184221,0.7658817 -1.0113085,0.7532392 -1.0063671,0.7395791 -1.0031689,0.7251023 -1.0011328,0.710081 -0.9996778,0.6947875 -0.9996778,0.6947875 -1.0016391,0.6705124 -1.0035568,0.6587055 -1.0065989,0.6472953 -1.0110695,0.6363892 -1.0167732,0.6259181 -1.0302371,0.6057016 -1.0302371,0.6057016 -1.0477898,0.5903546 -1.0570367,0.5836356 -1.0668481,0.5780618 -1.0773298,0.5738477 -1.088347,0.5707199 -1.1112739,0.5662745 -1.1156396,0.6178434z" transform="matrix(1,0,0,-1,3.529262,3.65)" fill="rgb(116,116,116)" fill-rule="nonzero" shaper:cutDepth="0.05cm" stroke-linecap="round" stroke-linejoin="round" /><path d="M2.198062,2.0826099 L2.198062,2.0826099 2.2138202,2.0859689 2.2214405,2.0881793 2.2287504,2.091027 2.2356578,2.0947005 2.2422011,2.0991214 2.2546786,2.1092129 2.2546786,2.1092129 2.2627696,2.1205272 2.2662389,2.1264029 2.2690168,2.132541 2.2709603,2.1389955 2.272229,2.1457061 2.2736418,2.159554 2.2736418,2.159554 2.2715003,2.1765768 2.2696514,2.1847429 2.2668686,2.1924946 2.2629522,2.1997433 2.2581143,2.2065832 2.2469023,2.2195812 2.2469023,2.2195812 2.2308716,2.2304823 2.2225534,2.2350868 2.2138721,2.238677 2.2047746,2.2411045 2.1953511,2.2426215 2.175961,2.2441379 2.175961,2.2441379 2.1577279,2.2427216 2.1488823,2.2412801 2.140362,2.2389588 2.1322585,2.2355098 2.1245213,2.2310699 2.1096581,2.2205362 2.1096581,2.2205362 2.0990843,2.2068926 2.0945846,2.199755 2.0910295,2.1922383 2.0885858,2.1842758 2.0870249,2.1759591 2.0853744,2.1587354 2.0853744,2.1587354 2.0861495,2.1475375 2.0879561,2.1366022 2.0915164,2.1261131 2.096152,2.1158977 2.096152,2.1158977 2.1018616,2.1071937 2.1082609,2.0991355 2.1158315,2.0921741 2.1241193,2.0858841 2.1181166,2.0397722 1.9126595,2.0785171 1.9126595,2.2774257 1.9595899,2.2774257 1.9595899,2.1178077 2.0670933,2.0962525 2.0670933,2.0962525 2.0567718,2.1138232 2.0522871,2.1228299 2.0486139,2.1321021 2.0459574,2.1417071 2.0441587,2.1515928 2.041991,2.1718323 2.041991,2.1718323 2.0447523,2.1965344 2.0472034,2.2084442 2.050939,2.2198247 2.056255,2.2305537 2.0628733,2.240746 2.0782802,2.2602361 2.0782802,2.2602361 2.0990023,2.2758696 2.1098179,2.2825303 2.121179,2.2878038 2.1331844,2.2914385 2.145703,2.2937681 2.1715954,2.2962525 2.1715954,2.2962525 2.1969757,2.2939576 2.2093437,2.2918654 2.2213253,2.2886395 2.2328263,2.2840035 2.2439259,2.2781903 2.2654562,2.2646017 2.2654562,2.2646017 2.2762052,2.2536623 2.2863482,2.2424391 2.2952795,2.2306481 2.302393,2.2180056 2.3073345,2.2043455 2.3105327,2.1898687 2.3125688,2.1748475 2.3140238,2.159554 2.3140238,2.159554 2.3120625,2.1352789 2.3101448,2.1234719 2.3071027,2.1120618 2.302632,2.1011556 2.2969283,2.0906845 2.2834644,2.070468 2.2834644,2.070468 2.2659117,2.0551211 2.2566649,2.0484021 2.2468534,2.0428283 2.2363717,2.0386142 2.2253545,2.0354863 2.2024276,2.031041 2.198062,2.0826099z" transform="matrix(1,0,0,-1,3.529262,3.65)" fill="rgb(116,116,116)" fill-rule="nonzero" shaper:cutDepth="0.05cm" stroke-linecap="round" stroke-linejoin="round" /><path d="M0.315457,-1.6348213 L0.315457,-1.6348213 0.3312152,-1.6314623 0.3388355,-1.6292518 0.3461454,-1.6264042 0.3530528,-1.6227306 0.3595961,-1.6183098 0.3720736,-1.6082183 0.3720736,-1.6082183 0.3801646,-1.596904 0.3836339,-1.5910282 0.3864118,-1.5848902 0.3883553,-1.5784356 0.389624,-1.571725 0.3910368,-1.5578772 0.3910368,-1.5578772 0.3888953,-1.5408544 0.3870464,-1.5326883 0.3842637,-1.5249365 0.3803472,-1.5176878 0.3755093,-1.510848 0.3642974,-1.4978499 0.3642974,-1.4978499 0.3482666,-1.4869489 0.3399484,-1.4823444 0.3312671,-1.4787541 0.3221696,-1.4763266 0.3127461,-1.4748097 0.293356,-1.4732933 0.293356,-1.4732933 0.2751229,-1.4747096 0.2662773,-1.476151 0.257757,-1.4784724 0.2496535,-1.4819213 0.2419163,-1.4863612 0.2270532,-1.496895 0.2270532,-1.496895 0.2164793,-1.5105385 0.2119796,-1.5176762 0.2084245,-1.5251928 0.2059809,-1.5331554 0.2044199,-1.5414721 0.2027694,-1.5586958 0.2027694,-1.5586958 0.2035445,-1.5698936 0.2053511,-1.580829 0.2089115,-1.591318 0.213547,-1.6015334 0.213547,-1.6015334 0.2192566,-1.6102375 0.2256559,-1.6182957 0.2332266,-1.6252571 0.2415143,-1.631547 0.2355116,-1.6776589 0.0300545,-1.6389141 0.0300545,-1.4400055 0.0769849,-1.4400055 0.0769849,-1.5996234 0.1844883,-1.6211787 0.1844883,-1.6211787 0.1741668,-1.603608 0.1696822,-1.5946013 0.1660089,-1.5853291 0.1633524,-1.5757241 0.1615537,-1.5658383 0.159386,-1.5455989 0.159386,-1.5455989 0.1621473,-1.5208968 0.1645984,-1.5089869 0.168334,-1.4976065 0.1736501,-1.4868775 0.1802683,-1.4766852 0.1956752,-1.4571951 0.1956752,-1.4571951 0.2163973,-1.4415615 0.2272129,-1.4349009 0.238574,-1.4296274 0.2505794,-1.4259927 0.263098,-1.423663 0.2889904,-1.4211787 0.2889904,-1.4211787 0.3143707,-1.4234736 0.3267388,-1.4255658 0.3387204,-1.4287917 0.3502213,-1.4334277 0.3613209,-1.4392409 0.3828512,-1.4528295 0.3828512,-1.4528295 0.3936002,-1.4637688 0.4037433,-1.474992 0.4126745,-1.486783 0.419788,-1.4994255 0.4247295,-1.5130856 0.4279277,-1.5275624 0.4299638,-1.5425837 0.4314188,-1.5578772 0.4314188,-1.5578772 0.4294575,-1.5821523 0.4275398,-1.5939592 0.4244977,-1.6053694 0.420027,-1.6162755 0.4143233,-1.6267466 0.4008594,-1.6469632 0.4008594,-1.6469632 0.3833067,-1.6623101 0.3740599,-1.6690291 0.3642485,-1.6746029 0.3537667,-1.678817 0.3427495,-1.6819448 0.3198226,-1.6863902 0.315457,-1.6348213z" transform="matrix(1,0,0,-1,3.529262,3.65)" fill="rgb(116,116,116)" fill-rule="nonzero" shaper:cutDepth="0.05cm" stroke-linecap="round" stroke-linejoin="round" /><path d="M2.3112898,-2.0874536 L2.3112898,-2.0874536 2.3270481,-2.0840946 2.3346684,-2.0818841 2.3419783,-2.0790365 2.3488857,-2.0753629 2.355429,-2.0709421 2.3679065,-2.0608506 2.3679065,-2.0608506 2.3759975,-2.0495363 2.3794668,-2.0436605 2.3822447,-2.0375225 2.3841882,-2.0310679 2.3854569,-2.0243573 2.3868697,-2.0105095 2.3868697,-2.0105095 2.3847282,-1.9934867 2.3828793,-1.9853206 2.3800965,-1.9775688 2.3761801,-1.9703201 2.3713421,-1.9634803 2.3601302,-1.9504822 2.3601302,-1.9504822 2.3440995,-1.9395812 2.3357812,-1.9349767 2.3271,-1.9313864 2.3180025,-1.9289589 2.308579,-1.927442 2.2891889,-1.9259256 2.2891889,-1.9259256 2.2709557,-1.9273419 2.2621102,-1.9287833 2.2535899,-1.9311047 2.2454864,-1.9345536 2.2377492,-1.9389935 2.222886,-1.9495273 2.222886,-1.9495273 2.2123122,-1.9631708 2.2078125,-1.9703085 2.2042574,-1.9778251 2.2018137,-1.9857877 2.2002528,-1.9941044 2.1986023,-2.0113281 2.1986023,-2.0113281 2.1993774,-2.0225259 2.201184,-2.0334613 2.2047443,-2.0439503 2.2093799,-2.0541657 2.2093799,-2.0541657 2.2150894,-2.0628698 2.2214888,-2.070928 2.2290594,-2.0778894 2.2373472,-2.0841793 2.2313444,-2.1302912 2.0258874,-2.0915464 2.0258874,-1.8926378 2.0728178,-1.8926378 2.0728178,-2.0522557 2.1803212,-2.073811 2.1803212,-2.073811 2.1699997,-2.0562403 2.165515,-2.0472336 2.1618418,-2.0379614 2.1591853,-2.0283564 2.1573866,-2.0184706 2.1552189,-1.9982312 2.1552189,-1.9982312 2.1579802,-1.9735291 2.1604313,-1.9616192 2.1641669,-1.9502388 2.1694829,-1.9395098 2.1761012,-1.9293175 2.1915081,-1.9098274 2.1915081,-1.9098274 2.2122302,-1.8941938 2.2230458,-1.8875332 2.2344068,-1.8822597 2.2464123,-1.878625 2.2589309,-1.8762953 2.2848233,-1.873811 2.2848233,-1.873811 2.3102035,-1.8761059 2.3225716,-1.8781981 2.3345532,-1.881424 2.3460541,-1.88606 2.3571537,-1.8918732 2.3786841,-1.9054618 2.3786841,-1.9054618 2.3894331,-1.9164011 2.3995761,-1.9276243 2.4085073,-1.9394153 2.4156209,-1.9520578 2.4205623,-1.9657179 2.4237606,-1.9801947 2.4257966,-1.995216 2.4272516,-2.0105095 2.4272516,-2.0105095 2.4252903,-2.0347846 2.4233727,-2.0465915 2.4203305,-2.0580017 2.4158599,-2.0689078 2.4101562,-2.0793789 2.3966923,-2.0995955 2.3966923,-2.0995955 2.3791396,-2.1149424 2.3698927,-2.1216614 2.3600813,-2.1272352 2.3495996,-2.1314493 2.3385824,-2.1345771 2.3156555,-2.1390225 2.3112898,-2.0874536z" transform="matrix(1,0,0,-1,3.529262,3.65)" fill="rgb(116,116,116)" fill-rule="nonzero" shaper:cutDepth="0.05cm" stroke-linecap="round" stroke-linejoin="round" /><path d="M1.4207887,0.4448004 L1.4207887,0.1804075 1.4207887,0.1804075 1.4120639,0.1806625 1.403447,0.1815583 1.3950104,0.1835255 1.3866823,0.1861374 1.3866823,0.1861374 1.3724094,0.1926081 1.3586845,0.1999884 1.3458298,0.2088133 1.3334763,0.2184703 1.3334763,0.2184703 1.3173448,0.2335935 1.3018016,0.2492768 1.2871173,0.2657779 1.2729034,0.2827268 1.2729034,0.2827268 1.2533203,0.3063274 1.2329618,0.3291668 1.2111303,0.35056 1.188183,0.3708577 1.188183,0.3708577 1.1746005,0.3797761 1.1676188,0.3837233 1.1604087,0.3870559 1.1529014,0.3895895 1.1451227,0.3913929 1.1291107,0.3937773 1.1291107,0.3937773 1.1152692,0.3921616 1.1086087,0.3907407 1.1022603,0.3885843 1.0962945,0.3855266 1.0906424,0.3817298 1.079861,0.3729041 1.079861,0.3729041 1.0710687,0.3607234 1.067337,0.3543819 1.0644021,0.3477394 1.0623967,0.3407458 1.0611254,0.3334747 1.0598065,0.3184703 1.0598065,0.3184703 1.0611751,0.3027572 1.0625118,0.2951523 1.0646312,0.2878495 1.0677447,0.2809303 1.071716,0.2743419 1.0810889,0.2617172 1.0810889,0.2617172 1.0942422,0.2521706 1.1011015,0.2481409 1.1082995,0.2450019 1.1158816,0.2428733 1.123763,0.2415321 1.1400248,0.240162 1.1348406,0.1896845 1.1348406,0.1896845 1.1106441,0.1937308 1.0989821,0.1966847 1.0878436,0.2007556 1.0773777,0.2062614 1.0675062,0.2130357 1.048756,0.2287022 1.048756,0.2287022 1.0354788,0.2494236 1.0298934,0.2601415 1.0255694,0.2712874 1.0226709,0.282917 1.0208816,0.2949228 1.0191516,0.3195617 1.0191516,0.3195617 1.0210646,0.3445521 1.0230131,0.3566864 1.0261522,0.3683876 1.0308171,0.3795338 1.0368235,0.390192 1.0510752,0.410694 1.0510752,0.410694 1.0683726,0.4249229 1.0774465,0.4310382 1.0870304,0.4359545 1.0972345,0.4394135 1.1079433,0.4416862 1.1302021,0.4442548 1.1302021,0.4442548 1.1423446,0.4434516 1.1542991,0.4417388 1.165944,0.4385292 1.1774054,0.4344321 1.1774054,0.4344321 1.1905296,0.4276687 1.2031245,0.4201017 1.2149116,0.411308 1.2262458,0.4018264 1.2262458,0.4018264 1.2447244,0.3837243 1.2626553,0.3651074 1.2966414,0.3261101 1.2966414,0.3261101 1.3212016,0.2971859 1.3469825,0.2693571 1.3469825,0.2693571 1.3597429,0.2582917 1.3735855,0.2486204 1.3735855,0.4448004 1.4207887,0.4448004z" transform="matrix(1,0,0,-1,3.529262,3.65)" fill="rgb(116,116,116)" fill-rule="nonzero" shaper:cutDepth="0.05cm" stroke-linecap="round" stroke-linejoin="round" /><path d="M0.7474885,-3.4709656 L0.7474885,-3.4709656 0.7724035,-3.4648663 0.7844895,-3.4610754 0.7961296,-3.4563951 0.8071838,-3.4505459 0.8176802,-3.443584 0.837734,-3.4277869 0.837734,-3.4277869 0.8495772,-3.4110706 0.8546466,-3.4023923 0.8586932,-3.3933297 0.8615127,-3.3838061 0.8633441,-3.3739113 0.8653602,-3.3535031 0.8653602,-3.3535031 0.862616,-3.3289776 0.8601819,-3.3171522 0.8564733,-3.3058517 0.8511972,-3.2951967 0.8446301,-3.2850735 0.8293439,-3.2657132 0.8293439,-3.2657132 0.8096024,-3.2504212 0.7992904,-3.2438662 0.7884489,-3.2386202 0.7769689,-3.2349525 0.7649731,-3.2325603 0.7401215,-3.2299014 0.7401215,-3.2299014 0.7168167,-3.2322626 0.7055634,-3.2344368 0.6947891,-3.2378036 0.6846127,-3.2426589 0.6749379,-3.2487631 0.6564243,-3.2630529 0.6564243,-3.2630529 0.6421933,-3.2817522 0.636119,-3.2915149 0.631294,-3.3017734 0.6279543,-3.3126212 0.6258022,-3.3239403 0.6234776,-3.347364 0.6234776,-3.347364 0.6243757,-3.3605314 0.6259545,-3.3735964 0.6316631,-3.3993421 0.5669973,-3.3911566 0.5669973,-3.3911566 0.5678159,-3.3792876 0.5678159,-3.3792876 0.5659868,-3.3568497 0.564344,-3.3458433 0.5618274,-3.3350919 0.5582301,-3.3246558 0.5537374,-3.3144811 0.5432593,-3.2945672 0.5432593,-3.2945672 0.5279333,-3.2780953 0.5196379,-3.2710982 0.510584,-3.2655872 0.5006428,-3.2618142 0.4899996,-3.2594166 0.467543,-3.2569138 0.467543,-3.2569138 0.448762,-3.2589206 0.4397085,-3.2607407 0.4310594,-3.2635409 0.4229123,-3.2675576 0.4151832,-3.2725874 0.4004217,-3.2843353 0.4004217,-3.2843353 0.3888211,-3.3001362 0.3838872,-3.3083693 0.3799928,-3.3170014 0.3773193,-3.3261023 0.3756144,-3.335575 0.3738186,-3.3551402 0.3738186,-3.3551402 0.3757327,-3.3748978 0.3775004,-3.3844663 0.3802409,-3.3936627 0.384197,-3.4023938 0.3891742,-3.4107342 0.4008309,-3.4267637 0.4008309,-3.4267637 0.4188324,-3.4407496 0.4282456,-3.4468699 0.4381514,-3.4519477 0.4485966,-3.4558844 0.4594565,-3.4589434 0.4818677,-3.4635986 0.4687709,-3.5372685 0.4687709,-3.5372685 0.43632,-3.5287891 0.4207123,-3.523418 0.4058458,-3.5166895 0.3919228,-3.508233 0.378817,-3.4982799 0.3539687,-3.4758769 0.3539687,-3.4758769 0.3362321,-3.4487386 0.3286852,-3.4347083 0.3227234,-3.4201249 0.3186264,-3.4048908 0.3160102,-3.3891401 0.3132456,-3.3567773 0.3132456,-3.3567773 0.3147994,-3.333292 0.3162029,-3.3216965 0.3183584,-3.3102776 0.321446,-3.2990777 0.3253081,-3.2880598 0.3343234,-3.2663272 0.3343234,-3.2663272 0.3456197,-3.2476996 0.3517842,-3.2388585 0.3585682,-3.2305845 0.3661257,-3.2230186 0.3743322,-3.2160469 0.3918268,-3.2030938 0.3918268,-3.2030938 0.4101293,-3.193941 0.4194558,-3.1899871 0.4289927,-3.1867804 0.4387892,-3.1844955 0.4488003,-3.1829728 0.4691801,-3.1811975 0.4691801,-3.1811975 0.4879513,-3.1827965 0.4971552,-3.1842107 0.506141,-3.1863624 0.514859,-3.1894201 0.5233567,-3.193223 0.539985,-3.2020706 0.539985,-3.2020706 0.5557335,-3.2149748 0.5630683,-3.2218755 0.5697563,-3.2293144 0.5756925,-3.2373785 0.581036,-3.2459356 0.5907354,-3.2638714 0.5907354,-3.2638714 0.598421,-3.2400486 0.603106,-3.2286629 0.6088017,-3.2179081 0.6157677,-3.2079463 0.6238104,-3.1986566 0.6416904,-3.1811975 0.6416904,-3.1811975 0.6641229,-3.1681933 0.6756513,-3.1626879 0.6875542,-3.1583774 0.6998898,-3.1554484 0.7125656,-3.1536054 0.7384844,-3.1517296 0.7384844,-3.1517296 0.7573883,-3.1536509 0.7760043,-3.1562422 0.7940446,-3.1601736 0.802759,-3.1628512 0.8112215,-3.1661151 0.8194088,-3.1700198 0.8273453,-3.1745082 0.8426092,-3.1849029 0.8572999,-3.1966321 0.871704,-3.2090284 0.871704,-3.2090284 0.8838833,-3.2250871 0.8953662,-3.2414129 0.9054562,-3.2582729 0.9097612,-3.2669868 0.9134572,-3.2759342 0.916508,-3.2851292 0.9189827,-3.294545 0.9225332,-3.3139133 0.924767,-3.3337866 0.9263425,-3.3539124 0.9263425,-3.3539124 0.9250162,-3.3719761 0.9231204,-3.3898315 0.9200858,-3.4072703 0.915343,-3.4240842 0.9084519,-3.4401122 0.8997389,-3.4554737 0.889811,-3.4703908 0.8792757,-3.4850857 0.8792757,-3.4850857 0.8661734,-3.4968786 0.852794,-3.508109 0.83886,-3.5182143 0.8240944,-3.5266319 0.8083328,-3.5330284 0.7917704,-3.5378001 0.7746742,-3.5414886 0.7573111,-3.5446355 0.7474885,-3.4709656z" transform="matrix(1,0,0,-1,3.529262,3.65)" fill="rgb(116,116,116)" fill-rule="nonzero" shaper:cutDepth="0.05cm" stroke-linecap="round" stroke-linejoin="round" /><path d="M0.7720451,-2.8427255 L0.7720451,-3.1030257 0.7045144,-3.1030257 0.3157013,-2.8292193 0.3157013,-2.7690556 0.7045144,-2.7690556 0.7045144,-2.6880188 0.7720451,-2.6880188 0.7720451,-2.7690556 0.9157013,-2.7690556 0.9157013,-2.8427255 0.7720451,-2.8427255z M0.4339823,-2.8427255 L0.7045144,-3.0305836 0.7045144,-2.8427255 0.4339823,-2.8427255z" transform="matrix(1,0,0,-1,3.529262,3.65)" fill="rgb(116,116,116)" fill-rule="nonzero" shaper:cutDepth="0.05cm" stroke-linecap="round" stroke-linejoin="round" /><path d="M0.8207887,-0.0234806 a0.15,0.15 0 1,1 0.3,0 a0.15,0.15 0 1,1 -0.3,0z" transform="matrix(1,0,0,-1,3.529262,3.65)" fill="rgb(255,255,255)" stroke="rgb(0,0,0)" stroke-width="0.0010cm" stroke-linecap="round" stroke-linejoin="round" shaper:cutDepth="0.3cm" /><path d="M-0.172674,-1.8930068 a0.15,0.15 0 1,1 0.3,0 a0.15,0.15 0 1,1 -0.3,0z" transform="matrix(1,0,0,-1,3.529262,3.65)" fill="rgb(255,255,255)" stroke="rgb(0,0,0)" stroke-width="0.0010cm" stroke-linecap="round" stroke-linejoin="round" shaper:cutDepth="0.3cm" /><path d="M1.8231589,-2.3456391 a0.15,0.15 0 1,1 0.3,0 a0.15,0.15 0 1,1 -0.3,0z" transform="matrix(1,0,0,-1,3.529262,3.65)" fill="rgb(255,255,255)" stroke="rgb(0,0,0)" stroke-width="0.0010cm" stroke-linecap="round" stroke-linejoin="round" shaper:cutDepth="0.3cm" /><path d="M-1.6037706,0.3596579 a0.15,0.15 0 1,1 0.3,0 a0.15,0.15 0 1,1 -0.3,0z" transform="matrix(1,0,0,-1,3.529262,3.65)" fill="rgb(255,255,255)" stroke="rgb(0,0,0)" stroke-width="0.0010cm" stroke-linecap="round" stroke-linejoin="round" shaper:cutDepth="0.3cm" /><path d="M1.709931,1.8244244 a0.15,0.15 0 1,1 0.3,0 a0.15,0.15 0 1,1 -0.3,0z" transform="matrix(1,0,0,-1,3.529262,3.65)" fill="rgb(255,255,255)" stroke="rgb(0,0,0)" stroke-width="0.0010cm" stroke-linecap="round" stroke-linejoin="round" shaper:cutDepth="0.3cm" /><path d="M-2.5342727,1.25 L-2.5342727,-1.25 -2.2342727,-1.25 -2.2342727,1.25 -2.5342727,1.25z" transform="matrix(1,0,0,-1,3.529262,3.65)" fill="rgb(255,255,255)" stroke="rgb(0,0,0)" stroke-width="0.0010cm" stroke-linecap="round" stroke-linejoin="round" shaper:cutDepth="0.3cm" /><path d="M2.979262,-3.25 a0.15,0.15 0 1,1 0.3,0 a0.15,0.15 0 1,1 -0.3,0z" transform="matrix(1,0,0,-1,3.529262,3.65)" fill="rgb(255,255,255)" stroke="rgb(0,0,0)" stroke-width="0.0010cm" stroke-linecap="round" stroke-linejoin="round" shaper:cutDepth="0.3cm" /><path d="M-1.520738,3.25 a0.15,0.15 0 1,1 0.3,0 a0.15,0.15 0 1,1 -0.3,0z" transform="matrix(1,0,0,-1,3.529262,3.65)" fill="rgb(255,255,255)" stroke="rgb(0,0,0)" stroke-width="0.0010cm" stroke-linecap="round" stroke-linejoin="round" shaper:cutDepth="0.3cm" /><path d="M2.979262,3.25 a0.15,0.15 0 1,1 0.3,0 a0.15,0.15 0 1,1 -0.3,0z" transform="matrix(1,0,0,-1,3.529262,3.65)" fill="rgb(255,255,255)" stroke="rgb(0,0,0)" stroke-width="0.0010cm" stroke-linecap="round" stroke-linejoin="round" shaper:cutDepth="0.3cm" /><path d="M-1.520738,-3.25 a0.15,0.15 0 1,1 0.3,0 a0.15,0.15 0 1,1 -0.3,0z" transform="matrix(1,0,0,-1,3.529262,3.65)" fill="rgb(255,255,255)" stroke="rgb(0,0,0)" stroke-width="0.0010cm" stroke-linecap="round" stroke-linejoin="round" shaper:cutDepth="0.3cm" /><path d="M-2.1707381,2 L-0.870738,2 -0.870738,2.7500001 -2.1707381,2.7500001 A0.3,0.3 90 0,1 -2.4707381,2.4500001 L-2.4707381,2.3 A0.3,0.3 180 0,1 -2.1707381,2z" transform="matrix(1,0,0,-1,3.529262,3.65)" fill="rgb(255,255,255)" stroke="rgb(0,0,0)" stroke-width="0.0010cm" stroke-linecap="round" stroke-linejoin="round" shaper:cutDepth="0.3cm" /></svg>