<?xml version="1.0" encoding="utf-8"?>
<!-- Generator: Fusion 360, Shaper Origin Export Add-In, Version 1.7.0  -->
<svg xmlns="http://www.w3.org/2000/svg" xmlns:xlink="http://www.w3.org/1999/xlink" xmlns:shaper="http://www.shapertools.com/namespaces/shaper" shaper:fusionaddin="version:1.7.0" width="7.058524cm" height="7.3cm" version="1.1" x="0cm" y="0cm" viewBox="0 0 7.058524 7.3" enable-background="new 0 0 7.058524 7.3" xml:space="preserve"><path d="M-3.529262,-2.0046781 L-1.8572407,-3.5690658 A0.3,0.3 226.9047902 0,1 -1.6522768,-3.65 L3.229262,-3.65 A0.3,0.3 270 0,1 3.529262,-3.35 L3.529262,-2.7885309 3.229262,-2.7885309 3.229262,-0.7885309 3.529262,-0.7885309 3.529262,3.35 A0.3,0.3 0 0,1 3.229262,3.65 L-1.6522768,3.65 A0.3,0.3 90 0,1 -1.8572407,3.5690658 L-3.529262,2.0046781 -3.529262,1.65 -3.2342727,1.65 -3.2342727,-1.65 -3.529262,-1.65 -3.529262,-2.0046781z" transform="matrix(1,0,0,-1,3.529262,3.65)" fill="rgb(0,0,0)" shaper:cutDepth="0.3cm" stroke-linecap="round" stroke-linejoin="round" /><path d="M2.5803806,1.426111 L2.5803806,1.1617181 2.5803806,1.1617181 2.5716558,1.1619731 2.5630389,1.1628689 2.5546023,1.164836 2.5462742,1.167448 2.5462742,1.167448 2.5320013,1.1739187 2.5182764,1.1812989 2.5054217,1.1901239 2.4930682,1.1997809 2.4930682,1.1997809 2.4769367,1.2149041 2.4613934,1.2305874 2.4467091,1.2470884 2.4324952,1.2640373 2.4324952,1.2640373 2.4129122,1.287638 2.3925537,1.3104774 2.3707222,1.3318706 2.3477749,1.3521683 2.3477749,1.3521683 2.3341924,1.3610867 2.3272107,1.3650338 2.3200005,1.3683665 2.3124933,1.3709 2.3047146,1.3727035 2.2887026,1.3750878 2.2887026,1.3750878 2.2748611,1.3734721 2.2682006,1.3720513 2.2618522,1.3698948 2.2558864,1.3668372 2.2502343,1.3630403 2.2394529,1.3542147 2.2394529,1.3542147 2.2306606,1.3420339 2.2269288,1.3356925 2.223994,1.32905 2.2219885,1.3220564 2.2207173,1.3147853 2.2193983,1.2997809 2.2193983,1.2997809 2.220767,1.2840678 2.2221036,1.2764629 2.224223,1.2691601 2.2273366,1.2622408 2.2313078,1.2556525 2.2406808,1.2430278 2.2406808,1.2430278 2.2538341,1.2334812 2.2606934,1.2294515 2.2678914,1.2263125 2.2754735,1.2241839 2.2833549,1.2228427 2.2996166,1.2214725 2.2944325,1.1709951 2.2944325,1.1709951 2.270236,1.1750414 2.258574,1.1779953 2.2474355,1.1820661 2.2369696,1.187572 2.2270981,1.1943463 2.2083479,1.2100128 2.2083479,1.2100128 2.1950707,1.2307341 2.1894853,1.2414521 2.1851612,1.252598 2.1822628,1.2642276 2.1804735,1.2762334 2.1787435,1.3008723 2.1787435,1.3008723 2.1806564,1.3258626 2.182605,1.3379969 2.1857441,1.3496982 2.190409,1.3608443 2.1964154,1.3715026 2.2106671,1.3920046 2.2106671,1.3920046 2.2279645,1.4062334 2.2370383,1.4123487 2.2466223,1.4172651 2.2568264,1.420724 2.2675352,1.4229968 2.289794,1.4255653 2.289794,1.4255653 2.3019365,1.4247621 2.313891,1.4230494 2.3255359,1.4198397 2.3369973,1.4157427 2.3369973,1.4157427 2.3501214,1.4089793 2.3627164,1.4014122 2.3745035,1.3926186 2.3858376,1.3831369 2.3858376,1.3831369 2.4043163,1.3650349 2.4222472,1.3464179 2.4562333,1.3074207 2.4562333,1.3074207 2.4807935,1.2784965 2.5065743,1.2506676 2.5065743,1.2506676 2.5193347,1.2396022 2.5331774,1.2299309 2.5331774,1.426111 2.5803806,1.426111z" transform="matrix(1,0,0,-1,3.529262,3.65)" fill="rgb(116,116,116)" fill-rule="nonzero" shaper:cutDepth="0.05cm" stroke-linecap="round" stroke-linejoin="round" /><path d="M-0.5309388,-1.8351621 L-0.5309388,-2.0086955 -0.5759593,-2.0086955 -0.835168,-1.826158 -0.835168,-1.7860488 -0.5759593,-1.7860488 -0.5759593,-1.7320243 -0.5309388,-1.7320243 -0.5309388,-1.7860488 -0.435168,-1.7860488 -0.435168,-1.8351621 -0.5309388,-1.8351621z M-0.756314,-1.8351621 L-0.5759593,-1.9604008 -0.5759593,-1.8351621 -0.756314,-1.8351621z" transform="matrix(1,0,0,-1,3.529262,3.65)" fill="rgb(116,116,116)" fill-rule="nonzero" shaper:cutDepth="0.05cm" stroke-linecap="round" stroke-linejoin="round" /><path d="M2.1551594,-2.2615893 L2.1551594,-2.2615893 2.1709176,-2.2582303 2.178538,-2.2560198 2.1858478,-2.2531722 2.1927553,-2.2494986 2.1992986,-2.2450778 2.2117761,-2.2349863 2.2117761,-2.2349863 2.219867,-2.223672 2.2233363,-2.2177963 2.2261142,-2.2116582 2.2280577,-2.2052036 2.2293265,-2.1984931 2.2307392,-2.1846452 2.2307392,-2.1846452 2.2285978,-2.1676224 2.2267488,-2.1594563 2.2239661,-2.1517046 2.2200497,-2.1444558 2.2152117,-2.137616 2.2039998,-2.1246179 2.2039998,-2.1246179 2.187969,-2.1137169 2.1796508,-2.1091124 2.1709695,-2.1055221 2.161872,-2.1030946 2.1524486,-2.1015777 2.1330585,-2.1000613 2.1330585,-2.1000613 2.1148253,-2.1014776 2.1059798,-2.1029191 2.0974595,-2.1052404 2.089356,-2.1086894 2.0816187,-2.1131293 2.0667556,-2.123663 2.0667556,-2.123663 2.0561817,-2.1373066 2.0516821,-2.1444442 2.048127,-2.1519608 2.0456833,-2.1599234 2.0441224,-2.1682401 2.0424718,-2.1854638 2.0424718,-2.1854638 2.043247,-2.1966616 2.0450535,-2.207597 2.0486139,-2.218086 2.0532494,-2.2283014 2.0532494,-2.2283014 2.058959,-2.2370055 2.0653583,-2.2450637 2.072929,-2.2520251 2.0812167,-2.2583151 2.075214,-2.3044269 1.869757,-2.2656821 1.869757,-2.0667735 1.9166874,-2.0667735 1.9166874,-2.2263915 2.0241908,-2.2479467 2.0241908,-2.2479467 2.0138692,-2.230376 2.0093846,-2.2213693 2.0057113,-2.2120971 2.0030549,-2.2024921 2.0012561,-2.1926064 1.9990885,-2.1723669 1.9990885,-2.1723669 2.0018497,-2.1476648 2.0043008,-2.135755 2.0080364,-2.1243745 2.0133525,-2.1136455 2.0199708,-2.1034532 2.0353777,-2.0839631 2.0353777,-2.0839631 2.0560997,-2.0683296 2.0669154,-2.0616689 2.0782764,-2.0563954 2.0902819,-2.0527607 2.1028004,-2.050431 2.1286928,-2.0479467 2.1286928,-2.0479467 2.1540731,-2.0502416 2.1664412,-2.0523338 2.1784228,-2.0555597 2.1899237,-2.0601957 2.2010233,-2.0660089 2.2225537,-2.0795975 2.2225537,-2.0795975 2.2333026,-2.0905368 2.2434457,-2.1017601 2.2523769,-2.113551 2.2594905,-2.1261935 2.2644319,-2.1398537 2.2676301,-2.1543305 2.2696662,-2.1693517 2.2711212,-2.1846452 2.2711212,-2.1846452 2.2691599,-2.2089203 2.2672422,-2.2207272 2.2642001,-2.2321374 2.2597295,-2.2430436 2.2540258,-2.2535146 2.2405618,-2.2737312 2.2405618,-2.2737312 2.2230092,-2.2890781 2.2137623,-2.2957971 2.2039509,-2.3013709 2.1934692,-2.305585 2.1824519,-2.3087129 2.159525,-2.3131582 2.1551594,-2.2615893z" transform="matrix(1,0,0,-1,3.529262,3.65)" fill="rgb(116,116,116)" fill-rule="nonzero" shaper:cutDepth="0.05cm" stroke-linecap="round" stroke-linejoin="round" /><path d="M0.6760122,0.2036332 L0.6760122,0.2036332 0.6917704,0.2069922 0.6993907,0.2092027 0.7067006,0.2120504 0.713608,0.2157239 0.7201513,0.2201447 0.7326288,0.2302363 0.7326288,0.2302363 0.7407198,0.2415505 0.7441891,0.2474263 0.746967,0.2535643 0.7489105,0.2600189 0.7501792,0.2667295 0.751592,0.2805773 0.751592,0.2805773 0.7494505,0.2976001 0.7476016,0.3057662 0.7448189,0.313518 0.7409024,0.3207667 0.7360645,0.3276065 0.7248526,0.3406046 0.7248526,0.3406046 0.7088218,0.3515056 0.7005036,0.3561101 0.6918223,0.3597004 0.6827248,0.3621279 0.6733013,0.3636449 0.6539112,0.3651612 0.6539112,0.3651612 0.6356781,0.3637449 0.6268325,0.3623035 0.6183122,0.3599821 0.6102087,0.3565332 0.6024715,0.3520933 0.5876084,0.3415596 0.5876084,0.3415596 0.5770345,0.327916 0.5725349,0.3207783 0.5689797,0.3132617 0.5665361,0.3052992 0.5649751,0.2969824 0.5633246,0.2797587 0.5633246,0.2797587 0.5640997,0.2685609 0.5659063,0.2576255 0.5694667,0.2471365 0.5741022,0.2369211 0.5741022,0.2369211 0.5798118,0.228217 0.5862111,0.2201588 0.5937818,0.2131974 0.6020695,0.2069075 0.5960668,0.1607956 0.3906097,0.1995405 0.3906097,0.3984491 0.4375401,0.3984491 0.4375401,0.2388311 0.5450436,0.2172758 0.5450436,0.2172758 0.534722,0.2348466 0.5302374,0.2438532 0.5265641,0.2531254 0.5239076,0.2627305 0.5221089,0.2726162 0.5199412,0.2928556 0.5199412,0.2928556 0.5227025,0.3175577 0.5251536,0.3294676 0.5288892,0.340848 0.5342053,0.351577 0.5408235,0.3617693 0.5562304,0.3812594 0.5562304,0.3812594 0.5769525,0.396893 0.5877681,0.4035536 0.5991292,0.4088272 0.6111346,0.4124618 0.6236532,0.4147915 0.6495456,0.4172758 0.6495456,0.4172758 0.6749259,0.4149809 0.687294,0.4128887 0.6992756,0.4096628 0.7107765,0.4050268 0.7218761,0.3992136 0.7434064,0.3856251 0.7434064,0.3856251 0.7541554,0.3746857 0.7642985,0.3634625 0.7732297,0.3516715 0.7803432,0.339029 0.7852847,0.3253689 0.7884829,0.3108921 0.790519,0.2958708 0.791974,0.2805773 0.791974,0.2805773 0.7900127,0.2563022 0.788095,0.2444953 0.7850529,0.2330851 0.7805822,0.222179 0.7748785,0.2117079 0.7614146,0.1914914 0.7614146,0.1914914 0.7438619,0.1761444 0.7346151,0.1694254 0.7248037,0.1638516 0.7143219,0.1596375 0.7033047,0.1565097 0.6803778,0.1520643 0.6760122,0.2036332z" transform="matrix(1,0,0,-1,3.529262,3.65)" fill="rgb(116,116,116)" fill-rule="nonzero" shaper:cutDepth="0.05cm" stroke-linecap="round" stroke-linejoin="round" /><path d="M-1.1613579,1.4655683 L-1.1613579,1.4655683 -1.1455997,1.4689273 -1.1379794,1.4711378 -1.1306695,1.4739854 -1.1237621,1.477659 -1.1172188,1.4820798 -1.1047413,1.4921714 -1.1047413,1.4921714 -1.0966503,1.5034856 -1.093181,1.5093614 -1.0904031,1.5154994 -1.0884596,1.521954 -1.0871909,1.5286646 -1.0857781,1.5425124 -1.0857781,1.5425124 -1.0879196,1.5595352 -1.0897685,1.5677013 -1.0925513,1.5754531 -1.0964677,1.5827018 -1.1013057,1.5895416 -1.1125176,1.6025397 -1.1125176,1.6025397 -1.1285483,1.6134407 -1.1368666,1.6180452 -1.1455478,1.6216355 -1.1546453,1.624063 -1.1640688,1.6255799 -1.1834589,1.6270963 -1.1834589,1.6270963 -1.2016921,1.62568 -1.2105376,1.6242386 -1.2190579,1.6219172 -1.2271614,1.6184683 -1.2348986,1.6140284 -1.2497618,1.6034946 -1.2497618,1.6034946 -1.2603356,1.5898511 -1.2648353,1.5827134 -1.2683904,1.5751968 -1.2708341,1.5672343 -1.272395,1.5589175 -1.2740455,1.5416938 -1.2740455,1.5416938 -1.2732704,1.530496 -1.2714638,1.5195606 -1.2679035,1.5090716 -1.2632679,1.4988562 -1.2632679,1.4988562 -1.2575584,1.4901521 -1.251159,1.4820939 -1.2435884,1.4751325 -1.2353006,1.4688426 -1.2413034,1.4227307 -1.4467604,1.4614756 -1.4467604,1.6603842 -1.39983,1.6603842 -1.39983,1.5007662 -1.2923266,1.4792109 -1.2923266,1.4792109 -1.3026481,1.4967817 -1.3071328,1.5057883 -1.310806,1.5150605 -1.3134625,1.5246655 -1.3152612,1.5345513 -1.3174289,1.5547907 -1.3174289,1.5547907 -1.3146676,1.5794928 -1.3122165,1.5914027 -1.3084809,1.6027831 -1.3031649,1.6135121 -1.2965466,1.6237044 -1.2811397,1.6431945 -1.2811397,1.6431945 -1.2604176,1.6588281 -1.249602,1.6654887 -1.238241,1.6707623 -1.2262355,1.6743969 -1.2137169,1.6767266 -1.1878245,1.6792109 -1.1878245,1.6792109 -1.1624443,1.676916 -1.1500762,1.6748238 -1.1380946,1.6715979 -1.1265937,1.6669619 -1.115494,1.6611487 -1.0939637,1.6475602 -1.0939637,1.6475602 -1.0832147,1.6366208 -1.0730717,1.6253976 -1.0641405,1.6136066 -1.0570269,1.6009641 -1.0520854,1.587304 -1.0488872,1.5728272 -1.0468512,1.5578059 -1.0453962,1.5425124 -1.0453962,1.5425124 -1.0473575,1.5182373 -1.0492751,1.5064304 -1.0523173,1.4950202 -1.0567879,1.4841141 -1.0624916,1.473643 -1.0759555,1.4534265 -1.0759555,1.4534265 -1.0935082,1.4380795 -1.102755,1.4313605 -1.1125665,1.4257867 -1.1230482,1.4215726 -1.1340654,1.4184448 -1.1569923,1.4139994 -1.1613579,1.4655683z" transform="matrix(1,0,0,-1,3.529262,3.65)" fill="rgb(116,116,116)" fill-rule="nonzero" shaper:cutDepth="0.05cm" stroke-linecap="round" stroke-linejoin="round" /><path d="M0.749873,-3.4682983 L0.749873,-3.4682983 0.774788,-3.4621989 0.786874,-3.4584081 0.7985141,-3.4537277 0.8095683,-3.4478785 0.8200648,-3.4409167 0.8401186,-3.4251196 0.8401186,-3.4251196 0.8519618,-3.4084033 0.8570311,-3.399725 0.8610777,-3.3906624 0.8638971,-3.3811388 0.8657286,-3.371244 0.8677448,-3.3508358 0.8677448,-3.3508358 0.8650006,-3.3263103 0.8625664,-3.3144849 0.8588579,-3.3031844 0.8535818,-3.2925295 0.8470146,-3.2824062 0.8317284,-3.2630459 0.8317284,-3.2630459 0.811987,-3.247754 0.8016749,-3.2411989 0.7908334,-3.2359529 0.7793534,-3.2322853 0.7673576,-3.229893 0.742506,-3.2272342 0.742506,-3.2272342 0.7192012,-3.2295953 0.7079479,-3.2317695 0.6971736,-3.2351363 0.6869972,-3.2399916 0.6773224,-3.2460957 0.6588089,-3.2603856 0.6588089,-3.2603856 0.6445779,-3.2790848 0.6385036,-3.2888476 0.6336786,-3.2991061 0.6303388,-3.3099539 0.6281868,-3.321273 0.6258621,-3.3446967 0.6258621,-3.3446967 0.6267602,-3.3578641 0.628339,-3.3709291 0.6340476,-3.3966748 0.5693819,-3.3884893 0.5693819,-3.3884893 0.5702004,-3.3766203 0.5702004,-3.3766203 0.5683713,-3.3541824 0.5667285,-3.343176 0.5642119,-3.3324246 0.5606146,-3.3219886 0.5561218,-3.3118138 0.5456438,-3.2919 0.5456438,-3.2919 0.5303178,-3.275428 0.5220224,-3.2684308 0.5129685,-3.2629198 0.5030274,-3.2591469 0.4923841,-3.2567493 0.4699276,-3.2542464 0.4699276,-3.2542464 0.4511466,-3.2562533 0.442093,-3.2580734 0.4334439,-3.2608735 0.4252968,-3.2648903 0.4175677,-3.26992 0.4028062,-3.281668 0.4028062,-3.281668 0.3912056,-3.2974689 0.3862718,-3.305702 0.3823774,-3.3143342 0.3797039,-3.323435 0.3779989,-3.3329078 0.3762032,-3.3524729 0.3762032,-3.3524729 0.3781173,-3.3722305 0.379885,-3.3817991 0.3826255,-3.3909954 0.3865815,-3.3997265 0.3915588,-3.408067 0.4032154,-3.4240964 0.4032154,-3.4240964 0.4212169,-3.4380823 0.4306301,-3.4442026 0.440536,-3.4492804 0.4509811,-3.4532171 0.4618411,-3.4562761 0.4842523,-3.4609313 0.4711554,-3.5346012 0.4711554,-3.5346012 0.4387045,-3.5261218 0.4230968,-3.5207508 0.4082304,-3.5140222 0.3943073,-3.5055658 0.3812016,-3.4956126 0.3563533,-3.4732097 0.3563533,-3.4732097 0.3386167,-3.4460713 0.3310697,-3.432041 0.325108,-3.4174576 0.321011,-3.4022236 0.3183947,-3.3864728 0.3156302,-3.3541101 0.3156302,-3.3541101 0.3171839,-3.3306247 0.3185874,-3.3190292 0.320743,-3.3076103 0.3238305,-3.2964104 0.3276927,-3.2853925 0.3367079,-3.2636598 0.3367079,-3.2636598 0.3480043,-3.2450323 0.3541688,-3.2361912 0.3609528,-3.2279172 0.3685103,-3.2203514 0.3767167,-3.2133797 0.3942114,-3.2004266 0.3942114,-3.2004266 0.4125138,-3.1912737 0.4218404,-3.1873198 0.4313773,-3.1841131 0.4411738,-3.1818282 0.4511849,-3.1803055 0.4715647,-3.1785302 0.4715647,-3.1785302 0.4903359,-3.1801292 0.4995397,-3.1815434 0.5085256,-3.1836951 0.5172436,-3.1867528 0.5257413,-3.1905557 0.5423696,-3.1994034 0.5423696,-3.1994034 0.5581181,-3.2123075 0.5654529,-3.2192083 0.5721408,-3.2266471 0.5780771,-3.2347112 0.5834206,-3.2432684 0.5931199,-3.2612042 0.5931199,-3.2612042 0.6008055,-3.2373814 0.6054906,-3.2259957 0.6111862,-3.2152409 0.6181523,-3.2052791 0.6261949,-3.1959894 0.6440749,-3.1785302 0.6440749,-3.1785302 0.6665073,-3.165526 0.6780358,-3.1600205 0.6899386,-3.1557101 0.7022742,-3.1527811 0.7149501,-3.1509381 0.7408689,-3.1490623 0.7408689,-3.1490623 0.7597727,-3.1509836 0.7783888,-3.1535749 0.7964291,-3.1575063 0.8051435,-3.160184 0.813606,-3.1634479 0.8217933,-3.1673525 0.8297298,-3.171841 0.8449937,-3.1822357 0.8596844,-3.1939647 0.8740886,-3.206361 0.8740886,-3.206361 0.8862679,-3.2224197 0.8977508,-3.2387456 0.9078407,-3.2556056 0.9121458,-3.2643195 0.9158417,-3.2732669 0.9188925,-3.2824618 0.9213672,-3.2918777 0.9249177,-3.311246 0.9271516,-3.3311193 0.9287271,-3.3512451 0.9287271,-3.3512451 0.9274007,-3.3693088 0.925505,-3.3871642 0.9224704,-3.404603 0.9177275,-3.4214169 0.9108364,-3.4374449 0.9021234,-3.4528064 0.8921955,-3.4677235 0.8816602,-3.4824184 0.8816602,-3.4824184 0.868558,-3.4942113 0.8551785,-3.5054417 0.8412446,-3.515547 0.826479,-3.5239646 0.8107173,-3.5303611 0.794155,-3.5351328 0.7770588,-3.5388213 0.7596957,-3.5419682 0.749873,-3.4682983z" transform="matrix(1,0,0,-1,3.529262,3.65)" fill="rgb(116,116,116)" fill-rule="nonzero" shaper:cutDepth="0.05cm" stroke-linecap="round" stroke-linejoin="round" /><path d="M0.749873,-3.0021319 L0.749873,-3.0021319 0.7747881,-2.9960326 0.786874,-2.9922417 0.7985141,-2.9875614 0.8095683,-2.9817122 0.8200648,-2.9747503 0.8401186,-2.9589532 0.8401186,-2.9589532 0.8519617,-2.9422369 0.8570311,-2.9335585 0.8610777,-2.924496 0.8638971,-2.9149724 0.8657286,-2.9050776 0.8677448,-2.8846695 0.8677448,-2.8846695 0.8650006,-2.8601439 0.8625664,-2.8483186 0.8588579,-2.837018 0.8535818,-2.8263631 0.8470146,-2.8162398 0.8317284,-2.7968796 0.8317284,-2.7968796 0.811987,-2.7815876 0.801675,-2.7750325 0.7908334,-2.7697865 0.7793535,-2.7661188 0.7673576,-2.7637265 0.742506,-2.7610677 0.742506,-2.7610677 0.7192012,-2.7634288 0.7079479,-2.7656031 0.6971736,-2.7689698 0.6869972,-2.7738252 0.6773224,-2.7799293 0.6588089,-2.7942192 0.6588089,-2.7942192 0.6445779,-2.8129185 0.6385036,-2.8226812 0.6336786,-2.8329397 0.6303388,-2.8437875 0.6281868,-2.8551066 0.6258621,-2.8785303 0.6258621,-2.8785303 0.6267602,-2.8916977 0.628339,-2.9047627 0.6340476,-2.9305084 0.5693819,-2.9223229 0.5693819,-2.9223229 0.5702004,-2.9104539 0.5702004,-2.9104539 0.5683713,-2.888016 0.5667285,-2.8770096 0.5642119,-2.8662582 0.5606146,-2.8558222 0.5561218,-2.8456474 0.5456438,-2.8257336 0.5456438,-2.8257336 0.5303178,-2.8092616 0.5220224,-2.8022645 0.5129685,-2.7967534 0.5030274,-2.7929805 0.4923841,-2.7905829 0.4699276,-2.7880801 0.4699276,-2.7880801 0.4511466,-2.7900869 0.4420931,-2.791907 0.4334439,-2.7947072 0.4252968,-2.7987239 0.4175677,-2.8037536 0.4028062,-2.8155016 0.4028062,-2.8155016 0.3912056,-2.8313025 0.3862718,-2.8395356 0.3823774,-2.8481678 0.3797039,-2.8572686 0.3779989,-2.8667414 0.3762032,-2.8863066 0.3762032,-2.8863066 0.3781173,-2.9060641 0.379885,-2.9156327 0.3826255,-2.924829 0.3865815,-2.9335602 0.3915588,-2.9419006 0.4032154,-2.95793 0.4032154,-2.95793 0.421217,-2.9719159 0.4306301,-2.9780362 0.440536,-2.983114 0.4509812,-2.9870507 0.4618411,-2.9901097 0.4842523,-2.994765 0.4711554,-3.0684347 0.4711554,-3.0684347 0.4387045,-3.0599553 0.4230968,-3.0545843 0.4082304,-3.0478558 0.3943073,-3.0393993 0.3812016,-3.0294462 0.3563533,-3.0070432 0.3563533,-3.0070432 0.3386167,-2.9799049 0.3310697,-2.9658746 0.325108,-2.9512912 0.321011,-2.9360571 0.3183947,-2.9203064 0.3156302,-2.8879437 0.3156302,-2.8879437 0.3171839,-2.8644583 0.3185875,-2.8528628 0.320743,-2.8414439 0.3238305,-2.830244 0.3276927,-2.8192261 0.3367079,-2.7974934 0.3367079,-2.7974934 0.3480043,-2.7788659 0.3541688,-2.7700248 0.3609528,-2.7617508 0.3685103,-2.754185 0.3767167,-2.7472133 0.3942114,-2.7342602 0.3942114,-2.7342602 0.4125138,-2.7251073 0.4218404,-2.7211534 0.4313773,-2.7179467 0.4411738,-2.7156618 0.4511848,-2.7141391 0.4715647,-2.7123638 0.4715647,-2.7123638 0.4903359,-2.7139628 0.4995397,-2.7153769 0.5085256,-2.7175287 0.5172436,-2.7205864 0.5257413,-2.7243892 0.5423696,-2.7332369 0.5423696,-2.7332369 0.5581181,-2.746141 0.5654529,-2.7530418 0.5721409,-2.7604807 0.5780771,-2.7685448 0.5834206,-2.7771019 0.5931199,-2.7950378 0.5931199,-2.7950378 0.6008056,-2.7712149 0.6054906,-2.7598292 0.6111863,-2.7490745 0.6181523,-2.7391127 0.6261949,-2.7298229 0.6440749,-2.7123638 0.6440749,-2.7123638 0.6665073,-2.6993596 0.6780358,-2.6938542 0.6899386,-2.6895437 0.7022742,-2.6866147 0.7149501,-2.6847717 0.7408689,-2.682896 0.7408689,-2.682896 0.7597727,-2.6848173 0.7783888,-2.6874086 0.7964291,-2.69134 0.8051435,-2.6940176 0.813606,-2.6972815 0.8217933,-2.7011861 0.8297298,-2.7056746 0.8449937,-2.7160693 0.8596844,-2.7277984 0.8740886,-2.7401947 0.8740886,-2.7401947 0.8862679,-2.7562534 0.8977507,-2.7725792 0.9078407,-2.7894392 0.9121458,-2.7981531 0.9158417,-2.8071005 0.9188925,-2.8162955 0.9213672,-2.8257113 0.9249177,-2.8450796 0.9271516,-2.8649529 0.9287271,-2.8850787 0.9287271,-2.8850787 0.9274007,-2.9031424 0.925505,-2.9209978 0.9224704,-2.9384366 0.9177275,-2.9552505 0.9108364,-2.9712785 0.9021234,-2.98664 0.8921955,-3.0015571 0.8816602,-3.016252 0.8816602,-3.016252 0.868558,-3.0280449 0.8551785,-3.0392753 0.8412446,-3.0493805 0.826479,-3.0577982 0.8107173,-3.0641947 0.794155,-3.0689664 0.7770588,-3.0726549 0.7596957,-3.0758018 0.749873,-3.0021319z" transform="matrix(1,0,0,-1,3.529262,3.65)" fill="rgb(116,116,116)" fill-rule="nonzero" shaper:cutDepth="0.05cm" stroke-linecap="round" stroke-linejoin="round" /><path d="M1.9803806,0.95783 a0.15,0.15 0 1,1 0.3,0 a0.15,0.15 0 1,1 -0.3,0z" transform="matrix(1,0,0,-1,3.529262,3.65)" fill="rgb(255,255,255)" stroke="rgb(0,0,0)" stroke-width="0.0010cm" stroke-linecap="round" stroke-linejoin="round" shaper:cutDepth="0.3cm" /><path d="M-1.035168,-2.2015332 a0.15,0.15 0 1,1 0.3,0 a0.15,0.15 0 1,1 -0.3,0z" transform="matrix(1,0,0,-1,3.529262,3.65)" fill="rgb(255,255,255)" stroke="rgb(0,0,0)" stroke-width="0.0010cm" stroke-linecap="round" stroke-linejoin="round" shaper:cutDepth="0.3cm" /><path d="M1.6670284,-2.5197748 a0.15,0.15 0 1,1 0.3,0 a0.15,0.15 0 1,1 -0.3,0z" transform="matrix(1,0,0,-1,3.529262,3.65)" fill="rgb(255,255,255)" stroke="rgb(0,0,0)" stroke-width="0.0010cm" stroke-linecap="round" stroke-linejoin="round" shaper:cutDepth="0.3cm" /><path d="M0.1878812,-0.0545523 a0.15,0.15 0 1,1 0.3,0 a0.15,0.15 0 1,1 -0.3,0z" transform="matrix(1,0,0,-1,3.529262,3.65)" fill="rgb(255,255,255)" stroke="rgb(0,0,0)" stroke-width="0.0010cm" stroke-linecap="round" stroke-linejoin="round" shaper:cutDepth="0.3cm" /><path d="M-1.6494889,1.2073828 a0.15,0.15 0 1,1 0.3,0 a0.15,0.15 0 1,1 -0.3,0z" transform="matrix(1,0,0,-1,3.529262,3.65)" fill="rgb(255,255,255)" stroke="rgb(0,0,0)" stroke-width="0.0010cm" stroke-linecap="round" stroke-linejoin="round" shaper:cutDepth="0.3cm" /><path d="M-2.5342727,1.25 L-2.5342727,-1.25 -2.2342727,-1.25 -2.2342727,1.25 -2.5342727,1.25z" transform="matrix(1,0,0,-1,3.529262,3.65)" fill="rgb(255,255,255)" stroke="rgb(0,0,0)" stroke-width="0.0010cm" stroke-linecap="round" stroke-linejoin="round" shaper:cutDepth="0.3cm" /><path d="M2.979262,-3.25 a0.15,0.15 0 1,1 0.3,0 a0.15,0.15 0 1,1 -0.3,0z" transform="matrix(1,0,0,-1,3.529262,3.65)" fill="rgb(255,255,255)" stroke="rgb(0,0,0)" stroke-width="0.0010cm" stroke-linecap="round" stroke-linejoin="round" shaper:cutDepth="0.3cm" /><path d="M-1.520738,3.25 a0.15,0.15 0 1,1 0.3,0 a0.15,0.15 0 1,1 -0.3,0z" transform="matrix(1,0,0,-1,3.529262,3.65)" fill="rgb(255,255,255)" stroke="rgb(0,0,0)" stroke-width="0.0010cm" stroke-linecap="round" stroke-linejoin="round" shaper:cutDepth="0.3cm" /><path d="M2.979262,3.25 a0.15,0.15 0 1,1 0.3,0 a0.15,0.15 0 1,1 -0.3,0z" transform="matrix(1,0,0,-1,3.529262,3.65)" fill="rgb(255,255,255)" stroke="rgb(0,0,0)" stroke-width="0.0010cm" stroke-linecap="round" stroke-linejoin="round" shaper:cutDepth="0.3cm" /><path d="M-1.520738,-3.25 a0.15,0.15 0 1,1 0.3,0 a0.15,0.15 0 1,1 -0.3,0z" transform="matrix(1,0,0,-1,3.529262,3.65)" fill="rgb(255,255,255)" stroke="rgb(0,0,0)" stroke-width="0.0010cm" stroke-linecap="round" stroke-linejoin="round" shaper:cutDepth="0.3cm" /><path d="M-2.1707381,2 L-0.870738,2 -0.870738,2.7500001 -2.1707381,2.7500001 A0.3,0.3 90 0,1 -2.4707381,2.4500001 L-2.4707381,2.3 A0.3,0.3 180 0,1 -2.1707381,2z" transform="matrix(1,0,0,-1,3.529262,3.65)" fill="rgb(255,255,255)" stroke="rgb(0,0,0)" stroke-width="0.0010cm" stroke-linecap="round" stroke-linejoin="round" shaper:cutDepth="0.3cm" /></svg>