<?xml version="1.0" encoding="utf-8"?>
<!-- Generator: Fusion 360, Shaper Origin Export Add-In, Version 1.7.0  -->
<svg xmlns="http://www.w3.org/2000/svg" xmlns:xlink="http://www.w3.org/1999/xlink" xmlns:shaper="http://www.shapertools.com/namespaces/shaper" shaper:fusionaddin="version:1.7.0" width="7.058524cm" height="7.3cm" version="1.1" x="0cm" y="0cm" viewBox="0 0 7.058524 7.3" enable-background="new 0 0 7.058524 7.3" xml:space="preserve"><path d="M-3.529262,-2.0046781 L-1.8572407,-3.5690658 A0.3,0.3 226.9047902 0,1 -1.6522768,-3.65 L3.229262,-3.65 A0.3,0.3 270 0,1 3.529262,-3.35 L3.529262,-2.7885309 3.229262,-2.7885309 3.229262,-0.7885309 3.529262,-0.7885309 3.529262,3.35 A0.3,0.3 0 0,1 3.229262,3.65 L-1.6522768,3.65 A0.3,0.3 90 0,1 -1.8572407,3.5690658 L-3.529262,2.0046781 -3.529262,1.65 -3.2342727,1.65 -3.2342727,-1.65 -3.529262,-1.65 -3.529262,-2.0046781z" transform="matrix(1,0,0,-1,3.529262,3.65)" fill="rgb(0,0,0)" shaper:cutDepth="0.3cm" stroke-linecap="round" stroke-linejoin="round" /><path d="M2.7879786,0.4193599 L2.7879786,0.2458265 2.7429582,0.2458265 2.4837494,0.428364 2.4837494,0.4684732 2.7429582,0.4684732 2.7429582,0.5224977 2.7879786,0.5224977 2.7879786,0.4684732 2.8837494,0.4684732 2.8837494,0.4193599 2.7879786,0.4193599z M2.5626034,0.4193599 L2.7429582,0.2941212 2.7429582,0.4193599 2.5626034,0.4193599z" transform="matrix(1,0,0,-1,3.529262,3.65)" fill="rgb(116,116,116)" fill-rule="nonzero" shaper:cutDepth="0.05cm" stroke-linecap="round" stroke-linejoin="round" /><path d="M0.5338865,0.9581197 L0.5338865,0.9581197 0.5496447,0.9614787 0.557265,0.9636891 0.5645749,0.9665368 0.5714823,0.9702103 0.5780256,0.9746312 0.5905031,0.9847227 0.5905031,0.9847227 0.5985941,0.996037 0.6020634,1.0019127 0.6048413,1.0080507 0.6067848,1.0145053 0.6080535,1.0212159 0.6094663,1.0350638 0.6094663,1.0350638 0.6073248,1.0520866 0.6054759,1.0602527 0.6026932,1.0680044 0.5987767,1.0752531 0.5939388,1.0820929 0.5827269,1.095091 0.5827269,1.095091 0.5666961,1.1059921 0.5583779,1.1105965 0.5496966,1.1141868 0.5405991,1.1166143 0.5311756,1.1181313 0.5117855,1.1196476 0.5117855,1.1196476 0.4935524,1.1182313 0.4847068,1.1167899 0.4761865,1.1144686 0.468083,1.1110196 0.4603458,1.1065797 0.4454827,1.096046 0.4454827,1.096046 0.4349088,1.0824024 0.4304092,1.0752647 0.426854,1.0677481 0.4244104,1.0597856 0.4228494,1.0514689 0.4211989,1.0342452 0.4211989,1.0342452 0.421974,1.0230473 0.4237806,1.012112 0.427341,1.0016229 0.4319765,0.9914075 0.4319765,0.9914075 0.4376861,0.9827034 0.4440854,0.9746453 0.4516561,0.9676839 0.4599438,0.9613939 0.4539411,0.915282 0.248484,0.9540269 0.248484,1.1529355 0.2954144,1.1529355 0.2954144,0.9933175 0.4029179,0.9717623 0.4029179,0.9717623 0.3925963,0.989333 0.3881117,0.9983397 0.3844384,1.0076119 0.3817819,1.0172169 0.3799832,1.0271026 0.3778155,1.047342 0.3778155,1.047342 0.3805768,1.0720441 0.3830279,1.083954 0.3867635,1.0953344 0.3920796,1.1060635 0.3986978,1.1162558 0.4141047,1.1357459 0.4141047,1.1357459 0.4348268,1.1513794 0.4456424,1.15804 0.4570035,1.1633136 0.4690089,1.1669483 0.4815275,1.1692779 0.5074199,1.1717622 0.5074199,1.1717622 0.5328002,1.1694674 0.5451683,1.1673752 0.5571499,1.1641493 0.5686508,1.1595133 0.5797504,1.1537 0.6012807,1.1401115 0.6012807,1.1401115 0.6120297,1.1291721 0.6221728,1.1179489 0.631104,1.1061579 0.6382175,1.0935154 0.643159,1.0798553 0.6463572,1.0653785 0.6483933,1.0503572 0.6498483,1.0350638 0.6498483,1.0350638 0.647887,1.0107887 0.6459693,0.9989817 0.6429272,0.9875716 0.6384565,0.9766654 0.6327528,0.9661943 0.6192889,0.9459778 0.6192889,0.9459778 0.6017362,0.9306309 0.5924894,0.9239118 0.582678,0.918338 0.5721962,0.914124 0.561179,0.9109961 0.5382521,0.9065508 0.5338865,0.9581197z" transform="matrix(1,0,0,-1,3.529262,3.65)" fill="rgb(116,116,116)" fill-rule="nonzero" shaper:cutDepth="0.05cm" stroke-linecap="round" stroke-linejoin="round" /><path d="M1.2315639,-1.1096376 L1.2315639,-1.1096376 1.2473221,-1.1062786 1.2549425,-1.1040681 1.2622524,-1.1012205 1.2691598,-1.0975469 1.2757031,-1.0931261 1.2881806,-1.0830346 1.2881806,-1.0830346 1.2962716,-1.0717203 1.2997409,-1.0658446 1.3025187,-1.0597065 1.3044622,-1.0532519 1.305731,-1.0465414 1.3071437,-1.0326935 1.3071437,-1.0326935 1.3050023,-1.0156707 1.3031534,-1.0075046 1.3003706,-0.9997529 1.2964542,-0.9925041 1.2916162,-0.9856643 1.2804043,-0.9726662 1.2804043,-0.9726662 1.2643735,-0.9617652 1.2560553,-0.9571607 1.247374,-0.9535704 1.2382765,-0.9511429 1.2288531,-0.949626 1.209463,-0.9481096 1.209463,-0.9481096 1.1912298,-0.9495259 1.1823843,-0.9509674 1.173864,-0.9532887 1.1657605,-0.9567377 1.1580232,-0.9611776 1.1431601,-0.9717113 1.1431601,-0.9717113 1.1325862,-0.9853549 1.1280866,-0.9924925 1.1245315,-1.0000091 1.1220878,-1.0079717 1.1205269,-1.0162884 1.1188763,-1.0335121 1.1188763,-1.0335121 1.1196515,-1.0447099 1.1214581,-1.0556453 1.1250184,-1.0661343 1.129654,-1.0763497 1.129654,-1.0763497 1.1353635,-1.0850538 1.1417628,-1.093112 1.1493335,-1.1000734 1.1576212,-1.1063634 1.1516185,-1.1524752 0.9461615,-1.1137304 0.9461615,-0.9148218 0.9930919,-0.9148218 0.9930919,-1.0744398 1.1005953,-1.095995 1.1005953,-1.095995 1.0902737,-1.0784243 1.0857891,-1.0694176 1.0821158,-1.0601454 1.0794594,-1.0505404 1.0776606,-1.0406547 1.075493,-1.0204152 1.075493,-1.0204152 1.0782543,-0.9957131 1.0807053,-0.9838033 1.0844409,-0.9724228 1.089757,-0.9616938 1.0963753,-0.9515015 1.1117822,-0.9320114 1.1117822,-0.9320114 1.1325043,-0.9163779 1.1433199,-0.9097172 1.1546809,-0.9044437 1.1666864,-0.900809 1.179205,-0.8984793 1.2050973,-0.895995 1.2050973,-0.895995 1.2304776,-0.8982899 1.2428457,-0.9003821 1.2548273,-0.903608 1.2663282,-0.908244 1.2774278,-0.9140572 1.2989582,-0.9276458 1.2989582,-0.9276458 1.3097072,-0.9385851 1.3198502,-0.9498084 1.3287814,-0.9615993 1.335895,-0.9742418 1.3408364,-0.987902 1.3440346,-1.0023788 1.3460707,-1.0174 1.3475257,-1.0326935 1.3475257,-1.0326935 1.3455644,-1.0569686 1.3436467,-1.0687755 1.3406046,-1.0801857 1.336134,-1.0910919 1.3304303,-1.1015629 1.3169664,-1.1217795 1.3169664,-1.1217795 1.2994137,-1.1371264 1.2901668,-1.1438454 1.2803554,-1.1494192 1.2698737,-1.1536333 1.2588565,-1.1567612 1.2359295,-1.1612065 1.2315639,-1.1096376z" transform="matrix(1,0,0,-1,3.529262,3.65)" fill="rgb(116,116,116)" fill-rule="nonzero" shaper:cutDepth="0.05cm" stroke-linecap="round" stroke-linejoin="round" /><path d="M-0.7109483,-1.7884766 L-0.7109483,-1.7884766 -0.6943383,-1.7844104 -0.686281,-1.7818831 -0.6785209,-1.7787629 -0.6711514,-1.7748634 -0.6641538,-1.7702222 -0.6507846,-1.7596908 -0.6507846,-1.7596908 -0.6428891,-1.7485466 -0.6395095,-1.742761 -0.6368118,-1.7367193 -0.6349321,-1.7303703 -0.6337112,-1.7237737 -0.6323671,-1.7101683 -0.6323671,-1.7101683 -0.6341966,-1.6938179 -0.6358193,-1.6859343 -0.6382917,-1.6784006 -0.6418091,-1.6712973 -0.6461872,-1.6645485 -0.656378,-1.6516417 -0.656378,-1.6516417 -0.669539,-1.641447 -0.6764137,-1.637077 -0.6836414,-1.6335797 -0.6912947,-1.6311346 -0.6992919,-1.6295397 -0.7158596,-1.6277672 -0.7158596,-1.6277672 -0.7313961,-1.6293412 -0.7388983,-1.6307908 -0.7460812,-1.6330353 -0.7528655,-1.6362721 -0.7593153,-1.6403416 -0.7716577,-1.6498681 -0.7716577,-1.6498681 -0.781145,-1.6623343 -0.7851945,-1.6688428 -0.7884112,-1.6756818 -0.7906377,-1.6829137 -0.7920724,-1.6904597 -0.7936222,-1.7060755 -0.7936222,-1.7060755 -0.7919709,-1.7235638 -0.7881652,-1.7407276 -0.8312757,-1.7352706 -0.8312757,-1.7352706 -0.83073,-1.7273579 -0.83073,-1.7273579 -0.8319494,-1.7123993 -0.8330446,-1.7050617 -0.8347223,-1.6978941 -0.8371205,-1.6909368 -0.8401157,-1.6841536 -0.8471011,-1.6708777 -0.8471011,-1.6708777 -0.8573184,-1.6598964 -0.8628486,-1.6552317 -0.8688846,-1.6515576 -0.875512,-1.6490423 -0.8826075,-1.6474439 -0.8975786,-1.6457754 -0.8975786,-1.6457754 -0.9100992,-1.6471133 -0.9161349,-1.6483267 -0.921901,-1.6501935 -0.9273324,-1.6528713 -0.9324851,-1.6562245 -0.9423262,-1.6640564 -0.9423262,-1.6640564 -0.9500599,-1.6745903 -0.9533491,-1.680079 -0.9559454,-1.6858338 -0.9577277,-1.6919011 -0.9588643,-1.6982162 -0.9600615,-1.7112597 -0.9600615,-1.7112597 -0.9587854,-1.7244314 -0.957607,-1.7308104 -0.95578,-1.7369413 -0.9531426,-1.7427621 -0.9498244,-1.7483224 -0.9420533,-1.7590087 -0.9420533,-1.7590087 -0.9300523,-1.7683326 -0.9237769,-1.7724128 -0.917173,-1.775798 -0.9102095,-1.7784224 -0.9029695,-1.7804617 -0.8880288,-1.7835653 -0.89676,-1.8326785 -0.89676,-1.8326785 -0.9183939,-1.8270256 -0.9287991,-1.8234449 -0.93871,-1.8189592 -0.947992,-1.8133215 -0.9567292,-1.8066861 -0.9732948,-1.7917508 -0.9732948,-1.7917508 -0.9851192,-1.7736586 -0.9901504,-1.7643051 -0.9941249,-1.7545828 -0.9968563,-1.7444267 -0.9986004,-1.7339262 -1.0004435,-1.7123511 -1.0004435,-1.7123511 -0.9994077,-1.6966942 -0.997035,-1.6813513 -0.9924018,-1.6665394 -0.9863917,-1.652051 -0.9863917,-1.652051 -0.9788608,-1.6396326 -0.9702285,-1.6282225 -0.9597192,-1.6185308 -0.948056,-1.6098954 -0.948056,-1.6098954 -0.9358544,-1.6037935 -0.9232788,-1.5990198 -0.9100737,-1.5964814 -0.8964871,-1.5952979 -0.8964871,-1.5952979 -0.883973,-1.5963639 -0.8718465,-1.5987411 -0.8603694,-1.6033149 -0.8492839,-1.6092133 -0.8492839,-1.6092133 -0.8387849,-1.6178161 -0.8294364,-1.6273758 -0.8219165,-1.6384566 -0.8154503,-1.6504138 -0.8154503,-1.6504138 -0.8103266,-1.6345319 -0.8072032,-1.6269415 -0.8034061,-1.6197716 -0.7987621,-1.6131304 -0.7934003,-1.6069373 -0.7814803,-1.5952979 -0.7814803,-1.5952979 -0.7665254,-1.5866284 -0.7588397,-1.5829581 -0.7509045,-1.5800845 -0.7426808,-1.5781318 -0.7342302,-1.5769032 -0.716951,-1.5756526 -0.716951,-1.5756526 -0.6919378,-1.578661 -0.6799109,-1.5812819 -0.6684596,-1.585243 -0.6577104,-1.5908384 -0.6475345,-1.5977682 -0.6281379,-1.6138518 -0.6281379,-1.6138518 -0.6123631,-1.6354414 -0.6056364,-1.6466815 -0.6003024,-1.6584557 -0.5966188,-1.6708629 -0.5942518,-1.6837751 -0.5917123,-1.7104411 -0.5917123,-1.7104411 -0.5938603,-1.7343872 -0.5958834,-1.7460131 -0.5990453,-1.7572223 -0.6036393,-1.7679076 -0.609448,-1.7781487 -0.6230902,-1.79789 -0.6230902,-1.79789 -0.6407446,-1.8132388 -0.6500339,-1.8199757 -0.6598776,-1.8255875 -0.6703854,-1.8298518 -0.681427,-1.8330329 -0.7043998,-1.8375898 -0.7109483,-1.7884766z" transform="matrix(1,0,0,-1,3.529262,3.65)" fill="rgb(116,116,116)" fill-rule="nonzero" shaper:cutDepth="0.05cm" stroke-linecap="round" stroke-linejoin="round" /><path d="M-1.2180674,1.585228 L-1.2180674,1.585228 -1.2023092,1.588587 -1.1946889,1.5907974 -1.187379,1.5936451 -1.1804716,1.5973186 -1.1739283,1.6017395 -1.1614508,1.611831 -1.1614508,1.611831 -1.1533598,1.6231453 -1.1498905,1.629021 -1.1471126,1.635159 -1.1451691,1.6416136 -1.1439004,1.6483242 -1.1424876,1.6621721 -1.1424876,1.6621721 -1.1446291,1.6791949 -1.146478,1.687361 -1.1492608,1.6951127 -1.1531772,1.7023614 -1.1580151,1.7092012 -1.1692271,1.7221993 -1.1692271,1.7221993 -1.1852578,1.7331004 -1.193576,1.7377048 -1.2022573,1.7412951 -1.2113548,1.7437226 -1.2207783,1.7452396 -1.2401684,1.7467559 -1.2401684,1.7467559 -1.2584015,1.7453397 -1.2672471,1.7438982 -1.2757674,1.7415769 -1.2838709,1.7381279 -1.2916081,1.733688 -1.3064713,1.7231543 -1.3064713,1.7231543 -1.3170451,1.7095107 -1.3215448,1.7023731 -1.3250999,1.6948564 -1.3275436,1.6868939 -1.3291045,1.6785772 -1.330755,1.6613535 -1.330755,1.6613535 -1.3299799,1.6501556 -1.3281733,1.6392203 -1.324613,1.6287312 -1.3199774,1.6185158 -1.3199774,1.6185158 -1.3142678,1.6098118 -1.3078685,1.6017536 -1.3002979,1.5947922 -1.2920101,1.5885022 -1.2980128,1.5423903 -1.5034699,1.5811352 -1.5034699,1.7800438 -1.4565395,1.7800438 -1.4565395,1.6204258 -1.3490361,1.5988706 -1.3490361,1.5988706 -1.3593576,1.6164413 -1.3638423,1.625448 -1.3675155,1.6347202 -1.370172,1.6443252 -1.3719707,1.6542109 -1.3741384,1.6744504 -1.3741384,1.6744504 -1.3713771,1.6991525 -1.368926,1.7110623 -1.3651904,1.7224428 -1.3598744,1.7331718 -1.3532561,1.7433641 -1.3378492,1.7628542 -1.3378492,1.7628542 -1.3171271,1.7784877 -1.3063115,1.7851484 -1.2949504,1.7904219 -1.282945,1.7940566 -1.2704264,1.7963862 -1.244534,1.7988706 -1.244534,1.7988706 -1.2191537,1.7965757 -1.2067857,1.7944835 -1.1948041,1.7912576 -1.1833031,1.7866216 -1.1722035,1.7808083 -1.1506732,1.7672198 -1.1506732,1.7672198 -1.1399242,1.7562804 -1.1297811,1.7450572 -1.1208499,1.7332662 -1.1137364,1.7206237 -1.1087949,1.7069636 -1.1055967,1.6924868 -1.1035606,1.6774656 -1.1021056,1.6621721 -1.1021056,1.6621721 -1.1040669,1.637897 -1.1059846,1.62609 -1.1090267,1.6146799 -1.1134974,1.6037737 -1.1192011,1.5933026 -1.132665,1.5730861 -1.132665,1.5730861 -1.1502177,1.5577392 -1.1594645,1.5510202 -1.1692759,1.5454464 -1.1797577,1.5412323 -1.1907749,1.5381044 -1.2137018,1.5336591 -1.2180674,1.585228z" transform="matrix(1,0,0,-1,3.529262,3.65)" fill="rgb(116,116,116)" fill-rule="nonzero" shaper:cutDepth="0.05cm" stroke-linecap="round" stroke-linejoin="round" /><path d="M0.9316465,-3.3750526 L0.4622059,-3.3750526 0.4622059,-3.3750526 0.4762803,-3.39148 0.4895523,-3.4084965 0.5015982,-3.4264129 0.5129562,-3.4448343 0.5129562,-3.4448343 0.5236147,-3.4636678 0.5336821,-3.4827888 0.5426957,-3.5024226 0.551019,-3.5223923 0.4798048,-3.5223923 0.4798048,-3.5223923 0.4648903,-3.4936243 0.4569834,-3.4795344 0.4485368,-3.4657974 0.4394159,-3.4525015 0.4297284,-3.4395762 0.4094091,-3.4143432 0.4094091,-3.4143432 0.3914019,-3.3954198 0.38207,-3.3863673 0.3723442,-3.377806 0.3621055,-3.3698839 0.3513966,-3.3625482 0.3291909,-3.3488589 0.3291909,-3.3013827 0.9316465,-3.3013827 0.9316465,-3.3750526z" transform="matrix(1,0,0,-1,3.529262,3.65)" fill="rgb(116,116,116)" fill-rule="nonzero" shaper:cutDepth="0.05cm" stroke-linecap="round" stroke-linejoin="round" /><path d="M0.4843068,-2.803702 L0.4843068,-2.803702 0.4673445,-2.8080486 0.4509857,-2.8137025 0.443218,-2.8174217 0.4357409,-2.8217705 0.4212782,-2.8315328 0.4212782,-2.8315328 0.4079537,-2.8476174 0.4022214,-2.856058 0.3976049,-2.8649766 0.394349,-2.8744781 0.3922036,-2.8844553 0.3897638,-2.9052027 0.3897638,-2.9052027 0.3912002,-2.9217681 0.3925036,-2.929863 0.3945093,-2.9377325 0.3973869,-2.9453222 0.4009908,-2.9526788 0.4094091,-2.9670035 0.4094091,-2.9670035 0.4252265,-2.9843084 0.4336148,-2.9923229 0.4425782,-2.9995727 0.4522019,-3.0059442 0.4623432,-3.0116274 0.4834883,-3.0218466 0.4834883,-3.0218466 0.5174409,-3.0315648 0.5345568,-3.0355676 0.5518377,-3.0385584 0.5692874,-3.0405136 0.586865,-3.0416846 0.6222332,-3.0427197 0.6222332,-3.0427197 0.6042522,-3.0291474 0.5957522,-3.0219114 0.5878409,-3.0141355 0.5806685,-3.0056818 0.5741214,-2.9966547 0.5620694,-2.9776447 0.5620694,-2.9776447 0.5538302,-2.958296 0.5502753,-2.9484845 0.5473979,-2.9385084 0.5453538,-2.92833 0.543996,-2.917985 0.5424241,-2.8970171 0.5424241,-2.8970171 0.5442663,-2.8792089 0.5467407,-2.8616732 0.5504799,-2.8446826 0.5530213,-2.8364769 0.556116,-2.8285097 0.564059,-2.8133312 0.5738803,-2.7989623 0.5849538,-2.7851331 0.5966533,-2.7715738 0.5966533,-2.7715738 0.6122162,-2.7599186 0.628036,-2.7489431 0.6443695,-2.7393268 0.6528093,-2.7352409 0.6614735,-2.7317488 0.6794795,-2.7265572 0.6981998,-2.7232551 0.7173962,-2.7212127 0.7368307,-2.7198002 0.7368307,-2.7198002 0.7640695,-2.7216274 0.7775207,-2.7232618 0.7907702,-2.7257613 0.8037706,-2.7293286 0.8165649,-2.7337792 0.8418102,-2.7441522 0.8418102,-2.7441522 0.8636797,-2.7572439 0.8740613,-2.7643998 0.8837792,-2.7722875 0.8926686,-2.7810889 0.9008632,-2.7906565 0.916094,-2.811069 0.916094,-2.811069 0.9271934,-2.8339591 0.9319371,-2.8456219 0.9357136,-2.857546 0.9383354,-2.8697821 0.9400309,-2.8822685 0.9418784,-2.9076583 0.9418784,-2.9076583 0.9397236,-2.9292961 0.9367679,-2.9505707 0.9322103,-2.971119 0.9290806,-2.9810072 0.92525,-2.9905777 0.9206455,-2.9997972 0.9153274,-3.0086932 0.9029584,-3.0256994 0.8889585,-3.0419661 0.8741431,-3.057863 0.8741431,-3.057863 0.8483663,-3.0725272 0.8222845,-3.086132 0.8090338,-3.0922062 0.7955926,-3.0976184 0.7819226,-3.1022363 0.768004,-3.1059907 0.753859,-3.108959 0.7395159,-3.1112395 0.7103487,-3.1141299 0.6807288,-3.1154481 0.6508825,-3.1159803 0.6508825,-3.1159803 0.6172035,-3.1153257 0.583766,-3.113807 0.5508117,-3.1105601 0.5345912,-3.1080184 0.5185821,-3.1047206 0.5028146,-3.1005587 0.4873113,-3.0954517 0.4720491,-3.0894819 0.456988,-3.0827931 0.4273079,-3.0678337 0.3979494,-3.0517238 0.3979494,-3.0517238 0.3827508,-3.0358898 0.3684067,-3.0196619 0.3557719,-3.0026462 0.3503625,-2.9937198 0.3457007,-2.9844488 0.3418397,-2.9748087 0.3386975,-2.9648372 0.3341593,-2.9440896 0.3312643,-2.9225845 0.3291909,-2.9007006 0.3291909,-2.9007006 0.3317595,-2.8691071 0.3342591,-2.8537376 0.338217,-2.8388807 0.3440255,-2.8246743 0.3514279,-2.8110283 0.3688907,-2.7846706 0.3688907,-2.7846706 0.3927096,-2.7639748 0.4052537,-2.7548846 0.4185592,-2.7473029 0.4327495,-2.7414745 0.4476377,-2.7370287 0.4785769,-2.7304415 0.4843068,-2.803702z M0.8100913,-3.0150935 L0.8100913,-3.0150935 0.825631,-3.0064465 0.8330188,-3.0016792 0.8399481,-2.9963793 0.8463019,-2.990411 0.8521692,-2.9838775 0.8630927,-2.9698684 0.8630927,-2.9698684 0.8706427,-2.955509 0.8739138,-2.9481803 0.8765801,-2.9406728 0.8784943,-2.9329428 0.8797803,-2.9250271 0.8813055,-2.9088862 0.8813055,-2.9088862 0.878116,-2.885948 0.8754427,-2.8749786 0.8714752,-2.8646088 0.8659636,-2.8549544 0.8592141,-2.8458736 0.843652,-2.8286679 0.843652,-2.8286679 0.8203672,-2.8135724 0.8083125,-2.8072294 0.7957639,-2.802329 0.7826597,-2.7990523 0.7691238,-2.7970366 0.7413327,-2.7951071 0.7413327,-2.7951071 0.7145806,-2.7970253 0.7015702,-2.7990214 0.6889987,-2.8022616 0.676992,-2.8071028 0.6654861,-2.8133642 0.6433109,-2.8282586 0.6433109,-2.8282586 0.6280786,-2.846424 0.6215398,-2.8559713 0.6162937,-2.866076 0.6126132,-2.8768558 0.6102029,-2.8881833 0.6074992,-2.9117511 0.6074992,-2.9117511 0.6102967,-2.9355331 0.6127446,-2.9469807 0.6164516,-2.957896 0.6216975,-2.9681608 0.6282025,-2.9778933 0.6433109,-2.9964714 0.6433109,-2.9964714 0.6642951,-3.0117402 0.6752268,-3.0182181 0.6866859,-3.0233087 0.6987589,-3.0267841 0.7113167,-3.0289844 0.73724,-3.03126 0.73724,-3.03126 0.7560666,-3.0299872 0.7745579,-3.027202 0.7924916,-3.021901 0.8100913,-3.0150935z" transform="matrix(1,0,0,-1,3.529262,3.65)" fill="rgb(116,116,116)" fill-rule="nonzero" shaper:cutDepth="0.05cm" stroke-linecap="round" stroke-linejoin="round" /><path d="M0.7434329,-1.3678231 a0.15,0.15 0 1,1 0.3,0 a0.15,0.15 0 1,1 -0.3,0z" transform="matrix(1,0,0,-1,3.529262,3.65)" fill="rgb(255,255,255)" stroke="rgb(0,0,0)" stroke-width="0.0010cm" stroke-linecap="round" stroke-linejoin="round" shaper:cutDepth="0.3cm" /><path d="M-1.1988064,-2.04598 a0.15,0.15 0 1,1 0.3,0 a0.15,0.15 0 1,1 -0.3,0z" transform="matrix(1,0,0,-1,3.529262,3.65)" fill="rgb(255,255,255)" stroke="rgb(0,0,0)" stroke-width="0.0010cm" stroke-linecap="round" stroke-linejoin="round" shaper:cutDepth="0.3cm" /><path d="M-1.8701516,1.6784158 a0.15,0.15 0 1,1 0.3,0 a0.15,0.15 0 1,1 -0.3,0z" transform="matrix(1,0,0,-1,3.529262,3.65)" fill="rgb(255,255,255)" stroke="rgb(0,0,0)" stroke-width="0.0010cm" stroke-linecap="round" stroke-linejoin="round" shaper:cutDepth="0.3cm" /><path d="M0.0457555,0.6999341 a0.15,0.15 0 1,1 0.3,0 a0.15,0.15 0 1,1 -0.3,0z" transform="matrix(1,0,0,-1,3.529262,3.65)" fill="rgb(255,255,255)" stroke="rgb(0,0,0)" stroke-width="0.0010cm" stroke-linecap="round" stroke-linejoin="round" shaper:cutDepth="0.3cm" /><path d="M2.2837494,0.0529888 a0.15,0.15 0 1,1 0.3,0 a0.15,0.15 0 1,1 -0.3,0z" transform="matrix(1,0,0,-1,3.529262,3.65)" fill="rgb(255,255,255)" stroke="rgb(0,0,0)" stroke-width="0.0010cm" stroke-linecap="round" stroke-linejoin="round" shaper:cutDepth="0.3cm" /><path d="M-2.5342727,1.25 L-2.5342727,-1.25 -2.2342727,-1.25 -2.2342727,1.25 -2.5342727,1.25z" transform="matrix(1,0,0,-1,3.529262,3.65)" fill="rgb(255,255,255)" stroke="rgb(0,0,0)" stroke-width="0.0010cm" stroke-linecap="round" stroke-linejoin="round" shaper:cutDepth="0.3cm" /><path d="M2.979262,-3.25 a0.15,0.15 0 1,1 0.3,0 a0.15,0.15 0 1,1 -0.3,0z" transform="matrix(1,0,0,-1,3.529262,3.65)" fill="rgb(255,255,255)" stroke="rgb(0,0,0)" stroke-width="0.0010cm" stroke-linecap="round" stroke-linejoin="round" shaper:cutDepth="0.3cm" /><path d="M-1.520738,3.25 a0.15,0.15 0 1,1 0.3,0 a0.15,0.15 0 1,1 -0.3,0z" transform="matrix(1,0,0,-1,3.529262,3.65)" fill="rgb(255,255,255)" stroke="rgb(0,0,0)" stroke-width="0.0010cm" stroke-linecap="round" stroke-linejoin="round" shaper:cutDepth="0.3cm" /><path d="M2.979262,3.25 a0.15,0.15 0 1,1 0.3,0 a0.15,0.15 0 1,1 -0.3,0z" transform="matrix(1,0,0,-1,3.529262,3.65)" fill="rgb(255,255,255)" stroke="rgb(0,0,0)" stroke-width="0.0010cm" stroke-linecap="round" stroke-linejoin="round" shaper:cutDepth="0.3cm" /><path d="M-1.520738,-3.25 a0.15,0.15 0 1,1 0.3,0 a0.15,0.15 0 1,1 -0.3,0z" transform="matrix(1,0,0,-1,3.529262,3.65)" fill="rgb(255,255,255)" stroke="rgb(0,0,0)" stroke-width="0.0010cm" stroke-linecap="round" stroke-linejoin="round" shaper:cutDepth="0.3cm" /><path d="M-2.1707381,2 L-0.870738,2 -0.870738,2.7500001 -2.1707381,2.7500001 A0.3,0.3 90 0,1 -2.4707381,2.4500001 L-2.4707381,2.3 A0.3,0.3 180 0,1 -2.1707381,2z" transform="matrix(1,0,0,-1,3.529262,3.65)" fill="rgb(255,255,255)" stroke="rgb(0,0,0)" stroke-width="0.0010cm" stroke-linecap="round" stroke-linejoin="round" shaper:cutDepth="0.3cm" /></svg>