<?xml version="1.0" encoding="utf-8"?>
<!-- Generator: Fusion 360, Shaper Origin Export Add-In, Version 1.7.0  -->
<svg xmlns="http://www.w3.org/2000/svg" xmlns:xlink="http://www.w3.org/1999/xlink" xmlns:shaper="http://www.shapertools.com/namespaces/shaper" shaper:fusionaddin="version:1.7.0" width="7.058524cm" height="7.3cm" version="1.1" x="0cm" y="0cm" viewBox="0 0 7.058524 7.3" enable-background="new 0 0 7.058524 7.3" xml:space="preserve"><path d="M-3.529262,-2.0046781 L-1.8572407,-3.5690658 A0.3,0.3 226.9047902 0,1 -1.6522768,-3.65 L3.229262,-3.65 A0.3,0.3 270 0,1 3.529262,-3.35 L3.529262,-2.7885309 3.229262,-2.7885309 3.229262,-0.7885309 3.529262,-0.7885309 3.529262,3.35 A0.3,0.3 0 0,1 3.229262,3.65 L-1.6522768,3.65 A0.3,0.3 90 0,1 -1.8572407,3.5690658 L-3.529262,2.0046781 -3.529262,1.65 -3.2342727,1.65 -3.2342727,-1.65 -3.529262,-1.65 -3.529262,-2.0046781z" transform="matrix(1,0,0,-1,3.529262,3.65)" fill="rgb(0,0,0)" shaper:cutDepth="0.3cm" stroke-linecap="round" stroke-linejoin="round" /><path d="M2.240033,-1.1148113 L2.240033,-1.1148113 2.2557912,-1.1114523 2.2634116,-1.1092418 2.2707214,-1.1063942 2.2776289,-1.1027206 2.2841722,-1.0982998 2.2966497,-1.0882083 2.2966497,-1.0882083 2.3047406,-1.076894 2.3082099,-1.0710183 2.3109878,-1.0648802 2.3129313,-1.0584256 2.3142001,-1.051715 2.3156128,-1.0378672 2.3156128,-1.0378672 2.3134714,-1.0208444 2.3116224,-1.0126783 2.3088397,-1.0049266 2.3049233,-0.9976778 2.3000853,-0.990838 2.2888734,-0.9778399 2.2888734,-0.9778399 2.2728426,-0.9669389 2.2645244,-0.9623344 2.2558431,-0.9587441 2.2467456,-0.9563166 2.2373222,-0.9547997 2.2179321,-0.9532833 2.2179321,-0.9532833 2.1996989,-0.9546996 2.1908534,-0.956141 2.1823331,-0.9584624 2.1742296,-0.9619113 2.1664923,-0.9663512 2.1516292,-0.976885 2.1516292,-0.976885 2.1410553,-0.9905285 2.1365557,-0.9976662 2.1330006,-1.0051828 2.1305569,-1.0131454 2.128996,-1.0214621 2.1273454,-1.0386858 2.1273454,-1.0386858 2.1281206,-1.0498836 2.1299271,-1.060819 2.1334875,-1.071308 2.138123,-1.0815234 2.138123,-1.0815234 2.1438326,-1.0902275 2.1502319,-1.0982857 2.1578026,-1.1052471 2.1660903,-1.111537 2.1600876,-1.1576489 1.9546306,-1.1189041 1.9546306,-0.9199955 2.001561,-0.9199955 2.001561,-1.0796135 2.1090644,-1.1011687 2.1090644,-1.1011687 2.0987428,-1.083598 2.0942582,-1.0745913 2.0905849,-1.0653191 2.0879285,-1.0557141 2.0861297,-1.0458283 2.0839621,-1.0255889 2.0839621,-1.0255889 2.0867233,-1.0008868 2.0891744,-0.9889769 2.09291,-0.9775965 2.0982261,-0.9668675 2.1048444,-0.9566752 2.1202513,-0.9371851 2.1202513,-0.9371851 2.1409733,-0.9215515 2.151789,-0.9148909 2.16315,-0.9096174 2.1751555,-0.9059827 2.187674,-0.903653 2.2135664,-0.9011687 2.2135664,-0.9011687 2.2389467,-0.9034636 2.2513148,-0.9055558 2.2632964,-0.9087817 2.2747973,-0.9134177 2.2858969,-0.9192309 2.3074273,-0.9328195 2.3074273,-0.9328195 2.3181762,-0.9437588 2.3283193,-0.9549821 2.3372505,-0.966773 2.3443641,-0.9794155 2.3493055,-0.9930757 2.3525037,-1.0075525 2.3545398,-1.0225737 2.3559948,-1.0378672 2.3559948,-1.0378672 2.3540335,-1.0621423 2.3521158,-1.0739492 2.3490737,-1.0853594 2.3446031,-1.0962656 2.3388994,-1.1067366 2.3254354,-1.1269532 2.3254354,-1.1269532 2.3078828,-1.1423001 2.2986359,-1.1490191 2.2888245,-1.1545929 2.2783428,-1.158807 2.2673255,-1.1619348 2.2443986,-1.1663802 2.240033,-1.1148113z" transform="matrix(1,0,0,-1,3.529262,3.65)" fill="rgb(116,116,116)" fill-rule="nonzero" shaper:cutDepth="0.05cm" stroke-linecap="round" stroke-linejoin="round" /><path d="M2.1822928,1.2425768 L2.1822928,0.9781838 2.1822928,0.9781838 2.173568,0.9784388 2.164951,0.9793346 2.1565144,0.9813018 2.1481863,0.9839137 2.1481863,0.9839137 2.1339135,0.9903844 2.1201885,0.9977647 2.1073339,1.0065897 2.0949804,1.0162466 2.0949804,1.0162466 2.0788488,1.0313698 2.0633056,1.0470531 2.0486213,1.0635542 2.0344074,1.0805031 2.0344074,1.0805031 2.0148243,1.1041038 1.9944658,1.1269431 1.9726344,1.1483363 1.949687,1.168634 1.949687,1.168634 1.9361045,1.1775524 1.9291228,1.1814996 1.9219127,1.1848322 1.9144054,1.1873658 1.9066267,1.1891692 1.8906147,1.1915536 1.8906147,1.1915536 1.8767733,1.1899379 1.8701127,1.188517 1.8637644,1.1863606 1.8577985,1.1833029 1.8521464,1.1795061 1.8413651,1.1706804 1.8413651,1.1706804 1.8325727,1.1584997 1.828841,1.1521583 1.8259062,1.1455157 1.8239007,1.1385221 1.8226294,1.131251 1.8213105,1.1162466 1.8213105,1.1162466 1.8226791,1.1005335 1.8240158,1.0929287 1.8261352,1.0856258 1.8292487,1.0787066 1.83322,1.0721182 1.8425929,1.0594935 1.8425929,1.0594935 1.8557462,1.049947 1.8626056,1.0459172 1.8698035,1.0427782 1.8773856,1.0406497 1.8852671,1.0393084 1.9015288,1.0379383 1.8963446,0.9874608 1.8963446,0.9874608 1.8721482,0.9915071 1.8604862,0.994461 1.8493477,0.9985319 1.8388817,1.0040377 1.8290103,1.010812 1.81026,1.0264785 1.81026,1.0264785 1.7969829,1.0471999 1.7913974,1.0579178 1.7870734,1.0690638 1.7841749,1.0806933 1.7823857,1.0926992 1.7806557,1.117338 1.7806557,1.117338 1.7825686,1.1423284 1.7845171,1.1544627 1.7876562,1.1661639 1.7923212,1.1773101 1.7983275,1.1879683 1.8125793,1.2084703 1.8125793,1.2084703 1.8298767,1.2226992 1.8389505,1.2288145 1.8485345,1.2337308 1.8587386,1.2371898 1.8694474,1.2394625 1.8917061,1.2420311 1.8917061,1.2420311 1.9038487,1.2412279 1.9158031,1.2395151 1.927448,1.2363055 1.9389094,1.2322084 1.9389094,1.2322084 1.9520336,1.225445 1.9646285,1.217878 1.9764157,1.2090843 1.9877498,1.1996027 1.9877498,1.1996027 2.0062284,1.1815007 2.0241593,1.1628837 2.0581454,1.1238864 2.0581454,1.1238864 2.0827056,1.0949622 2.1084865,1.0671334 2.1084865,1.0671334 2.1212469,1.056068 2.1350895,1.0463967 2.1350895,1.2425768 2.1822928,1.2425768z" transform="matrix(1,0,0,-1,3.529262,3.65)" fill="rgb(116,116,116)" fill-rule="nonzero" shaper:cutDepth="0.05cm" stroke-linecap="round" stroke-linejoin="round" /><path d="M0.0217464,2.0702398 L0.0217464,1.8967064 -0.023274,1.8967064 -0.2824828,2.0792439 -0.2824828,2.119353 -0.023274,2.119353 -0.023274,2.1733776 0.0217464,2.1733776 0.0217464,2.119353 0.1175173,2.119353 0.1175173,2.0702398 0.0217464,2.0702398z M-0.2036287,2.0702398 L-0.023274,1.945001 -0.023274,2.0702398 -0.2036287,2.0702398z" transform="matrix(1,0,0,-1,3.529262,3.65)" fill="rgb(116,116,116)" fill-rule="nonzero" shaper:cutDepth="0.05cm" stroke-linecap="round" stroke-linejoin="round" /><path d="M-1.4536158,-2.2429779 L-1.4536158,-2.2429779 -1.4378576,-2.239619 -1.4302373,-2.2374085 -1.4229274,-2.2345608 -1.41602,-2.2308873 -1.4094767,-2.2264665 -1.3969992,-2.2163749 -1.3969992,-2.2163749 -1.3889082,-2.2050607 -1.3854389,-2.1991849 -1.382661,-2.1930469 -1.3807175,-2.1865923 -1.3794488,-2.1798817 -1.378036,-2.1660339 -1.378036,-2.1660339 -1.3801775,-2.1490111 -1.3820264,-2.140845 -1.3848092,-2.1330932 -1.3887256,-2.1258445 -1.3935636,-2.1190047 -1.4047755,-2.1060066 -1.4047755,-2.1060066 -1.4208062,-2.0951055 -1.4291245,-2.0905011 -1.4378057,-2.0869108 -1.4469032,-2.0844833 -1.4563267,-2.0829663 -1.4757168,-2.08145 -1.4757168,-2.08145 -1.49395,-2.0828663 -1.5027955,-2.0843077 -1.5113158,-2.086629 -1.5194193,-2.090078 -1.5271565,-2.0945179 -1.5420197,-2.1050516 -1.5420197,-2.1050516 -1.5525935,-2.1186952 -1.5570932,-2.1258329 -1.5606483,-2.1333495 -1.563092,-2.141312 -1.5646529,-2.1496287 -1.5663034,-2.1668524 -1.5663034,-2.1668524 -1.5655283,-2.1780503 -1.5637217,-2.1889857 -1.5601614,-2.1994747 -1.5555258,-2.2096901 -1.5555258,-2.2096901 -1.5498163,-2.2183942 -1.5434169,-2.2264524 -1.5358463,-2.2334138 -1.5275585,-2.2397037 -1.5335613,-2.2858156 -1.7390183,-2.2470707 -1.7390183,-2.0481621 -1.6920879,-2.0481621 -1.6920879,-2.2077801 -1.5845845,-2.2293354 -1.5845845,-2.2293354 -1.594906,-2.2117646 -1.5993907,-2.202758 -1.6030639,-2.1934857 -1.6057204,-2.1838807 -1.6075191,-2.173995 -1.6096868,-2.1537556 -1.6096868,-2.1537556 -1.6069255,-2.1290535 -1.6044744,-2.1171436 -1.6007388,-2.1057632 -1.5954228,-2.0950341 -1.5888045,-2.0848418 -1.5733976,-2.0653517 -1.5733976,-2.0653517 -1.5526755,-2.0497182 -1.5418599,-2.0430576 -1.5304989,-2.037784 -1.5184934,-2.0341494 -1.5059748,-2.0318197 -1.4800824,-2.0293354 -1.4800824,-2.0293354 -1.4547022,-2.0316302 -1.4423341,-2.0337224 -1.4303525,-2.0369483 -1.4188516,-2.0415844 -1.407752,-2.0473976 -1.3862216,-2.0609861 -1.3862216,-2.0609861 -1.3754726,-2.0719255 -1.3653296,-2.0831487 -1.3563984,-2.0949397 -1.3492848,-2.1075822 -1.3443434,-2.1212423 -1.3411451,-2.1357191 -1.3391091,-2.1507404 -1.3376541,-2.1660339 -1.3376541,-2.1660339 -1.3396154,-2.190309 -1.341533,-2.2021159 -1.3445752,-2.2135261 -1.3490458,-2.2244322 -1.3547495,-2.2349033 -1.3682134,-2.2551198 -1.3682134,-2.2551198 -1.3857661,-2.2704668 -1.3950129,-2.2771858 -1.4048244,-2.2827596 -1.4153061,-2.2869737 -1.4263233,-2.2901015 -1.4492502,-2.2945468 -1.4536158,-2.2429779z" transform="matrix(1,0,0,-1,3.529262,3.65)" fill="rgb(116,116,116)" fill-rule="nonzero" shaper:cutDepth="0.05cm" stroke-linecap="round" stroke-linejoin="round" /><path d="M-0.1878966,-0.0943399 L-0.1878966,-0.2678733 -0.232917,-0.2678733 -0.4921258,-0.0853358 -0.4921258,-0.0452267 -0.232917,-0.0452267 -0.232917,0.0087979 -0.1878966,0.0087979 -0.1878966,-0.0452267 -0.0921258,-0.0452267 -0.0921258,-0.0943399 -0.1878966,-0.0943399z M-0.4132717,-0.0943399 L-0.232917,-0.2195787 -0.232917,-0.0943399 -0.4132717,-0.0943399z" transform="matrix(1,0,0,-1,3.529262,3.65)" fill="rgb(116,116,116)" fill-rule="nonzero" shaper:cutDepth="0.05cm" stroke-linecap="round" stroke-linejoin="round" /><path d="M0.9292619,-3.3807675 L0.4598213,-3.3807675 0.4598213,-3.3807675 0.4738957,-3.397195 0.4871677,-3.4142115 0.4992136,-3.4321279 0.5105716,-3.4505493 0.5105716,-3.4505493 0.5212301,-3.4693827 0.5312975,-3.4885038 0.5403111,-3.5081376 0.5486344,-3.5281073 0.4774202,-3.5281073 0.4774202,-3.5281073 0.4625057,-3.4993392 0.4545988,-3.4852493 0.4461522,-3.4715124 0.4370313,-3.4582165 0.4273438,-3.4452911 0.4070245,-3.4200581 0.4070245,-3.4200581 0.3890173,-3.4011347 0.3796854,-3.3920823 0.3699596,-3.3835209 0.359721,-3.3755988 0.349012,-3.3682631 0.3268063,-3.3545738 0.3268063,-3.3070977 0.9292619,-3.3070977 0.9292619,-3.3807675z" transform="matrix(1,0,0,-1,3.529262,3.65)" fill="rgb(116,116,116)" fill-rule="nonzero" shaper:cutDepth="0.05cm" stroke-linecap="round" stroke-linejoin="round" /><path d="M0.5560013,-3.0729913 L0.5560013,-3.0729913 0.538621,-3.0826192 0.5297136,-3.0867156 0.5205457,-3.089951 0.5110713,-3.0921741 0.5013537,-3.0935934 0.4815129,-3.0950922 0.4815129,-3.0950922 0.4658923,-3.0935495 0.4505085,-3.0914537 0.4355984,-3.0882517 0.4213987,-3.0833905 0.4080699,-3.0764957 0.3954555,-3.0679325 0.3833174,-3.058257 0.3714174,-3.0480254 0.3714174,-3.0480254 0.361234,-3.0340651 0.3516609,-3.0198803 0.3433082,-3.0052466 0.3367845,-2.9899402 0.3323648,-2.97386 0.3295952,-2.9571727 0.3268063,-2.9227867 0.3268063,-2.9227867 0.3297147,-2.888011 0.3325702,-2.871144 0.3371072,-2.8549018 0.3437825,-2.8394543 0.3523071,-2.8246941 0.3620654,-2.8103925 0.3724406,-2.79632 0.3724406,-2.79632 0.3844518,-2.7859676 0.3967024,-2.7761716 0.4094317,-2.7674883 0.4228791,-2.7604742 0.4372066,-2.7555059 0.4522563,-2.7522162 0.4677874,-2.7500457 0.4835593,-2.7484347 0.4835593,-2.7484347 0.5029247,-2.7499745 0.5124059,-2.7514026 0.5216455,-2.7536207 0.5305827,-2.7568273 0.5392653,-2.7608661 0.556206,-2.770331 0.556206,-2.770331 0.5716239,-2.7844008 0.5787081,-2.7918926 0.5850435,-2.7999316 0.5905283,-2.8085925 0.5953497,-2.8177384 0.6038867,-2.8368385 0.6038867,-2.8368385 0.6137936,-2.8125691 0.6195112,-2.8009705 0.6261459,-2.7900153 0.6339434,-2.7798758 0.642741,-2.7704379 0.6620041,-2.7527321 0.6620041,-2.7527321 0.6843117,-2.7401909 0.695751,-2.7348505 0.7075327,-2.7306259 0.7197184,-2.7277175 0.7322254,-2.7258561 0.7577749,-2.7238781 0.7577749,-2.7238781 0.7760693,-2.725642 0.794093,-2.7280471 0.8115752,-2.7317345 0.8200288,-2.7342595 0.8282454,-2.7373456 0.8362014,-2.7410492 0.843918,-2.7453197 0.85877,-2.7552373 0.873075,-2.7664507 0.8871064,-2.7783119 0.8871064,-2.7783119 0.8989831,-2.7942144 0.9101576,-2.810381 0.9199276,-2.8270756 0.9240665,-2.8357034 0.9275922,-2.8445617 0.9328135,-2.8629666 0.9361098,-2.8820952 0.9381227,-2.9017064 0.9394938,-2.9215588 0.9394938,-2.9215588 0.9381132,-2.9414243 0.9360886,-2.9610469 0.9327763,-2.9801835 0.9304361,-2.9894937 0.9275324,-2.9985913 0.9239923,-3.0074487 0.9198375,-3.0160742 0.9100322,-3.0327608 0.8988189,-3.0489161 0.8869017,-3.0648058 0.8869017,-3.0648058 0.8726434,-3.0767304 0.8581101,-3.0879966 0.8430269,-3.0979459 0.8351931,-3.102221 0.8271187,-3.1059199 0.8187839,-3.108995 0.8102134,-3.1115061 0.7925005,-3.1151583 0.7742491,-3.1175213 0.7557285,-3.1192396 0.7557285,-3.1192396 0.7295102,-3.1173287 0.7166838,-3.1154641 0.7041968,-3.1125084 0.6921406,-3.1081672 0.6804561,-3.1026314 0.6577066,-3.089567 0.6577066,-3.089567 0.6391769,-3.0717162 0.6308016,-3.0622161 0.6234936,-3.0520267 0.6174361,-3.0410294 0.6123692,-3.0293923 0.6038867,-3.0050513 0.6038867,-3.0050513 0.5954067,-3.0245499 0.5905978,-3.0338897 0.5851062,-3.0427379 0.578737,-3.0509543 0.5715909,-3.0586113 0.5560013,-3.0729913z M0.81712,-3.0285847 L0.81712,-3.0285847 0.83089,-3.0199132 0.8373711,-3.0151618 0.8433676,-3.0099117 0.8487745,-3.0040549 0.8537013,-2.9977038 0.8627544,-2.9841782 0.8627544,-2.9841782 0.8695922,-2.9690324 0.8749018,-2.9534965 0.8776712,-2.9373123 0.8789209,-2.9207403 0.8789209,-2.9207403 0.8765181,-2.8965376 0.8742968,-2.8848397 0.8708517,-2.8736258 0.8658767,-2.863017 0.8596158,-2.8529168 0.8449509,-2.8335642 0.8449509,-2.8335642 0.825871,-2.8187516 0.815896,-2.8124231 0.8053991,-2.8073879 0.7942797,-2.8038951 0.7826614,-2.8016384 0.7585934,-2.799185 0.7585934,-2.799185 0.7340337,-2.8017444 0.7221843,-2.8040815 0.7108515,-2.8076877 0.7001616,-2.8128731 0.6900089,-2.8193781 0.6705989,-2.8345875 0.6705989,-2.8345875 0.6556548,-2.8542582 0.649263,-2.8645227 0.6441674,-2.8753021 0.6406235,-2.8866977 0.6383264,-2.8985887 0.6358104,-2.9231959 0.6358104,-2.9231959 0.6382953,-2.9472012 0.6405647,-2.9587891 0.6440665,-2.9698795 0.6491021,-2.9803505 0.6554192,-2.9903041 0.6701896,-3.0093487 0.6701896,-3.0093487 0.6892227,-3.0240004 0.6991629,-3.0302717 0.7096115,-3.0352775 0.7206701,-3.038765 0.7322199,-3.0410302 0.7561378,-3.0435233 0.7561378,-3.0435233 0.7719951,-3.0423018 0.7875157,-3.0396971 0.8024821,-3.0348157 0.81712,-3.0285847z M0.5486344,-2.9923637 L0.5486344,-2.9923637 0.5604202,-2.9765117 0.5654317,-2.9682439 0.5693859,-2.9595661 0.5720991,-2.9504072 0.5738283,-2.9408666 0.5756466,-2.9211496 0.5756466,-2.9211496 0.5737949,-2.9018063 0.5720598,-2.8924514 0.5693537,-2.8834763 0.5654285,-2.8749783 0.5604718,-2.8668839 0.548839,-2.8513678 0.548839,-2.8513678 0.5343826,-2.8398328 0.5268181,-2.8348745 0.5188501,-2.8308875 0.5103912,-2.8280815 0.5015328,-2.8262371 0.48315,-2.8241509 0.48315,-2.8241509 0.4640937,-2.826273 0.4549078,-2.8281622 0.4461328,-2.831045 0.4378638,-2.835152 0.4300124,-2.840269 0.4150055,-2.8521864 0.4150055,-2.8521864 0.4031708,-2.8676615 0.3981038,-2.875739 0.394057,-2.8842245 0.3912358,-2.8931999 0.3894018,-2.90257 0.3873792,-2.9219681 0.3873792,-2.9219681 0.3893018,-2.9413553 0.3910729,-2.9507319 0.3938158,-2.9597282 0.397772,-2.9682497 0.4027462,-2.9763726 0.4143915,-2.9919545 0.4143915,-2.9919545 0.4285479,-3.0036053 0.4359667,-3.0086356 0.4437941,-3.0127117 0.4521251,-3.0156121 0.4608716,-3.0175422 0.4790573,-3.0197853 0.4790573,-3.0197853 0.4984342,-3.0178748 0.5077915,-3.0160934 0.5167512,-3.0133206 0.5252127,-3.0093052 0.5332536,-3.0042408 0.5486344,-2.9923637z" transform="matrix(1,0,0,-1,3.529262,3.65)" fill="rgb(116,116,116)" fill-rule="nonzero" shaper:cutDepth="0.05cm" stroke-linecap="round" stroke-linejoin="round" /><path d="M1.5822927,0.7742957 a0.15,0.15 0 1,1 0.3,0 a0.15,0.15 0 1,1 -0.3,0z" transform="matrix(1,0,0,-1,3.529262,3.65)" fill="rgb(255,255,255)" stroke="rgb(0,0,0)" stroke-width="0.0010cm" stroke-linecap="round" stroke-linejoin="round" shaper:cutDepth="0.3cm" /><path d="M-0.6921258,-0.460711 a0.15,0.15 0 1,1 0.3,0 a0.15,0.15 0 1,1 -0.3,0z" transform="matrix(1,0,0,-1,3.529262,3.65)" fill="rgb(255,255,255)" stroke="rgb(0,0,0)" stroke-width="0.0010cm" stroke-linecap="round" stroke-linejoin="round" shaper:cutDepth="0.3cm" /><path d="M-1.9417468,-2.5011635 a0.15,0.15 0 1,1 0.3,0 a0.15,0.15 0 1,1 -0.3,0z" transform="matrix(1,0,0,-1,3.529262,3.65)" fill="rgb(255,255,255)" stroke="rgb(0,0,0)" stroke-width="0.0010cm" stroke-linecap="round" stroke-linejoin="round" shaper:cutDepth="0.3cm" /><path d="M-0.4824828,1.7038687 a0.15,0.15 0 1,1 0.3,0 a0.15,0.15 0 1,1 -0.3,0z" transform="matrix(1,0,0,-1,3.529262,3.65)" fill="rgb(255,255,255)" stroke="rgb(0,0,0)" stroke-width="0.0010cm" stroke-linecap="round" stroke-linejoin="round" shaper:cutDepth="0.3cm" /><path d="M1.751902,-1.3729968 a0.15,0.15 0 1,1 0.3,0 a0.15,0.15 0 1,1 -0.3,0z" transform="matrix(1,0,0,-1,3.529262,3.65)" fill="rgb(255,255,255)" stroke="rgb(0,0,0)" stroke-width="0.0010cm" stroke-linecap="round" stroke-linejoin="round" shaper:cutDepth="0.3cm" /><path d="M-2.5342727,1.25 L-2.5342727,-1.25 -2.2342727,-1.25 -2.2342727,1.25 -2.5342727,1.25z" transform="matrix(1,0,0,-1,3.529262,3.65)" fill="rgb(255,255,255)" stroke="rgb(0,0,0)" stroke-width="0.0010cm" stroke-linecap="round" stroke-linejoin="round" shaper:cutDepth="0.3cm" /><path d="M2.979262,-3.25 a0.15,0.15 0 1,1 0.3,0 a0.15,0.15 0 1,1 -0.3,0z" transform="matrix(1,0,0,-1,3.529262,3.65)" fill="rgb(255,255,255)" stroke="rgb(0,0,0)" stroke-width="0.0010cm" stroke-linecap="round" stroke-linejoin="round" shaper:cutDepth="0.3cm" /><path d="M-1.520738,3.25 a0.15,0.15 0 1,1 0.3,0 a0.15,0.15 0 1,1 -0.3,0z" transform="matrix(1,0,0,-1,3.529262,3.65)" fill="rgb(255,255,255)" stroke="rgb(0,0,0)" stroke-width="0.0010cm" stroke-linecap="round" stroke-linejoin="round" shaper:cutDepth="0.3cm" /><path d="M2.979262,3.25 a0.15,0.15 0 1,1 0.3,0 a0.15,0.15 0 1,1 -0.3,0z" transform="matrix(1,0,0,-1,3.529262,3.65)" fill="rgb(255,255,255)" stroke="rgb(0,0,0)" stroke-width="0.0010cm" stroke-linecap="round" stroke-linejoin="round" shaper:cutDepth="0.3cm" /><path d="M-1.520738,-3.25 a0.15,0.15 0 1,1 0.3,0 a0.15,0.15 0 1,1 -0.3,0z" transform="matrix(1,0,0,-1,3.529262,3.65)" fill="rgb(255,255,255)" stroke="rgb(0,0,0)" stroke-width="0.0010cm" stroke-linecap="round" stroke-linejoin="round" shaper:cutDepth="0.3cm" /><path d="M-2.1707381,2 L-0.870738,2 -0.870738,2.7500001 -2.1707381,2.7500001 A0.3,0.3 90 0,1 -2.4707381,2.4500001 L-2.4707381,2.3 A0.3,0.3 180 0,1 -2.1707381,2z" transform="matrix(1,0,0,-1,3.529262,3.65)" fill="rgb(255,255,255)" stroke="rgb(0,0,0)" stroke-width="0.0010cm" stroke-linecap="round" stroke-linejoin="round" shaper:cutDepth="0.3cm" /></svg>