<?xml version="1.0" encoding="utf-8"?>
<!-- Generator: Fusion 360, Shaper Origin Export Add-In, Version 1.7.0  -->
<svg xmlns="http://www.w3.org/2000/svg" xmlns:xlink="http://www.w3.org/1999/xlink" xmlns:shaper="http://www.shapertools.com/namespaces/shaper" shaper:fusionaddin="version:1.7.0" width="7.058524cm" height="7.3cm" version="1.1" x="0cm" y="0cm" viewBox="0 0 7.058524 7.3" enable-background="new 0 0 7.058524 7.3" xml:space="preserve"><path d="M-3.529262,-2.0046781 L-1.8572407,-3.5690658 A0.3,0.3 226.9047902 0,1 -1.6522768,-3.65 L3.229262,-3.65 A0.3,0.3 270 0,1 3.529262,-3.35 L3.529262,-2.7885309 3.229262,-2.7885309 3.229262,-0.7885309 3.529262,-0.7885309 3.529262,3.35 A0.3,0.3 0 0,1 3.229262,3.65 L-1.6522768,3.65 A0.3,0.3 90 0,1 -1.8572407,3.5690658 L-3.529262,2.0046781 -3.529262,1.65 -3.2342727,1.65 -3.2342727,-1.65 -3.529262,-1.65 -3.529262,-2.0046781z" transform="matrix(1,0,0,-1,3.529262,3.65)" fill="rgb(0,0,0)" shaper:cutDepth="0.3cm" stroke-linecap="round" stroke-linejoin="round" /><path d="M1.8171071,-2.3296645 L1.8171071,-2.5031979 1.7720867,-2.5031979 1.5128779,-2.3206604 1.5128779,-2.2805513 1.7720867,-2.2805513 1.7720867,-2.2265267 1.8171071,-2.2265267 1.8171071,-2.2805513 1.9128779,-2.2805513 1.9128779,-2.3296645 1.8171071,-2.3296645z M1.5917319,-2.3296645 L1.7720867,-2.4549032 1.7720867,-2.3296645 1.5917319,-2.3296645z" transform="matrix(1,0,0,-1,3.529262,3.65)" fill="rgb(116,116,116)" fill-rule="nonzero" shaper:cutDepth="0.05cm" stroke-linecap="round" stroke-linejoin="round" /><path d="M0.8270438,0.1813723 L0.8270438,0.1813723 0.842802,0.1847313 0.8504224,0.1869418 0.8577322,0.1897894 0.8646397,0.193463 0.871183,0.1978838 0.8836605,0.2079753 0.8836605,0.2079753 0.8917514,0.2192896 0.8952207,0.2251653 0.8979986,0.2313034 0.8999421,0.237758 0.9012108,0.2444685 0.9026236,0.2583164 0.9026236,0.2583164 0.9004822,0.2753392 0.8986332,0.2835053 0.8958505,0.291257 0.8919341,0.2985058 0.8870961,0.3053456 0.8758842,0.3183437 0.8758842,0.3183437 0.8598534,0.3292447 0.8515352,0.3338492 0.8428539,0.3374395 0.8337564,0.339867 0.824333,0.3413839 0.8049429,0.3429003 0.8049429,0.3429003 0.7867097,0.341484 0.7778642,0.3400425 0.7693439,0.3377212 0.7612403,0.3342722 0.7535031,0.3298323 0.73864,0.3192986 0.73864,0.3192986 0.7280661,0.305655 0.7235665,0.2985174 0.7200113,0.2910008 0.7175677,0.2830382 0.7160068,0.2747215 0.7143562,0.2574978 0.7143562,0.2574978 0.7151314,0.2463 0.7169379,0.2353646 0.7204983,0.2248756 0.7251338,0.2146602 0.7251338,0.2146602 0.7308434,0.2059561 0.7372427,0.1978979 0.7448134,0.1909365 0.7531011,0.1846465 0.7470984,0.1385347 0.5416414,0.1772795 0.5416414,0.3761881 0.5885718,0.3761881 0.5885718,0.2165701 0.6960752,0.1950149 0.6960752,0.1950149 0.6857536,0.2125856 0.681269,0.2215923 0.6775957,0.2308645 0.6749392,0.2404695 0.6731405,0.2503553 0.6709729,0.2705947 0.6709729,0.2705947 0.6737341,0.2952968 0.6761852,0.3072066 0.6799208,0.3185871 0.6852369,0.3293161 0.6918552,0.3395084 0.7072621,0.3589985 0.7072621,0.3589985 0.7279841,0.374632 0.7387998,0.3812927 0.7501608,0.3865662 0.7621663,0.3902009 0.7746848,0.3925306 0.8005772,0.3950149 0.8005772,0.3950149 0.8259575,0.39272 0.8383256,0.3906278 0.8503072,0.3874019 0.8618081,0.3827659 0.8729077,0.3769527 0.8944381,0.3633641 0.8944381,0.3633641 0.905187,0.3524248 0.9153301,0.3412015 0.9242613,0.3294106 0.9313749,0.3167681 0.9363163,0.3031079 0.9395145,0.2886311 0.9415506,0.2736099 0.9430056,0.2583164 0.9430056,0.2583164 0.9410443,0.2340413 0.9391266,0.2222344 0.9360845,0.2108242 0.9316139,0.199918 0.9259102,0.189447 0.9124462,0.1692304 0.9124462,0.1692304 0.8948936,0.1538835 0.8856467,0.1471645 0.8758353,0.1415907 0.8653536,0.1373766 0.8543363,0.1342487 0.8314094,0.1298034 0.8270438,0.1813723z" transform="matrix(1,0,0,-1,3.529262,3.65)" fill="rgb(116,116,116)" fill-rule="nonzero" shaper:cutDepth="0.05cm" stroke-linecap="round" stroke-linejoin="round" /><path d="M-1.0696339,-2.1530252 L-1.0696339,-2.1530252 -1.0538757,-2.1496662 -1.0462553,-2.1474557 -1.0389455,-2.1446081 -1.0320381,-2.1409345 -1.0254948,-2.1365137 -1.0130173,-2.1264222 -1.0130173,-2.1264222 -1.0049263,-2.1151079 -1.001457,-2.1092321 -0.9986791,-2.1030941 -0.9967356,-2.0966395 -0.9954669,-2.0899289 -0.9940541,-2.0760811 -0.9940541,-2.0760811 -0.9961956,-2.0590583 -0.9980445,-2.0508922 -1.0008272,-2.0431404 -1.0047436,-2.0358917 -1.0095816,-2.0290519 -1.0207935,-2.0160538 -1.0207935,-2.0160538 -1.0368243,-2.0051528 -1.0451425,-2.0005483 -1.0538238,-1.996958 -1.0629213,-1.9945305 -1.0723448,-1.9930136 -1.0917349,-1.9914972 -1.0917349,-1.9914972 -1.109968,-1.9929135 -1.1188136,-1.9943549 -1.1273339,-1.9966763 -1.1354374,-2.0001252 -1.1431746,-2.0045651 -1.1580377,-2.0150989 -1.1580377,-2.0150989 -1.1686116,-2.0287424 -1.1731112,-2.0358801 -1.1766664,-2.0433967 -1.17911,-2.0513592 -1.1806709,-2.059676 -1.1823215,-2.0768997 -1.1823215,-2.0768997 -1.1815464,-2.0880975 -1.1797398,-2.0990329 -1.1761794,-2.1095219 -1.1715439,-2.1197373 -1.1715439,-2.1197373 -1.1658343,-2.1284414 -1.159435,-2.1364996 -1.1518643,-2.143461 -1.1435766,-2.1497509 -1.1495793,-2.1958628 -1.3550364,-2.1571179 -1.3550364,-1.9582094 -1.308106,-1.9582094 -1.308106,-2.1178273 -1.2006025,-2.1393826 -1.2006025,-2.1393826 -1.2109241,-2.1218118 -1.2154087,-2.1128052 -1.219082,-2.103533 -1.2217385,-2.093928 -1.2235372,-2.0840422 -1.2257049,-2.0638028 -1.2257049,-2.0638028 -1.2229436,-2.0391007 -1.2204925,-2.0271908 -1.2167569,-2.0158104 -1.2114408,-2.0050814 -1.2048226,-1.9948891 -1.1894156,-1.975399 -1.1894156,-1.975399 -1.1686936,-1.9597654 -1.157878,-1.9531048 -1.1465169,-1.9478312 -1.1345115,-1.9441966 -1.1219929,-1.9418669 -1.0961005,-1.9393826 -1.0961005,-1.9393826 -1.0707202,-1.9416775 -1.0583521,-1.9437697 -1.0463705,-1.9469956 -1.0348696,-1.9516316 -1.02377,-1.9574448 -1.0022397,-1.9710333 -1.0022397,-1.9710333 -0.9914907,-1.9819727 -0.9813476,-1.9931959 -0.9724164,-2.0049869 -0.9653029,-2.0176294 -0.9603614,-2.0312895 -0.9571632,-2.0457663 -0.9551271,-2.0607876 -0.9536721,-2.0760811 -0.9536721,-2.0760811 -0.9556334,-2.1003562 -0.9575511,-2.1121631 -0.9605932,-2.1235733 -0.9650639,-2.1344794 -0.9707676,-2.1449505 -0.9842315,-2.165167 -0.9842315,-2.165167 -1.0017842,-2.180514 -1.011031,-2.187233 -1.0208424,-2.1928068 -1.0313242,-2.1970209 -1.0423414,-2.2001487 -1.0652683,-2.2045941 -1.0696339,-2.1530252z" transform="matrix(1,0,0,-1,3.529262,3.65)" fill="rgb(116,116,116)" fill-rule="nonzero" shaper:cutDepth="0.05cm" stroke-linecap="round" stroke-linejoin="round" /><path d="M-1.2492092,0.1295541 L-1.2492092,-0.1348388 -1.2492092,-0.1348388 -1.257934,-0.1345838 -1.2665509,-0.133688 -1.2749875,-0.1317209 -1.2833156,-0.1291089 -1.2833156,-0.1291089 -1.2975885,-0.1226382 -1.3113134,-0.115258 -1.3241681,-0.106433 -1.3365216,-0.096776 -1.3365216,-0.096776 -1.3526531,-0.0816528 -1.3681964,-0.0659695 -1.3828807,-0.0494684 -1.3970946,-0.0325195 -1.3970946,-0.0325195 -1.4166776,-0.0089189 -1.4370361,0.0139205 -1.4588676,0.0353137 -1.4818149,0.0556114 -1.4818149,0.0556114 -1.4953974,0.0645298 -1.5023791,0.0684769 -1.5095893,0.0718096 -1.5170965,0.0743431 -1.5248752,0.0761466 -1.5408872,0.0785309 -1.5408872,0.0785309 -1.5547287,0.0769152 -1.5613892,0.0754944 -1.5677376,0.073338 -1.5737034,0.0702803 -1.5793555,0.0664834 -1.5901369,0.0576578 -1.5901369,0.0576578 -1.5989292,0.045477 -1.602661,0.0391356 -1.6055958,0.0324931 -1.6076013,0.0254995 -1.6088725,0.0182284 -1.6101914,0.003224 -1.6101914,0.003224 -1.6088228,-0.0124891 -1.6074862,-0.020094 -1.6053668,-0.0273968 -1.6022532,-0.0343161 -1.598282,-0.0409044 -1.588909,-0.0535291 -1.588909,-0.0535291 -1.5757557,-0.0630757 -1.5688964,-0.0671054 -1.5616984,-0.0702444 -1.5541163,-0.072373 -1.5462349,-0.0737142 -1.5299732,-0.0750844 -1.5351573,-0.1255618 -1.5351573,-0.1255618 -1.5593538,-0.1215155 -1.5710158,-0.1185616 -1.5821543,-0.1144908 -1.5926202,-0.1089849 -1.6024917,-0.1022106 -1.6212419,-0.0865441 -1.6212419,-0.0865441 -1.6345191,-0.0658227 -1.6401045,-0.0551048 -1.6444286,-0.0439589 -1.647327,-0.0323293 -1.6491163,-0.0203235 -1.6508463,0.0043154 -1.6508463,0.0043154 -1.6489334,0.0293057 -1.6469848,0.04144 -1.6438457,0.0531413 -1.6391808,0.0642875 -1.6331744,0.0749457 -1.6189227,0.0954477 -1.6189227,0.0954477 -1.6016253,0.1096765 -1.5925515,0.1157918 -1.5829675,0.1207082 -1.5727634,0.1241671 -1.5620546,0.1264399 -1.5397958,0.1290084 -1.5397958,0.1290084 -1.5276533,0.1282052 -1.5156988,0.1264925 -1.5040539,0.1232828 -1.4925925,0.1191858 -1.4925925,0.1191858 -1.4794684,0.1124224 -1.4668734,0.1048553 -1.4550863,0.0960617 -1.4437522,0.08658 -1.4437522,0.08658 -1.4252735,0.068478 -1.4073426,0.049861 -1.3733565,0.0108638 -1.3733565,0.0108638 -1.3487963,-0.0180604 -1.3230155,-0.0458893 -1.3230155,-0.0458893 -1.3102551,-0.0569546 -1.2964124,-0.0666259 -1.2964124,0.1295541 -1.2492092,0.1295541z" transform="matrix(1,0,0,-1,3.529262,3.65)" fill="rgb(116,116,116)" fill-rule="nonzero" shaper:cutDepth="0.05cm" stroke-linecap="round" stroke-linejoin="round" /><path d="M2.3652776,1.4794995 L2.3652776,1.4794995 2.3810358,1.4828585 2.3886561,1.4850689 2.395966,1.4879166 2.4028734,1.4915901 2.4094167,1.496011 2.4218942,1.5061025 2.4218942,1.5061025 2.4299852,1.5174168 2.4334545,1.5232925 2.4362324,1.5294305 2.4381759,1.5358851 2.4394446,1.5425957 2.4408574,1.5564436 2.4408574,1.5564436 2.4387159,1.5734664 2.436867,1.5816325 2.4340843,1.5893842 2.4301678,1.5966329 2.4253299,1.6034727 2.414118,1.6164708 2.414118,1.6164708 2.3980872,1.6273719 2.389769,1.6319764 2.3810877,1.6355666 2.3719902,1.6379941 2.3625667,1.6395111 2.3431766,1.6410275 2.3431766,1.6410275 2.3249435,1.6396112 2.3160979,1.6381697 2.3075776,1.6358484 2.2994741,1.6323994 2.2917369,1.6279595 2.2768738,1.6174258 2.2768738,1.6174258 2.2662999,1.6037822 2.2618003,1.5966446 2.2582451,1.5891279 2.2558015,1.5811654 2.2542406,1.5728487 2.25259,1.555625 2.25259,1.555625 2.2533651,1.5444271 2.2551717,1.5334918 2.2587321,1.5230027 2.2633676,1.5127873 2.2633676,1.5127873 2.2690772,1.5040833 2.2754765,1.4960251 2.2830472,1.4890637 2.2913349,1.4827737 2.2853322,1.4366618 2.0798751,1.4754067 2.0798751,1.6743153 2.1268055,1.6743153 2.1268055,1.5146973 2.234309,1.4931421 2.234309,1.4931421 2.2239874,1.5107128 2.2195028,1.5197195 2.2158295,1.5289917 2.213173,1.5385967 2.2113743,1.5484824 2.2092066,1.5687219 2.2092066,1.5687219 2.2119679,1.593424 2.214419,1.6053338 2.2181546,1.6167143 2.2234707,1.6274433 2.2300889,1.6376356 2.2454959,1.6571257 2.2454959,1.6571257 2.2662179,1.6727592 2.2770335,1.6794199 2.2883946,1.6846934 2.3004,1.6883281 2.3129186,1.6906577 2.338811,1.6931421 2.338811,1.6931421 2.3641913,1.6908472 2.3765594,1.688755 2.388541,1.6855291 2.4000419,1.6808931 2.4111415,1.6750799 2.4326718,1.6614913 2.4326718,1.6614913 2.4434208,1.6505519 2.4535639,1.6393287 2.4624951,1.6275377 2.4696086,1.6148952 2.4745501,1.6012351 2.4777483,1.5867583 2.4797844,1.5717371 2.4812394,1.5564436 2.4812394,1.5564436 2.4792781,1.5321685 2.4773604,1.5203615 2.4743183,1.5089514 2.4698476,1.4980452 2.4641439,1.4875741 2.45068,1.4673576 2.45068,1.4673576 2.4331273,1.4520107 2.4238805,1.4452917 2.4140691,1.4397179 2.4035873,1.4355038 2.3925701,1.4323759 2.3696432,1.4279306 2.3652776,1.4794995z" transform="matrix(1,0,0,-1,3.529262,3.65)" fill="rgb(116,116,116)" fill-rule="nonzero" shaper:cutDepth="0.05cm" stroke-linecap="round" stroke-linejoin="round" /><path d="M0.8140246,-3.3541328 L0.8140246,-3.3541328 0.8389396,-3.3480335 0.8510255,-3.3442426 0.8626657,-3.3395623 0.8737198,-3.3337131 0.8842163,-3.3267512 0.9042701,-3.3109541 0.9042701,-3.3109541 0.9161133,-3.2942378 0.9211826,-3.2855595 0.9252292,-3.276497 0.9280487,-3.2669734 0.9298801,-3.2570786 0.9318963,-3.2366704 0.9318963,-3.2366704 0.9291521,-3.2121448 0.926718,-3.2003195 0.9230095,-3.1890189 0.9177334,-3.178364 0.9111662,-3.1682407 0.89588,-3.1488805 0.89588,-3.1488805 0.8761385,-3.1335885 0.8658265,-3.1270334 0.854985,-3.1217875 0.843505,-3.1181198 0.8315092,-3.1157275 0.8066576,-3.1130687 0.8066576,-3.1130687 0.7833528,-3.1154298 0.7720995,-3.1176041 0.7613252,-3.1209708 0.7511488,-3.1258261 0.7414739,-3.1319303 0.7229604,-3.1462202 0.7229604,-3.1462202 0.7087294,-3.1649194 0.7026551,-3.1746822 0.6978301,-3.1849406 0.6944904,-3.1957885 0.6923383,-3.2071076 0.6900136,-3.2305312 0.6900136,-3.2305312 0.6909118,-3.2436987 0.6924906,-3.2567636 0.6981992,-3.2825094 0.6335334,-3.2743238 0.6335334,-3.2743238 0.634352,-3.2624548 0.634352,-3.2624548 0.6325228,-3.240017 0.6308801,-3.2290105 0.6283634,-3.2182591 0.6247662,-3.2078231 0.6202734,-3.1976484 0.6097954,-3.1777345 0.6097954,-3.1777345 0.5944694,-3.1612625 0.586174,-3.1542654 0.57712,-3.1487544 0.5671789,-3.1449814 0.5565357,-3.1425839 0.5340791,-3.140081 0.5340791,-3.140081 0.5152981,-3.1420879 0.5062446,-3.143908 0.4975955,-3.1467081 0.4894484,-3.1507249 0.4817193,-3.1557546 0.4669577,-3.1675026 0.4669577,-3.1675026 0.4553571,-3.1833034 0.4504233,-3.1915365 0.4465289,-3.2001687 0.4438554,-3.2092696 0.4421504,-3.2187423 0.4403547,-3.2383075 0.4403547,-3.2383075 0.4422688,-3.258065 0.4440365,-3.2676336 0.446777,-3.2768299 0.4507331,-3.2855611 0.4557103,-3.2939015 0.467367,-3.3099309 0.467367,-3.3099309 0.4853685,-3.3239168 0.4947816,-3.3300372 0.5046875,-3.335115 0.5151326,-3.3390516 0.5259926,-3.3421106 0.5484038,-3.3467659 0.535307,-3.4204357 0.535307,-3.4204357 0.5028561,-3.4119563 0.4872484,-3.4065853 0.4723819,-3.3998567 0.4584589,-3.3914003 0.4453531,-3.3814471 0.4205048,-3.3590442 0.4205048,-3.3590442 0.4027682,-3.3319058 0.3952213,-3.3178756 0.3892595,-3.3032922 0.3851625,-3.2880581 0.3825463,-3.2723073 0.3797817,-3.2399446 0.3797817,-3.2399446 0.3813354,-3.2164592 0.382739,-3.2048637 0.3848945,-3.1934449 0.387982,-3.182245 0.3918442,-3.171227 0.4008595,-3.1494944 0.4008595,-3.1494944 0.4121558,-3.1308668 0.4183203,-3.1220257 0.4251043,-3.1137517 0.4326617,-3.1061859 0.4408682,-3.0992142 0.4583629,-3.0862611 0.4583629,-3.0862611 0.4766654,-3.0771082 0.4859919,-3.0731544 0.4955288,-3.0699476 0.5053253,-3.0676628 0.5153364,-3.06614 0.5357162,-3.0643648 0.5357162,-3.0643648 0.5544874,-3.0659638 0.5636913,-3.0673779 0.5726771,-3.0695296 0.5813951,-3.0725873 0.5898928,-3.0763902 0.6065211,-3.0852378 0.6065211,-3.0852378 0.6222696,-3.098142 0.6296044,-3.1050428 0.6362923,-3.1124816 0.6422286,-3.1205457 0.6475721,-3.1291028 0.6572714,-3.1470387 0.6572714,-3.1470387 0.664957,-3.1232158 0.6696421,-3.1118301 0.6753378,-3.1010754 0.6823038,-3.0911136 0.6903464,-3.0818239 0.7082265,-3.0643648 0.7082265,-3.0643648 0.7306589,-3.0513606 0.7421874,-3.0458551 0.7540902,-3.0415447 0.7664258,-3.0386156 0.7791017,-3.0367726 0.8050205,-3.0348968 0.8050205,-3.0348968 0.8239243,-3.0368181 0.8425404,-3.0394094 0.8605807,-3.0433408 0.8692951,-3.0460185 0.8777576,-3.0492824 0.8859449,-3.053187 0.8938813,-3.0576755 0.9091453,-3.0680702 0.923836,-3.0797993 0.9382401,-3.0921956 0.9382401,-3.0921956 0.9504194,-3.1082543 0.9619023,-3.1245801 0.9719923,-3.1414402 0.9762974,-3.150154 0.9799933,-3.1591015 0.9830441,-3.1682964 0.9855188,-3.1777122 0.9890693,-3.1970805 0.9913031,-3.2169538 0.9928786,-3.2370796 0.9928786,-3.2370796 0.9915523,-3.2551433 0.9896565,-3.2729988 0.986622,-3.2904376 0.9818791,-3.3072514 0.974988,-3.3232794 0.966275,-3.338641 0.9563471,-3.3535581 0.9458117,-3.3682529 0.9458117,-3.3682529 0.9327095,-3.3800459 0.9193301,-3.3912763 0.9053961,-3.4013815 0.8906305,-3.4097992 0.8748689,-3.4161957 0.8583065,-3.4209673 0.8412103,-3.4246558 0.8238472,-3.4278027 0.8140246,-3.3541328z" transform="matrix(1,0,0,-1,3.529262,3.65)" fill="rgb(116,116,116)" fill-rule="nonzero" shaper:cutDepth="0.05cm" stroke-linecap="round" stroke-linejoin="round" /><path d="M1.8771466,1.221314 a0.15,0.15 0 1,1 0.3,0 a0.15,0.15 0 1,1 -0.3,0z" transform="matrix(1,0,0,-1,3.529262,3.65)" fill="rgb(255,255,255)" stroke="rgb(0,0,0)" stroke-width="0.0010cm" stroke-linecap="round" stroke-linejoin="round" shaper:cutDepth="0.3cm" /><path d="M-1.8492092,-0.3387269 a0.15,0.15 0 1,1 0.3,0 a0.15,0.15 0 1,1 -0.3,0z" transform="matrix(1,0,0,-1,3.529262,3.65)" fill="rgb(255,255,255)" stroke="rgb(0,0,0)" stroke-width="0.0010cm" stroke-linecap="round" stroke-linejoin="round" shaper:cutDepth="0.3cm" /><path d="M-1.5577649,-2.4112107 a0.15,0.15 0 1,1 0.3,0 a0.15,0.15 0 1,1 -0.3,0z" transform="matrix(1,0,0,-1,3.529262,3.65)" fill="rgb(255,255,255)" stroke="rgb(0,0,0)" stroke-width="0.0010cm" stroke-linecap="round" stroke-linejoin="round" shaper:cutDepth="0.3cm" /><path d="M0.3389128,-0.0768132 a0.15,0.15 0 1,1 0.3,0 a0.15,0.15 0 1,1 -0.3,0z" transform="matrix(1,0,0,-1,3.529262,3.65)" fill="rgb(255,255,255)" stroke="rgb(0,0,0)" stroke-width="0.0010cm" stroke-linecap="round" stroke-linejoin="round" shaper:cutDepth="0.3cm" /><path d="M1.3128779,-2.6960356 a0.15,0.15 0 1,1 0.3,0 a0.15,0.15 0 1,1 -0.3,0z" transform="matrix(1,0,0,-1,3.529262,3.65)" fill="rgb(255,255,255)" stroke="rgb(0,0,0)" stroke-width="0.0010cm" stroke-linecap="round" stroke-linejoin="round" shaper:cutDepth="0.3cm" /><path d="M-2.5342727,1.25 L-2.5342727,-1.25 -2.2342727,-1.25 -2.2342727,1.25 -2.5342727,1.25z" transform="matrix(1,0,0,-1,3.529262,3.65)" fill="rgb(255,255,255)" stroke="rgb(0,0,0)" stroke-width="0.0010cm" stroke-linecap="round" stroke-linejoin="round" shaper:cutDepth="0.3cm" /><path d="M2.979262,-3.25 a0.15,0.15 0 1,1 0.3,0 a0.15,0.15 0 1,1 -0.3,0z" transform="matrix(1,0,0,-1,3.529262,3.65)" fill="rgb(255,255,255)" stroke="rgb(0,0,0)" stroke-width="0.0010cm" stroke-linecap="round" stroke-linejoin="round" shaper:cutDepth="0.3cm" /><path d="M-1.520738,3.25 a0.15,0.15 0 1,1 0.3,0 a0.15,0.15 0 1,1 -0.3,0z" transform="matrix(1,0,0,-1,3.529262,3.65)" fill="rgb(255,255,255)" stroke="rgb(0,0,0)" stroke-width="0.0010cm" stroke-linecap="round" stroke-linejoin="round" shaper:cutDepth="0.3cm" /><path d="M2.979262,3.25 a0.15,0.15 0 1,1 0.3,0 a0.15,0.15 0 1,1 -0.3,0z" transform="matrix(1,0,0,-1,3.529262,3.65)" fill="rgb(255,255,255)" stroke="rgb(0,0,0)" stroke-width="0.0010cm" stroke-linecap="round" stroke-linejoin="round" shaper:cutDepth="0.3cm" /><path d="M-1.520738,-3.25 a0.15,0.15 0 1,1 0.3,0 a0.15,0.15 0 1,1 -0.3,0z" transform="matrix(1,0,0,-1,3.529262,3.65)" fill="rgb(255,255,255)" stroke="rgb(0,0,0)" stroke-width="0.0010cm" stroke-linecap="round" stroke-linejoin="round" shaper:cutDepth="0.3cm" /><path d="M-2.1707381,2 L-0.870738,2 -0.870738,2.7500001 -2.1707381,2.7500001 A0.3,0.3 90 0,1 -2.4707381,2.4500001 L-2.4707381,2.3 A0.3,0.3 180 0,1 -2.1707381,2z" transform="matrix(1,0,0,-1,3.529262,3.65)" fill="rgb(255,255,255)" stroke="rgb(0,0,0)" stroke-width="0.0010cm" stroke-linecap="round" stroke-linejoin="round" shaper:cutDepth="0.3cm" /></svg>