<?xml version="1.0" encoding="utf-8"?>
<!-- Generator: Fusion 360, Shaper Origin Export Add-In, Version 1.7.0  -->
<svg xmlns="http://www.w3.org/2000/svg" xmlns:xlink="http://www.w3.org/1999/xlink" xmlns:shaper="http://www.shapertools.com/namespaces/shaper" shaper:fusionaddin="version:1.7.0" width="7.058524cm" height="7.3cm" version="1.1" x="0cm" y="0cm" viewBox="0 0 7.058524 7.3" enable-background="new 0 0 7.058524 7.3" xml:space="preserve"><path d="M-3.529262,-2.0046781 L-1.8572407,-3.5690658 A0.3,0.3 226.9047902 0,1 -1.6522768,-3.65 L3.229262,-3.65 A0.3,0.3 270 0,1 3.529262,-3.35 L3.529262,-2.7885309 3.229262,-2.7885309 3.229262,-0.7885309 3.529262,-0.7885309 3.529262,3.35 A0.3,0.3 0 0,1 3.229262,3.65 L-1.6522768,3.65 A0.3,0.3 90 0,1 -1.8572407,3.5690658 L-3.529262,2.0046781 -3.529262,1.65 -3.2342727,1.65 -3.2342727,-1.65 -3.529262,-1.65 -3.529262,-2.0046781z" transform="matrix(1,0,0,-1,3.529262,3.65)" fill="rgb(0,0,0)" shaper:cutDepth="0.3cm" stroke-linecap="round" stroke-linejoin="round" /><path d="M0.455729,-1.5779315 L0.455729,-1.8423244 0.455729,-1.8423244 0.4470042,-1.8420695 0.4383872,-1.8411736 0.4299506,-1.8392065 0.4216225,-1.8365945 0.4216225,-1.8365945 0.4073497,-1.8301239 0.3936247,-1.8227436 0.3807701,-1.8139186 0.3684166,-1.8042617 0.3684166,-1.8042617 0.352285,-1.7891385 0.3367418,-1.7734551 0.3220575,-1.7569541 0.3078436,-1.7400052 0.3078436,-1.7400052 0.2882605,-1.7164045 0.267902,-1.6935652 0.2460706,-1.6721719 0.2231233,-1.6518742 0.2231233,-1.6518742 0.2095407,-1.6429558 0.202559,-1.6390087 0.1953489,-1.6356761 0.1878417,-1.6331425 0.1800629,-1.6313391 0.1640509,-1.6289547 0.1640509,-1.6289547 0.1502095,-1.6305704 0.1435489,-1.6319912 0.1372006,-1.6341477 0.1312347,-1.6372054 0.1255826,-1.6410022 0.1148013,-1.6498278 0.1148013,-1.6498278 0.106009,-1.6620086 0.1022772,-1.66835 0.0993424,-1.6749925 0.0973369,-1.6819862 0.0960656,-1.6892572 0.0947467,-1.7042616 0.0947467,-1.7042616 0.0961154,-1.7199748 0.097452,-1.7275796 0.0995714,-1.7348825 0.102685,-1.7418017 0.1066562,-1.74839 0.1160291,-1.7610147 0.1160291,-1.7610147 0.1291824,-1.7705613 0.1360418,-1.7745911 0.1432397,-1.77773 0.1508218,-1.7798586 0.1587033,-1.7811998 0.174965,-1.78257 0.1697808,-1.8330475 0.1697808,-1.8330475 0.1455844,-1.8290012 0.1339224,-1.8260473 0.1227839,-1.8219764 0.1123179,-1.8164706 0.1024465,-1.8096963 0.0836962,-1.7940297 0.0836962,-1.7940297 0.0704191,-1.7733084 0.0648336,-1.7625904 0.0605096,-1.7514445 0.0576112,-1.739815 0.0558219,-1.7278091 0.0540919,-1.7031703 0.0540919,-1.7031703 0.0560048,-1.6781799 0.0579534,-1.6660456 0.0610924,-1.6543444 0.0657574,-1.6431982 0.0717637,-1.63254 0.0860155,-1.6120379 0.0860155,-1.6120379 0.1033129,-1.5978091 0.1123867,-1.5916938 0.1219707,-1.5867775 0.1321748,-1.5833185 0.1428836,-1.5810457 0.1651424,-1.5784772 0.1651424,-1.5784772 0.1772849,-1.5792804 0.1892393,-1.5809931 0.2008842,-1.5842028 0.2123456,-1.5882999 0.2123456,-1.5882999 0.2254698,-1.5950632 0.2380647,-1.6026303 0.2498519,-1.6114239 0.261186,-1.6209056 0.261186,-1.6209056 0.2796647,-1.6390076 0.2975955,-1.6576246 0.3315816,-1.6966218 0.3315816,-1.6966218 0.3561418,-1.7255461 0.3819227,-1.7533749 0.3819227,-1.7533749 0.3946831,-1.7644403 0.4085257,-1.7741116 0.4085257,-1.5779315 0.455729,-1.5779315z" transform="matrix(1,0,0,-1,3.529262,3.65)" fill="rgb(116,116,116)" fill-rule="nonzero" shaper:cutDepth="0.05cm" stroke-linecap="round" stroke-linejoin="round" /><path d="M-1.4632044,-0.6385436 L-1.4632044,-0.6385436 -1.4474462,-0.6351846 -1.4398258,-0.6329742 -1.4325159,-0.6301265 -1.4256085,-0.626453 -1.4190652,-0.6220321 -1.4065877,-0.6119406 -1.4065877,-0.6119406 -1.3984967,-0.6006263 -1.3950274,-0.5947506 -1.3922496,-0.5886125 -1.390306,-0.582158 -1.3890373,-0.5754474 -1.3876245,-0.5615995 -1.3876245,-0.5615995 -1.389766,-0.5445767 -1.3916149,-0.5364106 -1.3943977,-0.5286589 -1.3983141,-0.5214102 -1.4031521,-0.5145703 -1.414364,-0.5015723 -1.414364,-0.5015723 -1.4303948,-0.4906712 -1.438713,-0.4860667 -1.4473943,-0.4824765 -1.4564918,-0.480049 -1.4659152,-0.478532 -1.4853053,-0.4770156 -1.4853053,-0.4770156 -1.5035385,-0.4784319 -1.512384,-0.4798734 -1.5209043,-0.4821947 -1.5290078,-0.4856437 -1.5367451,-0.4900836 -1.5516082,-0.5006173 -1.5516082,-0.5006173 -1.5621821,-0.5142609 -1.5666817,-0.5213985 -1.5702368,-0.5289152 -1.5726805,-0.5368777 -1.5742414,-0.5451944 -1.575892,-0.5624181 -1.575892,-0.5624181 -1.5751168,-0.573616 -1.5733102,-0.5845513 -1.5697499,-0.5950404 -1.5651143,-0.6052558 -1.5651143,-0.6052558 -1.5594048,-0.6139598 -1.5530055,-0.622018 -1.5454348,-0.6289794 -1.5371471,-0.6352694 -1.5431498,-0.6813813 -1.7486068,-0.6426364 -1.7486068,-0.4437278 -1.7016764,-0.4437278 -1.7016764,-0.6033458 -1.594173,-0.624901 -1.594173,-0.624901 -1.6044946,-0.6073303 -1.6089792,-0.5983236 -1.6126525,-0.5890514 -1.6153089,-0.5794464 -1.6171077,-0.5695607 -1.6192753,-0.5493212 -1.6192753,-0.5493212 -1.616514,-0.5246191 -1.614063,-0.5127093 -1.6103274,-0.5013288 -1.6050113,-0.4905998 -1.598393,-0.4804075 -1.5829861,-0.4609174 -1.5829861,-0.4609174 -1.562264,-0.4452839 -1.5514484,-0.4386232 -1.5400874,-0.4333497 -1.5280819,-0.429715 -1.5155633,-0.4273854 -1.489671,-0.424901 -1.489671,-0.424901 -1.4642907,-0.4271959 -1.4519226,-0.4292881 -1.439941,-0.432514 -1.4284401,-0.43715 -1.4173405,-0.4429632 -1.3958101,-0.4565518 -1.3958101,-0.4565518 -1.3850611,-0.4674912 -1.3749181,-0.4787144 -1.3659869,-0.4905054 -1.3588733,-0.5031479 -1.3539319,-0.516808 -1.3507337,-0.5312848 -1.3486976,-0.546306 -1.3472426,-0.5615995 -1.3472426,-0.5615995 -1.3492039,-0.5858746 -1.3511216,-0.5976816 -1.3541637,-0.6090917 -1.3586343,-0.6199979 -1.364338,-0.630469 -1.3778019,-0.6506855 -1.3778019,-0.6506855 -1.3953546,-0.6660324 -1.4046015,-0.6727514 -1.4144129,-0.6783252 -1.4248946,-0.6825393 -1.4359118,-0.6856672 -1.4588387,-0.6901125 -1.4632044,-0.6385436z" transform="matrix(1,0,0,-1,3.529262,3.65)" fill="rgb(116,116,116)" fill-rule="nonzero" shaper:cutDepth="0.05cm" stroke-linecap="round" stroke-linejoin="round" /><path d="M0.9049649,0.5874428 L0.9049649,0.4139094 0.8599444,0.4139094 0.6007357,0.5964469 0.6007357,0.6365561 0.8599444,0.6365561 0.8599444,0.6905806 0.9049649,0.6905806 0.9049649,0.6365561 1.0007357,0.6365561 1.0007357,0.5874428 0.9049649,0.5874428z M0.6795897,0.5874428 L0.8599444,0.4622041 0.8599444,0.5874428 0.6795897,0.5874428z" transform="matrix(1,0,0,-1,3.529262,3.65)" fill="rgb(116,116,116)" fill-rule="nonzero" shaper:cutDepth="0.05cm" stroke-linecap="round" stroke-linejoin="round" /><path d="M2.8111746,1.5188725 L2.8111746,1.5188725 2.8269328,1.5222315 2.8345531,1.524442 2.841863,1.5272897 2.8487704,1.5309632 2.8553137,1.535384 2.8677912,1.5454756 2.8677912,1.5454756 2.8758822,1.5567898 2.8793515,1.5626656 2.8821294,1.5688036 2.8840729,1.5752582 2.8853416,1.5819688 2.8867544,1.5958166 2.8867544,1.5958166 2.8846129,1.6128394 2.882764,1.6210055 2.8799813,1.6287573 2.8760648,1.636006 2.8712269,1.6428458 2.860015,1.6558439 2.860015,1.6558439 2.8439842,1.6667449 2.835666,1.6713494 2.8269847,1.6749397 2.8178872,1.6773672 2.8084637,1.6788842 2.7890736,1.6804005 2.7890736,1.6804005 2.7708405,1.6789842 2.7619949,1.6775428 2.7534746,1.6752214 2.7453711,1.6717725 2.7376339,1.6673326 2.7227708,1.6567989 2.7227708,1.6567989 2.7121969,1.6431553 2.7076972,1.6360176 2.7041421,1.628501 2.7016985,1.6205385 2.7001375,1.6122218 2.698487,1.5949981 2.698487,1.5949981 2.6992621,1.5838002 2.7010687,1.5728648 2.7046291,1.5623758 2.7092646,1.5521604 2.7092646,1.5521604 2.7149742,1.5434563 2.7213735,1.5353981 2.7289442,1.5284367 2.7372319,1.5221468 2.7312292,1.4760349 2.5257721,1.5147798 2.5257721,1.7136884 2.5727025,1.7136884 2.5727025,1.5540704 2.6802059,1.5325151 2.6802059,1.5325151 2.6698844,1.5500859 2.6653998,1.5590925 2.6617265,1.5683648 2.65907,1.5779698 2.6572713,1.5878555 2.6551036,1.6080949 2.6551036,1.6080949 2.6578649,1.632797 2.660316,1.6447069 2.6640516,1.6560873 2.6693676,1.6668163 2.6759859,1.6770087 2.6913928,1.6964987 2.6913928,1.6964987 2.7121149,1.7121323 2.7229305,1.7187929 2.7342916,1.7240665 2.746297,1.7277011 2.7588156,1.7300308 2.784708,1.7325151 2.784708,1.7325151 2.8100883,1.7302202 2.8224563,1.7281281 2.834438,1.7249022 2.8459389,1.7202661 2.8570385,1.7144529 2.8785688,1.7008644 2.8785688,1.7008644 2.8893178,1.689925 2.8994609,1.6787018 2.9083921,1.6669108 2.9155056,1.6542683 2.9204471,1.6406082 2.9236453,1.6261314 2.9256814,1.6111101 2.9271364,1.5958166 2.9271364,1.5958166 2.9251751,1.5715415 2.9232574,1.5597346 2.9202153,1.5483244 2.9157446,1.5374183 2.9100409,1.5269472 2.896577,1.5067307 2.896577,1.5067307 2.8790243,1.4913837 2.8697775,1.4846647 2.8599661,1.4790909 2.8494843,1.4748768 2.8384671,1.471749 2.8155402,1.4673037 2.8111746,1.5188725z" transform="matrix(1,0,0,-1,3.529262,3.65)" fill="rgb(116,116,116)" fill-rule="nonzero" shaper:cutDepth="0.05cm" stroke-linecap="round" stroke-linejoin="round" /><path d="M2.4648402,-2.3203798 L2.4648402,-2.3203798 2.4805984,-2.3170208 2.4882188,-2.3148104 2.4955286,-2.3119627 2.5024361,-2.3082892 2.5089793,-2.3038683 2.5214569,-2.2937768 2.5214569,-2.2937768 2.5295478,-2.2824625 2.5330171,-2.2765868 2.535795,-2.2704488 2.5377385,-2.2639942 2.5390072,-2.2572836 2.54042,-2.2434357 2.54042,-2.2434357 2.5382786,-2.2264129 2.5364296,-2.2182468 2.5336469,-2.2104951 2.5297305,-2.2032464 2.5248925,-2.1964066 2.5136806,-2.1834085 2.5136806,-2.1834085 2.4976498,-2.1725074 2.4893316,-2.167903 2.4806503,-2.1643127 2.4715528,-2.1618852 2.4621294,-2.1603682 2.4427392,-2.1588519 2.4427392,-2.1588519 2.4245061,-2.1602682 2.4156605,-2.1617096 2.4071402,-2.1640309 2.3990367,-2.1674799 2.3912995,-2.1719198 2.3764364,-2.1824535 2.3764364,-2.1824535 2.3658625,-2.1960971 2.3613629,-2.2032348 2.3578077,-2.2107514 2.3553641,-2.2187139 2.3538032,-2.2270306 2.3521526,-2.2442543 2.3521526,-2.2442543 2.3529278,-2.2554522 2.3547343,-2.2663875 2.3582947,-2.2768766 2.3629302,-2.287092 2.3629302,-2.287092 2.3686398,-2.2957961 2.3750391,-2.3038542 2.3826098,-2.3108156 2.3908975,-2.3171056 2.3848948,-2.3632175 2.1794378,-2.3244726 2.1794378,-2.125564 2.2263682,-2.125564 2.2263682,-2.285182 2.3338716,-2.3067372 2.3338716,-2.3067372 2.32355,-2.2891665 2.3190654,-2.2801598 2.3153921,-2.2708876 2.3127356,-2.2612826 2.3109369,-2.2513969 2.3087693,-2.2311575 2.3087693,-2.2311575 2.3115305,-2.2064554 2.3139816,-2.1945455 2.3177172,-2.1831651 2.3230333,-2.172436 2.3296515,-2.1622437 2.3450585,-2.1427536 2.3450585,-2.1427536 2.3657805,-2.1271201 2.3765962,-2.1204595 2.3879572,-2.1151859 2.3999626,-2.1115512 2.4124812,-2.1092216 2.4383736,-2.1067373 2.4383736,-2.1067373 2.4637539,-2.1090321 2.476122,-2.1111243 2.4881036,-2.1143502 2.4996045,-2.1189862 2.5107041,-2.1247995 2.5322345,-2.138388 2.5322345,-2.138388 2.5429834,-2.1493274 2.5531265,-2.1605506 2.5620577,-2.1723416 2.5691712,-2.1849841 2.5741127,-2.1986442 2.5773109,-2.213121 2.579347,-2.2281423 2.580802,-2.2434357 2.580802,-2.2434357 2.5788407,-2.2677108 2.576923,-2.2795178 2.5738809,-2.2909279 2.5694103,-2.3018341 2.5637066,-2.3123052 2.5502426,-2.3325217 2.5502426,-2.3325217 2.53269,-2.3478686 2.5234431,-2.3545877 2.5136317,-2.3601615 2.5031499,-2.3643755 2.4921327,-2.3675034 2.4692058,-2.3719487 2.4648402,-2.3203798z" transform="matrix(1,0,0,-1,3.529262,3.65)" fill="rgb(116,116,116)" fill-rule="nonzero" shaper:cutDepth="0.05cm" stroke-linecap="round" stroke-linejoin="round" /><path d="M0.5479565,-3.4177596 L0.5479565,-3.4177596 0.5305761,-3.4273875 0.5216687,-3.4314839 0.5125008,-3.4347194 0.5030265,-3.4369424 0.4933088,-3.4383617 0.4734681,-3.4398606 0.4734681,-3.4398606 0.4578474,-3.4383178 0.4424636,-3.436222 0.4275535,-3.4330201 0.4133539,-3.4281588 0.400025,-3.421264 0.3874106,-3.4127008 0.3752725,-3.4030253 0.3633726,-3.3927937 0.3633726,-3.3927937 0.3531892,-3.3788334 0.343616,-3.3646486 0.3352633,-3.350015 0.3287396,-3.3347086 0.3243199,-3.3186283 0.3215503,-3.301941 0.3187614,-3.267555 0.3187614,-3.267555 0.3216699,-3.2327793 0.3245254,-3.2159123 0.3290624,-3.1996701 0.3357377,-3.1842227 0.3442623,-3.1694625 0.3540206,-3.1551608 0.3643958,-3.1410884 0.3643958,-3.1410884 0.376407,-3.130736 0.3886576,-3.12094 0.4013869,-3.1122567 0.4148342,-3.1052426 0.4291617,-3.1002742 0.4442114,-3.0969846 0.4597426,-3.094814 0.4755145,-3.093203 0.4755145,-3.093203 0.4948798,-3.0947427 0.5043611,-3.0961708 0.5136007,-3.0983889 0.5225379,-3.1015955 0.5312204,-3.1056344 0.5481611,-3.1150993 0.5481611,-3.1150993 0.5635791,-3.1291692 0.5706632,-3.1366609 0.5769987,-3.1446999 0.5824835,-3.1533608 0.5873048,-3.1625067 0.5958419,-3.1816068 0.5958419,-3.1816068 0.6057487,-3.1573374 0.6114664,-3.1457388 0.6181011,-3.1347836 0.6258986,-3.1246441 0.6346962,-3.1152062 0.6539592,-3.0975004 0.6539592,-3.0975004 0.6762668,-3.0849592 0.6877061,-3.0796187 0.6994878,-3.0753941 0.7116735,-3.0724857 0.7241805,-3.0706243 0.74973,-3.0686464 0.74973,-3.0686464 0.7680244,-3.0704102 0.7860481,-3.0728153 0.8035304,-3.0765028 0.8119839,-3.0790278 0.8202006,-3.0821139 0.8281565,-3.0858175 0.8358731,-3.0900879 0.8507251,-3.1000056 0.8650301,-3.111219 0.8790616,-3.1230802 0.8790616,-3.1230802 0.8909383,-3.1389828 0.9021127,-3.1551493 0.9118828,-3.1718439 0.9160216,-3.1804717 0.9195474,-3.1893301 0.9247687,-3.2077349 0.9280649,-3.2268635 0.9300778,-3.2464747 0.931449,-3.2663271 0.931449,-3.2663271 0.9300683,-3.2861927 0.9280438,-3.3058152 0.9247315,-3.3249519 0.9223912,-3.334262 0.9194875,-3.3433596 0.9159475,-3.3522171 0.9117927,-3.3608426 0.9019873,-3.3775291 0.8907741,-3.3936844 0.8788569,-3.4095741 0.8788569,-3.4095741 0.8645986,-3.4214987 0.8500653,-3.4327649 0.834982,-3.4427142 0.8271483,-3.4469893 0.8190739,-3.4506883 0.810739,-3.4537634 0.8021686,-3.4562744 0.7844556,-3.4599267 0.7662042,-3.4622896 0.7476836,-3.4640079 0.7476836,-3.4640079 0.7214654,-3.462097 0.708639,-3.4602324 0.696152,-3.4572766 0.6840958,-3.4529355 0.6724112,-3.4473997 0.6496618,-3.4343353 0.6496618,-3.4343353 0.631132,-3.4164845 0.6227567,-3.4069845 0.6154487,-3.396795 0.6093912,-3.3857978 0.6043244,-3.3741606 0.5958419,-3.3498196 0.5958419,-3.3498196 0.5873618,-3.3693183 0.5825529,-3.378658 0.5770613,-3.3875062 0.5706922,-3.3957226 0.563546,-3.4033797 0.5479565,-3.4177596z M0.5405895,-3.3371321 L0.5405895,-3.3371321 0.5523754,-3.3212801 0.5573869,-3.3130123 0.5613411,-3.3043345 0.5640543,-3.2951755 0.5657834,-3.2856349 0.5676018,-3.2659179 0.5676018,-3.2659179 0.56575,-3.2465747 0.564015,-3.2372197 0.5613089,-3.2282447 0.5573836,-3.2197467 0.5524269,-3.2116522 0.5407941,-3.1961361 0.5407941,-3.1961361 0.5263378,-3.1846011 0.5187733,-3.1796429 0.5108052,-3.1756559 0.5023464,-3.1728499 0.493488,-3.1710054 0.4751052,-3.1689192 0.4751052,-3.1689192 0.4560488,-3.1710414 0.446863,-3.1729306 0.4380879,-3.1758134 0.4298189,-3.1799204 0.4219675,-3.1850373 0.4069606,-3.1969547 0.4069606,-3.1969547 0.3951259,-3.2124298 0.3900589,-3.2205074 0.3860122,-3.2289928 0.3831909,-3.2379682 0.3813569,-3.2473383 0.3793344,-3.2667364 0.3793344,-3.2667364 0.3812569,-3.2861237 0.383028,-3.2955003 0.3857709,-3.3044966 0.3897271,-3.313018 0.3947013,-3.321141 0.4063467,-3.3367228 0.4063467,-3.3367228 0.4205031,-3.3483737 0.4279218,-3.3534039 0.4357493,-3.35748 0.4440802,-3.3603804 0.4528268,-3.3623105 0.4710124,-3.3645536 0.4710124,-3.3645536 0.4903894,-3.3626431 0.4997466,-3.3608617 0.5087064,-3.358089 0.5171678,-3.3540735 0.5252087,-3.3490092 0.5405895,-3.3371321z M0.8090752,-3.3733531 L0.8090752,-3.3733531 0.8228451,-3.3646815 0.8293263,-3.3599302 0.8353227,-3.35468 0.8407297,-3.3488232 0.8456564,-3.3424722 0.8547096,-3.3289465 0.8547096,-3.3289465 0.8615474,-3.3138007 0.8668569,-3.2982648 0.8696264,-3.2820806 0.870876,-3.2655086 0.870876,-3.2655086 0.8684732,-3.2413059 0.8662519,-3.229608 0.8628068,-3.2183941 0.8578318,-3.2077854 0.851571,-3.1976852 0.836906,-3.1783326 0.836906,-3.1783326 0.8178261,-3.16352 0.8078511,-3.1571915 0.7973542,-3.1521563 0.7862348,-3.1486635 0.7746166,-3.1464067 0.7505486,-3.1439533 0.7505486,-3.1439533 0.7259888,-3.1465127 0.7141394,-3.1488498 0.7028066,-3.152456 0.6921168,-3.1576414 0.6819641,-3.1641464 0.662554,-3.1793558 0.662554,-3.1793558 0.6476099,-3.1990266 0.6412181,-3.209291 0.6361225,-3.2200704 0.6325786,-3.2314661 0.6302816,-3.243357 0.6277655,-3.2679643 0.6277655,-3.2679643 0.6302504,-3.2919695 0.6325198,-3.3035575 0.6360216,-3.3146478 0.6410572,-3.3251189 0.6473744,-3.3350724 0.6621448,-3.3541171 0.6621448,-3.3541171 0.6811778,-3.3687688 0.691118,-3.3750401 0.7015666,-3.3800459 0.7126253,-3.3835334 0.724175,-3.3857985 0.7480929,-3.3882917 0.7480929,-3.3882917 0.7639502,-3.3870702 0.7794708,-3.3844654 0.7944372,-3.379584 0.8090752,-3.3733531z" transform="matrix(1,0,0,-1,3.529262,3.65)" fill="rgb(116,116,116)" fill-rule="nonzero" shaper:cutDepth="0.05cm" stroke-linecap="round" stroke-linejoin="round" /><path d="M-0.144271,-2.0462125 a0.15,0.15 0 1,1 0.3,0 a0.15,0.15 0 1,1 -0.3,0z" transform="matrix(1,0,0,-1,3.529262,3.65)" fill="rgb(255,255,255)" stroke="rgb(0,0,0)" stroke-width="0.0010cm" stroke-linecap="round" stroke-linejoin="round" shaper:cutDepth="0.3cm" /><path d="M2.3230436,1.260687 a0.15,0.15 0 1,1 0.3,0 a0.15,0.15 0 1,1 -0.3,0z" transform="matrix(1,0,0,-1,3.529262,3.65)" fill="rgb(255,255,255)" stroke="rgb(0,0,0)" stroke-width="0.0010cm" stroke-linecap="round" stroke-linejoin="round" shaper:cutDepth="0.3cm" /><path d="M1.9767092,-2.5785654 a0.15,0.15 0 1,1 0.3,0 a0.15,0.15 0 1,1 -0.3,0z" transform="matrix(1,0,0,-1,3.529262,3.65)" fill="rgb(255,255,255)" stroke="rgb(0,0,0)" stroke-width="0.0010cm" stroke-linecap="round" stroke-linejoin="round" shaper:cutDepth="0.3cm" /><path d="M0.4007357,0.2210717 a0.15,0.15 0 1,1 0.3,0 a0.15,0.15 0 1,1 -0.3,0z" transform="matrix(1,0,0,-1,3.529262,3.65)" fill="rgb(255,255,255)" stroke="rgb(0,0,0)" stroke-width="0.0010cm" stroke-linecap="round" stroke-linejoin="round" shaper:cutDepth="0.3cm" /><path d="M-1.9513354,-0.8967291 a0.15,0.15 0 1,1 0.3,0 a0.15,0.15 0 1,1 -0.3,0z" transform="matrix(1,0,0,-1,3.529262,3.65)" fill="rgb(255,255,255)" stroke="rgb(0,0,0)" stroke-width="0.0010cm" stroke-linecap="round" stroke-linejoin="round" shaper:cutDepth="0.3cm" /><path d="M-2.5342727,1.25 L-2.5342727,-1.25 -2.2342727,-1.25 -2.2342727,1.25 -2.5342727,1.25z" transform="matrix(1,0,0,-1,3.529262,3.65)" fill="rgb(255,255,255)" stroke="rgb(0,0,0)" stroke-width="0.0010cm" stroke-linecap="round" stroke-linejoin="round" shaper:cutDepth="0.3cm" /><path d="M2.979262,-3.25 a0.15,0.15 0 1,1 0.3,0 a0.15,0.15 0 1,1 -0.3,0z" transform="matrix(1,0,0,-1,3.529262,3.65)" fill="rgb(255,255,255)" stroke="rgb(0,0,0)" stroke-width="0.0010cm" stroke-linecap="round" stroke-linejoin="round" shaper:cutDepth="0.3cm" /><path d="M-1.520738,3.25 a0.15,0.15 0 1,1 0.3,0 a0.15,0.15 0 1,1 -0.3,0z" transform="matrix(1,0,0,-1,3.529262,3.65)" fill="rgb(255,255,255)" stroke="rgb(0,0,0)" stroke-width="0.0010cm" stroke-linecap="round" stroke-linejoin="round" shaper:cutDepth="0.3cm" /><path d="M2.979262,3.25 a0.15,0.15 0 1,1 0.3,0 a0.15,0.15 0 1,1 -0.3,0z" transform="matrix(1,0,0,-1,3.529262,3.65)" fill="rgb(255,255,255)" stroke="rgb(0,0,0)" stroke-width="0.0010cm" stroke-linecap="round" stroke-linejoin="round" shaper:cutDepth="0.3cm" /><path d="M-1.520738,-3.25 a0.15,0.15 0 1,1 0.3,0 a0.15,0.15 0 1,1 -0.3,0z" transform="matrix(1,0,0,-1,3.529262,3.65)" fill="rgb(255,255,255)" stroke="rgb(0,0,0)" stroke-width="0.0010cm" stroke-linecap="round" stroke-linejoin="round" shaper:cutDepth="0.3cm" /><path d="M-2.1707381,2 L-0.870738,2 -0.870738,2.7500001 -2.1707381,2.7500001 A0.3,0.3 90 0,1 -2.4707381,2.4500001 L-2.4707381,2.3 A0.3,0.3 180 0,1 -2.1707381,2z" transform="matrix(1,0,0,-1,3.529262,3.65)" fill="rgb(255,255,255)" stroke="rgb(0,0,0)" stroke-width="0.0010cm" stroke-linecap="round" stroke-linejoin="round" shaper:cutDepth="0.3cm" /></svg>