<?xml version="1.0" encoding="utf-8"?>
<!-- Generator: Fusion 360, Shaper Origin Export Add-In, Version 1.7.0  -->
<svg xmlns="http://www.w3.org/2000/svg" xmlns:xlink="http://www.w3.org/1999/xlink" xmlns:shaper="http://www.shapertools.com/namespaces/shaper" shaper:fusionaddin="version:1.7.0" width="7.058524cm" height="7.3cm" version="1.1" x="0cm" y="0cm" viewBox="0 0 7.058524 7.3" enable-background="new 0 0 7.058524 7.3" xml:space="preserve"><path d="M-3.529262,-2.0046781 L-1.8572407,-3.5690658 A0.3,0.3 226.9047902 0,1 -1.6522768,-3.65 L3.229262,-3.65 A0.3,0.3 270 0,1 3.529262,-3.35 L3.529262,-2.7885309 3.229262,-2.7885309 3.229262,-0.7885309 3.529262,-0.7885309 3.529262,3.35 A0.3,0.3 0 0,1 3.229262,3.65 L-1.6522768,3.65 A0.3,0.3 90 0,1 -1.8572407,3.5690658 L-3.529262,2.0046781 -3.529262,1.65 -3.2342727,1.65 -3.2342727,-1.65 -3.529262,-1.65 -3.529262,-2.0046781z" transform="matrix(1,0,0,-1,3.529262,3.65)" fill="rgb(0,0,0)" shaper:cutDepth="0.3cm" stroke-linecap="round" stroke-linejoin="round" /><path d="M-1.3310505,1.6817074 L-1.3310505,1.6817074 -1.3152923,1.6850664 -1.3076719,1.6872768 -1.3003621,1.6901245 -1.2934546,1.693798 -1.2869113,1.6982189 -1.2744338,1.7083104 -1.2744338,1.7083104 -1.2663429,1.7196247 -1.2628736,1.7255004 -1.2600957,1.7316385 -1.2581522,1.738093 -1.2568834,1.7448036 -1.2554707,1.7586515 -1.2554707,1.7586515 -1.2576121,1.7756743 -1.2594611,1.7838404 -1.2622438,1.7915921 -1.2661602,1.7988408 -1.2709982,1.8056807 -1.2822101,1.8186787 -1.2822101,1.8186787 -1.2982409,1.8295798 -1.3065591,1.8341843 -1.3152404,1.8377745 -1.3243379,1.840202 -1.3337613,1.841719 -1.3531514,1.8432354 -1.3531514,1.8432354 -1.3713846,1.8418191 -1.3802301,1.8403776 -1.3887504,1.8380563 -1.396854,1.8346073 -1.4045912,1.8301674 -1.4194543,1.8196337 -1.4194543,1.8196337 -1.4300282,1.8059901 -1.4345278,1.7988525 -1.438083,1.7913358 -1.4405266,1.7833733 -1.4420875,1.7750566 -1.4437381,1.7578329 -1.4437381,1.7578329 -1.4429629,1.746635 -1.4411564,1.7356997 -1.437596,1.7252106 -1.4329605,1.7149952 -1.4329605,1.7149952 -1.4272509,1.7062912 -1.4208516,1.698233 -1.4132809,1.6912716 -1.4049932,1.6849816 -1.4109959,1.6388697 -1.6164529,1.6776146 -1.6164529,1.8765232 -1.5695225,1.8765232 -1.5695225,1.7169052 -1.4620191,1.69535 -1.4620191,1.69535 -1.4723407,1.7129207 -1.4768253,1.7219274 -1.4804986,1.7311996 -1.4831551,1.7408046 -1.4849538,1.7506903 -1.4871214,1.7709298 -1.4871214,1.7709298 -1.4843602,1.7956319 -1.4819091,1.8075417 -1.4781735,1.8189222 -1.4728574,1.8296512 -1.4662391,1.8398435 -1.4508322,1.8593336 -1.4508322,1.8593336 -1.4301102,1.8749671 -1.4192945,1.8816278 -1.4079335,1.8869013 -1.395928,1.890536 -1.3834095,1.8928656 -1.3575171,1.89535 -1.3575171,1.89535 -1.3321368,1.8930551 -1.3197687,1.8909629 -1.3077871,1.887737 -1.2962862,1.883101 -1.2851866,1.8772878 -1.2636562,1.8636992 -1.2636562,1.8636992 -1.2529073,1.8527598 -1.2427642,1.8415366 -1.233833,1.8297456 -1.2267194,1.8171031 -1.221778,1.803443 -1.2185798,1.7889662 -1.2165437,1.773945 -1.2150887,1.7586515 -1.2150887,1.7586515 -1.21705,1.7343764 -1.2189677,1.7225695 -1.2220098,1.7111593 -1.2264804,1.7002531 -1.2321841,1.689782 -1.2456481,1.6695655 -1.2456481,1.6695655 -1.2632007,1.6542186 -1.2724476,1.6474996 -1.282259,1.6419258 -1.2927407,1.6377117 -1.303758,1.6345838 -1.3266849,1.6301385 -1.3310505,1.6817074z" transform="matrix(1,0,0,-1,3.529262,3.65)" fill="rgb(116,116,116)" fill-rule="nonzero" shaper:cutDepth="0.05cm" stroke-linecap="round" stroke-linejoin="round" /><path d="M2.5528763,-0.6040158 L2.5528763,-0.6040158 2.5686345,-0.6006568 2.5762549,-0.5984463 2.5835647,-0.5955987 2.5904722,-0.5919251 2.5970154,-0.5875043 2.609493,-0.5774128 2.609493,-0.5774128 2.6175839,-0.5660985 2.6210532,-0.5602228 2.6238311,-0.5540847 2.6257746,-0.5476301 2.6270433,-0.5409195 2.6284561,-0.5270717 2.6284561,-0.5270717 2.6263147,-0.5100489 2.6244657,-0.5018828 2.621683,-0.4941311 2.6177666,-0.4868823 2.6129286,-0.4800425 2.6017167,-0.4670444 2.6017167,-0.4670444 2.5856859,-0.4561434 2.5773677,-0.4515389 2.5686864,-0.4479486 2.5595889,-0.4455211 2.5501655,-0.4440042 2.5307753,-0.4424878 2.5307753,-0.4424878 2.5125422,-0.4439041 2.5036966,-0.4453455 2.4951763,-0.4476669 2.4870728,-0.4511158 2.4793356,-0.4555557 2.4644725,-0.4660895 2.4644725,-0.4660895 2.4538986,-0.4797331 2.449399,-0.4868707 2.4458438,-0.4943873 2.4434002,-0.5023499 2.4418393,-0.5106666 2.4401887,-0.5278903 2.4401887,-0.5278903 2.4409639,-0.5390881 2.4427704,-0.5500235 2.4463308,-0.5605125 2.4509663,-0.5707279 2.4509663,-0.5707279 2.4566759,-0.579432 2.4630752,-0.5874902 2.4706459,-0.5944516 2.4789336,-0.6007415 2.4729309,-0.6468534 2.2674739,-0.6081086 2.2674739,-0.4092 2.3144043,-0.4092 2.3144043,-0.568818 2.4219077,-0.5903732 2.4219077,-0.5903732 2.4115861,-0.5728025 2.4071015,-0.5637958 2.4034282,-0.5545236 2.4007717,-0.5449186 2.398973,-0.5350328 2.3968053,-0.5147934 2.3968053,-0.5147934 2.3995666,-0.4900913 2.4020177,-0.4781814 2.4057533,-0.466801 2.4110694,-0.456072 2.4176876,-0.4458797 2.4330946,-0.4263896 2.4330946,-0.4263896 2.4538166,-0.4107561 2.4646323,-0.4040954 2.4759933,-0.3988219 2.4879987,-0.3951872 2.5005173,-0.3928575 2.5264097,-0.3903732 2.5264097,-0.3903732 2.55179,-0.3926681 2.5641581,-0.3947603 2.5761397,-0.3979862 2.5876406,-0.4026222 2.5987402,-0.4084354 2.6202706,-0.422024 2.6202706,-0.422024 2.6310195,-0.4329633 2.6411626,-0.4441866 2.6500938,-0.4559775 2.6572073,-0.46862 2.6621488,-0.4822802 2.665347,-0.496757 2.6673831,-0.5117782 2.6688381,-0.5270717 2.6688381,-0.5270717 2.6668768,-0.5513468 2.6649591,-0.5631537 2.661917,-0.5745639 2.6574464,-0.5854701 2.6517427,-0.5959411 2.6382787,-0.6161577 2.6382787,-0.6161577 2.6207261,-0.6315046 2.6114792,-0.6382236 2.6016678,-0.6437974 2.591186,-0.6480115 2.5801688,-0.6511393 2.5572419,-0.6555847 2.5528763,-0.6040158z" transform="matrix(1,0,0,-1,3.529262,3.65)" fill="rgb(116,116,116)" fill-rule="nonzero" shaper:cutDepth="0.05cm" stroke-linecap="round" stroke-linejoin="round" /><path d="M1.0004344,1.8484365 L1.0004344,1.5840436 1.0004344,1.5840436 0.9917096,1.5842986 0.9830927,1.5851944 0.9746561,1.5871615 0.966328,1.5897735 0.966328,1.5897735 0.9520551,1.5962441 0.9383302,1.6036244 0.9254755,1.6124494 0.913122,1.6221064 0.913122,1.6221064 0.8969905,1.6372296 0.8814473,1.6529129 0.8667629,1.6694139 0.852549,1.6863628 0.852549,1.6863628 0.832966,1.7099635 0.8126075,1.7328028 0.790776,1.7541961 0.7678287,1.7744938 0.7678287,1.7744938 0.7542462,1.7834122 0.7472645,1.7873593 0.7400543,1.7906919 0.7325471,1.7932255 0.7247684,1.7950289 0.7087564,1.7974133 0.7087564,1.7974133 0.6949149,1.7957976 0.6882544,1.7943768 0.681906,1.7922203 0.6759402,1.7891627 0.6702881,1.7853658 0.6595067,1.7765402 0.6595067,1.7765402 0.6507144,1.7643594 0.6469827,1.758018 0.6440478,1.7513755 0.6420423,1.7443818 0.6407711,1.7371108 0.6394522,1.7221064 0.6394522,1.7221064 0.6408208,1.7063933 0.6421574,1.6987884 0.6442768,1.6914856 0.6473904,1.6845663 0.6513617,1.677978 0.6607346,1.6653533 0.6607346,1.6653533 0.6738879,1.6558067 0.6807472,1.6517769 0.6879452,1.648638 0.6955273,1.6465094 0.7034087,1.6451682 0.7196704,1.643798 0.7144863,1.5933205 0.7144863,1.5933205 0.6902898,1.5973668 0.6786278,1.6003208 0.6674893,1.6043916 0.6570234,1.6098974 0.6471519,1.6166717 0.6284017,1.6323383 0.6284017,1.6323383 0.6151245,1.6530596 0.6095391,1.6637776 0.605215,1.6749235 0.6023166,1.686553 0.6005273,1.6985589 0.5987973,1.7231978 0.5987973,1.7231978 0.6007102,1.7481881 0.6026588,1.7603224 0.6057979,1.7720236 0.6104628,1.7831698 0.6164692,1.7938281 0.6307209,1.8143301 0.6307209,1.8143301 0.6480183,1.8285589 0.6570922,1.8346742 0.6666761,1.8395906 0.6768802,1.8430495 0.687589,1.8453223 0.7098478,1.8478908 0.7098478,1.8478908 0.7219903,1.8470876 0.7339448,1.8453749 0.7455897,1.8421652 0.7570511,1.8380682 0.7570511,1.8380682 0.7701752,1.8313048 0.7827702,1.8237377 0.7945573,1.8149441 0.8058915,1.8054624 0.8058915,1.8054624 0.8243701,1.7873604 0.842301,1.7687434 0.8762871,1.7297462 0.8762871,1.7297462 0.9008473,1.7008219 0.9266281,1.6729931 0.9266281,1.6729931 0.9393886,1.6619277 0.9532312,1.6522564 0.9532312,1.8484365 1.0004344,1.8484365z" transform="matrix(1,0,0,-1,3.529262,3.65)" fill="rgb(116,116,116)" fill-rule="nonzero" shaper:cutDepth="0.05cm" stroke-linecap="round" stroke-linejoin="round" /><path d="M-0.7610548,0.1459691 L-0.7610548,0.1459691 -0.7452966,0.1493281 -0.7376763,0.1515386 -0.7303664,0.1543862 -0.723459,0.1580598 -0.7169157,0.1624806 -0.7044382,0.1725721 -0.7044382,0.1725721 -0.6963472,0.1838864 -0.6928779,0.1897621 -0.6901,0.1959002 -0.6881565,0.2023547 -0.6868878,0.2090653 -0.685475,0.2229132 -0.685475,0.2229132 -0.6876165,0.239936 -0.6894654,0.2481021 -0.6922482,0.2558538 -0.6961646,0.2631026 -0.7010025,0.2699424 -0.7122145,0.2829405 -0.7122145,0.2829405 -0.7282452,0.2938415 -0.7365634,0.298446 -0.7452447,0.3020363 -0.7543422,0.3044638 -0.7637657,0.3059807 -0.7831558,0.3074971 -0.7831558,0.3074971 -0.8013889,0.3060808 -0.8102345,0.3046393 -0.8187548,0.302318 -0.8268583,0.298869 -0.8345955,0.2944291 -0.8494586,0.2838954 -0.8494586,0.2838954 -0.8600325,0.2702518 -0.8645322,0.2631142 -0.8680873,0.2555976 -0.870531,0.247635 -0.8720919,0.2393183 -0.8737424,0.2220946 -0.8737424,0.2220946 -0.8729673,0.2108968 -0.8711607,0.1999614 -0.8676004,0.1894724 -0.8629648,0.179257 -0.8629648,0.179257 -0.8572552,0.1705529 -0.8508559,0.1624947 -0.8432852,0.1555333 -0.8349975,0.1492433 -0.8410002,0.1031315 -1.0464573,0.1418763 -1.0464573,0.3407849 -0.9995269,0.3407849 -0.9995269,0.1811669 -0.8920235,0.1596117 -0.8920235,0.1596117 -0.902345,0.1771824 -0.9068297,0.1861891 -0.9105029,0.1954613 -0.9131594,0.2050663 -0.9149581,0.214952 -0.9171258,0.2351915 -0.9171258,0.2351915 -0.9143645,0.2598936 -0.9119134,0.2718034 -0.9081778,0.2831839 -0.9028618,0.2939129 -0.8962435,0.3041052 -0.8808366,0.3235953 -0.8808366,0.3235953 -0.8601145,0.3392288 -0.8492989,0.3458895 -0.8379378,0.351163 -0.8259324,0.3547977 -0.8134138,0.3571273 -0.7875214,0.3596117 -0.7875214,0.3596117 -0.7621411,0.3573168 -0.7497731,0.3552246 -0.7377914,0.3519987 -0.7262905,0.3473627 -0.7151909,0.3415495 -0.6936606,0.3279609 -0.6936606,0.3279609 -0.6829116,0.3170216 -0.6727685,0.3057983 -0.6638373,0.2940074 -0.6567238,0.2813648 -0.6517823,0.2677047 -0.6485841,0.2532279 -0.646548,0.2382067 -0.645093,0.2229132 -0.645093,0.2229132 -0.6470543,0.1986381 -0.648972,0.1868312 -0.6520141,0.175421 -0.6564848,0.1645148 -0.6621885,0.1540437 -0.6756524,0.1338272 -0.6756524,0.1338272 -0.6932051,0.1184803 -0.7024519,0.1117613 -0.7122633,0.1061875 -0.7227451,0.1019734 -0.7337623,0.0988455 -0.7566892,0.0944002 -0.7610548,0.1459691z" transform="matrix(1,0,0,-1,3.529262,3.65)" fill="rgb(116,116,116)" fill-rule="nonzero" shaper:cutDepth="0.05cm" stroke-linecap="round" stroke-linejoin="round" /><path d="M0.7534765,-1.6089078 L0.7534765,-1.6089078 0.7700865,-1.6048416 0.7781438,-1.6023143 0.7859039,-1.5991941 0.7932734,-1.5952947 0.800271,-1.5906534 0.8136402,-1.580122 0.8136402,-1.580122 0.8215357,-1.5689778 0.8249152,-1.5631923 0.827613,-1.5571506 0.8294926,-1.5508015 0.8307136,-1.544205 0.8320577,-1.5305995 0.8320577,-1.5305995 0.8302282,-1.5142491 0.8286055,-1.5063655 0.8261331,-1.4988319 0.8226157,-1.4917286 0.8182376,-1.4849797 0.8080468,-1.4720729 0.8080468,-1.4720729 0.7948858,-1.4618783 0.7880111,-1.4575082 0.7807834,-1.4540109 0.7731301,-1.4515658 0.7651329,-1.449971 0.7485652,-1.4481984 0.7485652,-1.4481984 0.7330286,-1.4497725 0.7255264,-1.451222 0.7183436,-1.4534665 0.7115593,-1.4567034 0.7051094,-1.4607728 0.6927671,-1.4702994 0.6927671,-1.4702994 0.6832798,-1.4827655 0.6792302,-1.489274 0.6760135,-1.496113 0.673787,-1.5033449 0.6723523,-1.510891 0.6708026,-1.5265067 0.6708026,-1.5265067 0.6724539,-1.543995 0.6762596,-1.5611588 0.633149,-1.5557018 0.633149,-1.5557018 0.6336948,-1.5477891 0.6336948,-1.5477891 0.6324754,-1.5328306 0.6313802,-1.5254929 0.6297024,-1.5183254 0.6273043,-1.511368 0.6243091,-1.5045848 0.6173237,-1.4913089 0.6173237,-1.4913089 0.6071064,-1.4803276 0.6015761,-1.4756629 0.5955402,-1.4719889 0.5889127,-1.4694736 0.5818172,-1.4678752 0.5668462,-1.4662066 0.5668462,-1.4662066 0.5543255,-1.4675445 0.5482899,-1.4687579 0.5425238,-1.4706247 0.5370924,-1.4733025 0.5319396,-1.4766557 0.5220986,-1.4844876 0.5220986,-1.4844876 0.5143649,-1.4950215 0.5110757,-1.5005103 0.5084794,-1.5062651 0.5066971,-1.5123323 0.5055604,-1.5186475 0.5043633,-1.5316909 0.5043633,-1.5316909 0.5056393,-1.5448626 0.5068178,-1.5512417 0.5086448,-1.5573725 0.5112822,-1.5631933 0.5146004,-1.5687536 0.5223715,-1.5794399 0.5223715,-1.5794399 0.5343725,-1.5887638 0.5406479,-1.592844 0.5472518,-1.5962292 0.5542153,-1.5988536 0.5614552,-1.600893 0.576396,-1.6039965 0.5676648,-1.6531097 0.5676648,-1.6531097 0.5460309,-1.6474568 0.5356257,-1.6438761 0.5257147,-1.6393904 0.5164327,-1.6337528 0.5076956,-1.6271173 0.49113,-1.6121821 0.49113,-1.6121821 0.4793056,-1.5940898 0.4742743,-1.5847363 0.4702998,-1.575014 0.4675685,-1.564858 0.4658243,-1.5543575 0.4639813,-1.5327823 0.4639813,-1.5327823 0.4650171,-1.5171254 0.4673898,-1.5017825 0.4720229,-1.4869706 0.4780331,-1.4724822 0.4780331,-1.4724822 0.485564,-1.4600638 0.4941963,-1.4486537 0.5047056,-1.438962 0.5163687,-1.4303266 0.5163687,-1.4303266 0.5285704,-1.4242247 0.541146,-1.419451 0.5543511,-1.4169126 0.5679376,-1.4157291 0.5679376,-1.4157291 0.5804518,-1.4167951 0.5925782,-1.4191723 0.6040554,-1.4237461 0.6151409,-1.4296445 0.6151409,-1.4296445 0.6256399,-1.4382473 0.6349884,-1.447807 0.6425082,-1.4588878 0.6489744,-1.4708451 0.6489744,-1.4708451 0.6540982,-1.4549632 0.6572215,-1.4473727 0.6610187,-1.4402028 0.6656627,-1.4335617 0.6710244,-1.4273685 0.6829444,-1.4157291 0.6829444,-1.4157291 0.6978994,-1.4070597 0.705585,-1.4033894 0.7135203,-1.4005157 0.721744,-1.398563 0.7301946,-1.3973344 0.7474737,-1.3960838 0.7474737,-1.3960838 0.772487,-1.3990922 0.7845139,-1.4017132 0.7959652,-1.4056742 0.8067143,-1.4112696 0.8168903,-1.4181994 0.8362869,-1.434283 0.8362869,-1.434283 0.8520617,-1.4558727 0.8587883,-1.4671127 0.8641223,-1.4788869 0.867806,-1.4912941 0.870173,-1.5042063 0.8727125,-1.5308724 0.8727125,-1.5308724 0.8705645,-1.5548184 0.8685414,-1.5664443 0.8653795,-1.5776535 0.8607855,-1.5883389 0.8549768,-1.5985799 0.8413346,-1.6183212 0.8413346,-1.6183212 0.8236801,-1.6336701 0.8143909,-1.6404069 0.8045471,-1.6460187 0.7940394,-1.650283 0.7829978,-1.6534641 0.7600249,-1.6580211 0.7534765,-1.6089078z" transform="matrix(1,0,0,-1,3.529262,3.65)" fill="rgb(116,116,116)" fill-rule="nonzero" shaper:cutDepth="0.05cm" stroke-linecap="round" stroke-linejoin="round" /><path d="M0.9231819,-3.3713351 L0.4537412,-3.3713351 0.4537412,-3.3713351 0.4678157,-3.3877626 0.4810876,-3.4047791 0.4931335,-3.4226955 0.5044915,-3.4411169 0.5044915,-3.4411169 0.5151501,-3.4599503 0.5252174,-3.4790714 0.534231,-3.4987052 0.5425543,-3.5186748 0.4713401,-3.5186748 0.4713401,-3.5186748 0.4564256,-3.4899068 0.4485187,-3.4758169 0.4400721,-3.46208 0.4309512,-3.4487841 0.4212638,-3.4358587 0.4009444,-3.4106258 0.4009444,-3.4106258 0.3829372,-3.3917024 0.3736053,-3.3826499 0.3638795,-3.3740885 0.3536409,-3.3661665 0.3429319,-3.3588308 0.3207262,-3.3451414 0.3207262,-3.2976653 0.9231819,-3.2976653 0.9231819,-3.3713351z" transform="matrix(1,0,0,-1,3.529262,3.65)" fill="rgb(116,116,116)" fill-rule="nonzero" shaper:cutDepth="0.05cm" stroke-linecap="round" stroke-linejoin="round" /><path d="M0.7795257,-2.8728359 L0.7795257,-3.133136 0.711995,-3.133136 0.3231818,-2.8593297 0.3231818,-2.7991661 0.711995,-2.7991661 0.711995,-2.7181292 0.7795257,-2.7181292 0.7795257,-2.7991661 0.9231819,-2.7991661 0.9231819,-2.8728359 0.7795257,-2.8728359z M0.4414629,-2.8728359 L0.711995,-3.060694 0.711995,-2.8728359 0.4414629,-2.8728359z" transform="matrix(1,0,0,-1,3.529262,3.65)" fill="rgb(116,116,116)" fill-rule="nonzero" shaper:cutDepth="0.05cm" stroke-linecap="round" stroke-linejoin="round" /><path d="M2.0647453,-0.8622013 a0.15,0.15 0 1,1 0.3,0 a0.15,0.15 0 1,1 -0.3,0z" transform="matrix(1,0,0,-1,3.529262,3.65)" fill="rgb(255,255,255)" stroke="rgb(0,0,0)" stroke-width="0.0010cm" stroke-linecap="round" stroke-linejoin="round" shaper:cutDepth="0.3cm" /><path d="M0.4004344,1.3801555 a0.15,0.15 0 1,1 0.3,0 a0.15,0.15 0 1,1 -0.3,0z" transform="matrix(1,0,0,-1,3.529262,3.65)" fill="rgb(255,255,255)" stroke="rgb(0,0,0)" stroke-width="0.0010cm" stroke-linecap="round" stroke-linejoin="round" shaper:cutDepth="0.3cm" /><path d="M-2.0634947,1.7827957 a0.15,0.15 0 1,1 0.3,0 a0.15,0.15 0 1,1 -0.3,0z" transform="matrix(1,0,0,-1,3.529262,3.65)" fill="rgb(255,255,255)" stroke="rgb(0,0,0)" stroke-width="0.0010cm" stroke-linecap="round" stroke-linejoin="round" shaper:cutDepth="0.3cm" /><path d="M-1.2491858,-0.1122164 a0.15,0.15 0 1,1 0.3,0 a0.15,0.15 0 1,1 -0.3,0z" transform="matrix(1,0,0,-1,3.529262,3.65)" fill="rgb(255,255,255)" stroke="rgb(0,0,0)" stroke-width="0.0010cm" stroke-linecap="round" stroke-linejoin="round" shaper:cutDepth="0.3cm" /><path d="M0.2656184,-1.8664112 a0.15,0.15 0 1,1 0.3,0 a0.15,0.15 0 1,1 -0.3,0z" transform="matrix(1,0,0,-1,3.529262,3.65)" fill="rgb(255,255,255)" stroke="rgb(0,0,0)" stroke-width="0.0010cm" stroke-linecap="round" stroke-linejoin="round" shaper:cutDepth="0.3cm" /><path d="M-2.5342727,1.25 L-2.5342727,-1.25 -2.2342727,-1.25 -2.2342727,1.25 -2.5342727,1.25z" transform="matrix(1,0,0,-1,3.529262,3.65)" fill="rgb(255,255,255)" stroke="rgb(0,0,0)" stroke-width="0.0010cm" stroke-linecap="round" stroke-linejoin="round" shaper:cutDepth="0.3cm" /><path d="M2.979262,-3.25 a0.15,0.15 0 1,1 0.3,0 a0.15,0.15 0 1,1 -0.3,0z" transform="matrix(1,0,0,-1,3.529262,3.65)" fill="rgb(255,255,255)" stroke="rgb(0,0,0)" stroke-width="0.0010cm" stroke-linecap="round" stroke-linejoin="round" shaper:cutDepth="0.3cm" /><path d="M-1.520738,3.25 a0.15,0.15 0 1,1 0.3,0 a0.15,0.15 0 1,1 -0.3,0z" transform="matrix(1,0,0,-1,3.529262,3.65)" fill="rgb(255,255,255)" stroke="rgb(0,0,0)" stroke-width="0.0010cm" stroke-linecap="round" stroke-linejoin="round" shaper:cutDepth="0.3cm" /><path d="M2.979262,3.25 a0.15,0.15 0 1,1 0.3,0 a0.15,0.15 0 1,1 -0.3,0z" transform="matrix(1,0,0,-1,3.529262,3.65)" fill="rgb(255,255,255)" stroke="rgb(0,0,0)" stroke-width="0.0010cm" stroke-linecap="round" stroke-linejoin="round" shaper:cutDepth="0.3cm" /><path d="M-1.520738,-3.25 a0.15,0.15 0 1,1 0.3,0 a0.15,0.15 0 1,1 -0.3,0z" transform="matrix(1,0,0,-1,3.529262,3.65)" fill="rgb(255,255,255)" stroke="rgb(0,0,0)" stroke-width="0.0010cm" stroke-linecap="round" stroke-linejoin="round" shaper:cutDepth="0.3cm" /><path d="M-2.1707381,2 L-0.870738,2 -0.870738,2.7500001 -2.1707381,2.7500001 A0.3,0.3 90 0,1 -2.4707381,2.4500001 L-2.4707381,2.3 A0.3,0.3 180 0,1 -2.1707381,2z" transform="matrix(1,0,0,-1,3.529262,3.65)" fill="rgb(255,255,255)" stroke="rgb(0,0,0)" stroke-width="0.0010cm" stroke-linecap="round" stroke-linejoin="round" shaper:cutDepth="0.3cm" /></svg>