<?xml version="1.0" encoding="utf-8"?>
<!-- Generator: Fusion 360, Shaper Origin Export Add-In, Version 1.7.0  -->
<svg xmlns="http://www.w3.org/2000/svg" xmlns:xlink="http://www.w3.org/1999/xlink" xmlns:shaper="http://www.shapertools.com/namespaces/shaper" shaper:fusionaddin="version:1.7.0" width="7.058524cm" height="7.3cm" version="1.1" x="0cm" y="0cm" viewBox="0 0 7.058524 7.3" enable-background="new 0 0 7.058524 7.3" xml:space="preserve"><path d="M-3.529262,-2.0046781 L-1.8572407,-3.5690658 A0.3,0.3 226.9047902 0,1 -1.6522768,-3.65 L3.229262,-3.65 A0.3,0.3 270 0,1 3.529262,-3.35 L3.529262,-2.7885309 3.229262,-2.7885309 3.229262,-0.7885309 3.529262,-0.7885309 3.529262,3.35 A0.3,0.3 0 0,1 3.229262,3.65 L-1.6522768,3.65 A0.3,0.3 90 0,1 -1.8572407,3.5690658 L-3.529262,2.0046781 -3.529262,1.65 -3.2342727,1.65 -3.2342727,-1.65 -3.529262,-1.65 -3.529262,-2.0046781z" transform="matrix(1,0,0,-1,3.529262,3.65)" fill="rgb(0,0,0)" shaper:cutDepth="0.3cm" stroke-linecap="round" stroke-linejoin="round" /><path d="M-1.1545247,-1.5679024 L-1.1545247,-1.8322953 -1.1545247,-1.8322953 -1.1632495,-1.8320403 -1.1718664,-1.8311445 -1.180303,-1.8291773 -1.1886311,-1.8265654 -1.1886311,-1.8265654 -1.202904,-1.8200947 -1.2166289,-1.8127145 -1.2294836,-1.8038895 -1.2418371,-1.7942325 -1.2418371,-1.7942325 -1.2579686,-1.7791093 -1.2735118,-1.763426 -1.2881962,-1.7469249 -1.3024101,-1.729976 -1.3024101,-1.729976 -1.3219931,-1.7063754 -1.3423516,-1.683536 -1.3641831,-1.6621428 -1.3871304,-1.6418451 -1.3871304,-1.6418451 -1.4007129,-1.6329267 -1.4076946,-1.6289796 -1.4149048,-1.6256469 -1.422412,-1.6231133 -1.4301907,-1.6213099 -1.4462027,-1.6189255 -1.4462027,-1.6189255 -1.4600442,-1.6205412 -1.4667047,-1.6219621 -1.4730531,-1.6241185 -1.4790189,-1.6271762 -1.484671,-1.630973 -1.4954524,-1.6397987 -1.4954524,-1.6397987 -1.5042447,-1.6519794 -1.5079764,-1.6583209 -1.5109113,-1.6649634 -1.5129168,-1.671957 -1.514188,-1.6792281 -1.5155069,-1.6942325 -1.5155069,-1.6942325 -1.5141383,-1.7099456 -1.5128017,-1.7175505 -1.5106823,-1.7248533 -1.5075687,-1.7317726 -1.5035974,-1.7383609 -1.4942245,-1.7509856 -1.4942245,-1.7509856 -1.4810712,-1.7605322 -1.4742119,-1.7645619 -1.4670139,-1.7677009 -1.4594318,-1.7698295 -1.4515504,-1.7711707 -1.4352887,-1.7725408 -1.4404728,-1.8230183 -1.4404728,-1.8230183 -1.4646693,-1.818972 -1.4763313,-1.8160181 -1.4874698,-1.8119473 -1.4979357,-1.8064414 -1.5078072,-1.7996671 -1.5265574,-1.7840006 -1.5265574,-1.7840006 -1.5398346,-1.7632792 -1.54542,-1.7525613 -1.5497441,-1.7414154 -1.5526425,-1.7297858 -1.5544318,-1.71778 -1.5561618,-1.6931411 -1.5561618,-1.6931411 -1.5542489,-1.6681508 -1.5523003,-1.6560165 -1.5491612,-1.6443152 -1.5444963,-1.633169 -1.5384899,-1.6225108 -1.5242382,-1.6020088 -1.5242382,-1.6020088 -1.5069408,-1.5877799 -1.4978669,-1.5816646 -1.488283,-1.5767483 -1.4780789,-1.5732894 -1.4673701,-1.5710166 -1.4451113,-1.568448 -1.4451113,-1.568448 -1.4329688,-1.5692512 -1.4210143,-1.570964 -1.4093694,-1.5741736 -1.397908,-1.5782707 -1.397908,-1.5782707 -1.3847839,-1.5850341 -1.3721889,-1.5926011 -1.3604018,-1.6013948 -1.3490676,-1.6108764 -1.3490676,-1.6108764 -1.330589,-1.6289785 -1.3126581,-1.6475955 -1.278672,-1.6865927 -1.278672,-1.6865927 -1.2541118,-1.7155169 -1.228331,-1.7433457 -1.228331,-1.7433457 -1.2155705,-1.7544111 -1.2017279,-1.7640824 -1.2017279,-1.5679024 -1.1545247,-1.5679024z" transform="matrix(1,0,0,-1,3.529262,3.65)" fill="rgb(116,116,116)" fill-rule="nonzero" shaper:cutDepth="0.05cm" stroke-linecap="round" stroke-linejoin="round" /><path d="M-1.4793798,0.8234309 L-1.4793798,0.8234309 -1.4636216,0.8267899 -1.4560012,0.8290003 -1.4486913,0.831848 -1.4417839,0.8355215 -1.4352406,0.8399424 -1.4227631,0.8500339 -1.4227631,0.8500339 -1.4146721,0.8613482 -1.4112028,0.8672239 -1.4084249,0.8733619 -1.4064814,0.8798165 -1.4052127,0.8865271 -1.4037999,0.900375 -1.4037999,0.900375 -1.4059414,0.9173978 -1.4077903,0.9255639 -1.4105731,0.9333156 -1.4144895,0.9405643 -1.4193275,0.9474041 -1.4305394,0.9604022 -1.4305394,0.9604022 -1.4465701,0.9713033 -1.4548884,0.9759077 -1.4635696,0.979498 -1.4726671,0.9819255 -1.4820906,0.9834425 -1.5014807,0.9849588 -1.5014807,0.9849588 -1.5197139,0.9835425 -1.5285594,0.9821011 -1.5370797,0.9797798 -1.5451832,0.9763308 -1.5529205,0.9718909 -1.5677836,0.9613572 -1.5677836,0.9613572 -1.5783575,0.9477136 -1.5828571,0.9405759 -1.5864122,0.9330593 -1.5888559,0.9250968 -1.5904168,0.9167801 -1.5920673,0.8995564 -1.5920673,0.8995564 -1.5912922,0.8883585 -1.5894856,0.8774232 -1.5859253,0.8669341 -1.5812897,0.8567187 -1.5812897,0.8567187 -1.5755802,0.8480147 -1.5691808,0.8399565 -1.5616102,0.8329951 -1.5533224,0.8267051 -1.5593252,0.7805932 -1.7647822,0.8193381 -1.7647822,1.0182467 -1.7178518,1.0182467 -1.7178518,0.8586287 -1.6103484,0.8370735 -1.6103484,0.8370735 -1.6206699,0.8546442 -1.6251546,0.8636509 -1.6288278,0.8729231 -1.6314843,0.8825281 -1.633283,0.8924138 -1.6354507,0.9126533 -1.6354507,0.9126533 -1.6326894,0.9373554 -1.6302383,0.9492652 -1.6265027,0.9606456 -1.6211867,0.9713747 -1.6145684,0.981567 -1.5991615,1.0010571 -1.5991615,1.0010571 -1.5784394,1.0166906 -1.5676238,1.0233512 -1.5562628,1.0286248 -1.5442573,1.0322595 -1.5317387,1.0345891 -1.5058463,1.0370735 -1.5058463,1.0370735 -1.4804661,1.0347786 -1.468098,1.0326864 -1.4561164,1.0294605 -1.4446155,1.0248245 -1.4335159,1.0190112 -1.4119855,1.0054227 -1.4119855,1.0054227 -1.4012365,0.9944833 -1.3910935,0.9832601 -1.3821623,0.9714691 -1.3750487,0.9588266 -1.3701073,0.9451665 -1.366909,0.9306897 -1.364873,0.9156684 -1.363418,0.900375 -1.363418,0.900375 -1.3653793,0.8760999 -1.3672969,0.8642929 -1.3703391,0.8528828 -1.3748097,0.8419766 -1.3805134,0.8315055 -1.3939773,0.811289 -1.3939773,0.811289 -1.41153,0.7959421 -1.4207769,0.7892231 -1.4305883,0.7836493 -1.44107,0.7794352 -1.4520872,0.7763073 -1.4750141,0.771862 -1.4793798,0.8234309z" transform="matrix(1,0,0,-1,3.529262,3.65)" fill="rgb(116,116,116)" fill-rule="nonzero" shaper:cutDepth="0.05cm" stroke-linecap="round" stroke-linejoin="round" /><path d="M0.257981,2.2112902 L0.257981,1.9468972 0.257981,1.9468972 0.2492562,1.9471522 0.2406393,1.948048 0.2322027,1.9500152 0.2238746,1.9526271 0.2238746,1.9526271 0.2096017,1.9590978 0.1958768,1.9664781 0.1830221,1.975303 0.1706686,1.98496 0.1706686,1.98496 0.1545371,2.0000832 0.1389939,2.0157665 0.1243095,2.0322676 0.1100956,2.0492165 0.1100956,2.0492165 0.0905126,2.0728171 0.0701541,2.0956565 0.0483226,2.1170497 0.0253753,2.1373474 0.0253753,2.1373474 0.0117928,2.1462658 0.0048111,2.150213 -0.002399,2.1535456 -0.0099063,2.1560792 -0.017685,2.1578826 -0.033697,2.160267 -0.033697,2.160267 -0.0475385,2.1586513 -0.054199,2.1572304 -0.0605474,2.155074 -0.0665132,2.1520163 -0.0721653,2.1482195 -0.0829467,2.1393938 -0.0829467,2.1393938 -0.091739,2.1272131 -0.0954707,2.1208717 -0.0984056,2.1142291 -0.100411,2.1072355 -0.1016823,2.0999644 -0.1030012,2.08496 -0.1030012,2.08496 -0.1016326,2.0692469 -0.100296,2.061642 -0.0981766,2.0543392 -0.095063,2.04742 -0.0910917,2.0408316 -0.0817188,2.0282069 -0.0817188,2.0282069 -0.0685655,2.0186603 -0.0617062,2.0146306 -0.0545082,2.0114916 -0.0469261,2.0093631 -0.0390447,2.0080218 -0.022783,2.0066517 -0.0279671,1.9561742 -0.0279671,1.9561742 -0.0521636,1.9602205 -0.0638256,1.9631744 -0.0749641,1.9672453 -0.08543,1.9727511 -0.0953015,1.9795254 -0.1140517,1.9951919 -0.1140517,1.9951919 -0.1273289,2.0159133 -0.1329143,2.0266312 -0.1372384,2.0377771 -0.1401368,2.0494067 -0.1419261,2.0614126 -0.1436561,2.0860514 -0.1436561,2.0860514 -0.1417431,2.1110418 -0.1397946,2.1231761 -0.1366555,2.1348773 -0.1319906,2.1460235 -0.1259842,2.1566817 -0.1117325,2.1771837 -0.1117325,2.1771837 -0.0944351,2.1914126 -0.0853612,2.1975279 -0.0757773,2.2024442 -0.0655732,2.2059032 -0.0548644,2.2081759 -0.0326056,2.2107445 -0.0326056,2.2107445 -0.0204631,2.2099413 -0.0085086,2.2082285 0.0031363,2.2050189 0.0145977,2.2009218 0.0145977,2.2009218 0.0277218,2.1941584 0.0403168,2.1865914 0.0521039,2.1777977 0.0634381,2.1683161 0.0634381,2.1683161 0.0819167,2.150214 0.0998476,2.1315971 0.1338337,2.0925998 0.1338337,2.0925998 0.1583939,2.0636756 0.1841747,2.0358468 0.1841747,2.0358468 0.1969352,2.0247814 0.2107778,2.0151101 0.2107778,2.2112902 0.257981,2.2112902z" transform="matrix(1,0,0,-1,3.529262,3.65)" fill="rgb(116,116,116)" fill-rule="nonzero" shaper:cutDepth="0.05cm" stroke-linecap="round" stroke-linejoin="round" /><path d="M1.0276438,-1.4915702 L1.0276438,-1.6651036 0.9826233,-1.6651036 0.7234146,-1.4825661 0.7234146,-1.442457 0.9826233,-1.442457 0.9826233,-1.3884324 1.0276438,-1.3884324 1.0276438,-1.442457 1.1234146,-1.442457 1.1234146,-1.4915702 1.0276438,-1.4915702z M0.8022686,-1.4915702 L0.9826233,-1.6168089 0.9826233,-1.4915702 0.8022686,-1.4915702z" transform="matrix(1,0,0,-1,3.529262,3.65)" fill="rgb(116,116,116)" fill-rule="nonzero" shaper:cutDepth="0.05cm" stroke-linecap="round" stroke-linejoin="round" /><path d="M2.8954427,-0.2315137 L2.8954427,-0.4959067 2.8954427,-0.4959067 2.8867179,-0.4956517 2.878101,-0.4947559 2.8696643,-0.4927887 2.8613363,-0.4901768 2.8613363,-0.4901768 2.8470634,-0.4837061 2.8333385,-0.4763258 2.8204838,-0.4675009 2.8081303,-0.4578439 2.8081303,-0.4578439 2.7919987,-0.4427207 2.7764555,-0.4270374 2.7617712,-0.4105363 2.7475573,-0.3935874 2.7475573,-0.3935874 2.7279743,-0.3699868 2.7076158,-0.3471474 2.6857843,-0.3257542 2.662837,-0.3054565 2.662837,-0.3054565 2.6492544,-0.2965381 2.6422728,-0.2925909 2.6350626,-0.2892583 2.6275554,-0.2867247 2.6197766,-0.2849213 2.6037647,-0.2825369 2.6037647,-0.2825369 2.5899232,-0.2841526 2.5832626,-0.2855735 2.5769143,-0.2877299 2.5709485,-0.2907876 2.5652964,-0.2945844 2.554515,-0.3034101 2.554515,-0.3034101 2.5457227,-0.3155908 2.5419909,-0.3219322 2.5390561,-0.3285748 2.5370506,-0.3355684 2.5357793,-0.3428395 2.5344604,-0.3578439 2.5344604,-0.3578439 2.5358291,-0.373557 2.5371657,-0.3811619 2.5392851,-0.3884647 2.5423987,-0.3953839 2.5463699,-0.4019723 2.5557428,-0.414597 2.5557428,-0.414597 2.5688962,-0.4241436 2.5757555,-0.4281733 2.5829535,-0.4313123 2.5905356,-0.4334408 2.598417,-0.4347821 2.6146787,-0.4361522 2.6094945,-0.4866297 2.6094945,-0.4866297 2.5852981,-0.4825834 2.5736361,-0.4796295 2.5624976,-0.4755586 2.5520316,-0.4700528 2.5421602,-0.4632785 2.52341,-0.447612 2.52341,-0.447612 2.5101328,-0.4268906 2.5045473,-0.4161727 2.5002233,-0.4050268 2.4973249,-0.3933972 2.4955356,-0.3813913 2.4938056,-0.3567525 2.4938056,-0.3567525 2.4957185,-0.3317621 2.4976671,-0.3196278 2.5008061,-0.3079266 2.5054711,-0.2967804 2.5114775,-0.2861222 2.5257292,-0.2656202 2.5257292,-0.2656202 2.5430266,-0.2513913 2.5521004,-0.245276 2.5616844,-0.2403597 2.5718885,-0.2369007 2.5825973,-0.234628 2.6048561,-0.2320594 2.6048561,-0.2320594 2.6169986,-0.2328626 2.6289531,-0.2345754 2.640598,-0.237785 2.6520594,-0.2418821 2.6520594,-0.2418821 2.6651835,-0.2486455 2.6777784,-0.2562125 2.6895656,-0.2650062 2.7008997,-0.2744878 2.7008997,-0.2744878 2.7193784,-0.2925899 2.7373092,-0.3112068 2.7712953,-0.3502041 2.7712953,-0.3502041 2.7958555,-0.3791283 2.8216364,-0.4069571 2.8216364,-0.4069571 2.8343968,-0.4180225 2.8482395,-0.4276938 2.8482395,-0.2315137 2.8954427,-0.2315137z" transform="matrix(1,0,0,-1,3.529262,3.65)" fill="rgb(116,116,116)" fill-rule="nonzero" shaper:cutDepth="0.05cm" stroke-linecap="round" stroke-linejoin="round" /><path d="M0.7427021,-3.4626318 L0.7427021,-3.4626318 0.7676171,-3.4565325 0.7797031,-3.4527416 0.7913432,-3.4480613 0.8023974,-3.4422121 0.8128938,-3.4352502 0.8329477,-3.4194531 0.8329477,-3.4194531 0.8447908,-3.4027368 0.8498601,-3.3940585 0.8539068,-3.3849959 0.8567262,-3.3754723 0.8585577,-3.3655775 0.8605739,-3.3451693 0.8605739,-3.3451693 0.8578297,-3.3206438 0.8553956,-3.3088184 0.851687,-3.2975179 0.8464109,-3.2868629 0.8398437,-3.2767397 0.8245575,-3.2573794 0.8245575,-3.2573794 0.8048161,-3.2420874 0.7945041,-3.2355324 0.7836625,-3.2302864 0.7721826,-3.2266187 0.7601867,-3.2242265 0.7353352,-3.2215677 0.7353352,-3.2215677 0.7120303,-3.2239288 0.700777,-3.226103 0.6900027,-3.2294698 0.6798263,-3.2343251 0.6701515,-3.2404293 0.651638,-3.2547191 0.651638,-3.2547191 0.637407,-3.2734184 0.6313327,-3.2831811 0.6265077,-3.2934396 0.6231679,-3.3042874 0.6210159,-3.3156065 0.6186912,-3.3390302 0.6186912,-3.3390302 0.6195894,-3.3521976 0.6211682,-3.3652626 0.6268768,-3.3910083 0.562211,-3.3828228 0.562211,-3.3828228 0.5630295,-3.3709538 0.5630295,-3.3709538 0.5612004,-3.3485159 0.5595576,-3.3375095 0.557041,-3.3267581 0.5534437,-3.316322 0.5489509,-3.3061473 0.5384729,-3.2862334 0.5384729,-3.2862334 0.5231469,-3.2697615 0.5148515,-3.2627644 0.5057976,-3.2572534 0.4958564,-3.2534804 0.4852132,-3.2510828 0.4627567,-3.24858 0.4627567,-3.24858 0.4439757,-3.2505868 0.4349222,-3.2524069 0.426273,-3.2552071 0.4181259,-3.2592238 0.4103968,-3.2642536 0.3956353,-3.2760015 0.3956353,-3.2760015 0.3840347,-3.2918024 0.3791009,-3.3000355 0.3752065,-3.3086676 0.372533,-3.3177685 0.370828,-3.3272412 0.3690322,-3.3468064 0.3690322,-3.3468064 0.3709464,-3.366564 0.3727141,-3.3761325 0.3754546,-3.3853289 0.3794106,-3.39406 0.3843879,-3.4024004 0.3960445,-3.4184299 0.3960445,-3.4184299 0.414046,-3.4324158 0.4234592,-3.4385361 0.4333651,-3.4436139 0.4438102,-3.4475506 0.4546702,-3.4506096 0.4770814,-3.4552648 0.4639845,-3.5289347 0.4639845,-3.5289347 0.4315336,-3.5204552 0.4159259,-3.5150842 0.4010595,-3.5083556 0.3871365,-3.4998992 0.3740307,-3.4899461 0.3491823,-3.4675431 0.3491823,-3.4675431 0.3314458,-3.4404048 0.3238988,-3.4263745 0.3179371,-3.4117911 0.3138401,-3.396557 0.3112238,-3.3808063 0.3084593,-3.3484436 0.3084593,-3.3484436 0.310013,-3.3249582 0.3114165,-3.3133627 0.3135721,-3.3019438 0.3166596,-3.2907439 0.3205218,-3.279726 0.329537,-3.2579933 0.329537,-3.2579933 0.3408334,-3.2393658 0.3469978,-3.2305246 0.3537818,-3.2222507 0.3613393,-3.2146848 0.3695458,-3.2077131 0.3870405,-3.19476 0.3870405,-3.19476 0.4053429,-3.1856072 0.4146695,-3.1816533 0.4242064,-3.1784466 0.4340029,-3.1761617 0.4440139,-3.174639 0.4643938,-3.1728637 0.4643938,-3.1728637 0.483165,-3.1744627 0.4923688,-3.1758769 0.5013547,-3.1780286 0.5100727,-3.1810863 0.5185704,-3.1848892 0.5351987,-3.1937368 0.5351987,-3.1937368 0.5509471,-3.206641 0.558282,-3.2135418 0.5649699,-3.2209806 0.5709061,-3.2290447 0.5762497,-3.2376018 0.585949,-3.2555377 0.585949,-3.2555377 0.5936346,-3.2317148 0.5983196,-3.2203291 0.6040153,-3.2095743 0.6109814,-3.1996126 0.619024,-3.1903228 0.636904,-3.1728637 0.636904,-3.1728637 0.6593365,-3.1598595 0.670865,-3.1543541 0.6827678,-3.1500436 0.6951034,-3.1471146 0.7077793,-3.1452716 0.7336981,-3.1433958 0.7336981,-3.1433958 0.7526019,-3.1453171 0.7712179,-3.1479084 0.7892583,-3.1518398 0.7979726,-3.1545174 0.8064351,-3.1577813 0.8146224,-3.161686 0.8225589,-3.1661744 0.8378228,-3.1765691 0.8525135,-3.1882982 0.8669177,-3.2006945 0.8669177,-3.2006945 0.879097,-3.2167532 0.8905799,-3.2330791 0.9006699,-3.2499391 0.9049749,-3.258653 0.9086709,-3.2676004 0.9117217,-3.2767953 0.9141964,-3.2862112 0.9177469,-3.3055795 0.9199807,-3.3254528 0.9215562,-3.3455786 0.9215562,-3.3455786 0.9202298,-3.3636423 0.9183341,-3.3814977 0.9152995,-3.3989365 0.9105566,-3.4157504 0.9036656,-3.4317784 0.8949526,-3.4471399 0.8850247,-3.462057 0.8744893,-3.4767519 0.8744893,-3.4767519 0.8613871,-3.4885448 0.8480076,-3.4997752 0.8340737,-3.5098805 0.8193081,-3.5182982 0.8035464,-3.5246946 0.7869841,-3.5294663 0.7698879,-3.5331548 0.7525248,-3.5363017 0.7427021,-3.4626318z" transform="matrix(1,0,0,-1,3.529262,3.65)" fill="rgb(116,116,116)" fill-rule="nonzero" shaper:cutDepth="0.05cm" stroke-linecap="round" stroke-linejoin="round" /><path d="M0.7472042,-2.9931911 L0.7472042,-2.9931911 0.7708415,-2.9881527 0.782272,-2.9848369 0.7932368,-2.9805655 0.8035979,-2.9750551 0.8134129,-2.9684239 0.8321292,-2.9532867 0.8321292,-2.9532867 0.8442656,-2.9363152 0.8494695,-2.9275016 0.8536363,-2.9182946 0.8565516,-2.9086127 0.8584547,-2.8985468 0.8605739,-2.8777751 0.8605739,-2.8777751 0.8573618,-2.8522409 0.8545884,-2.8399917 0.8504143,-2.8283641 0.8445397,-2.817491 0.8372827,-2.8072313 0.8204648,-2.7877342 0.8204648,-2.7877342 0.7964186,-2.7713825 0.7839413,-2.7644758 0.7709194,-2.7590904 0.7572731,-2.7554491 0.7431379,-2.7531737 0.7140527,-2.7508992 0.7140527,-2.7508992 0.686703,-2.7530237 0.6734347,-2.7551858 0.6606542,-2.7586678 0.648499,-2.7638413 0.6368931,-2.7705011 0.6145984,-2.7863016 0.6145984,-2.7863016 0.5987376,-2.806767 0.5919882,-2.8174735 0.5866555,-2.8287484 0.58299,-2.8406922 0.5806486,-2.8531673 0.5781728,-2.8790029 0.5781728,-2.8790029 0.5793355,-2.8957997 0.5820454,-2.9122027 0.5844133,-2.9201464 0.5873859,-2.9279363 0.5943392,-2.9432594 0.5943392,-2.9432594 0.6029035,-2.9563155 0.6125025,-2.9684028 0.6238585,-2.9788449 0.6362901,-2.9882798 0.627286,-3.0574476 0.3191005,-2.9993303 0.3191005,-2.7009674 0.3894961,-2.7009674 0.3894961,-2.9403944 0.5507513,-2.9727273 0.5507513,-2.9727273 0.5352689,-2.9463712 0.5285419,-2.9328612 0.523032,-2.9189529 0.5190473,-2.9045454 0.5163492,-2.8897168 0.5130977,-2.8593576 0.5130977,-2.8593576 0.5148476,-2.8406987 0.5172397,-2.8223044 0.5209163,-2.8044396 0.523437,-2.7957885 0.5265197,-2.787369 0.5302219,-2.7792048 0.5344938,-2.7712754 0.5444212,-2.755987 0.5556509,-2.7412352 0.5675316,-2.7267518 0.5675316,-2.7267518 0.5829368,-2.7146799 0.5986147,-2.7033016 0.6148382,-2.6933107 0.6232397,-2.6890523 0.6318797,-2.6854004 0.6407716,-2.6823889 0.6498879,-2.6799484 0.6686658,-2.6764539 0.6879568,-2.6742644 0.7075043,-2.6727274 0.7075043,-2.6727274 0.7455747,-2.6761696 0.7641268,-2.6793079 0.7820993,-2.6841467 0.7993506,-2.6911007 0.816,-2.6998206 0.8322481,-2.7097177 0.8482956,-2.7202034 0.8482956,-2.7202034 0.864419,-2.7366125 0.8796336,-2.7534473 0.886616,-2.7621575 0.8930304,-2.7711338 0.8987631,-2.7804294 0.9037008,-2.7900975 0.9077882,-2.800164 0.9111129,-2.8105877 0.913784,-2.8213177 0.9159103,-2.832303 0.9189644,-2.8548349 0.9211469,-2.8777751 0.9211469,-2.8777751 0.9182049,-2.9141877 0.9153283,-2.9318981 0.9107652,-2.9490134 0.9040592,-2.9653726 0.8955037,-2.9810792 0.8857142,-2.9963504 0.8753078,-3.011404 0.8753078,-3.011404 0.8622845,-3.0232005 0.8489788,-3.0344244 0.8351086,-3.0445029 0.8203914,-3.0528636 0.8046688,-3.0591847 0.788143,-3.0638765 0.7710817,-3.0674821 0.7537526,-3.0705445 0.7472042,-2.9931911z" transform="matrix(1,0,0,-1,3.529262,3.65)" fill="rgb(116,116,116)" fill-rule="nonzero" shaper:cutDepth="0.05cm" stroke-linecap="round" stroke-linejoin="round" /><path d="M0.5234146,-1.8579413 a0.15,0.15 0 1,1 0.3,0 a0.15,0.15 0 1,1 -0.3,0z" transform="matrix(1,0,0,-1,3.529262,3.65)" fill="rgb(255,255,255)" stroke="rgb(0,0,0)" stroke-width="0.0010cm" stroke-linecap="round" stroke-linejoin="round" shaper:cutDepth="0.3cm" /><path d="M-1.7545247,-2.0361834 a0.15,0.15 0 1,1 0.3,0 a0.15,0.15 0 1,1 -0.3,0z" transform="matrix(1,0,0,-1,3.529262,3.65)" fill="rgb(255,255,255)" stroke="rgb(0,0,0)" stroke-width="0.0010cm" stroke-linecap="round" stroke-linejoin="round" shaper:cutDepth="0.3cm" /><path d="M-1.9675107,0.5652453 a0.15,0.15 0 1,1 0.3,0 a0.15,0.15 0 1,1 -0.3,0z" transform="matrix(1,0,0,-1,3.529262,3.65)" fill="rgb(255,255,255)" stroke="rgb(0,0,0)" stroke-width="0.0010cm" stroke-linecap="round" stroke-linejoin="round" shaper:cutDepth="0.3cm" /><path d="M-0.342019,1.7430091 a0.15,0.15 0 1,1 0.3,0 a0.15,0.15 0 1,1 -0.3,0z" transform="matrix(1,0,0,-1,3.529262,3.65)" fill="rgb(255,255,255)" stroke="rgb(0,0,0)" stroke-width="0.0010cm" stroke-linecap="round" stroke-linejoin="round" shaper:cutDepth="0.3cm" /><path d="M2.2954427,-0.6997948 a0.15,0.15 0 1,1 0.3,0 a0.15,0.15 0 1,1 -0.3,0z" transform="matrix(1,0,0,-1,3.529262,3.65)" fill="rgb(255,255,255)" stroke="rgb(0,0,0)" stroke-width="0.0010cm" stroke-linecap="round" stroke-linejoin="round" shaper:cutDepth="0.3cm" /><path d="M-2.5342727,1.25 L-2.5342727,-1.25 -2.2342727,-1.25 -2.2342727,1.25 -2.5342727,1.25z" transform="matrix(1,0,0,-1,3.529262,3.65)" fill="rgb(255,255,255)" stroke="rgb(0,0,0)" stroke-width="0.0010cm" stroke-linecap="round" stroke-linejoin="round" shaper:cutDepth="0.3cm" /><path d="M2.979262,-3.25 a0.15,0.15 0 1,1 0.3,0 a0.15,0.15 0 1,1 -0.3,0z" transform="matrix(1,0,0,-1,3.529262,3.65)" fill="rgb(255,255,255)" stroke="rgb(0,0,0)" stroke-width="0.0010cm" stroke-linecap="round" stroke-linejoin="round" shaper:cutDepth="0.3cm" /><path d="M-1.520738,3.25 a0.15,0.15 0 1,1 0.3,0 a0.15,0.15 0 1,1 -0.3,0z" transform="matrix(1,0,0,-1,3.529262,3.65)" fill="rgb(255,255,255)" stroke="rgb(0,0,0)" stroke-width="0.0010cm" stroke-linecap="round" stroke-linejoin="round" shaper:cutDepth="0.3cm" /><path d="M2.979262,3.25 a0.15,0.15 0 1,1 0.3,0 a0.15,0.15 0 1,1 -0.3,0z" transform="matrix(1,0,0,-1,3.529262,3.65)" fill="rgb(255,255,255)" stroke="rgb(0,0,0)" stroke-width="0.0010cm" stroke-linecap="round" stroke-linejoin="round" shaper:cutDepth="0.3cm" /><path d="M-1.520738,-3.25 a0.15,0.15 0 1,1 0.3,0 a0.15,0.15 0 1,1 -0.3,0z" transform="matrix(1,0,0,-1,3.529262,3.65)" fill="rgb(255,255,255)" stroke="rgb(0,0,0)" stroke-width="0.0010cm" stroke-linecap="round" stroke-linejoin="round" shaper:cutDepth="0.3cm" /><path d="M-2.1707381,2 L-0.870738,2 -0.870738,2.7500001 -2.1707381,2.7500001 A0.3,0.3 90 0,1 -2.4707381,2.4500001 L-2.4707381,2.3 A0.3,0.3 180 0,1 -2.1707381,2z" transform="matrix(1,0,0,-1,3.529262,3.65)" fill="rgb(255,255,255)" stroke="rgb(0,0,0)" stroke-width="0.0010cm" stroke-linecap="round" stroke-linejoin="round" shaper:cutDepth="0.3cm" /></svg>