<?xml version="1.0" encoding="utf-8"?>
<!-- Generator: Fusion 360, Shaper Origin Export Add-In, Version 1.7.0  -->
<svg xmlns="http://www.w3.org/2000/svg" xmlns:xlink="http://www.w3.org/1999/xlink" xmlns:shaper="http://www.shapertools.com/namespaces/shaper" shaper:fusionaddin="version:1.7.0" width="7.058524cm" height="7.3cm" version="1.1" x="0cm" y="0cm" viewBox="0 0 7.058524 7.3" enable-background="new 0 0 7.058524 7.3" xml:space="preserve"><path d="M-3.529262,-2.0046781 L-1.8572407,-3.5690658 A0.3,0.3 226.9047902 0,1 -1.6522768,-3.65 L3.229262,-3.65 A0.3,0.3 270 0,1 3.529262,-3.35 L3.529262,-2.7885309 3.229262,-2.7885309 3.229262,-0.7885309 3.529262,-0.7885309 3.529262,3.35 A0.3,0.3 0 0,1 3.229262,3.65 L-1.6522768,3.65 A0.3,0.3 90 0,1 -1.8572407,3.5690658 L-3.529262,2.0046781 -3.529262,1.65 -3.2342727,1.65 -3.2342727,-1.65 -3.529262,-1.65 -3.529262,-2.0046781z" transform="matrix(1,0,0,-1,3.529262,3.65)" fill="rgb(0,0,0)" shaper:cutDepth="0.3cm" stroke-linecap="round" stroke-linejoin="round" /><path d="M-1.2217155,-2.3159332 L-1.2217155,-2.4894666 -1.2667359,-2.4894666 -1.5259447,-2.3069291 -1.5259447,-2.2668199 -1.2667359,-2.2668199 -1.2667359,-2.2127954 -1.2217155,-2.2127954 -1.2217155,-2.2668199 -1.1259447,-2.2668199 -1.1259447,-2.3159332 -1.2217155,-2.3159332z M-1.4470906,-2.3159332 L-1.2667359,-2.4411719 -1.2667359,-2.3159332 -1.4470906,-2.3159332z" transform="matrix(1,0,0,-1,3.529262,3.65)" fill="rgb(116,116,116)" fill-rule="nonzero" shaper:cutDepth="0.05cm" stroke-linecap="round" stroke-linejoin="round" /><path d="M-0.6800767,-0.182918 L-0.6800767,-0.182918 -0.6643185,-0.179559 -0.6566981,-0.1773485 -0.6493882,-0.1745008 -0.6424808,-0.1708273 -0.6359375,-0.1664065 -0.62346,-0.1563149 -0.62346,-0.1563149 -0.615369,-0.1450007 -0.6118997,-0.1391249 -0.6091219,-0.1329869 -0.6071784,-0.1265323 -0.6059096,-0.1198217 -0.6044969,-0.1059739 -0.6044969,-0.1059739 -0.6066383,-0.0889511 -0.6084872,-0.080785 -0.61127,-0.0730332 -0.6151864,-0.0657845 -0.6200244,-0.0589447 -0.6312363,-0.0459466 -0.6312363,-0.0459466 -0.6472671,-0.0350456 -0.6555853,-0.0304411 -0.6642666,-0.0268508 -0.6733641,-0.0244233 -0.6827875,-0.0229063 -0.7021776,-0.02139 -0.7021776,-0.02139 -0.7204108,-0.0228063 -0.7292563,-0.0242477 -0.7377766,-0.0265691 -0.7458801,-0.030018 -0.7536174,-0.0344579 -0.7684805,-0.0449916 -0.7684805,-0.0449916 -0.7790544,-0.0586352 -0.783554,-0.0657729 -0.7871091,-0.0732895 -0.7895528,-0.081252 -0.7911137,-0.0895688 -0.7927643,-0.1067925 -0.7927643,-0.1067925 -0.7919891,-0.1179903 -0.7901825,-0.1289257 -0.7866222,-0.1394147 -0.7819866,-0.1496301 -0.7819866,-0.1496301 -0.7762771,-0.1583342 -0.7698778,-0.1663924 -0.7623071,-0.1733538 -0.7540194,-0.1796437 -0.7600221,-0.2257556 -0.9654791,-0.1870107 -0.9654791,0.0118979 -0.9185487,0.0118979 -0.9185487,-0.1477201 -0.8110453,-0.1692754 -0.8110453,-0.1692754 -0.8213669,-0.1517046 -0.8258515,-0.142698 -0.8295248,-0.1334258 -0.8321812,-0.1238207 -0.83398,-0.113935 -0.8361476,-0.0936956 -0.8361476,-0.0936956 -0.8333863,-0.0689935 -0.8309353,-0.0570836 -0.8271997,-0.0457032 -0.8218836,-0.0349742 -0.8152653,-0.0247819 -0.7998584,-0.0052918 -0.7998584,-0.0052918 -0.7791363,0.0103418 -0.7683207,0.0170024 -0.7569597,0.022276 -0.7449542,0.0259106 -0.7324356,0.0282403 -0.7065433,0.0307246 -0.7065433,0.0307246 -0.681163,0.0284297 -0.6687949,0.0263375 -0.6568133,0.0231116 -0.6453124,0.0184756 -0.6342128,0.0126624 -0.6126824,-0.0009261 -0.6126824,-0.0009261 -0.6019335,-0.0118655 -0.5917904,-0.0230887 -0.5828592,-0.0348797 -0.5757456,-0.0475222 -0.5708042,-0.0611823 -0.567606,-0.0756591 -0.5655699,-0.0906804 -0.5641149,-0.1059739 -0.5641149,-0.1059739 -0.5660762,-0.130249 -0.5679939,-0.1420559 -0.571036,-0.1534661 -0.5755066,-0.1643722 -0.5812103,-0.1748433 -0.5946743,-0.1950598 -0.5946743,-0.1950598 -0.6122269,-0.2104068 -0.6214738,-0.2171258 -0.6312852,-0.2226996 -0.6417669,-0.2269137 -0.6527841,-0.2300415 -0.6757111,-0.2344869 -0.6800767,-0.182918z" transform="matrix(1,0,0,-1,3.529262,3.65)" fill="rgb(116,116,116)" fill-rule="nonzero" shaper:cutDepth="0.05cm" stroke-linecap="round" stroke-linejoin="round" /><path d="M-0.365002,1.8650037 L-0.3672621,1.691485 -0.4122788,1.6920713 -0.6690881,1.8779694 -0.6685657,1.9180751 -0.409379,1.9146991 -0.4086754,1.9687191 -0.3636587,1.9681327 -0.3643623,1.9141128 -0.2685997,1.9128654 -0.2692393,1.8637563 -0.365002,1.8650037z M-0.5903581,1.867939 L-0.4116498,1.7403619 -0.4100186,1.86559 -0.5903581,1.867939z" transform="matrix(1,0,0,-1,3.529262,3.65)" fill="rgb(116,116,116)" fill-rule="nonzero" shaper:cutDepth="0.05cm" stroke-linecap="round" stroke-linejoin="round" /><path d="M1.7924596,-0.0833232 L1.7924596,-0.3477161 1.7924596,-0.3477161 1.7837348,-0.3474612 1.7751178,-0.3465653 1.7666812,-0.3445982 1.7583531,-0.3419862 1.7583531,-0.3419862 1.7440803,-0.3355156 1.7303553,-0.3281353 1.7175007,-0.3193103 1.7051472,-0.3096534 1.7051472,-0.3096534 1.6890156,-0.2945301 1.6734724,-0.2788468 1.6587881,-0.2623458 1.6445742,-0.2453969 1.6445742,-0.2453969 1.6249911,-0.2217962 1.6046326,-0.1989569 1.5828012,-0.1775636 1.5598538,-0.1572659 1.5598538,-0.1572659 1.5462713,-0.1483475 1.5392896,-0.1444004 1.5320795,-0.1410678 1.5245723,-0.1385342 1.5167935,-0.1367308 1.5007815,-0.1343464 1.5007815,-0.1343464 1.4869401,-0.1359621 1.4802795,-0.1373829 1.4739312,-0.1395394 1.4679653,-0.1425971 1.4623132,-0.1463939 1.4515319,-0.1552195 1.4515319,-0.1552195 1.4427396,-0.1674003 1.4390078,-0.1737417 1.436073,-0.1803842 1.4340675,-0.1873779 1.4327962,-0.1946489 1.4314773,-0.2096533 1.4314773,-0.2096533 1.432846,-0.2253665 1.4341826,-0.2329713 1.436302,-0.2402742 1.4394156,-0.2471934 1.4433868,-0.2537817 1.4527597,-0.2664064 1.4527597,-0.2664064 1.465913,-0.275953 1.4727724,-0.2799828 1.4799703,-0.2831217 1.4875524,-0.2852503 1.4954339,-0.2865915 1.5116956,-0.2879617 1.5065114,-0.3384392 1.5065114,-0.3384392 1.482315,-0.3343929 1.470653,-0.3314389 1.4595145,-0.3273681 1.4490485,-0.3218623 1.4391771,-0.315088 1.4204268,-0.2994214 1.4204268,-0.2994214 1.4071497,-0.2787001 1.4015642,-0.2679821 1.3972402,-0.2568362 1.3943418,-0.2452067 1.3925525,-0.2332008 1.3908225,-0.208562 1.3908225,-0.208562 1.3927354,-0.1835716 1.394684,-0.1714373 1.397823,-0.1597361 1.402488,-0.1485899 1.4084943,-0.1379317 1.4227461,-0.1174296 1.4227461,-0.1174296 1.4400435,-0.1032008 1.4491173,-0.0970855 1.4587013,-0.0921692 1.4689054,-0.0887102 1.4796142,-0.0864374 1.501873,-0.0838689 1.501873,-0.0838689 1.5140155,-0.0846721 1.5259699,-0.0863848 1.5376148,-0.0895945 1.5490762,-0.0936916 1.5490762,-0.0936916 1.5622004,-0.1004549 1.5747953,-0.108022 1.5865825,-0.1168156 1.5979166,-0.1262973 1.5979166,-0.1262973 1.6163953,-0.1443993 1.6343261,-0.1630163 1.6683122,-0.2020135 1.6683122,-0.2020135 1.6928724,-0.2309378 1.7186533,-0.2587666 1.7186533,-0.2587666 1.7314137,-0.269832 1.7452563,-0.2795033 1.7452563,-0.0833232 1.7924596,-0.0833232z" transform="matrix(1,0,0,-1,3.529262,3.65)" fill="rgb(116,116,116)" fill-rule="nonzero" shaper:cutDepth="0.05cm" stroke-linecap="round" stroke-linejoin="round" /><path d="M0.8505823,-2.271841 L0.8505823,-2.271841 0.8663405,-2.268482 0.8739609,-2.2662715 0.8812707,-2.2634238 0.8881781,-2.2597503 0.8947214,-2.2553295 0.907199,-2.2452379 0.907199,-2.2452379 0.9152899,-2.2339237 0.9187592,-2.2280479 0.9215371,-2.2219099 0.9234806,-2.2154553 0.9247493,-2.2087447 0.9261621,-2.1948969 0.9261621,-2.1948969 0.9240207,-2.1778741 0.9221717,-2.169708 0.919389,-2.1619562 0.9154726,-2.1547075 0.9106346,-2.1478677 0.8994227,-2.1348696 0.8994227,-2.1348696 0.8833919,-2.1239686 0.8750737,-2.1193641 0.8663924,-2.1157738 0.8572949,-2.1133463 0.8478715,-2.1118293 0.8284813,-2.110313 0.8284813,-2.110313 0.8102482,-2.1117293 0.8014026,-2.1131707 0.7928823,-2.1154921 0.7847788,-2.118941 0.7770416,-2.1233809 0.7621785,-2.1339146 0.7621785,-2.1339146 0.7516046,-2.1475582 0.747105,-2.1546959 0.7435498,-2.1622125 0.7411062,-2.170175 0.7395453,-2.1784917 0.7378947,-2.1957155 0.7378947,-2.1957155 0.7386698,-2.2069133 0.7404764,-2.2178487 0.7440368,-2.2283377 0.7486723,-2.2385531 0.7486723,-2.2385531 0.7543819,-2.2472572 0.7607812,-2.2553154 0.7683519,-2.2622768 0.7766396,-2.2685667 0.7706369,-2.3146786 0.5651798,-2.2759337 0.5651798,-2.0770251 0.6121102,-2.0770251 0.6121102,-2.2366431 0.7196137,-2.2581984 0.7196137,-2.2581984 0.7092921,-2.2406276 0.7048075,-2.231621 0.7011342,-2.2223487 0.6984777,-2.2127437 0.696679,-2.202858 0.6945113,-2.1826186 0.6945113,-2.1826186 0.6972726,-2.1579165 0.6997237,-2.1460066 0.7034593,-2.1346262 0.7087754,-2.1238972 0.7153936,-2.1137048 0.7308006,-2.0942148 0.7308006,-2.0942148 0.7515226,-2.0785812 0.7623382,-2.0719206 0.7736993,-2.066647 0.7857047,-2.0630124 0.7982233,-2.0606827 0.8241157,-2.0581984 0.8241157,-2.0581984 0.849496,-2.0604933 0.8618641,-2.0625855 0.8738457,-2.0658113 0.8853466,-2.0704474 0.8964462,-2.0762606 0.9179765,-2.0898491 0.9179765,-2.0898491 0.9287255,-2.1007885 0.9388686,-2.1120117 0.9477998,-2.1238027 0.9549133,-2.1364452 0.9598548,-2.1501053 0.963053,-2.1645821 0.9650891,-2.1796034 0.9665441,-2.1948969 0.9665441,-2.1948969 0.9645828,-2.219172 0.9626651,-2.2309789 0.959623,-2.2423891 0.9551524,-2.2532952 0.9494486,-2.2637663 0.9359847,-2.2839828 0.9359847,-2.2839828 0.918432,-2.2993298 0.9091852,-2.3060488 0.8993738,-2.3116226 0.888892,-2.3158367 0.8778748,-2.3189645 0.8549479,-2.3234098 0.8505823,-2.271841z" transform="matrix(1,0,0,-1,3.529262,3.65)" fill="rgb(116,116,116)" fill-rule="nonzero" shaper:cutDepth="0.05cm" stroke-linecap="round" stroke-linejoin="round" /><path d="M0.741694,-3.1414056 L0.741694,-3.537995 0.741694,-3.537995 0.7286068,-3.5376125 0.7156814,-3.5362688 0.7030265,-3.5333181 0.6905344,-3.5294001 0.6905344,-3.5294001 0.6691251,-3.5196941 0.6485376,-3.5086237 0.6292556,-3.4953862 0.6107254,-3.4809008 0.6107254,-3.4809008 0.5865281,-3.458216 0.5632132,-3.434691 0.5411868,-3.4099394 0.5198659,-3.3845161 0.5198659,-3.3845161 0.4904913,-3.3491151 0.4754405,-3.3317715 0.4599536,-3.3148561 0.443886,-3.2985107 0.4272064,-3.2827662 0.3927854,-3.2523197 0.3927854,-3.2523197 0.3724116,-3.2389421 0.3619391,-3.2330214 0.3511239,-3.2280224 0.339863,-3.224222 0.3281949,-3.2215169 0.3041769,-3.2179404 0.3041769,-3.2179404 0.2834147,-3.2203639 0.2734239,-3.2224952 0.2639014,-3.2257298 0.2549526,-3.2303164 0.2464744,-3.2360116 0.2303024,-3.2492501 0.2303024,-3.2492501 0.217114,-3.2675212 0.2115163,-3.2770334 0.2071141,-3.2869971 0.2041059,-3.2974876 0.202199,-3.3083942 0.2002206,-3.3309008 0.2002206,-3.3309008 0.2022736,-3.3544705 0.2042785,-3.3658778 0.2074576,-3.376832 0.212128,-3.3872109 0.2180848,-3.3970934 0.2321442,-3.4160304 0.2321442,-3.4160304 0.2518742,-3.4303503 0.2621632,-3.4363949 0.2729602,-3.4411034 0.2843333,-3.4442962 0.2961554,-3.4463081 0.320548,-3.4483633 0.3127718,-3.5240796 0.3127718,-3.5240796 0.2944936,-3.5213241 0.2764771,-3.5180101 0.2589841,-3.5135792 0.2422763,-3.507473 0.2342974,-3.5036199 0.2265774,-3.4992142 0.2117702,-3.4890528 0.1975587,-3.4776205 0.1836449,-3.4655529 0.1836449,-3.4655529 0.1733711,-3.4501191 0.1637291,-3.4344709 0.155351,-3.418394 0.1488649,-3.4016751 0.1445173,-3.3842308 0.1418333,-3.366222 0.1392383,-3.3292637 0.1392383,-3.3292637 0.1403754,-3.3104127 0.1421077,-3.2917782 0.1450306,-3.2735767 0.1497392,-3.2560249 0.1529455,-3.2475589 0.1567366,-3.2393056 0.1657461,-3.2233182 0.1760991,-3.2078196 0.1871238,-3.1925652 0.1871238,-3.1925652 0.1999693,-3.1815939 0.2130699,-3.171222 0.2266806,-3.162049 0.2410566,-3.1546745 0.2563627,-3.1494861 0.2724259,-3.146077 0.2889938,-3.143854 0.3058141,-3.1422242 0.3058141,-3.1422242 0.3240278,-3.143429 0.3419595,-3.1459981 0.3594269,-3.1508126 0.376619,-3.1569581 0.376619,-3.1569581 0.3963052,-3.1671032 0.4151976,-3.1784538 0.4328784,-3.1916442 0.4498796,-3.2058667 0.4498796,-3.2058667 0.4775976,-3.2330197 0.5044939,-3.2609452 0.5302785,-3.2899158 0.555473,-3.319441 0.555473,-3.319441 0.5923133,-3.3628274 0.6114193,-3.3839051 0.6309846,-3.4045707 0.6309846,-3.4045707 0.6501252,-3.4211687 0.6708891,-3.4356757 0.6708891,-3.1414056 0.741694,-3.1414056z" transform="matrix(1,0,0,-1,3.529262,3.65)" fill="rgb(116,116,116)" fill-rule="nonzero" shaper:cutDepth="0.05cm" stroke-linecap="round" stroke-linejoin="round" /><path d="M0.741694,-2.6752392 L0.741694,-3.0718285 0.741694,-3.0718285 0.7286068,-3.0714461 0.7156814,-3.0701024 0.7030265,-3.0671516 0.6905344,-3.0632337 0.6905344,-3.0632337 0.6691251,-3.0535277 0.6485376,-3.0424573 0.6292556,-3.0292198 0.6107254,-3.0147344 0.6107254,-3.0147344 0.5865281,-2.9920496 0.5632132,-2.9685246 0.5411868,-2.943773 0.5198659,-2.9183496 0.5198659,-2.9183496 0.4904913,-2.8829487 0.4754405,-2.865605 0.4599536,-2.8486896 0.443886,-2.8323443 0.4272064,-2.8165998 0.3927854,-2.7861532 0.3927854,-2.7861532 0.3724116,-2.7727756 0.3619391,-2.7668549 0.3511239,-2.7618559 0.339863,-2.7580556 0.3281949,-2.7553505 0.3041769,-2.751774 0.3041769,-2.751774 0.2834147,-2.7541975 0.2734239,-2.7563288 0.2639014,-2.7595635 0.2549526,-2.76415 0.2464745,-2.7698452 0.2303024,-2.7830836 0.2303024,-2.7830836 0.2171139,-2.8013548 0.2115163,-2.8108669 0.2071141,-2.8208307 0.2041059,-2.8313212 0.202199,-2.8422277 0.2002206,-2.8647344 0.2002206,-2.8647344 0.2022736,-2.888304 0.2042785,-2.8997113 0.2074576,-2.9106656 0.212128,-2.9210445 0.2180848,-2.9309269 0.2321442,-2.949864 0.2321442,-2.949864 0.2518742,-2.9641839 0.2621632,-2.9702285 0.2729601,-2.974937 0.2843333,-2.9781298 0.2961554,-2.9801416 0.320548,-2.9821969 0.3127718,-3.0579131 0.3127718,-3.0579131 0.2944936,-3.0551576 0.2764771,-3.0518437 0.2589841,-3.0474128 0.2422763,-3.0413065 0.2342974,-3.0374534 0.2265774,-3.0330478 0.2117702,-3.0228863 0.1975587,-3.0114541 0.1836449,-2.9993865 0.1836449,-2.9993865 0.1733711,-2.9839527 0.1637291,-2.9683045 0.155351,-2.9522275 0.1488649,-2.9355087 0.1445173,-2.9180643 0.1418333,-2.9000556 0.1392383,-2.8630973 0.1392383,-2.8630973 0.1403754,-2.8442462 0.1421077,-2.8256117 0.1450306,-2.8074103 0.1497392,-2.7898585 0.1529455,-2.7813925 0.1567366,-2.7731392 0.1657462,-2.7571518 0.1760991,-2.7416532 0.1871238,-2.7263988 0.1871238,-2.7263988 0.1999693,-2.7154275 0.2130699,-2.7050556 0.2266806,-2.6958826 0.2410566,-2.6885081 0.2563627,-2.6833197 0.2724259,-2.6799105 0.2889938,-2.6776876 0.3058141,-2.6760577 0.3058141,-2.6760577 0.3240278,-2.6772626 0.3419595,-2.6798317 0.3594269,-2.6846462 0.376619,-2.6907917 0.376619,-2.6907917 0.3963052,-2.7009368 0.4151976,-2.7122873 0.4328784,-2.7254778 0.4498796,-2.7397002 0.4498796,-2.7397002 0.4775975,-2.7668533 0.5044938,-2.7947788 0.5302784,-2.8237493 0.555473,-2.8532746 0.555473,-2.8532746 0.5923133,-2.896661 0.6114194,-2.9177386 0.6309846,-2.9384042 0.6309846,-2.9384042 0.6501252,-2.9550023 0.6708891,-2.9695093 0.6708891,-2.6752392 0.741694,-2.6752392z" transform="matrix(1,0,0,-1,3.529262,3.65)" fill="rgb(116,116,116)" fill-rule="nonzero" shaper:cutDepth="0.05cm" stroke-linecap="round" stroke-linejoin="round" /><path d="M-1.1682077,-0.4411035 a0.15,0.15 0 1,1 0.3,0 a0.15,0.15 0 1,1 -0.3,0z" transform="matrix(1,0,0,-1,3.529262,3.65)" fill="rgb(255,255,255)" stroke="rgb(0,0,0)" stroke-width="0.0010cm" stroke-linecap="round" stroke-linejoin="round" shaper:cutDepth="0.3cm" /><path d="M0.3624513,-2.5300265 a0.15,0.15 0 1,1 0.3,0 a0.15,0.15 0 1,1 -0.3,0z" transform="matrix(1,0,0,-1,3.529262,3.65)" fill="rgb(255,255,255)" stroke="rgb(0,0,0)" stroke-width="0.0010cm" stroke-linecap="round" stroke-linejoin="round" shaper:cutDepth="0.3cm" /><path d="M-1.7259447,-2.6823042 a0.15,0.15 0 1,1 0.3,0 a0.15,0.15 0 1,1 -0.3,0z" transform="matrix(1,0,0,-1,3.529262,3.65)" fill="rgb(255,255,255)" stroke="rgb(0,0,0)" stroke-width="0.0010cm" stroke-linecap="round" stroke-linejoin="round" shaper:cutDepth="0.3cm" /><path d="M1.1924596,-0.5516042 a0.15,0.15 0 1,1 0.3,0 a0.15,0.15 0 1,1 -0.3,0z" transform="matrix(1,0,0,-1,3.529262,3.65)" fill="rgb(255,255,255)" stroke="rgb(0,0,0)" stroke-width="0.0010cm" stroke-linecap="round" stroke-linejoin="round" shaper:cutDepth="0.3cm" /><path d="M-1.0434408,1.5949114 a0.15,0.15 0 1,1 0.3,0 a0.15,0.15 0 1,1 -0.3,0z" transform="matrix(1,0,0,-1,3.529262,3.65)" fill="rgb(255,255,255)" stroke="rgb(0,0,0)" stroke-width="0.0010cm" stroke-linecap="round" stroke-linejoin="round" shaper:cutDepth="0.3cm" /><path d="M-2.5342727,1.25 L-2.5342727,-1.25 -2.2342727,-1.25 -2.2342727,1.25 -2.5342727,1.25z" transform="matrix(1,0,0,-1,3.529262,3.65)" fill="rgb(255,255,255)" stroke="rgb(0,0,0)" stroke-width="0.0010cm" stroke-linecap="round" stroke-linejoin="round" shaper:cutDepth="0.3cm" /><path d="M2.979262,-3.25 a0.15,0.15 0 1,1 0.3,0 a0.15,0.15 0 1,1 -0.3,0z" transform="matrix(1,0,0,-1,3.529262,3.65)" fill="rgb(255,255,255)" stroke="rgb(0,0,0)" stroke-width="0.0010cm" stroke-linecap="round" stroke-linejoin="round" shaper:cutDepth="0.3cm" /><path d="M-1.520738,3.25 a0.15,0.15 0 1,1 0.3,0 a0.15,0.15 0 1,1 -0.3,0z" transform="matrix(1,0,0,-1,3.529262,3.65)" fill="rgb(255,255,255)" stroke="rgb(0,0,0)" stroke-width="0.0010cm" stroke-linecap="round" stroke-linejoin="round" shaper:cutDepth="0.3cm" /><path d="M2.979262,3.25 a0.15,0.15 0 1,1 0.3,0 a0.15,0.15 0 1,1 -0.3,0z" transform="matrix(1,0,0,-1,3.529262,3.65)" fill="rgb(255,255,255)" stroke="rgb(0,0,0)" stroke-width="0.0010cm" stroke-linecap="round" stroke-linejoin="round" shaper:cutDepth="0.3cm" /><path d="M-1.520738,-3.25 a0.15,0.15 0 1,1 0.3,0 a0.15,0.15 0 1,1 -0.3,0z" transform="matrix(1,0,0,-1,3.529262,3.65)" fill="rgb(255,255,255)" stroke="rgb(0,0,0)" stroke-width="0.0010cm" stroke-linecap="round" stroke-linejoin="round" shaper:cutDepth="0.3cm" /><path d="M-2.1707381,2 L-0.870738,2 -0.870738,2.7500001 -2.1707381,2.7500001 A0.3,0.3 90 0,1 -2.4707381,2.4500001 L-2.4707381,2.3 A0.3,0.3 180 0,1 -2.1707381,2z" transform="matrix(1,0,0,-1,3.529262,3.65)" fill="rgb(255,255,255)" stroke="rgb(0,0,0)" stroke-width="0.0010cm" stroke-linecap="round" stroke-linejoin="round" shaper:cutDepth="0.3cm" /></svg>