<?xml version="1.0" encoding="utf-8"?>
<!-- Generator: Fusion 360, Shaper Origin Export Add-In, Version 1.7.0  -->
<svg xmlns="http://www.w3.org/2000/svg" xmlns:xlink="http://www.w3.org/1999/xlink" xmlns:shaper="http://www.shapertools.com/namespaces/shaper" shaper:fusionaddin="version:1.7.0" width="7.058524cm" height="7.3cm" version="1.1" x="0cm" y="0cm" viewBox="0 0 7.058524 7.3" enable-background="new 0 0 7.058524 7.3" xml:space="preserve"><path d="M-3.529262,-2.0046781 L-1.8572407,-3.5690658 A0.3,0.3 226.9047902 0,1 -1.6522768,-3.65 L3.229262,-3.65 A0.3,0.3 270 0,1 3.529262,-3.35 L3.529262,-2.7885309 3.229262,-2.7885309 3.229262,-0.7885309 3.529262,-0.7885309 3.529262,3.35 A0.3,0.3 0 0,1 3.229262,3.65 L-1.6522768,3.65 A0.3,0.3 90 0,1 -1.8572407,3.5690658 L-3.529262,2.0046781 -3.529262,1.65 -3.2342727,1.65 -3.2342727,-1.65 -3.529262,-1.65 -3.529262,-2.0046781z" transform="matrix(1,0,0,-1,3.529262,3.65)" fill="rgb(0,0,0)" shaper:cutDepth="0.3cm" stroke-linecap="round" stroke-linejoin="round" /><path d="M2.5097227,0.1298423 L2.5097227,-0.0436911 2.4647022,-0.0436911 2.2054935,0.1388464 2.2054935,0.1789555 2.4647022,0.1789555 2.4647022,0.2329801 2.5097227,0.2329801 2.5097227,0.1789555 2.6054935,0.1789555 2.6054935,0.1298423 2.5097227,0.1298423z M2.2843475,0.1298423 L2.4647022,0.0046035 2.4647022,0.1298423 2.2843475,0.1298423z" transform="matrix(1,0,0,-1,3.529262,3.65)" fill="rgb(116,116,116)" fill-rule="nonzero" shaper:cutDepth="0.05cm" stroke-linecap="round" stroke-linejoin="round" /><path d="M-1.0013023,1.6644836 L-1.0013023,1.6644836 -0.9855441,1.6678425 -0.9779237,1.670053 -0.9706138,1.6729007 -0.9637064,1.6765742 -0.9571631,1.680995 -0.9446856,1.6910866 -0.9446856,1.6910866 -0.9365946,1.7024009 -0.9331253,1.7082766 -0.9303475,1.7144146 -0.928404,1.7208692 -0.9271352,1.7275798 -0.9257225,1.7414276 -0.9257225,1.7414276 -0.9278639,1.7584504 -0.9297128,1.7666165 -0.9324956,1.7743683 -0.936412,1.781617 -0.94125,1.7884568 -0.9524619,1.8014549 -0.9524619,1.8014549 -0.9684927,1.812356 -0.9768109,1.8169604 -0.9854922,1.8205507 -0.9945897,1.8229782 -1.0040131,1.8244952 -1.0234032,1.8260115 -1.0234032,1.8260115 -1.0416364,1.8245952 -1.0504819,1.8231538 -1.0590022,1.8208325 -1.0671057,1.8173835 -1.074843,1.8129436 -1.0897061,1.8024099 -1.0897061,1.8024099 -1.10028,1.7887663 -1.1047796,1.7816286 -1.1083347,1.774112 -1.1107784,1.7661495 -1.1123393,1.7578328 -1.1139899,1.7406091 -1.1139899,1.7406091 -1.1132147,1.7294112 -1.1114081,1.7184759 -1.1078478,1.7079868 -1.1032122,1.6977714 -1.1032122,1.6977714 -1.0975027,1.6890673 -1.0911034,1.6810091 -1.0835327,1.6740477 -1.075245,1.6677578 -1.0812477,1.6216459 -1.2867047,1.6603908 -1.2867047,1.8592994 -1.2397743,1.8592994 -1.2397743,1.6996814 -1.1322709,1.6781261 -1.1322709,1.6781261 -1.1425925,1.6956969 -1.1470771,1.7047035 -1.1507504,1.7139758 -1.1534068,1.7235808 -1.1552056,1.7334665 -1.1573732,1.7537059 -1.1573732,1.7537059 -1.1546119,1.778408 -1.1521609,1.7903179 -1.1484253,1.8016983 -1.1431092,1.8124274 -1.1364909,1.8226197 -1.121084,1.8421098 -1.121084,1.8421098 -1.1003619,1.8577433 -1.0895463,1.8644039 -1.0781853,1.8696775 -1.0661798,1.8733121 -1.0536612,1.8756418 -1.0277689,1.8781261 -1.0277689,1.8781261 -1.0023886,1.8758313 -0.9900205,1.8737391 -0.9780389,1.8705132 -0.966538,1.8658772 -0.9554384,1.8600639 -0.933908,1.8464754 -0.933908,1.8464754 -0.9231591,1.835536 -0.913016,1.8243128 -0.9040848,1.8125218 -0.8969712,1.7998793 -0.8920298,1.7862192 -0.8888316,1.7717424 -0.8867955,1.7567211 -0.8853405,1.7414276 -0.8853405,1.7414276 -0.8873018,1.7171526 -0.8892195,1.7053456 -0.8922616,1.6939354 -0.8967322,1.6830293 -0.9024359,1.6725582 -0.9158999,1.6523417 -0.9158999,1.6523417 -0.9334525,1.6369947 -0.9426994,1.6302757 -0.9525108,1.6247019 -0.9629925,1.6204878 -0.9740097,1.61736 -0.9969367,1.6129147 -1.0013023,1.6644836z" transform="matrix(1,0,0,-1,3.529262,3.65)" fill="rgb(116,116,116)" fill-rule="nonzero" shaper:cutDepth="0.05cm" stroke-linecap="round" stroke-linejoin="round" /><path d="M0.7929656,1.0766803 L0.7929656,1.0766803 0.8095756,1.0807465 0.8176329,1.0832738 0.825393,1.086394 0.8327625,1.0902934 0.8397601,1.0949347 0.8531293,1.1054661 0.8531293,1.1054661 0.8610248,1.1166103 0.8644044,1.1223958 0.8671021,1.1284375 0.8689818,1.1347866 0.8702027,1.1413831 0.8715468,1.1549886 0.8715468,1.1549886 0.8697173,1.171339 0.8680946,1.1792226 0.8656222,1.1867562 0.8621048,1.1938595 0.8577267,1.2006084 0.8475359,1.2135152 0.8475359,1.2135152 0.8343749,1.2237098 0.8275002,1.2280799 0.8202725,1.2315772 0.8126192,1.2340223 0.804622,1.2356172 0.7880543,1.2373897 0.7880543,1.2373897 0.7725177,1.2358156 0.7650156,1.2343661 0.7578327,1.2321216 0.7510484,1.2288847 0.7445986,1.2248153 0.7322562,1.2152887 0.7322562,1.2152887 0.7227689,1.2028226 0.7187193,1.1963141 0.7155027,1.1894751 0.7132762,1.1822432 0.7118415,1.1746971 0.7102917,1.1590814 0.7102917,1.1590814 0.711943,1.1415931 0.7157487,1.1244293 0.6726382,1.1298863 0.6726382,1.1298863 0.6731839,1.137799 0.6731839,1.137799 0.6719645,1.1527575 0.6708693,1.1600952 0.6691916,1.1672627 0.6667934,1.1742201 0.6637982,1.1810033 0.6568128,1.1942792 0.6568128,1.1942792 0.6465955,1.2052605 0.6410653,1.2099252 0.6350293,1.2135992 0.6284019,1.2161145 0.6213064,1.2177129 0.6063353,1.2193815 0.6063353,1.2193815 0.5938147,1.2180436 0.587779,1.2168302 0.5820129,1.2149634 0.5765815,1.2122856 0.5714287,1.2089324 0.5615877,1.2011005 0.5615877,1.2011005 0.553854,1.1905666 0.5505648,1.1850778 0.5479685,1.179323 0.5461862,1.1732558 0.5450496,1.1669406 0.5438524,1.1538972 0.5438524,1.1538972 0.5451285,1.1407255 0.5463069,1.1343465 0.5481339,1.1282156 0.5507713,1.1223948 0.5540895,1.1168345 0.5618606,1.1061482 0.5618606,1.1061482 0.5738616,1.0968243 0.580137,1.0927441 0.5867409,1.0893589 0.5937044,1.0867345 0.6009443,1.0846951 0.6158851,1.0815916 0.6071539,1.0324784 0.6071539,1.0324784 0.58552,1.0381313 0.5751148,1.041712 0.5652039,1.0461977 0.5559219,1.0518353 0.5471847,1.0584708 0.5306191,1.073406 0.5306191,1.073406 0.5187947,1.0914983 0.5137634,1.1008518 0.5097889,1.1105741 0.5070576,1.1207301 0.5053135,1.1312306 0.5034704,1.1528058 0.5034704,1.1528058 0.5045062,1.1684627 0.5068789,1.1838056 0.5115121,1.1986175 0.5175222,1.2131059 0.5175222,1.2131059 0.5250531,1.2255243 0.5336854,1.2369344 0.5441947,1.2466261 0.5558579,1.2552615 0.5558579,1.2552615 0.5680595,1.2613634 0.5806351,1.2661371 0.5938402,1.2686755 0.6074268,1.269859 0.6074268,1.269859 0.6199409,1.268793 0.6320674,1.2664158 0.6435445,1.261842 0.65463,1.2559436 0.65463,1.2559436 0.665129,1.2473408 0.6744775,1.2377811 0.6819973,1.2267003 0.6884636,1.2147431 0.6884636,1.2147431 0.6935873,1.2306249 0.6967107,1.2382154 0.7005078,1.2453853 0.7051518,1.2520264 0.7105136,1.2582196 0.7224336,1.269859 0.7224336,1.269859 0.7373885,1.2785284 0.7450742,1.2821988 0.7530094,1.2850724 0.7612331,1.2870251 0.7696837,1.2882537 0.7869629,1.2895043 0.7869629,1.2895043 0.8119761,1.2864959 0.824003,1.2838749 0.8354543,1.2799139 0.8462035,1.2743185 0.8563794,1.2673887 0.875776,1.2513051 0.875776,1.2513051 0.8915508,1.2297154 0.8982775,1.2184754 0.9036115,1.2067012 0.9072951,1.194294 0.9096621,1.1813818 0.9122016,1.1547158 0.9122016,1.1547158 0.9100536,1.1307697 0.9080305,1.1191438 0.9048686,1.1079346 0.9002746,1.0972492 0.8944659,1.0870082 0.8808237,1.0672669 0.8808237,1.0672669 0.8631693,1.051918 0.85388,1.0451812 0.8440363,1.0395694 0.8335285,1.0353051 0.8224869,1.032124 0.7995141,1.027567 0.7929656,1.0766803z" transform="matrix(1,0,0,-1,3.529262,3.65)" fill="rgb(116,116,116)" fill-rule="nonzero" shaper:cutDepth="0.05cm" stroke-linecap="round" stroke-linejoin="round" /><path d="M-0.4717119,-0.813921 L-0.4717119,-1.078314 -0.4717119,-1.078314 -0.4804367,-1.078059 -0.4890537,-1.0771632 -0.4974903,-1.075196 -0.5058184,-1.0725841 -0.5058184,-1.0725841 -0.5200912,-1.0661134 -0.5338162,-1.0587331 -0.5466708,-1.0499082 -0.5590243,-1.0402512 -0.5590243,-1.0402512 -0.5751559,-1.025128 -0.5906991,-1.0094447 -0.6053834,-0.9929436 -0.6195973,-0.9759947 -0.6195973,-0.9759947 -0.6391804,-0.9523941 -0.6595389,-0.9295547 -0.6813703,-0.9081615 -0.7043176,-0.8878638 -0.7043176,-0.8878638 -0.7179002,-0.8789454 -0.7248819,-0.8749982 -0.732092,-0.8716656 -0.7395992,-0.869132 -0.747378,-0.8673286 -0.76339,-0.8649442 -0.76339,-0.8649442 -0.7772314,-0.8665599 -0.783892,-0.8679808 -0.7902403,-0.8701372 -0.7962062,-0.8731949 -0.8018583,-0.8769917 -0.8126396,-0.8858174 -0.8126396,-0.8858174 -0.8214319,-0.8979981 -0.8251637,-0.9043395 -0.8280985,-0.9109821 -0.830104,-0.9179757 -0.8313753,-0.9252468 -0.8326942,-0.9402512 -0.8326942,-0.9402512 -0.8313255,-0.9559643 -0.8299889,-0.9635692 -0.8278695,-0.970872 -0.8247559,-0.9777912 -0.8207847,-0.9843796 -0.8114118,-0.9970043 -0.8114118,-0.9970043 -0.7982585,-1.0065509 -0.7913991,-1.0105806 -0.7842012,-1.0137196 -0.7766191,-1.0158481 -0.7687376,-1.0171894 -0.7524759,-1.0185595 -0.7576601,-1.069037 -0.7576601,-1.069037 -0.7818565,-1.0649907 -0.7935185,-1.0620368 -0.804657,-1.0579659 -0.815123,-1.0524601 -0.8249944,-1.0456858 -0.8437447,-1.0300193 -0.8437447,-1.0300193 -0.8570218,-1.0092979 -0.8626073,-0.99858 -0.8669313,-0.9874341 -0.8698297,-0.9758045 -0.871619,-0.9637986 -0.873349,-0.9391598 -0.873349,-0.9391598 -0.8714361,-0.9141694 -0.8694875,-0.9020351 -0.8663485,-0.8903339 -0.8616835,-0.8791877 -0.8556772,-0.8685295 -0.8414254,-0.8480275 -0.8414254,-0.8480275 -0.824128,-0.8337986 -0.8150542,-0.8276833 -0.8054702,-0.822767 -0.7952661,-0.819308 -0.7845573,-0.8170353 -0.7622985,-0.8144667 -0.7622985,-0.8144667 -0.750156,-0.8152699 -0.7382016,-0.8169827 -0.7265567,-0.8201923 -0.7150953,-0.8242894 -0.7150953,-0.8242894 -0.7019711,-0.8310528 -0.6893762,-0.8386198 -0.677589,-0.8474135 -0.6662549,-0.8568951 -0.6662549,-0.8568951 -0.6477762,-0.8749972 -0.6298454,-0.8936141 -0.5958593,-0.9326114 -0.5958593,-0.9326114 -0.5712991,-0.9615356 -0.5455182,-0.9893644 -0.5455182,-0.9893644 -0.5327578,-1.0004298 -0.5189152,-1.0101011 -0.5189152,-0.813921 -0.4717119,-0.813921z" transform="matrix(1,0,0,-1,3.529262,3.65)" fill="rgb(116,116,116)" fill-rule="nonzero" shaper:cutDepth="0.05cm" stroke-linecap="round" stroke-linejoin="round" /><path d="M1.5630262,-2.128951 L1.5630262,-2.128951 1.5787844,-2.125592 1.5864048,-2.1233815 1.5937147,-2.1205339 1.6006221,-2.1168603 1.6071654,-2.1124395 1.6196429,-2.1023479 1.6196429,-2.1023479 1.6277339,-2.0910337 1.6312032,-2.0851579 1.6339811,-2.0790199 1.6359246,-2.0725653 1.6371933,-2.0658547 1.6386061,-2.0520069 1.6386061,-2.0520069 1.6364646,-2.0349841 1.6346157,-2.026818 1.6318329,-2.0190662 1.6279165,-2.0118175 1.6230785,-2.0049777 1.6118666,-1.9919796 1.6118666,-1.9919796 1.5958359,-1.9810786 1.5875176,-1.9764741 1.5788364,-1.9728838 1.5697388,-1.9704563 1.5603154,-1.9689394 1.5409253,-1.967423 1.5409253,-1.967423 1.5226921,-1.9688393 1.5138466,-1.9702807 1.5053263,-1.9726021 1.4972228,-1.976051 1.4894855,-1.9804909 1.4746224,-1.9910247 1.4746224,-1.9910247 1.4640485,-2.0046682 1.4595489,-2.0118059 1.4559938,-2.0193225 1.4535501,-2.027285 1.4519892,-2.0356018 1.4503386,-2.0528255 1.4503386,-2.0528255 1.4511138,-2.0640233 1.4529204,-2.0749587 1.4564807,-2.0854477 1.4611163,-2.0956631 1.4611163,-2.0956631 1.4668258,-2.1043672 1.4732252,-2.1124254 1.4807958,-2.1193868 1.4890835,-2.1256767 1.4830808,-2.1717886 1.2776238,-2.1330437 1.2776238,-1.9341351 1.3245542,-1.9341351 1.3245542,-2.0937531 1.4320576,-2.1153084 1.4320576,-2.1153084 1.421736,-2.0977376 1.4172514,-2.088731 1.4135782,-2.0794588 1.4109217,-2.0698538 1.4091229,-2.059968 1.4069553,-2.0397286 1.4069553,-2.0397286 1.4097166,-2.0150265 1.4121676,-2.0031166 1.4159032,-1.9917362 1.4212193,-1.9810072 1.4278376,-1.9708149 1.4432445,-1.9513248 1.4432445,-1.9513248 1.4639666,-1.9356912 1.4747822,-1.9290306 1.4861432,-1.923757 1.4981487,-1.9201224 1.5106673,-1.9177927 1.5365597,-1.9153084 1.5365597,-1.9153084 1.5619399,-1.9176033 1.574308,-1.9196955 1.5862896,-1.9229214 1.5977905,-1.9275574 1.6088901,-1.9333706 1.6304205,-1.9469591 1.6304205,-1.9469591 1.6411695,-1.9578985 1.6513125,-1.9691217 1.6602437,-1.9809127 1.6673573,-1.9935552 1.6722987,-2.0072153 1.675497,-2.0216921 1.677533,-2.0367134 1.678988,-2.0520069 1.678988,-2.0520069 1.6770267,-2.076282 1.675109,-2.0880889 1.6720669,-2.0994991 1.6675963,-2.1104052 1.6618926,-2.1208763 1.6484287,-2.1410928 1.6484287,-2.1410928 1.630876,-2.1564398 1.6216291,-2.1631588 1.6118177,-2.1687326 1.601336,-2.1729467 1.5903188,-2.1760745 1.5673919,-2.1805199 1.5630262,-2.128951z" transform="matrix(1,0,0,-1,3.529262,3.65)" fill="rgb(116,116,116)" fill-rule="nonzero" shaper:cutDepth="0.05cm" stroke-linecap="round" stroke-linejoin="round" /><path d="M0.9214717,-3.1396834 L0.9214717,-3.5362728 0.9214717,-3.5362728 0.9083845,-3.5358903 0.8954591,-3.5345466 0.8828042,-3.5315959 0.8703121,-3.5276779 0.8703121,-3.5276779 0.8489028,-3.5179719 0.8283153,-3.5069015 0.8090333,-3.493664 0.7905031,-3.4791786 0.7905031,-3.4791786 0.7663057,-3.4564938 0.7429909,-3.4329688 0.7209644,-3.4082172 0.6996436,-3.3827939 0.6996436,-3.3827939 0.670269,-3.3473929 0.6552182,-3.3300493 0.6397312,-3.3131339 0.6236636,-3.2967885 0.606984,-3.281044 0.5725631,-3.2505975 0.5725631,-3.2505975 0.5521893,-3.2372198 0.5417168,-3.2312991 0.5309016,-3.2263002 0.5196407,-3.2224998 0.5079726,-3.2197947 0.4839546,-3.2162182 0.4839546,-3.2162182 0.4631924,-3.2186417 0.4532016,-3.220773 0.443679,-3.2240076 0.4347303,-3.2285942 0.4262521,-3.2342894 0.4100801,-3.2475279 0.4100801,-3.2475279 0.3968916,-3.265799 0.391294,-3.2753112 0.3868918,-3.2852749 0.3838836,-3.2957654 0.3819767,-3.306672 0.3799983,-3.3291786 0.3799983,-3.3291786 0.3820513,-3.3527483 0.3840562,-3.3641556 0.3872353,-3.3751098 0.3919056,-3.3854887 0.3978625,-3.3953712 0.4119219,-3.4143082 0.4119219,-3.4143082 0.4316519,-3.4286281 0.4419409,-3.4346727 0.4527378,-3.4393812 0.464111,-3.442574 0.4759331,-3.4445859 0.5003257,-3.4466411 0.4925495,-3.5223574 0.4925495,-3.5223574 0.4742712,-3.5196019 0.4562548,-3.5162879 0.4387618,-3.511857 0.422054,-3.5057508 0.4140751,-3.5018977 0.4063551,-3.497492 0.3915479,-3.4873306 0.3773363,-3.4758983 0.3634225,-3.4638308 0.3634225,-3.4638308 0.3531487,-3.4483969 0.3435068,-3.4327487 0.3351286,-3.4166718 0.3286426,-3.3999529 0.3242949,-3.3825086 0.321611,-3.3644998 0.319016,-3.3275415 0.319016,-3.3275415 0.3201531,-3.3086905 0.3218854,-3.290056 0.3248082,-3.2718545 0.3295168,-3.2543027 0.3327232,-3.2458367 0.3365143,-3.2375834 0.3455238,-3.221596 0.3558768,-3.2060974 0.3669014,-3.190843 0.3669014,-3.190843 0.379747,-3.1798717 0.3928476,-3.1694998 0.4064583,-3.1603269 0.4208343,-3.1529523 0.4361404,-3.1477639 0.4522036,-3.1443548 0.4687715,-3.1421318 0.4855917,-3.140502 0.4855917,-3.140502 0.5038055,-3.1417068 0.5217372,-3.1442759 0.5392045,-3.1490904 0.5563966,-3.1552359 0.5563966,-3.1552359 0.5760829,-3.165381 0.5949753,-3.1767315 0.6126561,-3.189922 0.6296572,-3.2041445 0.6296572,-3.2041445 0.6573752,-3.2312975 0.6842715,-3.259223 0.7100561,-3.2881936 0.7352507,-3.3177188 0.7352507,-3.3177188 0.772091,-3.3611052 0.7911971,-3.3821828 0.8107623,-3.4028485 0.8107623,-3.4028485 0.8299029,-3.4194466 0.8506668,-3.4339535 0.8506668,-3.1396834 0.9214717,-3.1396834z" transform="matrix(1,0,0,-1,3.529262,3.65)" fill="rgb(116,116,116)" fill-rule="nonzero" shaper:cutDepth="0.05cm" stroke-linecap="round" stroke-linejoin="round" /><path d="M0.5482111,-3.0152632 L0.5482111,-3.0152632 0.5308308,-3.0248911 0.5219234,-3.0289875 0.5127555,-3.032223 0.5032811,-3.034446 0.4935635,-3.0358653 0.4737227,-3.0373642 0.4737227,-3.0373642 0.4581021,-3.0358214 0.4427182,-3.0337256 0.4278081,-3.0305236 0.4136085,-3.0256624 0.4002796,-3.0187676 0.3876652,-3.0102044 0.3755271,-3.0005289 0.3636272,-2.9902973 0.3636272,-2.9902973 0.3534438,-2.976337 0.3438706,-2.9621522 0.3355179,-2.9475186 0.3289943,-2.9322121 0.3245745,-2.9161319 0.3218049,-2.8994446 0.319016,-2.8650586 0.319016,-2.8650586 0.3219245,-2.8302829 0.32478,-2.8134159 0.329317,-2.7971737 0.3359923,-2.7817263 0.3445169,-2.7669661 0.3542752,-2.7526644 0.3646504,-2.738592 0.3646504,-2.738592 0.3766616,-2.7282395 0.3889122,-2.7184435 0.4016414,-2.7097602 0.4150888,-2.7027461 0.4294163,-2.6977778 0.444466,-2.6944881 0.4599972,-2.6923176 0.4757691,-2.6907067 0.4757691,-2.6907067 0.4951344,-2.6922464 0.5046157,-2.6936746 0.5138553,-2.6958926 0.5227925,-2.6990992 0.531475,-2.7031381 0.5484157,-2.7126029 0.5484157,-2.7126029 0.5638336,-2.7266728 0.5709178,-2.7341645 0.5772533,-2.7422035 0.582738,-2.7508644 0.5875594,-2.7600103 0.5960965,-2.7791104 0.5960965,-2.7791104 0.6060034,-2.754841 0.611721,-2.7432424 0.6183557,-2.7322872 0.6261532,-2.7221477 0.6349508,-2.7127098 0.6542138,-2.695004 0.6542138,-2.695004 0.6765215,-2.6824628 0.6879607,-2.6771224 0.6997425,-2.6728978 0.7119282,-2.6699894 0.7244352,-2.668128 0.7499847,-2.66615 0.7499847,-2.66615 0.768279,-2.6679139 0.7863027,-2.670319 0.803785,-2.6740065 0.8122385,-2.6765315 0.8204552,-2.6796175 0.8284111,-2.6833211 0.8361277,-2.6875916 0.8509797,-2.6975092 0.8652847,-2.7087226 0.8793162,-2.7205838 0.8793162,-2.7205838 0.8911929,-2.7364863 0.9023674,-2.7526529 0.9121374,-2.7693475 0.9162763,-2.7779753 0.919802,-2.7868337 0.9250233,-2.8052385 0.9283195,-2.8243671 0.9303324,-2.8439783 0.9317036,-2.8638307 0.9317036,-2.8638307 0.9303229,-2.8836963 0.9282984,-2.9033188 0.9249861,-2.9224555 0.9226458,-2.9317656 0.9197421,-2.9408632 0.9162021,-2.9497207 0.9120473,-2.9583462 0.9022419,-2.9750327 0.8910287,-2.991188 0.8791115,-3.0070777 0.8791115,-3.0070777 0.8648532,-3.0190023 0.8503199,-3.0302685 0.8352366,-3.0402178 0.8274029,-3.0444929 0.8193285,-3.0481918 0.8109936,-3.051267 0.8024232,-3.053778 0.7847102,-3.0574303 0.7664588,-3.0597932 0.7479382,-3.0615115 0.7479382,-3.0615115 0.72172,-3.0596006 0.7088936,-3.057736 0.6964066,-3.0547803 0.6843504,-3.0504392 0.6726658,-3.0449033 0.6499164,-3.0318389 0.6499164,-3.0318389 0.6313866,-3.0139881 0.6230114,-3.004488 0.6157033,-2.9942986 0.6096458,-2.9833014 0.604579,-2.9716642 0.5960965,-2.9473232 0.5960965,-2.9473232 0.5876164,-2.9668219 0.5828075,-2.9761616 0.5773159,-2.9850098 0.5709468,-2.9932262 0.5638007,-3.0008832 0.5482111,-3.0152632z M0.8093298,-2.9708566 L0.8093298,-2.9708566 0.8230997,-2.9621851 0.8295809,-2.9574337 0.8355773,-2.9521836 0.8409843,-2.9463268 0.845911,-2.9399758 0.8549642,-2.9264501 0.8549642,-2.9264501 0.861802,-2.9113043 0.8671115,-2.8957684 0.869881,-2.8795842 0.8711306,-2.8630122 0.8711306,-2.8630122 0.8687278,-2.8388095 0.8665066,-2.8271116 0.8630614,-2.8158977 0.8580865,-2.8052889 0.8518256,-2.7951888 0.8371606,-2.7758362 0.8371606,-2.7758362 0.8180807,-2.7610235 0.8081058,-2.754695 0.7976089,-2.7496598 0.7864895,-2.746167 0.7748712,-2.7439103 0.7508032,-2.7414569 0.7508032,-2.7414569 0.7262434,-2.7440162 0.714394,-2.7463534 0.7030612,-2.7499595 0.6923714,-2.755145 0.6822187,-2.7616501 0.6628086,-2.7768594 0.6628086,-2.7768594 0.6478645,-2.7965302 0.6414727,-2.8067947 0.6363772,-2.817574 0.6328333,-2.8289697 0.6305362,-2.8408606 0.6280201,-2.8654678 0.6280201,-2.8654678 0.630505,-2.8894731 0.6327745,-2.901061 0.6362762,-2.9121514 0.6413118,-2.9226224 0.647629,-2.932576 0.6623994,-2.9516206 0.6623994,-2.9516206 0.6814324,-2.9662723 0.6913726,-2.9725436 0.7018212,-2.9775494 0.7128799,-2.9810369 0.7244296,-2.9833021 0.7483476,-2.9857952 0.7483476,-2.9857952 0.7642048,-2.9845737 0.7797254,-2.981969 0.7946919,-2.9770876 0.8093298,-2.9708566z M0.5408441,-2.9346356 L0.5408441,-2.9346356 0.55263,-2.9187836 0.5576415,-2.9105158 0.5615957,-2.9018381 0.5643089,-2.8926791 0.566038,-2.8831385 0.5678564,-2.8634215 0.5678564,-2.8634215 0.5660046,-2.8440783 0.5642696,-2.8347233 0.5615635,-2.8257483 0.5576382,-2.8172502 0.5526815,-2.8091558 0.5410487,-2.7936397 0.5410487,-2.7936397 0.5265924,-2.7821047 0.5190279,-2.7771465 0.5110598,-2.7731594 0.502601,-2.7703534 0.4937426,-2.768509 0.4753598,-2.7664228 0.4753598,-2.7664228 0.4563034,-2.768545 0.4471176,-2.7704342 0.4383425,-2.773317 0.4300736,-2.777424 0.4222221,-2.782541 0.4072152,-2.7944583 0.4072152,-2.7944583 0.3953805,-2.8099334 0.3903135,-2.8180109 0.3862668,-2.8264964 0.3834456,-2.8354718 0.3816116,-2.8448419 0.379589,-2.86424 0.379589,-2.86424 0.3815116,-2.8836272 0.3832827,-2.8930038 0.3860256,-2.9020002 0.3899817,-2.9105216 0.394956,-2.9186446 0.4066013,-2.9342264 0.4066013,-2.9342264 0.4207577,-2.9458773 0.4281764,-2.9509075 0.4360039,-2.9549836 0.4443349,-2.957884 0.4530814,-2.9598141 0.471267,-2.9620572 0.471267,-2.9620572 0.490644,-2.9601467 0.5000012,-2.9583653 0.508961,-2.9555925 0.5174224,-2.9515771 0.5254633,-2.9465127 0.5408441,-2.9346356z" transform="matrix(1,0,0,-1,3.529262,3.65)" fill="rgb(116,116,116)" fill-rule="nonzero" shaper:cutDepth="0.05cm" stroke-linecap="round" stroke-linejoin="round" /><path d="M2.0054935,-0.2365288 a0.15,0.15 0 1,1 0.3,0 a0.15,0.15 0 1,1 -0.3,0z" transform="matrix(1,0,0,-1,3.529262,3.65)" fill="rgb(255,255,255)" stroke="rgb(0,0,0)" stroke-width="0.0010cm" stroke-linecap="round" stroke-linejoin="round" shaper:cutDepth="0.3cm" /><path d="M-1.0717119,-1.2822021 a0.15,0.15 0 1,1 0.3,0 a0.15,0.15 0 1,1 -0.3,0z" transform="matrix(1,0,0,-1,3.529262,3.65)" fill="rgb(255,255,255)" stroke="rgb(0,0,0)" stroke-width="0.0010cm" stroke-linecap="round" stroke-linejoin="round" shaper:cutDepth="0.3cm" /><path d="M-1.6540692,1.7452543 a0.15,0.15 0 1,1 0.3,0 a0.15,0.15 0 1,1 -0.3,0z" transform="matrix(1,0,0,-1,3.529262,3.65)" fill="rgb(255,255,255)" stroke="rgb(0,0,0)" stroke-width="0.0010cm" stroke-linecap="round" stroke-linejoin="round" shaper:cutDepth="0.3cm" /><path d="M0.3051075,0.8191769 a0.15,0.15 0 1,1 0.3,0 a0.15,0.15 0 1,1 -0.3,0z" transform="matrix(1,0,0,-1,3.529262,3.65)" fill="rgb(255,255,255)" stroke="rgb(0,0,0)" stroke-width="0.0010cm" stroke-linecap="round" stroke-linejoin="round" shaper:cutDepth="0.3cm" /><path d="M1.0748953,-2.3871365 a0.15,0.15 0 1,1 0.3,0 a0.15,0.15 0 1,1 -0.3,0z" transform="matrix(1,0,0,-1,3.529262,3.65)" fill="rgb(255,255,255)" stroke="rgb(0,0,0)" stroke-width="0.0010cm" stroke-linecap="round" stroke-linejoin="round" shaper:cutDepth="0.3cm" /><path d="M-2.5342727,1.25 L-2.5342727,-1.25 -2.2342727,-1.25 -2.2342727,1.25 -2.5342727,1.25z" transform="matrix(1,0,0,-1,3.529262,3.65)" fill="rgb(255,255,255)" stroke="rgb(0,0,0)" stroke-width="0.0010cm" stroke-linecap="round" stroke-linejoin="round" shaper:cutDepth="0.3cm" /><path d="M2.979262,-3.25 a0.15,0.15 0 1,1 0.3,0 a0.15,0.15 0 1,1 -0.3,0z" transform="matrix(1,0,0,-1,3.529262,3.65)" fill="rgb(255,255,255)" stroke="rgb(0,0,0)" stroke-width="0.0010cm" stroke-linecap="round" stroke-linejoin="round" shaper:cutDepth="0.3cm" /><path d="M-1.520738,3.25 a0.15,0.15 0 1,1 0.3,0 a0.15,0.15 0 1,1 -0.3,0z" transform="matrix(1,0,0,-1,3.529262,3.65)" fill="rgb(255,255,255)" stroke="rgb(0,0,0)" stroke-width="0.0010cm" stroke-linecap="round" stroke-linejoin="round" shaper:cutDepth="0.3cm" /><path d="M2.979262,3.25 a0.15,0.15 0 1,1 0.3,0 a0.15,0.15 0 1,1 -0.3,0z" transform="matrix(1,0,0,-1,3.529262,3.65)" fill="rgb(255,255,255)" stroke="rgb(0,0,0)" stroke-width="0.0010cm" stroke-linecap="round" stroke-linejoin="round" shaper:cutDepth="0.3cm" /><path d="M-1.520738,-3.25 a0.15,0.15 0 1,1 0.3,0 a0.15,0.15 0 1,1 -0.3,0z" transform="matrix(1,0,0,-1,3.529262,3.65)" fill="rgb(255,255,255)" stroke="rgb(0,0,0)" stroke-width="0.0010cm" stroke-linecap="round" stroke-linejoin="round" shaper:cutDepth="0.3cm" /><path d="M-2.1707381,2 L-0.870738,2 -0.870738,2.7500001 -2.1707381,2.7500001 A0.3,0.3 90 0,1 -2.4707381,2.4500001 L-2.4707381,2.3 A0.3,0.3 180 0,1 -2.1707381,2z" transform="matrix(1,0,0,-1,3.529262,3.65)" fill="rgb(255,255,255)" stroke="rgb(0,0,0)" stroke-width="0.0010cm" stroke-linecap="round" stroke-linejoin="round" shaper:cutDepth="0.3cm" /></svg>