<?xml version="1.0" encoding="utf-8"?>
<!-- Generator: Fusion 360, Shaper Origin Export Add-In, Version 1.7.0  -->
<svg xmlns="http://www.w3.org/2000/svg" xmlns:xlink="http://www.w3.org/1999/xlink" xmlns:shaper="http://www.shapertools.com/namespaces/shaper" shaper:fusionaddin="version:1.7.0" width="7.058524cm" height="7.3cm" version="1.1" x="0cm" y="0cm" viewBox="0 0 7.058524 7.3" enable-background="new 0 0 7.058524 7.3" xml:space="preserve"><path d="M-3.529262,-2.0046781 L-1.8572407,-3.5690658 A0.3,0.3 226.9047902 0,1 -1.6522768,-3.65 L3.229262,-3.65 A0.3,0.3 270 0,1 3.529262,-3.35 L3.529262,-2.7885309 3.229262,-2.7885309 3.229262,-0.7885309 3.529262,-0.7885309 3.529262,3.35 A0.3,0.3 0 0,1 3.229262,3.65 L-1.6522768,3.65 A0.3,0.3 90 0,1 -1.8572407,3.5690658 L-3.529262,2.0046781 -3.529262,1.65 -3.2342727,1.65 -3.2342727,-1.65 -3.529262,-1.65 -3.529262,-2.0046781z" transform="matrix(1,0,0,-1,3.529262,3.65)" fill="rgb(0,0,0)" shaper:cutDepth="0.3cm" stroke-linecap="round" stroke-linejoin="round" /><path d="M-0.2431822,-2.1613873 L-0.2431822,-2.4257802 -0.2431822,-2.4257802 -0.2519071,-2.4255252 -0.260524,-2.4246294 -0.2689606,-2.4226622 -0.2772887,-2.4200503 -0.2772887,-2.4200503 -0.2915616,-2.4135796 -0.3052865,-2.4061994 -0.3181412,-2.3973744 -0.3304946,-2.3877174 -0.3304946,-2.3877174 -0.3466262,-2.3725942 -0.3621694,-2.3569109 -0.3768537,-2.3404098 -0.3910676,-2.3234609 -0.3910676,-2.3234609 -0.4106507,-2.2998603 -0.4310092,-2.2770209 -0.4528407,-2.2556277 -0.475788,-2.23533 -0.475788,-2.23533 -0.4893705,-2.2264116 -0.4963522,-2.2224645 -0.5035623,-2.2191318 -0.5110696,-2.2165982 -0.5188483,-2.2147948 -0.5348603,-2.2124104 -0.5348603,-2.2124104 -0.5487018,-2.2140261 -0.5553623,-2.215447 -0.5617106,-2.2176034 -0.5676765,-2.2206611 -0.5733286,-2.2244579 -0.5841099,-2.2332836 -0.5841099,-2.2332836 -0.5929023,-2.2454643 -0.596634,-2.2518058 -0.5995689,-2.2584483 -0.6015743,-2.2654419 -0.6028456,-2.272713 -0.6041645,-2.2877174 -0.6041645,-2.2877174 -0.6027959,-2.3034305 -0.6014592,-2.3110354 -0.5993398,-2.3183382 -0.5962263,-2.3252575 -0.592255,-2.3318458 -0.5828821,-2.3444705 -0.5828821,-2.3444705 -0.5697288,-2.3540171 -0.5628695,-2.3580468 -0.5556715,-2.3611858 -0.5480894,-2.3633144 -0.540208,-2.3646556 -0.5239462,-2.3660257 -0.5291304,-2.4165032 -0.5291304,-2.4165032 -0.5533269,-2.4124569 -0.5649888,-2.409503 -0.5761273,-2.4054322 -0.5865933,-2.3999263 -0.5964647,-2.393152 -0.615215,-2.3774855 -0.615215,-2.3774855 -0.6284922,-2.3567641 -0.6340776,-2.3460462 -0.6384016,-2.3349003 -0.6413001,-2.3232707 -0.6430894,-2.3112649 -0.6448194,-2.286626 -0.6448194,-2.286626 -0.6429064,-2.2616357 -0.6409579,-2.2495014 -0.6378188,-2.2378001 -0.6331539,-2.2266539 -0.6271475,-2.2159957 -0.6128958,-2.1954937 -0.6128958,-2.1954937 -0.5955983,-2.1812648 -0.5865245,-2.1751496 -0.5769405,-2.1702332 -0.5667365,-2.1667743 -0.5560277,-2.1645015 -0.5337689,-2.1619329 -0.5337689,-2.1619329 -0.5216263,-2.1627362 -0.5096719,-2.1644489 -0.498027,-2.1676585 -0.4865656,-2.1717556 -0.4865656,-2.1717556 -0.4734414,-2.178519 -0.4608465,-2.186086 -0.4490593,-2.1948797 -0.4377252,-2.2043613 -0.4377252,-2.2043613 -0.4192466,-2.2224634 -0.4013157,-2.2410804 -0.3673296,-2.2800776 -0.3673296,-2.2800776 -0.3427694,-2.3090018 -0.3169885,-2.3368306 -0.3169885,-2.3368306 -0.3042281,-2.347896 -0.2903855,-2.3575673 -0.2903855,-2.1613873 -0.2431822,-2.1613873z" transform="matrix(1,0,0,-1,3.529262,3.65)" fill="rgb(116,116,116)" fill-rule="nonzero" shaper:cutDepth="0.05cm" stroke-linecap="round" stroke-linejoin="round" /><path d="M1.7043376,1.3235155 L1.7043376,1.0591226 1.7043376,1.0591226 1.6956128,1.0593776 1.6869959,1.0602734 1.6785592,1.0622405 1.6702312,1.0648525 1.6702312,1.0648525 1.6559583,1.0713231 1.6422333,1.0787034 1.6293787,1.0875284 1.6170252,1.0971854 1.6170252,1.0971854 1.6008936,1.1123086 1.5853504,1.1279919 1.5706661,1.1444929 1.5564522,1.1614418 1.5564522,1.1614418 1.5368691,1.1850425 1.5165107,1.2078819 1.4946792,1.2292751 1.4717319,1.2495728 1.4717319,1.2495728 1.4581493,1.2584912 1.4511677,1.2624383 1.4439575,1.2657709 1.4364503,1.2683045 1.4286715,1.2701079 1.4126596,1.2724923 1.4126596,1.2724923 1.3988181,1.2708766 1.3921575,1.2694558 1.3858092,1.2672993 1.3798434,1.2642417 1.3741912,1.2604448 1.3634099,1.2516192 1.3634099,1.2516192 1.3546176,1.2394384 1.3508858,1.233097 1.347951,1.2264545 1.3459455,1.2194608 1.3446742,1.2121898 1.3433553,1.1971854 1.3433553,1.1971854 1.344724,1.1814723 1.3460606,1.1738674 1.34818,1.1665646 1.3512936,1.1596453 1.3552648,1.153057 1.3646377,1.1404323 1.3646377,1.1404323 1.3777911,1.1308857 1.3846504,1.1268559 1.3918484,1.123717 1.3994305,1.1215884 1.4073119,1.1202472 1.4235736,1.118877 1.4183894,1.0683996 1.4183894,1.0683996 1.394193,1.0724458 1.382531,1.0753998 1.3713925,1.0794706 1.3609265,1.0849764 1.3510551,1.0917507 1.3323049,1.1074173 1.3323049,1.1074173 1.3190277,1.1281386 1.3134422,1.1388566 1.3091182,1.1500025 1.3062198,1.1616321 1.3044305,1.1736379 1.3027005,1.1982768 1.3027005,1.1982768 1.3046134,1.2232671 1.306562,1.2354014 1.309701,1.2471026 1.314366,1.2582488 1.3203724,1.2689071 1.3346241,1.2894091 1.3346241,1.2894091 1.3519215,1.3036379 1.3609953,1.3097532 1.3705793,1.3146696 1.3807834,1.3181285 1.3914922,1.3204013 1.413751,1.3229698 1.413751,1.3229698 1.4258935,1.3221666 1.4378479,1.3204539 1.4494928,1.3172442 1.4609542,1.3131472 1.4609542,1.3131472 1.4740784,1.3063838 1.4866733,1.2988167 1.4984605,1.2900231 1.5097946,1.2805414 1.5097946,1.2805414 1.5282733,1.2624394 1.5462041,1.2438224 1.5801902,1.2048252 1.5801902,1.2048252 1.6047504,1.1759009 1.6305313,1.1480721 1.6305313,1.1480721 1.6432917,1.1370067 1.6571343,1.1273354 1.6571343,1.3235155 1.7043376,1.3235155z" transform="matrix(1,0,0,-1,3.529262,3.65)" fill="rgb(116,116,116)" fill-rule="nonzero" shaper:cutDepth="0.05cm" stroke-linecap="round" stroke-linejoin="round" /><path d="M-0.9408617,1.6553454 L-0.9408617,1.6553454 -0.9251035,1.6587044 -0.9174831,1.6609149 -0.9101733,1.6637625 -0.9032658,1.6674361 -0.8967226,1.6718569 -0.884245,1.6819484 -0.884245,1.6819484 -0.8761541,1.6932627 -0.8726848,1.6991384 -0.8699069,1.7052765 -0.8679634,1.7117311 -0.8666947,1.7184416 -0.8652819,1.7322895 -0.8652819,1.7322895 -0.8674233,1.7493123 -0.8692723,1.7574784 -0.872055,1.7652301 -0.8759714,1.7724789 -0.8808094,1.7793187 -0.8920213,1.7923168 -0.8920213,1.7923168 -0.9080521,1.8032178 -0.9163703,1.8078223 -0.9250516,1.8114126 -0.9341491,1.8138401 -0.9435725,1.815357 -0.9629627,1.8168734 -0.9629627,1.8168734 -0.9811958,1.8154571 -0.9900414,1.8140157 -0.9985617,1.8116943 -1.0066652,1.8082453 -1.0144024,1.8038055 -1.0292655,1.7932717 -1.0292655,1.7932717 -1.0398394,1.7796281 -1.044339,1.7724905 -1.0478942,1.7649739 -1.0503378,1.7570113 -1.0518987,1.7486946 -1.0535493,1.7314709 -1.0535493,1.7314709 -1.0527741,1.7202731 -1.0509676,1.7093377 -1.0474072,1.6988487 -1.0427717,1.6886333 -1.0427717,1.6886333 -1.0370621,1.6799292 -1.0306628,1.671871 -1.0230921,1.6649096 -1.0148044,1.6586196 -1.0208071,1.6125078 -1.2262641,1.6512526 -1.2262641,1.8501612 -1.1793337,1.8501612 -1.1793337,1.6905432 -1.0718303,1.668988 -1.0718303,1.668988 -1.0821519,1.6865587 -1.0866365,1.6955654 -1.0903098,1.7048376 -1.0929663,1.7144426 -1.094765,1.7243284 -1.0969326,1.7445678 -1.0969326,1.7445678 -1.0941714,1.7692699 -1.0917203,1.7811797 -1.0879847,1.7925602 -1.0826686,1.8032892 -1.0760504,1.8134815 -1.0606434,1.8329716 -1.0606434,1.8329716 -1.0399214,1.8486051 -1.0291057,1.8552658 -1.0177447,1.8605393 -1.0057393,1.864174 -0.9932207,1.8665037 -0.9673283,1.868988 -0.9673283,1.868988 -0.941948,1.8666931 -0.9295799,1.8646009 -0.9175983,1.861375 -0.9060974,1.856739 -0.8949978,1.8509258 -0.8734674,1.8373372 -0.8734674,1.8373372 -0.8627185,1.8263979 -0.8525754,1.8151746 -0.8436442,1.8033837 -0.8365307,1.7907412 -0.8315892,1.777081 -0.828391,1.7626042 -0.8263549,1.747583 -0.8248999,1.7322895 -0.8248999,1.7322895 -0.8268612,1.7080144 -0.8287789,1.6962075 -0.831821,1.6847973 -0.8362916,1.6738911 -0.8419953,1.6634201 -0.8554593,1.6432035 -0.8554593,1.6432035 -0.8730119,1.6278566 -0.8822588,1.6211376 -0.8920702,1.6155638 -0.902552,1.6113497 -0.9135692,1.6082218 -0.9364961,1.6037765 -0.9408617,1.6553454z" transform="matrix(1,0,0,-1,3.529262,3.65)" fill="rgb(116,116,116)" fill-rule="nonzero" shaper:cutDepth="0.05cm" stroke-linecap="round" stroke-linejoin="round" /><path d="M-1.4042738,-0.0754871 L-1.4042738,-0.0754871 -1.3876637,-0.0714208 -1.3796064,-0.0688936 -1.3718464,-0.0657734 -1.3644769,-0.0618739 -1.3574793,-0.0572326 -1.3441101,-0.0467012 -1.3441101,-0.0467012 -1.3362146,-0.035557 -1.332835,-0.0297715 -1.3301373,-0.0237298 -1.3282576,-0.0173807 -1.3270367,-0.0107842 -1.3256926,0.0028213 -1.3256926,0.0028213 -1.327522,0.0191716 -1.3291448,0.0270552 -1.3316172,0.0345889 -1.3351346,0.0416922 -1.3395127,0.048441 -1.3497035,0.0613479 -1.3497035,0.0613479 -1.3628645,0.0715425 -1.3697391,0.0759126 -1.3769668,0.0794099 -1.3846201,0.081855 -1.3926174,0.0834498 -1.4091851,0.0852224 -1.4091851,0.0852224 -1.4247216,0.0836483 -1.4322238,0.0821988 -1.4394067,0.0799543 -1.446191,0.0767174 -1.4526408,0.072648 -1.4649832,0.0631214 -1.4649832,0.0631214 -1.4744705,0.0506553 -1.47852,0.0441467 -1.4817367,0.0373078 -1.4839632,0.0300759 -1.4853979,0.0225298 -1.4869477,0.006914 -1.4869477,0.006914 -1.4852964,-0.0105742 -1.4814907,-0.0277381 -1.5246012,-0.0222811 -1.5246012,-0.0222811 -1.5240555,-0.0143684 -1.5240555,-0.0143684 -1.5252749,0.0005902 -1.52637,0.0079278 -1.5280478,0.0150954 -1.530446,0.0220528 -1.5334412,0.0288359 -1.5404265,0.0421118 -1.5404265,0.0421118 -1.5506439,0.0530931 -1.5561741,0.0577579 -1.5622101,0.0614319 -1.5688375,0.0639472 -1.575933,0.0655456 -1.590904,0.0672142 -1.590904,0.0672142 -1.6034247,0.0658762 -1.6094604,0.0646628 -1.6152265,0.0627961 -1.6206579,0.0601182 -1.6258106,0.0567651 -1.6356517,0.0489331 -1.6356517,0.0489331 -1.6433854,0.0383992 -1.6466746,0.0329105 -1.6492708,0.0271557 -1.6510532,0.0210885 -1.6521898,0.0147733 -1.653387,0.0017299 -1.653387,0.0017299 -1.6521109,-0.0114418 -1.6509324,-0.0178209 -1.6491054,-0.0239518 -1.6464681,-0.0297725 -1.6431499,-0.0353328 -1.6353788,-0.0460191 -1.6353788,-0.0460191 -1.6233778,-0.055343 -1.6171023,-0.0594232 -1.6104984,-0.0628084 -1.603535,-0.0654329 -1.596295,-0.0674722 -1.5813542,-0.0705757 -1.5900855,-0.119689 -1.5900855,-0.119689 -1.6117194,-0.114036 -1.6221245,-0.1104553 -1.6320355,-0.1059696 -1.6413175,-0.100332 -1.6500547,-0.0936966 -1.6666203,-0.0787613 -1.6666203,-0.0787613 -1.6784446,-0.060669 -1.6834759,-0.0513155 -1.6874504,-0.0415933 -1.6901818,-0.0314372 -1.6919259,-0.0209367 -1.693769,0.0006384 -1.693769,0.0006384 -1.6927331,0.0162954 -1.6903604,0.0316383 -1.6857273,0.0464502 -1.6797171,0.0609386 -1.6797171,0.0609386 -1.6721862,0.073357 -1.6635539,0.084767 -1.6530446,0.0944587 -1.6413815,0.1030941 -1.6413815,0.1030941 -1.6291799,0.109196 -1.6166042,0.1139698 -1.6033992,0.1165082 -1.5898126,0.1176917 -1.5898126,0.1176917 -1.5772985,0.1166257 -1.565172,0.1142484 -1.5536949,0.1096747 -1.5426093,0.1037762 -1.5426093,0.1037762 -1.5321104,0.0951735 -1.5227619,0.0856137 -1.515242,0.0745329 -1.5087758,0.0625757 -1.5087758,0.0625757 -1.5036521,0.0784576 -1.5005287,0.0860481 -1.4967316,0.0932179 -1.4920876,0.0998591 -1.4867258,0.1060523 -1.4748058,0.1176917 -1.4748058,0.1176917 -1.4598508,0.1263611 -1.4521652,0.1300314 -1.44423,0.132905 -1.4360063,0.1348577 -1.4275557,0.1360864 -1.4102765,0.1373369 -1.4102765,0.1373369 -1.3852633,0.1343285 -1.3732363,0.1317076 -1.3617851,0.1277466 -1.3510359,0.1221512 -1.34086,0.1152214 -1.3214634,0.0991378 -1.3214634,0.0991378 -1.3056886,0.0775481 -1.2989619,0.0663081 -1.2936279,0.0545339 -1.2899443,0.0421267 -1.2875773,0.0292145 -1.2850377,0.0025484 -1.2850377,0.0025484 -1.2871858,-0.0213977 -1.2892088,-0.0330235 -1.2923708,-0.0442328 -1.2969648,-0.0549181 -1.3027735,-0.0651591 -1.3164157,-0.0849004 -1.3164157,-0.0849004 -1.3340701,-0.1002493 -1.3433594,-0.1069861 -1.3532031,-0.1125979 -1.3637109,-0.1168622 -1.3747525,-0.1200434 -1.3977253,-0.1246003 -1.4042738,-0.0754871z" transform="matrix(1,0,0,-1,3.529262,3.65)" fill="rgb(116,116,116)" fill-rule="nonzero" shaper:cutDepth="0.05cm" stroke-linecap="round" stroke-linejoin="round" /><path d="M1.684744,-1.2338047 L1.684744,-1.4073381 1.6397235,-1.4073381 1.3805148,-1.2248006 1.3805148,-1.1846914 1.6397235,-1.1846914 1.6397235,-1.1306669 1.684744,-1.1306669 1.684744,-1.1846914 1.7805148,-1.1846914 1.7805148,-1.2338047 1.684744,-1.2338047z M1.4593688,-1.2338047 L1.6397235,-1.3590434 1.6397235,-1.2338047 1.4593688,-1.2338047z" transform="matrix(1,0,0,-1,3.529262,3.65)" fill="rgb(116,116,116)" fill-rule="nonzero" shaper:cutDepth="0.05cm" stroke-linecap="round" stroke-linejoin="round" /><path d="M0.9253668,-3.1521162 L0.9253668,-3.5487056 0.9253668,-3.5487056 0.9122796,-3.5483231 0.8993542,-3.5469794 0.8866993,-3.5440287 0.8742072,-3.5401108 0.8742072,-3.5401108 0.8527979,-3.5304047 0.8322104,-3.5193344 0.8129284,-3.5060969 0.7943982,-3.4916114 0.7943982,-3.4916114 0.7702009,-3.4689266 0.746886,-3.4454016 0.7248596,-3.4206501 0.7035387,-3.3952267 0.7035387,-3.3952267 0.6741641,-3.3598257 0.6591133,-3.3424821 0.6436264,-3.3255667 0.6275588,-3.3092214 0.6108792,-3.2934769 0.5764582,-3.2630303 0.5764582,-3.2630303 0.5560844,-3.2496527 0.5456119,-3.243732 0.5347967,-3.2387331 0.5235358,-3.2349327 0.5118677,-3.2322276 0.4878497,-3.228651 0.4878497,-3.228651 0.4670875,-3.2310746 0.4570967,-3.2332059 0.4475742,-3.2364405 0.4386254,-3.241027 0.4301473,-3.2467223 0.4139752,-3.2599607 0.4139752,-3.2599607 0.4007868,-3.2782319 0.3951891,-3.287744 0.3907869,-3.2977078 0.3877787,-3.3081982 0.3858718,-3.3191048 0.3838934,-3.3416114 0.3838934,-3.3416114 0.3859464,-3.3651811 0.3879513,-3.3765884 0.3911304,-3.3875426 0.3958008,-3.3979215 0.4017576,-3.407804 0.415817,-3.4267411 0.415817,-3.4267411 0.435547,-3.4410609 0.445836,-3.4471056 0.4566329,-3.451814 0.4680061,-3.4550069 0.4798282,-3.4570187 0.5042208,-3.459074 0.4964446,-3.5347902 0.4964446,-3.5347902 0.4781664,-3.5320347 0.4601499,-3.5287208 0.4426569,-3.5242899 0.4259491,-3.5181836 0.4179702,-3.5143305 0.4102502,-3.5099249 0.395443,-3.4997634 0.3812315,-3.4883312 0.3673177,-3.4762636 0.3673177,-3.4762636 0.3570439,-3.4608298 0.3474019,-3.4451816 0.3390238,-3.4291046 0.3325377,-3.4123857 0.3281901,-3.3949414 0.3255061,-3.3769326 0.3229111,-3.3399743 0.3229111,-3.3399743 0.3240482,-3.3211233 0.3257805,-3.3024888 0.3287034,-3.2842874 0.333412,-3.2667355 0.3366183,-3.2582695 0.3404094,-3.2500162 0.349419,-3.2340289 0.3597719,-3.2185302 0.3707966,-3.2032759 0.3707966,-3.2032759 0.3836421,-3.1923045 0.3967427,-3.1819326 0.4103534,-3.1727597 0.4247294,-3.1653852 0.4400355,-3.1601968 0.4560987,-3.1567876 0.4726666,-3.1545647 0.4894869,-3.1529348 0.4894869,-3.1529348 0.5077006,-3.1541396 0.5256323,-3.1567087 0.5430997,-3.1615232 0.5602918,-3.1676688 0.5602918,-3.1676688 0.579978,-3.1778138 0.5988704,-3.1891644 0.6165512,-3.2023549 0.6335524,-3.2165773 0.6335524,-3.2165773 0.6612704,-3.2437304 0.6881667,-3.2716559 0.7139513,-3.3006264 0.7391458,-3.3301517 0.7391458,-3.3301517 0.7759861,-3.373538 0.7950922,-3.3946157 0.8146574,-3.4152813 0.8146574,-3.4152813 0.833798,-3.4318794 0.8545619,-3.4463863 0.8545619,-3.1521162 0.9253668,-3.1521162z" transform="matrix(1,0,0,-1,3.529262,3.65)" fill="rgb(116,116,116)" fill-rule="nonzero" shaper:cutDepth="0.05cm" stroke-linecap="round" stroke-linejoin="round" /><path d="M0.4581772,-3.0512295 L0.4581772,-3.0512295 0.4299737,-3.0397781 0.4163949,-3.0332617 0.4034438,-3.0257965 0.3912941,-3.0171196 0.3798435,-3.0073858 0.3581089,-2.9861544 0.3581089,-2.9861544 0.3426363,-2.9612079 0.3360759,-2.9483435 0.3309259,-2.9350101 0.3274148,-2.9211318 0.3251957,-2.9068237 0.3229111,-2.8774914 0.3229111,-2.8774914 0.3241915,-2.8554707 0.3254246,-2.8445995 0.3273692,-2.8338955 0.3302142,-2.8234029 0.3338311,-2.8130915 0.3423518,-2.792771 0.3423518,-2.792771 0.353685,-2.7752376 0.3598141,-2.7669003 0.3664982,-2.7590784 0.3738504,-2.7518767 0.3817417,-2.7451755 0.3984227,-2.7326074 0.3984227,-2.7326074 0.4196662,-2.7207837 0.4415138,-2.7103892 0.464309,-2.7022364 0.4876451,-2.6953632 0.4876451,-2.6953632 0.5227873,-2.6889555 0.5404171,-2.6863226 0.5581164,-2.6843667 0.5937147,-2.6823986 0.6294596,-2.6818571 0.6294596,-2.6818571 0.672681,-2.6828261 0.6941957,-2.6840168 0.7155952,-2.6860552 0.7368437,-2.6892046 0.7579499,-2.6934 0.7999234,-2.7035487 0.7999234,-2.7035487 0.8281692,-2.7149362 0.8417703,-2.7214231 0.8547451,-2.7288619 0.8669207,-2.7375157 0.8783999,-2.7472281 0.9001962,-2.768419 0.9001962,-2.768419 0.9157749,-2.7934436 0.9223775,-2.8063515 0.9275571,-2.819734 0.9310854,-2.8336672 0.9333126,-2.8480343 0.9355987,-2.8774914 0.9355987,-2.8774914 0.9337783,-2.8972902 0.9312103,-2.9167423 0.9271473,-2.9355009 0.9243214,-2.9445117 0.9208415,-2.9532191 0.9166301,-2.9615873 0.9117309,-2.9696363 0.900261,-2.9849591 0.8872181,-2.9995523 0.8733886,-3.0137806 0.8733886,-3.0137806 0.844943,-3.0287919 0.816204,-3.042714 0.8016327,-3.0489262 0.7868781,-3.0544577 0.7719035,-3.0591726 0.7566905,-3.0630024 0.7412607,-3.0660277 0.7256413,-3.0683491 0.6939419,-3.0712822 0.6618091,-3.0726062 0.6294596,-3.0731258 0.6294596,-3.0731258 0.5860226,-3.0721594 0.5644017,-3.0709622 0.542898,-3.068908 0.5215481,-3.0657298 0.5003432,-3.0614908 0.4581772,-3.0512295z M0.8261171,-2.9628257 L0.8261171,-2.9628257 0.8458401,-2.9456634 0.8544669,-2.9363952 0.861612,-2.9263025 0.8668715,-2.9151604 0.8704977,-2.9031094 0.8730342,-2.890452 0.8750257,-2.8774914 0.8750257,-2.8774914 0.8730195,-2.8645163 0.8704665,-2.8518466 0.8668203,-2.8397874 0.8615354,-2.8286435 0.854361,-2.8185549 0.8457026,-2.8092952 0.8259125,-2.7921571 0.8259125,-2.7921571 0.8024287,-2.7826595 0.7787799,-2.7739571 0.7548015,-2.766845 0.7303607,-2.7619635 0.7055015,-2.7591 0.6803285,-2.7577501 0.6294596,-2.7575732 0.6294596,-2.7575732 0.5784807,-2.757717 0.5532536,-2.7590536 0.5283413,-2.7619079 0.5038486,-2.7667856 0.4798211,-2.7739068 0.4561261,-2.7826312 0.4325973,-2.7921571 0.4325973,-2.7921571 0.4128567,-2.8095298 0.404237,-2.8189048 0.3971183,-2.8291063 0.3919024,-2.8403557 0.388323,-2.8525062 0.3858353,-2.8652578 0.3838934,-2.87831 0.3838934,-2.87831 0.3873843,-2.90239 0.3903756,-2.9137737 0.3948618,-2.9243698 0.4011553,-2.9340138 0.4089128,-2.9428866 0.4268675,-2.9593468 0.4268675,-2.9593468 0.451016,-2.9695287 0.4753412,-2.9788956 0.5000196,-2.9866325 0.5125451,-2.9896413 0.5252025,-2.9920414 0.5508553,-2.9952822 0.5768608,-2.9968954 0.6294596,-2.9974095 0.6294596,-2.9974095 0.6803834,-2.9972492 0.7055835,-2.995906 0.7304692,-2.9930471 0.754936,-2.9881674 0.778939,-2.9810508 0.8026108,-2.9723374 0.8261171,-2.9628257z" transform="matrix(1,0,0,-1,3.529262,3.65)" fill="rgb(116,116,116)" fill-rule="nonzero" shaper:cutDepth="0.05cm" stroke-linecap="round" stroke-linejoin="round" /><path d="M-1.6313734,1.7418356 a0.15,0.15 0 1,1 0.3,0 a0.15,0.15 0 1,1 -0.3,0z" transform="matrix(1,0,0,-1,3.529262,3.65)" fill="rgb(255,255,255)" stroke="rgb(0,0,0)" stroke-width="0.0010cm" stroke-linecap="round" stroke-linejoin="round" shaper:cutDepth="0.3cm" /><path d="M-0.8431823,-2.6296683 a0.15,0.15 0 1,1 0.3,0 a0.15,0.15 0 1,1 -0.3,0z" transform="matrix(1,0,0,-1,3.529262,3.65)" fill="rgb(255,255,255)" stroke="rgb(0,0,0)" stroke-width="0.0010cm" stroke-linecap="round" stroke-linejoin="round" shaper:cutDepth="0.3cm" /><path d="M1.1805148,-1.6001757 a0.15,0.15 0 1,1 0.3,0 a0.15,0.15 0 1,1 -0.3,0z" transform="matrix(1,0,0,-1,3.529262,3.65)" fill="rgb(255,255,255)" stroke="rgb(0,0,0)" stroke-width="0.0010cm" stroke-linecap="round" stroke-linejoin="round" shaper:cutDepth="0.3cm" /><path d="M-1.8921319,-0.3329905 a0.15,0.15 0 1,1 0.3,0 a0.15,0.15 0 1,1 -0.3,0z" transform="matrix(1,0,0,-1,3.529262,3.65)" fill="rgb(255,255,255)" stroke="rgb(0,0,0)" stroke-width="0.0010cm" stroke-linecap="round" stroke-linejoin="round" shaper:cutDepth="0.3cm" /><path d="M1.1043376,0.8552345 a0.15,0.15 0 1,1 0.3,0 a0.15,0.15 0 1,1 -0.3,0z" transform="matrix(1,0,0,-1,3.529262,3.65)" fill="rgb(255,255,255)" stroke="rgb(0,0,0)" stroke-width="0.0010cm" stroke-linecap="round" stroke-linejoin="round" shaper:cutDepth="0.3cm" /><path d="M-2.5342727,1.25 L-2.5342727,-1.25 -2.2342727,-1.25 -2.2342727,1.25 -2.5342727,1.25z" transform="matrix(1,0,0,-1,3.529262,3.65)" fill="rgb(255,255,255)" stroke="rgb(0,0,0)" stroke-width="0.0010cm" stroke-linecap="round" stroke-linejoin="round" shaper:cutDepth="0.3cm" /><path d="M2.979262,-3.25 a0.15,0.15 0 1,1 0.3,0 a0.15,0.15 0 1,1 -0.3,0z" transform="matrix(1,0,0,-1,3.529262,3.65)" fill="rgb(255,255,255)" stroke="rgb(0,0,0)" stroke-width="0.0010cm" stroke-linecap="round" stroke-linejoin="round" shaper:cutDepth="0.3cm" /><path d="M-1.520738,3.25 a0.15,0.15 0 1,1 0.3,0 a0.15,0.15 0 1,1 -0.3,0z" transform="matrix(1,0,0,-1,3.529262,3.65)" fill="rgb(255,255,255)" stroke="rgb(0,0,0)" stroke-width="0.0010cm" stroke-linecap="round" stroke-linejoin="round" shaper:cutDepth="0.3cm" /><path d="M2.979262,3.25 a0.15,0.15 0 1,1 0.3,0 a0.15,0.15 0 1,1 -0.3,0z" transform="matrix(1,0,0,-1,3.529262,3.65)" fill="rgb(255,255,255)" stroke="rgb(0,0,0)" stroke-width="0.0010cm" stroke-linecap="round" stroke-linejoin="round" shaper:cutDepth="0.3cm" /><path d="M-1.520738,-3.25 a0.15,0.15 0 1,1 0.3,0 a0.15,0.15 0 1,1 -0.3,0z" transform="matrix(1,0,0,-1,3.529262,3.65)" fill="rgb(255,255,255)" stroke="rgb(0,0,0)" stroke-width="0.0010cm" stroke-linecap="round" stroke-linejoin="round" shaper:cutDepth="0.3cm" /><path d="M-2.1707381,2 L-0.870738,2 -0.870738,2.7500001 -2.1707381,2.7500001 A0.3,0.3 90 0,1 -2.4707381,2.4500001 L-2.4707381,2.3 A0.3,0.3 180 0,1 -2.1707381,2z" transform="matrix(1,0,0,-1,3.529262,3.65)" fill="rgb(255,255,255)" stroke="rgb(0,0,0)" stroke-width="0.0010cm" stroke-linecap="round" stroke-linejoin="round" shaper:cutDepth="0.3cm" /></svg>