<?xml version="1.0" encoding="utf-8"?>
<!-- Generator: Fusion 360, Shaper Origin Export Add-In, Version 1.7.0  -->
<svg xmlns="http://www.w3.org/2000/svg" xmlns:xlink="http://www.w3.org/1999/xlink" xmlns:shaper="http://www.shapertools.com/namespaces/shaper" shaper:fusionaddin="version:1.7.0" width="7.058524cm" height="7.3cm" version="1.1" x="0cm" y="0cm" viewBox="0 0 7.058524 7.3" enable-background="new 0 0 7.058524 7.3" xml:space="preserve"><path d="M-3.529262,-2.0046781 L-1.8572407,-3.5690658 A0.3,0.3 226.9047902 0,1 -1.6522768,-3.65 L3.229262,-3.65 A0.3,0.3 270 0,1 3.529262,-3.35 L3.529262,-2.7885309 3.229262,-2.7885309 3.229262,-0.7885309 3.529262,-0.7885309 3.529262,3.35 A0.3,0.3 0 0,1 3.229262,3.65 L-1.6522768,3.65 A0.3,0.3 90 0,1 -1.8572407,3.5690658 L-3.529262,2.0046781 -3.529262,1.65 -3.2342727,1.65 -3.2342727,-1.65 -3.529262,-1.65 -3.529262,-2.0046781z" transform="matrix(1,0,0,-1,3.529262,3.65)" fill="rgb(0,0,0)" shaper:cutDepth="0.3cm" stroke-linecap="round" stroke-linejoin="round" /><path d="M0.829108,0.224793 L0.829108,0.224793 0.8448662,0.228152 0.8524866,0.2303625 0.8597965,0.2332101 0.8667039,0.2368837 0.8732472,0.2413045 0.8857247,0.251396 0.8857247,0.251396 0.8938157,0.2627103 0.897285,0.2685861 0.9000628,0.2747241 0.9020064,0.2811787 0.9032751,0.2878893 0.9046879,0.3017371 0.9046879,0.3017371 0.9025464,0.3187599 0.9006975,0.326926 0.8979147,0.3346778 0.8939983,0.3419265 0.8891603,0.3487663 0.8779484,0.3617644 0.8779484,0.3617644 0.8619177,0.3726654 0.8535994,0.3772699 0.8449181,0.3808602 0.8358206,0.3832877 0.8263972,0.3848046 0.8070071,0.386321 0.8070071,0.386321 0.7887739,0.3849047 0.7799284,0.3834633 0.7714081,0.3811419 0.7633046,0.377693 0.7555673,0.3732531 0.7407042,0.3627193 0.7407042,0.3627193 0.7301303,0.3490758 0.7256307,0.3419381 0.7220756,0.3344215 0.7196319,0.3264589 0.718071,0.3181422 0.7164204,0.3009185 0.7164204,0.3009185 0.7171956,0.2897207 0.7190022,0.2787853 0.7225625,0.2682963 0.7271981,0.2580809 0.7271981,0.2580809 0.7329076,0.2493768 0.7393069,0.2413186 0.7468776,0.2343572 0.7551653,0.2280673 0.7491626,0.1819554 0.5437056,0.2207003 0.5437056,0.4196088 0.590636,0.4196088 0.590636,0.2599909 0.6981394,0.2384356 0.6981394,0.2384356 0.6878178,0.2560064 0.6833332,0.265013 0.67966,0.2742852 0.6770035,0.2838902 0.6752047,0.293776 0.6730371,0.3140154 0.6730371,0.3140154 0.6757984,0.3387175 0.6782494,0.3506274 0.681985,0.3620078 0.6873011,0.3727368 0.6939194,0.3829291 0.7093263,0.4024192 0.7093263,0.4024192 0.7300484,0.4180528 0.740864,0.4247134 0.752225,0.429987 0.7642305,0.4336216 0.7767491,0.4359513 0.8026415,0.4384356 0.8026415,0.4384356 0.8280217,0.4361407 0.8403898,0.4340485 0.8523714,0.4308226 0.8638723,0.4261866 0.8749719,0.4203734 0.8965023,0.4067848 0.8965023,0.4067848 0.9072513,0.3958455 0.9173943,0.3846223 0.9263255,0.3728313 0.9334391,0.3601888 0.9383805,0.3465287 0.9415787,0.3320519 0.9436148,0.3170306 0.9450698,0.3017371 0.9450698,0.3017371 0.9431085,0.277462 0.9411908,0.2656551 0.9381487,0.2542449 0.9336781,0.2433388 0.9279744,0.2328677 0.9145105,0.2126512 0.9145105,0.2126512 0.8969578,0.1973042 0.8877109,0.1905852 0.8778995,0.1850114 0.8674178,0.1807973 0.8564006,0.1776695 0.8334737,0.1732241 0.829108,0.224793z" transform="matrix(1,0,0,-1,3.529262,3.65)" fill="rgb(116,116,116)" fill-rule="nonzero" shaper:cutDepth="0.05cm" stroke-linecap="round" stroke-linejoin="round" /><path d="M2.3262278,2.2438651 L2.3262278,1.9794722 2.3262278,1.9794722 2.317503,1.9797272 2.3088861,1.980623 2.3004495,1.9825901 2.2921214,1.9852021 2.2921214,1.9852021 2.2778485,1.9916728 2.2641236,1.999053 2.2512689,2.007878 2.2389154,2.017535 2.2389154,2.017535 2.2227839,2.0326582 2.2072407,2.0483415 2.1925564,2.0648426 2.1783425,2.0817915 2.1783425,2.0817915 2.1587594,2.1053921 2.1384009,2.1282315 2.1165694,2.1496247 2.0936221,2.1699224 2.0936221,2.1699224 2.0800396,2.1788408 2.0730579,2.1827879 2.0658478,2.1861206 2.0583405,2.1886541 2.0505618,2.1904576 2.0345498,2.1928419 2.0345498,2.1928419 2.0207083,2.1912262 2.0140478,2.1898054 2.0076994,2.187649 2.0017336,2.1845913 1.9960815,2.1807944 1.9853002,2.1719688 1.9853002,2.1719688 1.9765078,2.159788 1.9727761,2.1534466 1.9698412,2.1468041 1.9678358,2.1398105 1.9665645,2.1325394 1.9652456,2.117535 1.9652456,2.117535 1.9666142,2.1018219 1.9679509,2.094217 1.9700703,2.0869142 1.9731838,2.0799949 1.9771551,2.0734066 1.986528,2.0607819 1.986528,2.0607819 1.9996813,2.0512353 2.0065406,2.0472056 2.0137386,2.0440666 2.0213207,2.041938 2.0292021,2.0405968 2.0454639,2.0392266 2.0402797,1.9887492 2.0402797,1.9887492 2.0160832,1.9927955 2.0044213,1.9957494 1.9932827,1.9998202 1.9828168,2.0053261 1.9729454,2.0121004 1.9541951,2.0277669 1.9541951,2.0277669 1.9409179,2.0484883 1.9353325,2.0592062 1.9310085,2.0703521 1.92811,2.0819817 1.9263207,2.0939875 1.9245907,2.1186264 1.9245907,2.1186264 1.9265037,2.1436167 1.9284522,2.155751 1.9315913,2.1674523 1.9362562,2.1785985 1.9422626,2.1892567 1.9565143,2.2097587 1.9565143,2.2097587 1.9738117,2.2239875 1.9828856,2.2301028 1.9924696,2.2350192 2.0026736,2.2384781 2.0133824,2.2407509 2.0356412,2.2433194 2.0356412,2.2433194 2.0477838,2.2425162 2.0597382,2.2408035 2.0713831,2.2375938 2.0828445,2.2334968 2.0828445,2.2334968 2.0959687,2.2267334 2.1085636,2.2191663 2.1203508,2.2103727 2.1316849,2.200891 2.1316849,2.200891 2.1501635,2.182789 2.1680944,2.164172 2.2020805,2.1251748 2.2020805,2.1251748 2.2266407,2.0962506 2.2524216,2.0684217 2.2524216,2.0684217 2.265182,2.0573564 2.2790246,2.0476851 2.2790246,2.2438651 2.3262278,2.2438651z" transform="matrix(1,0,0,-1,3.529262,3.65)" fill="rgb(116,116,116)" fill-rule="nonzero" shaper:cutDepth="0.05cm" stroke-linecap="round" stroke-linejoin="round" /><path d="M-0.9908724,-2.4045403 L-0.9908724,-2.4045403 -0.9742624,-2.4004741 -0.9662051,-2.3979468 -0.958445,-2.3948266 -0.9510755,-2.3909271 -0.9440779,-2.3862859 -0.9307087,-2.3757545 -0.9307087,-2.3757545 -0.9228132,-2.3646103 -0.9194336,-2.3588247 -0.9167359,-2.352783 -0.9148562,-2.346434 -0.9136353,-2.3398374 -0.9122912,-2.3262319 -0.9122912,-2.3262319 -0.9141207,-2.3098816 -0.9157434,-2.301998 -0.9182158,-2.2944643 -0.9217332,-2.287361 -0.9261113,-2.2806122 -0.9363021,-2.2677054 -0.9363021,-2.2677054 -0.9494631,-2.2575107 -0.9563378,-2.2531407 -0.9635655,-2.2496434 -0.9712188,-2.2471983 -0.979216,-2.2456034 -0.9957837,-2.2438309 -0.9957837,-2.2438309 -1.0113203,-2.2454049 -1.0188224,-2.2468545 -1.0260053,-2.2490989 -1.0327896,-2.2523358 -1.0392394,-2.2564053 -1.0515818,-2.2659318 -1.0515818,-2.2659318 -1.0610691,-2.278398 -1.0651187,-2.2849065 -1.0683353,-2.2917455 -1.0705618,-2.2989774 -1.0719965,-2.3065234 -1.0735463,-2.3221392 -1.0735463,-2.3221392 -1.071895,-2.3396275 -1.0680893,-2.3567913 -1.1111998,-2.3513343 -1.1111998,-2.3513343 -1.1106541,-2.3434216 -1.1106541,-2.3434216 -1.1118735,-2.328463 -1.1129687,-2.3211254 -1.1146464,-2.3139578 -1.1170446,-2.3070005 -1.1200398,-2.3002173 -1.1270252,-2.2869414 -1.1270252,-2.2869414 -1.1372425,-2.2759601 -1.1427727,-2.2712954 -1.1488087,-2.2676213 -1.1554361,-2.265106 -1.1625316,-2.2635076 -1.1775027,-2.2618391 -1.1775027,-2.2618391 -1.1900233,-2.263177 -1.196059,-2.2643904 -1.2018251,-2.2662572 -1.2072565,-2.268935 -1.2124093,-2.2722881 -1.2222503,-2.2801201 -1.2222503,-2.2801201 -1.229984,-2.290654 -1.2332732,-2.2961427 -1.2358695,-2.3018975 -1.2376518,-2.3079648 -1.2387884,-2.3142799 -1.2399856,-2.3273234 -1.2399856,-2.3273234 -1.2387095,-2.3404951 -1.2375311,-2.3468741 -1.2357041,-2.353005 -1.2330667,-2.3588258 -1.2297485,-2.3643861 -1.2219774,-2.3750724 -1.2219774,-2.3750724 -1.2099764,-2.3843963 -1.203701,-2.3884765 -1.1970971,-2.3918617 -1.1901336,-2.3944861 -1.1828937,-2.3965254 -1.1679529,-2.399629 -1.1766841,-2.4487422 -1.1766841,-2.4487422 -1.198318,-2.4430893 -1.2087232,-2.4395086 -1.2186341,-2.4350229 -1.2279161,-2.4293852 -1.2366533,-2.4227498 -1.2532189,-2.4078145 -1.2532189,-2.4078145 -1.2650433,-2.3897223 -1.2700746,-2.3803688 -1.2740491,-2.3706465 -1.2767804,-2.3604904 -1.2785245,-2.3499899 -1.2803676,-2.3284148 -1.2803676,-2.3284148 -1.2793318,-2.3127579 -1.2769591,-2.297415 -1.2723259,-2.2826031 -1.2663158,-2.2681146 -1.2663158,-2.2681146 -1.2587849,-2.2556963 -1.2501526,-2.2442862 -1.2396433,-2.2345945 -1.2279801,-2.2259591 -1.2279801,-2.2259591 -1.2157785,-2.2198572 -1.2032029,-2.2150835 -1.1899978,-2.2125451 -1.1764112,-2.2113616 -1.1764112,-2.2113616 -1.1638971,-2.2124276 -1.1517706,-2.2148048 -1.1402935,-2.2193785 -1.129208,-2.225277 -1.129208,-2.225277 -1.118709,-2.2338798 -1.1093605,-2.2434395 -1.1018407,-2.2545203 -1.0953744,-2.2664775 -1.0953744,-2.2664775 -1.0902507,-2.2505956 -1.0871273,-2.2430052 -1.0833302,-2.2358353 -1.0786862,-2.2291941 -1.0733244,-2.223001 -1.0614044,-2.2113616 -1.0614044,-2.2113616 -1.0464495,-2.2026921 -1.0387638,-2.1990218 -1.0308286,-2.1961482 -1.0226049,-2.1941955 -1.0141543,-2.1929668 -0.9968751,-2.1917163 -0.9968751,-2.1917163 -0.9718619,-2.1947247 -0.959835,-2.1973456 -0.9483837,-2.2013067 -0.9376345,-2.2069021 -0.9274586,-2.2138319 -0.908062,-2.2299155 -0.908062,-2.2299155 -0.8922872,-2.2515051 -0.8855605,-2.2627452 -0.8802265,-2.2745194 -0.8765429,-2.2869266 -0.8741759,-2.2998387 -0.8716364,-2.3265048 -0.8716364,-2.3265048 -0.8737844,-2.3504509 -0.8758075,-2.3620768 -0.8789694,-2.373286 -0.8835634,-2.3839713 -0.8893721,-2.3942124 -0.9030143,-2.4139537 -0.9030143,-2.4139537 -0.9206687,-2.4293025 -0.929958,-2.4360394 -0.9398017,-2.4416512 -0.9503095,-2.4459155 -0.9613511,-2.4490966 -0.984324,-2.4536535 -0.9908724,-2.4045403z" transform="matrix(1,0,0,-1,3.529262,3.65)" fill="rgb(116,116,116)" fill-rule="nonzero" shaper:cutDepth="0.05cm" stroke-linecap="round" stroke-linejoin="round" /><path d="M2.6715468,-1.0582619 L2.6715468,-1.3226548 2.6715468,-1.3226548 2.662822,-1.3223998 2.654205,-1.321504 2.6457684,-1.3195369 2.6374404,-1.3169249 2.6374404,-1.3169249 2.6231675,-1.3104543 2.6094425,-1.303074 2.5965879,-1.294249 2.5842344,-1.284592 2.5842344,-1.284592 2.5681028,-1.2694688 2.5525596,-1.2537855 2.5378753,-1.2372845 2.5236614,-1.2203356 2.5236614,-1.2203356 2.5040783,-1.1967349 2.4837199,-1.1738955 2.4618884,-1.1525023 2.4389411,-1.1322046 2.4389411,-1.1322046 2.4253585,-1.1232862 2.4183769,-1.1193391 2.4111667,-1.1160065 2.4036595,-1.1134729 2.3958807,-1.1116695 2.3798687,-1.1092851 2.3798687,-1.1092851 2.3660273,-1.1109008 2.3593667,-1.1123216 2.3530184,-1.1144781 2.3470526,-1.1175357 2.3414004,-1.1213326 2.3306191,-1.1301582 2.3306191,-1.1301582 2.3218268,-1.142339 2.318095,-1.1486804 2.3151602,-1.1553229 2.3131547,-1.1623166 2.3118834,-1.1695876 2.3105645,-1.184592 2.3105645,-1.184592 2.3119332,-1.2003051 2.3132698,-1.20791 2.3153892,-1.2152128 2.3185028,-1.2221321 2.322474,-1.2287204 2.3318469,-1.2413451 2.3318469,-1.2413451 2.3450002,-1.2508917 2.3518596,-1.2549215 2.3590575,-1.2580604 2.3666396,-1.260189 2.3745211,-1.2615302 2.3907828,-1.2629004 2.3855986,-1.3133779 2.3855986,-1.3133779 2.3614022,-1.3093316 2.3497402,-1.3063776 2.3386017,-1.3023068 2.3281357,-1.296801 2.3182643,-1.2900267 2.2995141,-1.2743601 2.2995141,-1.2743601 2.2862369,-1.2536388 2.2806514,-1.2429208 2.2763274,-1.2317749 2.273429,-1.2201453 2.2716397,-1.2081395 2.2699097,-1.1835006 2.2699097,-1.1835006 2.2718226,-1.1585103 2.2737712,-1.146376 2.2769102,-1.1346748 2.2815752,-1.1235286 2.2875815,-1.1128703 2.3018333,-1.0923683 2.3018333,-1.0923683 2.3191307,-1.0781395 2.3282045,-1.0720242 2.3377885,-1.0671078 2.3479926,-1.0636489 2.3587014,-1.0613761 2.3809602,-1.0588076 2.3809602,-1.0588076 2.3931027,-1.0596108 2.4050571,-1.0613235 2.416702,-1.0645332 2.4281634,-1.0686302 2.4281634,-1.0686302 2.4412876,-1.0753936 2.4538825,-1.0829607 2.4656697,-1.0917543 2.4770038,-1.101236 2.4770038,-1.101236 2.4954825,-1.119338 2.5134133,-1.137955 2.5473994,-1.1769522 2.5473994,-1.1769522 2.5719596,-1.2058765 2.5977405,-1.2337053 2.5977405,-1.2337053 2.6105009,-1.2447707 2.6243435,-1.254442 2.6243435,-1.0582619 2.6715468,-1.0582619z" transform="matrix(1,0,0,-1,3.529262,3.65)" fill="rgb(116,116,116)" fill-rule="nonzero" shaper:cutDepth="0.05cm" stroke-linecap="round" stroke-linejoin="round" /><path d="M-1.3502209,0.7773656 L-1.3502209,0.5129727 -1.3502209,0.5129727 -1.3589457,0.5132276 -1.3675627,0.5141234 -1.3759993,0.5160906 -1.3843274,0.5187025 -1.3843274,0.5187025 -1.3986002,0.5251732 -1.4123252,0.5325535 -1.4251798,0.5413785 -1.4375333,0.5510354 -1.4375333,0.5510354 -1.4536649,0.5661586 -1.4692081,0.581842 -1.4838924,0.598343 -1.4981063,0.6152919 -1.4981063,0.6152919 -1.5176894,0.6388926 -1.5380479,0.6617319 -1.5598793,0.6831251 -1.5828267,0.7034228 -1.5828267,0.7034228 -1.5964092,0.7123412 -1.6033909,0.7162884 -1.610601,0.719621 -1.6181082,0.7221546 -1.625887,0.723958 -1.641899,0.7263424 -1.641899,0.7263424 -1.6557404,0.7247267 -1.662401,0.7233058 -1.6687493,0.7211494 -1.6747152,0.7180917 -1.6803673,0.7142949 -1.6911486,0.7054693 -1.6911486,0.7054693 -1.6999409,0.6932885 -1.7036727,0.6869471 -1.7066075,0.6803046 -1.708613,0.6733109 -1.7098843,0.6660399 -1.7112032,0.6510354 -1.7112032,0.6510354 -1.7098345,0.6353223 -1.7084979,0.6277175 -1.7063785,0.6204146 -1.7032649,0.6134954 -1.6992937,0.6069071 -1.6899208,0.5942823 -1.6899208,0.5942823 -1.6767675,0.5847358 -1.6699081,0.580706 -1.6627102,0.577567 -1.6551281,0.5754385 -1.6472466,0.5740973 -1.6309849,0.5727271 -1.6361691,0.5222496 -1.6361691,0.5222496 -1.6603655,0.5262959 -1.6720275,0.5292498 -1.683166,0.5333207 -1.693632,0.5388265 -1.7035034,0.5456008 -1.7222537,0.5612673 -1.7222537,0.5612673 -1.7355308,0.5819887 -1.7411163,0.5927066 -1.7454403,0.6038526 -1.7483387,0.6154821 -1.750128,0.627488 -1.751858,0.6521268 -1.751858,0.6521268 -1.7499451,0.6771172 -1.7479965,0.6892515 -1.7448575,0.7009527 -1.7401925,0.7120989 -1.7341862,0.7227571 -1.7199344,0.7432591 -1.7199344,0.7432591 -1.702637,0.757488 -1.6935632,0.7636033 -1.6839792,0.7685196 -1.6737751,0.7719786 -1.6630663,0.7742513 -1.6408075,0.7768199 -1.6408075,0.7768199 -1.628665,0.7760167 -1.6167106,0.7743039 -1.6050657,0.7710943 -1.5936043,0.7669972 -1.5936043,0.7669972 -1.5804801,0.7602339 -1.5678852,0.7526668 -1.556098,0.7438731 -1.5447639,0.7343915 -1.5447639,0.7343915 -1.5262852,0.7162895 -1.5083544,0.6976725 -1.4743683,0.6586753 -1.4743683,0.6586753 -1.4498081,0.629751 -1.4240272,0.6019222 -1.4240272,0.6019222 -1.4112668,0.5908568 -1.3974242,0.5811855 -1.3974242,0.7773656 -1.3502209,0.7773656z" transform="matrix(1,0,0,-1,3.529262,3.65)" fill="rgb(116,116,116)" fill-rule="nonzero" shaper:cutDepth="0.05cm" stroke-linecap="round" stroke-linejoin="round" /><path d="M0.7467246,-3.4650725 L0.7467246,-3.4650725 0.7716396,-3.4589732 0.7837256,-3.4551823 0.7953657,-3.450502 0.8064199,-3.4446528 0.8169163,-3.4376909 0.8369702,-3.4218938 0.8369702,-3.4218938 0.8488133,-3.4051775 0.8538827,-3.3964992 0.8579293,-3.3874367 0.8607487,-3.3779131 0.8625802,-3.3680183 0.8645963,-3.3476101 0.8645963,-3.3476101 0.8618521,-3.3230845 0.859418,-3.3112592 0.8557094,-3.2999586 0.8504333,-3.2893037 0.8438662,-3.2791804 0.82858,-3.2598202 0.82858,-3.2598202 0.8088385,-3.2445282 0.7985265,-3.2379731 0.7876849,-3.2327272 0.776205,-3.2290595 0.7642091,-3.2266672 0.7393575,-3.2240084 0.7393575,-3.2240084 0.7160527,-3.2263695 0.7047995,-3.2285438 0.6940252,-3.2319105 0.6838488,-3.2367658 0.674174,-3.24287 0.6556605,-3.2571599 0.6556605,-3.2571599 0.6414295,-3.2758591 0.6353551,-3.2856218 0.6305301,-3.2958803 0.6271904,-3.3067281 0.6250383,-3.3180472 0.6227136,-3.3414709 0.6227136,-3.3414709 0.6236118,-3.3546384 0.6251905,-3.3677033 0.6308991,-3.3934491 0.5662334,-3.3852635 0.5662334,-3.3852635 0.567052,-3.3733945 0.567052,-3.3733945 0.5652229,-3.3509566 0.5635801,-3.3399502 0.5610634,-3.3291988 0.5574662,-3.3187628 0.5529734,-3.3085881 0.5424953,-3.2886742 0.5424953,-3.2886742 0.5271694,-3.2722022 0.518874,-3.2652051 0.50982,-3.2596941 0.4998789,-3.2559211 0.4892357,-3.2535236 0.4667791,-3.2510207 0.4667791,-3.2510207 0.4479981,-3.2530276 0.4389446,-3.2548477 0.4302955,-3.2576478 0.4221484,-3.2616645 0.4144193,-3.2666943 0.3996577,-3.2784423 0.3996577,-3.2784423 0.3880572,-3.2942431 0.3831233,-3.3024762 0.379229,-3.3111084 0.3765554,-3.3202093 0.3748505,-3.329682 0.3730547,-3.3492472 0.3730547,-3.3492472 0.3749688,-3.3690047 0.3767365,-3.3785733 0.379477,-3.3877696 0.3834331,-3.3965008 0.3884103,-3.4048412 0.400067,-3.4208706 0.400067,-3.4208706 0.4180685,-3.4348565 0.4274817,-3.4409768 0.4373875,-3.4460546 0.4478327,-3.4499913 0.4586926,-3.4530503 0.4811038,-3.4577056 0.468007,-3.5313754 0.468007,-3.5313754 0.4355561,-3.522896 0.4199484,-3.517525 0.4050819,-3.5107964 0.3911589,-3.50234 0.3780531,-3.4923868 0.3532048,-3.4699839 0.3532048,-3.4699839 0.3354682,-3.4428455 0.3279213,-3.4288153 0.3219595,-3.4142319 0.3178625,-3.3989978 0.3152463,-3.383247 0.3124817,-3.3508843 0.3124817,-3.3508843 0.3140355,-3.3273989 0.315439,-3.3158034 0.3175945,-3.3043846 0.3206821,-3.2931847 0.3245442,-3.2821667 0.3335595,-3.2604341 0.3335595,-3.2604341 0.3448558,-3.2418065 0.3510203,-3.2329654 0.3578043,-3.2246914 0.3653618,-3.2171256 0.3735682,-3.2101539 0.3910629,-3.1972008 0.3910629,-3.1972008 0.4093654,-3.1880479 0.4186919,-3.1840941 0.4282288,-3.1808873 0.4380253,-3.1786025 0.4480364,-3.1770797 0.4684162,-3.1753045 0.4684162,-3.1753045 0.4871874,-3.1769035 0.4963913,-3.1783176 0.5053771,-3.1804693 0.5140951,-3.183527 0.5225928,-3.1873299 0.5392211,-3.1961775 0.5392211,-3.1961775 0.5549696,-3.2090817 0.5623044,-3.2159825 0.5689924,-3.2234213 0.5749286,-3.2314854 0.5802722,-3.2400425 0.5899715,-3.2579784 0.5899715,-3.2579784 0.5976571,-3.2341555 0.6023421,-3.2227698 0.6080378,-3.2120151 0.6150038,-3.2020533 0.6230464,-3.1927636 0.6409264,-3.1753045 0.6409264,-3.1753045 0.6633589,-3.1623003 0.6748873,-3.1567948 0.6867902,-3.1524844 0.6991258,-3.1495553 0.7118016,-3.1477123 0.7377204,-3.1458365 0.7377204,-3.1458365 0.7566243,-3.1477578 0.7752403,-3.1503491 0.7932807,-3.1542805 0.8019951,-3.1569581 0.8104576,-3.1602221 0.8186448,-3.1641267 0.8265813,-3.1686152 0.8418453,-3.1790099 0.856536,-3.190739 0.8709401,-3.2031353 0.8709401,-3.2031353 0.8831194,-3.219194 0.8946023,-3.2355198 0.9046923,-3.2523799 0.9089974,-3.2610937 0.9126933,-3.2700412 0.9157441,-3.2792361 0.9182188,-3.2886519 0.9217693,-3.3080202 0.9240031,-3.3278935 0.9255786,-3.3480193 0.9255786,-3.3480193 0.9242523,-3.366083 0.9223565,-3.3839384 0.9193219,-3.4013772 0.914579,-3.4181911 0.907688,-3.4342191 0.898975,-3.4495807 0.8890471,-3.4644977 0.8785117,-3.4791926 0.8785117,-3.4791926 0.8654095,-3.4909856 0.8520301,-3.502216 0.8380961,-3.5123212 0.8233305,-3.5207389 0.8075689,-3.5271354 0.7910065,-3.531907 0.7739103,-3.5355955 0.7565472,-3.5387424 0.7467246,-3.4650725z" transform="matrix(1,0,0,-1,3.529262,3.65)" fill="rgb(116,116,116)" fill-rule="nonzero" shaper:cutDepth="0.05cm" stroke-linecap="round" stroke-linejoin="round" /><path d="M0.4675977,-2.7639812 L0.4675977,-2.7639812 0.4506354,-2.7683277 0.4342765,-2.7739817 0.4265088,-2.7777008 0.4190318,-2.7820497 0.404569,-2.791812 0.404569,-2.791812 0.3912446,-2.8078965 0.3855122,-2.8163371 0.3808957,-2.8252558 0.3776398,-2.8347573 0.3754945,-2.8447345 0.3730547,-2.8654819 0.3730547,-2.8654819 0.3744911,-2.8820473 0.3757945,-2.8901421 0.3778001,-2.8980117 0.3806778,-2.9056013 0.3842817,-2.9129579 0.3927,-2.9272826 0.3927,-2.9272826 0.4085173,-2.9445875 0.4169057,-2.9526021 0.425869,-2.9598518 0.4354928,-2.9662233 0.445634,-2.9719065 0.4667791,-2.9821258 0.4667791,-2.9821258 0.5007318,-2.991844 0.5178477,-2.9958468 0.5351286,-2.9988376 0.5525783,-3.0007928 0.5701558,-3.0019638 0.605524,-3.0029989 0.605524,-3.0029989 0.587543,-2.9894266 0.5790431,-2.9821906 0.5711317,-2.9744147 0.5639594,-2.965961 0.5574123,-2.9569339 0.5453603,-2.9379239 0.5453603,-2.9379239 0.5371211,-2.9185751 0.5335661,-2.9087636 0.5306887,-2.8987876 0.5286447,-2.8886092 0.5272869,-2.8782641 0.525715,-2.8572963 0.525715,-2.8572963 0.5275571,-2.839488 0.5300316,-2.8219523 0.5337707,-2.8049618 0.5363121,-2.7967561 0.5394069,-2.7887889 0.5473499,-2.7736104 0.5571712,-2.7592414 0.5682447,-2.7454123 0.5799442,-2.731853 0.5799442,-2.731853 0.5955071,-2.7201978 0.6113268,-2.7092222 0.6276604,-2.699606 0.6361001,-2.69552 0.6447644,-2.692028 0.6627704,-2.6868363 0.6814906,-2.6835343 0.7006871,-2.6814919 0.7201216,-2.6800794 0.7201216,-2.6800794 0.7473604,-2.6819066 0.7608116,-2.6835411 0.774061,-2.6860405 0.7870614,-2.6896079 0.7998558,-2.6940584 0.8251011,-2.7044314 0.8251011,-2.7044314 0.8469705,-2.7175232 0.8573521,-2.724679 0.86707,-2.7325668 0.8759594,-2.7413681 0.884154,-2.7509357 0.8993849,-2.7713482 0.8993849,-2.7713482 0.9104843,-2.7942382 0.915228,-2.805901 0.9190045,-2.8178252 0.9216262,-2.8300613 0.9233218,-2.8425477 0.9251693,-2.8679375 0.9251693,-2.8679375 0.9230145,-2.8895753 0.9200588,-2.9108499 0.9155012,-2.9313981 0.9123715,-2.9412864 0.9085409,-2.9508569 0.9039364,-2.9600764 0.8986183,-2.9689724 0.8862493,-2.9859786 0.8722494,-3.0022453 0.857434,-3.0181422 0.857434,-3.0181422 0.8316572,-3.0328063 0.8055753,-3.0464112 0.7923247,-3.0524854 0.7788834,-3.0578976 0.7652134,-3.0625155 0.7512948,-3.0662699 0.7371498,-3.0692382 0.7228067,-3.0715186 0.6936395,-3.0744091 0.6640196,-3.0757273 0.6341733,-3.0762594 0.6341733,-3.0762594 0.6004943,-3.0756049 0.5670569,-3.0740862 0.5341026,-3.0708392 0.5178821,-3.0682975 0.501873,-3.0649998 0.4861054,-3.0608378 0.4706021,-3.0557308 0.45534,-3.049761 0.4402788,-3.0430722 0.4105988,-3.0281128 0.3812403,-3.012003 0.3812403,-3.012003 0.3660416,-2.996169 0.3516976,-2.9799411 0.3390627,-2.9629254 0.3336533,-2.953999 0.3289915,-2.944728 0.3251305,-2.9350879 0.3219884,-2.9251164 0.3174501,-2.9043687 0.3145551,-2.8828636 0.3124817,-2.8609798 0.3124817,-2.8609798 0.3150503,-2.8293863 0.3175499,-2.8140167 0.3215078,-2.7991598 0.3273163,-2.7849535 0.3347187,-2.7713074 0.3521816,-2.7449498 0.3521816,-2.7449498 0.3760004,-2.7242539 0.3885446,-2.7151637 0.40185,-2.707582 0.4160404,-2.7017536 0.4309285,-2.6973078 0.4618678,-2.6907206 0.4675977,-2.7639812z M0.7933821,-2.9753727 L0.7933821,-2.9753727 0.8089219,-2.9667257 0.8163097,-2.9619584 0.823239,-2.9566585 0.8295928,-2.9506902 0.8354601,-2.9441567 0.8463835,-2.9301476 0.8463835,-2.9301476 0.8539336,-2.9157882 0.8572046,-2.9084594 0.859871,-2.9009519 0.8617851,-2.893222 0.8630711,-2.8853063 0.8645963,-2.8691654 0.8645963,-2.8691654 0.8614068,-2.8462271 0.8587335,-2.8352577 0.8547661,-2.824888 0.8492545,-2.8152336 0.842505,-2.8061528 0.8269429,-2.788947 0.8269429,-2.788947 0.8036581,-2.7738515 0.7916033,-2.7675085 0.7790548,-2.7626082 0.7659506,-2.7593314 0.7524147,-2.7573158 0.7246236,-2.7553863 0.7246236,-2.7553863 0.6978715,-2.7573045 0.6848611,-2.7593006 0.6722896,-2.7625408 0.6602828,-2.767382 0.648777,-2.7736434 0.6266018,-2.7885378 0.6266018,-2.7885378 0.6113694,-2.8067032 0.6048306,-2.8162504 0.5995845,-2.8263551 0.595904,-2.8371349 0.5934937,-2.8484624 0.59079,-2.8720303 0.59079,-2.8720303 0.5935875,-2.8958123 0.5960355,-2.9072598 0.5997425,-2.9181751 0.6049884,-2.9284399 0.6114933,-2.9381725 0.6266018,-2.9567506 0.6266018,-2.9567506 0.6475859,-2.9720194 0.6585177,-2.9784972 0.6699767,-2.9835879 0.6820498,-2.9870632 0.6946075,-2.9892636 0.7205308,-2.9915391 0.7205308,-2.9915391 0.7393574,-2.9902664 0.7578488,-2.9874812 0.7757824,-2.9821801 0.7933821,-2.9753727z" transform="matrix(1,0,0,-1,3.529262,3.65)" fill="rgb(116,116,116)" fill-rule="nonzero" shaper:cutDepth="0.05cm" stroke-linecap="round" stroke-linejoin="round" /><path d="M1.7262278,1.7755841 a0.15,0.15 0 1,1 0.3,0 a0.15,0.15 0 1,1 -0.3,0z" transform="matrix(1,0,0,-1,3.529262,3.65)" fill="rgb(255,255,255)" stroke="rgb(0,0,0)" stroke-width="0.0010cm" stroke-linecap="round" stroke-linejoin="round" shaper:cutDepth="0.3cm" /><path d="M-1.9502209,0.3090845 a0.15,0.15 0 1,1 0.3,0 a0.15,0.15 0 1,1 -0.3,0z" transform="matrix(1,0,0,-1,3.529262,3.65)" fill="rgb(255,255,255)" stroke="rgb(0,0,0)" stroke-width="0.0010cm" stroke-linecap="round" stroke-linejoin="round" shaper:cutDepth="0.3cm" /><path d="M-1.4787305,-2.6620437 a0.15,0.15 0 1,1 0.3,0 a0.15,0.15 0 1,1 -0.3,0z" transform="matrix(1,0,0,-1,3.529262,3.65)" fill="rgb(255,255,255)" stroke="rgb(0,0,0)" stroke-width="0.0010cm" stroke-linecap="round" stroke-linejoin="round" shaper:cutDepth="0.3cm" /><path d="M2.0715468,-1.5265429 a0.15,0.15 0 1,1 0.3,0 a0.15,0.15 0 1,1 -0.3,0z" transform="matrix(1,0,0,-1,3.529262,3.65)" fill="rgb(255,255,255)" stroke="rgb(0,0,0)" stroke-width="0.0010cm" stroke-linecap="round" stroke-linejoin="round" shaper:cutDepth="0.3cm" /><path d="M0.3409771,-0.0333925 a0.15,0.15 0 1,1 0.3,0 a0.15,0.15 0 1,1 -0.3,0z" transform="matrix(1,0,0,-1,3.529262,3.65)" fill="rgb(255,255,255)" stroke="rgb(0,0,0)" stroke-width="0.0010cm" stroke-linecap="round" stroke-linejoin="round" shaper:cutDepth="0.3cm" /><path d="M-2.5342727,1.25 L-2.5342727,-1.25 -2.2342727,-1.25 -2.2342727,1.25 -2.5342727,1.25z" transform="matrix(1,0,0,-1,3.529262,3.65)" fill="rgb(255,255,255)" stroke="rgb(0,0,0)" stroke-width="0.0010cm" stroke-linecap="round" stroke-linejoin="round" shaper:cutDepth="0.3cm" /><path d="M2.979262,-3.25 a0.15,0.15 0 1,1 0.3,0 a0.15,0.15 0 1,1 -0.3,0z" transform="matrix(1,0,0,-1,3.529262,3.65)" fill="rgb(255,255,255)" stroke="rgb(0,0,0)" stroke-width="0.0010cm" stroke-linecap="round" stroke-linejoin="round" shaper:cutDepth="0.3cm" /><path d="M-1.520738,3.25 a0.15,0.15 0 1,1 0.3,0 a0.15,0.15 0 1,1 -0.3,0z" transform="matrix(1,0,0,-1,3.529262,3.65)" fill="rgb(255,255,255)" stroke="rgb(0,0,0)" stroke-width="0.0010cm" stroke-linecap="round" stroke-linejoin="round" shaper:cutDepth="0.3cm" /><path d="M2.979262,3.25 a0.15,0.15 0 1,1 0.3,0 a0.15,0.15 0 1,1 -0.3,0z" transform="matrix(1,0,0,-1,3.529262,3.65)" fill="rgb(255,255,255)" stroke="rgb(0,0,0)" stroke-width="0.0010cm" stroke-linecap="round" stroke-linejoin="round" shaper:cutDepth="0.3cm" /><path d="M-1.520738,-3.25 a0.15,0.15 0 1,1 0.3,0 a0.15,0.15 0 1,1 -0.3,0z" transform="matrix(1,0,0,-1,3.529262,3.65)" fill="rgb(255,255,255)" stroke="rgb(0,0,0)" stroke-width="0.0010cm" stroke-linecap="round" stroke-linejoin="round" shaper:cutDepth="0.3cm" /><path d="M-2.1707381,2 L-0.870738,2 -0.870738,2.7500001 -2.1707381,2.7500001 A0.3,0.3 90 0,1 -2.4707381,2.4500001 L-2.4707381,2.3 A0.3,0.3 180 0,1 -2.1707381,2z" transform="matrix(1,0,0,-1,3.529262,3.65)" fill="rgb(255,255,255)" stroke="rgb(0,0,0)" stroke-width="0.0010cm" stroke-linecap="round" stroke-linejoin="round" shaper:cutDepth="0.3cm" /></svg>