<?xml version="1.0" encoding="utf-8"?>
<!-- Generator: Fusion 360, Shaper Origin Export Add-In, Version 1.7.0  -->
<svg xmlns="http://www.w3.org/2000/svg" xmlns:xlink="http://www.w3.org/1999/xlink" xmlns:shaper="http://www.shapertools.com/namespaces/shaper" shaper:fusionaddin="version:1.7.0" width="7.058524cm" height="7.3cm" version="1.1" x="0cm" y="0cm" viewBox="0 0 7.058524 7.3" enable-background="new 0 0 7.058524 7.3" xml:space="preserve"><path d="M-3.529262,-2.0046781 L-1.8572407,-3.5690658 A0.3,0.3 226.9047902 0,1 -1.6522768,-3.65 L3.229262,-3.65 A0.3,0.3 270 0,1 3.529262,-3.35 L3.529262,-2.7885309 3.229262,-2.7885309 3.229262,-0.7885309 3.529262,-0.7885309 3.529262,3.35 A0.3,0.3 0 0,1 3.229262,3.65 L-1.6522768,3.65 A0.3,0.3 90 0,1 -1.8572407,3.5690658 L-3.529262,2.0046781 -3.529262,1.65 -3.2342727,1.65 -3.2342727,-1.65 -3.529262,-1.65 -3.529262,-2.0046781z" transform="matrix(1,0,0,-1,3.529262,3.65)" fill="rgb(0,0,0)" shaper:cutDepth="0.3cm" stroke-linecap="round" stroke-linejoin="round" /><path d="M2.7845498,-2.3391776 L2.7845498,-2.512711 2.7395293,-2.512711 2.4803206,-2.3301734 2.4803206,-2.2900643 2.7395293,-2.2900643 2.7395293,-2.2360398 2.7845498,-2.2360398 2.7845498,-2.2900643 2.8803206,-2.2900643 2.8803206,-2.3391776 2.7845498,-2.3391776z M2.5591746,-2.3391776 L2.7395293,-2.4644163 2.7395293,-2.3391776 2.5591746,-2.3391776z" transform="matrix(1,0,0,-1,3.529262,3.65)" fill="rgb(116,116,116)" fill-rule="nonzero" shaper:cutDepth="0.05cm" stroke-linecap="round" stroke-linejoin="round" /><path d="M2.8595286,1.6876435 L2.8595286,1.6876435 2.8761387,1.6917097 2.884196,1.694237 2.891956,1.6973572 2.8993255,1.7012566 2.9063231,1.7058979 2.9196923,1.7164293 2.9196923,1.7164293 2.9275878,1.7275735 2.9309674,1.733359 2.9336652,1.7394007 2.9355448,1.7457498 2.9367657,1.7523463 2.9381098,1.7659518 2.9381098,1.7659518 2.9362804,1.7823022 2.9346576,1.7901857 2.9321852,1.7977194 2.9286678,1.8048227 2.9242897,1.8115716 2.9140989,1.8244784 2.9140989,1.8244784 2.9009379,1.834673 2.8940633,1.8390431 2.8868356,1.8425404 2.8791823,1.8449855 2.871185,1.8465803 2.8546173,1.8483529 2.8546173,1.8483529 2.8390808,1.8467788 2.8315786,1.8453293 2.8243957,1.8430848 2.8176115,1.8398479 2.8111616,1.8357785 2.7988192,1.8262519 2.7988192,1.8262519 2.7893319,1.8137858 2.7852824,1.8072773 2.7820657,1.8004383 2.7798392,1.7932064 2.7784045,1.7856603 2.7768547,1.7700446 2.7768547,1.7700446 2.778506,1.7525563 2.7823117,1.7353925 2.7392012,1.7408495 2.7392012,1.7408495 2.7397469,1.7487622 2.7397469,1.7487622 2.7385276,1.7637207 2.7374324,1.7710583 2.7357546,1.7782259 2.7333564,1.7851833 2.7303612,1.7919664 2.7233759,1.8052424 2.7233759,1.8052424 2.7131585,1.8162237 2.7076283,1.8208884 2.7015923,1.8245624 2.6949649,1.8270777 2.6878694,1.8286761 2.6728984,1.8303447 2.6728984,1.8303447 2.6603777,1.8290068 2.654342,1.8277933 2.6485759,1.8259266 2.6431445,1.8232488 2.6379918,1.8198956 2.6281507,1.8120637 2.6281507,1.8120637 2.620417,1.8015298 2.6171278,1.796041 2.6145316,1.7902862 2.6127492,1.784219 2.6116126,1.7779038 2.6104154,1.7648604 2.6104154,1.7648604 2.6116915,1.7516887 2.61287,1.7453096 2.614697,1.7391788 2.6173343,1.733358 2.6206525,1.7277977 2.6284236,1.7171114 2.6284236,1.7171114 2.6404246,1.7077875 2.6467001,1.7037073 2.653304,1.7003221 2.6602674,1.6976977 2.6675074,1.6956583 2.6824482,1.6925548 2.6737169,1.6434416 2.6737169,1.6434416 2.652083,1.6490945 2.6416779,1.6526752 2.6317669,1.6571609 2.6224849,1.6627985 2.6137477,1.669434 2.5971821,1.6843692 2.5971821,1.6843692 2.5853578,1.7024615 2.5803265,1.711815 2.576352,1.7215373 2.5736206,1.7316933 2.5718765,1.7421938 2.5700334,1.763769 2.5700334,1.763769 2.5710693,1.7794259 2.573442,1.7947688 2.5780751,1.8095807 2.5840853,1.8240691 2.5840853,1.8240691 2.5916162,1.8364875 2.6002485,1.8478976 2.6107578,1.8575893 2.6224209,1.8662247 2.6224209,1.8662247 2.6346225,1.8723266 2.6471982,1.8771003 2.6604032,1.8796387 2.6739898,1.8808222 2.6739898,1.8808222 2.6865039,1.8797562 2.6986304,1.8773789 2.7101075,1.8728052 2.7211931,1.8669068 2.7211931,1.8669068 2.731692,1.858304 2.7410405,1.8487443 2.7485604,1.8376635 2.7550266,1.8257062 2.7550266,1.8257062 2.7601503,1.8415881 2.7632737,1.8491786 2.7670708,1.8563484 2.7717148,1.8629896 2.7770766,1.8691828 2.7889966,1.8808222 2.7889966,1.8808222 2.8039516,1.8894916 2.8116372,1.8931619 2.8195724,1.8960356 2.8277961,1.8979883 2.8362467,1.8992169 2.8535259,1.9004675 2.8535259,1.9004675 2.8785391,1.8974591 2.8905661,1.8948381 2.9020173,1.8908771 2.9127665,1.8852817 2.9229425,1.8783519 2.942339,1.8622683 2.942339,1.8622683 2.9581138,1.8406786 2.9648405,1.8294386 2.9701745,1.8176644 2.9738581,1.8052572 2.9762251,1.792345 2.9787647,1.7656789 2.9787647,1.7656789 2.9766166,1.7417329 2.9745936,1.730107 2.9714317,1.7188978 2.9668376,1.7082124 2.9610289,1.6979714 2.9473868,1.6782301 2.9473868,1.6782301 2.9297323,1.6628812 2.920443,1.6561444 2.9105993,1.6505326 2.9000915,1.6462683 2.8890499,1.6430872 2.8660771,1.6385302 2.8595286,1.6876435z" transform="matrix(1,0,0,-1,3.529262,3.65)" fill="rgb(116,116,116)" fill-rule="nonzero" shaper:cutDepth="0.05cm" stroke-linecap="round" stroke-linejoin="round" /><path d="M-1.1108897,1.8072324 L-1.1108897,1.5428395 -1.1108897,1.5428395 -1.1196145,1.5430945 -1.1282314,1.5439903 -1.136668,1.5459575 -1.1449961,1.5485694 -1.1449961,1.5485694 -1.159269,1.5550401 -1.1729939,1.5624203 -1.1858486,1.5712453 -1.1982021,1.5809023 -1.1982021,1.5809023 -1.2143336,1.5960255 -1.2298769,1.6117088 -1.2445612,1.6282099 -1.2587751,1.6451588 -1.2587751,1.6451588 -1.2783581,1.6687594 -1.2987166,1.6915988 -1.3205481,1.712992 -1.3434954,1.7332897 -1.3434954,1.7332897 -1.3570779,1.7422081 -1.3640596,1.7461552 -1.3712698,1.7494879 -1.378777,1.7520215 -1.3865557,1.7538249 -1.4025677,1.7562092 -1.4025677,1.7562092 -1.4164092,1.7545935 -1.4230697,1.7531727 -1.4294181,1.7510163 -1.4353839,1.7479586 -1.441036,1.7441617 -1.4518174,1.7353361 -1.4518174,1.7353361 -1.4606097,1.7231553 -1.4643415,1.7168139 -1.4672763,1.7101714 -1.4692818,1.7031778 -1.470553,1.6959067 -1.471872,1.6809023 -1.471872,1.6809023 -1.4705033,1.6651892 -1.4691667,1.6575843 -1.4670473,1.6502815 -1.4639337,1.6433622 -1.4599625,1.6367739 -1.4505895,1.6241492 -1.4505895,1.6241492 -1.4374362,1.6146026 -1.4305769,1.6105729 -1.4233789,1.6074339 -1.4157968,1.6053053 -1.4079154,1.6039641 -1.3916537,1.602594 -1.3968378,1.5521165 -1.3968378,1.5521165 -1.4210343,1.5561628 -1.4326963,1.5591167 -1.4438348,1.5631875 -1.4543007,1.5686934 -1.4641722,1.5754677 -1.4829224,1.5911342 -1.4829224,1.5911342 -1.4961996,1.6118556 -1.501785,1.6225735 -1.5061091,1.6337194 -1.5090075,1.645349 -1.5107968,1.6573548 -1.5125268,1.6819937 -1.5125268,1.6819937 -1.5106139,1.706984 -1.5086653,1.7191183 -1.5055262,1.7308196 -1.5008613,1.7419658 -1.4948549,1.752624 -1.4806032,1.773126 -1.4806032,1.773126 -1.4633058,1.7873548 -1.454232,1.7934701 -1.444648,1.7983865 -1.4344439,1.8018454 -1.4237351,1.8041182 -1.4014763,1.8066868 -1.4014763,1.8066868 -1.3893338,1.8058835 -1.3773793,1.8041708 -1.3657344,1.8009611 -1.354273,1.7968641 -1.354273,1.7968641 -1.3411489,1.7901007 -1.328554,1.7825337 -1.3167668,1.77374 -1.3054327,1.7642583 -1.3054327,1.7642583 -1.286954,1.7461563 -1.2690231,1.7275393 -1.235037,1.6885421 -1.235037,1.6885421 -1.2104768,1.6596179 -1.184696,1.6317891 -1.184696,1.6317891 -1.1719356,1.6207237 -1.1580929,1.6110524 -1.1580929,1.8072324 -1.1108897,1.8072324z" transform="matrix(1,0,0,-1,3.529262,3.65)" fill="rgb(116,116,116)" fill-rule="nonzero" shaper:cutDepth="0.05cm" stroke-linecap="round" stroke-linejoin="round" /><path d="M-0.5167727,0.2314345 L-0.5167727,0.0579011 -0.5617932,0.0579011 -0.8210019,0.2404386 -0.8210019,0.2805478 -0.5617932,0.2805478 -0.5617932,0.3345723 -0.5167727,0.3345723 -0.5167727,0.2805478 -0.4210019,0.2805478 -0.4210019,0.2314345 -0.5167727,0.2314345z M-0.7421479,0.2314345 L-0.5617932,0.1061958 -0.5617932,0.2314345 -0.7421479,0.2314345z" transform="matrix(1,0,0,-1,3.529262,3.65)" fill="rgb(116,116,116)" fill-rule="nonzero" shaper:cutDepth="0.05cm" stroke-linecap="round" stroke-linejoin="round" /><path d="M0.9998832,-1.3388218 L0.9998832,-1.3388218 1.0164932,-1.3347555 1.0245505,-1.3322283 1.0323106,-1.3291081 1.0396801,-1.3252086 1.0466777,-1.3205674 1.0600469,-1.310036 1.0600469,-1.310036 1.0679424,-1.2988918 1.0713219,-1.2931062 1.0740197,-1.2870645 1.0758993,-1.2807155 1.0771203,-1.2741189 1.0784644,-1.2605134 1.0784644,-1.2605134 1.0766349,-1.2441631 1.0750122,-1.2362795 1.0725398,-1.2287458 1.0690224,-1.2216425 1.0646443,-1.2148937 1.0544535,-1.2019869 1.0544535,-1.2019869 1.0412925,-1.1917922 1.0344178,-1.1874222 1.0271901,-1.1839249 1.0195368,-1.1814797 1.0115396,-1.1798849 0.9949719,-1.1781124 0.9949719,-1.1781124 0.9794353,-1.1796864 0.9719332,-1.181136 0.9647503,-1.1833804 0.957966,-1.1866173 0.9515161,-1.1906868 0.9391738,-1.2002133 0.9391738,-1.2002133 0.9296865,-1.2126795 0.9256369,-1.219188 0.9224202,-1.226027 0.9201938,-1.2332588 0.9187591,-1.2408049 0.9172093,-1.2564207 0.9172093,-1.2564207 0.9188606,-1.273909 0.9226663,-1.2910728 0.8795558,-1.2856158 0.8795558,-1.2856158 0.8801015,-1.2777031 0.8801015,-1.2777031 0.8788821,-1.2627445 0.8777869,-1.2554069 0.8761092,-1.2482393 0.873711,-1.2412819 0.8707158,-1.2344988 0.8637304,-1.2212229 0.8637304,-1.2212229 0.8535131,-1.2102416 0.8479828,-1.2055768 0.8419469,-1.2019028 0.8353194,-1.1993875 0.828224,-1.1977891 0.8132529,-1.1961206 0.8132529,-1.1961206 0.8007323,-1.1974585 0.7946966,-1.1986719 0.7889305,-1.2005387 0.7834991,-1.2032165 0.7783463,-1.2065696 0.7685053,-1.2144016 0.7685053,-1.2144016 0.7607716,-1.2249355 0.7574824,-1.2304242 0.7548861,-1.236179 0.7531038,-1.2422463 0.7519671,-1.2485614 0.75077,-1.2616049 0.75077,-1.2616049 0.7520461,-1.2747766 0.7532245,-1.2811556 0.7550515,-1.2872865 0.7576889,-1.2931073 0.7610071,-1.2986675 0.7687782,-1.3093538 0.7687782,-1.3093538 0.7807792,-1.3186778 0.7870546,-1.322758 0.7936585,-1.3261432 0.800622,-1.3287676 0.8078619,-1.3308069 0.8228027,-1.3339105 0.8140715,-1.3830237 0.8140715,-1.3830237 0.7924376,-1.3773707 0.7820324,-1.3737901 0.7721215,-1.3693043 0.7628394,-1.3636667 0.7541023,-1.3570313 0.7375367,-1.342096 0.7375367,-1.342096 0.7257123,-1.3240038 0.720681,-1.3146503 0.7167065,-1.304928 0.7139752,-1.2947719 0.7122311,-1.2842714 0.710388,-1.2626963 0.710388,-1.2626963 0.7114238,-1.2470394 0.7137965,-1.2316965 0.7184297,-1.2168846 0.7244398,-1.2023961 0.7244398,-1.2023961 0.7319707,-1.1899778 0.740603,-1.1785677 0.7511123,-1.168876 0.7627755,-1.1602406 0.7627755,-1.1602406 0.7749771,-1.1541387 0.7875527,-1.149365 0.8007578,-1.1468266 0.8143443,-1.1456431 0.8143443,-1.1456431 0.8268585,-1.1467091 0.838985,-1.1490863 0.8504621,-1.15366 0.8615476,-1.1595585 0.8615476,-1.1595585 0.8720466,-1.1681613 0.8813951,-1.177721 0.8889149,-1.1888018 0.8953812,-1.200759 0.8953812,-1.200759 0.9005049,-1.1848771 0.9036282,-1.1772867 0.9074254,-1.1701168 0.9120694,-1.1634756 0.9174311,-1.1572825 0.9293512,-1.1456431 0.9293512,-1.1456431 0.9443061,-1.1369736 0.9519918,-1.1333033 0.959927,-1.1304297 0.9681507,-1.128477 0.9766013,-1.1272483 0.9938804,-1.1259978 0.9938804,-1.1259978 1.0188937,-1.1290062 1.0309206,-1.1316271 1.0423719,-1.1355881 1.053121,-1.1411835 1.063297,-1.1481133 1.0826936,-1.164197 1.0826936,-1.164197 1.0984684,-1.1857866 1.1051951,-1.1970267 1.1105291,-1.2088009 1.1142127,-1.221208 1.1165797,-1.2341202 1.1191192,-1.2607863 1.1191192,-1.2607863 1.1169712,-1.2847324 1.1149481,-1.2963582 1.1117862,-1.3075675 1.1071922,-1.3182528 1.1013835,-1.3284938 1.0877413,-1.3482351 1.0877413,-1.3482351 1.0700869,-1.363584 1.0607976,-1.3703209 1.0509538,-1.3759326 1.0404461,-1.380197 1.0294045,-1.3833781 1.0064316,-1.387935 0.9998832,-1.3388218z" transform="matrix(1,0,0,-1,3.529262,3.65)" fill="rgb(116,116,116)" fill-rule="nonzero" shaper:cutDepth="0.05cm" stroke-linecap="round" stroke-linejoin="round" /><path d="M0.7645623,-3.4643813 L0.7645623,-3.4643813 0.7894773,-3.458282 0.8015633,-3.4544911 0.8132034,-3.4498108 0.8242576,-3.4439616 0.834754,-3.4369997 0.8548079,-3.4212026 0.8548079,-3.4212026 0.866651,-3.4044863 0.8717204,-3.395808 0.875767,-3.3867455 0.8785865,-3.3772219 0.8804179,-3.3673271 0.8824341,-3.3469189 0.8824341,-3.3469189 0.8796899,-3.3223933 0.8772558,-3.310568 0.8735472,-3.2992674 0.8682711,-3.2886125 0.8617039,-3.2784892 0.8464177,-3.259129 0.8464177,-3.259129 0.8266763,-3.243837 0.8163643,-3.2372819 0.8055227,-3.232036 0.7940428,-3.2283683 0.7820469,-3.225976 0.7571954,-3.2233172 0.7571954,-3.2233172 0.7338905,-3.2256783 0.7226373,-3.2278526 0.7118629,-3.2312193 0.7016865,-3.2360746 0.6920117,-3.2421788 0.6734982,-3.2564687 0.6734982,-3.2564687 0.6592672,-3.2751679 0.6531929,-3.2849306 0.6483679,-3.2951891 0.6450281,-3.3060369 0.6428761,-3.317356 0.6405514,-3.3407797 0.6405514,-3.3407797 0.6414496,-3.3539472 0.6430284,-3.3670121 0.648737,-3.3927579 0.5840712,-3.3845723 0.5840712,-3.3845723 0.5848897,-3.3727033 0.5848897,-3.3727033 0.5830606,-3.3502655 0.5814178,-3.339259 0.5789012,-3.3285076 0.5753039,-3.3180716 0.5708112,-3.3078969 0.5603331,-3.287983 0.5603331,-3.287983 0.5450071,-3.271511 0.5367117,-3.2645139 0.5276578,-3.2590029 0.5177166,-3.2552299 0.5070734,-3.2528324 0.4846169,-3.2503295 0.4846169,-3.2503295 0.4658359,-3.2523364 0.4567824,-3.2541565 0.4481333,-3.2569566 0.4399861,-3.2609734 0.432257,-3.2660031 0.4174955,-3.2777511 0.4174955,-3.2777511 0.4058949,-3.2935519 0.4009611,-3.301785 0.3970667,-3.3104172 0.3943932,-3.3195181 0.3926882,-3.3289908 0.3908925,-3.348556 0.3908925,-3.348556 0.3928066,-3.3683135 0.3945743,-3.3778821 0.3973148,-3.3870784 0.4012708,-3.3958096 0.4062481,-3.40415 0.4179047,-3.4201794 0.4179047,-3.4201794 0.4359062,-3.4341653 0.4453194,-3.4402856 0.4552253,-3.4453634 0.4656704,-3.4493001 0.4765304,-3.4523591 0.4989416,-3.4570144 0.4858447,-3.5306842 0.4858447,-3.5306842 0.4533939,-3.5222048 0.4377861,-3.5168338 0.4229197,-3.5101052 0.4089967,-3.5016488 0.3958909,-3.4916956 0.3710426,-3.4692927 0.3710426,-3.4692927 0.353306,-3.4421543 0.345759,-3.4281241 0.3397973,-3.4135407 0.3357003,-3.3983066 0.333084,-3.3825558 0.3303195,-3.3501931 0.3303195,-3.3501931 0.3318732,-3.3267077 0.3332768,-3.3151122 0.3354323,-3.3036934 0.3385198,-3.2924935 0.342382,-3.2814755 0.3513972,-3.2597429 0.3513972,-3.2597429 0.3626936,-3.2411153 0.368858,-3.2322742 0.3756421,-3.2240002 0.3831995,-3.2164344 0.391406,-3.2094627 0.4089007,-3.1965096 0.4089007,-3.1965096 0.4272032,-3.1873567 0.4365297,-3.1834029 0.4460666,-3.1801961 0.4558631,-3.1779113 0.4658742,-3.1763885 0.486254,-3.1746133 0.486254,-3.1746133 0.5050252,-3.1762123 0.514229,-3.1776264 0.5232149,-3.1797781 0.5319329,-3.1828358 0.5404306,-3.1866387 0.5570589,-3.1954864 0.5570589,-3.1954864 0.5728073,-3.2083905 0.5801422,-3.2152913 0.5868301,-3.2227301 0.5927663,-3.2307943 0.5981099,-3.2393514 0.6078092,-3.2572872 0.6078092,-3.2572872 0.6154949,-3.2334644 0.6201799,-3.2220787 0.6258756,-3.2113239 0.6328416,-3.2013621 0.6408842,-3.1920724 0.6587643,-3.1746133 0.6587643,-3.1746133 0.6811967,-3.1616091 0.6927252,-3.1561036 0.704628,-3.1517932 0.7169636,-3.1488641 0.7296395,-3.1470211 0.7555583,-3.1451453 0.7555583,-3.1451453 0.7744621,-3.1470666 0.7930781,-3.1496579 0.8111185,-3.1535893 0.8198328,-3.156267 0.8282954,-3.1595309 0.8364826,-3.1634355 0.8444191,-3.167924 0.859683,-3.1783187 0.8743738,-3.1900478 0.8887779,-3.2024441 0.8887779,-3.2024441 0.9009572,-3.2185028 0.9124401,-3.2348286 0.9225301,-3.2516886 0.9268351,-3.2604025 0.9305311,-3.2693499 0.9335819,-3.2785449 0.9360566,-3.2879607 0.9396071,-3.307329 0.9418409,-3.3272023 0.9434164,-3.3473281 0.9434164,-3.3473281 0.94209,-3.3653918 0.9401943,-3.3832472 0.9371597,-3.400686 0.9324168,-3.4174999 0.9255257,-3.4335279 0.9168127,-3.4488894 0.9068848,-3.4638065 0.8963495,-3.4785014 0.8963495,-3.4785014 0.8832473,-3.4902944 0.8698678,-3.5015248 0.8559339,-3.51163 0.8411683,-3.5200477 0.8254067,-3.5264442 0.8088443,-3.5312158 0.7917481,-3.5349043 0.774385,-3.5380512 0.7645623,-3.4643813z" transform="matrix(1,0,0,-1,3.529262,3.65)" fill="rgb(116,116,116)" fill-rule="nonzero" shaper:cutDepth="0.05cm" stroke-linecap="round" stroke-linejoin="round" /><path d="M0.4655855,-3.0503977 L0.4655855,-3.0503977 0.437382,-3.0389463 0.4238033,-3.03243 0.4108521,-3.0249648 0.3987024,-3.0162879 0.3872519,-3.006554 0.3655173,-2.9853227 0.3655173,-2.9853227 0.3500446,-2.9603761 0.3434843,-2.9475117 0.3383343,-2.9341784 0.3348231,-2.9203 0.3326041,-2.905992 0.3303195,-2.8766597 0.3303195,-2.8766597 0.3315998,-2.8546389 0.3328329,-2.8437678 0.3347775,-2.8330637 0.3376225,-2.8225711 0.3412394,-2.8122598 0.3497601,-2.7919393 0.3497601,-2.7919393 0.3610933,-2.7744058 0.3672224,-2.7660685 0.3739065,-2.7582466 0.3812587,-2.7510449 0.38915,-2.7443437 0.4058311,-2.7317756 0.4058311,-2.7317756 0.4270746,-2.719952 0.4489222,-2.7095575 0.4717174,-2.7014047 0.4950535,-2.6945315 0.4950535,-2.6945315 0.5301957,-2.6881238 0.5478254,-2.6854908 0.5655247,-2.6835349 0.601123,-2.6815668 0.6368679,-2.6810253 0.6368679,-2.6810253 0.6800894,-2.6819943 0.7016041,-2.6831851 0.7230036,-2.6852235 0.744252,-2.6883729 0.7653583,-2.6925683 0.8073318,-2.702717 0.8073318,-2.702717 0.8355776,-2.7141044 0.8491786,-2.7205914 0.8621535,-2.7280301 0.8743291,-2.7366839 0.8858082,-2.7463963 0.9076046,-2.7675873 0.9076046,-2.7675873 0.9231833,-2.7926118 0.9297859,-2.8055198 0.9349655,-2.8189023 0.9384938,-2.8328355 0.940721,-2.8472025 0.9430071,-2.8766597 0.9430071,-2.8766597 0.9411867,-2.8964585 0.9386187,-2.9159106 0.9345556,-2.9346691 0.9317298,-2.94368 0.9282498,-2.9523874 0.9240385,-2.9607555 0.9191392,-2.9688046 0.9076693,-2.9841274 0.8946264,-2.9987205 0.880797,-3.0129488 0.880797,-3.0129488 0.8523514,-3.0279602 0.8236123,-3.0418823 0.8090411,-3.0480945 0.7942864,-3.053626 0.7793118,-3.0583409 0.7640988,-3.0621707 0.748669,-3.065196 0.7330496,-3.0675173 0.7013503,-3.0704504 0.6692174,-3.0717745 0.6368679,-3.072294 0.6368679,-3.072294 0.5934309,-3.0713277 0.5718101,-3.0701304 0.5503064,-3.0680762 0.5289564,-3.064898 0.5077515,-3.0606591 0.4655855,-3.0503977z M0.8335255,-2.9619939 L0.8335255,-2.9619939 0.8532484,-2.9448317 0.8618752,-2.9355634 0.8690204,-2.9254707 0.8742798,-2.9143286 0.877906,-2.9022777 0.8804425,-2.8896203 0.8824341,-2.8766597 0.8824341,-2.8766597 0.8804278,-2.8636846 0.8778749,-2.8510148 0.8742286,-2.8389557 0.8689438,-2.8278117 0.8617693,-2.8177232 0.8531109,-2.8084635 0.8333209,-2.7913254 0.8333209,-2.7913254 0.809837,-2.7818278 0.7861883,-2.7731253 0.7622099,-2.7660133 0.737769,-2.7611317 0.7129099,-2.7582682 0.6877369,-2.7569184 0.6368679,-2.7567415 0.6368679,-2.7567415 0.5858891,-2.7568853 0.560662,-2.7582219 0.5357496,-2.7610762 0.5112569,-2.7659539 0.4872294,-2.7730751 0.4635344,-2.7817995 0.4400057,-2.7913254 0.4400057,-2.7913254 0.420265,-2.8086981 0.4116454,-2.8180731 0.4045266,-2.8282746 0.3993107,-2.8395239 0.3957314,-2.8516744 0.3932436,-2.8644261 0.3913017,-2.8774782 0.3913017,-2.8774782 0.3947927,-2.9015582 0.3977839,-2.9129419 0.4022701,-2.9235381 0.4085637,-2.9331821 0.4163211,-2.9420548 0.4342758,-2.958515 0.4342758,-2.958515 0.4584243,-2.968697 0.4827495,-2.9780639 0.5074279,-2.9858007 0.5199534,-2.9888095 0.5326108,-2.9912097 0.5582636,-2.9944504 0.5842691,-2.9960637 0.6368679,-2.9965778 0.6368679,-2.9965778 0.6877918,-2.9964175 0.7129918,-2.9950742 0.7378776,-2.9922153 0.7623444,-2.9873357 0.7863473,-2.980219 0.8100192,-2.9715057 0.8335255,-2.9619939z" transform="matrix(1,0,0,-1,3.529262,3.65)" fill="rgb(116,116,116)" fill-rule="nonzero" shaper:cutDepth="0.05cm" stroke-linecap="round" stroke-linejoin="round" /><path d="M0.5120251,-1.5963252 a0.15,0.15 0 1,1 0.3,0 a0.15,0.15 0 1,1 -0.3,0z" transform="matrix(1,0,0,-1,3.529262,3.65)" fill="rgb(255,255,255)" stroke="rgb(0,0,0)" stroke-width="0.0010cm" stroke-linecap="round" stroke-linejoin="round" shaper:cutDepth="0.3cm" /><path d="M-1.0210019,-0.1349365 a0.15,0.15 0 1,1 0.3,0 a0.15,0.15 0 1,1 -0.3,0z" transform="matrix(1,0,0,-1,3.529262,3.65)" fill="rgb(255,255,255)" stroke="rgb(0,0,0)" stroke-width="0.0010cm" stroke-linecap="round" stroke-linejoin="round" shaper:cutDepth="0.3cm" /><path d="M-1.8948945,1.6682232 a0.15,0.15 0 1,1 0.3,0 a0.15,0.15 0 1,1 -0.3,0z" transform="matrix(1,0,0,-1,3.529262,3.65)" fill="rgb(255,255,255)" stroke="rgb(0,0,0)" stroke-width="0.0010cm" stroke-linecap="round" stroke-linejoin="round" shaper:cutDepth="0.3cm" /><path d="M2.3716705,1.4301401 a0.15,0.15 0 1,1 0.3,0 a0.15,0.15 0 1,1 -0.3,0z" transform="matrix(1,0,0,-1,3.529262,3.65)" fill="rgb(255,255,255)" stroke="rgb(0,0,0)" stroke-width="0.0010cm" stroke-linecap="round" stroke-linejoin="round" shaper:cutDepth="0.3cm" /><path d="M2.2803206,-2.7055486 a0.15,0.15 0 1,1 0.3,0 a0.15,0.15 0 1,1 -0.3,0z" transform="matrix(1,0,0,-1,3.529262,3.65)" fill="rgb(255,255,255)" stroke="rgb(0,0,0)" stroke-width="0.0010cm" stroke-linecap="round" stroke-linejoin="round" shaper:cutDepth="0.3cm" /><path d="M-2.5342727,1.25 L-2.5342727,-1.25 -2.2342727,-1.25 -2.2342727,1.25 -2.5342727,1.25z" transform="matrix(1,0,0,-1,3.529262,3.65)" fill="rgb(255,255,255)" stroke="rgb(0,0,0)" stroke-width="0.0010cm" stroke-linecap="round" stroke-linejoin="round" shaper:cutDepth="0.3cm" /><path d="M2.979262,-3.25 a0.15,0.15 0 1,1 0.3,0 a0.15,0.15 0 1,1 -0.3,0z" transform="matrix(1,0,0,-1,3.529262,3.65)" fill="rgb(255,255,255)" stroke="rgb(0,0,0)" stroke-width="0.0010cm" stroke-linecap="round" stroke-linejoin="round" shaper:cutDepth="0.3cm" /><path d="M-1.520738,3.25 a0.15,0.15 0 1,1 0.3,0 a0.15,0.15 0 1,1 -0.3,0z" transform="matrix(1,0,0,-1,3.529262,3.65)" fill="rgb(255,255,255)" stroke="rgb(0,0,0)" stroke-width="0.0010cm" stroke-linecap="round" stroke-linejoin="round" shaper:cutDepth="0.3cm" /><path d="M2.979262,3.25 a0.15,0.15 0 1,1 0.3,0 a0.15,0.15 0 1,1 -0.3,0z" transform="matrix(1,0,0,-1,3.529262,3.65)" fill="rgb(255,255,255)" stroke="rgb(0,0,0)" stroke-width="0.0010cm" stroke-linecap="round" stroke-linejoin="round" shaper:cutDepth="0.3cm" /><path d="M-1.520738,-3.25 a0.15,0.15 0 1,1 0.3,0 a0.15,0.15 0 1,1 -0.3,0z" transform="matrix(1,0,0,-1,3.529262,3.65)" fill="rgb(255,255,255)" stroke="rgb(0,0,0)" stroke-width="0.0010cm" stroke-linecap="round" stroke-linejoin="round" shaper:cutDepth="0.3cm" /><path d="M-2.1707381,2 L-0.870738,2 -0.870738,2.7500001 -2.1707381,2.7500001 A0.3,0.3 90 0,1 -2.4707381,2.4500001 L-2.4707381,2.3 A0.3,0.3 180 0,1 -2.1707381,2z" transform="matrix(1,0,0,-1,3.529262,3.65)" fill="rgb(255,255,255)" stroke="rgb(0,0,0)" stroke-width="0.0010cm" stroke-linecap="round" stroke-linejoin="round" shaper:cutDepth="0.3cm" /></svg>