<?xml version="1.0" encoding="utf-8"?>
<!-- Generator: Fusion 360, Shaper Origin Export Add-In, Version 1.7.0  -->
<svg xmlns="http://www.w3.org/2000/svg" xmlns:xlink="http://www.w3.org/1999/xlink" xmlns:shaper="http://www.shapertools.com/namespaces/shaper" shaper:fusionaddin="version:1.7.0" width="7.058524cm" height="7.3cm" version="1.1" x="0cm" y="0cm" viewBox="0 0 7.058524 7.3" enable-background="new 0 0 7.058524 7.3" xml:space="preserve"><path d="M-3.529262,-2.0046781 L-1.8572407,-3.5690658 A0.3,0.3 226.9047902 0,1 -1.6522768,-3.65 L3.229262,-3.65 A0.3,0.3 270 0,1 3.529262,-3.35 L3.529262,-2.7885309 3.229262,-2.7885309 3.229262,-0.7885309 3.529262,-0.7885309 3.529262,3.35 A0.3,0.3 0 0,1 3.229262,3.65 L-1.6522768,3.65 A0.3,0.3 90 0,1 -1.8572407,3.5690658 L-3.529262,2.0046781 -3.529262,1.65 -3.2342727,1.65 -3.2342727,-1.65 -3.529262,-1.65 -3.529262,-2.0046781z" transform="matrix(1,0,0,-1,3.529262,3.65)" fill="rgb(0,0,0)" shaper:cutDepth="0.3cm" stroke-linecap="round" stroke-linejoin="round" /><path d="M1.7681588,-2.4058857 L1.7681588,-2.4058857 1.7847688,-2.4018194 1.7928261,-2.3992922 1.8005862,-2.396172 1.8079557,-2.3922725 1.8149533,-2.3876312 1.8283225,-2.3770998 1.8283225,-2.3770998 1.836218,-2.3659557 1.8395976,-2.3601701 1.8422953,-2.3541284 1.844175,-2.3477793 1.8453959,-2.3411828 1.84674,-2.3275773 1.84674,-2.3275773 1.8449105,-2.311227 1.8432878,-2.3033434 1.8408154,-2.2958097 1.837298,-2.2887064 1.8329199,-2.2819576 1.8227291,-2.2690508 1.8227291,-2.2690508 1.8095681,-2.2588561 1.8026934,-2.2544861 1.7954657,-2.2509888 1.7878124,-2.2485436 1.7798152,-2.2469488 1.7632475,-2.2451763 1.7632475,-2.2451763 1.7477109,-2.2467503 1.7402088,-2.2481998 1.7330259,-2.2504443 1.7262416,-2.2536812 1.7197918,-2.2577506 1.7074494,-2.2672772 1.7074494,-2.2672772 1.6979621,-2.2797434 1.6939125,-2.2862519 1.6906959,-2.2930908 1.6884694,-2.3003227 1.6870347,-2.3078688 1.6854849,-2.3234846 1.6854849,-2.3234846 1.6871362,-2.3409729 1.6909419,-2.3581367 1.6478314,-2.3526797 1.6478314,-2.3526797 1.6483771,-2.344767 1.6483771,-2.344767 1.6471577,-2.3298084 1.6460625,-2.3224708 1.6443848,-2.3153032 1.6419866,-2.3083458 1.6389914,-2.3015627 1.632006,-2.2882868 1.632006,-2.2882868 1.6217887,-2.2773055 1.6162585,-2.2726407 1.6102225,-2.2689667 1.6035951,-2.2664514 1.5964996,-2.264853 1.5815285,-2.2631845 1.5815285,-2.2631845 1.5690079,-2.2645224 1.5629722,-2.2657358 1.5572061,-2.2676026 1.5517747,-2.2702804 1.5466219,-2.2736335 1.5367809,-2.2814655 1.5367809,-2.2814655 1.5290472,-2.2919994 1.525758,-2.2974881 1.5231617,-2.3032429 1.5213794,-2.3093102 1.5202428,-2.3156253 1.5190456,-2.3286688 1.5190456,-2.3286688 1.5203217,-2.3418405 1.5215001,-2.3482195 1.5233271,-2.3543504 1.5259645,-2.3601712 1.5292827,-2.3657314 1.5370538,-2.3764177 1.5370538,-2.3764177 1.5490548,-2.3857417 1.5553302,-2.3898219 1.5619341,-2.3932071 1.5688976,-2.3958315 1.5761375,-2.3978708 1.5910783,-2.4009743 1.5823471,-2.4500876 1.5823471,-2.4500876 1.5607132,-2.4444346 1.550308,-2.440854 1.5403971,-2.4363682 1.5311151,-2.4307306 1.5223779,-2.4240952 1.5058123,-2.4091599 1.5058123,-2.4091599 1.4939879,-2.3910677 1.4889566,-2.3817141 1.4849821,-2.3719919 1.4822508,-2.3618358 1.4805067,-2.3513353 1.4786636,-2.3297602 1.4786636,-2.3297602 1.4796994,-2.3141032 1.4820721,-2.2987604 1.4867053,-2.2839485 1.4927154,-2.26946 1.4927154,-2.26946 1.5002463,-2.2570416 1.5088786,-2.2456316 1.5193879,-2.2359399 1.5310511,-2.2273045 1.5310511,-2.2273045 1.5432527,-2.2212026 1.5558283,-2.2164289 1.5690334,-2.2138905 1.58262,-2.212707 1.58262,-2.212707 1.5951341,-2.213773 1.6072606,-2.2161502 1.6187377,-2.2207239 1.6298232,-2.2266224 1.6298232,-2.2266224 1.6403222,-2.2352252 1.6496707,-2.2447849 1.6571905,-2.2558657 1.6636568,-2.2678229 1.6636568,-2.2678229 1.6687805,-2.251941 1.6719039,-2.2443506 1.675701,-2.2371807 1.680345,-2.2305395 1.6857068,-2.2243464 1.6976268,-2.212707 1.6976268,-2.212707 1.7125817,-2.2040375 1.7202674,-2.2003672 1.7282026,-2.1974936 1.7364263,-2.1955409 1.7448769,-2.1943122 1.7621561,-2.1930617 1.7621561,-2.1930617 1.7871693,-2.1960701 1.7991962,-2.198691 1.8106475,-2.202652 1.8213967,-2.2082474 1.8315726,-2.2151772 1.8509692,-2.2312608 1.8509692,-2.2312608 1.866744,-2.2528505 1.8734707,-2.2640906 1.8788047,-2.2758648 1.8824883,-2.2882719 1.8848553,-2.3011841 1.8873948,-2.3278502 1.8873948,-2.3278502 1.8852468,-2.3517963 1.8832237,-2.3634221 1.8800618,-2.3746314 1.8754678,-2.3853167 1.8696591,-2.3955577 1.8560169,-2.415299 1.8560169,-2.415299 1.8383625,-2.4306479 1.8290732,-2.4373848 1.8192295,-2.4429965 1.8087217,-2.4472609 1.7976801,-2.450442 1.7747073,-2.4549989 1.7681588,-2.4058857z" transform="matrix(1,0,0,-1,3.529262,3.65)" fill="rgb(116,116,116)" fill-rule="nonzero" shaper:cutDepth="0.05cm" stroke-linecap="round" stroke-linejoin="round" /><path d="M0.4853995,-0.3207878 L0.4853995,-0.5851807 0.4853995,-0.5851807 0.4766747,-0.5849257 0.4680578,-0.5840299 0.4596212,-0.5820628 0.4512931,-0.5794508 0.4512931,-0.5794508 0.4370202,-0.5729802 0.4232953,-0.5655999 0.4104406,-0.5567749 0.3980871,-0.5471179 0.3980871,-0.5471179 0.3819556,-0.5319947 0.3664124,-0.5163114 0.3517281,-0.4998104 0.3375142,-0.4828615 0.3375142,-0.4828615 0.3179311,-0.4592608 0.2975726,-0.4364214 0.2757411,-0.4150282 0.2527938,-0.3947305 0.2527938,-0.3947305 0.2392113,-0.3858121 0.2322296,-0.381865 0.2250195,-0.3785324 0.2175122,-0.3759988 0.2097335,-0.3741954 0.1937215,-0.371811 0.1937215,-0.371811 0.17988,-0.3734267 0.1732195,-0.3748475 0.1668711,-0.377004 0.1609053,-0.3800616 0.1552532,-0.3838585 0.1444719,-0.3926841 0.1444719,-0.3926841 0.1356795,-0.4048649 0.1319478,-0.4112063 0.1290129,-0.4178488 0.1270075,-0.4248425 0.1257362,-0.4321135 0.1244173,-0.4471179 0.1244173,-0.4471179 0.1257859,-0.462831 0.1271226,-0.4704359 0.129242,-0.4777387 0.1323555,-0.484658 0.1363268,-0.4912463 0.1456997,-0.503871 0.1456997,-0.503871 0.158853,-0.5134176 0.1657123,-0.5174474 0.1729103,-0.5205863 0.1804924,-0.5227149 0.1883738,-0.5240561 0.2046356,-0.5254263 0.1994514,-0.5759038 0.1994514,-0.5759038 0.1752549,-0.5718575 0.1635929,-0.5689035 0.1524544,-0.5648327 0.1419885,-0.5593269 0.1321171,-0.5525526 0.1133668,-0.536886 0.1133668,-0.536886 0.1000896,-0.5161647 0.0945042,-0.5054467 0.0901802,-0.4943008 0.0872817,-0.4826712 0.0854924,-0.4706654 0.0837624,-0.4460265 0.0837624,-0.4460265 0.0856754,-0.4210362 0.0876239,-0.4089019 0.090763,-0.3972007 0.0954279,-0.3860545 0.1014343,-0.3753962 0.115686,-0.3548942 0.115686,-0.3548942 0.1329834,-0.3406654 0.1420573,-0.3345501 0.1516412,-0.3296337 0.1618453,-0.3261748 0.1725541,-0.323902 0.1948129,-0.3213335 0.1948129,-0.3213335 0.2069555,-0.3221367 0.2189099,-0.3238494 0.2305548,-0.3270591 0.2420162,-0.3311561 0.2420162,-0.3311561 0.2551404,-0.3379195 0.2677353,-0.3454866 0.2795225,-0.3542802 0.2908566,-0.3637619 0.2908566,-0.3637619 0.3093352,-0.3818639 0.3272661,-0.4004809 0.3612522,-0.4394781 0.3612522,-0.4394781 0.3858124,-0.4684024 0.4115933,-0.4962312 0.4115933,-0.4962312 0.4243537,-0.5072966 0.4381963,-0.5169679 0.4381963,-0.3207878 0.4853995,-0.3207878z" transform="matrix(1,0,0,-1,3.529262,3.65)" fill="rgb(116,116,116)" fill-rule="nonzero" shaper:cutDepth="0.05cm" stroke-linecap="round" stroke-linejoin="round" /><path d="M2.2945639,0.4246072 L2.2945639,0.4246072 2.3103221,0.4279661 2.3179425,0.4301766 2.3252523,0.4330243 2.3321598,0.4366978 2.338703,0.4411186 2.3511806,0.4512102 2.3511806,0.4512102 2.3592715,0.4625245 2.3627408,0.4684002 2.3655187,0.4745382 2.3674622,0.4809928 2.3687309,0.4877034 2.3701437,0.5015512 2.3701437,0.5015512 2.3680023,0.518574 2.3661533,0.5267401 2.3633706,0.5344919 2.3594542,0.5417406 2.3546162,0.5485804 2.3434043,0.5615785 2.3434043,0.5615785 2.3273735,0.5724796 2.3190553,0.577084 2.310374,0.5806743 2.3012765,0.5831018 2.2918531,0.5846188 2.2724629,0.5861351 2.2724629,0.5861351 2.2542298,0.5847188 2.2453842,0.5832774 2.2368639,0.5809561 2.2287604,0.5775071 2.2210232,0.5730672 2.2061601,0.5625335 2.2061601,0.5625335 2.1955862,0.5488899 2.1910866,0.5417522 2.1875314,0.5342356 2.1850878,0.5262731 2.1835269,0.5179564 2.1818763,0.5007327 2.1818763,0.5007327 2.1826514,0.4895348 2.184458,0.4785995 2.1880184,0.4681104 2.1926539,0.457895 2.1926539,0.457895 2.1983635,0.4491909 2.2047628,0.4411327 2.2123335,0.4341713 2.2206212,0.4278814 2.2146185,0.3817695 2.0091614,0.4205144 2.0091614,0.619423 2.0560918,0.619423 2.0560918,0.459805 2.1635953,0.4382497 2.1635953,0.4382497 2.1532737,0.4558205 2.1487891,0.4648271 2.1451158,0.4740994 2.1424593,0.4837044 2.1406606,0.4935901 2.1384929,0.5138295 2.1384929,0.5138295 2.1412542,0.5385316 2.1437053,0.5504415 2.1474409,0.5618219 2.152757,0.572551 2.1593752,0.5827433 2.1747822,0.6022334 2.1747822,0.6022334 2.1955042,0.6178669 2.2063199,0.6245275 2.2176809,0.6298011 2.2296863,0.6334357 2.2422049,0.6357654 2.2680973,0.6382497 2.2680973,0.6382497 2.2934776,0.6359549 2.3058457,0.6338627 2.3178273,0.6306368 2.3293282,0.6260007 2.3404278,0.6201875 2.3619581,0.606599 2.3619581,0.606599 2.3727071,0.5956596 2.3828502,0.5844364 2.3917814,0.5726454 2.3988949,0.5600029 2.4038364,0.5463428 2.4070346,0.531866 2.4090707,0.5168447 2.4105257,0.5015512 2.4105257,0.5015512 2.4085644,0.4772762 2.4066467,0.4654692 2.4036046,0.454059 2.399134,0.4431529 2.3934303,0.4326818 2.3799663,0.4124653 2.3799663,0.4124653 2.3624137,0.3971183 2.3531668,0.3903993 2.3433554,0.3848255 2.3328736,0.3806114 2.3218564,0.3774836 2.2989295,0.3730383 2.2945639,0.4246072z" transform="matrix(1,0,0,-1,3.529262,3.65)" fill="rgb(116,116,116)" fill-rule="nonzero" shaper:cutDepth="0.05cm" stroke-linecap="round" stroke-linejoin="round" /><path d="M0.0214066,1.6357278 L0.0214066,1.6357278 0.0380167,1.639794 0.046074,1.6423213 0.053834,1.6454415 0.0612035,1.649341 0.0682011,1.6539822 0.0815703,1.6645136 0.0815703,1.6645136 0.0894658,1.6756578 0.0928454,1.6814434 0.0955431,1.6874851 0.0974228,1.6938341 0.0986437,1.7004307 0.0999878,1.7140361 0.0999878,1.7140361 0.0981584,1.7303865 0.0965356,1.7382701 0.0940632,1.7458038 0.0905458,1.7529071 0.0861677,1.7596559 0.0759769,1.7725627 0.0759769,1.7725627 0.0628159,1.7827574 0.0559413,1.7871274 0.0487136,1.7906247 0.0410603,1.7930698 0.033063,1.7946647 0.0164953,1.7964372 0.0164953,1.7964372 0.0009588,1.7948631 -0.0065434,1.7934136 -0.0137263,1.7911691 -0.0205106,1.7879323 -0.0269604,1.7838628 -0.0393028,1.7743363 -0.0393028,1.7743363 -0.0487901,1.7618701 -0.0528396,1.7553616 -0.0560563,1.7485226 -0.0582828,1.7412907 -0.0597175,1.7337447 -0.0612673,1.7181289 -0.0612673,1.7181289 -0.059616,1.7006406 -0.0558103,1.6834768 -0.0989208,1.6889338 -0.0989208,1.6889338 -0.0983751,1.6968465 -0.0983751,1.6968465 -0.0995945,1.7118051 -0.1006896,1.7191427 -0.1023674,1.7263103 -0.1047656,1.7332676 -0.1077608,1.7400508 -0.1147461,1.7533267 -0.1147461,1.7533267 -0.1249635,1.764308 -0.1304937,1.7689727 -0.1365297,1.7726468 -0.1431571,1.7751621 -0.1502526,1.7767604 -0.1652236,1.778429 -0.1652236,1.778429 -0.1777443,1.7770911 -0.18378,1.7758777 -0.1895461,1.7740109 -0.1949775,1.7713331 -0.2001302,1.7679799 -0.2099713,1.760148 -0.2099713,1.760148 -0.217705,1.7496141 -0.2209942,1.7441253 -0.2235904,1.7383706 -0.2253728,1.7323033 -0.2265094,1.7259882 -0.2277066,1.7129447 -0.2277066,1.7129447 -0.2264305,1.699773 -0.225252,1.693394 -0.223425,1.6872631 -0.2207877,1.6814423 -0.2174695,1.675882 -0.2096984,1.6651957 -0.2096984,1.6651957 -0.1976974,1.6558718 -0.1914219,1.6517916 -0.184818,1.6484064 -0.1778546,1.645782 -0.1706146,1.6437426 -0.1556738,1.6406391 -0.1644051,1.5915259 -0.1644051,1.5915259 -0.186039,1.5971788 -0.1964441,1.6007595 -0.2063551,1.6052452 -0.2156371,1.6108828 -0.2243743,1.6175183 -0.2409399,1.6324536 -0.2409399,1.6324536 -0.2527642,1.6505458 -0.2577955,1.6598993 -0.26177,1.6696216 -0.2645014,1.6797776 -0.2662455,1.6902782 -0.2680886,1.7118533 -0.2680886,1.7118533 -0.2670527,1.7275102 -0.26468,1.7428531 -0.2600469,1.757665 -0.2540367,1.7721534 -0.2540367,1.7721534 -0.2465058,1.7845718 -0.2378735,1.7959819 -0.2273642,1.8056736 -0.2157011,1.814309 -0.2157011,1.814309 -0.2034995,1.8204109 -0.1909238,1.8251846 -0.1777188,1.827723 -0.1641322,1.8289065 -0.1641322,1.8289065 -0.1516181,1.8278405 -0.1394916,1.8254633 -0.1280145,1.8208895 -0.1169289,1.8149911 -0.1169289,1.8149911 -0.10643,1.8063883 -0.0970815,1.7968286 -0.0895616,1.7857478 -0.0830954,1.7737906 -0.0830954,1.7737906 -0.0779717,1.7896725 -0.0748483,1.7972629 -0.0710512,1.8044328 -0.0664072,1.811074 -0.0610454,1.8172671 -0.0491254,1.8289065 -0.0491254,1.8289065 -0.0341704,1.837576 -0.0264848,1.8412463 -0.0185496,1.8441199 -0.0103259,1.8460726 -0.0018753,1.8473012 0.0154039,1.8485518 0.0154039,1.8485518 0.0404171,1.8455434 0.052444,1.8429225 0.0638953,1.8389614 0.0746445,1.833366 0.0848204,1.8264362 0.104217,1.8103526 0.104217,1.8103526 0.1199918,1.788763 0.1267185,1.7775229 0.1320525,1.7657487 0.1357361,1.7533415 0.1381031,1.7404293 0.1406427,1.7137633 0.1406427,1.7137633 0.1384946,1.6898172 0.1364716,1.6781913 0.1333096,1.6669821 0.1287156,1.6562967 0.1229069,1.6460557 0.1092647,1.6263144 0.1092647,1.6263144 0.0916103,1.6109656 0.082321,1.6042287 0.0724773,1.5986169 0.0619695,1.5943526 0.0509279,1.5911715 0.0279551,1.5866146 0.0214066,1.6357278z" transform="matrix(1,0,0,-1,3.529262,3.65)" fill="rgb(116,116,116)" fill-rule="nonzero" shaper:cutDepth="0.05cm" stroke-linecap="round" stroke-linejoin="round" /><path d="M-1.6257911,-1.5496578 L-1.6257911,-1.5496578 -1.6100329,-1.5462988 -1.6024125,-1.5440883 -1.5951026,-1.5412406 -1.5881952,-1.5375671 -1.5816519,-1.5331463 -1.5691744,-1.5230547 -1.5691744,-1.5230547 -1.5610834,-1.5117405 -1.5576141,-1.5058647 -1.5548362,-1.4997267 -1.5528927,-1.4932721 -1.551624,-1.4865615 -1.5502112,-1.4727137 -1.5502112,-1.4727137 -1.5523527,-1.4556909 -1.5542016,-1.4475248 -1.5569844,-1.439773 -1.5609008,-1.4325243 -1.5657388,-1.4256845 -1.5769507,-1.4126864 -1.5769507,-1.4126864 -1.5929814,-1.4017854 -1.6012997,-1.3971809 -1.609981,-1.3935906 -1.6190785,-1.3911631 -1.6285019,-1.3896461 -1.647892,-1.3881298 -1.647892,-1.3881298 -1.6661252,-1.3895461 -1.6749707,-1.3909875 -1.683491,-1.3933089 -1.6915945,-1.3967578 -1.6993318,-1.4011977 -1.7141949,-1.4117314 -1.7141949,-1.4117314 -1.7247688,-1.425375 -1.7292684,-1.4325127 -1.7328235,-1.4400293 -1.7352672,-1.4479918 -1.7368281,-1.4563085 -1.7384787,-1.4735322 -1.7384787,-1.4735322 -1.7377035,-1.4847301 -1.7358969,-1.4956655 -1.7323366,-1.5061545 -1.727701,-1.5163699 -1.727701,-1.5163699 -1.7219915,-1.525074 -1.7155922,-1.5331322 -1.7080215,-1.5400936 -1.6997338,-1.5463835 -1.7057365,-1.5924954 -1.9111935,-1.5537505 -1.9111935,-1.3548419 -1.8642631,-1.3548419 -1.8642631,-1.5144599 -1.7567597,-1.5360152 -1.7567597,-1.5360152 -1.7670813,-1.5184444 -1.7715659,-1.5094378 -1.7752391,-1.5001655 -1.7778956,-1.4905605 -1.7796944,-1.4806748 -1.781862,-1.4604354 -1.781862,-1.4604354 -1.7791007,-1.4357333 -1.7766497,-1.4238234 -1.7729141,-1.412443 -1.767598,-1.401714 -1.7609797,-1.3915216 -1.7455728,-1.3720316 -1.7455728,-1.3720316 -1.7248507,-1.356398 -1.7140351,-1.3497374 -1.7026741,-1.3444638 -1.6906686,-1.3408292 -1.67815,-1.3384995 -1.6522576,-1.3360152 -1.6522576,-1.3360152 -1.6268774,-1.3383101 -1.6145093,-1.3404022 -1.6025277,-1.3436281 -1.5910268,-1.3482642 -1.5799272,-1.3540774 -1.5583968,-1.3676659 -1.5583968,-1.3676659 -1.5476478,-1.3786053 -1.5375048,-1.3898285 -1.5285736,-1.4016195 -1.52146,-1.414262 -1.5165186,-1.4279221 -1.5133203,-1.4423989 -1.5112843,-1.4574202 -1.5098293,-1.4727137 -1.5098293,-1.4727137 -1.5117906,-1.4969888 -1.5137083,-1.5087957 -1.5167504,-1.5202059 -1.521221,-1.531112 -1.5269247,-1.5415831 -1.5403886,-1.5617996 -1.5403886,-1.5617996 -1.5579413,-1.5771466 -1.5671882,-1.5838656 -1.5769996,-1.5894394 -1.5874813,-1.5936535 -1.5984985,-1.5967813 -1.6214254,-1.6012266 -1.6257911,-1.5496578z" transform="matrix(1,0,0,-1,3.529262,3.65)" fill="rgb(116,116,116)" fill-rule="nonzero" shaper:cutDepth="0.05cm" stroke-linecap="round" stroke-linejoin="round" /><path d="M0.4804117,-3.1343012 L0.4804117,-3.1343012 0.4634495,-3.1386478 0.4470906,-3.1443018 0.4393229,-3.1480209 0.4318459,-3.1523697 0.4173831,-3.162132 0.4173831,-3.162132 0.4040587,-3.1782165 0.3983263,-3.1866572 0.3937098,-3.1955758 0.3904539,-3.2050773 0.3883085,-3.2150545 0.3858688,-3.2358018 0.3858688,-3.2358018 0.3873051,-3.2523673 0.3886085,-3.2604622 0.3906142,-3.2683317 0.3934919,-3.2759214 0.3970958,-3.283278 0.405514,-3.2976027 0.405514,-3.2976027 0.4213314,-3.3149076 0.4297197,-3.3229221 0.4386831,-3.3301719 0.4483068,-3.3365434 0.4584481,-3.3422266 0.4795932,-3.3524458 0.4795932,-3.3524458 0.5135458,-3.3621641 0.5306617,-3.3661668 0.5479426,-3.3691576 0.5653924,-3.3711128 0.5829699,-3.3722838 0.6183381,-3.3733189 0.6183381,-3.3733189 0.6003571,-3.3597466 0.5918571,-3.3525106 0.5839458,-3.3447347 0.5767734,-3.3362811 0.5702263,-3.327254 0.5581743,-3.3082439 0.5581743,-3.3082439 0.5499351,-3.2888952 0.5463802,-3.2790837 0.5435028,-3.2691076 0.5414587,-3.2589292 0.5401009,-3.2485842 0.5385291,-3.2276163 0.5385291,-3.2276163 0.5403712,-3.2098081 0.5428456,-3.1922724 0.5465848,-3.1752818 0.5491262,-3.1670761 0.5522209,-3.1591089 0.5601639,-3.1439304 0.5699852,-3.1295614 0.5810587,-3.1157323 0.5927583,-3.1021729 0.5927583,-3.1021729 0.6083211,-3.0905178 0.6241409,-3.0795422 0.6404745,-3.069926 0.6489142,-3.06584 0.6575784,-3.062348 0.6755845,-3.0571563 0.6943047,-3.0538542 0.7135011,-3.0518119 0.7329356,-3.0503994 0.7329356,-3.0503994 0.7601744,-3.0522266 0.7736257,-3.053861 0.7868751,-3.0563605 0.7998755,-3.0599279 0.8126698,-3.0643784 0.8379152,-3.0747514 0.8379152,-3.0747514 0.8597846,-3.0878432 0.8701662,-3.094999 0.8798841,-3.1028867 0.8887735,-3.1116881 0.8969681,-3.1212557 0.9121989,-3.1416682 0.9121989,-3.1416682 0.9232984,-3.1645582 0.9280421,-3.176221 0.9318186,-3.1881451 0.9344403,-3.2003813 0.9361359,-3.2128677 0.9379834,-3.2382575 0.9379834,-3.2382575 0.9358286,-3.2598953 0.9328729,-3.2811699 0.9283154,-3.3017181 0.9251856,-3.3116064 0.9213551,-3.3211769 0.9167505,-3.3303964 0.9114324,-3.3392924 0.8990634,-3.3562986 0.8850635,-3.3725653 0.8702481,-3.3884622 0.8702481,-3.3884622 0.8444712,-3.4031263 0.8183894,-3.4167312 0.8051388,-3.4228054 0.7916975,-3.4282176 0.7780275,-3.4328355 0.7641089,-3.4365899 0.7499639,-3.4395582 0.7356208,-3.4418387 0.7064537,-3.4447291 0.6768337,-3.4460474 0.6469875,-3.4465795 0.6469875,-3.4465795 0.6133084,-3.4459249 0.579871,-3.4444063 0.5469166,-3.4411593 0.5306962,-3.4386176 0.514687,-3.4353199 0.4989195,-3.431158 0.4834162,-3.4260509 0.468154,-3.4200811 0.4530929,-3.4133923 0.4234128,-3.3984328 0.3940543,-3.382323 0.3940543,-3.382323 0.3788557,-3.366489 0.3645116,-3.3502611 0.3518768,-3.3332454 0.3464674,-3.324319 0.3418056,-3.3150479 0.3379446,-3.3054079 0.3348025,-3.2954364 0.3302642,-3.2746887 0.3273692,-3.2531836 0.3252958,-3.2312998 0.3252958,-3.2312998 0.3278644,-3.1997063 0.330364,-3.1843367 0.3343219,-3.1694799 0.3401304,-3.1552735 0.3475328,-3.1416275 0.3649956,-3.1152698 0.3649956,-3.1152698 0.3888145,-3.094574 0.4013587,-3.0854838 0.4146641,-3.0779021 0.4288545,-3.0720737 0.4437426,-3.0676279 0.4746819,-3.0610406 0.4804117,-3.1343012z M0.8061962,-3.3456927 L0.8061962,-3.3456927 0.8217359,-3.3370457 0.8291237,-3.3322784 0.836053,-3.3269785 0.8424069,-3.3210102 0.8482741,-3.3144767 0.8591976,-3.3004676 0.8591976,-3.3004676 0.8667476,-3.2861082 0.8700187,-3.2787795 0.8726851,-3.2712719 0.8745992,-3.263542 0.8758852,-3.2556263 0.8774104,-3.2394854 0.8774104,-3.2394854 0.8742209,-3.2165471 0.8715476,-3.2055777 0.8675802,-3.195208 0.8620686,-3.1855536 0.8553191,-3.1764728 0.8397569,-3.1592671 0.8397569,-3.1592671 0.8164721,-3.1441716 0.8044174,-3.1378286 0.7918689,-3.1329282 0.7787646,-3.1296515 0.7652288,-3.1276359 0.7374376,-3.1257063 0.7374376,-3.1257063 0.7106855,-3.1276246 0.6976752,-3.1296206 0.6851037,-3.1328609 0.6730969,-3.1377021 0.661591,-3.1439634 0.6394158,-3.1588578 0.6394158,-3.1588578 0.6241835,-3.1770232 0.6176447,-3.1865704 0.6123986,-3.1966751 0.6087182,-3.2074549 0.6063079,-3.2187824 0.6036041,-3.2423503 0.6036041,-3.2423503 0.6064016,-3.2661323 0.6088496,-3.2775798 0.6125565,-3.2884952 0.6178024,-3.29876 0.6243074,-3.3084925 0.6394158,-3.3270706 0.6394158,-3.3270706 0.6604,-3.3423394 0.6713317,-3.3488173 0.6827908,-3.3539079 0.6948638,-3.3573833 0.7074216,-3.3595836 0.7333449,-3.3618591 0.7333449,-3.3618591 0.7521715,-3.3605864 0.7706628,-3.3578012 0.7885965,-3.3525002 0.8061962,-3.3456927z" transform="matrix(1,0,0,-1,3.529262,3.65)" fill="rgb(116,116,116)" fill-rule="nonzero" shaper:cutDepth="0.05cm" stroke-linecap="round" stroke-linejoin="round" /><path d="M1.8064329,0.1664216 a0.15,0.15 0 1,1 0.3,0 a0.15,0.15 0 1,1 -0.3,0z" transform="matrix(1,0,0,-1,3.529262,3.65)" fill="rgb(255,255,255)" stroke="rgb(0,0,0)" stroke-width="0.0010cm" stroke-linecap="round" stroke-linejoin="round" shaper:cutDepth="0.3cm" /><path d="M-0.1146005,-0.7890688 a0.15,0.15 0 1,1 0.3,0 a0.15,0.15 0 1,1 -0.3,0z" transform="matrix(1,0,0,-1,3.529262,3.65)" fill="rgb(255,255,255)" stroke="rgb(0,0,0)" stroke-width="0.0010cm" stroke-linecap="round" stroke-linejoin="round" shaper:cutDepth="0.3cm" /><path d="M-2.113922,-1.8078433 a0.15,0.15 0 1,1 0.3,0 a0.15,0.15 0 1,1 -0.3,0z" transform="matrix(1,0,0,-1,3.529262,3.65)" fill="rgb(255,255,255)" stroke="rgb(0,0,0)" stroke-width="0.0010cm" stroke-linecap="round" stroke-linejoin="round" shaper:cutDepth="0.3cm" /><path d="M-0.4664515,1.3782244 a0.15,0.15 0 1,1 0.3,0 a0.15,0.15 0 1,1 -0.3,0z" transform="matrix(1,0,0,-1,3.529262,3.65)" fill="rgb(255,255,255)" stroke="rgb(0,0,0)" stroke-width="0.0010cm" stroke-linecap="round" stroke-linejoin="round" shaper:cutDepth="0.3cm" /><path d="M1.2803007,-2.6633891 a0.15,0.15 0 1,1 0.3,0 a0.15,0.15 0 1,1 -0.3,0z" transform="matrix(1,0,0,-1,3.529262,3.65)" fill="rgb(255,255,255)" stroke="rgb(0,0,0)" stroke-width="0.0010cm" stroke-linecap="round" stroke-linejoin="round" shaper:cutDepth="0.3cm" /><path d="M-2.5342727,1.25 L-2.5342727,-1.25 -2.2342727,-1.25 -2.2342727,1.25 -2.5342727,1.25z" transform="matrix(1,0,0,-1,3.529262,3.65)" fill="rgb(255,255,255)" stroke="rgb(0,0,0)" stroke-width="0.0010cm" stroke-linecap="round" stroke-linejoin="round" shaper:cutDepth="0.3cm" /><path d="M2.979262,-3.25 a0.15,0.15 0 1,1 0.3,0 a0.15,0.15 0 1,1 -0.3,0z" transform="matrix(1,0,0,-1,3.529262,3.65)" fill="rgb(255,255,255)" stroke="rgb(0,0,0)" stroke-width="0.0010cm" stroke-linecap="round" stroke-linejoin="round" shaper:cutDepth="0.3cm" /><path d="M-1.520738,3.25 a0.15,0.15 0 1,1 0.3,0 a0.15,0.15 0 1,1 -0.3,0z" transform="matrix(1,0,0,-1,3.529262,3.65)" fill="rgb(255,255,255)" stroke="rgb(0,0,0)" stroke-width="0.0010cm" stroke-linecap="round" stroke-linejoin="round" shaper:cutDepth="0.3cm" /><path d="M2.979262,3.25 a0.15,0.15 0 1,1 0.3,0 a0.15,0.15 0 1,1 -0.3,0z" transform="matrix(1,0,0,-1,3.529262,3.65)" fill="rgb(255,255,255)" stroke="rgb(0,0,0)" stroke-width="0.0010cm" stroke-linecap="round" stroke-linejoin="round" shaper:cutDepth="0.3cm" /><path d="M-1.520738,-3.25 a0.15,0.15 0 1,1 0.3,0 a0.15,0.15 0 1,1 -0.3,0z" transform="matrix(1,0,0,-1,3.529262,3.65)" fill="rgb(255,255,255)" stroke="rgb(0,0,0)" stroke-width="0.0010cm" stroke-linecap="round" stroke-linejoin="round" shaper:cutDepth="0.3cm" /><path d="M-2.1707381,2 L-0.870738,2 -0.870738,2.7500001 -2.1707381,2.7500001 A0.3,0.3 90 0,1 -2.4707381,2.4500001 L-2.4707381,2.3 A0.3,0.3 180 0,1 -2.1707381,2z" transform="matrix(1,0,0,-1,3.529262,3.65)" fill="rgb(255,255,255)" stroke="rgb(0,0,0)" stroke-width="0.0010cm" stroke-linecap="round" stroke-linejoin="round" shaper:cutDepth="0.3cm" /></svg>