<?xml version="1.0" encoding="UTF-8"?>
<svg id="Layer_1" data-name="Layer 1" xmlns="http://www.w3.org/2000/svg" xmlns:shaper="http://www.shapertools.com/namespaces/shaper" version="1.1" viewBox="0 0 200.23 206.93">
  <defs>
    <style>
      .cls-1 {
        fill: #747474;
      }

      .cls-1, .cls-2 {
        stroke-width: 0px;
      }

      .cls-3 {
        fill: #fff;
        stroke: #000;
        stroke-linecap: round;
        stroke-linejoin: round;
        stroke-width: .8px;
      }

      .cls-2 {
        fill: #000;
      }
    </style>
  </defs>
  <g>
    <path class="cls-2" d="M0,151.65v8.5l47.54,44.48c1.58,1.47,3.65,2.29,5.81,2.29h138.37c4.7,0,8.5-3.81,8.5-8.5h0v-15.92h-8.5v-56.69h8.5V8.5C200.23,3.81,196.42,0,191.72,0H53.35C51.19,0,49.11.82,47.54,2.29L0,46.77v8.5" shaper:cutDepth="0.3cm"/>
    <path class="cls-3" d="M156.01,61.28c0,2.35,1.9,4.25,4.25,4.25s4.25-1.9,4.25-4.25c0-2.35-1.9-4.25-4.25-4.25-2.35,0-4.25,1.9-4.25,4.25,0,0,0,0,0,0Z" shaper:cutDepth="0.3cm"/>
    <path class="cls-3" d="M79.3,173.64c0,2.35,1.9,4.25,4.25,4.25s4.25-1.9,4.25-4.25h0c0-2.35-1.9-4.25-4.25-4.25s-4.25,1.9-4.25,4.25Z" shaper:cutDepth="0.3cm"/>
    <path class="cls-3" d="M166.78,170.42c0,2.35,1.9,4.25,4.25,4.25,2.35,0,4.25-1.9,4.25-4.25h0c0-2.35-1.9-4.26-4.25-4.26-2.35,0-4.25,1.9-4.25,4.25h0Z" shaper:cutDepth="0.3cm"/>
    <path class="cls-3" d="M121.29,122.16c0,2.35,1.9,4.25,4.25,4.25s4.25-1.9,4.25-4.25h0c0-2.35-1.9-4.26-4.25-4.26s-4.25,1.9-4.25,4.25Z" shaper:cutDepth="0.3cm"/>
    <path class="cls-3" d="M82.17,73.88c0,2.35,1.9,4.25,4.25,4.25s4.25-1.9,4.25-4.25-1.9-4.25-4.25-4.25-4.25,1.9-4.25,4.25Z" shaper:cutDepth="0.3cm"/>
    <path class="cls-3" d="M28.35,68.03v70.87h8.5v-70.87h-8.5Z" shaper:cutDepth="0.3cm"/>
    <path class="cls-3" d="M184.64,195.59c0,2.35,1.9,4.25,4.25,4.25,2.35,0,4.25-1.9,4.25-4.25h0c0-2.35-1.9-4.26-4.25-4.26-2.35,0-4.25,1.9-4.25,4.25h0Z" shaper:cutDepth="0.3cm"/>
    <path class="cls-3" d="M57.08,11.34c0,2.35,1.9,4.25,4.25,4.25s4.25-1.9,4.25-4.25h0c0-2.35-1.9-4.25-4.25-4.25-2.35,0-4.25,1.9-4.25,4.25,0,0,0,0,0,0Z" shaper:cutDepth="0.3cm"/>
    <path class="cls-3" d="M184.64,11.34c0,2.35,1.9,4.25,4.25,4.25,2.35,0,4.25-1.9,4.25-4.25h0c0-2.35-1.9-4.26-4.25-4.26-2.35,0-4.25,1.9-4.25,4.25h0Z" shaper:cutDepth="0.3cm"/>
    <path class="cls-3" d="M57.08,195.59c0,2.35,1.9,4.25,4.25,4.25s4.25-1.9,4.25-4.25c0-2.35-1.9-4.25-4.25-4.25-2.35,0-4.25,1.9-4.25,4.25,0,0,0,0,0,0Z" shaper:cutDepth="0.3cm"/>
    <path class="cls-3" d="M38.65,46.77h36.85v-21.26h-36.85c-4.7,0-8.5,3.81-8.5,8.5v4.25c0,4.7,3.81,8.5,8.5,8.5Z" shaper:cutDepth="0.3cm"/>
  </g>
  <g>
    <path class="cls-1" d="M109.27,190.66v-11.01h1.62l1.08.9.55.43.57.41.58.39.6.37,1.21.71h0l1.43.73.72.35.73.32.74.29.75.27,1.52.5h0l1.15.29.58.13.58.11.59.09.59.07,1.18.11v2.15h0l-1.23-.1-.61-.07-.61-.09-.6-.11-.6-.13-1.2-.29h0l-1.41-.43-.7-.23-.69-.26-.68-.28-.67-.31-1.33-.65h0l-1.17-.66-.58-.35-.56-.36-.55-.38-.54-.4-1.05-.84v8.33h-2.01Z" shaper:cutDepth="0.05cm"/>
    <path class="cls-1" d="M121.29,201.91h0l.71-.17.34-.11.33-.13.31-.17.3-.2.57-.45h0l.34-.47.14-.25.11-.26.08-.27.05-.28.06-.58h0l-.08-.7-.07-.34-.11-.32-.15-.3-.19-.29-.43-.55h0l-.56-.43-.29-.19-.31-.15-.33-.1-.34-.07-.7-.08h0l-.66.07-.32.06-.31.1-.29.14-.27.17-.52.41h0l-.4.53-.17.28-.14.29-.09.31-.06.32-.07.66h0l.03.37.04.37.16.73-1.83-.23h0l.02-.34h0l-.05-.64-.05-.31-.07-.3-.1-.3-.13-.29-.3-.56h0l-.43-.47-.24-.2-.26-.16-.28-.11-.3-.07-.64-.07h0l-.53.06-.26.05-.25.08-.23.11-.22.14-.42.33h0l-.33.45-.14.23-.11.24-.08.26-.05.27-.05.55h0l.05.56.05.27.08.26.11.25.14.24.33.45h0l.51.4.27.17.28.14.3.11.31.09.64.13-.37,2.09h0l-.92-.24-.44-.15-.42-.19-.39-.24-.37-.28-.7-.64h0l-.5-.77-.21-.4-.17-.41-.12-.43-.07-.45-.08-.92h0l.04-.67.04-.33.06-.32.09-.32.11-.31.26-.62h0l.32-.53.17-.25.19-.23.21-.21.23-.2.5-.37h0l.52-.26.26-.11.27-.09.28-.06.28-.04.58-.05h0l.53.05.26.04.25.06.25.09.24.11.47.25h0l.45.37.21.2.19.21.17.23.15.24.27.51h0l.22-.68.13-.32.16-.3.2-.28.23-.26.51-.49h0l.64-.37.33-.16.34-.12.35-.08.36-.05.73-.05h0l.54.05.53.07.51.11.25.08.24.09.23.11.22.13.43.29.42.33.41.35h0l.35.46.33.46.29.48.12.25.1.25.09.26.07.27.1.55.06.56.04.57h0l-.04.51-.05.51-.09.49-.13.48-.2.45-.25.44-.28.42-.3.42h0l-.37.33-.38.32-.39.29-.42.24-.45.18-.47.14-.48.1-.49.09-.28-2.09Z" shaper:cutDepth="0.05cm"/>
    <path class="cls-1" d="M173.01,48.01v7.49h-.25s-.24-.03-.24-.03l-.24-.06-.24-.07h0l-.4-.18-.39-.21-.36-.25-.35-.27h0l-.46-.43-.44-.44-.42-.47-.4-.48h0l-.56-.67-.58-.65-.62-.61-.65-.58h0l-.39-.25-.2-.11-.2-.09-.21-.07-.22-.05-.45-.07h0l-.39.05-.19.04-.18.06-.17.09-.16.11-.31.25h0l-.25.35-.11.18-.08.19-.06.2-.04.21-.04.43h0l.04.45.04.22.06.21.09.2.11.19.27.36h0l.37.27.19.11.2.09.21.06.22.04.46.04-.15,1.43h0l-.69-.11-.33-.08-.32-.12-.3-.16-.28-.19-.53-.44h0l-.38-.59-.16-.3-.12-.32-.08-.33-.05-.34-.05-.7h0l.05-.71.06-.34.09-.33.13-.32.17-.3.4-.58h0l.49-.4.26-.17.27-.14.29-.1.3-.06.63-.07h0l.34.02.34.05.33.09.32.12h0l.37.19.36.21.33.25.32.27h0l.52.51.51.53.96,1.11h0l.7.82.73.79h0l.36.31.39.27v-5.56h1.34Z" shaper:cutDepth="0.05cm"/>
    <path class="cls-1" d="M96,66.56h0l.45-.1.22-.06.21-.08.2-.1.19-.13.35-.29h0l.23-.32.1-.17.08-.17.06-.18.04-.19.04-.39h0l-.06-.48-.05-.23-.08-.22-.11-.21-.14-.19-.32-.37h0l-.45-.31-.24-.13-.25-.1-.26-.07-.27-.04-.55-.04h0l-.52.04-.25.04-.24.07-.23.1-.22.13-.42.3h0l-.3.39-.13.2-.1.21-.07.23-.04.24-.05.49h0l.02.32.05.31.1.3.13.29h0l.16.25.18.23.21.2.23.18-.17,1.31-5.82-1.1v-5.64h1.33v4.52l3.05.61h0l-.29-.5-.13-.26-.1-.26-.08-.27-.05-.28-.06-.57h0l.08-.7.07-.34.11-.32.15-.3.19-.29.44-.55h0l.59-.44.31-.19.32-.15.34-.1.35-.07.73-.07h0l.72.07.35.06.34.09.33.13.31.16.61.39h0l.3.31.29.32.25.33.2.36.14.39.09.41.06.43.04.43h0l-.06.69-.05.33-.09.32-.13.31-.16.3-.38.57h0l-.5.44-.26.19-.28.16-.3.12-.31.09-.65.13-.12-1.46Z" shaper:cutDepth="0.05cm"/>
    <path class="cls-1" d="M181.07,160.04v4.92h-1.28l-7.35-5.17v-1.14h7.35v-1.53h1.28v1.53h2.71v1.39h-2.71ZM174.69,160.04l5.11,3.55v-3.55h-5.11Z" shaper:cutDepth="0.05cm"/>
    <path class="cls-1" d="M135.13,114.84h0l.45-.1.22-.06.21-.08.2-.1.19-.13.35-.29h0l.23-.32.1-.17.08-.17.06-.18.04-.19.04-.39h0l-.06-.48-.05-.23-.08-.22-.11-.21-.14-.19-.32-.37h0l-.45-.31-.24-.13-.25-.1-.26-.07-.27-.04-.55-.04h0l-.52.04-.25.04-.24.07-.23.1-.22.13-.42.3h0l-.3.39-.13.2-.1.21-.07.23-.04.24-.05.49h0l.02.32.05.31.1.3.13.29h0l.16.25.18.23.21.2.23.18-.17,1.31-5.82-1.1v-5.64h1.33v4.52l3.05.61h0l-.29-.5-.13-.26-.1-.26-.08-.27-.05-.28-.06-.57h0l.08-.7.07-.34.11-.32.15-.3.19-.29.44-.55h0l.59-.44.31-.19.32-.15.34-.1.35-.07.73-.07h0l.72.07.35.06.34.09.33.13.31.16.61.39h0l.3.31.29.32.25.33.2.36.14.39.09.41.06.43.04.43h0l-.06.69-.05.33-.09.32-.13.31-.16.3-.38.57h0l-.5.44-.26.19-.28.16-.3.12-.31.09-.65.13-.12-1.46Z" shaper:cutDepth="0.05cm"/>
    <path class="cls-1" d="M96.31,160.37v7.49h-.25s-.24-.03-.24-.03l-.24-.06-.24-.07h0l-.4-.18-.39-.21-.36-.25-.35-.27h0l-.46-.43-.44-.44-.42-.47-.4-.48h0l-.56-.67-.58-.65-.62-.61-.65-.58h0l-.39-.25-.2-.11-.2-.09-.21-.07-.22-.05-.45-.07h0l-.39.05-.19.04-.18.06-.17.09-.16.11-.31.25h0l-.25.35-.11.18-.08.19-.06.2-.04.21-.04.43h0l.04.45.04.22.06.21.09.2.11.19.27.36h0l.37.27.19.11.2.09.21.06.22.04.46.04-.15,1.43h0l-.69-.11-.33-.08-.32-.12-.3-.16-.28-.19-.53-.44h0l-.38-.59-.16-.3-.12-.32-.08-.33-.05-.34-.05-.7h0l.05-.71.06-.34.09-.33.13-.32.17-.3.4-.58h0l.49-.4.26-.17.27-.14.29-.1.3-.06.63-.07h0l.34.02.34.05.33.09.32.12h0l.37.19.36.21.33.25.32.27h0l.52.51.51.53.96,1.11h0l.7.82.73.79h0l.36.31.39.27v-5.56h1.34Z" shaper:cutDepth="0.05cm"/>
  </g>
</svg>