<?xml version="1.0" encoding="utf-8"?>
<!-- Generator: Fusion 360, Shaper Origin Export Add-In, Version 1.7.0  -->
<svg xmlns="http://www.w3.org/2000/svg" xmlns:xlink="http://www.w3.org/1999/xlink" xmlns:shaper="http://www.shapertools.com/namespaces/shaper" shaper:fusionaddin="version:1.7.0" width="7.058524cm" height="7.3cm" version="1.1" x="0cm" y="0cm" viewBox="0 0 7.058524 7.3" enable-background="new 0 0 7.058524 7.3" xml:space="preserve"><path d="M-3.529262,-2.0046781 L-1.8572407,-3.5690658 A0.3,0.3 226.9047902 0,1 -1.6522768,-3.65 L3.229262,-3.65 A0.3,0.3 270 0,1 3.529262,-3.35 L3.529262,-2.7885309 3.229262,-2.7885309 3.229262,-0.7885309 3.529262,-0.7885309 3.529262,3.35 A0.3,0.3 0 0,1 3.229262,3.65 L-1.6522768,3.65 A0.3,0.3 90 0,1 -1.8572407,3.5690658 L-3.529262,2.0046781 -3.529262,1.65 -3.2342727,1.65 -3.2342727,-1.65 -3.529262,-1.65 -3.529262,-2.0046781z" transform="matrix(1,0,0,-1,3.529262,3.65)" fill="rgb(0,0,0)" shaper:cutDepth="0.3cm" stroke-linecap="round" stroke-linejoin="round" /><path d="M1.7294377,1.6571877 L1.7294377,1.6571877 1.7451959,1.6605467 1.7528162,1.6627572 1.7601261,1.6656049 1.7670335,1.6692784 1.7735768,1.6736992 1.7860543,1.6837908 1.7860543,1.6837908 1.7941453,1.695105 1.7976146,1.7009808 1.8003925,1.7071188 1.802336,1.7135734 1.8036047,1.720284 1.8050175,1.7341318 1.8050175,1.7341318 1.802876,1.7511546 1.8010271,1.7593207 1.7982444,1.7670725 1.7943279,1.7743212 1.78949,1.781161 1.7782781,1.7941591 1.7782781,1.7941591 1.7622473,1.8050601 1.7539291,1.8096646 1.7452478,1.8132549 1.7361503,1.8156824 1.7267268,1.8171994 1.7073367,1.8187157 1.7073367,1.8187157 1.6891036,1.8172994 1.680258,1.815858 1.6717377,1.8135366 1.6636342,1.8100877 1.655897,1.8056478 1.6410339,1.7951141 1.6410339,1.7951141 1.63046,1.7814705 1.6259604,1.7743328 1.6224052,1.7668162 1.6199616,1.7588537 1.6184006,1.750537 1.6167501,1.7333133 1.6167501,1.7333133 1.6175252,1.7221154 1.6193318,1.71118 1.6228922,1.700691 1.6275277,1.6904756 1.6275277,1.6904756 1.6332373,1.6817715 1.6396366,1.6737133 1.6472073,1.6667519 1.655495,1.660462 1.6494923,1.6143501 1.4440352,1.653095 1.4440352,1.8520036 1.4909656,1.8520036 1.4909656,1.6923856 1.5984691,1.6708303 1.5984691,1.6708303 1.5881475,1.6884011 1.5836629,1.6974077 1.5799896,1.70668 1.5773331,1.716285 1.5755344,1.7261707 1.5733667,1.7464101 1.5733667,1.7464101 1.576128,1.7711122 1.5785791,1.7830221 1.5823147,1.7944025 1.5876308,1.8051315 1.594249,1.8153239 1.6096559,1.8348139 1.6096559,1.8348139 1.630378,1.8504475 1.6411936,1.8571081 1.6525547,1.8623817 1.6645601,1.8660163 1.6770787,1.868346 1.7029711,1.8708303 1.7029711,1.8708303 1.7283514,1.8685354 1.7407195,1.8664433 1.7527011,1.8632174 1.764202,1.8585813 1.7753016,1.8527681 1.7968319,1.8391796 1.7968319,1.8391796 1.8075809,1.8282402 1.817724,1.817017 1.8266552,1.805226 1.8337687,1.7925835 1.8387102,1.7789234 1.8419084,1.7644466 1.8439445,1.7494253 1.8453995,1.7341318 1.8453995,1.7341318 1.8434382,1.7098567 1.8415205,1.6980498 1.8384784,1.6866396 1.8340077,1.6757335 1.828304,1.6652624 1.8148401,1.6450459 1.8148401,1.6450459 1.7972874,1.6296989 1.7880406,1.6229799 1.7782292,1.6174061 1.7677474,1.613192 1.7567302,1.6100642 1.7338033,1.6056189 1.7294377,1.6571877z" transform="matrix(1,0,0,-1,3.529262,3.65)" fill="rgb(116,116,116)" fill-rule="nonzero" shaper:cutDepth="0.05cm" stroke-linecap="round" stroke-linejoin="round" /><path d="M-0.9598109,1.1860898 L-0.9598109,0.9216969 -0.9598109,0.9216969 -0.9685357,0.9219518 -0.9771527,0.9228476 -0.9855893,0.9248148 -0.9939174,0.9274267 -0.9939174,0.9274267 -1.0081902,0.9338974 -1.0219152,0.9412777 -1.0347698,0.9501027 -1.0471233,0.9597596 -1.0471233,0.9597596 -1.0632549,0.9748828 -1.0787981,0.9905662 -1.0934824,1.0070672 -1.1076963,1.0240161 -1.1076963,1.0240161 -1.1272794,1.0476168 -1.1476379,1.0704561 -1.1694693,1.0918493 -1.1924167,1.1121471 -1.1924167,1.1121471 -1.2059992,1.1210655 -1.2129809,1.1250126 -1.220191,1.1283452 -1.2276982,1.1308788 -1.235477,1.1326822 -1.251489,1.1350666 -1.251489,1.1350666 -1.2653304,1.1334509 -1.271991,1.13203 -1.2783393,1.1298736 -1.2843052,1.1268159 -1.2899573,1.1230191 -1.3007386,1.1141935 -1.3007386,1.1141935 -1.3095309,1.1020127 -1.3132627,1.0956713 -1.3161975,1.0890288 -1.318203,1.0820351 -1.3194743,1.0747641 -1.3207932,1.0597596 -1.3207932,1.0597596 -1.3194245,1.0440465 -1.3180879,1.0364417 -1.3159685,1.0291388 -1.3128549,1.0222196 -1.3088837,1.0156313 -1.2995108,1.0030065 -1.2995108,1.0030065 -1.2863575,0.99346 -1.2794981,0.9894302 -1.2723002,0.9862912 -1.2647181,0.9841627 -1.2568366,0.9828215 -1.2405749,0.9814513 -1.2457591,0.9309738 -1.2457591,0.9309738 -1.2699555,0.9350201 -1.2816175,0.937974 -1.292756,0.9420449 -1.303222,0.9475507 -1.3130934,0.954325 -1.3318437,0.9699916 -1.3318437,0.9699916 -1.3451208,0.9907129 -1.3507063,1.0014309 -1.3550303,1.0125768 -1.3579287,1.0242063 -1.359718,1.0362122 -1.361448,1.060851 -1.361448,1.060851 -1.3595351,1.0858414 -1.3575865,1.0979757 -1.3544475,1.1096769 -1.3497825,1.1208231 -1.3437762,1.1314813 -1.3295244,1.1519833 -1.3295244,1.1519833 -1.312227,1.1662122 -1.3031532,1.1723275 -1.2935692,1.1772438 -1.2833651,1.1807028 -1.2726563,1.1829755 -1.2503975,1.1855441 -1.2503975,1.1855441 -1.238255,1.1847409 -1.2263006,1.1830281 -1.2146557,1.1798185 -1.2031943,1.1757214 -1.2031943,1.1757214 -1.1900701,1.1689581 -1.1774752,1.161391 -1.165688,1.1525973 -1.1543539,1.1431157 -1.1543539,1.1431157 -1.1358752,1.1250137 -1.1179444,1.1063967 -1.0839583,1.0673995 -1.0839583,1.0673995 -1.0593981,1.0384752 -1.0336172,1.0106464 -1.0336172,1.0106464 -1.0208568,0.999581 -1.0070142,0.9899097 -1.0070142,1.1860898 -0.9598109,1.1860898z" transform="matrix(1,0,0,-1,3.529262,3.65)" fill="rgb(116,116,116)" fill-rule="nonzero" shaper:cutDepth="0.05cm" stroke-linecap="round" stroke-linejoin="round" /><path d="M-0.2826154,-2.251351 L-0.2826154,-2.251351 -0.2668572,-2.247992 -0.2592369,-2.2457815 -0.251927,-2.2429339 -0.2450196,-2.2392603 -0.2384763,-2.2348395 -0.2259988,-2.224748 -0.2259988,-2.224748 -0.2179078,-2.2134337 -0.2144385,-2.207558 -0.2116606,-2.2014199 -0.2097171,-2.1949653 -0.2084484,-2.1882548 -0.2070356,-2.1744069 -0.2070356,-2.1744069 -0.2091771,-2.1573841 -0.211026,-2.149218 -0.2138087,-2.1414663 -0.2177252,-2.1342175 -0.2225631,-2.1273777 -0.233775,-2.1143796 -0.233775,-2.1143796 -0.2498058,-2.1034786 -0.258124,-2.0988741 -0.2668053,-2.0952838 -0.2759028,-2.0928563 -0.2853263,-2.0913394 -0.3047164,-2.089823 -0.3047164,-2.089823 -0.3229495,-2.0912393 -0.3317951,-2.0926807 -0.3403154,-2.0950021 -0.3484189,-2.0984511 -0.3561561,-2.102891 -0.3710192,-2.1134247 -0.3710192,-2.1134247 -0.3815931,-2.1270683 -0.3860928,-2.1342059 -0.3896479,-2.1417225 -0.3920915,-2.1496851 -0.3936525,-2.1580018 -0.395303,-2.1752255 -0.395303,-2.1752255 -0.3945279,-2.1864233 -0.3927213,-2.1973587 -0.3891609,-2.2078477 -0.3845254,-2.2180631 -0.3845254,-2.2180631 -0.3788158,-2.2267672 -0.3724165,-2.2348254 -0.3648458,-2.2417868 -0.3565581,-2.2480768 -0.3625608,-2.2941886 -0.5680179,-2.2554438 -0.5680179,-2.0565352 -0.5210875,-2.0565352 -0.5210875,-2.2161532 -0.4135841,-2.2377084 -0.4135841,-2.2377084 -0.4239056,-2.2201377 -0.4283902,-2.211131 -0.4320635,-2.2018588 -0.43472,-2.1922538 -0.4365187,-2.182368 -0.4386864,-2.1621286 -0.4386864,-2.1621286 -0.4359251,-2.1374265 -0.433474,-2.1255167 -0.4297384,-2.1141362 -0.4244223,-2.1034072 -0.4178041,-2.0932149 -0.4023972,-2.0737248 -0.4023972,-2.0737248 -0.3816751,-2.0580913 -0.3708595,-2.0514306 -0.3594984,-2.0461571 -0.347493,-2.0425224 -0.3349744,-2.0401927 -0.309082,-2.0377084 -0.309082,-2.0377084 -0.2837017,-2.0400033 -0.2713336,-2.0420955 -0.259352,-2.0453214 -0.2478511,-2.0499574 -0.2367515,-2.0557706 -0.2152212,-2.0693592 -0.2152212,-2.0693592 -0.2044722,-2.0802985 -0.1943291,-2.0915218 -0.1853979,-2.1033127 -0.1782844,-2.1159552 -0.1733429,-2.1296154 -0.1701447,-2.1440922 -0.1681086,-2.1591134 -0.1666536,-2.1744069 -0.1666536,-2.1744069 -0.1686149,-2.198682 -0.1705326,-2.2104889 -0.1735747,-2.2218991 -0.1780454,-2.2328053 -0.1837491,-2.2432763 -0.197213,-2.2634929 -0.197213,-2.2634929 -0.2147657,-2.2788398 -0.2240125,-2.2855588 -0.2338239,-2.2911326 -0.2443057,-2.2953467 -0.2553229,-2.2984746 -0.2782498,-2.3029199 -0.2826154,-2.251351z" transform="matrix(1,0,0,-1,3.529262,3.65)" fill="rgb(116,116,116)" fill-rule="nonzero" shaper:cutDepth="0.05cm" stroke-linecap="round" stroke-linejoin="round" /><path d="M0.973807,-0.3207872 L0.973807,-0.3207872 0.9895652,-0.3174282 0.9971856,-0.3152177 1.0044955,-0.3123701 1.0114029,-0.3086965 1.0179462,-0.3042757 1.0304237,-0.2941842 1.0304237,-0.2941842 1.0385147,-0.2828699 1.041984,-0.2769942 1.0447618,-0.2708561 1.0467054,-0.2644015 1.0479741,-0.2576909 1.0493869,-0.2438431 1.0493869,-0.2438431 1.0472454,-0.2268203 1.0453965,-0.2186542 1.0426137,-0.2109025 1.0386973,-0.2036537 1.0338593,-0.1968139 1.0226474,-0.1838158 1.0226474,-0.1838158 1.0066167,-0.1729148 0.9982984,-0.1683103 0.9896171,-0.16472 0.9805196,-0.1622925 0.9710962,-0.1607756 0.9517061,-0.1592592 0.9517061,-0.1592592 0.9334729,-0.1606755 0.9246274,-0.1621169 0.9161071,-0.1644383 0.9080036,-0.1678873 0.9002663,-0.1723271 0.8854032,-0.1828609 0.8854032,-0.1828609 0.8748293,-0.1965045 0.8703297,-0.2036421 0.8667746,-0.2111587 0.8643309,-0.2191213 0.86277,-0.227438 0.8611194,-0.2446617 0.8611194,-0.2446617 0.8618946,-0.2558595 0.8637012,-0.2667949 0.8672615,-0.2772839 0.8718971,-0.2874993 0.8718971,-0.2874993 0.8776066,-0.2962034 0.8840059,-0.3042616 0.8915766,-0.311223 0.8998643,-0.3175129 0.8938616,-0.3636248 0.6884046,-0.32488 0.6884046,-0.1259714 0.735335,-0.1259714 0.735335,-0.2855894 0.8428384,-0.3071446 0.8428384,-0.3071446 0.8325168,-0.2895739 0.8280322,-0.2805672 0.824359,-0.271295 0.8217025,-0.26169 0.8199037,-0.2518042 0.8177361,-0.2315648 0.8177361,-0.2315648 0.8204974,-0.2068627 0.8229484,-0.1949529 0.826684,-0.1835724 0.8320001,-0.1728434 0.8386184,-0.1626511 0.8540253,-0.143161 0.8540253,-0.143161 0.8747474,-0.1275275 0.885563,-0.1208668 0.896924,-0.1155933 0.9089295,-0.1119586 0.9214481,-0.1096289 0.9473405,-0.1071446 0.9473405,-0.1071446 0.9727207,-0.1094395 0.9850888,-0.1115317 0.9970704,-0.1147576 1.0085713,-0.1193936 1.0196709,-0.1252068 1.0412013,-0.1387954 1.0412013,-0.1387954 1.0519503,-0.1497347 1.0620933,-0.160958 1.0710245,-0.1727489 1.0781381,-0.1853914 1.0830795,-0.1990516 1.0862777,-0.2135284 1.0883138,-0.2285496 1.0897688,-0.2438431 1.0897688,-0.2438431 1.0878075,-0.2681182 1.0858898,-0.2799251 1.0828477,-0.2913353 1.0783771,-0.3022415 1.0726734,-0.3127125 1.0592095,-0.3329291 1.0592095,-0.3329291 1.0416568,-0.348276 1.0324099,-0.354995 1.0225985,-0.3605688 1.0121168,-0.3647829 1.0010996,-0.3679108 0.9781727,-0.3723561 0.973807,-0.3207872z" transform="matrix(1,0,0,-1,3.529262,3.65)" fill="rgb(116,116,116)" fill-rule="nonzero" shaper:cutDepth="0.05cm" stroke-linecap="round" stroke-linejoin="round" /><path d="M2.1435229,-1.954136 L2.1435229,-2.1276694 2.0985024,-2.1276694 1.8392937,-1.9451319 1.8392937,-1.9050228 2.0985024,-1.9050228 2.0985024,-1.8509982 2.1435229,-1.8509982 2.1435229,-1.9050228 2.2392937,-1.9050228 2.2392937,-1.954136 2.1435229,-1.954136z M1.9181477,-1.954136 L2.0985024,-2.0793747 2.0985024,-1.954136 1.9181477,-1.954136z" transform="matrix(1,0,0,-1,3.529262,3.65)" fill="rgb(116,116,116)" fill-rule="nonzero" shaper:cutDepth="0.05cm" stroke-linecap="round" stroke-linejoin="round" /><path d="M0.9203431,-3.1571619 L0.9203431,-3.5537512 0.9203431,-3.5537512 0.9072559,-3.5533687 0.8943305,-3.552025 0.8816756,-3.5490743 0.8691835,-3.5451564 0.8691835,-3.5451564 0.8477742,-3.5354504 0.8271867,-3.52438 0.8079047,-3.5111425 0.7893745,-3.4966571 0.7893745,-3.4966571 0.7651771,-3.4739723 0.7418623,-3.4504473 0.7198358,-3.4256957 0.698515,-3.4002723 0.698515,-3.4002723 0.6691404,-3.3648714 0.6540896,-3.3475277 0.6386026,-3.3306123 0.622535,-3.314267 0.6058554,-3.2985225 0.5714345,-3.2680759 0.5714345,-3.2680759 0.5510607,-3.2546983 0.5405882,-3.2487776 0.529773,-3.2437787 0.5185121,-3.2399783 0.506844,-3.2372732 0.482826,-3.2336966 0.482826,-3.2336966 0.4620638,-3.2361202 0.452073,-3.2382514 0.4425505,-3.2414861 0.4336017,-3.2460726 0.4251235,-3.2517679 0.4089515,-3.2650063 0.4089515,-3.2650063 0.3957631,-3.2832775 0.3901654,-3.2927896 0.3857632,-3.3027534 0.382755,-3.3132439 0.3808481,-3.3241504 0.3788697,-3.3466571 0.3788697,-3.3466571 0.3809227,-3.3702267 0.3829276,-3.381634 0.3861067,-3.3925883 0.3907771,-3.4029671 0.3967339,-3.4128496 0.4107933,-3.4317867 0.4107933,-3.4317867 0.4305233,-3.4461065 0.4408123,-3.4521512 0.4516092,-3.4568596 0.4629824,-3.4600525 0.4748045,-3.4620643 0.4991971,-3.4641196 0.4914209,-3.5398358 0.4914209,-3.5398358 0.4731426,-3.5370803 0.4551262,-3.5337664 0.4376332,-3.5293355 0.4209254,-3.5232292 0.4129465,-3.5193761 0.4052265,-3.5149705 0.3904193,-3.504809 0.3762077,-3.4933768 0.362294,-3.4813092 0.362294,-3.4813092 0.3520201,-3.4658754 0.3423782,-3.4502272 0.334,-3.4341502 0.327514,-3.4174314 0.3231663,-3.399987 0.3204824,-3.3819783 0.3178874,-3.34502 0.3178874,-3.34502 0.3190245,-3.3261689 0.3207568,-3.3075344 0.3236797,-3.289333 0.3283883,-3.2717811 0.3315946,-3.2633151 0.3353857,-3.2550618 0.3443952,-3.2390745 0.3547482,-3.2235758 0.3657728,-3.2083215 0.3657728,-3.2083215 0.3786184,-3.1973501 0.391719,-3.1869782 0.4053297,-3.1778053 0.4197057,-3.1704308 0.4350118,-3.1652424 0.451075,-3.1618332 0.4676429,-3.1596103 0.4844631,-3.1579804 0.4844631,-3.1579804 0.5026769,-3.1591853 0.5206086,-3.1617544 0.5380759,-3.1665688 0.555268,-3.1727144 0.555268,-3.1727144 0.5749543,-3.1828594 0.5938467,-3.19421 0.6115275,-3.2074005 0.6285286,-3.221623 0.6285286,-3.221623 0.6562466,-3.248776 0.6831429,-3.2767015 0.7089275,-3.305672 0.7341221,-3.3351973 0.7341221,-3.3351973 0.7709624,-3.3785837 0.7900684,-3.3996613 0.8096337,-3.4203269 0.8096337,-3.4203269 0.8287743,-3.436925 0.8495382,-3.451432 0.8495382,-3.1571619 0.9203431,-3.1571619z" transform="matrix(1,0,0,-1,3.529262,3.65)" fill="rgb(116,116,116)" fill-rule="nonzero" shaper:cutDepth="0.05cm" stroke-linecap="round" stroke-linejoin="round" /><path d="M0.3281193,-3.0732601 L0.3281193,-2.6848562 0.3854181,-2.6848562 0.3854181,-2.6848562 0.4234999,-2.7166907 0.4429834,-2.731983 0.462996,-2.746528 0.4835935,-2.7602472 0.5046422,-2.773329 0.5474918,-2.7984306 0.5474918,-2.7984306 0.597765,-2.8242559 0.6231901,-2.8364777 0.6489615,-2.8478706 0.67516,-2.8582404 0.7017119,-2.8677642 0.7554045,-2.885402 0.7554045,-2.885402 0.7961015,-2.8955677 0.816544,-2.9001075 0.8370993,-2.9039958 0.8577873,-2.9071176 0.8785807,-2.9096306 0.9203431,-2.9136421 0.9203431,-2.9893583 0.9203431,-2.9893583 0.8770138,-2.985969 0.855452,-2.9836184 0.8340131,-2.9804852 0.8127071,-2.9765042 0.7915032,-2.9718731 0.7492653,-2.9615275 0.7492653,-2.9615275 0.6993954,-2.9463092 0.674721,-2.9380392 0.6503594,-2.9289763 0.6263784,-2.9189486 0.6027073,-2.9081348 0.555882,-2.8851973 0.555882,-2.8851973 0.5145817,-2.8617846 0.4942698,-2.8495799 0.4743638,-2.836777 0.4549762,-2.8232103 0.4360407,-2.8089772 0.3989243,-2.7793992 0.3989243,-3.0732601 0.3281193,-3.0732601z" transform="matrix(1,0,0,-1,3.529262,3.65)" fill="rgb(116,116,116)" fill-rule="nonzero" shaper:cutDepth="0.05cm" stroke-linecap="round" stroke-linejoin="round" /><path d="M-0.7707464,-2.5095365 a0.15,0.15 0 1,1 0.3,0 a0.15,0.15 0 1,1 -0.3,0z" transform="matrix(1,0,0,-1,3.529262,3.65)" fill="rgb(255,255,255)" stroke="rgb(0,0,0)" stroke-width="0.0010cm" stroke-linecap="round" stroke-linejoin="round" shaper:cutDepth="0.3cm" /><path d="M1.2413067,1.3990022 a0.15,0.15 0 1,1 0.3,0 a0.15,0.15 0 1,1 -0.3,0z" transform="matrix(1,0,0,-1,3.529262,3.65)" fill="rgb(255,255,255)" stroke="rgb(0,0,0)" stroke-width="0.0010cm" stroke-linecap="round" stroke-linejoin="round" shaper:cutDepth="0.3cm" /><path d="M-1.5598109,0.7178087 a0.15,0.15 0 1,1 0.3,0 a0.15,0.15 0 1,1 -0.3,0z" transform="matrix(1,0,0,-1,3.529262,3.65)" fill="rgb(255,255,255)" stroke="rgb(0,0,0)" stroke-width="0.0010cm" stroke-linecap="round" stroke-linejoin="round" shaper:cutDepth="0.3cm" /><path d="M0.4856761,-0.5789727 a0.15,0.15 0 1,1 0.3,0 a0.15,0.15 0 1,1 -0.3,0z" transform="matrix(1,0,0,-1,3.529262,3.65)" fill="rgb(255,255,255)" stroke="rgb(0,0,0)" stroke-width="0.0010cm" stroke-linecap="round" stroke-linejoin="round" shaper:cutDepth="0.3cm" /><path d="M1.6392937,-2.3205071 a0.15,0.15 0 1,1 0.3,0 a0.15,0.15 0 1,1 -0.3,0z" transform="matrix(1,0,0,-1,3.529262,3.65)" fill="rgb(255,255,255)" stroke="rgb(0,0,0)" stroke-width="0.0010cm" stroke-linecap="round" stroke-linejoin="round" shaper:cutDepth="0.3cm" /><path d="M-2.5342727,1.25 L-2.5342727,-1.25 -2.2342727,-1.25 -2.2342727,1.25 -2.5342727,1.25z" transform="matrix(1,0,0,-1,3.529262,3.65)" fill="rgb(255,255,255)" stroke="rgb(0,0,0)" stroke-width="0.0010cm" stroke-linecap="round" stroke-linejoin="round" shaper:cutDepth="0.3cm" /><path d="M2.979262,-3.25 a0.15,0.15 0 1,1 0.3,0 a0.15,0.15 0 1,1 -0.3,0z" transform="matrix(1,0,0,-1,3.529262,3.65)" fill="rgb(255,255,255)" stroke="rgb(0,0,0)" stroke-width="0.0010cm" stroke-linecap="round" stroke-linejoin="round" shaper:cutDepth="0.3cm" /><path d="M-1.520738,3.25 a0.15,0.15 0 1,1 0.3,0 a0.15,0.15 0 1,1 -0.3,0z" transform="matrix(1,0,0,-1,3.529262,3.65)" fill="rgb(255,255,255)" stroke="rgb(0,0,0)" stroke-width="0.0010cm" stroke-linecap="round" stroke-linejoin="round" shaper:cutDepth="0.3cm" /><path d="M2.979262,3.25 a0.15,0.15 0 1,1 0.3,0 a0.15,0.15 0 1,1 -0.3,0z" transform="matrix(1,0,0,-1,3.529262,3.65)" fill="rgb(255,255,255)" stroke="rgb(0,0,0)" stroke-width="0.0010cm" stroke-linecap="round" stroke-linejoin="round" shaper:cutDepth="0.3cm" /><path d="M-1.520738,-3.25 a0.15,0.15 0 1,1 0.3,0 a0.15,0.15 0 1,1 -0.3,0z" transform="matrix(1,0,0,-1,3.529262,3.65)" fill="rgb(255,255,255)" stroke="rgb(0,0,0)" stroke-width="0.0010cm" stroke-linecap="round" stroke-linejoin="round" shaper:cutDepth="0.3cm" /><path d="M-2.1707381,2 L-0.870738,2 -0.870738,2.7500001 -2.1707381,2.7500001 A0.3,0.3 90 0,1 -2.4707381,2.4500001 L-2.4707381,2.3 A0.3,0.3 180 0,1 -2.1707381,2z" transform="matrix(1,0,0,-1,3.529262,3.65)" fill="rgb(255,255,255)" stroke="rgb(0,0,0)" stroke-width="0.0010cm" stroke-linecap="round" stroke-linejoin="round" shaper:cutDepth="0.3cm" /></svg>