<?xml version="1.0" encoding="utf-8"?>
<!-- Generator: Fusion 360, Shaper Origin Export Add-In, Version 1.7.0  -->
<svg xmlns="http://www.w3.org/2000/svg" xmlns:xlink="http://www.w3.org/1999/xlink" xmlns:shaper="http://www.shapertools.com/namespaces/shaper" shaper:fusionaddin="version:1.7.0" width="7.058524cm" height="7.3cm" version="1.1" x="0cm" y="0cm" viewBox="0 0 7.058524 7.3" enable-background="new 0 0 7.058524 7.3" xml:space="preserve"><path d="M-3.529262,-2.0046781 L-1.8572407,-3.5690658 A0.3,0.3 226.9047902 0,1 -1.6522768,-3.65 L3.229262,-3.65 A0.3,0.3 270 0,1 3.529262,-3.35 L3.529262,-2.7885309 3.229262,-2.7885309 3.229262,-0.7885309 3.529262,-0.7885309 3.529262,3.35 A0.3,0.3 0 0,1 3.229262,3.65 L-1.6522768,3.65 A0.3,0.3 90 0,1 -1.8572407,3.5690658 L-3.529262,2.0046781 -3.529262,1.65 -3.2342727,1.65 -3.2342727,-1.65 -3.529262,-1.65 -3.529262,-2.0046781z" transform="matrix(1,0,0,-1,3.529262,3.65)" fill="rgb(0,0,0)" shaper:cutDepth="0.3cm" stroke-linecap="round" stroke-linejoin="round" /><path d="M2.5094997,1.4779175 L2.5094997,1.2135246 2.5094997,1.2135246 2.5007749,1.2137796 2.4921579,1.2146754 2.4837213,1.2166425 2.4753932,1.2192545 2.4753932,1.2192545 2.4611204,1.2257251 2.4473954,1.2331054 2.4345408,1.2419304 2.4221873,1.2515874 2.4221873,1.2515874 2.4060557,1.2667106 2.3905125,1.2823939 2.3758282,1.2988949 2.3616143,1.3158438 2.3616143,1.3158438 2.3420312,1.3394445 2.3216727,1.3622839 2.2998413,1.3836771 2.2768939,1.4039748 2.2768939,1.4039748 2.2633114,1.4128932 2.2563297,1.4168403 2.2491196,1.4201729 2.2416124,1.4227065 2.2338336,1.4245099 2.2178216,1.4268943 2.2178216,1.4268943 2.2039802,1.4252786 2.1973196,1.4238578 2.1909713,1.4217013 2.1850054,1.4186437 2.1793533,1.4148468 2.168572,1.4060212 2.168572,1.4060212 2.1597797,1.3938404 2.1560479,1.387499 2.1531131,1.3808565 2.1511076,1.3738628 2.1498363,1.3665918 2.1485174,1.3515874 2.1485174,1.3515874 2.1498861,1.3358743 2.1512227,1.3282694 2.1533421,1.3209666 2.1564557,1.3140473 2.1604269,1.307459 2.1697998,1.2948343 2.1697998,1.2948343 2.1829531,1.2852877 2.1898125,1.2812579 2.1970104,1.278119 2.2045925,1.2759904 2.212474,1.2746492 2.2287357,1.273279 2.2235515,1.2228015 2.2235515,1.2228015 2.1993551,1.2268478 2.1876931,1.2298018 2.1765546,1.2338726 2.1660886,1.2393784 2.1562172,1.2461527 2.1374669,1.2618193 2.1374669,1.2618193 2.1241898,1.2825406 2.1186043,1.2932586 2.1142803,1.3044045 2.1113818,1.316034 2.1095926,1.3280399 2.1078626,1.3526788 2.1078626,1.3526788 2.1097755,1.3776691 2.1117241,1.3898034 2.1148631,1.4015046 2.1195281,1.4126508 2.1255344,1.4233091 2.1397862,1.4438111 2.1397862,1.4438111 2.1570836,1.4580399 2.1661574,1.4641552 2.1757414,1.4690716 2.1859455,1.4725305 2.1966543,1.4748033 2.2189131,1.4773718 2.2189131,1.4773718 2.2310556,1.4765686 2.24301,1.4748559 2.2546549,1.4716462 2.2661163,1.4675492 2.2661163,1.4675492 2.2792405,1.4607858 2.2918354,1.4532187 2.3036226,1.4444251 2.3149567,1.4349434 2.3149567,1.4349434 2.3334354,1.4168414 2.3513662,1.3982244 2.3853523,1.3592272 2.3853523,1.3592272 2.4099125,1.3303029 2.4356934,1.3024741 2.4356934,1.3024741 2.4484538,1.2914087 2.4622964,1.2817374 2.4622964,1.4779175 2.5094997,1.4779175z" transform="matrix(1,0,0,-1,3.529262,3.65)" fill="rgb(116,116,116)" fill-rule="nonzero" shaper:cutDepth="0.05cm" stroke-linecap="round" stroke-linejoin="round" /><path d="M0.5383778,0.1857067 L0.5383778,0.1857067 0.554136,0.1890657 0.5617563,0.1912762 0.5690662,0.1941238 0.5759736,0.1977974 0.5825169,0.2022182 0.5949944,0.2123097 0.5949944,0.2123097 0.6030854,0.223624 0.6065547,0.2294997 0.6093326,0.2356378 0.6112761,0.2420924 0.6125448,0.248803 0.6139576,0.2626508 0.6139576,0.2626508 0.6118161,0.2796736 0.6099672,0.2878397 0.6071844,0.2955914 0.603268,0.3028402 0.59843,0.30968 0.5872181,0.3226781 0.5872181,0.3226781 0.5711874,0.3335791 0.5628691,0.3381836 0.5541879,0.3417739 0.5450904,0.3442014 0.5356669,0.3457183 0.5162768,0.3472347 0.5162768,0.3472347 0.4980436,0.3458184 0.4891981,0.344377 0.4806778,0.3420556 0.4725743,0.3386067 0.4648371,0.3341668 0.4499739,0.323633 0.4499739,0.323633 0.4394001,0.3099894 0.4349004,0.3028518 0.4313453,0.2953352 0.4289016,0.2873726 0.4273407,0.2790559 0.4256902,0.2618322 0.4256902,0.2618322 0.4264653,0.2506344 0.4282719,0.239699 0.4318322,0.22921 0.4364678,0.2189946 0.4364678,0.2189946 0.4421773,0.2102905 0.4485767,0.2022323 0.4561473,0.1952709 0.4644351,0.188981 0.4584323,0.1428691 0.2529753,0.1816139 0.2529753,0.3805225 0.2999057,0.3805225 0.2999057,0.2209045 0.4074091,0.1993493 0.4074091,0.1993493 0.3970876,0.21692 0.3926029,0.2259267 0.3889297,0.2351989 0.3862732,0.2448039 0.3844745,0.2546897 0.3823068,0.2749291 0.3823068,0.2749291 0.3850681,0.2996312 0.3875192,0.3115411 0.3912548,0.3229215 0.3965708,0.3336505 0.4031891,0.3438428 0.418596,0.3633329 0.418596,0.3633329 0.4393181,0.3789664 0.4501337,0.3856271 0.4614948,0.3909006 0.4735002,0.3945353 0.4860188,0.396865 0.5119112,0.3993493 0.5119112,0.3993493 0.5372915,0.3970544 0.5496595,0.3949622 0.5616411,0.3917363 0.573142,0.3871003 0.5842417,0.3812871 0.605772,0.3676985 0.605772,0.3676985 0.616521,0.3567592 0.626664,0.3455359 0.6355952,0.333745 0.6427088,0.3211025 0.6476503,0.3074423 0.6508485,0.2929655 0.6528845,0.2779443 0.6543395,0.2626508 0.6543395,0.2626508 0.6523782,0.2383757 0.6504606,0.2265688 0.6474184,0.2151586 0.6429478,0.2042524 0.6372441,0.1937814 0.6237802,0.1735648 0.6237802,0.1735648 0.6062275,0.1582179 0.5969807,0.1514989 0.5871692,0.1459251 0.5766875,0.141711 0.5656703,0.1385831 0.5427434,0.1341378 0.5383778,0.1857067z" transform="matrix(1,0,0,-1,3.529262,3.65)" fill="rgb(116,116,116)" fill-rule="nonzero" shaper:cutDepth="0.05cm" stroke-linecap="round" stroke-linejoin="round" /><path d="M2.3815092,-1.4714475 L2.3815092,-1.6449809 2.3364887,-1.6449809 2.07728,-1.4624433 2.07728,-1.4223342 2.3364887,-1.4223342 2.3364887,-1.3683097 2.3815092,-1.3683097 2.3815092,-1.4223342 2.47728,-1.4223342 2.47728,-1.4714475 2.3815092,-1.4714475z M2.156134,-1.4714475 L2.3364887,-1.5966862 2.3364887,-1.4714475 2.156134,-1.4714475z" transform="matrix(1,0,0,-1,3.529262,3.65)" fill="rgb(116,116,116)" fill-rule="nonzero" shaper:cutDepth="0.05cm" stroke-linecap="round" stroke-linejoin="round" /><path d="M-1.34957,1.6413412 L-1.34957,1.3769483 -1.34957,1.3769483 -1.3582948,1.3772032 -1.3669118,1.378099 -1.3753484,1.3800662 -1.3836765,1.3826781 -1.3836765,1.3826781 -1.3979493,1.3891488 -1.4116743,1.3965291 -1.4245289,1.4053541 -1.4368824,1.415011 -1.4368824,1.415011 -1.453014,1.4301342 -1.4685572,1.4458175 -1.4832415,1.4623186 -1.4974554,1.4792675 -1.4974554,1.4792675 -1.5170385,1.5028682 -1.537397,1.5257075 -1.5592284,1.5471007 -1.5821758,1.5673984 -1.5821758,1.5673984 -1.5957583,1.5763168 -1.60274,1.580264 -1.6099501,1.5835966 -1.6174574,1.5861302 -1.6252361,1.5879336 -1.6412481,1.590318 -1.6412481,1.590318 -1.6550895,1.5887023 -1.6617501,1.5872814 -1.6680984,1.585125 -1.6740643,1.5820673 -1.6797164,1.5782705 -1.6904977,1.5694448 -1.6904977,1.5694448 -1.6992901,1.5572641 -1.7030218,1.5509227 -1.7059566,1.5442801 -1.7079621,1.5372865 -1.7092334,1.5300154 -1.7105523,1.515011 -1.7105523,1.515011 -1.7091837,1.4992979 -1.707847,1.4916931 -1.7057276,1.4843902 -1.7026141,1.477471 -1.6986428,1.4708826 -1.6892699,1.4582579 -1.6892699,1.4582579 -1.6761166,1.4487114 -1.6692572,1.4446816 -1.6620593,1.4415426 -1.6544772,1.4394141 -1.6465957,1.4380728 -1.630334,1.4367027 -1.6355182,1.3862252 -1.6355182,1.3862252 -1.6597146,1.3902715 -1.6713766,1.3932254 -1.6825151,1.3972963 -1.6929811,1.4028021 -1.7028525,1.4095764 -1.7216028,1.4252429 -1.7216028,1.4252429 -1.7348799,1.4459643 -1.7404654,1.4566822 -1.7447894,1.4678282 -1.7476879,1.4794577 -1.7494771,1.4914636 -1.7512071,1.5161024 -1.7512071,1.5161024 -1.7492942,1.5410928 -1.7473457,1.5532271 -1.7442066,1.5649283 -1.7395416,1.5760745 -1.7335353,1.5867327 -1.7192836,1.6072347 -1.7192836,1.6072347 -1.7019861,1.6214636 -1.6929123,1.6275789 -1.6833283,1.6324952 -1.6731242,1.6359542 -1.6624154,1.6382269 -1.6401567,1.6407955 -1.6401567,1.6407955 -1.6280141,1.6399923 -1.6160597,1.6382795 -1.6044148,1.6350699 -1.5929534,1.6309728 -1.5929534,1.6309728 -1.5798292,1.6242095 -1.5672343,1.6166424 -1.5554471,1.6078487 -1.544113,1.5983671 -1.544113,1.5983671 -1.5256344,1.5802651 -1.5077035,1.5616481 -1.4737174,1.5226509 -1.4737174,1.5226509 -1.4491572,1.4937266 -1.4233763,1.4658978 -1.4233763,1.4658978 -1.4106159,1.4548324 -1.3967733,1.4451611 -1.3967733,1.6413412 -1.34957,1.6413412z" transform="matrix(1,0,0,-1,3.529262,3.65)" fill="rgb(116,116,116)" fill-rule="nonzero" shaper:cutDepth="0.05cm" stroke-linecap="round" stroke-linejoin="round" /><path d="M-0.984553,-1.5278973 L-0.984553,-1.5278973 -0.967943,-1.523831 -0.9598856,-1.5213038 -0.9521256,-1.5181836 -0.9447561,-1.5142841 -0.9377585,-1.5096428 -0.9243893,-1.4991114 -0.9243893,-1.4991114 -0.9164938,-1.4879672 -0.9131142,-1.4821817 -0.9104165,-1.47614 -0.9085368,-1.4697909 -0.9073159,-1.4631944 -0.9059718,-1.4495889 -0.9059718,-1.4495889 -0.9078012,-1.4332386 -0.909424,-1.425355 -0.9118964,-1.4178213 -0.9154138,-1.410718 -0.9197919,-1.4039692 -0.9299827,-1.3910623 -0.9299827,-1.3910623 -0.9431437,-1.3808677 -0.9500184,-1.3764976 -0.957246,-1.3730003 -0.9648993,-1.3705552 -0.9728966,-1.3689604 -0.9894643,-1.3671878 -0.9894643,-1.3671878 -1.0050008,-1.3687619 -1.012503,-1.3702114 -1.0196859,-1.3724559 -1.0264702,-1.3756928 -1.03292,-1.3797622 -1.0452624,-1.3892888 -1.0452624,-1.3892888 -1.0547497,-1.4017549 -1.0587992,-1.4082635 -1.0620159,-1.4151024 -1.0642424,-1.4223343 -1.0656771,-1.4298804 -1.0672269,-1.4454962 -1.0672269,-1.4454962 -1.0655756,-1.4629844 -1.0617699,-1.4801483 -1.1048804,-1.4746913 -1.1048804,-1.4746913 -1.1043347,-1.4667786 -1.1043347,-1.4667786 -1.1055541,-1.45182 -1.1066492,-1.4444824 -1.108327,-1.4373148 -1.1107252,-1.4303574 -1.1137204,-1.4235743 -1.1207057,-1.4102984 -1.1207057,-1.4102984 -1.1309231,-1.3993171 -1.1364533,-1.3946523 -1.1424893,-1.3909783 -1.1491167,-1.388463 -1.1562122,-1.3868646 -1.1711832,-1.385196 -1.1711832,-1.385196 -1.1837039,-1.386534 -1.1897396,-1.3877474 -1.1955057,-1.3896141 -1.2009371,-1.392292 -1.2060898,-1.3956451 -1.2159309,-1.4034771 -1.2159309,-1.4034771 -1.2236646,-1.414011 -1.2269538,-1.4194997 -1.22955,-1.4252545 -1.2313324,-1.4313217 -1.232469,-1.4376369 -1.2336662,-1.4506803 -1.2336662,-1.4506803 -1.2323901,-1.463852 -1.2312116,-1.4702311 -1.2293846,-1.476362 -1.2267473,-1.4821827 -1.2234291,-1.487743 -1.215658,-1.4984293 -1.215658,-1.4984293 -1.203657,-1.5077532 -1.1973816,-1.5118334 -1.1907776,-1.5152186 -1.1838142,-1.5178431 -1.1765742,-1.5198824 -1.1616335,-1.5229859 -1.1703647,-1.5720992 -1.1703647,-1.5720992 -1.1919986,-1.5664462 -1.2024037,-1.5628655 -1.2123147,-1.5583798 -1.2215967,-1.5527422 -1.2303339,-1.5461068 -1.2468995,-1.5311715 -1.2468995,-1.5311715 -1.2587239,-1.5130792 -1.2637551,-1.5037257 -1.2677296,-1.4940035 -1.270461,-1.4838474 -1.2722051,-1.4733469 -1.2740482,-1.4517718 -1.2740482,-1.4517718 -1.2730123,-1.4361148 -1.2706396,-1.4207719 -1.2660065,-1.40596 -1.2599963,-1.3914716 -1.2599963,-1.3914716 -1.2524655,-1.3790532 -1.2438332,-1.3676432 -1.2333239,-1.3579515 -1.2216607,-1.3493161 -1.2216607,-1.3493161 -1.2094591,-1.3432142 -1.1968834,-1.3384404 -1.1836784,-1.335902 -1.1700918,-1.3347185 -1.1700918,-1.3347185 -1.1575777,-1.3357845 -1.1454512,-1.3381618 -1.1339741,-1.3427355 -1.1228886,-1.348634 -1.1228886,-1.348634 -1.1123896,-1.3572367 -1.1030411,-1.3667965 -1.0955212,-1.3778773 -1.089055,-1.3898345 -1.089055,-1.3898345 -1.0839313,-1.3739526 -1.0808079,-1.3663621 -1.0770108,-1.3591923 -1.0723668,-1.3525511 -1.067005,-1.3463579 -1.055085,-1.3347185 -1.055085,-1.3347185 -1.0401301,-1.3260491 -1.0324444,-1.3223788 -1.0245092,-1.3195052 -1.0162855,-1.3175525 -1.0078349,-1.3163238 -0.9905557,-1.3150733 -0.9905557,-1.3150733 -0.9655425,-1.3180817 -0.9535156,-1.3207026 -0.9420643,-1.3246636 -0.9313151,-1.330259 -0.9211392,-1.3371888 -0.9017426,-1.3532724 -0.9017426,-1.3532724 -0.8859678,-1.3748621 -0.8792411,-1.3861021 -0.8739071,-1.3978763 -0.8702235,-1.4102835 -0.8678565,-1.4231957 -0.8653169,-1.4498618 -0.8653169,-1.4498618 -0.867465,-1.4738079 -0.869488,-1.4854337 -0.87265,-1.496643 -0.877244,-1.5073283 -0.8830527,-1.5175693 -0.8966949,-1.5373106 -0.8966949,-1.5373106 -0.9143493,-1.5526595 -0.9236386,-1.5593963 -0.9334823,-1.5650081 -0.9439901,-1.5692724 -0.9550317,-1.5724536 -0.9780045,-1.5770105 -0.984553,-1.5278973z" transform="matrix(1,0,0,-1,3.529262,3.65)" fill="rgb(116,116,116)" fill-rule="nonzero" shaper:cutDepth="0.05cm" stroke-linecap="round" stroke-linejoin="round" /><path d="M0.774175,-3.286007 L0.774175,-3.5463071 0.7066443,-3.5463071 0.3178312,-3.2725008 0.3178312,-3.2123371 0.7066443,-3.2123371 0.7066443,-3.1313002 0.774175,-3.1313002 0.774175,-3.2123371 0.9178312,-3.2123371 0.9178312,-3.286007 0.774175,-3.286007z M0.4361122,-3.286007 L0.7066443,-3.4738651 0.7066443,-3.286007 0.4361122,-3.286007z" transform="matrix(1,0,0,-1,3.529262,3.65)" fill="rgb(116,116,116)" fill-rule="nonzero" shaper:cutDepth="0.05cm" stroke-linecap="round" stroke-linejoin="round" /><path d="M0.4506416,-3.034097 L0.4506416,-3.034097 0.4224381,-3.0226456 0.4088593,-3.0161292 0.3959082,-3.008664 0.3837585,-2.9999872 0.3723079,-2.9902533 0.3505733,-2.9690219 0.3505733,-2.9690219 0.3351007,-2.9440754 0.3285403,-2.931211 0.3233903,-2.9178776 0.3198791,-2.9039993 0.3176601,-2.8896912 0.3153755,-2.8603589 0.3153755,-2.8603589 0.3166559,-2.8383382 0.3178889,-2.827467 0.3198335,-2.816763 0.3226786,-2.8062704 0.3262955,-2.795959 0.3348162,-2.7756385 0.3348162,-2.7756385 0.3461493,-2.7581051 0.3522784,-2.7497678 0.3589626,-2.7419458 0.3663147,-2.7347441 0.374206,-2.728043 0.3908871,-2.7154749 0.3908871,-2.7154749 0.4121306,-2.7036512 0.4339782,-2.6932567 0.4567734,-2.6851039 0.4801095,-2.6782307 0.4801095,-2.6782307 0.5152517,-2.671823 0.5328815,-2.6691901 0.5505808,-2.6672342 0.5861791,-2.6652662 0.6219239,-2.6647246 0.6219239,-2.6647246 0.6651454,-2.6656936 0.6866601,-2.6668843 0.7080596,-2.6689227 0.7293081,-2.6720721 0.7504143,-2.6762675 0.7923878,-2.6864162 0.7923878,-2.6864162 0.8206336,-2.6978037 0.8342347,-2.7042906 0.8472095,-2.7117294 0.8593851,-2.7203832 0.8708643,-2.7300956 0.8926606,-2.7512866 0.8926606,-2.7512866 0.9082393,-2.7763111 0.9148419,-2.7892191 0.9200215,-2.8026016 0.9235498,-2.8165348 0.925777,-2.8309018 0.9280631,-2.8603589 0.9280631,-2.8603589 0.9262427,-2.8801578 0.9236747,-2.8996098 0.9196116,-2.9183684 0.9167858,-2.9273792 0.9133059,-2.9360866 0.9090945,-2.9444548 0.9041953,-2.9525038 0.8927254,-2.9678266 0.8796825,-2.9824198 0.865853,-2.9966481 0.865853,-2.9966481 0.8374074,-3.0116594 0.8086684,-3.0255815 0.7940971,-3.0317937 0.7793425,-3.0373252 0.7643679,-3.0420401 0.7491548,-3.0458699 0.7337251,-3.0488952 0.7181057,-3.0512166 0.6864063,-3.0541497 0.6542735,-3.0554737 0.6219239,-3.0559933 0.6219239,-3.0559933 0.578487,-3.055027 0.5568661,-3.0538297 0.5353624,-3.0517755 0.5140125,-3.0485973 0.4928075,-3.0443583 0.4506416,-3.034097z M0.8185815,-2.9456932 L0.8185815,-2.9456932 0.8383045,-2.9285309 0.8469313,-2.9192627 0.8540764,-2.90917 0.8593359,-2.8980279 0.8629621,-2.8859769 0.8654985,-2.8733195 0.8674901,-2.8603589 0.8674901,-2.8603589 0.8654838,-2.8473838 0.8629309,-2.8347141 0.8592847,-2.8226549 0.8539998,-2.811511 0.8468254,-2.8014224 0.8381669,-2.7921627 0.8183769,-2.7750246 0.8183769,-2.7750246 0.794893,-2.765527 0.7712443,-2.7568246 0.7472659,-2.7497126 0.7228251,-2.744831 0.6979659,-2.7419675 0.6727929,-2.7406176 0.6219239,-2.7404408 0.6219239,-2.7404408 0.5709451,-2.7405845 0.545718,-2.7419211 0.5208057,-2.7447755 0.496313,-2.7496532 0.4722855,-2.7567744 0.4485905,-2.7654987 0.4250617,-2.7750246 0.4250617,-2.7750246 0.4053211,-2.7923973 0.3967014,-2.8017724 0.3895826,-2.8119739 0.3843668,-2.8232232 0.3807874,-2.8353737 0.3782997,-2.8481253 0.3763578,-2.8611775 0.3763578,-2.8611775 0.3798487,-2.8852575 0.38284,-2.8966412 0.3873262,-2.9072373 0.3936197,-2.9168813 0.4013772,-2.9257541 0.4193319,-2.9422143 0.4193319,-2.9422143 0.4434804,-2.9523962 0.4678056,-2.9617631 0.492484,-2.9695 0.5050095,-2.9725088 0.5176669,-2.974909 0.5433197,-2.9781497 0.5693251,-2.9797629 0.6219239,-2.980277 0.6219239,-2.980277 0.6728478,-2.9801167 0.6980479,-2.9787735 0.7229336,-2.9759146 0.7474004,-2.9710349 0.7714034,-2.9639183 0.7950752,-2.9552049 0.8185815,-2.9456932z" transform="matrix(1,0,0,-1,3.529262,3.65)" fill="rgb(116,116,116)" fill-rule="nonzero" shaper:cutDepth="0.05cm" stroke-linecap="round" stroke-linejoin="round" /><path d="M-1.4724111,-1.7854007 a0.15,0.15 0 1,1 0.3,0 a0.15,0.15 0 1,1 -0.3,0z" transform="matrix(1,0,0,-1,3.529262,3.65)" fill="rgb(255,255,255)" stroke="rgb(0,0,0)" stroke-width="0.0010cm" stroke-linecap="round" stroke-linejoin="round" shaper:cutDepth="0.3cm" /><path d="M1.87728,-1.8378185 a0.15,0.15 0 1,1 0.3,0 a0.15,0.15 0 1,1 -0.3,0z" transform="matrix(1,0,0,-1,3.529262,3.65)" fill="rgb(255,255,255)" stroke="rgb(0,0,0)" stroke-width="0.0010cm" stroke-linecap="round" stroke-linejoin="round" shaper:cutDepth="0.3cm" /><path d="M1.9094997,1.0096365 a0.15,0.15 0 1,1 0.3,0 a0.15,0.15 0 1,1 -0.3,0z" transform="matrix(1,0,0,-1,3.529262,3.65)" fill="rgb(255,255,255)" stroke="rgb(0,0,0)" stroke-width="0.0010cm" stroke-linecap="round" stroke-linejoin="round" shaper:cutDepth="0.3cm" /><path d="M0.0502468,-0.0724788 a0.15,0.15 0 1,1 0.3,0 a0.15,0.15 0 1,1 -0.3,0z" transform="matrix(1,0,0,-1,3.529262,3.65)" fill="rgb(255,255,255)" stroke="rgb(0,0,0)" stroke-width="0.0010cm" stroke-linecap="round" stroke-linejoin="round" shaper:cutDepth="0.3cm" /><path d="M-1.9495701,1.1730601 a0.15,0.15 0 1,1 0.3,0 a0.15,0.15 0 1,1 -0.3,0z" transform="matrix(1,0,0,-1,3.529262,3.65)" fill="rgb(255,255,255)" stroke="rgb(0,0,0)" stroke-width="0.0010cm" stroke-linecap="round" stroke-linejoin="round" shaper:cutDepth="0.3cm" /><path d="M-2.5342727,1.25 L-2.5342727,-1.25 -2.2342727,-1.25 -2.2342727,1.25 -2.5342727,1.25z" transform="matrix(1,0,0,-1,3.529262,3.65)" fill="rgb(255,255,255)" stroke="rgb(0,0,0)" stroke-width="0.0010cm" stroke-linecap="round" stroke-linejoin="round" shaper:cutDepth="0.3cm" /><path d="M2.979262,-3.25 a0.15,0.15 0 1,1 0.3,0 a0.15,0.15 0 1,1 -0.3,0z" transform="matrix(1,0,0,-1,3.529262,3.65)" fill="rgb(255,255,255)" stroke="rgb(0,0,0)" stroke-width="0.0010cm" stroke-linecap="round" stroke-linejoin="round" shaper:cutDepth="0.3cm" /><path d="M-1.520738,3.25 a0.15,0.15 0 1,1 0.3,0 a0.15,0.15 0 1,1 -0.3,0z" transform="matrix(1,0,0,-1,3.529262,3.65)" fill="rgb(255,255,255)" stroke="rgb(0,0,0)" stroke-width="0.0010cm" stroke-linecap="round" stroke-linejoin="round" shaper:cutDepth="0.3cm" /><path d="M2.979262,3.25 a0.15,0.15 0 1,1 0.3,0 a0.15,0.15 0 1,1 -0.3,0z" transform="matrix(1,0,0,-1,3.529262,3.65)" fill="rgb(255,255,255)" stroke="rgb(0,0,0)" stroke-width="0.0010cm" stroke-linecap="round" stroke-linejoin="round" shaper:cutDepth="0.3cm" /><path d="M-1.520738,-3.25 a0.15,0.15 0 1,1 0.3,0 a0.15,0.15 0 1,1 -0.3,0z" transform="matrix(1,0,0,-1,3.529262,3.65)" fill="rgb(255,255,255)" stroke="rgb(0,0,0)" stroke-width="0.0010cm" stroke-linecap="round" stroke-linejoin="round" shaper:cutDepth="0.3cm" /><path d="M-2.1707381,2 L-0.870738,2 -0.870738,2.7500001 -2.1707381,2.7500001 A0.3,0.3 90 0,1 -2.4707381,2.4500001 L-2.4707381,2.3 A0.3,0.3 180 0,1 -2.1707381,2z" transform="matrix(1,0,0,-1,3.529262,3.65)" fill="rgb(255,255,255)" stroke="rgb(0,0,0)" stroke-width="0.0010cm" stroke-linecap="round" stroke-linejoin="round" shaper:cutDepth="0.3cm" /></svg>