<?xml version="1.0" encoding="utf-8"?>
<!-- Generator: Fusion 360, Shaper Origin Export Add-In, Version 1.7.0  -->
<svg xmlns="http://www.w3.org/2000/svg" xmlns:xlink="http://www.w3.org/1999/xlink" xmlns:shaper="http://www.shapertools.com/namespaces/shaper" shaper:fusionaddin="version:1.7.0" width="7.058524cm" height="7.3cm" version="1.1" x="0cm" y="0cm" viewBox="0 0 7.058524 7.3" enable-background="new 0 0 7.058524 7.3" xml:space="preserve"><path d="M-3.529262,-2.0046781 L-1.8572407,-3.5690658 A0.3,0.3 226.9047902 0,1 -1.6522768,-3.65 L3.229262,-3.65 A0.3,0.3 270 0,1 3.529262,-3.35 L3.529262,-2.7885309 3.229262,-2.7885309 3.229262,-0.7885309 3.529262,-0.7885309 3.529262,3.35 A0.3,0.3 0 0,1 3.229262,3.65 L-1.6522768,3.65 A0.3,0.3 90 0,1 -1.8572407,3.5690658 L-3.529262,2.0046781 -3.529262,1.65 -3.2342727,1.65 -3.2342727,-1.65 -3.529262,-1.65 -3.529262,-2.0046781z" transform="matrix(1,0,0,-1,3.529262,3.65)" fill="rgb(0,0,0)" shaper:cutDepth="0.3cm" stroke-linecap="round" stroke-linejoin="round" /><path d="M0.4666498,-2.2445121 L0.4666498,-2.2445121 0.482408,-2.2411531 0.4900284,-2.2389427 0.4973383,-2.236095 0.5042457,-2.2324215 0.510789,-2.2280006 0.5232665,-2.2179091 0.5232665,-2.2179091 0.5313575,-2.2065948 0.5348268,-2.2007191 0.5376046,-2.194581 0.5395482,-2.1881265 0.5408169,-2.1814159 0.5422296,-2.167568 0.5422296,-2.167568 0.5400882,-2.1505452 0.5382393,-2.1423791 0.5354565,-2.1346274 0.5315401,-2.1273787 0.5267021,-2.1205388 0.5154902,-2.1075408 0.5154902,-2.1075408 0.4994594,-2.0966397 0.4911412,-2.0920352 0.4824599,-2.088445 0.4733624,-2.0860175 0.463939,-2.0845005 0.4445489,-2.0829841 0.4445489,-2.0829841 0.4263157,-2.0844004 0.4174702,-2.0858419 0.4089499,-2.0881632 0.4008464,-2.0916122 0.3931091,-2.0960521 0.378246,-2.1065858 0.378246,-2.1065858 0.3676721,-2.1202294 0.3631725,-2.127367 0.3596174,-2.1348837 0.3571737,-2.1428462 0.3556128,-2.1511629 0.3539622,-2.1683866 0.3539622,-2.1683866 0.3547374,-2.1795845 0.356544,-2.1905198 0.3601043,-2.2010089 0.3647399,-2.2112243 0.3647399,-2.2112243 0.3704494,-2.2199283 0.3768487,-2.2279865 0.3844194,-2.2349479 0.3927071,-2.2412379 0.3867044,-2.2873498 0.1812474,-2.2486049 0.1812474,-2.0496963 0.2281778,-2.0496963 0.2281778,-2.2093143 0.3356812,-2.2308695 0.3356812,-2.2308695 0.3253596,-2.2132988 0.320875,-2.2042921 0.3172017,-2.1950199 0.3145453,-2.1854149 0.3127465,-2.1755292 0.3105789,-2.1552897 0.3105789,-2.1552897 0.3133402,-2.1305876 0.3157912,-2.1186778 0.3195268,-2.1072973 0.3248429,-2.0965683 0.3314612,-2.086376 0.3468681,-2.0668859 0.3468681,-2.0668859 0.3675902,-2.0512524 0.3784058,-2.0445917 0.3897668,-2.0393182 0.4017723,-2.0356835 0.4142909,-2.0333539 0.4401832,-2.0308695 0.4401832,-2.0308695 0.4655635,-2.0331644 0.4779316,-2.0352566 0.4899132,-2.0384825 0.5014141,-2.0431185 0.5125137,-2.0489317 0.5340441,-2.0625203 0.5340441,-2.0625203 0.5447931,-2.0734597 0.5549361,-2.0846829 0.5638673,-2.0964739 0.5709809,-2.1091164 0.5759223,-2.1227765 0.5791205,-2.1372533 0.5811566,-2.1522745 0.5826116,-2.167568 0.5826116,-2.167568 0.5806503,-2.1918431 0.5787326,-2.20365 0.5756905,-2.2150602 0.5712199,-2.2259664 0.5655162,-2.2364375 0.5520523,-2.256654 0.5520523,-2.256654 0.5344996,-2.2720009 0.5252527,-2.2787199 0.5154413,-2.2842937 0.5049596,-2.2885078 0.4939424,-2.2916357 0.4710154,-2.296081 0.4666498,-2.2445121z" transform="matrix(1,0,0,-1,3.529262,3.65)" fill="rgb(116,116,116)" fill-rule="nonzero" shaper:cutDepth="0.05cm" stroke-linecap="round" stroke-linejoin="round" /><path d="M2.0367277,-0.2997159 L2.0367277,-0.5641088 2.0367277,-0.5641088 2.0280029,-0.5638539 2.019386,-0.5629581 2.0109494,-0.5609909 2.0026213,-0.558379 2.0026213,-0.558379 1.9883484,-0.5519083 1.9746235,-0.544528 1.9617688,-0.535703 1.9494153,-0.5260461 1.9494153,-0.5260461 1.9332838,-0.5109229 1.9177405,-0.4952396 1.9030562,-0.4787385 1.8888423,-0.4617896 1.8888423,-0.4617896 1.8692593,-0.4381889 1.8489008,-0.4153496 1.8270693,-0.3939564 1.804122,-0.3736587 1.804122,-0.3736587 1.7905395,-0.3647403 1.7835578,-0.3607931 1.7763476,-0.3574605 1.7688404,-0.3549269 1.7610617,-0.3531235 1.7450497,-0.3507391 1.7450497,-0.3507391 1.7312082,-0.3523548 1.7245477,-0.3537757 1.7181993,-0.3559321 1.7122335,-0.3589898 1.7065814,-0.3627866 1.6958,-0.3716123 1.6958,-0.3716123 1.6870077,-0.383793 1.683276,-0.3901344 1.6803411,-0.396777 1.6783356,-0.4037706 1.6770644,-0.4110417 1.6757455,-0.4260461 1.6757455,-0.4260461 1.6771141,-0.4417592 1.6784507,-0.449364 1.6805701,-0.4566669 1.6836837,-0.4635861 1.6876549,-0.4701745 1.6970279,-0.4827992 1.6970279,-0.4827992 1.7101812,-0.4923457 1.7170405,-0.4963755 1.7242385,-0.4995145 1.7318206,-0.501643 1.739702,-0.5029843 1.7559637,-0.5043544 1.7507796,-0.5548319 1.7507796,-0.5548319 1.7265831,-0.5507856 1.7149211,-0.5478317 1.7037826,-0.5437608 1.6933167,-0.538255 1.6834452,-0.5314807 1.664695,-0.5158142 1.664695,-0.5158142 1.6514178,-0.4950928 1.6458324,-0.4843749 1.6415083,-0.4732289 1.6386099,-0.4615994 1.6368206,-0.4495935 1.6350906,-0.4249547 1.6350906,-0.4249547 1.6370035,-0.3999643 1.6389521,-0.38783 1.6420912,-0.3761288 1.6467561,-0.3649826 1.6527625,-0.3543244 1.6670142,-0.3338224 1.6670142,-0.3338224 1.6843116,-0.3195935 1.6933855,-0.3134782 1.7029694,-0.3085619 1.7131735,-0.3051029 1.7238823,-0.3028302 1.7461411,-0.3002616 1.7461411,-0.3002616 1.7582836,-0.3010648 1.7702381,-0.3027776 1.781883,-0.3059872 1.7933444,-0.3100843 1.7933444,-0.3100843 1.8064685,-0.3168477 1.8190635,-0.3244147 1.8308506,-0.3332084 1.8421847,-0.34269 1.8421847,-0.34269 1.8606634,-0.360792 1.8785943,-0.379409 1.9125804,-0.4184062 1.9125804,-0.4184062 1.9371406,-0.4473305 1.9629214,-0.4751593 1.9629214,-0.4751593 1.9756818,-0.4862247 1.9895245,-0.495896 1.9895245,-0.2997159 2.0367277,-0.2997159z" transform="matrix(1,0,0,-1,3.529262,3.65)" fill="rgb(116,116,116)" fill-rule="nonzero" shaper:cutDepth="0.05cm" stroke-linecap="round" stroke-linejoin="round" /><path d="M-1.182604,1.558152 L-1.182604,1.558152 -1.1668445,1.561505 -1.1592233,1.5637126 -1.1519123,1.5665574 -1.1450035,1.5702283 -1.1384585,1.5746467 -1.1259771,1.5847334 -1.1259771,1.5847334 -1.1178819,1.5960446 -1.1144103,1.601919 -1.1116301,1.608056 -1.1096841,1.6145098 -1.1084129,1.6212199 -1.1069948,1.6350672 -1.1069948,1.6350672 -1.1091298,1.6520909 -1.1109756,1.6602577 -1.1137554,1.6680105 -1.117669,1.6752607 -1.1225044,1.6821023 -1.1337113,1.6951047 -1.1337113,1.6951047 -1.1497379,1.7060119 -1.1580544,1.7106195 -1.1667343,1.7142131 -1.1758309,1.7166441 -1.1852538,1.7181646 -1.2046433,1.7196884 -1.2046433,1.7196884 -1.222877,1.718279 -1.2317231,1.716841 -1.2402443,1.7145229 -1.2483491,1.711077 -1.256088,1.7066401 -1.2709552,1.696112 -1.2709552,1.696112 -1.2815342,1.6824725 -1.2860366,1.6753365 -1.2895946,1.6678213 -1.2920413,1.6598597 -1.2936054,1.6515435 -1.2952625,1.6343205 -1.2952625,1.6343205 -1.2944916,1.6231223 -1.2926892,1.6121863 -1.2891329,1.6016959 -1.2845012,1.5914787 -1.2845012,1.5914787 -1.278795,1.5827724 -1.2723987,1.5747118 -1.2648307,1.5677475 -1.2565454,1.5614544 -1.2625657,1.5153448 -1.4680079,1.5541681 -1.4679321,1.7530767 -1.4210017,1.7530588 -1.4210626,1.5934408 -1.3135674,1.5718445 -1.3135674,1.5718445 -1.3238822,1.5894192 -1.3283634,1.5984276 -1.3320331,1.6077012 -1.334686,1.6173072 -1.3364809,1.6271936 -1.3386409,1.6474339 -1.3386409,1.6474339 -1.3358701,1.6721349 -1.3334145,1.6840439 -1.3296746,1.6954229 -1.3243544,1.7061499 -1.3177323,1.7163396 -1.3023179,1.7358239 -1.3023179,1.7358239 -1.2815899,1.7514495 -1.2707717,1.758106 -1.2594087,1.7633752 -1.2474019,1.7670053 -1.2348824,1.7693302 -1.208989,1.7718046 -1.208989,1.7718046 -1.1836096,1.7695001 -1.1712424,1.7674032 -1.159262,1.7641727 -1.1477629,1.7595323 -1.1366655,1.7537148 -1.1151403,1.7401181 -1.1151403,1.7401181 -1.1043955,1.7291746 -1.0942567,1.7179475 -1.08533,1.7061532 -1.0782213,1.6935079 -1.073285,1.6798459 -1.0700923,1.6653679 -1.068062,1.6503459 -1.0666128,1.6350518 -1.0666128,1.6350518 -1.0685834,1.6107775 -1.0705056,1.5989713 -1.073552,1.5875623 -1.0780268,1.5766578 -1.0837345,1.5661889 -1.0972062,1.5459775 -1.0972062,1.5459775 -1.1147647,1.5306373 -1.1240141,1.5239218 -1.1338277,1.5183518 -1.144311,1.5141417 -1.1553294,1.511018 -1.178258,1.5065814 -1.182604,1.558152z" transform="matrix(1,0,0,-1,3.529262,3.65)" fill="rgb(116,116,116)" fill-rule="nonzero" shaper:cutDepth="0.05cm" stroke-linecap="round" stroke-linejoin="round" /><path d="M-1.0340308,-0.4396592 L-1.0340308,-0.7040521 -1.0340308,-0.7040521 -1.0427556,-0.7037972 -1.0513725,-0.7029013 -1.0598092,-0.7009342 -1.0681372,-0.6983222 -1.0681372,-0.6983222 -1.0824101,-0.6918516 -1.0961351,-0.6844713 -1.1089897,-0.6756463 -1.1213432,-0.6659894 -1.1213432,-0.6659894 -1.1374748,-0.6508662 -1.153018,-0.6351828 -1.1677023,-0.6186818 -1.1819162,-0.6017329 -1.1819162,-0.6017329 -1.2014992,-0.5781322 -1.2218577,-0.5552929 -1.2436892,-0.5338996 -1.2666365,-0.5136019 -1.2666365,-0.5136019 -1.2802191,-0.5046835 -1.2872007,-0.5007364 -1.2944109,-0.4974038 -1.3019181,-0.4948702 -1.3096969,-0.4930668 -1.3257088,-0.4906824 -1.3257088,-0.4906824 -1.3395503,-0.4922981 -1.3462109,-0.4937189 -1.3525592,-0.4958754 -1.358525,-0.4989331 -1.3641771,-0.5027299 -1.3749585,-0.5115555 -1.3749585,-0.5115555 -1.3837508,-0.5237363 -1.3874826,-0.5300777 -1.3904174,-0.5367202 -1.3924229,-0.5437139 -1.3936942,-0.5509849 -1.3950131,-0.5659893 -1.3950131,-0.5659893 -1.3936444,-0.5817025 -1.3923078,-0.5893073 -1.3901884,-0.5966102 -1.3870748,-0.6035294 -1.3831036,-0.6101177 -1.3737307,-0.6227424 -1.3737307,-0.6227424 -1.3605773,-0.632289 -1.353718,-0.6363188 -1.34652,-0.6394577 -1.3389379,-0.6415863 -1.3310565,-0.6429275 -1.3147948,-0.6442977 -1.319979,-0.6947752 -1.319979,-0.6947752 -1.3441754,-0.6907289 -1.3558374,-0.687775 -1.3669759,-0.6837041 -1.3774419,-0.6781983 -1.3873133,-0.671424 -1.4060635,-0.6557574 -1.4060635,-0.6557574 -1.4193407,-0.6350361 -1.4249262,-0.6243181 -1.4292502,-0.6131722 -1.4321486,-0.6015427 -1.4339379,-0.5895368 -1.4356679,-0.564898 -1.4356679,-0.564898 -1.433755,-0.5399076 -1.4318064,-0.5277733 -1.4286674,-0.5160721 -1.4240024,-0.5049259 -1.417996,-0.4942677 -1.4037443,-0.4737656 -1.4037443,-0.4737656 -1.3864469,-0.4595368 -1.3773731,-0.4534215 -1.3677891,-0.4485052 -1.357585,-0.4450462 -1.3468762,-0.4427734 -1.3246174,-0.4402049 -1.3246174,-0.4402049 -1.3124749,-0.4410081 -1.3005204,-0.4427208 -1.2888755,-0.4459305 -1.2774141,-0.4500276 -1.2774141,-0.4500276 -1.26429,-0.4567909 -1.2516951,-0.464358 -1.2399079,-0.4731516 -1.2285738,-0.4826333 -1.2285738,-0.4826333 -1.2100951,-0.5007353 -1.1921643,-0.5193523 -1.1581782,-0.5583495 -1.1581782,-0.5583495 -1.133618,-0.5872738 -1.1078371,-0.6151026 -1.1078371,-0.6151026 -1.0950767,-0.626168 -1.081234,-0.6358393 -1.081234,-0.4396592 -1.0340308,-0.4396592z" transform="matrix(1,0,0,-1,3.529262,3.65)" fill="rgb(116,116,116)" fill-rule="nonzero" shaper:cutDepth="0.05cm" stroke-linecap="round" stroke-linejoin="round" /><path d="M0.3619975,0.7725329 L0.3619975,0.7725329 0.3786075,0.7765992 0.3866648,0.7791264 0.3944249,0.7822466 0.4017943,0.7861461 0.4087919,0.7907874 0.4221612,0.8013188 0.4221612,0.8013188 0.4300566,0.812463 0.4334362,0.8182485 0.436134,0.8242902 0.4380136,0.8306393 0.4392345,0.8372358 0.4405786,0.8508413 0.4405786,0.8508413 0.4387492,0.8671916 0.4371264,0.8750752 0.4346541,0.8826089 0.4311367,0.8897122 0.4267585,0.896461 0.4165677,0.9093679 0.4165677,0.9093679 0.4034067,0.9195625 0.3965321,0.9239326 0.3893044,0.9274299 0.3816511,0.929875 0.3736538,0.9314698 0.3570861,0.9332424 0.3570861,0.9332424 0.3415496,0.9316683 0.3340474,0.9302188 0.3268645,0.9279743 0.3200803,0.9247374 0.3136304,0.920668 0.301288,0.9111414 0.301288,0.9111414 0.2918007,0.8986753 0.2877512,0.8921668 0.2845345,0.8853278 0.282308,0.8780959 0.2808733,0.8705498 0.2793235,0.854934 0.2793235,0.854934 0.2809748,0.8374458 0.2847805,0.8202819 0.24167,0.8257389 0.24167,0.8257389 0.2422158,0.8336516 0.2422158,0.8336516 0.2409964,0.8486102 0.2399012,0.8559478 0.2382234,0.8631154 0.2358252,0.8700728 0.2328301,0.8768559 0.2258447,0.8901318 0.2258447,0.8901318 0.2156274,0.9011132 0.2100971,0.9057779 0.2040611,0.9094519 0.1974337,0.9119672 0.1903382,0.9135656 0.1753672,0.9152342 0.1753672,0.9152342 0.1628465,0.9138962 0.1568108,0.9126828 0.1510448,0.9108161 0.1456133,0.9081383 0.1404606,0.9047851 0.1306196,0.8969531 0.1306196,0.8969531 0.1228858,0.8864192 0.1195966,0.8809305 0.1170004,0.8751757 0.115218,0.8691085 0.1140814,0.8627933 0.1128842,0.8497499 0.1128842,0.8497499 0.1141603,0.8365782 0.1153388,0.8301991 0.1171658,0.8240682 0.1198032,0.8182475 0.1231213,0.8126872 0.1308924,0.8020009 0.1308924,0.8020009 0.1428934,0.792677 0.1491689,0.7885968 0.1557728,0.7852116 0.1627362,0.7825871 0.1699762,0.7805478 0.184917,0.7774443 0.1761857,0.728331 0.1761857,0.728331 0.1545518,0.733984 0.1441467,0.7375647 0.1342357,0.7420504 0.1249537,0.747688 0.1162165,0.7543234 0.099651,0.7692587 0.099651,0.7692587 0.0878266,0.787351 0.0827953,0.7967045 0.0788208,0.8064267 0.0760895,0.8165828 0.0743453,0.8270833 0.0725023,0.8486585 0.0725023,0.8486585 0.0735381,0.8643154 0.0759108,0.8796583 0.0805439,0.8944702 0.0865541,0.9089586 0.0865541,0.9089586 0.094085,0.921377 0.1027173,0.932787 0.1132266,0.9424787 0.1248897,0.9511141 0.1248897,0.9511141 0.1370914,0.957216 0.149667,0.9619898 0.162872,0.9645282 0.1764586,0.9657117 0.1764586,0.9657117 0.1889727,0.9646457 0.2010992,0.9622684 0.2125763,0.9576947 0.2236619,0.9517962 0.2236619,0.9517962 0.2341608,0.9431935 0.2435093,0.9336337 0.2510292,0.9225529 0.2574954,0.9105957 0.2574954,0.9105957 0.2626192,0.9264776 0.2657425,0.9340681 0.2695396,0.9412379 0.2741836,0.9478791 0.2795454,0.9540723 0.2914654,0.9657117 0.2914654,0.9657117 0.3064204,0.9743811 0.314106,0.9780514 0.3220412,0.980925 0.330265,0.9828777 0.3387155,0.9841064 0.3559947,0.9853569 0.3559947,0.9853569 0.381008,0.9823485 0.3930349,0.9797276 0.4044861,0.9757666 0.4152353,0.9701712 0.4254113,0.9632414 0.4448078,0.9471578 0.4448078,0.9471578 0.4605826,0.9255681 0.4673093,0.9143281 0.4726433,0.9025539 0.476327,0.8901467 0.478694,0.8772345 0.4812335,0.8505684 0.4812335,0.8505684 0.4790854,0.8266223 0.4770624,0.8149965 0.4739005,0.8037872 0.4693064,0.7931019 0.4634978,0.7828609 0.4498556,0.7631196 0.4498556,0.7631196 0.4322011,0.7477707 0.4229118,0.7410339 0.4130681,0.7354221 0.4025603,0.7311578 0.3915187,0.7279766 0.3685459,0.7234197 0.3619975,0.7725329z" transform="matrix(1,0,0,-1,3.529262,3.65)" fill="rgb(116,116,116)" fill-rule="nonzero" shaper:cutDepth="0.05cm" stroke-linecap="round" stroke-linejoin="round" /><path d="M0.920725,-3.3693376 L0.4512844,-3.3693376 0.4512844,-3.3693376 0.4653588,-3.385765 0.4786307,-3.4027815 0.4906767,-3.4206979 0.5020347,-3.4391193 0.5020347,-3.4391193 0.5126932,-3.4579528 0.5227606,-3.4770739 0.5317742,-3.4967077 0.5400975,-3.5166773 0.4688833,-3.5166773 0.4688833,-3.5166773 0.4539688,-3.4879093 0.4460619,-3.4738194 0.4376153,-3.4600824 0.4284944,-3.4467865 0.4188069,-3.4338612 0.3984876,-3.4086282 0.3984876,-3.4086282 0.3804804,-3.3897048 0.3711485,-3.3806523 0.3614227,-3.372091 0.3511841,-3.3641689 0.3404751,-3.3568332 0.3182694,-3.3431439 0.3182694,-3.2956677 0.920725,-3.2956677 0.920725,-3.3693376z" transform="matrix(1,0,0,-1,3.529262,3.65)" fill="rgb(116,116,116)" fill-rule="nonzero" shaper:cutDepth="0.05cm" stroke-linecap="round" stroke-linejoin="round" /><path d="M0.4535354,-3.0850948 L0.4535354,-3.0850948 0.4253319,-3.0736434 0.4117532,-3.067127 0.398802,-3.0596618 0.3866523,-3.0509849 0.3752018,-3.0412511 0.3534672,-3.0200197 0.3534672,-3.0200197 0.3379945,-2.9950732 0.3314342,-2.9822088 0.3262842,-2.9688754 0.322773,-2.9549971 0.3205539,-2.940689 0.3182694,-2.9113567 0.3182694,-2.9113567 0.3195497,-2.889336 0.3207828,-2.8784648 0.3227274,-2.8677608 0.3255724,-2.8572682 0.3291893,-2.8469568 0.33771,-2.8266363 0.33771,-2.8266363 0.3490432,-2.8091029 0.3551723,-2.8007656 0.3618564,-2.7929437 0.3692086,-2.785742 0.3770999,-2.7790408 0.3937809,-2.7664727 0.3937809,-2.7664727 0.4150245,-2.754649 0.4368721,-2.7442545 0.4596673,-2.7361017 0.4830033,-2.7292284 0.4830033,-2.7292284 0.5181456,-2.7228208 0.5357753,-2.7201879 0.5534746,-2.718232 0.5890729,-2.7162639 0.6248178,-2.7157224 0.6248178,-2.7157224 0.6680392,-2.7166914 0.689554,-2.7178822 0.7109535,-2.7199205 0.7322019,-2.7230699 0.7533081,-2.7272653 0.7952816,-2.737414 0.7952816,-2.737414 0.8235274,-2.7488015 0.8371285,-2.7552884 0.8501034,-2.7627272 0.862279,-2.771381 0.8737582,-2.7810934 0.8955545,-2.8022844 0.8955545,-2.8022844 0.9111331,-2.8273089 0.9177358,-2.8402169 0.9229154,-2.8535994 0.9264436,-2.8675326 0.9286708,-2.8818996 0.9309569,-2.9113567 0.9309569,-2.9113567 0.9291365,-2.9311556 0.9265686,-2.9506076 0.9225055,-2.9693662 0.9196796,-2.978377 0.9161997,-2.9870844 0.9119884,-2.9954526 0.9070891,-3.0035016 0.8956192,-3.0188244 0.8825763,-3.0334176 0.8687469,-3.0476459 0.8687469,-3.0476459 0.8403012,-3.0626572 0.8115622,-3.0765793 0.796991,-3.0827915 0.7822363,-3.088323 0.7672617,-3.0930379 0.7520487,-3.0968677 0.7366189,-3.099893 0.7209995,-3.1022144 0.6893001,-3.1051475 0.6571673,-3.1064715 0.6248178,-3.1069911 0.6248178,-3.1069911 0.5813808,-3.1060248 0.5597599,-3.1048275 0.5382563,-3.1027733 0.5169063,-3.0995951 0.4957014,-3.0953561 0.4535354,-3.0850948z M0.8214754,-2.996691 L0.8214754,-2.996691 0.8411983,-2.9795287 0.8498251,-2.9702605 0.8569702,-2.9601678 0.8622297,-2.9490257 0.8658559,-2.9369747 0.8683924,-2.9243173 0.870384,-2.9113567 0.870384,-2.9113567 0.8683776,-2.8983816 0.8658247,-2.8857119 0.8621784,-2.8736528 0.8568936,-2.8625088 0.8497191,-2.8524203 0.8410607,-2.8431605 0.8212707,-2.8260224 0.8212707,-2.8260224 0.7977869,-2.8165248 0.7741382,-2.8078224 0.7501598,-2.8007103 0.7257189,-2.7958288 0.7008597,-2.7929652 0.6756868,-2.7916154 0.6248178,-2.7914386 0.6248178,-2.7914386 0.573839,-2.7915823 0.5486119,-2.7929189 0.5236995,-2.7957733 0.4992068,-2.800651 0.4751793,-2.8077722 0.4514843,-2.8164965 0.4279556,-2.8260224 0.4279556,-2.8260224 0.4082149,-2.8433951 0.3995953,-2.8527702 0.3924765,-2.8629717 0.3872606,-2.874221 0.3836813,-2.8863715 0.3811935,-2.8991231 0.3792516,-2.9121753 0.3792516,-2.9121753 0.3827425,-2.9362553 0.3857338,-2.947639 0.39022,-2.9582351 0.3965135,-2.9678791 0.404271,-2.9767519 0.4222257,-2.9932121 0.4222257,-2.9932121 0.4463742,-3.003394 0.4706994,-3.012761 0.4953778,-3.0204978 0.5079033,-3.0235066 0.5205607,-3.0259068 0.5462135,-3.0291475 0.572219,-3.0307608 0.6248178,-3.0312748 0.6248178,-3.0312748 0.6757417,-3.0311145 0.7009417,-3.0297713 0.7258275,-3.0269124 0.7502943,-3.0220327 0.7742972,-3.0149161 0.7979691,-3.0062027 0.8214754,-2.996691z" transform="matrix(1,0,0,-1,3.529262,3.65)" fill="rgb(116,116,116)" fill-rule="nonzero" shaper:cutDepth="0.05cm" stroke-linecap="round" stroke-linejoin="round" /><path d="M-1.6340308,-0.9079402 a0.15,0.15 0 1,1 0.3,0 a0.15,0.15 0 1,1 -0.3,0z" transform="matrix(1,0,0,-1,3.529262,3.65)" fill="rgb(255,255,255)" stroke="rgb(0,0,0)" stroke-width="0.0010cm" stroke-linecap="round" stroke-linejoin="round" shaper:cutDepth="0.3cm" /><path d="M-0.1258607,0.5150295 a0.15,0.15 0 1,1 0.3,0 a0.15,0.15 0 1,1 -0.3,0z" transform="matrix(1,0,0,-1,3.529262,3.65)" fill="rgb(255,255,255)" stroke="rgb(0,0,0)" stroke-width="0.0010cm" stroke-linecap="round" stroke-linejoin="round" shaper:cutDepth="0.3cm" /><path d="M-1.9388961,1.6168916 a0.15,0.15 0 1,1 0.3,0 a0.15,0.15 0 1,1 -0.3,0z" transform="matrix(1,0,0,-1,3.529262,3.65)" fill="rgb(255,255,255)" stroke="rgb(0,0,0)" stroke-width="0.0010cm" stroke-linecap="round" stroke-linejoin="round" shaper:cutDepth="0.3cm" /><path d="M1.4367277,-0.767997 a0.15,0.15 0 1,1 0.3,0 a0.15,0.15 0 1,1 -0.3,0z" transform="matrix(1,0,0,-1,3.529262,3.65)" fill="rgb(255,255,255)" stroke="rgb(0,0,0)" stroke-width="0.0010cm" stroke-linecap="round" stroke-linejoin="round" shaper:cutDepth="0.3cm" /><path d="M-0.0214812,-2.5026976 a0.15,0.15 0 1,1 0.3,0 a0.15,0.15 0 1,1 -0.3,0z" transform="matrix(1,0,0,-1,3.529262,3.65)" fill="rgb(255,255,255)" stroke="rgb(0,0,0)" stroke-width="0.0010cm" stroke-linecap="round" stroke-linejoin="round" shaper:cutDepth="0.3cm" /><path d="M-2.5342727,1.25 L-2.5342727,-1.25 -2.2342727,-1.25 -2.2342727,1.25 -2.5342727,1.25z" transform="matrix(1,0,0,-1,3.529262,3.65)" fill="rgb(255,255,255)" stroke="rgb(0,0,0)" stroke-width="0.0010cm" stroke-linecap="round" stroke-linejoin="round" shaper:cutDepth="0.3cm" /><path d="M2.979262,-3.25 a0.15,0.15 0 1,1 0.3,0 a0.15,0.15 0 1,1 -0.3,0z" transform="matrix(1,0,0,-1,3.529262,3.65)" fill="rgb(255,255,255)" stroke="rgb(0,0,0)" stroke-width="0.0010cm" stroke-linecap="round" stroke-linejoin="round" shaper:cutDepth="0.3cm" /><path d="M-1.520738,3.25 a0.15,0.15 0 1,1 0.3,0 a0.15,0.15 0 1,1 -0.3,0z" transform="matrix(1,0,0,-1,3.529262,3.65)" fill="rgb(255,255,255)" stroke="rgb(0,0,0)" stroke-width="0.0010cm" stroke-linecap="round" stroke-linejoin="round" shaper:cutDepth="0.3cm" /><path d="M2.979262,3.25 a0.15,0.15 0 1,1 0.3,0 a0.15,0.15 0 1,1 -0.3,0z" transform="matrix(1,0,0,-1,3.529262,3.65)" fill="rgb(255,255,255)" stroke="rgb(0,0,0)" stroke-width="0.0010cm" stroke-linecap="round" stroke-linejoin="round" shaper:cutDepth="0.3cm" /><path d="M-1.520738,-3.25 a0.15,0.15 0 1,1 0.3,0 a0.15,0.15 0 1,1 -0.3,0z" transform="matrix(1,0,0,-1,3.529262,3.65)" fill="rgb(255,255,255)" stroke="rgb(0,0,0)" stroke-width="0.0010cm" stroke-linecap="round" stroke-linejoin="round" shaper:cutDepth="0.3cm" /><path d="M-2.1707381,2 L-0.870738,2 -0.870738,2.7500001 -2.1707381,2.7500001 A0.3,0.3 90 0,1 -2.4707381,2.4500001 L-2.4707381,2.3 A0.3,0.3 180 0,1 -2.1707381,2z" transform="matrix(1,0,0,-1,3.529262,3.65)" fill="rgb(255,255,255)" stroke="rgb(0,0,0)" stroke-width="0.0010cm" stroke-linecap="round" stroke-linejoin="round" shaper:cutDepth="0.3cm" /></svg>