<?xml version="1.0" encoding="UTF-8"?>
<svg id="Layer_1" data-name="Layer 1" xmlns="http://www.w3.org/2000/svg" xmlns:shaper="http://www.shapertools.com/namespaces/shaper" version="1.1" viewBox="0 0 200.23 206.93">
  <defs>
    <style>
      .cls-1 {
        fill: #747474;
      }

      .cls-1, .cls-2 {
        stroke-width: 0px;
      }

      .cls-3 {
        fill: #fff;
        stroke: #000;
        stroke-linecap: round;
        stroke-linejoin: round;
        stroke-width: .8px;
      }

      .cls-2 {
        fill: #000;
      }
    </style>
  </defs>
  <g>
    <path class="cls-2" d="M0,151.65v8.5l47.54,44.48c1.58,1.47,3.65,2.29,5.81,2.29h138.37c4.7,0,8.5-3.81,8.5-8.5h0v-15.92h-8.5v-56.69h8.5V8.5C200.23,3.81,196.42,0,191.72,0H53.35C51.19,0,49.11.82,47.54,2.29L0,46.77v8.5" shaper:cutDepth="0.3cm"/>
    <path class="cls-3" d="M78.34,174.6c0,2.35,1.9,4.25,4.25,4.25s4.25-1.9,4.25-4.25h0c0-2.35-1.9-4.25-4.25-4.25s-4.25,1.9-4.25,4.25Z" shaper:cutDepth="0.3cm"/>
    <path class="cls-3" d="M135.37,63.81c0,2.35,1.9,4.25,4.25,4.25,2.35,0,4.25-1.9,4.25-4.25h0c0-2.35-1.9-4.26-4.25-4.26-2.35,0-4.25,1.9-4.25,4.25h0Z" shaper:cutDepth="0.3cm"/>
    <path class="cls-3" d="M55.97,83.12c0,2.35,1.9,4.25,4.25,4.25,2.35,0,4.25-1.9,4.25-4.25h0c0-2.35-1.9-4.26-4.25-4.26-2.35,0-4.25,1.9-4.25,4.25h0Z" shaper:cutDepth="0.3cm"/>
    <path class="cls-3" d="M113.95,119.88c0,2.35,1.9,4.25,4.25,4.25s4.25-1.9,4.25-4.25-1.9-4.25-4.25-4.25-4.25,1.9-4.25,4.25Z" shaper:cutDepth="0.3cm"/>
    <path class="cls-3" d="M146.65,169.24c0,2.35,1.9,4.25,4.25,4.25,2.35,0,4.25-1.9,4.25-4.25h0c0-2.35-1.9-4.26-4.25-4.26-2.35,0-4.25,1.9-4.25,4.25h0Z" shaper:cutDepth="0.3cm"/>
    <path class="cls-3" d="M28.35,68.03v70.87h8.5v-70.87h-8.5Z" shaper:cutDepth="0.3cm"/>
    <path class="cls-3" d="M184.64,195.59c0,2.35,1.9,4.25,4.25,4.25,2.35,0,4.25-1.9,4.25-4.25h0c0-2.35-1.9-4.26-4.25-4.26-2.35,0-4.25,1.9-4.25,4.25h0Z" shaper:cutDepth="0.3cm"/>
    <path class="cls-3" d="M57.08,11.34c0,2.35,1.9,4.25,4.25,4.25s4.25-1.9,4.25-4.25h0c0-2.35-1.9-4.25-4.25-4.25-2.35,0-4.25,1.9-4.25,4.25,0,0,0,0,0,0Z" shaper:cutDepth="0.3cm"/>
    <path class="cls-3" d="M184.64,11.34c0,2.35,1.9,4.25,4.25,4.25,2.35,0,4.25-1.9,4.25-4.25h0c0-2.35-1.9-4.26-4.25-4.26-2.35,0-4.25,1.9-4.25,4.25h0Z" shaper:cutDepth="0.3cm"/>
    <path class="cls-3" d="M57.08,195.59c0,2.35,1.9,4.25,4.25,4.25s4.25-1.9,4.25-4.25c0-2.35-1.9-4.25-4.25-4.25-2.35,0-4.25,1.9-4.25,4.25,0,0,0,0,0,0Z" shaper:cutDepth="0.3cm"/>
    <path class="cls-3" d="M38.65,46.77h36.85v-21.26h-36.85c-4.7,0-8.5,3.81-8.5,8.5v4.25c0,4.7,3.81,8.5,8.5,8.5Z" shaper:cutDepth="0.3cm"/>
  </g>
  <g>
    <path class="cls-1" d="M109.48,190.58v-11.01h1.62l1.08.9.55.43.57.41.58.39.6.37,1.21.71h0l1.43.73.72.35.73.32.74.29.75.27,1.52.5h0l1.15.29.58.13.58.11.59.09.59.07,1.18.11v2.15h0l-1.23-.1-.61-.07-.61-.09-.6-.11-.6-.13-1.2-.29h0l-1.41-.43-.7-.23-.69-.26-.68-.28-.67-.31-1.33-.65h0l-1.17-.66-.58-.35-.56-.36-.55-.38-.54-.4-1.05-.84v8.33h-2.01Z" shaper:cutDepth="0.05cm"/>
    <path class="cls-1" d="M126.27,192.96v11.24h-.37s-.37-.05-.37-.05l-.36-.08-.35-.11h0l-.61-.28-.58-.31-.55-.38-.53-.41h0l-.69-.64-.66-.67-.62-.7-.6-.72h0l-.83-1-.43-.49-.44-.48-.46-.46-.47-.45-.98-.86h0l-.58-.38-.3-.17-.31-.14-.32-.11-.33-.08-.68-.1h0l-.59.07-.28.06-.27.09-.25.13-.24.16-.46.38h0l-.37.52-.16.27-.12.28-.09.3-.05.31-.06.64h0l.06.67.06.32.09.31.13.29.17.28.4.54h0l.56.41.29.17.31.13.32.09.34.06.69.06-.22,2.15h0l-.52-.08-.51-.09-.5-.13-.47-.17-.23-.11-.22-.12-.42-.29-.4-.32-.39-.34h0l-.29-.44-.27-.44-.24-.46-.18-.47-.12-.49-.08-.51-.07-1.05h0l.03-.53.05-.53.08-.52.13-.5.09-.24.11-.23.26-.45.29-.44.31-.43h0l.36-.31.37-.29.39-.26.41-.21.43-.15.46-.1.47-.06.48-.05h0l.52.03.51.07.5.14.49.17h0l.56.29.54.32.5.37.48.4h0l.79.77.76.79.73.82.71.84h0l1.04,1.23.54.6.55.59h0l.54.47.59.41v-8.34h2.01Z" shaper:cutDepth="0.05cm"/>
    <path class="cls-1" d="M160.95,158.86v4.92h-1.28l-7.35-5.17v-1.14h7.35v-1.53h1.28v1.53h2.71v1.39h-2.71ZM154.56,158.86l5.11,3.55v-3.55h-5.11Z" shaper:cutDepth="0.05cm"/>
    <path class="cls-1" d="M127.79,112.56h0l.45-.1.22-.06.21-.08.2-.1.19-.13.35-.29h0l.23-.32.1-.17.08-.17.06-.18.04-.19.04-.39h0l-.06-.48-.05-.23-.08-.22-.11-.21-.14-.19-.32-.37h0l-.45-.31-.24-.13-.25-.1-.26-.07-.27-.04-.55-.04h0l-.52.04-.25.04-.24.07-.23.1-.22.13-.42.3h0l-.3.39-.13.2-.1.21-.07.23-.04.24-.05.49h0l.02.32.05.31.1.3.13.29h0l.16.25.18.23.21.2.23.18-.17,1.31-5.82-1.1v-5.64h1.33v4.52l3.05.61h0l-.29-.5-.13-.26-.1-.26-.08-.27-.05-.28-.06-.57h0l.08-.7.07-.34.11-.32.15-.3.19-.29.44-.55h0l.59-.44.31-.19.32-.15.34-.1.35-.07.73-.07h0l.72.07.35.06.34.09.33.13.31.16.61.39h0l.3.31.29.32.25.33.2.36.14.39.09.41.06.43.04.43h0l-.06.69-.05.33-.09.32-.13.31-.16.3-.38.57h0l-.5.44-.26.19-.28.16-.3.12-.31.09-.65.13-.12-1.46Z" shaper:cutDepth="0.05cm"/>
    <path class="cls-1" d="M92.17,167.28h0l.45-.1.22-.06.21-.08.2-.1.19-.13.35-.29h0l.23-.32.1-.17.08-.17.06-.18.04-.19.04-.39h0l-.06-.48-.05-.23-.08-.22-.11-.21-.14-.19-.32-.37h0l-.45-.31-.24-.13-.25-.1-.26-.07-.27-.04-.55-.04h0l-.52.04-.25.04-.24.07-.23.1-.22.13-.42.3h0l-.3.39-.13.2-.1.21-.07.23-.04.24-.05.49h0l.02.32.05.31.1.3.13.29h0l.16.25.18.23.21.2.23.18-.17,1.31-5.82-1.1v-5.64h1.33v4.52l3.05.61h0l-.29-.5-.13-.26-.1-.26-.08-.27-.05-.28-.06-.57h0l.08-.7.07-.34.11-.32.15-.3.19-.29.44-.55h0l.59-.44.31-.19.32-.15.34-.1.35-.07.73-.07h0l.72.07.35.06.34.09.33.13.31.16.61.39h0l.3.31.29.32.25.33.2.36.14.39.09.41.06.43.04.43h0l-.06.69-.05.33-.09.32-.13.31-.16.3-.38.57h0l-.5.44-.26.19-.28.16-.3.12-.31.09-.65.13-.12-1.46Z" shaper:cutDepth="0.05cm"/>
    <path class="cls-1" d="M72.98,69.84v7.49h-.25s-.24-.03-.24-.03l-.24-.06-.24-.07h0l-.4-.18-.39-.21-.36-.25-.35-.27h0l-.46-.43-.44-.44-.42-.47-.4-.48h0l-.56-.67-.58-.65-.62-.61-.65-.58h0l-.39-.25-.2-.11-.2-.09-.21-.07-.22-.05-.45-.07h0l-.39.05-.19.04-.18.06-.17.09-.16.11-.31.25h0l-.25.35-.11.18-.08.19-.06.2-.04.21-.04.43h0l.04.45.04.22.06.21.09.2.11.19.27.36h0l.37.27.19.11.2.09.21.06.22.04.46.04-.15,1.43h0l-.69-.11-.33-.08-.32-.12-.3-.16-.28-.19-.53-.44h0l-.38-.59-.16-.3-.12-.32-.08-.33-.05-.34-.05-.7h0l.05-.71.06-.34.09-.33.13-.32.17-.3.4-.58h0l.49-.4.26-.17.27-.14.29-.1.3-.06.63-.07h0l.34.02.34.05.33.09.32.12h0l.37.19.36.21.33.25.32.27h0l.52.51.51.53.96,1.11h0l.7.82.73.79h0l.36.31.39.27v-5.56h1.34Z" shaper:cutDepth="0.05cm"/>
    <path class="cls-1" d="M149.21,56.49h0l.45-.1.22-.06.21-.08.2-.1.19-.13.35-.29h0l.23-.32.1-.17.08-.17.06-.18.04-.19.04-.39h0l-.06-.48-.05-.23-.08-.22-.11-.21-.14-.19-.32-.37h0l-.45-.31-.24-.13-.25-.1-.26-.07-.27-.04-.55-.04h0l-.52.04-.25.04-.24.07-.23.1-.22.13-.42.3h0l-.3.39-.13.2-.1.21-.07.23-.04.24-.05.49h0l.02.32.05.31.1.3.13.29h0l.16.25.18.23.21.2.23.18-.17,1.31-5.82-1.1v-5.64h1.33v4.52l3.05.61h0l-.29-.5-.13-.26-.1-.26-.08-.27-.05-.28-.06-.57h0l.08-.7.07-.34.11-.32.15-.3.19-.29.44-.55h0l.59-.44.31-.19.32-.15.34-.1.35-.07.73-.07h0l.72.07.35.06.34.09.33.13.31.16.61.39h0l.3.31.29.32.25.33.2.36.14.39.09.41.06.43.04.43h0l-.06.69-.05.33-.09.32-.13.31-.16.3-.38.57h0l-.5.44-.26.19-.28.16-.3.12-.31.09-.65.13-.12-1.46Z" shaper:cutDepth="0.05cm"/>
  </g>
</svg>