<?xml version="1.0" encoding="utf-8"?>
<!-- Generator: Fusion 360, Shaper Origin Export Add-In, Version 1.7.0  -->
<svg xmlns="http://www.w3.org/2000/svg" xmlns:xlink="http://www.w3.org/1999/xlink" xmlns:shaper="http://www.shapertools.com/namespaces/shaper" shaper:fusionaddin="version:1.7.0" width="7.058524cm" height="7.3cm" version="1.1" x="0cm" y="0cm" viewBox="0 0 7.058524 7.3" enable-background="new 0 0 7.058524 7.3" xml:space="preserve"><path d="M-3.529262,-2.0046781 L-1.8572407,-3.5690658 A0.3,0.3 226.9047902 0,1 -1.6522768,-3.65 L3.229262,-3.65 A0.3,0.3 270 0,1 3.529262,-3.35 L3.529262,-2.7885309 3.229262,-2.7885309 3.229262,-0.7885309 3.529262,-0.7885309 3.529262,3.35 A0.3,0.3 0 0,1 3.229262,3.65 L-1.6522768,3.65 A0.3,0.3 90 0,1 -1.8572407,3.5690658 L-3.529262,2.0046781 -3.529262,1.65 -3.2342727,1.65 -3.2342727,-1.65 -3.529262,-1.65 -3.529262,-2.0046781z" transform="matrix(1,0,0,-1,3.529262,3.65)" fill="rgb(0,0,0)" shaper:cutDepth="0.3cm" stroke-linecap="round" stroke-linejoin="round" /><path d="M1.6165748,-2.2698945 L1.6165748,-2.2698945 1.6331848,-2.2658282 1.6412422,-2.263301 1.6490022,-2.2601808 1.6563717,-2.2562813 1.6633693,-2.25164 1.6767385,-2.2411086 1.6767385,-2.2411086 1.684634,-2.2299644 1.6880136,-2.2241789 1.6907113,-2.2181372 1.692591,-2.2117881 1.6938119,-2.2051916 1.695156,-2.1915861 1.695156,-2.1915861 1.6933266,-2.1752358 1.6917038,-2.1673522 1.6892314,-2.1598185 1.685714,-2.1527152 1.6813359,-2.1459664 1.6711451,-2.1330595 1.6711451,-2.1330595 1.6579841,-2.1228649 1.6511094,-2.1184949 1.6438818,-2.1149975 1.6362285,-2.1125524 1.6282312,-2.1109576 1.6116635,-2.1091851 1.6116635,-2.1091851 1.596127,-2.1107591 1.5886248,-2.1122086 1.5814419,-2.1144531 1.5746576,-2.11769 1.5682078,-2.1217594 1.5558654,-2.131286 1.5558654,-2.131286 1.5463781,-2.1437522 1.5423286,-2.1502607 1.5391119,-2.1570996 1.5368854,-2.1643315 1.5354507,-2.1718776 1.5339009,-2.1874934 1.5339009,-2.1874934 1.5355522,-2.2049816 1.5393579,-2.2221455 1.4962474,-2.2166885 1.4962474,-2.2166885 1.4967931,-2.2087758 1.4967931,-2.2087758 1.4955737,-2.1938172 1.4944786,-2.1864796 1.4928008,-2.179312 1.4904026,-2.1723546 1.4874074,-2.1655715 1.4804221,-2.1522956 1.4804221,-2.1522956 1.4702047,-2.1413143 1.4646745,-2.1366495 1.4586385,-2.1329755 1.4520111,-2.1304602 1.4449156,-2.1288618 1.4299446,-2.1271933 1.4299446,-2.1271933 1.4174239,-2.1285312 1.4113882,-2.1297446 1.4056221,-2.1316113 1.4001907,-2.1342892 1.395038,-2.1376423 1.3851969,-2.1454743 1.3851969,-2.1454743 1.3774632,-2.1560082 1.374174,-2.1614969 1.3715778,-2.1672517 1.3697954,-2.1733189 1.3686588,-2.1796341 1.3674616,-2.1926775 1.3674616,-2.1926775 1.3687377,-2.2058492 1.3699162,-2.2122283 1.3717432,-2.2183592 1.3743805,-2.22418 1.3776987,-2.2297402 1.3854698,-2.2404265 1.3854698,-2.2404265 1.3974708,-2.2497504 1.4037462,-2.2538306 1.4103502,-2.2572158 1.4173136,-2.2598403 1.4245536,-2.2618796 1.4394943,-2.2649831 1.4307631,-2.3140964 1.4307631,-2.3140964 1.4091292,-2.3084434 1.3987241,-2.3048627 1.3888131,-2.300377 1.3795311,-2.2947394 1.3707939,-2.288104 1.3542283,-2.2731687 1.3542283,-2.2731687 1.3424039,-2.2550764 1.3373727,-2.2457229 1.3333982,-2.2360007 1.3306668,-2.2258446 1.3289227,-2.2153441 1.3270796,-2.193769 1.3270796,-2.193769 1.3281155,-2.178112 1.3304882,-2.1627691 1.3351213,-2.1479572 1.3411315,-2.1334688 1.3411315,-2.1334688 1.3486623,-2.1210504 1.3572946,-2.1096404 1.3678039,-2.0999487 1.3794671,-2.0913133 1.3794671,-2.0913133 1.3916687,-2.0852114 1.4042444,-2.0804376 1.4174494,-2.0778993 1.431036,-2.0767157 1.431036,-2.0767157 1.4435501,-2.0777817 1.4556766,-2.080159 1.4671537,-2.0847327 1.4782392,-2.0906312 1.4782392,-2.0906312 1.4887382,-2.099234 1.4980867,-2.1087937 1.5056066,-2.1198745 1.5120728,-2.1318317 1.5120728,-2.1318317 1.5171965,-2.1159498 1.5203199,-2.1083593 1.524117,-2.1011895 1.528761,-2.0945483 1.5341228,-2.0883551 1.5460428,-2.0767157 1.5460428,-2.0767157 1.5609977,-2.0680463 1.5686834,-2.064376 1.5766186,-2.0615024 1.5848423,-2.0595497 1.5932929,-2.058321 1.6105721,-2.0570705 1.6105721,-2.0570705 1.6355853,-2.0600789 1.6476122,-2.0626998 1.6590635,-2.0666608 1.6698127,-2.0722562 1.6799886,-2.079186 1.6993852,-2.0952696 1.6993852,-2.0952696 1.71516,-2.1168593 1.7218867,-2.1280993 1.7272207,-2.1398735 1.7309043,-2.1522807 1.7332713,-2.1651929 1.7358109,-2.191859 1.7358109,-2.191859 1.7336628,-2.2158051 1.7316398,-2.2274309 1.7284778,-2.2386402 1.7238838,-2.2493255 1.7180751,-2.2595665 1.7044329,-2.2793078 1.7044329,-2.2793078 1.6867785,-2.2946567 1.6774892,-2.3013936 1.6676455,-2.3070053 1.6571377,-2.3112696 1.6460961,-2.3144508 1.6231233,-2.3190077 1.6165748,-2.2698945z" transform="matrix(1,0,0,-1,3.529262,3.65)" fill="rgb(116,116,116)" fill-rule="nonzero" shaper:cutDepth="0.05cm" stroke-linecap="round" stroke-linejoin="round" /><path d="M-1.2961236,-0.356871 L-1.2961236,-0.356871 -1.2803654,-0.353512 -1.272745,-0.3513016 -1.2654351,-0.3484539 -1.2585277,-0.3447804 -1.2519844,-0.3403595 -1.2395069,-0.330268 -1.2395069,-0.330268 -1.2314159,-0.3189537 -1.2279466,-0.313078 -1.2251688,-0.30694 -1.2232252,-0.3004854 -1.2219565,-0.2937748 -1.2205437,-0.2799269 -1.2205437,-0.2799269 -1.2226852,-0.2629041 -1.2245341,-0.254738 -1.2273169,-0.2469863 -1.2312333,-0.2397376 -1.2360713,-0.2328978 -1.2472832,-0.2198997 -1.2472832,-0.2198997 -1.263314,-0.2089986 -1.2716322,-0.2043942 -1.2803135,-0.2008039 -1.289411,-0.1983764 -1.2988344,-0.1968594 -1.3182245,-0.1953431 -1.3182245,-0.1953431 -1.3364577,-0.1967594 -1.3453032,-0.1982008 -1.3538235,-0.2005221 -1.361927,-0.2039711 -1.3696643,-0.208411 -1.3845274,-0.2189447 -1.3845274,-0.2189447 -1.3951013,-0.2325883 -1.3996009,-0.239726 -1.403156,-0.2472426 -1.4055997,-0.2552051 -1.4071606,-0.2635218 -1.4088112,-0.2807455 -1.4088112,-0.2807455 -1.408036,-0.2919434 -1.4062294,-0.3028787 -1.4026691,-0.3133678 -1.3980335,-0.3235832 -1.3980335,-0.3235832 -1.392324,-0.3322872 -1.3859247,-0.3403454 -1.378354,-0.3473068 -1.3700663,-0.3535968 -1.376069,-0.3997087 -1.581526,-0.3609638 -1.581526,-0.1620552 -1.5345956,-0.1620552 -1.5345956,-0.3216732 -1.4270922,-0.3432284 -1.4270922,-0.3432284 -1.4374138,-0.3256577 -1.4418984,-0.316651 -1.4455717,-0.3073788 -1.4482281,-0.2977738 -1.4500269,-0.2878881 -1.4521945,-0.2676486 -1.4521945,-0.2676486 -1.4494332,-0.2429466 -1.4469822,-0.2310367 -1.4432466,-0.2196563 -1.4379305,-0.2089272 -1.4313122,-0.1987349 -1.4159053,-0.1792448 -1.4159053,-0.1792448 -1.3951832,-0.1636113 -1.3843676,-0.1569507 -1.3730066,-0.1516771 -1.3610011,-0.1480424 -1.3484825,-0.1457128 -1.3225901,-0.1432285 -1.3225901,-0.1432285 -1.2972099,-0.1455233 -1.2848418,-0.1476155 -1.2728602,-0.1508414 -1.2613593,-0.1554774 -1.2502597,-0.1612907 -1.2287293,-0.1748792 -1.2287293,-0.1748792 -1.2179803,-0.1858186 -1.2078373,-0.1970418 -1.1989061,-0.2088328 -1.1917925,-0.2214753 -1.1868511,-0.2351354 -1.1836529,-0.2496122 -1.1816168,-0.2646335 -1.1801618,-0.2799269 -1.1801618,-0.2799269 -1.1821231,-0.304202 -1.1840408,-0.316009 -1.1870829,-0.3274191 -1.1915535,-0.3383253 -1.1972572,-0.3487964 -1.2107211,-0.3690129 -1.2107211,-0.3690129 -1.2282738,-0.3843598 -1.2375207,-0.3910789 -1.2473321,-0.3966527 -1.2578138,-0.4008667 -1.268831,-0.4039946 -1.2917579,-0.4084399 -1.2961236,-0.356871z" transform="matrix(1,0,0,-1,3.529262,3.65)" fill="rgb(116,116,116)" fill-rule="nonzero" shaper:cutDepth="0.05cm" stroke-linecap="round" stroke-linejoin="round" /><path d="M-0.2145471,1.8070208 L-0.2145471,1.5426279 -0.2145471,1.5426279 -0.2232719,1.5428829 -0.2318888,1.5437787 -0.2403255,1.5457458 -0.2486535,1.5483578 -0.2486535,1.5483578 -0.2629264,1.5548285 -0.2766514,1.5622087 -0.289506,1.5710337 -0.3018595,1.5806907 -0.3018595,1.5806907 -0.3179911,1.5958139 -0.3335343,1.6114972 -0.3482186,1.6279982 -0.3624325,1.6449471 -0.3624325,1.6449471 -0.3820155,1.6685478 -0.402374,1.6913872 -0.4242055,1.7127804 -0.4471528,1.7330781 -0.4471528,1.7330781 -0.4607354,1.7419965 -0.467717,1.7459436 -0.4749272,1.7492762 -0.4824344,1.7518098 -0.4902132,1.7536132 -0.5062251,1.7559976 -0.5062251,1.7559976 -0.5200666,1.7543819 -0.5267272,1.7529611 -0.5330755,1.7508046 -0.5390413,1.747747 -0.5446935,1.7439501 -0.5554748,1.7351245 -0.5554748,1.7351245 -0.5642671,1.7229437 -0.5679989,1.7166023 -0.5709337,1.7099598 -0.5729392,1.7029661 -0.5742105,1.6956951 -0.5755294,1.6806907 -0.5755294,1.6806907 -0.5741607,1.6649776 -0.5728241,1.6573727 -0.5707047,1.6500699 -0.5675911,1.6431506 -0.5636199,1.6365623 -0.554247,1.6239376 -0.554247,1.6239376 -0.5410936,1.614391 -0.5342343,1.6103613 -0.5270363,1.6072223 -0.5194542,1.6050937 -0.5115728,1.6037525 -0.4953111,1.6023823 -0.5004953,1.5519049 -0.5004953,1.5519049 -0.5246917,1.5559512 -0.5363537,1.5589051 -0.5474922,1.5629759 -0.5579582,1.5684817 -0.5678296,1.5752561 -0.5865798,1.5909226 -0.5865798,1.5909226 -0.599857,1.6116439 -0.6054425,1.6223619 -0.6097665,1.6335078 -0.6126649,1.6451374 -0.6144542,1.6571432 -0.6161842,1.6817821 -0.6161842,1.6817821 -0.6142713,1.7067724 -0.6123227,1.7189067 -0.6091837,1.730608 -0.6045187,1.7417541 -0.5985123,1.7524124 -0.5842606,1.7729144 -0.5842606,1.7729144 -0.5669632,1.7871432 -0.5578894,1.7932585 -0.5483054,1.7981749 -0.5381013,1.8016338 -0.5273925,1.8039066 -0.5051337,1.8064751 -0.5051337,1.8064751 -0.4929912,1.8056719 -0.4810367,1.8039592 -0.4693918,1.8007495 -0.4579305,1.7966525 -0.4579305,1.7966525 -0.4448063,1.7898891 -0.4322114,1.782322 -0.4204242,1.7735284 -0.4090901,1.7640467 -0.4090901,1.7640467 -0.3906114,1.7459447 -0.3726806,1.7273277 -0.3386945,1.6883305 -0.3386945,1.6883305 -0.3141343,1.6594063 -0.2883534,1.6315774 -0.2883534,1.6315774 -0.275593,1.620512 -0.2617503,1.6108407 -0.2617503,1.8070208 -0.2145471,1.8070208z" transform="matrix(1,0,0,-1,3.529262,3.65)" fill="rgb(116,116,116)" fill-rule="nonzero" shaper:cutDepth="0.05cm" stroke-linecap="round" stroke-linejoin="round" /><path d="M2.8110457,1.5020621 L2.8110457,1.5020621 2.8268039,1.5054211 2.8344243,1.5076316 2.8417341,1.5104792 2.8486416,1.5141528 2.8551848,1.5185736 2.8676624,1.5286651 2.8676624,1.5286651 2.8757533,1.5399794 2.8792226,1.5458551 2.8820005,1.5519932 2.883944,1.5584477 2.8852127,1.5651583 2.8866255,1.5790062 2.8866255,1.5790062 2.8844841,1.596029 2.8826351,1.6041951 2.8798524,1.6119468 2.875936,1.6191956 2.871098,1.6260354 2.8598861,1.6390335 2.8598861,1.6390335 2.8438553,1.6499345 2.8355371,1.654539 2.8268558,1.6581293 2.8177583,1.6605568 2.8083349,1.6620737 2.7889447,1.6635901 2.7889447,1.6635901 2.7707116,1.6621738 2.761866,1.6607323 2.7533457,1.658411 2.7452422,1.654962 2.737505,1.6505221 2.7226419,1.6399884 2.7226419,1.6399884 2.712068,1.6263448 2.7075684,1.6192072 2.7040132,1.6116906 2.7015696,1.603728 2.7000087,1.5954113 2.6983581,1.5781876 2.6983581,1.5781876 2.6991333,1.5669898 2.7009398,1.5560544 2.7045002,1.5455654 2.7091357,1.53535 2.7091357,1.53535 2.7148453,1.5266459 2.7212446,1.5185877 2.7288153,1.5116263 2.737103,1.5053363 2.7311003,1.4592245 2.5256432,1.4979693 2.5256432,1.6968779 2.5725737,1.6968779 2.5725737,1.5372599 2.6800771,1.5157047 2.6800771,1.5157047 2.6697555,1.5332754 2.6652709,1.5422821 2.6615976,1.5515543 2.6589411,1.5611593 2.6571424,1.571045 2.6549747,1.5912845 2.6549747,1.5912845 2.657736,1.6159866 2.6601871,1.6278964 2.6639227,1.6392769 2.6692388,1.6500059 2.675857,1.6601982 2.691264,1.6796883 2.691264,1.6796883 2.711986,1.6953218 2.7228017,1.7019825 2.7341627,1.707256 2.7461681,1.7108907 2.7586867,1.7132204 2.7845791,1.7157047 2.7845791,1.7157047 2.8099594,1.7134098 2.8223275,1.7113176 2.8343091,1.7080917 2.84581,1.7034557 2.8569096,1.6976425 2.87844,1.6840539 2.87844,1.6840539 2.8891889,1.6731146 2.899332,1.6618913 2.9082632,1.6501004 2.9153767,1.6374578 2.9203182,1.6237977 2.9235164,1.6093209 2.9255525,1.5942997 2.9270075,1.5790062 2.9270075,1.5790062 2.9250462,1.5547311 2.9231285,1.5429242 2.9200864,1.531514 2.9156158,1.5206078 2.9099121,1.5101368 2.8964481,1.4899202 2.8964481,1.4899202 2.8788955,1.4745733 2.8696486,1.4678543 2.8598372,1.4622805 2.8493554,1.4580664 2.8383382,1.4549385 2.8154113,1.4504932 2.8110457,1.5020621z" transform="matrix(1,0,0,-1,3.529262,3.65)" fill="rgb(116,116,116)" fill-rule="nonzero" shaper:cutDepth="0.05cm" stroke-linecap="round" stroke-linejoin="round" /><path d="M1.0757521,0.111426 L1.0757521,0.111426 1.0915103,0.114785 1.0991307,0.1169955 1.1064406,0.1198431 1.113348,0.1235167 1.1198913,0.1279375 1.1323688,0.138029 1.1323688,0.138029 1.1404598,0.1493433 1.1439291,0.155219 1.146707,0.1613571 1.1486505,0.1678117 1.1499192,0.1745223 1.151332,0.1883701 1.151332,0.1883701 1.1491905,0.2053929 1.1473416,0.213559 1.1445588,0.2213107 1.1406424,0.2285595 1.1358044,0.2353993 1.1245925,0.2483974 1.1245925,0.2483974 1.1085618,0.2592984 1.1002435,0.2639029 1.0915623,0.2674932 1.0824648,0.2699207 1.0730413,0.2714376 1.0536512,0.272954 1.0536512,0.272954 1.035418,0.2715377 1.0265725,0.2700963 1.0180522,0.2677749 1.0099487,0.264326 1.0022114,0.2598861 0.9873483,0.2493523 0.9873483,0.2493523 0.9767744,0.2357088 0.9722748,0.2285711 0.9687197,0.2210545 0.966276,0.2130919 0.9647151,0.2047752 0.9630646,0.1875515 0.9630646,0.1875515 0.9638397,0.1763537 0.9656463,0.1654183 0.9692066,0.1549293 0.9738422,0.1447139 0.9738422,0.1447139 0.9795517,0.1360098 0.9859511,0.1279516 0.9935217,0.1209902 1.0018095,0.1147003 0.9958067,0.0685884 0.7903497,0.1073332 0.7903497,0.3062418 0.8372801,0.3062418 0.8372801,0.1466238 0.9447835,0.1250686 0.9447835,0.1250686 0.934462,0.1426393 0.9299773,0.151646 0.9263041,0.1609182 0.9236476,0.1705232 0.9218489,0.180409 0.9196812,0.2006484 0.9196812,0.2006484 0.9224425,0.2253505 0.9248936,0.2372604 0.9286292,0.2486408 0.9339452,0.2593698 0.9405635,0.2695621 0.9559704,0.2890522 0.9559704,0.2890522 0.9766925,0.3046857 0.9875081,0.3113464 0.9988691,0.3166199 1.0108746,0.3202546 1.0233932,0.3225843 1.0492856,0.3250686 1.0492856,0.3250686 1.0746658,0.3227737 1.0870339,0.3206815 1.0990155,0.3174556 1.1105164,0.3128196 1.121616,0.3070064 1.1431464,0.2934178 1.1431464,0.2934178 1.1538954,0.2824785 1.1640384,0.2712552 1.1729696,0.2594643 1.1800832,0.2468218 1.1850246,0.2331616 1.1882229,0.2186848 1.1902589,0.2036636 1.1917139,0.1883701 1.1917139,0.1883701 1.1897526,0.164095 1.187835,0.1522881 1.1847928,0.1408779 1.1803222,0.1299717 1.1746185,0.1195007 1.1611546,0.0992841 1.1611546,0.0992841 1.1436019,0.0839372 1.134355,0.0772182 1.1245436,0.0716444 1.1140619,0.0674303 1.1030447,0.0643025 1.0801178,0.0598571 1.0757521,0.111426z" transform="matrix(1,0,0,-1,3.529262,3.65)" fill="rgb(116,116,116)" fill-rule="nonzero" shaper:cutDepth="0.05cm" stroke-linecap="round" stroke-linejoin="round" /><path d="M0.9253669,-3.371976 L0.4559262,-3.371976 0.4559262,-3.371976 0.4700007,-3.3884035 0.4832726,-3.40542 0.4953186,-3.4233364 0.5066765,-3.4417578 0.5066765,-3.4417578 0.5173351,-3.4605912 0.5274025,-3.4797123 0.536416,-3.4993461 0.5447393,-3.5193157 0.4735251,-3.5193157 0.4735251,-3.5193157 0.4586106,-3.4905477 0.4507037,-3.4764578 0.4422572,-3.4627209 0.4331363,-3.449425 0.4234488,-3.4364996 0.4031294,-3.4112666 0.4031294,-3.4112666 0.3851222,-3.3923432 0.3757903,-3.3832908 0.3660645,-3.3747294 0.3558259,-3.3668073 0.3451169,-3.3594716 0.3229112,-3.3457823 0.3229112,-3.2983062 0.9253669,-3.2983062 0.9253669,-3.371976z" transform="matrix(1,0,0,-1,3.529262,3.65)" fill="rgb(116,116,116)" fill-rule="nonzero" shaper:cutDepth="0.05cm" stroke-linecap="round" stroke-linejoin="round" /><path d="M0.7800736,-3.0277741 L0.7800736,-3.0277741 0.8001763,-3.0231887 0.8099115,-3.0202597 0.8192673,-3.0165673 0.828126,-3.0118743 0.8365175,-3.0062411 0.8525156,-2.9933949 0.8525156,-2.9933949 0.8624043,-2.9786392 0.8665981,-2.9709949 0.8698919,-2.963031 0.8721388,-2.9546953 0.8735599,-2.9460664 0.8750258,-2.9283198 0.8750258,-2.9283198 0.8739661,-2.9126796 0.8713996,-2.8974404 0.8691226,-2.8900853 0.8662418,-2.8828909 0.8594733,-2.86877 0.8594733,-2.86877 0.8507894,-2.8566 0.8411729,-2.8453522 0.8300124,-2.8356308 0.8179317,-2.8268192 0.8179317,-2.8268192 0.8011494,-2.818048 0.7839165,-2.8104046 0.7660137,-2.8044378 0.7477407,-2.7993976 0.7477407,-2.7993976 0.7254645,-2.794729 0.7030606,-2.7911012 0.6804439,-2.7892054 0.6576998,-2.7883471 0.6576998,-2.7883471 0.6429657,-2.7887564 0.6429657,-2.7887564 0.6598399,-2.8013793 0.6678287,-2.8081165 0.6752794,-2.8153645 0.6820832,-2.8232267 0.6883653,-2.8315842 0.7000599,-2.8491248 0.7000599,-2.8491248 0.709324,-2.8688414 0.7133085,-2.8788711 0.7165161,-2.8891064 0.718777,-2.8995923 0.7202657,-2.9102824 0.7219562,-2.9320033 0.7219562,-2.9320033 0.7201562,-2.9498823 0.7177236,-2.9674903 0.7140257,-2.9845562 0.7115046,-2.9928012 0.7084299,-3.0008091 0.7047494,-3.0085575 0.7005162,-3.0160691 0.6907075,-3.0305173 0.6796354,-3.0444243 0.6679317,-3.0580607 0.6679317,-3.0580607 0.6520908,-3.0697735 0.635991,-3.0807912 0.6193731,-3.0904188 0.6107889,-3.0944942 0.6019787,-3.0979628 0.5836852,-3.1030942 0.5646842,-3.1063273 0.5452117,-3.1082948 0.5255033,-3.1096295 0.5255033,-3.1096295 0.5051304,-3.1082275 0.4850061,-3.1061658 0.465379,-3.1027846 0.4558296,-3.100393 0.4464976,-3.0974242 0.4374115,-3.0938029 0.4285632,-3.0895504 0.4114457,-3.0795087 0.3948731,-3.0680207 0.3785729,-3.0558096 0.3785729,-3.0558096 0.3663518,-3.0411418 0.3548086,-3.026192 0.3446212,-3.0106783 0.3402477,-3.0026218 0.3364674,-2.9943187 0.3333277,-2.9857491 0.330766,-2.976939 0.3270466,-2.958735 0.3246486,-2.9399813 0.3229112,-2.9209529 0.3229112,-2.9209529 0.3253438,-2.89259 0.3274863,-2.8786818 0.3307401,-2.8651014 0.3353566,-2.8519229 0.3410916,-2.8390743 0.3544255,-2.813927 0.3544255,-2.813927 0.3730201,-2.790833 0.3829884,-2.7800981 0.393762,-2.7703375 0.4054932,-2.7617359 0.4179905,-2.7540613 0.4442618,-2.740257 0.4442618,-2.740257 0.4855168,-2.7281242 0.5063262,-2.7231739 0.5273502,-2.7195407 0.5485923,-2.7172459 0.5699994,-2.7159637 0.6130885,-2.7150866 0.6130885,-2.7150866 0.6596346,-2.7161476 0.6827879,-2.7174964 0.7057975,-2.7198269 0.7286183,-2.7234474 0.7512596,-2.7282943 0.79624,-2.7400525 0.79624,-2.7400525 0.8260506,-2.7532954 0.8403172,-2.7607957 0.8538171,-2.7693506 0.8663429,-2.7792458 0.878027,-2.7902989 0.8999917,-2.8143362 0.8999917,-2.8143362 0.9153406,-2.8412295 0.9218971,-2.855025 0.9271121,-2.8692391 0.9307281,-2.8839522 0.9330632,-2.8990651 0.9355988,-2.9299569 0.9355988,-2.9299569 0.9330981,-2.9612513 0.9306485,-2.976479 0.9267598,-2.9912036 0.9210421,-3.0052885 0.9137441,-3.0188208 0.8965129,-3.0449638 0.8965129,-3.0449638 0.8726255,-3.065541 0.8600466,-3.0745586 0.846706,-3.0820524 0.8324882,-3.087791 0.8175819,-3.0921522 0.786622,-3.0985791 0.7800736,-3.0277741z M0.4211377,-2.8307073 L0.4211377,-2.8307073 0.4056601,-2.8482176 0.3989602,-2.8574445 0.3935069,-2.8672375 0.3896009,-2.877733 0.3869829,-2.8888133 0.3838934,-2.9119488 0.3838934,-2.9119488 0.3873582,-2.9363614 0.3902327,-2.9480407 0.3944776,-2.9590877 0.4003468,-2.9693853 0.4075121,-2.979085 0.4240026,-2.9974876 0.4240026,-2.9974876 0.447497,-3.0135198 0.4596843,-3.0203142 0.4723993,-3.0256434 0.4857266,-3.0292729 0.4995361,-3.0315635 0.527959,-3.0339133 0.527959,-3.0339133 0.5536525,-3.0316178 0.5660986,-3.029417 0.5780641,-3.0259525 0.5894219,-3.0208908 0.6002599,-3.014463 0.6210695,-2.9993294 0.6210695,-2.9993294 0.6362536,-2.9806193 0.6427794,-2.9708153 0.6480255,-2.9604726 0.6517162,-2.949475 0.6541411,-2.9379444 0.6568811,-2.9139952 0.6568811,-2.9139952 0.6542352,-2.8902598 0.6518481,-2.8788492 0.6481841,-2.867987 0.6429382,-2.8578041 0.6363785,-2.8481855 0.6210695,-2.8298887 0.6210695,-2.8298887 0.5985692,-2.8150005 0.586902,-2.8087563 0.5747356,-2.8039481 0.5620111,-2.8007455 0.5488542,-2.7987866 0.5218198,-2.7969419 0.5218198,-2.7969419 0.4943957,-2.7989265 0.4810513,-2.8009718 0.4681478,-2.8042809 0.4558109,-2.8092133 0.4439746,-2.8155798 0.4211377,-2.8307073z" transform="matrix(1,0,0,-1,3.529262,3.65)" fill="rgb(116,116,116)" fill-rule="nonzero" shaper:cutDepth="0.05cm" stroke-linecap="round" stroke-linejoin="round" /><path d="M2.3229147,1.2438766 a0.15,0.15 0 1,1 0.3,0 a0.15,0.15 0 1,1 -0.3,0z" transform="matrix(1,0,0,-1,3.529262,3.65)" fill="rgb(255,255,255)" stroke="rgb(0,0,0)" stroke-width="0.0010cm" stroke-linecap="round" stroke-linejoin="round" shaper:cutDepth="0.3cm" /><path d="M-0.8145471,1.3387398 a0.15,0.15 0 1,1 0.3,0 a0.15,0.15 0 1,1 -0.3,0z" transform="matrix(1,0,0,-1,3.529262,3.65)" fill="rgb(255,255,255)" stroke="rgb(0,0,0)" stroke-width="0.0010cm" stroke-linecap="round" stroke-linejoin="round" shaper:cutDepth="0.3cm" /><path d="M-1.7842546,-0.6150566 a0.15,0.15 0 1,1 0.3,0 a0.15,0.15 0 1,1 -0.3,0z" transform="matrix(1,0,0,-1,3.529262,3.65)" fill="rgb(255,255,255)" stroke="rgb(0,0,0)" stroke-width="0.0010cm" stroke-linecap="round" stroke-linejoin="round" shaper:cutDepth="0.3cm" /><path d="M0.5876212,-0.1467595 a0.15,0.15 0 1,1 0.3,0 a0.15,0.15 0 1,1 -0.3,0z" transform="matrix(1,0,0,-1,3.529262,3.65)" fill="rgb(255,255,255)" stroke="rgb(0,0,0)" stroke-width="0.0010cm" stroke-linecap="round" stroke-linejoin="round" shaper:cutDepth="0.3cm" /><path d="M1.1287167,-2.5273979 a0.15,0.15 0 1,1 0.3,0 a0.15,0.15 0 1,1 -0.3,0z" transform="matrix(1,0,0,-1,3.529262,3.65)" fill="rgb(255,255,255)" stroke="rgb(0,0,0)" stroke-width="0.0010cm" stroke-linecap="round" stroke-linejoin="round" shaper:cutDepth="0.3cm" /><path d="M-2.5342727,1.25 L-2.5342727,-1.25 -2.2342727,-1.25 -2.2342727,1.25 -2.5342727,1.25z" transform="matrix(1,0,0,-1,3.529262,3.65)" fill="rgb(255,255,255)" stroke="rgb(0,0,0)" stroke-width="0.0010cm" stroke-linecap="round" stroke-linejoin="round" shaper:cutDepth="0.3cm" /><path d="M2.979262,-3.25 a0.15,0.15 0 1,1 0.3,0 a0.15,0.15 0 1,1 -0.3,0z" transform="matrix(1,0,0,-1,3.529262,3.65)" fill="rgb(255,255,255)" stroke="rgb(0,0,0)" stroke-width="0.0010cm" stroke-linecap="round" stroke-linejoin="round" shaper:cutDepth="0.3cm" /><path d="M-1.520738,3.25 a0.15,0.15 0 1,1 0.3,0 a0.15,0.15 0 1,1 -0.3,0z" transform="matrix(1,0,0,-1,3.529262,3.65)" fill="rgb(255,255,255)" stroke="rgb(0,0,0)" stroke-width="0.0010cm" stroke-linecap="round" stroke-linejoin="round" shaper:cutDepth="0.3cm" /><path d="M2.979262,3.25 a0.15,0.15 0 1,1 0.3,0 a0.15,0.15 0 1,1 -0.3,0z" transform="matrix(1,0,0,-1,3.529262,3.65)" fill="rgb(255,255,255)" stroke="rgb(0,0,0)" stroke-width="0.0010cm" stroke-linecap="round" stroke-linejoin="round" shaper:cutDepth="0.3cm" /><path d="M-1.520738,-3.25 a0.15,0.15 0 1,1 0.3,0 a0.15,0.15 0 1,1 -0.3,0z" transform="matrix(1,0,0,-1,3.529262,3.65)" fill="rgb(255,255,255)" stroke="rgb(0,0,0)" stroke-width="0.0010cm" stroke-linecap="round" stroke-linejoin="round" shaper:cutDepth="0.3cm" /><path d="M-2.1707381,2 L-0.870738,2 -0.870738,2.7500001 -2.1707381,2.7500001 A0.3,0.3 90 0,1 -2.4707381,2.4500001 L-2.4707381,2.3 A0.3,0.3 180 0,1 -2.1707381,2z" transform="matrix(1,0,0,-1,3.529262,3.65)" fill="rgb(255,255,255)" stroke="rgb(0,0,0)" stroke-width="0.0010cm" stroke-linecap="round" stroke-linejoin="round" shaper:cutDepth="0.3cm" /></svg>