<?xml version="1.0" encoding="utf-8"?>
<!-- Generator: Fusion 360, Shaper Origin Export Add-In, Version 1.7.0  -->
<svg xmlns="http://www.w3.org/2000/svg" xmlns:xlink="http://www.w3.org/1999/xlink" xmlns:shaper="http://www.shapertools.com/namespaces/shaper" shaper:fusionaddin="version:1.7.0" width="7.058524cm" height="7.3cm" version="1.1" x="0cm" y="0cm" viewBox="0 0 7.058524 7.3" enable-background="new 0 0 7.058524 7.3" xml:space="preserve"><path d="M-3.529262,-2.0046781 L-1.8572407,-3.5690658 A0.3,0.3 226.9047902 0,1 -1.6522768,-3.65 L3.229262,-3.65 A0.3,0.3 270 0,1 3.529262,-3.35 L3.529262,-2.7885309 3.229262,-2.7885309 3.229262,-0.7885309 3.529262,-0.7885309 3.529262,3.35 A0.3,0.3 0 0,1 3.229262,3.65 L-1.6522768,3.65 A0.3,0.3 90 0,1 -1.8572407,3.5690658 L-3.529262,2.0046781 -3.529262,1.65 -3.2342727,1.65 -3.2342727,-1.65 -3.529262,-1.65 -3.529262,-2.0046781z" transform="matrix(1,0,0,-1,3.529262,3.65)" fill="rgb(0,0,0)" shaper:cutDepth="0.3cm" stroke-linecap="round" stroke-linejoin="round" /><path d="M-1.1935121,0.1762733 L-1.1935121,0.1762733 -1.1777539,0.1796323 -1.1701336,0.1818428 -1.1628237,0.1846904 -1.1559163,0.188364 -1.149373,0.1927848 -1.1368955,0.2028763 -1.1368955,0.2028763 -1.1288045,0.2141906 -1.1253352,0.2200663 -1.1225573,0.2262044 -1.1206138,0.232659 -1.1193451,0.2393696 -1.1179323,0.2532174 -1.1179323,0.2532174 -1.1200738,0.2702402 -1.1219227,0.2784063 -1.1247055,0.2861581 -1.1286219,0.2934068 -1.1334598,0.3002466 -1.1446718,0.3132447 -1.1446718,0.3132447 -1.1607025,0.3241457 -1.1690207,0.3287502 -1.177702,0.3323405 -1.1867995,0.334768 -1.196223,0.3362849 -1.2156131,0.3378013 -1.2156131,0.3378013 -1.2338462,0.336385 -1.2426918,0.3349436 -1.2512121,0.3326222 -1.2593156,0.3291733 -1.2670528,0.3247334 -1.281916,0.3141996 -1.281916,0.3141996 -1.2924898,0.3005561 -1.2969895,0.2934184 -1.3005446,0.2859018 -1.3029883,0.2779392 -1.3045492,0.2696225 -1.3061997,0.2523988 -1.3061997,0.2523988 -1.3054246,0.241201 -1.303618,0.2302656 -1.3000577,0.2197766 -1.2954221,0.2095612 -1.2954221,0.2095612 -1.2897125,0.2008571 -1.2833132,0.1927989 -1.2757426,0.1858375 -1.2674548,0.1795476 -1.2734575,0.1334357 -1.4789146,0.1721805 -1.4789146,0.3710891 -1.4319842,0.3710891 -1.4319842,0.2114712 -1.3244808,0.1899159 -1.3244808,0.1899159 -1.3348023,0.2074866 -1.339287,0.2164933 -1.3429602,0.2257655 -1.3456167,0.2353705 -1.3474154,0.2452563 -1.3495831,0.2654957 -1.3495831,0.2654957 -1.3468218,0.2901978 -1.3443707,0.3021077 -1.3406351,0.3134881 -1.3353191,0.3242171 -1.3287008,0.3344094 -1.3132939,0.3538995 -1.3132939,0.3538995 -1.2925718,0.3695331 -1.2817562,0.3761937 -1.2703951,0.3814672 -1.2583897,0.3851019 -1.2458711,0.3874316 -1.2199787,0.3899159 -1.2199787,0.3899159 -1.1945984,0.387621 -1.1822304,0.3855288 -1.1702488,0.3823029 -1.1587478,0.3776669 -1.1476482,0.3718537 -1.1261179,0.3582651 -1.1261179,0.3582651 -1.1153689,0.3473258 -1.1052259,0.3361026 -1.0962946,0.3243116 -1.0891811,0.3116691 -1.0842396,0.298009 -1.0810414,0.2835322 -1.0790053,0.2685109 -1.0775503,0.2532174 -1.0775503,0.2532174 -1.0795116,0.2289423 -1.0814293,0.2171354 -1.0844714,0.2057252 -1.0889421,0.1948191 -1.0946458,0.184348 -1.1081097,0.1641314 -1.1081097,0.1641314 -1.1256624,0.1487845 -1.1349092,0.1420655 -1.1447207,0.1364917 -1.1552024,0.1322776 -1.1662196,0.1291498 -1.1891465,0.1247044 -1.1935121,0.1762733z" transform="matrix(1,0,0,-1,3.529262,3.65)" fill="rgb(116,116,116)" fill-rule="nonzero" shaper:cutDepth="0.05cm" stroke-linecap="round" stroke-linejoin="round" /><path d="M0.5613458,-0.9964688 L0.5613458,-1.1700022 0.5163254,-1.1700022 0.2571166,-0.9874647 0.2571166,-0.9473555 0.5163254,-0.9473555 0.5163254,-0.893331 0.5613458,-0.893331 0.5613458,-0.9473555 0.6571166,-0.9473555 0.6571166,-0.9964688 0.5613458,-0.9964688z M0.3359706,-0.9964688 L0.5163254,-1.1217075 0.5163254,-0.9964688 0.3359706,-0.9964688z" transform="matrix(1,0,0,-1,3.529262,3.65)" fill="rgb(116,116,116)" fill-rule="nonzero" shaper:cutDepth="0.05cm" stroke-linecap="round" stroke-linejoin="round" /><path d="M0.9109718,2.2575554 L0.9109718,1.9931625 0.9109718,1.9931625 0.902247,1.9934175 0.8936301,1.9943133 0.8851935,1.9962804 0.8768654,1.9988924 0.8768654,1.9988924 0.8625925,2.0053631 0.8488676,2.0127433 0.8360129,2.0215683 0.8236594,2.0312253 0.8236594,2.0312253 0.8075279,2.0463485 0.7919846,2.0620318 0.7773003,2.0785329 0.7630864,2.0954818 0.7630864,2.0954818 0.7435034,2.1190824 0.7231449,2.1419218 0.7013134,2.163315 0.6783661,2.1836127 0.6783661,2.1836127 0.6647835,2.1925311 0.6578019,2.1964782 0.6505917,2.1998109 0.6430845,2.2023444 0.6353058,2.2041479 0.6192938,2.2065322 0.6192938,2.2065322 0.6054523,2.2049165 0.5987918,2.2034957 0.5924434,2.2013392 0.5864776,2.1982816 0.5808255,2.1944847 0.5700441,2.1856591 0.5700441,2.1856591 0.5612518,2.1734783 0.55752,2.1671369 0.5545852,2.1604944 0.5525797,2.1535008 0.5513085,2.1462297 0.5499895,2.1312253 0.5499895,2.1312253 0.5513582,2.1155122 0.5526948,2.1079073 0.5548142,2.1006045 0.5579278,2.0936852 0.561899,2.0870969 0.5712719,2.0744722 0.5712719,2.0744722 0.5844253,2.0649256 0.5912846,2.0608959 0.5984826,2.0577569 0.6060647,2.0556283 0.6139461,2.0542871 0.6302078,2.0529169 0.6250237,2.0024395 0.6250237,2.0024395 0.6008272,2.0064858 0.5891652,2.0094397 0.5780267,2.0135105 0.5675608,2.0190164 0.5576893,2.0257907 0.5389391,2.0414572 0.5389391,2.0414572 0.5256619,2.0621785 0.5200765,2.0728965 0.5157524,2.0840424 0.512854,2.095672 0.5110647,2.1076778 0.5093347,2.1323167 0.5093347,2.1323167 0.5112476,2.157307 0.5131962,2.1694413 0.5163353,2.1811426 0.5210002,2.1922888 0.5270066,2.202947 0.5412583,2.223449 0.5412583,2.223449 0.5585557,2.2376778 0.5676295,2.2437931 0.5772135,2.2487095 0.5874176,2.2521684 0.5981264,2.2544412 0.6203852,2.2570097 0.6203852,2.2570097 0.6325277,2.2562065 0.6444822,2.2544938 0.6561271,2.2512841 0.6675885,2.2471871 0.6675885,2.2471871 0.6807126,2.2404237 0.6933075,2.2328566 0.7050947,2.224063 0.7164288,2.2145813 0.7164288,2.2145813 0.7349075,2.1964793 0.7528384,2.1778623 0.7868245,2.1388651 0.7868245,2.1388651 0.8113847,2.1099409 0.8371655,2.082112 0.8371655,2.082112 0.8499259,2.0710466 0.8637686,2.0613754 0.8637686,2.2575554 0.9109718,2.2575554z" transform="matrix(1,0,0,-1,3.529262,3.65)" fill="rgb(116,116,116)" fill-rule="nonzero" shaper:cutDepth="0.05cm" stroke-linecap="round" stroke-linejoin="round" /><path d="M2.2095744,0.1595594 L2.2095744,0.1595594 2.2253326,0.1629183 2.2329529,0.1651288 2.2402628,0.1679765 2.2471702,0.17165 2.2537135,0.1760708 2.266191,0.1861624 2.266191,0.1861624 2.274282,0.1974767 2.2777513,0.2033524 2.2805292,0.2094904 2.2824727,0.215945 2.2837414,0.2226556 2.2851542,0.2365034 2.2851542,0.2365034 2.2830127,0.2535262 2.2811638,0.2616923 2.2783811,0.2694441 2.2744646,0.2766928 2.2696267,0.2835326 2.2584148,0.2965307 2.2584148,0.2965307 2.242384,0.3074318 2.2340658,0.3120362 2.2253845,0.3156265 2.216287,0.318054 2.2068635,0.319571 2.1874734,0.3210873 2.1874734,0.3210873 2.1692403,0.319671 2.1603947,0.3182296 2.1518744,0.3159083 2.1437709,0.3124593 2.1360337,0.3080194 2.1211706,0.2974857 2.1211706,0.2974857 2.1105967,0.2838421 2.1060971,0.2767044 2.1025419,0.2691878 2.1000983,0.2612253 2.0985374,0.2529086 2.0968868,0.2356849 2.0968868,0.2356849 2.0976619,0.224487 2.0994685,0.2135517 2.1030289,0.2030626 2.1076644,0.1928472 2.1076644,0.1928472 2.113374,0.1841431 2.1197733,0.1760849 2.127344,0.1691235 2.1356317,0.1628336 2.129629,0.1167217 1.9241719,0.1554666 1.9241719,0.3543752 1.9711023,0.3543752 1.9711023,0.1947572 2.0786058,0.1732019 2.0786058,0.1732019 2.0682842,0.1907727 2.0637996,0.1997793 2.0601263,0.2090516 2.0574698,0.2186566 2.0556711,0.2285423 2.0535034,0.2487817 2.0535034,0.2487817 2.0562647,0.2734838 2.0587158,0.2853937 2.0624514,0.2967741 2.0677675,0.3075032 2.0743857,0.3176955 2.0897927,0.3371856 2.0897927,0.3371856 2.1105147,0.3528191 2.1213303,0.3594797 2.1326914,0.3647533 2.1446968,0.3683879 2.1572154,0.3707176 2.1831078,0.3732019 2.1831078,0.3732019 2.2084881,0.3709071 2.2208562,0.3688149 2.2328378,0.365589 2.2443387,0.360953 2.2554383,0.3551397 2.2769686,0.3415512 2.2769686,0.3415512 2.2877176,0.3306118 2.2978607,0.3193886 2.3067919,0.3075976 2.3139054,0.2949551 2.3188469,0.281295 2.3220451,0.2668182 2.3240812,0.2517969 2.3255362,0.2365034 2.3255362,0.2365034 2.3235749,0.2122284 2.3216572,0.2004214 2.3186151,0.1890112 2.3141444,0.1781051 2.3084407,0.167634 2.2949768,0.1474175 2.2949768,0.1474175 2.2774241,0.1320705 2.2681773,0.1253515 2.2583659,0.1197777 2.2478841,0.1155636 2.2368669,0.1124358 2.21394,0.1079905 2.2095744,0.1595594z" transform="matrix(1,0,0,-1,3.529262,3.65)" fill="rgb(116,116,116)" fill-rule="nonzero" shaper:cutDepth="0.05cm" stroke-linecap="round" stroke-linejoin="round" /><path d="M-1.185764,-2.1521804 L-1.185764,-2.4165733 -1.185764,-2.4165733 -1.1944888,-2.4163183 -1.2031057,-2.4154225 -1.2115423,-2.4134554 -1.2198704,-2.4108434 -1.2198704,-2.4108434 -1.2341433,-2.4043728 -1.2478682,-2.3969925 -1.2607229,-2.3881675 -1.2730764,-2.3785106 -1.2730764,-2.3785106 -1.2892079,-2.3633873 -1.3047511,-2.347704 -1.3194354,-2.331203 -1.3336493,-2.3142541 -1.3336493,-2.3142541 -1.3532324,-2.2906534 -1.3735909,-2.2678141 -1.3954224,-2.2464208 -1.4183697,-2.2261231 -1.4183697,-2.2261231 -1.4319522,-2.2172047 -1.4389339,-2.2132576 -1.446144,-2.209925 -1.4536513,-2.2073914 -1.46143,-2.205588 -1.477442,-2.2032036 -1.477442,-2.2032036 -1.4912835,-2.2048193 -1.497944,-2.2062401 -1.5042924,-2.2083966 -1.5102582,-2.2114543 -1.5159103,-2.2152511 -1.5266916,-2.2240767 -1.5266916,-2.2240767 -1.535484,-2.2362575 -1.5392157,-2.2425989 -1.5421506,-2.2492414 -1.544156,-2.2562351 -1.5454273,-2.2635061 -1.5467462,-2.2785105 -1.5467462,-2.2785105 -1.5453776,-2.2942236 -1.5440409,-2.3018285 -1.5419215,-2.3091314 -1.538808,-2.3160506 -1.5348367,-2.3226389 -1.5254638,-2.3352636 -1.5254638,-2.3352636 -1.5123105,-2.3448102 -1.5054512,-2.34884 -1.4982532,-2.3519789 -1.4906711,-2.3541075 -1.4827897,-2.3554487 -1.4665279,-2.3568189 -1.4717121,-2.4072964 -1.4717121,-2.4072964 -1.4959086,-2.4032501 -1.5075706,-2.4002961 -1.5187091,-2.3962253 -1.529175,-2.3907195 -1.5390464,-2.3839452 -1.5577967,-2.3682786 -1.5577967,-2.3682786 -1.5710739,-2.3475573 -1.5766593,-2.3368393 -1.5809833,-2.3256934 -1.5838818,-2.3140639 -1.5856711,-2.302058 -1.5874011,-2.2774192 -1.5874011,-2.2774192 -1.5854881,-2.2524288 -1.5835396,-2.2402945 -1.5804005,-2.2285933 -1.5757356,-2.2174471 -1.5697292,-2.2067888 -1.5554775,-2.1862868 -1.5554775,-2.1862868 -1.5381801,-2.172058 -1.5291062,-2.1659427 -1.5195223,-2.1610263 -1.5093182,-2.1575674 -1.4986094,-2.1552946 -1.4763506,-2.1527261 -1.4763506,-2.1527261 -1.4642081,-2.1535293 -1.4522536,-2.155242 -1.4406087,-2.1584517 -1.4291473,-2.1625488 -1.4291473,-2.1625488 -1.4160231,-2.1693121 -1.4034282,-2.1768792 -1.3916411,-2.1856728 -1.3803069,-2.1951545 -1.3803069,-2.1951545 -1.3618283,-2.2132565 -1.3438974,-2.2318735 -1.3099113,-2.2708707 -1.3099113,-2.2708707 -1.2853511,-2.299795 -1.2595702,-2.3276238 -1.2595702,-2.3276238 -1.2468098,-2.3386892 -1.2329672,-2.3483605 -1.2329672,-2.1521804 -1.185764,-2.1521804z" transform="matrix(1,0,0,-1,3.529262,3.65)" fill="rgb(116,116,116)" fill-rule="nonzero" shaper:cutDepth="0.05cm" stroke-linecap="round" stroke-linejoin="round" /><path d="M0.752877,-3.4584828 L0.752877,-3.4584828 0.777792,-3.4523835 0.7898779,-3.4485926 0.8015181,-3.4439123 0.8125722,-3.4380631 0.8230687,-3.4311012 0.8431225,-3.4153041 0.8431225,-3.4153041 0.8549657,-3.3985878 0.860035,-3.3899095 0.8640816,-3.3808469 0.8669011,-3.3713233 0.8687325,-3.3614286 0.8707487,-3.3410203 0.8707487,-3.3410203 0.8680045,-3.3164948 0.8655704,-3.3046694 0.8618619,-3.2933689 0.8565858,-3.282714 0.8500186,-3.2725907 0.8347324,-3.2532305 0.8347324,-3.2532305 0.8149909,-3.2379385 0.8046789,-3.2313834 0.7938374,-3.2261374 0.7823574,-3.2224697 0.7703616,-3.2200775 0.74551,-3.2174187 0.74551,-3.2174187 0.7222052,-3.2197798 0.7109519,-3.2219541 0.7001776,-3.2253208 0.6900012,-3.2301761 0.6803263,-3.2362803 0.6618128,-3.2505702 0.6618128,-3.2505702 0.6475818,-3.2692694 0.6415075,-3.2790321 0.6366825,-3.2892906 0.6333428,-3.3001384 0.6311907,-3.3114575 0.628866,-3.3348812 0.628866,-3.3348812 0.6297642,-3.3480486 0.631343,-3.3611136 0.6370516,-3.3868594 0.5723858,-3.3786738 0.5723858,-3.3786738 0.5732044,-3.3668048 0.5732044,-3.3668048 0.5713753,-3.3443669 0.5697325,-3.3333605 0.5672158,-3.3226091 0.5636186,-3.3121731 0.5591258,-3.3019984 0.5486477,-3.2820845 0.5486477,-3.2820845 0.5333218,-3.2656125 0.5250264,-3.2586154 0.5159724,-3.2531044 0.5060313,-3.2493314 0.4953881,-3.2469338 0.4729315,-3.244431 0.4729315,-3.244431 0.4541505,-3.2464379 0.445097,-3.248258 0.4364479,-3.2510581 0.4283008,-3.2550748 0.4205717,-3.2601046 0.4058101,-3.2718526 0.4058101,-3.2718526 0.3942095,-3.2876534 0.3892757,-3.2958865 0.3853813,-3.3045187 0.3827078,-3.3136196 0.3810028,-3.3230923 0.3792071,-3.3426575 0.3792071,-3.3426575 0.3811212,-3.362415 0.3828889,-3.3719836 0.3856294,-3.3811799 0.3895855,-3.3899111 0.3945627,-3.3982515 0.4062194,-3.4142809 0.4062194,-3.4142809 0.4242209,-3.4282668 0.433634,-3.4343871 0.4435399,-3.4394649 0.4539851,-3.4434016 0.464845,-3.4464606 0.4872562,-3.4511159 0.4741593,-3.5247857 0.4741593,-3.5247857 0.4417085,-3.5163063 0.4261008,-3.5109353 0.4112343,-3.5042067 0.3973113,-3.4957503 0.3842055,-3.4857971 0.3593572,-3.4633942 0.3593572,-3.4633942 0.3416206,-3.4362558 0.3340737,-3.4222255 0.3281119,-3.4076422 0.3240149,-3.3924081 0.3213987,-3.3766573 0.3186341,-3.3442946 0.3186341,-3.3442946 0.3201879,-3.3208092 0.3215914,-3.3092137 0.3237469,-3.2977948 0.3268345,-3.2865949 0.3306966,-3.275577 0.3397119,-3.2538444 0.3397119,-3.2538444 0.3510082,-3.2352168 0.3571727,-3.2263757 0.3639567,-3.2181017 0.3715142,-3.2105359 0.3797206,-3.2035642 0.3972153,-3.1906111 0.3972153,-3.1906111 0.4155178,-3.1814582 0.4248443,-3.1775044 0.4343812,-3.1742976 0.4441777,-3.1720128 0.4541888,-3.17049 0.4745686,-3.1687148 0.4745686,-3.1687148 0.4933398,-3.1703138 0.5025437,-3.1717279 0.5115295,-3.1738796 0.5202475,-3.1769373 0.5287452,-3.1807402 0.5453735,-3.1895879 0.5453735,-3.1895879 0.561122,-3.202492 0.5684568,-3.2093928 0.5751447,-3.2168316 0.581081,-3.2248958 0.5864245,-3.2334529 0.5961239,-3.2513887 0.5961239,-3.2513887 0.6038095,-3.2275659 0.6084945,-3.2161802 0.6141902,-3.2054254 0.6211562,-3.1954636 0.6291989,-3.1861739 0.6470789,-3.1687148 0.6470789,-3.1687148 0.6695113,-3.1557106 0.6810398,-3.1502051 0.6929426,-3.1458947 0.7052783,-3.1429656 0.7179541,-3.1411226 0.7438729,-3.1392468 0.7438729,-3.1392468 0.7627767,-3.1411681 0.7813928,-3.1437594 0.7994331,-3.1476908 0.8081475,-3.1503685 0.81661,-3.1536324 0.8247973,-3.157537 0.8327337,-3.1620255 0.8479977,-3.1724202 0.8626884,-3.1841493 0.8770925,-3.1965456 0.8770925,-3.1965456 0.8892718,-3.2126043 0.9007547,-3.2289301 0.9108447,-3.2457901 0.9151498,-3.254504 0.9188457,-3.2634514 0.9218965,-3.2726464 0.9243712,-3.2820622 0.9279217,-3.3014305 0.9301555,-3.3213038 0.931731,-3.3414296 0.931731,-3.3414296 0.9304047,-3.3594933 0.9285089,-3.3773487 0.9254743,-3.3947875 0.9207314,-3.4116014 0.9138404,-3.4276294 0.9051274,-3.4429909 0.8951995,-3.457908 0.8846641,-3.4726029 0.8846641,-3.4726029 0.8715619,-3.4843959 0.8581825,-3.4956262 0.8442485,-3.5057315 0.8294829,-3.5141492 0.8137213,-3.5205457 0.7971589,-3.5253173 0.7800627,-3.5290058 0.7626996,-3.5321527 0.752877,-3.4584828z" transform="matrix(1,0,0,-1,3.529262,3.65)" fill="rgb(116,116,116)" fill-rule="nonzero" shaper:cutDepth="0.05cm" stroke-linecap="round" stroke-linejoin="round" /><path d="M0.7757965,-2.9845401 L0.7757965,-2.9845401 0.7958992,-2.9799547 0.8056344,-2.9770257 0.8149902,-2.9733332 0.8238489,-2.9686403 0.8322404,-2.963007 0.8482385,-2.9501609 0.8482385,-2.9501609 0.8581272,-2.9354052 0.862321,-2.9277609 0.8656148,-2.919797 0.8678617,-2.9114613 0.8692828,-2.9028324 0.8707487,-2.8850858 0.8707487,-2.8850858 0.869689,-2.8694456 0.8671225,-2.8542064 0.8648455,-2.8468513 0.8619647,-2.8396569 0.8551962,-2.825536 0.8551962,-2.825536 0.8465123,-2.813366 0.8368958,-2.8021182 0.8257353,-2.7923968 0.8136546,-2.7835852 0.8136546,-2.7835852 0.7968723,-2.774814 0.7796394,-2.7671706 0.7617366,-2.7612038 0.7434636,-2.7561636 0.7434636,-2.7561636 0.7211874,-2.7514951 0.6987834,-2.7478673 0.6761667,-2.7459715 0.6534226,-2.7451131 0.6534226,-2.7451131 0.6386887,-2.7455224 0.6386887,-2.7455224 0.6555629,-2.7581453 0.6635516,-2.7648825 0.6710023,-2.7721305 0.677806,-2.7799927 0.6840881,-2.7883502 0.6957828,-2.8058907 0.6957828,-2.8058907 0.7050469,-2.8256074 0.7090314,-2.8356371 0.712239,-2.8458724 0.7144999,-2.8563582 0.7159887,-2.8670484 0.7176792,-2.8887693 0.7176792,-2.8887693 0.7158791,-2.9066483 0.7134465,-2.9242562 0.7097485,-2.9413222 0.7072274,-2.9495672 0.7041528,-2.9575751 0.7004723,-2.9653235 0.6962391,-2.9728351 0.6864304,-2.9872833 0.6753583,-3.0011903 0.6636546,-3.0148267 0.6636546,-3.0148267 0.6478138,-3.0265394 0.6317139,-3.0375572 0.615096,-3.0471848 0.6065118,-3.0512601 0.5977016,-3.0547287 0.5794081,-3.0598602 0.5604071,-3.0630933 0.5409346,-3.0650608 0.5212262,-3.0663955 0.5212262,-3.0663955 0.5008533,-3.0649935 0.4807291,-3.0629318 0.4611019,-3.0595506 0.4515525,-3.057159 0.4422205,-3.0541902 0.4331344,-3.0505689 0.4242862,-3.0463164 0.4071686,-3.0362747 0.390596,-3.0247867 0.3742958,-3.0125756 0.3742958,-3.0125756 0.3620747,-2.9979078 0.3505315,-2.982958 0.3403441,-2.9674443 0.3359707,-2.9593878 0.3321904,-2.9510846 0.3290506,-2.9425151 0.3264889,-2.933705 0.3227695,-2.915501 0.3203715,-2.8967473 0.3186341,-2.8777189 0.3186341,-2.8777189 0.3210667,-2.849356 0.3232092,-2.8354478 0.3264631,-2.8218674 0.3310796,-2.8086889 0.3368145,-2.7958403 0.3501484,-2.7706929 0.3501484,-2.7706929 0.368743,-2.747599 0.3787113,-2.7368641 0.3894849,-2.7271035 0.4012161,-2.7185019 0.4137134,-2.7108273 0.4399847,-2.697023 0.4399847,-2.697023 0.4812397,-2.6848901 0.5020491,-2.6799398 0.5230731,-2.6763065 0.5443152,-2.6740118 0.5657223,-2.6727295 0.6088115,-2.6718525 0.6088115,-2.6718525 0.6553575,-2.6729136 0.6785108,-2.6742623 0.7015204,-2.6765929 0.7243412,-2.6802134 0.7469825,-2.6850603 0.7919629,-2.6968185 0.7919629,-2.6968185 0.8217735,-2.7100614 0.83604,-2.7175617 0.84954,-2.7261165 0.8620658,-2.7360118 0.87375,-2.7470649 0.8957146,-2.7711022 0.8957146,-2.7711022 0.9110636,-2.7979954 0.91762,-2.811791 0.922835,-2.8260051 0.926451,-2.8407182 0.9287862,-2.8558311 0.9313217,-2.8867229 0.9313217,-2.8867229 0.928821,-2.9180172 0.9263714,-2.933245 0.9224827,-2.9479696 0.9167649,-2.9620545 0.909467,-2.9755868 0.8922358,-3.0017298 0.8922358,-3.0017298 0.8683485,-3.022307 0.8557695,-3.0313246 0.842429,-3.0388184 0.8282111,-3.044557 0.8133049,-3.0489183 0.7823449,-3.0553451 0.7757965,-2.9845401z M0.4168606,-2.7874733 L0.4168606,-2.7874733 0.401383,-2.8049836 0.3946831,-2.8142105 0.3892298,-2.8240034 0.3853238,-2.8344989 0.3827058,-2.8455793 0.3796163,-2.8687148 0.3796163,-2.8687148 0.3830811,-2.8931273 0.3859556,-2.9048067 0.3902006,-2.9158537 0.3960698,-2.9261513 0.403235,-2.935851 0.4197255,-2.9542536 0.4197255,-2.9542536 0.4432199,-2.9702858 0.4554072,-2.9770802 0.4681222,-2.9824094 0.4814495,-2.9860389 0.495259,-2.9883295 0.5236819,-2.9906793 0.5236819,-2.9906793 0.5493754,-2.9883837 0.5618215,-2.986183 0.5737869,-2.9827185 0.5851447,-2.9776568 0.5959828,-2.971229 0.6167923,-2.9560954 0.6167923,-2.9560954 0.6319765,-2.9373853 0.6385023,-2.9275813 0.6437484,-2.9172386 0.6474391,-2.906241 0.649864,-2.8947104 0.6526041,-2.8707612 0.6526041,-2.8707612 0.6499581,-2.8470258 0.647571,-2.8356152 0.643907,-2.8247529 0.6386611,-2.8145701 0.6321014,-2.8049515 0.6167923,-2.7866547 0.6167923,-2.7866547 0.5942921,-2.7717665 0.5826249,-2.7655223 0.5704585,-2.7607141 0.557734,-2.7575115 0.5445771,-2.7555526 0.5175427,-2.7537079 0.5175427,-2.7537079 0.4901187,-2.7556925 0.4767742,-2.7577379 0.4638708,-2.761047 0.4515339,-2.7659793 0.4396975,-2.7723458 0.4168606,-2.7874733z" transform="matrix(1,0,0,-1,3.529262,3.65)" fill="rgb(116,116,116)" fill-rule="nonzero" shaper:cutDepth="0.05cm" stroke-linecap="round" stroke-linejoin="round" /><path d="M-1.6816431,-0.0819122 a0.15,0.15 0 1,1 0.3,0 a0.15,0.15 0 1,1 -0.3,0z" transform="matrix(1,0,0,-1,3.529262,3.65)" fill="rgb(255,255,255)" stroke="rgb(0,0,0)" stroke-width="0.0010cm" stroke-linecap="round" stroke-linejoin="round" shaper:cutDepth="0.3cm" /><path d="M0.3109718,1.7892744 a0.15,0.15 0 1,1 0.3,0 a0.15,0.15 0 1,1 -0.3,0z" transform="matrix(1,0,0,-1,3.529262,3.65)" fill="rgb(255,255,255)" stroke="rgb(0,0,0)" stroke-width="0.0010cm" stroke-linecap="round" stroke-linejoin="round" shaper:cutDepth="0.3cm" /><path d="M1.7214434,-0.0986262 a0.15,0.15 0 1,1 0.3,0 a0.15,0.15 0 1,1 -0.3,0z" transform="matrix(1,0,0,-1,3.529262,3.65)" fill="rgb(255,255,255)" stroke="rgb(0,0,0)" stroke-width="0.0010cm" stroke-linecap="round" stroke-linejoin="round" shaper:cutDepth="0.3cm" /><path d="M0.0571166,-1.3628398 a0.15,0.15 0 1,1 0.3,0 a0.15,0.15 0 1,1 -0.3,0z" transform="matrix(1,0,0,-1,3.529262,3.65)" fill="rgb(255,255,255)" stroke="rgb(0,0,0)" stroke-width="0.0010cm" stroke-linecap="round" stroke-linejoin="round" shaper:cutDepth="0.3cm" /><path d="M-1.785764,-2.6204614 a0.15,0.15 0 1,1 0.3,0 a0.15,0.15 0 1,1 -0.3,0z" transform="matrix(1,0,0,-1,3.529262,3.65)" fill="rgb(255,255,255)" stroke="rgb(0,0,0)" stroke-width="0.0010cm" stroke-linecap="round" stroke-linejoin="round" shaper:cutDepth="0.3cm" /><path d="M-2.5342727,1.25 L-2.5342727,-1.25 -2.2342727,-1.25 -2.2342727,1.25 -2.5342727,1.25z" transform="matrix(1,0,0,-1,3.529262,3.65)" fill="rgb(255,255,255)" stroke="rgb(0,0,0)" stroke-width="0.0010cm" stroke-linecap="round" stroke-linejoin="round" shaper:cutDepth="0.3cm" /><path d="M2.979262,-3.25 a0.15,0.15 0 1,1 0.3,0 a0.15,0.15 0 1,1 -0.3,0z" transform="matrix(1,0,0,-1,3.529262,3.65)" fill="rgb(255,255,255)" stroke="rgb(0,0,0)" stroke-width="0.0010cm" stroke-linecap="round" stroke-linejoin="round" shaper:cutDepth="0.3cm" /><path d="M-1.520738,3.25 a0.15,0.15 0 1,1 0.3,0 a0.15,0.15 0 1,1 -0.3,0z" transform="matrix(1,0,0,-1,3.529262,3.65)" fill="rgb(255,255,255)" stroke="rgb(0,0,0)" stroke-width="0.0010cm" stroke-linecap="round" stroke-linejoin="round" shaper:cutDepth="0.3cm" /><path d="M2.979262,3.25 a0.15,0.15 0 1,1 0.3,0 a0.15,0.15 0 1,1 -0.3,0z" transform="matrix(1,0,0,-1,3.529262,3.65)" fill="rgb(255,255,255)" stroke="rgb(0,0,0)" stroke-width="0.0010cm" stroke-linecap="round" stroke-linejoin="round" shaper:cutDepth="0.3cm" /><path d="M-1.520738,-3.25 a0.15,0.15 0 1,1 0.3,0 a0.15,0.15 0 1,1 -0.3,0z" transform="matrix(1,0,0,-1,3.529262,3.65)" fill="rgb(255,255,255)" stroke="rgb(0,0,0)" stroke-width="0.0010cm" stroke-linecap="round" stroke-linejoin="round" shaper:cutDepth="0.3cm" /><path d="M-2.1707381,2 L-0.870738,2 -0.870738,2.7500001 -2.1707381,2.7500001 A0.3,0.3 90 0,1 -2.4707381,2.4500001 L-2.4707381,2.3 A0.3,0.3 180 0,1 -2.1707381,2z" transform="matrix(1,0,0,-1,3.529262,3.65)" fill="rgb(255,255,255)" stroke="rgb(0,0,0)" stroke-width="0.0010cm" stroke-linecap="round" stroke-linejoin="round" shaper:cutDepth="0.3cm" /></svg>