<?xml version="1.0" encoding="UTF-8"?>
<svg id="Layer_1" data-name="Layer 1" xmlns="http://www.w3.org/2000/svg" xmlns:shaper="http://www.shapertools.com/namespaces/shaper" version="1.1" viewBox="0 0 200.23 206.93">
  <defs>
    <style>
      .cls-1 {
        fill: #747474;
      }

      .cls-1, .cls-2 {
        stroke-width: 0px;
      }

      .cls-3 {
        fill: #fff;
        stroke: #000;
        stroke-linecap: round;
        stroke-linejoin: round;
        stroke-width: .8px;
      }

      .cls-2 {
        fill: #000;
      }
    </style>
  </defs>
  <g>
    <path class="cls-2" d="M0,151.65v8.5l47.54,44.48c1.58,1.47,3.65,2.29,5.81,2.29h138.37c4.7,0,8.5-3.81,8.5-8.5h0v-15.92h-8.5v-56.69h8.5V8.5C200.23,3.81,196.42,0,191.72,0H53.35C51.19,0,49.11.82,47.54,2.29L0,46.77v8.5" shaper:cutDepth="0.3cm"/>
    <path class="cls-3" d="M140.11,157.08c0,2.35,1.9,4.25,4.25,4.25s4.25-1.9,4.25-4.25c0-2.35-1.9-4.25-4.25-4.25-2.35,0-4.25,1.9-4.25,4.25,0,0,0,0,0,0Z" shaper:cutDepth="0.3cm"/>
    <path class="cls-3" d="M90.78,61.92c0,2.35,1.9,4.25,4.25,4.25s4.25-1.9,4.25-4.25-1.9-4.25-4.25-4.25-4.25,1.9-4.25,4.25h0Z" shaper:cutDepth="0.3cm"/>
    <path class="cls-3" d="M45.38,103.48c0,2.35,1.9,4.25,4.25,4.25s4.25-1.9,4.25-4.25c0-2.35-1.9-4.25-4.25-4.25-2.35,0-4.25,1.9-4.25,4.25,0,0,0,0,0,0Z" shaper:cutDepth="0.3cm"/>
    <path class="cls-3" d="M156.63,84.11c0,2.35,1.9,4.25,4.25,4.25,2.35,0,4.25-1.9,4.25-4.25h0c0-2.35-1.9-4.26-4.25-4.26-2.35,0-4.25,1.9-4.25,4.25h0Z" shaper:cutDepth="0.3cm"/>
    <path class="cls-3" d="M81.98,150.92c0,2.35,1.9,4.25,4.25,4.25s4.25-1.9,4.25-4.25h0c0-2.35-1.9-4.25-4.25-4.25s-4.25,1.9-4.25,4.25Z" shaper:cutDepth="0.3cm"/>
    <path class="cls-3" d="M28.35,68.03v70.87h8.5v-70.87h-8.5Z" shaper:cutDepth="0.3cm"/>
    <path class="cls-3" d="M184.64,195.59c0,2.35,1.9,4.25,4.25,4.25,2.35,0,4.25-1.9,4.25-4.25h0c0-2.35-1.9-4.26-4.25-4.26-2.35,0-4.25,1.9-4.25,4.25h0Z" shaper:cutDepth="0.3cm"/>
    <path class="cls-3" d="M57.08,11.34c0,2.35,1.9,4.25,4.25,4.25s4.25-1.9,4.25-4.25h0c0-2.35-1.9-4.25-4.25-4.25-2.35,0-4.25,1.9-4.25,4.25,0,0,0,0,0,0Z" shaper:cutDepth="0.3cm"/>
    <path class="cls-3" d="M184.64,11.34c0,2.35,1.9,4.25,4.25,4.25,2.35,0,4.25-1.9,4.25-4.25h0c0-2.35-1.9-4.26-4.25-4.26-2.35,0-4.25,1.9-4.25,4.25h0Z" shaper:cutDepth="0.3cm"/>
    <path class="cls-3" d="M57.08,195.59c0,2.35,1.9,4.25,4.25,4.25s4.25-1.9,4.25-4.25c0-2.35-1.9-4.25-4.25-4.25-2.35,0-4.25,1.9-4.25,4.25,0,0,0,0,0,0Z" shaper:cutDepth="0.3cm"/>
    <path class="cls-3" d="M38.65,46.77h36.85v-21.26h-36.85c-4.7,0-8.5,3.81-8.5,8.5v4.25c0,4.7,3.81,8.5,8.5,8.5Z" shaper:cutDepth="0.3cm"/>
  </g>
  <g>
    <path class="cls-1" d="M122.41,188.09h0l.57-.13.28-.08.27-.1.25-.13.24-.16.45-.36h0l.28-.42.12-.22.09-.23.06-.24.04-.24.04-.5h0l-.03-.44-.07-.43-.06-.21-.08-.2-.19-.4h0l-.25-.34-.27-.32-.32-.28-.34-.25h0l-.48-.25-.49-.22-.51-.17-.52-.14h0l-.63-.13-.64-.1-.64-.05-.64-.02h-.42s.48.37.48.37l.23.19.21.21.19.22.18.24.33.5h0l.26.56.11.28.09.29.06.3.04.3.05.62h0l-.05.51-.07.5-.1.48-.07.23-.09.23-.1.22-.12.21-.28.41-.31.39-.33.39h0l-.45.33-.46.31-.47.27-.24.12-.25.1-.52.15-.54.09-.55.06-.56.04h0l-.58-.04-.57-.06-.56-.1-.27-.07-.26-.08-.26-.1-.25-.12-.49-.28-.47-.33-.46-.35h0l-.35-.42-.33-.42-.29-.44-.12-.23-.11-.24-.09-.24-.07-.25-.11-.52-.07-.53-.05-.54h0l.07-.8.06-.39.09-.38.13-.37.16-.36.38-.71h0l.53-.65.28-.3.31-.28.33-.24.35-.22.74-.39h0l1.17-.34.59-.14.6-.1.6-.07.61-.04,1.22-.02h0l1.32.03.66.04.65.07.65.1.64.14,1.28.33h0l.85.38.4.21.38.24.36.28.33.31.62.68h0l.44.76.19.39.15.4.1.42.07.43.07.88h0l-.07.89-.07.43-.11.42-.16.4-.21.38-.49.74h0l-.68.58-.36.26-.38.21-.4.16-.42.12-.88.18-.19-2.01ZM112.23,182.51h0l-.44.5-.19.26-.15.28-.11.3-.07.31-.09.66h0l.1.69.08.33.12.31.17.29.2.27.47.52h0l.67.45.35.19.36.15.38.1.39.06.81.07h0l.73-.07.35-.06.34-.1.32-.14.31-.18.59-.43h0l.43-.53.18-.28.15-.29.1-.31.07-.33.08-.68h0l-.08-.67-.07-.32-.1-.31-.15-.29-.19-.27-.43-.52h0l-.64-.42-.33-.18-.34-.14-.36-.09-.37-.06-.77-.05h0l-.78.06-.38.06-.37.09-.35.14-.34.18-.65.43Z" shaper:cutDepth="0.05cm"/>
    <path class="cls-1" d="M126.53,192.65v11.24h-.37s-.37-.05-.37-.05l-.36-.08-.35-.11h0l-.61-.28-.58-.31-.55-.38-.53-.41h0l-.69-.64-.66-.67-.62-.7-.6-.72h0l-.83-1-.43-.49-.44-.48-.46-.46-.47-.45-.98-.86h0l-.58-.38-.3-.17-.31-.14-.32-.11-.33-.08-.68-.1h0l-.59.07-.28.06-.27.09-.25.13-.24.16-.46.38h0l-.37.52-.16.27-.12.28-.09.3-.05.31-.06.64h0l.06.67.06.32.09.31.13.29.17.28.4.54h0l.56.41.29.17.31.13.32.09.34.06.69.06-.22,2.15h0l-.52-.08-.51-.09-.5-.13-.47-.17-.23-.11-.22-.12-.42-.29-.4-.32-.39-.34h0l-.29-.44-.27-.44-.24-.46-.18-.47-.12-.49-.08-.51-.07-1.05h0l.03-.53.05-.53.08-.52.13-.5.09-.24.11-.23.26-.45.29-.44.31-.43h0l.36-.31.37-.29.39-.26.41-.21.43-.15.46-.1.47-.06.48-.05h0l.52.03.51.07.5.14.49.17h0l.56.29.54.32.5.37.48.4h0l.79.77.76.79.73.82.71.84h0l1.04,1.23.54.6.55.59h0l.54.47.59.41v-8.34h2.01Z" shaper:cutDepth="0.05cm"/>
    <path class="cls-1" d="M107.79,48.65v7.49h-.25s-.24-.03-.24-.03l-.24-.06-.24-.07h0l-.4-.18-.39-.21-.36-.25-.35-.27h0l-.46-.43-.44-.44-.42-.47-.4-.48h0l-.56-.67-.58-.65-.62-.61-.65-.58h0l-.39-.25-.2-.11-.2-.09-.21-.07-.22-.05-.45-.07h0l-.39.05-.19.04-.18.06-.17.09-.16.11-.31.25h0l-.25.35-.11.18-.08.19-.06.2-.04.21-.04.43h0l.04.45.04.22.06.21.09.2.11.19.27.36h0l.37.27.19.11.2.09.21.06.22.04.46.04-.15,1.43h0l-.69-.11-.33-.08-.32-.12-.3-.16-.28-.19-.53-.44h0l-.38-.59-.16-.3-.12-.32-.08-.33-.05-.34-.05-.7h0l.05-.71.06-.34.09-.33.13-.32.17-.3.4-.58h0l.49-.4.26-.17.27-.14.29-.1.3-.06.63-.07h0l.34.02.34.05.33.09.32.12h0l.37.19.36.21.33.25.32.27h0l.52.51.51.53.96,1.11h0l.7.82.73.79h0l.36.31.39.27v-5.56h1.34Z" shaper:cutDepth="0.05cm"/>
    <path class="cls-1" d="M59.68,93.1v4.92h-1.28l-7.35-5.17v-1.14h7.35v-1.53h1.28v1.53h2.71v1.39h-2.71ZM53.29,93.1l5.11,3.55v-3.55h-5.11Z" shaper:cutDepth="0.05cm"/>
    <path class="cls-1" d="M170.47,76.79h0l.45-.1.22-.06.21-.08.2-.1.19-.13.35-.29h0l.23-.32.1-.17.08-.17.06-.18.04-.19.04-.39h0l-.06-.48-.05-.23-.08-.22-.11-.21-.14-.19-.32-.37h0l-.45-.31-.24-.13-.25-.1-.26-.07-.27-.04-.55-.04h0l-.52.04-.25.04-.24.07-.23.1-.22.13-.42.3h0l-.3.39-.13.2-.1.21-.07.23-.04.24-.05.49h0l.02.32.05.31.1.3.13.29h0l.16.25.18.23.21.2.23.18-.17,1.31-5.82-1.1v-5.64h1.33v4.52l3.05.61h0l-.29-.5-.13-.26-.1-.26-.08-.27-.05-.28-.06-.57h0l.08-.7.07-.34.11-.32.15-.3.19-.29.44-.55h0l.59-.44.31-.19.32-.15.34-.1.35-.07.73-.07h0l.72.07.35.06.34.09.33.13.31.16.61.39h0l.3.31.29.32.25.33.2.36.14.39.09.41.06.43.04.43h0l-.06.69-.05.33-.09.32-.13.31-.16.3-.38.57h0l-.5.44-.26.19-.28.16-.3.12-.31.09-.65.13-.12-1.46Z" shaper:cutDepth="0.05cm"/>
    <path class="cls-1" d="M95.81,143.62h0l.47-.12.23-.07.22-.09.21-.11.2-.13.38-.3h0l.22-.32.1-.16.08-.17.05-.18.03-.19.04-.39h0l-.05-.46-.05-.22-.07-.21-.1-.2-.12-.19-.29-.37h0l-.37-.29-.19-.12-.2-.1-.22-.07-.23-.05-.47-.05h0l-.44.04-.21.04-.2.06-.19.09-.18.12-.35.27h0l-.27.35-.11.18-.09.19-.06.21-.04.21-.04.44h0l.05.5.11.49-1.22-.15h0l.02-.22h0l-.03-.42-.03-.21-.05-.2-.07-.2-.08-.19-.2-.38h0l-.29-.31-.16-.13-.17-.1-.19-.07-.2-.05-.42-.05h0l-.35.04-.17.03-.16.05-.15.08-.15.1-.28.22h0l-.22.3-.09.16-.07.16-.05.17-.03.18-.03.37h0l.04.37.03.18.05.17.07.17.09.16.22.3h0l.34.26.18.12.19.1.2.07.21.06.42.09-.25,1.39h0l-.61-.16-.29-.1-.28-.13-.26-.16-.25-.19-.47-.42h0l-.34-.51-.14-.27-.11-.28-.08-.29-.05-.3-.05-.61h0l.03-.44.07-.43.13-.42.17-.41h0l.21-.35.24-.32.3-.27.33-.24h0l.35-.17.36-.14.37-.07.39-.03h0l.35.03.34.07.33.13.31.17h0l.3.24.26.27.21.31.18.34h0l.15-.45.09-.22.11-.2.13-.19.15-.18.34-.33h0l.42-.25.22-.1.22-.08.23-.06.24-.03.49-.04h0l.71.09.34.07.32.11.3.16.29.2.55.46h0l.45.61.19.32.15.33.1.35.07.37.07.76h0l-.06.68-.06.33-.09.32-.13.3-.16.29-.39.56h0l-.5.44-.26.19-.28.16-.3.12-.31.09-.65.13-.19-1.39Z" shaper:cutDepth="0.05cm"/>
    <path class="cls-1" d="M157.12,143.81v7.49h-.25s-.24-.03-.24-.03l-.24-.06-.24-.07h0l-.4-.18-.39-.21-.36-.25-.35-.27h0l-.46-.43-.44-.44-.42-.47-.4-.48h0l-.56-.67-.58-.65-.62-.61-.65-.58h0l-.39-.25-.2-.11-.2-.09-.21-.07-.22-.05-.45-.07h0l-.39.05-.19.04-.18.06-.17.09-.16.11-.31.25h0l-.25.35-.11.18-.08.19-.06.2-.04.21-.04.43h0l.04.45.04.22.06.21.09.2.11.19.27.36h0l.37.27.19.11.2.09.21.06.22.04.46.04-.15,1.43h0l-.69-.11-.33-.08-.32-.12-.3-.16-.28-.19-.53-.44h0l-.38-.59-.16-.3-.12-.32-.08-.33-.05-.34-.05-.7h0l.05-.71.06-.34.09-.33.13-.32.17-.3.4-.58h0l.49-.4.26-.17.27-.14.29-.1.3-.06.63-.07h0l.34.02.34.05.33.09.32.12h0l.37.19.36.21.33.25.32.27h0l.52.51.51.53.96,1.11h0l.7.82.73.79h0l.36.31.39.27v-5.56h1.34Z" shaper:cutDepth="0.05cm"/>
  </g>
</svg>