<?xml version="1.0" encoding="utf-8"?>
<!-- Generator: Fusion 360, Shaper Origin Export Add-In, Version 1.7.0  -->
<svg xmlns="http://www.w3.org/2000/svg" xmlns:xlink="http://www.w3.org/1999/xlink" xmlns:shaper="http://www.shapertools.com/namespaces/shaper" shaper:fusionaddin="version:1.7.0" width="7.058524cm" height="7.3cm" version="1.1" x="0cm" y="0cm" viewBox="0 0 7.058524 7.3" enable-background="new 0 0 7.058524 7.3" xml:space="preserve"><path d="M-3.529262,-2.0046781 L-1.8572407,-3.5690658 A0.3,0.3 226.9047902 0,1 -1.6522768,-3.65 L3.229262,-3.65 A0.3,0.3 270 0,1 3.529262,-3.35 L3.529262,-2.7885309 3.229262,-2.7885309 3.229262,-0.7885309 3.529262,-0.7885309 3.529262,3.35 A0.3,0.3 0 0,1 3.229262,3.65 L-1.6522768,3.65 A0.3,0.3 90 0,1 -1.8572407,3.5690658 L-3.529262,2.0046781 -3.529262,1.65 -3.2342727,1.65 -3.2342727,-1.65 -3.529262,-1.65 -3.529262,-2.0046781z" transform="matrix(1,0,0,-1,3.529262,3.65)" fill="rgb(0,0,0)" shaper:cutDepth="0.3cm" stroke-linecap="round" stroke-linejoin="round" /><path d="M2.8323061,-2.1750124 L2.8323061,-2.3485458 2.7872856,-2.3485458 2.5280769,-2.1660083 2.5280769,-2.1258991 2.7872856,-2.1258991 2.7872856,-2.0718746 2.8323061,-2.0718746 2.8323061,-2.1258991 2.9280769,-2.1258991 2.9280769,-2.1750124 2.8323061,-2.1750124z M2.6069309,-2.1750124 L2.7872856,-2.3002511 2.7872856,-2.1750124 2.6069309,-2.1750124z" transform="matrix(1,0,0,-1,3.529262,3.65)" fill="rgb(116,116,116)" fill-rule="nonzero" shaper:cutDepth="0.05cm" stroke-linecap="round" stroke-linejoin="round" /><path d="M2.4502746,0.2887733 L2.4502746,0.0243804 2.4502746,0.0243804 2.4415498,0.0246353 2.4329329,0.0255311 2.4244963,0.0274983 2.4161682,0.0301102 2.4161682,0.0301102 2.4018953,0.0365809 2.3881704,0.0439612 2.3753157,0.0527862 2.3629622,0.0624431 2.3629622,0.0624431 2.3468307,0.0775663 2.3312874,0.0932496 2.3166031,0.1097507 2.3023892,0.1266996 2.3023892,0.1266996 2.2828062,0.1503003 2.2624477,0.1731396 2.2406162,0.1945328 2.2176689,0.2148305 2.2176689,0.2148305 2.2040863,0.2237489 2.1971047,0.2276961 2.1898945,0.2310287 2.1823873,0.2335623 2.1746086,0.2353657 2.1585966,0.2377501 2.1585966,0.2377501 2.1447551,0.2361344 2.1380945,0.2347135 2.1317462,0.2325571 2.1257804,0.2294994 2.1201283,0.2257026 2.1093469,0.216877 2.1093469,0.216877 2.1005546,0.2046962 2.0968228,0.1983548 2.093888,0.1917122 2.0918825,0.1847186 2.0906112,0.1774476 2.0892923,0.1624431 2.0892923,0.1624431 2.090661,0.14673 2.0919976,0.1391252 2.094117,0.1318223 2.0972306,0.1249031 2.1012018,0.1183147 2.1105747,0.10569 2.1105747,0.10569 2.1237281,0.0961435 2.1305874,0.0921137 2.1377854,0.0889747 2.1453675,0.0868462 2.1532489,0.0855049 2.1695106,0.0841348 2.1643264,0.0336573 2.1643264,0.0336573 2.14013,0.0377036 2.128468,0.0406575 2.1173295,0.0447284 2.1068636,0.0502342 2.0969921,0.0570085 2.0782419,0.072675 2.0782419,0.072675 2.0649647,0.0933964 2.0593793,0.1041143 2.0550552,0.1152603 2.0521568,0.1268898 2.0503675,0.1388957 2.0486375,0.1635345 2.0486375,0.1635345 2.0505504,0.1885249 2.052499,0.2006592 2.0556381,0.2123604 2.060303,0.2235066 2.0663094,0.2341648 2.0805611,0.2546668 2.0805611,0.2546668 2.0978585,0.2688957 2.1069323,0.275011 2.1165163,0.2799273 2.1267204,0.2833863 2.1374292,0.285659 2.159688,0.2882276 2.159688,0.2882276 2.1718305,0.2874244 2.183785,0.2857116 2.1954299,0.282502 2.2068913,0.2784049 2.2068913,0.2784049 2.2200154,0.2716416 2.2326103,0.2640745 2.2443975,0.2552808 2.2557316,0.2457992 2.2557316,0.2457992 2.2742103,0.2276972 2.2921412,0.2090802 2.3261272,0.170083 2.3261272,0.170083 2.3506875,0.1411587 2.3764683,0.1133299 2.3764683,0.1133299 2.3892287,0.1022645 2.4030714,0.0925932 2.4030714,0.2887733 2.4502746,0.2887733z" transform="matrix(1,0,0,-1,3.529262,3.65)" fill="rgb(116,116,116)" fill-rule="nonzero" shaper:cutDepth="0.05cm" stroke-linecap="round" stroke-linejoin="round" /><path d="M-1.3317415,1.8406557 L-1.3317415,1.5762628 -1.3317415,1.5762628 -1.3404663,1.5765177 -1.3490832,1.5774136 -1.3575198,1.5793807 -1.3658479,1.5819927 -1.3658479,1.5819927 -1.3801208,1.5884633 -1.3938457,1.5958436 -1.4067004,1.6046686 -1.4190539,1.6143255 -1.4190539,1.6143255 -1.4351854,1.6294488 -1.4507287,1.6451321 -1.465413,1.6616331 -1.4796269,1.678582 -1.4796269,1.678582 -1.4992099,1.7021827 -1.5195684,1.725022 -1.5413999,1.7464153 -1.5643472,1.766713 -1.5643472,1.766713 -1.5779297,1.7756314 -1.5849114,1.7795785 -1.5921216,1.7829111 -1.5996288,1.7854447 -1.6074075,1.7872481 -1.6234195,1.7896325 -1.6234195,1.7896325 -1.637261,1.7880168 -1.6439215,1.786596 -1.6502699,1.7844395 -1.6562357,1.7813818 -1.6618878,1.777585 -1.6726692,1.7687594 -1.6726692,1.7687594 -1.6814615,1.7565786 -1.6851933,1.7502372 -1.6881281,1.7435947 -1.6901336,1.736601 -1.6914048,1.72933 -1.6927238,1.7143256 -1.6927238,1.7143256 -1.6913551,1.6986124 -1.6900185,1.6910076 -1.6878991,1.6837047 -1.6847855,1.6767855 -1.6808143,1.6701972 -1.6714413,1.6575725 -1.6714413,1.6575725 -1.658288,1.6480259 -1.6514287,1.6439961 -1.6442307,1.6408572 -1.6366486,1.6387286 -1.6287672,1.6373874 -1.6125055,1.6360172 -1.6176896,1.5855397 -1.6176896,1.5855397 -1.6418861,1.589586 -1.6535481,1.59254 -1.6646866,1.5966108 -1.6751525,1.6021166 -1.685024,1.6088909 -1.7037742,1.6245575 -1.7037742,1.6245575 -1.7170514,1.6452788 -1.7226368,1.6559968 -1.7269609,1.6671427 -1.7298593,1.6787722 -1.7316486,1.6907781 -1.7333786,1.7154169 -1.7333786,1.7154169 -1.7314657,1.7404073 -1.7295171,1.7525416 -1.726378,1.7642428 -1.7217131,1.775389 -1.7157067,1.7860472 -1.701455,1.8065493 -1.701455,1.8065493 -1.6841576,1.8207781 -1.6750838,1.8268934 -1.6654998,1.8318097 -1.6552957,1.8352687 -1.6445869,1.8375415 -1.6223281,1.84011 -1.6223281,1.84011 -1.6101856,1.8393068 -1.5982311,1.8375941 -1.5865862,1.8343844 -1.5751248,1.8302873 -1.5751248,1.8302873 -1.5620007,1.823524 -1.5494057,1.8159569 -1.5376186,1.8071633 -1.5262845,1.7976816 -1.5262845,1.7976816 -1.5078058,1.7795796 -1.4898749,1.7609626 -1.4558888,1.7219654 -1.4558888,1.7219654 -1.4313286,1.6930411 -1.4055478,1.6652123 -1.4055478,1.6652123 -1.3927874,1.6541469 -1.3789447,1.6444756 -1.3789447,1.8406557 -1.3317415,1.8406557z" transform="matrix(1,0,0,-1,3.529262,3.65)" fill="rgb(116,116,116)" fill-rule="nonzero" shaper:cutDepth="0.05cm" stroke-linecap="round" stroke-linejoin="round" /><path d="M0.3089525,-0.0657412 L0.3089525,-0.0657412 0.3255625,-0.0616749 0.3336198,-0.0591477 0.3413799,-0.0560275 0.3487493,-0.052128 0.355747,-0.0474867 0.3691162,-0.0369553 0.3691162,-0.0369553 0.3770116,-0.0258112 0.3803912,-0.0200256 0.383089,-0.0139839 0.3849686,-0.0076348 0.3861896,-0.0010383 0.3875337,0.0125672 0.3875337,0.0125672 0.3857042,0.0289175 0.3840814,0.0368011 0.3816091,0.0443348 0.3780917,0.0514381 0.3737135,0.0581869 0.3635227,0.0710937 0.3635227,0.0710937 0.3503618,0.0812884 0.3434871,0.0856584 0.3362594,0.0891557 0.3286061,0.0916009 0.3206088,0.0931957 0.3040411,0.0949682 0.3040411,0.0949682 0.2885046,0.0933942 0.2810024,0.0919447 0.2738195,0.0897002 0.2670353,0.0864633 0.2605854,0.0823939 0.2482431,0.0728673 0.2482431,0.0728673 0.2387557,0.0604011 0.2347062,0.0538926 0.2314895,0.0470537 0.229263,0.0398218 0.2278283,0.0322757 0.2262785,0.0166599 0.2262785,0.0166599 0.2279298,-0.0008284 0.2317355,-0.0179922 0.188625,-0.0125352 0.188625,-0.0125352 0.1891708,-0.0046225 0.1891708,-0.0046225 0.1879514,0.0103361 0.1868562,0.0176737 0.1851784,0.0248413 0.1827802,0.0317987 0.1797851,0.0385818 0.1727997,0.0518577 0.1727997,0.0518577 0.1625824,0.062839 0.1570521,0.0675038 0.1510161,0.0711778 0.1443887,0.0736931 0.1372932,0.0752915 0.1223222,0.07696 0.1223222,0.07696 0.1098015,0.0756221 0.1037658,0.0744087 0.0979998,0.0725419 0.0925683,0.0698641 0.0874156,0.066511 0.0775746,0.058679 0.0775746,0.058679 0.0698408,0.0481451 0.0665516,0.0426564 0.0639554,0.0369016 0.0621731,0.0308343 0.0610364,0.0245192 0.0598392,0.0114758 0.0598392,0.0114758 0.0611153,-0.001696 0.0622938,-0.008075 0.0641208,-0.0142059 0.0667582,-0.0200267 0.0700763,-0.0255869 0.0778474,-0.0362732 0.0778474,-0.0362732 0.0898484,-0.0455972 0.0961239,-0.0496774 0.1027278,-0.0530626 0.1096912,-0.055687 0.1169312,-0.0577263 0.131872,-0.0608298 0.1231407,-0.1099431 0.1231407,-0.1099431 0.1015068,-0.1042901 0.0911017,-0.1007095 0.0811907,-0.0962237 0.0719087,-0.0905861 0.0631715,-0.0839507 0.046606,-0.0690154 0.046606,-0.0690154 0.0347816,-0.0509232 0.0297503,-0.0415696 0.0257758,-0.0318474 0.0230445,-0.0216913 0.0213003,-0.0111908 0.0194573,0.0103843 0.0194573,0.0103843 0.0204931,0.0260413 0.0228658,0.0413841 0.0274989,0.056196 0.0335091,0.0706845 0.0335091,0.0706845 0.04104,0.0831029 0.0496723,0.0945129 0.0601816,0.1042046 0.0718447,0.11284 0.0718447,0.11284 0.0840464,0.1189419 0.096622,0.1237156 0.109827,0.126254 0.1234136,0.1274375 0.1234136,0.1274375 0.1359277,0.1263715 0.1480542,0.1239943 0.1595314,0.1194206 0.1706169,0.1135221 0.1706169,0.1135221 0.1811158,0.1049193 0.1904643,0.0953596 0.1979842,0.0842788 0.2044504,0.0723216 0.2044504,0.0723216 0.2095742,0.0882035 0.2126975,0.095794 0.2164946,0.1029638 0.2211387,0.109605 0.2265004,0.1157981 0.2384204,0.1274375 0.2384204,0.1274375 0.2533754,0.136107 0.261061,0.1397773 0.2689962,0.1426509 0.27722,0.1446036 0.2856705,0.1458323 0.3029497,0.1470828 0.3029497,0.1470828 0.327963,0.1440744 0.3399899,0.1414535 0.3514411,0.1374925 0.3621903,0.1318971 0.3723663,0.1249673 0.3917628,0.1088837 0.3917628,0.1088837 0.4075377,0.087294 0.4142643,0.0760539 0.4195983,0.0642798 0.423282,0.0518726 0.425649,0.0389604 0.4281885,0.0122943 0.4281885,0.0122943 0.4260405,-0.0116518 0.4240174,-0.0232776 0.4208555,-0.0344869 0.4162614,-0.0451722 0.4104528,-0.0554132 0.3968106,-0.0751545 0.3968106,-0.0751545 0.3791561,-0.0905034 0.3698668,-0.0972403 0.3600231,-0.102852 0.3495153,-0.1071164 0.3384738,-0.1102975 0.3155009,-0.1148544 0.3089525,-0.0657412z" transform="matrix(1,0,0,-1,3.529262,3.65)" fill="rgb(116,116,116)" fill-rule="nonzero" shaper:cutDepth="0.05cm" stroke-linecap="round" stroke-linejoin="round" /><path d="M2.8320794,2.0392776 L2.8320794,2.0392776 2.8478376,2.0426365 2.855458,2.044847 2.8627679,2.0476947 2.8696753,2.0513682 2.8762186,2.0557891 2.8886961,2.0658806 2.8886961,2.0658806 2.8967871,2.0771949 2.9002564,2.0830706 2.9030343,2.0892086 2.9049778,2.0956632 2.9062465,2.1023738 2.9076593,2.1162217 2.9076593,2.1162217 2.9055178,2.1332444 2.9036689,2.1414105 2.9008861,2.1491623 2.8969697,2.156411 2.8921317,2.1632508 2.8809198,2.1762489 2.8809198,2.1762489 2.8648891,2.18715 2.8565708,2.1917544 2.8478896,2.1953447 2.838792,2.1977722 2.8293686,2.1992892 2.8099785,2.2008055 2.8099785,2.2008055 2.7917453,2.1993892 2.7828998,2.1979478 2.7743795,2.1956265 2.766276,2.1921775 2.7585387,2.1877376 2.7436756,2.1772039 2.7436756,2.1772039 2.7331017,2.1635603 2.7286021,2.1564226 2.725047,2.148906 2.7226033,2.1409435 2.7210424,2.1326268 2.7193919,2.1154031 2.7193919,2.1154031 2.720167,2.1042052 2.7219736,2.0932699 2.7255339,2.0827808 2.7301695,2.0725654 2.7301695,2.0725654 2.735879,2.0638613 2.7422784,2.0558031 2.749849,2.0488418 2.7581367,2.0425518 2.752134,1.9964399 2.546677,2.0351848 2.546677,2.2340934 2.5936074,2.2340934 2.5936074,2.0744754 2.7011108,2.0529201 2.7011108,2.0529201 2.6907892,2.0704909 2.6863046,2.0794976 2.6826314,2.0887698 2.6799749,2.0983748 2.6781762,2.1082605 2.6760085,2.1284999 2.6760085,2.1284999 2.6787698,2.153202 2.6812209,2.1651119 2.6849565,2.1764923 2.6902725,2.1872214 2.6968908,2.1974137 2.7122977,2.2169038 2.7122977,2.2169038 2.7330198,2.2325373 2.7438354,2.2391979 2.7551964,2.2444715 2.7672019,2.2481062 2.7797205,2.2504358 2.8056129,2.2529201 2.8056129,2.2529201 2.8309931,2.2506253 2.8433612,2.2485331 2.8553428,2.2453072 2.8668437,2.2406712 2.8779433,2.2348579 2.8994737,2.2212694 2.8994737,2.2212694 2.9102227,2.21033 2.9203657,2.1991068 2.9292969,2.1873158 2.9364105,2.1746733 2.9413519,2.1610132 2.9445502,2.1465364 2.9465862,2.1315151 2.9480412,2.1162217 2.9480412,2.1162217 2.9460799,2.0919466 2.9441622,2.0801396 2.9411201,2.0687294 2.9366495,2.0578233 2.9309458,2.0473522 2.9174819,2.0271357 2.9174819,2.0271357 2.8999292,2.0117887 2.8906823,2.0050697 2.8808709,1.9994959 2.8703892,1.9952819 2.859372,1.992154 2.8364451,1.9877087 2.8320794,2.0392776z" transform="matrix(1,0,0,-1,3.529262,3.65)" fill="rgb(116,116,116)" fill-rule="nonzero" shaper:cutDepth="0.05cm" stroke-linecap="round" stroke-linejoin="round" /><path d="M0.9004269,-3.1764418 L0.4309862,-3.1764418 0.4309862,-3.1764418 0.4450607,-3.1928692 0.4583326,-3.2098857 0.4703786,-3.2278021 0.4817366,-3.2462235 0.4817366,-3.2462235 0.4923951,-3.2650569 0.5024625,-3.284178 0.511476,-3.3038118 0.5197993,-3.3237815 0.4485852,-3.3237815 0.4485852,-3.3237815 0.4336707,-3.2950134 0.4257637,-3.2809235 0.4173172,-3.2671866 0.4081963,-3.2538907 0.3985088,-3.2409653 0.3781895,-3.2157323 0.3781895,-3.2157323 0.3601823,-3.1968089 0.3508504,-3.1877565 0.3411246,-3.1791951 0.3308859,-3.171273 0.320177,-3.1639373 0.2979712,-3.150248 0.2979712,-3.1027719 0.9004269,-3.1027719 0.9004269,-3.1764418z" transform="matrix(1,0,0,-1,3.529262,3.65)" fill="rgb(116,116,116)" fill-rule="nonzero" shaper:cutDepth="0.05cm" stroke-linecap="round" stroke-linejoin="round" /><path d="M2.3439485,1.781092 a0.15,0.15 0 1,1 0.3,0 a0.15,0.15 0 1,1 -0.3,0z" transform="matrix(1,0,0,-1,3.529262,3.65)" fill="rgb(255,255,255)" stroke="rgb(0,0,0)" stroke-width="0.0010cm" stroke-linecap="round" stroke-linejoin="round" shaper:cutDepth="0.3cm" /><path d="M-0.1789057,-0.3232446 a0.15,0.15 0 1,1 0.3,0 a0.15,0.15 0 1,1 -0.3,0z" transform="matrix(1,0,0,-1,3.529262,3.65)" fill="rgb(255,255,255)" stroke="rgb(0,0,0)" stroke-width="0.0010cm" stroke-linecap="round" stroke-linejoin="round" shaper:cutDepth="0.3cm" /><path d="M-2.0964008,1.5963061 a0.15,0.15 0 1,1 0.3,0 a0.15,0.15 0 1,1 -0.3,0z" transform="matrix(1,0,0,-1,3.529262,3.65)" fill="rgb(255,255,255)" stroke="rgb(0,0,0)" stroke-width="0.0010cm" stroke-linecap="round" stroke-linejoin="round" shaper:cutDepth="0.3cm" /><path d="M1.8502746,-0.1795078 a0.15,0.15 0 1,1 0.3,0 a0.15,0.15 0 1,1 -0.3,0z" transform="matrix(1,0,0,-1,3.529262,3.65)" fill="rgb(255,255,255)" stroke="rgb(0,0,0)" stroke-width="0.0010cm" stroke-linecap="round" stroke-linejoin="round" shaper:cutDepth="0.3cm" /><path d="M2.3280768,-2.5413834 a0.15,0.15 0 1,1 0.3,0 a0.15,0.15 0 1,1 -0.3,0z" transform="matrix(1,0,0,-1,3.529262,3.65)" fill="rgb(255,255,255)" stroke="rgb(0,0,0)" stroke-width="0.0010cm" stroke-linecap="round" stroke-linejoin="round" shaper:cutDepth="0.3cm" /><path d="M-2.5342727,1.25 L-2.5342727,-1.25 -2.2342727,-1.25 -2.2342727,1.25 -2.5342727,1.25z" transform="matrix(1,0,0,-1,3.529262,3.65)" fill="rgb(255,255,255)" stroke="rgb(0,0,0)" stroke-width="0.0010cm" stroke-linecap="round" stroke-linejoin="round" shaper:cutDepth="0.3cm" /><path d="M2.979262,-3.25 a0.15,0.15 0 1,1 0.3,0 a0.15,0.15 0 1,1 -0.3,0z" transform="matrix(1,0,0,-1,3.529262,3.65)" fill="rgb(255,255,255)" stroke="rgb(0,0,0)" stroke-width="0.0010cm" stroke-linecap="round" stroke-linejoin="round" shaper:cutDepth="0.3cm" /><path d="M-1.520738,3.25 a0.15,0.15 0 1,1 0.3,0 a0.15,0.15 0 1,1 -0.3,0z" transform="matrix(1,0,0,-1,3.529262,3.65)" fill="rgb(255,255,255)" stroke="rgb(0,0,0)" stroke-width="0.0010cm" stroke-linecap="round" stroke-linejoin="round" shaper:cutDepth="0.3cm" /><path d="M2.979262,3.25 a0.15,0.15 0 1,1 0.3,0 a0.15,0.15 0 1,1 -0.3,0z" transform="matrix(1,0,0,-1,3.529262,3.65)" fill="rgb(255,255,255)" stroke="rgb(0,0,0)" stroke-width="0.0010cm" stroke-linecap="round" stroke-linejoin="round" shaper:cutDepth="0.3cm" /><path d="M-1.520738,-3.25 a0.15,0.15 0 1,1 0.3,0 a0.15,0.15 0 1,1 -0.3,0z" transform="matrix(1,0,0,-1,3.529262,3.65)" fill="rgb(255,255,255)" stroke="rgb(0,0,0)" stroke-width="0.0010cm" stroke-linecap="round" stroke-linejoin="round" shaper:cutDepth="0.3cm" /><path d="M-2.1707381,2 L-0.870738,2 -0.870738,2.7500001 -2.1707381,2.7500001 A0.3,0.3 90 0,1 -2.4707381,2.4500001 L-2.4707381,2.3 A0.3,0.3 180 0,1 -2.1707381,2z" transform="matrix(1,0,0,-1,3.529262,3.65)" fill="rgb(255,255,255)" stroke="rgb(0,0,0)" stroke-width="0.0010cm" stroke-linecap="round" stroke-linejoin="round" shaper:cutDepth="0.3cm" /></svg>