<?xml version="1.0" encoding="utf-8"?>
<!-- Generator: Fusion 360, Shaper Origin Export Add-In, Version 1.7.0  -->
<svg xmlns="http://www.w3.org/2000/svg" xmlns:xlink="http://www.w3.org/1999/xlink" xmlns:shaper="http://www.shapertools.com/namespaces/shaper" shaper:fusionaddin="version:1.7.0" width="7.058524cm" height="7.3cm" version="1.1" x="0cm" y="0cm" viewBox="0 0 7.058524 7.3" enable-background="new 0 0 7.058524 7.3" xml:space="preserve"><path d="M-3.529262,0.6478457 L-1.8572407,-0.916542 A0.3,0.3 226.9047902 0,1 -1.6522768,-0.9974762 L3.229262,-0.9974762 A0.3,0.3 270 0,1 3.529262,-0.6974762 L3.529262,-0.136007 3.229262,-0.136007 3.229262,1.863993 3.529262,1.863993 3.529262,6.0025238 A0.3,0.3 0 0,1 3.229262,6.3025238 L-1.6522768,6.3025238 A0.3,0.3 90 0,1 -1.8572407,6.2215896 L-3.529262,4.6572019 -3.529262,4.3025238 -3.2342727,4.3025238 -3.2342727,1.0025238 -3.529262,1.0025238 -3.529262,0.6478457z" transform="matrix(1,0,0,-1,3.529262,6.3025238)" fill="rgb(0,0,0)" shaper:cutDepth="0.3cm" stroke-linecap="round" stroke-linejoin="round" /><path d="M2.8953907,4.2695356 L2.8953907,4.0051426 2.8953907,4.0051426 2.8866659,4.0053976 2.878049,4.0062934 2.8696124,4.0082606 2.8612843,4.0108725 2.8612843,4.0108725 2.8470114,4.0173432 2.8332865,4.0247235 2.8204318,4.0335484 2.8080783,4.0432054 2.8080783,4.0432054 2.7919468,4.0583286 2.7764035,4.0740119 2.7617192,4.090513 2.7475053,4.1074619 2.7475053,4.1074619 2.7279223,4.1310625 2.7075638,4.1539019 2.6857323,4.1752951 2.662785,4.1955928 2.662785,4.1955928 2.6492025,4.2045112 2.6422208,4.2084584 2.6350106,4.211791 2.6275034,4.2143246 2.6197247,4.216128 2.6037127,4.2185124 2.6037127,4.2185124 2.5898712,4.2168967 2.5832107,4.2154758 2.5768623,4.2133194 2.5708965,4.2102617 2.5652444,4.2064649 2.554463,4.1976392 2.554463,4.1976392 2.5456707,4.1854585 2.541939,4.1791171 2.5390041,4.1724745 2.5369986,4.1654809 2.5357274,4.1582098 2.5344085,4.1432054 2.5344085,4.1432054 2.5357771,4.1274923 2.5371137,4.1198874 2.5392331,4.1125846 2.5423467,4.1056654 2.5463179,4.099077 2.5556909,4.0864523 2.5556909,4.0864523 2.5688442,4.0769057 2.5757035,4.072876 2.5829015,4.069737 2.5904836,4.0676085 2.598365,4.0662672 2.6146267,4.0648971 2.6094426,4.0144196 2.6094426,4.0144196 2.5852461,4.0184659 2.5735841,4.0214198 2.5624456,4.0254907 2.5519797,4.0309965 2.5421082,4.0377708 2.523358,4.0534373 2.523358,4.0534373 2.5100808,4.0741587 2.5044954,4.0848766 2.5001713,4.0960225 2.4972729,4.1076521 2.4954836,4.119658 2.4937536,4.1442968 2.4937536,4.1442968 2.4956665,4.1692872 2.4976151,4.1814215 2.5007542,4.1931227 2.5054191,4.2042689 2.5114255,4.2149271 2.5256772,4.2354291 2.5256772,4.2354291 2.5429746,4.249658 2.5520485,4.2557733 2.5616324,4.2606896 2.5718365,4.2641486 2.5825453,4.2664213 2.6048041,4.2689899 2.6048041,4.2689899 2.6169466,4.2681867 2.6289011,4.2664739 2.640546,4.2632643 2.6520074,4.2591672 2.6520074,4.2591672 2.6651315,4.2524038 2.6777265,4.2448368 2.6895136,4.2360431 2.7008477,4.2265615 2.7008477,4.2265615 2.7193264,4.2084594 2.7372573,4.1898425 2.7712434,4.1508452 2.7712434,4.1508452 2.7958036,4.121921 2.8215844,4.0940922 2.8215844,4.0940922 2.8343448,4.0830268 2.8481875,4.0733555 2.8481875,4.2695356 2.8953907,4.2695356z" transform="matrix(1,0,0,-1,3.529262,6.3025238)" fill="rgb(116,116,116)" fill-rule="nonzero" shaper:cutDepth="0.05cm" stroke-linecap="round" stroke-linejoin="round" /><path d="M2.6882494,1.2799273 L2.6882494,1.1063939 2.6432289,1.1063939 2.3840202,1.2889314 2.3840202,1.3290405 2.6432289,1.3290405 2.6432289,1.3830651 2.6882494,1.3830651 2.6882494,1.3290405 2.7840202,1.3290405 2.7840202,1.2799273 2.6882494,1.2799273z M2.4628742,1.2799273 L2.6432289,1.1546886 2.6432289,1.2799273 2.4628742,1.2799273z" transform="matrix(1,0,0,-1,3.529262,6.3025238)" fill="rgb(116,116,116)" fill-rule="nonzero" shaper:cutDepth="0.05cm" stroke-linecap="round" stroke-linejoin="round" /><path d="M0.1363227,2.6051126 L0.1363227,2.4315792 0.0913022,2.4315792 -0.1679065,2.6141167 -0.1679065,2.6542259 0.0913022,2.6542259 0.0913022,2.7082504 0.1363227,2.7082504 0.1363227,2.6542259 0.2320935,2.6542259 0.2320935,2.6051126 0.1363227,2.6051126z M-0.0890525,2.6051126 L0.0913022,2.4798739 0.0913022,2.6051126 -0.0890525,2.6051126z" transform="matrix(1,0,0,-1,3.529262,6.3025238)" fill="rgb(116,116,116)" fill-rule="nonzero" shaper:cutDepth="0.05cm" stroke-linecap="round" stroke-linejoin="round" /><path d="M-1.1979993,0.4091144 L-1.1979993,0.1447215 -1.1979993,0.1447215 -1.2067241,0.1449765 -1.215341,0.1458723 -1.2237776,0.1478394 -1.2321057,0.1504514 -1.2321057,0.1504514 -1.2463786,0.1569221 -1.2601035,0.1643023 -1.2729582,0.1731273 -1.2853117,0.1827843 -1.2853117,0.1827843 -1.3014432,0.1979075 -1.3169865,0.2135908 -1.3316708,0.2300919 -1.3458847,0.2470408 -1.3458847,0.2470408 -1.3654677,0.2706414 -1.3858262,0.2934808 -1.4076577,0.314874 -1.430605,0.3351717 -1.430605,0.3351717 -1.4441876,0.3440901 -1.4511692,0.3480372 -1.4583794,0.3513699 -1.4658866,0.3539034 -1.4736653,0.3557069 -1.4896773,0.3580912 -1.4896773,0.3580912 -1.5035188,0.3564755 -1.5101793,0.3550547 -1.5165277,0.3528982 -1.5224935,0.3498406 -1.5281456,0.3460437 -1.538927,0.3372181 -1.538927,0.3372181 -1.5477193,0.3250373 -1.5514511,0.3186959 -1.5543859,0.3120534 -1.5563914,0.3050598 -1.5576627,0.2977887 -1.5589816,0.2827843 -1.5589816,0.2827843 -1.5576129,0.2670712 -1.5562763,0.2594663 -1.5541569,0.2521635 -1.5510433,0.2452442 -1.5470721,0.2386559 -1.5376992,0.2260312 -1.5376992,0.2260312 -1.5245458,0.2164846 -1.5176865,0.2124549 -1.5104885,0.2093159 -1.5029064,0.2071873 -1.495025,0.2058461 -1.4787633,0.2044759 -1.4839474,0.1539985 -1.4839474,0.1539985 -1.5081439,0.1580448 -1.5198059,0.1609987 -1.5309444,0.1650695 -1.5414103,0.1705754 -1.5512818,0.1773497 -1.570032,0.1930162 -1.570032,0.1930162 -1.5833092,0.2137375 -1.5888946,0.2244555 -1.5932187,0.2356014 -1.5961171,0.247231 -1.5979064,0.2592368 -1.5996364,0.2838757 -1.5996364,0.2838757 -1.5977235,0.308866 -1.5957749,0.3210003 -1.5926358,0.3327016 -1.5879709,0.3438478 -1.5819645,0.354506 -1.5677128,0.375008 -1.5677128,0.375008 -1.5504154,0.3892368 -1.5413416,0.3953521 -1.5317576,0.4002685 -1.5215535,0.4037274 -1.5108447,0.4060002 -1.4885859,0.4085687 -1.4885859,0.4085687 -1.4764434,0.4077655 -1.4644889,0.4060528 -1.452844,0.4028431 -1.4413826,0.3987461 -1.4413826,0.3987461 -1.4282585,0.3919827 -1.4156636,0.3844156 -1.4038764,0.375622 -1.3925423,0.3661403 -1.3925423,0.3661403 -1.3740636,0.3480383 -1.3561327,0.3294213 -1.3221466,0.2904241 -1.3221466,0.2904241 -1.2975864,0.2614999 -1.2718056,0.233671 -1.2718056,0.233671 -1.2590452,0.2226057 -1.2452025,0.2129344 -1.2452025,0.4091144 -1.1979993,0.4091144z" transform="matrix(1,0,0,-1,3.529262,6.3025238)" fill="rgb(116,116,116)" fill-rule="nonzero" shaper:cutDepth="0.05cm" stroke-linecap="round" stroke-linejoin="round" /><path d="M0.6765605,4.5948549 L0.6765605,4.5948549 0.6923187,4.5982139 0.6999391,4.6004243 0.707249,4.603272 0.7141564,4.6069455 0.7206997,4.6113664 0.7331772,4.6214579 0.7331772,4.6214579 0.7412682,4.6327722 0.7447375,4.6386479 0.7475154,4.6447859 0.7494589,4.6512405 0.7507276,4.6579511 0.7521404,4.671799 0.7521404,4.671799 0.7499989,4.6888218 0.74815,4.6969879 0.7453672,4.7047396 0.7414508,4.7119883 0.7366128,4.7188281 0.7254009,4.7318262 0.7254009,4.7318262 0.7093702,4.7427273 0.7010519,4.7473317 0.6923706,4.750922 0.6832731,4.7533495 0.6738497,4.7548665 0.6544596,4.7563828 0.6544596,4.7563828 0.6362264,4.7549665 0.6273809,4.7535251 0.6188606,4.7512038 0.6107571,4.7477548 0.6030198,4.7433149 0.5881567,4.7327812 0.5881567,4.7327812 0.5775828,4.7191376 0.5730832,4.7119999 0.5695281,4.7044833 0.5670844,4.6965208 0.5655235,4.6882041 0.5638729,4.6709804 0.5638729,4.6709804 0.5646481,4.6597825 0.5664547,4.6488472 0.570015,4.6383581 0.5746506,4.6281427 0.5746506,4.6281427 0.5803601,4.6194386 0.5867594,4.6113804 0.5943301,4.6044191 0.6026178,4.5981291 0.5966151,4.5520172 0.3911581,4.5907621 0.3911581,4.7896707 0.4380885,4.7896707 0.4380885,4.6300527 0.5455919,4.6084975 0.5455919,4.6084975 0.5352703,4.6260682 0.5307857,4.6350749 0.5271125,4.6443471 0.524456,4.6539521 0.5226572,4.6638378 0.5204896,4.6840772 0.5204896,4.6840772 0.5232509,4.7087793 0.5257019,4.7206892 0.5294375,4.7320696 0.5347536,4.7427987 0.5413719,4.752991 0.5567788,4.7724811 0.5567788,4.7724811 0.5775009,4.7881146 0.5883165,4.7947752 0.5996775,4.8000488 0.611683,4.8036835 0.6242016,4.8060131 0.650094,4.8084974 0.650094,4.8084974 0.6754742,4.8062026 0.6878423,4.8041104 0.6998239,4.8008845 0.7113248,4.7962485 0.7224244,4.7904352 0.7439548,4.7768467 0.7439548,4.7768467 0.7547038,4.7659073 0.7648468,4.7546841 0.773778,4.7428931 0.7808916,4.7302506 0.785833,4.7165905 0.7890313,4.7021137 0.7910673,4.6870924 0.7925223,4.671799 0.7925223,4.671799 0.790561,4.6475239 0.7886433,4.6357169 0.7856012,4.6243067 0.7811306,4.6134006 0.7754269,4.6029295 0.761963,4.582713 0.761963,4.582713 0.7444103,4.567366 0.7351634,4.560647 0.725352,4.5550732 0.7148703,4.5508592 0.7038531,4.5477313 0.6809262,4.543286 0.6765605,4.5948549z" transform="matrix(1,0,0,-1,3.529262,6.3025238)" fill="rgb(116,116,116)" fill-rule="nonzero" shaper:cutDepth="0.05cm" stroke-linecap="round" stroke-linejoin="round" /><path d="M0.921599,-0.7156414 L0.4521583,-0.7156414 0.4521583,-0.7156414 0.4662328,-0.7320688 0.4795047,-0.7490853 0.4915507,-0.7670017 0.5029087,-0.7854231 0.5029087,-0.7854231 0.5135672,-0.8042565 0.5236346,-0.8233776 0.5326482,-0.8430114 0.5409714,-0.8629811 0.4697573,-0.8629811 0.4697573,-0.8629811 0.4548428,-0.834213 0.4469359,-0.8201231 0.4384893,-0.8063862 0.4293684,-0.7930903 0.4196809,-0.780165 0.3993616,-0.754932 0.3993616,-0.754932 0.3813544,-0.7360086 0.3720225,-0.7269561 0.3622967,-0.7183948 0.352058,-0.7104727 0.3413491,-0.703137 0.3191433,-0.6894476 0.3191433,-0.6419715 0.921599,-0.6419715 0.921599,-0.7156414z" transform="matrix(1,0,0,-1,3.529262,6.3025238)" fill="rgb(116,116,116)" fill-rule="nonzero" shaper:cutDepth="0.05cm" stroke-linecap="round" stroke-linejoin="round" /><path d="M0.921599,-0.0661189 L0.921599,-0.4627082 0.921599,-0.4627082 0.9085118,-0.4623258 0.8955864,-0.4609821 0.8829315,-0.4580314 0.8704394,-0.4541134 0.8704394,-0.4541134 0.8490301,-0.4444074 0.8284426,-0.433337 0.8091606,-0.4200996 0.7906304,-0.4056141 0.7906304,-0.4056141 0.7664331,-0.3829293 0.7431182,-0.3594043 0.7210918,-0.3346527 0.6997709,-0.3092294 0.6997709,-0.3092294 0.6703963,-0.2738284 0.6553455,-0.2564847 0.6398586,-0.2395693 0.623791,-0.223224 0.6071114,-0.2074795 0.5726904,-0.1770329 0.5726904,-0.1770329 0.5523166,-0.1636553 0.5418441,-0.1577346 0.5310289,-0.1527357 0.519768,-0.1489353 0.5080999,-0.1462302 0.4840819,-0.1426537 0.4840819,-0.1426537 0.4633198,-0.1450772 0.4533289,-0.1472085 0.4438064,-0.1504432 0.4348577,-0.1550297 0.4263795,-0.1607249 0.4102074,-0.1739633 0.4102074,-0.1739633 0.3970189,-0.1922345 0.3914213,-0.2017466 0.3870191,-0.2117104 0.3840109,-0.2222008 0.382104,-0.2331074 0.3801256,-0.255614 0.3801256,-0.255614 0.3821786,-0.2791837 0.3841836,-0.290591 0.3873627,-0.3015453 0.392033,-0.3119241 0.3979899,-0.3218066 0.4120492,-0.3407437 0.4120492,-0.3407437 0.4317792,-0.3550636 0.4420682,-0.3611082 0.4528651,-0.3658167 0.4642383,-0.3690095 0.4760604,-0.3710214 0.500453,-0.3730766 0.4926768,-0.4487928 0.4926768,-0.4487928 0.4743986,-0.4460373 0.4563821,-0.4427234 0.4388891,-0.4382925 0.4221813,-0.4321863 0.4142024,-0.4283332 0.4064824,-0.4239275 0.3916752,-0.4137661 0.3774637,-0.4023338 0.3635499,-0.3902662 0.3635499,-0.3902662 0.3532761,-0.3748324 0.3436341,-0.3591842 0.335256,-0.3431073 0.3287699,-0.3263884 0.3244223,-0.3089441 0.3217383,-0.2909353 0.3191433,-0.2539771 0.3191433,-0.2539771 0.3202804,-0.235126 0.3220127,-0.2164915 0.3249356,-0.1982901 0.3296442,-0.1807382 0.3328505,-0.1722722 0.3366416,-0.1640189 0.3456512,-0.1480316 0.3560041,-0.1325329 0.3670288,-0.1172786 0.3670288,-0.1172786 0.3798743,-0.1063072 0.3929749,-0.0959353 0.4065856,-0.0867624 0.4209616,-0.0793878 0.4362677,-0.0741994 0.4523309,-0.0707903 0.4688988,-0.0685673 0.4857191,-0.0669374 0.4857191,-0.0669374 0.5039329,-0.0681423 0.5218645,-0.0707114 0.5393319,-0.0755259 0.556524,-0.0816715 0.556524,-0.0816715 0.5762102,-0.0918165 0.5951026,-0.103167 0.6127833,-0.1163575 0.6297845,-0.1305799 0.6297845,-0.1305799 0.6575025,-0.157733 0.6843988,-0.1856585 0.7101834,-0.2146291 0.735378,-0.2441543 0.735378,-0.2441543 0.7722183,-0.2875407 0.7913244,-0.3086183 0.8108896,-0.3292839 0.8108896,-0.3292839 0.8300302,-0.345882 0.8507941,-0.360389 0.8507941,-0.0661189 0.921599,-0.0661189z" transform="matrix(1,0,0,-1,3.529262,6.3025238)" fill="rgb(116,116,116)" fill-rule="nonzero" shaper:cutDepth="0.05cm" stroke-linecap="round" stroke-linejoin="round" /><path d="M2.2953907,3.8012545 a0.15,0.15 0 1,1 0.3,0 a0.15,0.15 0 1,1 -0.3,0z" transform="matrix(1,0,0,-1,3.529262,6.3025238)" fill="rgb(255,255,255)" stroke="rgb(0,0,0)" stroke-width="0.0010cm" stroke-linecap="round" stroke-linejoin="round" shaper:cutDepth="0.3cm" /><path d="M-0.3679065,2.2387416 a0.15,0.15 0 1,1 0.3,0 a0.15,0.15 0 1,1 -0.3,0z" transform="matrix(1,0,0,-1,3.529262,6.3025238)" fill="rgb(255,255,255)" stroke="rgb(0,0,0)" stroke-width="0.0010cm" stroke-linecap="round" stroke-linejoin="round" shaper:cutDepth="0.3cm" /><path d="M-1.7979993,-0.0591666 a0.15,0.15 0 1,1 0.3,0 a0.15,0.15 0 1,1 -0.3,0z" transform="matrix(1,0,0,-1,3.529262,6.3025238)" fill="rgb(255,255,255)" stroke="rgb(0,0,0)" stroke-width="0.0010cm" stroke-linecap="round" stroke-linejoin="round" shaper:cutDepth="0.3cm" /><path d="M0.1884296,4.3366693 a0.15,0.15 0 1,1 0.3,0 a0.15,0.15 0 1,1 -0.3,0z" transform="matrix(1,0,0,-1,3.529262,6.3025238)" fill="rgb(255,255,255)" stroke="rgb(0,0,0)" stroke-width="0.0010cm" stroke-linecap="round" stroke-linejoin="round" shaper:cutDepth="0.3cm" /><path d="M2.1840202,0.9135562 a0.15,0.15 0 1,1 0.3,0 a0.15,0.15 0 1,1 -0.3,0z" transform="matrix(1,0,0,-1,3.529262,6.3025238)" fill="rgb(255,255,255)" stroke="rgb(0,0,0)" stroke-width="0.0010cm" stroke-linecap="round" stroke-linejoin="round" shaper:cutDepth="0.3cm" /><path d="M-2.5342727,3.9025238 L-2.5342727,1.4025238 -2.2342727,1.4025238 -2.2342727,3.9025238 -2.5342727,3.9025238z" transform="matrix(1,0,0,-1,3.529262,6.3025238)" fill="rgb(255,255,255)" stroke="rgb(0,0,0)" stroke-width="0.0010cm" stroke-linecap="round" stroke-linejoin="round" shaper:cutDepth="0.3cm" /><path d="M2.979262,-0.5974762 a0.15,0.15 0 1,1 0.3,0 a0.15,0.15 0 1,1 -0.3,0z" transform="matrix(1,0,0,-1,3.529262,6.3025238)" fill="rgb(255,255,255)" stroke="rgb(0,0,0)" stroke-width="0.0010cm" stroke-linecap="round" stroke-linejoin="round" shaper:cutDepth="0.3cm" /><path d="M-1.520738,5.9025238 a0.15,0.15 0 1,1 0.3,0 a0.15,0.15 0 1,1 -0.3,0z" transform="matrix(1,0,0,-1,3.529262,6.3025238)" fill="rgb(255,255,255)" stroke="rgb(0,0,0)" stroke-width="0.0010cm" stroke-linecap="round" stroke-linejoin="round" shaper:cutDepth="0.3cm" /><path d="M2.979262,5.9025238 a0.15,0.15 0 1,1 0.3,0 a0.15,0.15 0 1,1 -0.3,0z" transform="matrix(1,0,0,-1,3.529262,6.3025238)" fill="rgb(255,255,255)" stroke="rgb(0,0,0)" stroke-width="0.0010cm" stroke-linecap="round" stroke-linejoin="round" shaper:cutDepth="0.3cm" /><path d="M-1.520738,-0.5974762 a0.15,0.15 0 1,1 0.3,0 a0.15,0.15 0 1,1 -0.3,0z" transform="matrix(1,0,0,-1,3.529262,6.3025238)" fill="rgb(255,255,255)" stroke="rgb(0,0,0)" stroke-width="0.0010cm" stroke-linecap="round" stroke-linejoin="round" shaper:cutDepth="0.3cm" /><path d="M-2.1707381,4.6525238 L-0.870738,4.6525238 -0.870738,5.4025239 -2.1707381,5.4025239 A0.3,0.3 90 0,1 -2.4707381,5.1025239 L-2.4707381,4.9525238 A0.3,0.3 180 0,1 -2.1707381,4.6525238z" transform="matrix(1,0,0,-1,3.529262,6.3025238)" fill="rgb(255,255,255)" stroke="rgb(0,0,0)" stroke-width="0.0010cm" stroke-linecap="round" stroke-linejoin="round" shaper:cutDepth="0.3cm" /></svg>