<?xml version="1.0" encoding="utf-8"?>
<!-- Generator: Fusion 360, Shaper Origin Export Add-In, Version 1.7.0  -->
<svg xmlns="http://www.w3.org/2000/svg" xmlns:xlink="http://www.w3.org/1999/xlink" xmlns:shaper="http://www.shapertools.com/namespaces/shaper" shaper:fusionaddin="version:1.7.0" width="7.058524cm" height="7.3cm" version="1.1" x="0cm" y="0cm" viewBox="0 0 7.058524 7.3" enable-background="new 0 0 7.058524 7.3" xml:space="preserve"><path d="M-3.529262,-2.0046781 L-1.8572407,-3.5690658 A0.3,0.3 226.9047902 0,1 -1.6522768,-3.65 L3.229262,-3.65 A0.3,0.3 270 0,1 3.529262,-3.35 L3.529262,-2.7885309 3.229262,-2.7885309 3.229262,-0.7885309 3.529262,-0.7885309 3.529262,3.35 A0.3,0.3 0 0,1 3.229262,3.65 L-1.6522768,3.65 A0.3,0.3 90 0,1 -1.8572407,3.5690658 L-3.529262,2.0046781 -3.529262,1.65 -3.2342727,1.65 -3.2342727,-1.65 -3.529262,-1.65 -3.529262,-2.0046781z" transform="matrix(1,0,0,-1,3.529262,3.65)" fill="rgb(0,0,0)" shaper:cutDepth="0.3cm" stroke-linecap="round" stroke-linejoin="round" /><path d="M0.5819037,1.8658007 L0.5819037,1.6014078 0.5819037,1.6014078 0.5731789,1.6016627 0.564562,1.6025586 0.5561254,1.6045257 0.5477973,1.6071377 0.5477973,1.6071377 0.5335244,1.6136083 0.5197995,1.6209886 0.5069448,1.6298136 0.4945913,1.6394705 0.4945913,1.6394705 0.4784598,1.6545938 0.4629166,1.6702771 0.4482322,1.6867781 0.4340183,1.703727 0.4340183,1.703727 0.4144353,1.7273277 0.3940768,1.750167 0.3722453,1.7715603 0.349298,1.791858 0.349298,1.791858 0.3357155,1.8007764 0.3287338,1.8047235 0.3215237,1.8080561 0.3140164,1.8105897 0.3062377,1.8123931 0.2902257,1.8147775 0.2902257,1.8147775 0.2763842,1.8131618 0.2697237,1.811741 0.2633753,1.8095845 0.2574095,1.8065268 0.2517574,1.80273 0.240976,1.7939044 0.240976,1.7939044 0.2321837,1.7817236 0.228452,1.7753822 0.2255171,1.7687397 0.2235117,1.761746 0.2222404,1.754475 0.2209215,1.7394706 0.2209215,1.7394706 0.2222901,1.7237574 0.2236267,1.7161526 0.2257462,1.7088497 0.2288597,1.7019305 0.232831,1.6953422 0.2422039,1.6827175 0.2422039,1.6827175 0.2553572,1.6731709 0.2622165,1.6691411 0.2694145,1.6660022 0.2769966,1.6638736 0.284878,1.6625324 0.3011397,1.6611622 0.2959556,1.6106847 0.2959556,1.6106847 0.2717591,1.614731 0.2600971,1.6176849 0.2489586,1.6217558 0.2384927,1.6272616 0.2286212,1.6340359 0.209871,1.6497025 0.209871,1.6497025 0.1965938,1.6704238 0.1910084,1.6811418 0.1866844,1.6922877 0.1837859,1.7039172 0.1819966,1.7159231 0.1802666,1.7405619 0.1802666,1.7405619 0.1821796,1.7655523 0.1841281,1.7776866 0.1872672,1.7893878 0.1919321,1.800534 0.1979385,1.8111922 0.2121902,1.8316943 0.2121902,1.8316943 0.2294876,1.8459231 0.2385615,1.8520384 0.2481454,1.8569547 0.2583495,1.8604137 0.2690583,1.8626865 0.2913171,1.865255 0.2913171,1.865255 0.3034596,1.8644518 0.3154141,1.8627391 0.327059,1.8595294 0.3385204,1.8554323 0.3385204,1.8554323 0.3516445,1.848669 0.3642395,1.8411019 0.3760266,1.8323083 0.3873608,1.8228266 0.3873608,1.8228266 0.4058394,1.8047246 0.4237703,1.7861076 0.4577564,1.7471104 0.4577564,1.7471104 0.4823166,1.7181861 0.5080974,1.6903573 0.5080974,1.6903573 0.5208579,1.6792919 0.5347005,1.6696206 0.5347005,1.8658007 0.5819037,1.8658007z" transform="matrix(1,0,0,-1,3.529262,3.65)" fill="rgb(116,116,116)" fill-rule="nonzero" shaper:cutDepth="0.05cm" stroke-linecap="round" stroke-linejoin="round" /><path d="M-1.3716802,0.3832843 L-1.3716802,0.2097509 -1.4167006,0.2097509 -1.6759094,0.3922884 -1.6759094,0.4323976 -1.4167006,0.4323976 -1.4167006,0.4864221 -1.3716802,0.4864221 -1.3716802,0.4323976 -1.2759094,0.4323976 -1.2759094,0.3832843 -1.3716802,0.3832843z M-1.5970553,0.3832843 L-1.4167006,0.2580456 -1.4167006,0.3832843 -1.5970553,0.3832843z" transform="matrix(1,0,0,-1,3.529262,3.65)" fill="rgb(116,116,116)" fill-rule="nonzero" shaper:cutDepth="0.05cm" stroke-linecap="round" stroke-linejoin="round" /><path d="M-0.7275453,-1.6224644 L-0.7275453,-1.8868573 -0.7275453,-1.8868573 -0.7362701,-1.8866023 -0.744887,-1.8857065 -0.7533236,-1.8837394 -0.7616517,-1.8811274 -0.7616517,-1.8811274 -0.7759246,-1.8746567 -0.7896495,-1.8672765 -0.8025042,-1.8584515 -0.8148577,-1.8487945 -0.8148577,-1.8487945 -0.8309892,-1.8336713 -0.8465324,-1.817988 -0.8612168,-1.8014869 -0.8754307,-1.784538 -0.8754307,-1.784538 -0.8950137,-1.7609374 -0.9153722,-1.738098 -0.9372037,-1.7167048 -0.960151,-1.6964071 -0.960151,-1.6964071 -0.9737335,-1.6874887 -0.9807152,-1.6835416 -0.9879253,-1.6802089 -0.9954326,-1.6776754 -1.0032113,-1.6758719 -1.0192233,-1.6734876 -1.0192233,-1.6734876 -1.0330648,-1.6751033 -1.0397253,-1.6765241 -1.0460737,-1.6786805 -1.0520395,-1.6817382 -1.0576916,-1.6855351 -1.068473,-1.6943607 -1.068473,-1.6943607 -1.0772653,-1.7065415 -1.080997,-1.7128829 -1.0839319,-1.7195254 -1.0859373,-1.726519 -1.0872086,-1.7337901 -1.0885275,-1.7487945 -1.0885275,-1.7487945 -1.0871589,-1.7645076 -1.0858223,-1.7721125 -1.0837028,-1.7794153 -1.0805893,-1.7863346 -1.076618,-1.7929229 -1.0672451,-1.8055476 -1.0672451,-1.8055476 -1.0540918,-1.8150942 -1.0472325,-1.8191239 -1.0400345,-1.8222629 -1.0324524,-1.8243915 -1.024571,-1.8257327 -1.0083093,-1.8271029 -1.0134934,-1.8775803 -1.0134934,-1.8775803 -1.0376899,-1.873534 -1.0493519,-1.8705801 -1.0604904,-1.8665093 -1.0709563,-1.8610034 -1.0808278,-1.8542291 -1.099578,-1.8385626 -1.099578,-1.8385626 -1.1128552,-1.8178412 -1.1184406,-1.8071233 -1.1227646,-1.7959774 -1.1256631,-1.7843478 -1.1274524,-1.772342 -1.1291824,-1.7477031 -1.1291824,-1.7477031 -1.1272694,-1.7227128 -1.1253209,-1.7105785 -1.1221818,-1.6988772 -1.1175169,-1.687731 -1.1115105,-1.6770728 -1.0972588,-1.6565708 -1.0972588,-1.6565708 -1.0799614,-1.642342 -1.0708875,-1.6362267 -1.0613036,-1.6313103 -1.0510995,-1.6278514 -1.0403907,-1.6255786 -1.0181319,-1.6230101 -1.0181319,-1.6230101 -1.0059894,-1.6238133 -0.9940349,-1.625526 -0.98239,-1.6287357 -0.9709286,-1.6328327 -0.9709286,-1.6328327 -0.9578045,-1.6395961 -0.9452095,-1.6471632 -0.9334224,-1.6559568 -0.9220882,-1.6654385 -0.9220882,-1.6654385 -0.9036096,-1.6835405 -0.8856787,-1.7021575 -0.8516926,-1.7411547 -0.8516926,-1.7411547 -0.8271324,-1.7700789 -0.8013516,-1.7979078 -0.8013516,-1.7979078 -0.7885911,-1.8089731 -0.7747485,-1.8186444 -0.7747485,-1.6224644 -0.7275453,-1.6224644z" transform="matrix(1,0,0,-1,3.529262,3.65)" fill="rgb(116,116,116)" fill-rule="nonzero" shaper:cutDepth="0.05cm" stroke-linecap="round" stroke-linejoin="round" /><path d="M2.5464858,-1.9549219 L2.5464858,-1.9549219 2.5630958,-1.9508556 2.5711531,-1.9483284 2.5789132,-1.9452082 2.5862827,-1.9413087 2.5932803,-1.9366674 2.6066495,-1.926136 2.6066495,-1.926136 2.614545,-1.9149918 2.6179245,-1.9092063 2.6206223,-1.9031646 2.6225019,-1.8968155 2.6237229,-1.890219 2.625067,-1.8766135 2.625067,-1.8766135 2.6232375,-1.8602632 2.6216148,-1.8523796 2.6191424,-1.8448459 2.615625,-1.8377426 2.6112469,-1.8309938 2.6010561,-1.8180869 2.6010561,-1.8180869 2.5878951,-1.8078923 2.5810204,-1.8035223 2.5737927,-1.8000249 2.5661394,-1.7975798 2.5581422,-1.795985 2.5415745,-1.7942124 2.5415745,-1.7942124 2.5260379,-1.7957865 2.5185357,-1.797236 2.5113529,-1.7994805 2.5045686,-1.8027174 2.4981187,-1.8067868 2.4857764,-1.8163134 2.4857764,-1.8163134 2.4762891,-1.8287796 2.4722395,-1.8352881 2.4690228,-1.842127 2.4667963,-1.8493589 2.4653616,-1.856905 2.4638119,-1.8725208 2.4638119,-1.8725208 2.4654632,-1.890009 2.4692689,-1.9071729 2.4261584,-1.9017159 2.4261584,-1.9017159 2.4267041,-1.8938032 2.4267041,-1.8938032 2.4254847,-1.8788446 2.4243895,-1.871507 2.4227117,-1.8643394 2.4203136,-1.857382 2.4173184,-1.8505989 2.410333,-1.837323 2.410333,-1.837323 2.4001157,-1.8263417 2.3945854,-1.8216769 2.3885495,-1.8180029 2.381922,-1.8154876 2.3748266,-1.8138892 2.3598555,-1.8122207 2.3598555,-1.8122207 2.3473348,-1.8135586 2.3412992,-1.814772 2.3355331,-1.8166387 2.3301017,-1.8193166 2.3249489,-1.8226697 2.3151079,-1.8305017 2.3151079,-1.8305017 2.3073742,-1.8410356 2.304085,-1.8465243 2.3014887,-1.8522791 2.2997064,-1.8583463 2.2985697,-1.8646615 2.2973726,-1.8777049 2.2973726,-1.8777049 2.2986486,-1.8908766 2.2998271,-1.8972557 2.3016541,-1.9033866 2.3042915,-1.9092074 2.3076097,-1.9147676 2.3153808,-1.9254539 2.3153808,-1.9254539 2.3273818,-1.9347778 2.3336572,-1.938858 2.3402611,-1.9422432 2.3472246,-1.9448677 2.3544645,-1.946907 2.3694053,-1.9500105 2.3606741,-1.9991238 2.3606741,-1.9991238 2.3390402,-1.9934708 2.328635,-1.9898901 2.318724,-1.9854044 2.309442,-1.9797668 2.3007049,-1.9731314 2.2841393,-1.9581961 2.2841393,-1.9581961 2.2723149,-1.9401038 2.2672836,-1.9307503 2.2633091,-1.9210281 2.2605778,-1.910872 2.2588336,-1.9003715 2.2569906,-1.8787964 2.2569906,-1.8787964 2.2580264,-1.8631394 2.2603991,-1.8477965 2.2650322,-1.8329846 2.2710424,-1.8184962 2.2710424,-1.8184962 2.2785733,-1.8060778 2.2872056,-1.7946678 2.2977149,-1.7849761 2.309378,-1.7763407 2.309378,-1.7763407 2.3215797,-1.7702388 2.3341553,-1.765465 2.3473604,-1.7629267 2.3609469,-1.7617431 2.3609469,-1.7617431 2.3734611,-1.7628091 2.3855875,-1.7651864 2.3970647,-1.7697601 2.4081502,-1.7756586 2.4081502,-1.7756586 2.4186492,-1.7842613 2.4279977,-1.7938211 2.4355175,-1.8049019 2.4419837,-1.8168591 2.4419837,-1.8168591 2.4471075,-1.8009772 2.4502308,-1.7933867 2.454028,-1.7862169 2.458672,-1.7795757 2.4640337,-1.7733825 2.4759537,-1.7617431 2.4759537,-1.7617431 2.4909087,-1.7530737 2.4985943,-1.7494034 2.5065296,-1.7465298 2.5147533,-1.7445771 2.5232039,-1.7433484 2.540483,-1.7420979 2.540483,-1.7420979 2.5654963,-1.7451063 2.5775232,-1.7477272 2.5889745,-1.7516882 2.5997236,-1.7572836 2.6098996,-1.7642134 2.6292962,-1.780297 2.6292962,-1.780297 2.645071,-1.8018867 2.6517976,-1.8131267 2.6571316,-1.8249009 2.6608153,-1.8373081 2.6631823,-1.8502203 2.6657218,-1.8768864 2.6657218,-1.8768864 2.6635738,-1.9008325 2.6615507,-1.9124583 2.6583888,-1.9236676 2.6537948,-1.9343529 2.6479861,-1.9445939 2.6343439,-1.9643352 2.6343439,-1.9643352 2.6166894,-1.9796841 2.6074002,-1.9864209 2.5975564,-1.9920327 2.5870487,-1.996297 2.5760071,-1.9994782 2.5530342,-2.0040351 2.5464858,-1.9549219z" transform="matrix(1,0,0,-1,3.529262,3.65)" fill="rgb(116,116,116)" fill-rule="nonzero" shaper:cutDepth="0.05cm" stroke-linecap="round" stroke-linejoin="round" /><path d="M0.7401349,-0.5445324 L0.7401349,-0.5445324 0.7567449,-0.5404662 0.7648022,-0.5379389 0.7725623,-0.5348187 0.7799317,-0.5309192 0.7869294,-0.526278 0.8002986,-0.5157466 0.8002986,-0.5157466 0.8081941,-0.5046024 0.8115736,-0.4988168 0.8142714,-0.4927751 0.816151,-0.4864261 0.817372,-0.4798296 0.8187161,-0.4662241 0.8187161,-0.4662241 0.8168866,-0.4498737 0.8152639,-0.4419901 0.8127915,-0.4344565 0.8092741,-0.4273532 0.804896,-0.4206043 0.7947051,-0.4076975 0.7947051,-0.4076975 0.7815442,-0.3975028 0.7746695,-0.3931328 0.7674418,-0.3896355 0.7597885,-0.3871904 0.7517913,-0.3855955 0.7352236,-0.383823 0.7352236,-0.383823 0.719687,-0.3853971 0.7121848,-0.3868466 0.705002,-0.3890911 0.6982177,-0.392328 0.6917678,-0.3963974 0.6794255,-0.405924 0.6794255,-0.405924 0.6699382,-0.4183901 0.6658886,-0.4248986 0.6626719,-0.4317376 0.6604454,-0.4389695 0.6590107,-0.4465155 0.6574609,-0.4621313 0.6574609,-0.4621313 0.6591123,-0.4796196 0.662918,-0.4967834 0.6198074,-0.4913264 0.6198074,-0.4913264 0.6203532,-0.4834137 0.6203532,-0.4834137 0.6191338,-0.4684551 0.6180386,-0.4611175 0.6163608,-0.4539499 0.6139627,-0.4469926 0.6109675,-0.4402094 0.6039821,-0.4269335 0.6039821,-0.4269335 0.5937648,-0.4159522 0.5882345,-0.4112875 0.5821986,-0.4076135 0.5755711,-0.4050981 0.5684756,-0.4034998 0.5535046,-0.4018312 0.5535046,-0.4018312 0.5409839,-0.4031691 0.5349483,-0.4043825 0.5291822,-0.4062493 0.5237508,-0.4089271 0.518598,-0.4122803 0.508757,-0.4201122 0.508757,-0.4201122 0.5010233,-0.4306461 0.4977341,-0.4361349 0.4951378,-0.4418896 0.4933555,-0.4479569 0.4922188,-0.454272 0.4910217,-0.4673155 0.4910217,-0.4673155 0.4922977,-0.4804872 0.4934762,-0.4868662 0.4953032,-0.4929971 0.4979406,-0.4988179 0.5012587,-0.5043782 0.5090299,-0.5150645 0.5090299,-0.5150645 0.5210309,-0.5243884 0.5273063,-0.5284686 0.5339102,-0.5318538 0.5408737,-0.5344782 0.5481136,-0.5365176 0.5630544,-0.5396211 0.5543232,-0.5887343 0.5543232,-0.5887343 0.5326893,-0.5830814 0.5222841,-0.5795007 0.5123731,-0.575015 0.5030911,-0.5693774 0.4943539,-0.5627419 0.4777884,-0.5478066 0.4777884,-0.5478066 0.465964,-0.5297144 0.4609327,-0.5203609 0.4569582,-0.5106386 0.4542269,-0.5004826 0.4524827,-0.4899821 0.4506397,-0.4684069 0.4506397,-0.4684069 0.4516755,-0.45275 0.4540482,-0.4374071 0.4586813,-0.4225952 0.4646915,-0.4081068 0.4646915,-0.4081068 0.4722224,-0.3956884 0.4808547,-0.3842783 0.491364,-0.3745866 0.5030271,-0.3659512 0.5030271,-0.3659512 0.5152288,-0.3598493 0.5278044,-0.3550756 0.5410095,-0.3525372 0.554596,-0.3513537 0.554596,-0.3513537 0.5671101,-0.3524197 0.5792366,-0.3547969 0.5907138,-0.3593707 0.6017993,-0.3652691 0.6017993,-0.3652691 0.6122983,-0.3738719 0.6216468,-0.3834316 0.6291666,-0.3945124 0.6356328,-0.4064696 0.6356328,-0.4064696 0.6407566,-0.3905877 0.6438799,-0.3829973 0.6476771,-0.3758274 0.6523211,-0.3691862 0.6576828,-0.3629931 0.6696028,-0.3513537 0.6696028,-0.3513537 0.6845578,-0.3426843 0.6922434,-0.3390139 0.7001787,-0.3361403 0.7084024,-0.3341876 0.716853,-0.332959 0.7341321,-0.3317084 0.7341321,-0.3317084 0.7591454,-0.3347168 0.7711723,-0.3373378 0.7826236,-0.3412988 0.7933727,-0.3468942 0.8035487,-0.353824 0.8229453,-0.3699076 0.8229453,-0.3699076 0.8387201,-0.3914973 0.8454467,-0.4027373 0.8507807,-0.4145115 0.8544644,-0.4269187 0.8568314,-0.4398309 0.8593709,-0.4664969 0.8593709,-0.4664969 0.8572229,-0.490443 0.8551998,-0.5020689 0.8520379,-0.5132781 0.8474439,-0.5239635 0.8416352,-0.5342045 0.827993,-0.5539458 0.827993,-0.5539458 0.8103385,-0.5692947 0.8010493,-0.5760315 0.7912055,-0.5816433 0.7806978,-0.5859076 0.7696562,-0.5890887 0.7466833,-0.5936456 0.7401349,-0.5445324z" transform="matrix(1,0,0,-1,3.529262,3.65)" fill="rgb(116,116,116)" fill-rule="nonzero" shaper:cutDepth="0.05cm" stroke-linecap="round" stroke-linejoin="round" /><path d="M0.9239836,-3.1391195 L0.9239836,-3.5357088 0.9239836,-3.5357088 0.9108964,-3.5353264 0.897971,-3.5339827 0.8853161,-3.5310319 0.8728239,-3.527114 0.8728239,-3.527114 0.8514146,-3.517408 0.8308272,-3.5063376 0.8115452,-3.4931001 0.7930149,-3.4786147 0.7930149,-3.4786147 0.7688176,-3.4559299 0.7455028,-3.4324049 0.7234763,-3.4076533 0.7021555,-3.38223 0.7021555,-3.38223 0.6727808,-3.346829 0.6577301,-3.3294854 0.6422431,-3.31257 0.6261755,-3.2962246 0.6094959,-3.2804801 0.575075,-3.2500335 0.575075,-3.2500335 0.5547012,-3.2366559 0.5442287,-3.2307352 0.5334134,-3.2257363 0.5221526,-3.2219359 0.5104845,-3.2192308 0.4864665,-3.2156543 0.4864665,-3.2156543 0.4657043,-3.2180778 0.4557135,-3.2202091 0.4461909,-3.2234438 0.4372422,-3.2280303 0.428764,-3.2337255 0.412592,-3.2469639 0.412592,-3.2469639 0.3994035,-3.2652351 0.3938059,-3.2747472 0.3894036,-3.284711 0.3863954,-3.2952015 0.3844885,-3.3061081 0.3825102,-3.3286147 0.3825102,-3.3286147 0.3845631,-3.3521843 0.3865681,-3.3635916 0.3897472,-3.3745459 0.3944175,-3.3849248 0.4003744,-3.3948072 0.4144338,-3.4137443 0.4144338,-3.4137443 0.4341637,-3.4280642 0.4444527,-3.4341088 0.4552497,-3.4388173 0.4666228,-3.4420101 0.478445,-3.4440219 0.5028376,-3.4460772 0.4950613,-3.5217934 0.4950613,-3.5217934 0.4767831,-3.5190379 0.4587666,-3.515724 0.4412736,-3.5112931 0.4245659,-3.5051868 0.4165869,-3.5013338 0.4088669,-3.4969281 0.3940598,-3.4867666 0.3798482,-3.4753344 0.3659344,-3.4632668 0.3659344,-3.4632668 0.3556606,-3.447833 0.3460187,-3.4321848 0.3376405,-3.4161079 0.3311545,-3.399389 0.3268068,-3.3819446 0.3241229,-3.3639359 0.3215279,-3.3269776 0.3215279,-3.3269776 0.322665,-3.3081265 0.3243973,-3.289492 0.3273201,-3.2712906 0.3320287,-3.2537387 0.3352351,-3.2452727 0.3390262,-3.2370195 0.3480357,-3.2210321 0.3583887,-3.2055334 0.3694133,-3.1902791 0.3694133,-3.1902791 0.3822588,-3.1793077 0.3953594,-3.1689359 0.4089702,-3.1597629 0.4233461,-3.1523884 0.4386522,-3.1472 0.4547154,-3.1437909 0.4712833,-3.1415679 0.4881036,-3.139938 0.4881036,-3.139938 0.5063174,-3.1411428 0.5242491,-3.143712 0.5417164,-3.1485264 0.5589085,-3.154672 0.5589085,-3.154672 0.5785948,-3.164817 0.5974872,-3.1761676 0.6151679,-3.1893581 0.6321691,-3.2035806 0.6321691,-3.2035806 0.6598871,-3.2307336 0.6867834,-3.2586591 0.712568,-3.2876297 0.7377626,-3.3171549 0.7377626,-3.3171549 0.7746029,-3.3605413 0.7937089,-3.3816189 0.8132741,-3.4022845 0.8132741,-3.4022845 0.8324147,-3.4188826 0.8531787,-3.4333896 0.8531787,-3.1391195 0.9239836,-3.1391195z" transform="matrix(1,0,0,-1,3.529262,3.65)" fill="rgb(116,116,116)" fill-rule="nonzero" shaper:cutDepth="0.05cm" stroke-linecap="round" stroke-linejoin="round" /><path d="M0.4766438,-2.7511249 L0.4766438,-2.7511249 0.4596816,-2.7554715 0.4433227,-2.7611255 0.435555,-2.7648447 0.428078,-2.7691935 0.4136152,-2.7789558 0.4136152,-2.7789558 0.4002907,-2.7950403 0.3945584,-2.8034809 0.3899419,-2.8123996 0.386686,-2.821901 0.3845406,-2.8318783 0.3821009,-2.8526256 0.3821009,-2.8526256 0.3835372,-2.869191 0.3848406,-2.8772859 0.3868463,-2.8851554 0.3897239,-2.8927451 0.3933278,-2.9001017 0.4017461,-2.9144264 0.4017461,-2.9144264 0.4175635,-2.9317313 0.4259518,-2.9397459 0.4349152,-2.9469956 0.4445389,-2.9533671 0.4546802,-2.9590503 0.4758253,-2.9692695 0.4758253,-2.9692695 0.5097779,-2.9789878 0.5268938,-2.9829906 0.5441747,-2.9859814 0.5616245,-2.9879366 0.579202,-2.9891076 0.6145702,-2.9901427 0.6145702,-2.9901427 0.5965892,-2.9765704 0.5880892,-2.9693344 0.5801779,-2.9615585 0.5730055,-2.9531048 0.5664584,-2.9440777 0.5544064,-2.9250676 0.5544064,-2.9250676 0.5461672,-2.9057189 0.5426123,-2.8959074 0.5397349,-2.8859314 0.5376908,-2.875753 0.536333,-2.8654079 0.5347612,-2.8444401 0.5347612,-2.8444401 0.5366033,-2.8266318 0.5390777,-2.8090961 0.5428169,-2.7921055 0.5453583,-2.7838999 0.548453,-2.7759327 0.556396,-2.7607541 0.5662173,-2.7463852 0.5772908,-2.732556 0.5889904,-2.7189967 0.5889904,-2.7189967 0.6045532,-2.7073415 0.620373,-2.696366 0.6367066,-2.6867498 0.6451463,-2.6826638 0.6538105,-2.6791718 0.6718166,-2.6739801 0.6905368,-2.670678 0.7097332,-2.6686357 0.7291677,-2.6672232 0.7291677,-2.6672232 0.7564065,-2.6690504 0.7698578,-2.6706848 0.7831072,-2.6731843 0.7961076,-2.6767516 0.8089019,-2.6812021 0.8341473,-2.6915751 0.8341473,-2.6915751 0.8560167,-2.7046669 0.8663984,-2.7118227 0.8761162,-2.7197105 0.8850057,-2.7285118 0.8932002,-2.7380795 0.908431,-2.758492 0.908431,-2.758492 0.9195305,-2.781382 0.9242742,-2.7930448 0.9280507,-2.8049689 0.9306724,-2.8172051 0.932368,-2.8296914 0.9342155,-2.8550813 0.9342155,-2.8550813 0.9320607,-2.8767191 0.9291049,-2.8979937 0.9245474,-2.9185419 0.9214176,-2.9284302 0.9175871,-2.9380007 0.9129825,-2.9472202 0.9076644,-2.9561162 0.8952955,-2.9731224 0.8812955,-2.989389 0.8664802,-3.0052859 0.8664802,-3.0052859 0.8407033,-3.0199501 0.8146215,-3.033555 0.8013709,-3.0396292 0.7879296,-3.0450413 0.7742596,-3.0496592 0.760341,-3.0534136 0.746196,-3.0563819 0.7318529,-3.0586624 0.7026857,-3.0615529 0.6730658,-3.0628711 0.6432196,-3.0634032 0.6432196,-3.0634032 0.6095405,-3.0627487 0.5761031,-3.06123 0.5431488,-3.057983 0.5269283,-3.0554414 0.5109192,-3.0521436 0.4951516,-3.0479817 0.4796483,-3.0428746 0.4643862,-3.0369048 0.449325,-3.030216 0.4196449,-3.0152566 0.3902864,-2.9991468 0.3902864,-2.9991468 0.3750878,-2.9833128 0.3607437,-2.9670849 0.3481089,-2.9500691 0.3426995,-2.9411427 0.3380377,-2.9318717 0.3341767,-2.9222317 0.3310346,-2.9122602 0.3264963,-2.8915125 0.3236013,-2.8700074 0.3215279,-2.8481236 0.3215279,-2.8481236 0.3240965,-2.8165301 0.3265961,-2.8011605 0.330554,-2.7863036 0.3363625,-2.7720973 0.3437649,-2.7584512 0.3612277,-2.7320935 0.3612277,-2.7320935 0.3850466,-2.7113978 0.3975908,-2.7023076 0.4108962,-2.6947259 0.4250866,-2.6888975 0.4399747,-2.6844517 0.470914,-2.6778644 0.4766438,-2.7511249z M0.8024283,-2.9625165 L0.8024283,-2.9625165 0.8179681,-2.9538695 0.8253558,-2.9491022 0.8322851,-2.9438023 0.838639,-2.937834 0.8445062,-2.9313005 0.8554297,-2.9172914 0.8554297,-2.9172914 0.8629797,-2.9029319 0.8662508,-2.8956032 0.8689172,-2.8880957 0.8708313,-2.8803657 0.8721173,-2.8724501 0.8736425,-2.8563091 0.8736425,-2.8563091 0.870453,-2.8333709 0.8677797,-2.8224015 0.8638123,-2.8120317 0.8583007,-2.8023774 0.8515512,-2.7932966 0.835989,-2.7760908 0.835989,-2.7760908 0.8127042,-2.7609953 0.8006495,-2.7546523 0.788101,-2.749752 0.7749967,-2.7464752 0.7614609,-2.7444596 0.7336697,-2.7425301 0.7336697,-2.7425301 0.7069176,-2.7444483 0.6939072,-2.7464443 0.6813358,-2.7496846 0.669329,-2.7545258 0.6578231,-2.7607872 0.6356479,-2.7756816 0.6356479,-2.7756816 0.6204157,-2.793847 0.6138768,-2.8033942 0.6086307,-2.8134989 0.6049503,-2.8242787 0.60254,-2.8356062 0.5998362,-2.859174 0.5998362,-2.859174 0.6026337,-2.8829561 0.6050817,-2.8944036 0.6087887,-2.9053189 0.6140345,-2.9155837 0.6205395,-2.9253163 0.6356479,-2.9438944 0.6356479,-2.9438944 0.6566321,-2.9591632 0.6675638,-2.965641 0.6790229,-2.9707317 0.6910959,-2.974207 0.7036537,-2.9764073 0.729577,-2.9786829 0.729577,-2.9786829 0.7484036,-2.9774102 0.7668949,-2.9746249 0.7848286,-2.9693239 0.8024283,-2.9625165z" transform="matrix(1,0,0,-1,3.529262,3.65)" fill="rgb(116,116,116)" fill-rule="nonzero" shaper:cutDepth="0.05cm" stroke-linecap="round" stroke-linejoin="round" /><path d="M0.2522767,-0.8020358 a0.15,0.15 0 1,1 0.3,0 a0.15,0.15 0 1,1 -0.3,0z" transform="matrix(1,0,0,-1,3.529262,3.65)" fill="rgb(255,255,255)" stroke="rgb(0,0,0)" stroke-width="0.0010cm" stroke-linecap="round" stroke-linejoin="round" shaper:cutDepth="0.3cm" /><path d="M-1.3275453,-2.0907454 a0.15,0.15 0 1,1 0.3,0 a0.15,0.15 0 1,1 -0.3,0z" transform="matrix(1,0,0,-1,3.529262,3.65)" fill="rgb(255,255,255)" stroke="rgb(0,0,0)" stroke-width="0.0010cm" stroke-linecap="round" stroke-linejoin="round" shaper:cutDepth="0.3cm" /><path d="M-1.8759094,0.0169133 a0.15,0.15 0 1,1 0.3,0 a0.15,0.15 0 1,1 -0.3,0z" transform="matrix(1,0,0,-1,3.529262,3.65)" fill="rgb(255,255,255)" stroke="rgb(0,0,0)" stroke-width="0.0010cm" stroke-linecap="round" stroke-linejoin="round" shaper:cutDepth="0.3cm" /><path d="M-0.0180963,1.3975197 a0.15,0.15 0 1,1 0.3,0 a0.15,0.15 0 1,1 -0.3,0z" transform="matrix(1,0,0,-1,3.529262,3.65)" fill="rgb(255,255,255)" stroke="rgb(0,0,0)" stroke-width="0.0010cm" stroke-linecap="round" stroke-linejoin="round" shaper:cutDepth="0.3cm" /><path d="M2.0586277,-2.2124253 a0.15,0.15 0 1,1 0.3,0 a0.15,0.15 0 1,1 -0.3,0z" transform="matrix(1,0,0,-1,3.529262,3.65)" fill="rgb(255,255,255)" stroke="rgb(0,0,0)" stroke-width="0.0010cm" stroke-linecap="round" stroke-linejoin="round" shaper:cutDepth="0.3cm" /><path d="M-2.5342727,1.25 L-2.5342727,-1.25 -2.2342727,-1.25 -2.2342727,1.25 -2.5342727,1.25z" transform="matrix(1,0,0,-1,3.529262,3.65)" fill="rgb(255,255,255)" stroke="rgb(0,0,0)" stroke-width="0.0010cm" stroke-linecap="round" stroke-linejoin="round" shaper:cutDepth="0.3cm" /><path d="M2.979262,-3.25 a0.15,0.15 0 1,1 0.3,0 a0.15,0.15 0 1,1 -0.3,0z" transform="matrix(1,0,0,-1,3.529262,3.65)" fill="rgb(255,255,255)" stroke="rgb(0,0,0)" stroke-width="0.0010cm" stroke-linecap="round" stroke-linejoin="round" shaper:cutDepth="0.3cm" /><path d="M-1.520738,3.25 a0.15,0.15 0 1,1 0.3,0 a0.15,0.15 0 1,1 -0.3,0z" transform="matrix(1,0,0,-1,3.529262,3.65)" fill="rgb(255,255,255)" stroke="rgb(0,0,0)" stroke-width="0.0010cm" stroke-linecap="round" stroke-linejoin="round" shaper:cutDepth="0.3cm" /><path d="M2.979262,3.25 a0.15,0.15 0 1,1 0.3,0 a0.15,0.15 0 1,1 -0.3,0z" transform="matrix(1,0,0,-1,3.529262,3.65)" fill="rgb(255,255,255)" stroke="rgb(0,0,0)" stroke-width="0.0010cm" stroke-linecap="round" stroke-linejoin="round" shaper:cutDepth="0.3cm" /><path d="M-1.520738,-3.25 a0.15,0.15 0 1,1 0.3,0 a0.15,0.15 0 1,1 -0.3,0z" transform="matrix(1,0,0,-1,3.529262,3.65)" fill="rgb(255,255,255)" stroke="rgb(0,0,0)" stroke-width="0.0010cm" stroke-linecap="round" stroke-linejoin="round" shaper:cutDepth="0.3cm" /><path d="M-2.1707381,2 L-0.870738,2 -0.870738,2.7500001 -2.1707381,2.7500001 A0.3,0.3 90 0,1 -2.4707381,2.4500001 L-2.4707381,2.3 A0.3,0.3 180 0,1 -2.1707381,2z" transform="matrix(1,0,0,-1,3.529262,3.65)" fill="rgb(255,255,255)" stroke="rgb(0,0,0)" stroke-width="0.0010cm" stroke-linecap="round" stroke-linejoin="round" shaper:cutDepth="0.3cm" /></svg>