<?xml version="1.0" encoding="utf-8"?>
<!-- Generator: Fusion 360, Shaper Origin Export Add-In, Version 1.7.0  -->
<svg xmlns="http://www.w3.org/2000/svg" xmlns:xlink="http://www.w3.org/1999/xlink" xmlns:shaper="http://www.shapertools.com/namespaces/shaper" shaper:fusionaddin="version:1.7.0" width="7.058524cm" height="7.3cm" version="1.1" x="0cm" y="0cm" viewBox="0 0 7.058524 7.3" enable-background="new 0 0 7.058524 7.3" xml:space="preserve"><path d="M-3.529262,-2.0046781 L-1.8572407,-3.5690658 A0.3,0.3 226.9047902 0,1 -1.6522768,-3.65 L3.229262,-3.65 A0.3,0.3 270 0,1 3.529262,-3.35 L3.529262,-2.7885309 3.229262,-2.7885309 3.229262,-0.7885309 3.529262,-0.7885309 3.529262,3.35 A0.3,0.3 0 0,1 3.229262,3.65 L-1.6522768,3.65 A0.3,0.3 90 0,1 -1.8572407,3.5690658 L-3.529262,2.0046781 -3.529262,1.65 -3.2342727,1.65 -3.2342727,-1.65 -3.529262,-1.65 -3.529262,-2.0046781z" transform="matrix(1,0,0,-1,3.529262,3.65)" fill="rgb(0,0,0)" shaper:cutDepth="0.3cm" stroke-linecap="round" stroke-linejoin="round" /><path d="M1.5176733,-0.3409174 L1.5176733,-0.3409174 1.5334315,-0.3375584 1.5410519,-0.3353479 1.5483617,-0.3325003 1.5552692,-0.3288267 1.5618125,-0.3244059 1.57429,-0.3143144 1.57429,-0.3143144 1.5823809,-0.3030001 1.5858502,-0.2971243 1.5886281,-0.2909863 1.5905716,-0.2845317 1.5918403,-0.2778211 1.5932531,-0.2639733 1.5932531,-0.2639733 1.5911117,-0.2469505 1.5892627,-0.2387844 1.58648,-0.2310326 1.5825636,-0.2237839 1.5777256,-0.2169441 1.5665137,-0.203946 1.5665137,-0.203946 1.5504829,-0.193045 1.5421647,-0.1884405 1.5334834,-0.1848502 1.5243859,-0.1824227 1.5149625,-0.1809058 1.4955723,-0.1793894 1.4955723,-0.1793894 1.4773392,-0.1808057 1.4684936,-0.1822471 1.4599733,-0.1845685 1.4518698,-0.1880174 1.4441326,-0.1924573 1.4292695,-0.2029911 1.4292695,-0.2029911 1.4186956,-0.2166346 1.414196,-0.2237723 1.4106408,-0.2312889 1.4081972,-0.2392515 1.4066363,-0.2475682 1.4049857,-0.2647919 1.4049857,-0.2647919 1.4057609,-0.2759897 1.4075674,-0.2869251 1.4111278,-0.2974141 1.4157633,-0.3076295 1.4157633,-0.3076295 1.4214729,-0.3163336 1.4278722,-0.3243918 1.4354429,-0.3313532 1.4437306,-0.3376431 1.4377279,-0.383755 1.2322709,-0.3450101 1.2322709,-0.1461016 1.2792013,-0.1461016 1.2792013,-0.3057195 1.3867047,-0.3272748 1.3867047,-0.3272748 1.3763831,-0.309704 1.3718985,-0.3006974 1.3682252,-0.2914252 1.3655687,-0.2818202 1.36377,-0.2719344 1.3616024,-0.251695 1.3616024,-0.251695 1.3643636,-0.2269929 1.3668147,-0.215083 1.3705503,-0.2037026 1.3758664,-0.1929736 1.3824847,-0.1827813 1.3978916,-0.1632912 1.3978916,-0.1632912 1.4186136,-0.1476576 1.4294293,-0.140997 1.4407903,-0.1357234 1.4527958,-0.1320888 1.4653143,-0.1297591 1.4912067,-0.1272748 1.4912067,-0.1272748 1.516587,-0.1295697 1.5289551,-0.1316619 1.5409367,-0.1348878 1.5524376,-0.1395238 1.5635372,-0.145337 1.5850676,-0.1589256 1.5850676,-0.1589256 1.5958165,-0.1698649 1.6059596,-0.1810881 1.6148908,-0.1928791 1.6220044,-0.2055216 1.6269458,-0.2191817 1.630144,-0.2336585 1.6321801,-0.2486798 1.6336351,-0.2639733 1.6336351,-0.2639733 1.6316738,-0.2882484 1.6297561,-0.3000553 1.626714,-0.3114655 1.6222434,-0.3223716 1.6165397,-0.3328427 1.6030757,-0.3530592 1.6030757,-0.3530592 1.5855231,-0.3684062 1.5762762,-0.3751252 1.5664648,-0.380699 1.5559831,-0.3849131 1.5449658,-0.3880409 1.5220389,-0.3924863 1.5176733,-0.3409174z" transform="matrix(1,0,0,-1,3.529262,3.65)" fill="rgb(116,116,116)" fill-rule="nonzero" shaper:cutDepth="0.05cm" stroke-linecap="round" stroke-linejoin="round" /><path d="M-0.5784124,-0.858752 L-0.5784124,-1.1231449 -0.5784124,-1.1231449 -0.5871372,-1.1228899 -0.5957542,-1.1219941 -0.6041908,-1.120027 -0.6125189,-1.117415 -0.6125189,-1.117415 -0.6267917,-1.1109444 -0.6405167,-1.1035641 -0.6533713,-1.0947391 -0.6657248,-1.0850821 -0.6657248,-1.0850821 -0.6818564,-1.0699589 -0.6973996,-1.0542756 -0.7120839,-1.0377746 -0.7262978,-1.0208257 -0.7262978,-1.0208257 -0.7458809,-0.997225 -0.7662394,-0.9743857 -0.7880708,-0.9529924 -0.8110182,-0.9326947 -0.8110182,-0.9326947 -0.8246007,-0.9237763 -0.8315824,-0.9198292 -0.8387925,-0.9164966 -0.8462998,-0.913963 -0.8540785,-0.9121596 -0.8700905,-0.9097752 -0.8700905,-0.9097752 -0.8839319,-0.9113909 -0.8905925,-0.9128117 -0.8969408,-0.9149682 -0.9029067,-0.9180258 -0.9085588,-0.9218227 -0.9193401,-0.9306483 -0.9193401,-0.9306483 -0.9281325,-0.9428291 -0.9318642,-0.9491705 -0.934799,-0.955813 -0.9368045,-0.9628067 -0.9380758,-0.9700777 -0.9393947,-0.9850821 -0.9393947,-0.9850821 -0.938026,-1.0007952 -0.9366894,-1.0084001 -0.93457,-1.0157029 -0.9314565,-1.0226222 -0.9274852,-1.0292105 -0.9181123,-1.0418352 -0.9181123,-1.0418352 -0.904959,-1.0513818 -0.8980996,-1.0554116 -0.8909017,-1.0585505 -0.8833196,-1.0606791 -0.8754381,-1.0620203 -0.8591764,-1.0633905 -0.8643606,-1.113868 -0.8643606,-1.113868 -0.888557,-1.1098217 -0.900219,-1.1068677 -0.9113575,-1.1027969 -0.9218235,-1.0972911 -0.9316949,-1.0905168 -0.9504452,-1.0748502 -0.9504452,-1.0748502 -0.9637223,-1.0541289 -0.9693078,-1.0434109 -0.9736318,-1.032265 -0.9765303,-1.0206355 -0.9783195,-1.0086296 -0.9800495,-0.9839907 -0.9800495,-0.9839907 -0.9781366,-0.9590004 -0.9761881,-0.9468661 -0.973049,-0.9351649 -0.968384,-0.9240187 -0.9623777,-0.9133604 -0.9481259,-0.8928584 -0.9481259,-0.8928584 -0.9308285,-0.8786296 -0.9217547,-0.8725143 -0.9121707,-0.8675979 -0.9019666,-0.864139 -0.8912578,-0.8618662 -0.8689991,-0.8592977 -0.8689991,-0.8592977 -0.8568565,-0.8601009 -0.8449021,-0.8618136 -0.8332572,-0.8650233 -0.8217958,-0.8691203 -0.8217958,-0.8691203 -0.8086716,-0.8758837 -0.7960767,-0.8834508 -0.7842895,-0.8922444 -0.7729554,-0.9017261 -0.7729554,-0.9017261 -0.7544768,-0.9198281 -0.7365459,-0.9384451 -0.7025598,-0.9774423 -0.7025598,-0.9774423 -0.6779996,-1.0063666 -0.6522187,-1.0341954 -0.6522187,-1.0341954 -0.6394583,-1.0452608 -0.6256157,-1.0549321 -0.6256157,-0.858752 -0.5784124,-0.858752z" transform="matrix(1,0,0,-1,3.529262,3.65)" fill="rgb(116,116,116)" fill-rule="nonzero" shaper:cutDepth="0.05cm" stroke-linecap="round" stroke-linejoin="round" /><path d="M0.5423824,1.6816674 L0.5423824,1.6816674 0.5589924,1.6857337 0.5670497,1.6882609 0.5748098,1.6913811 0.5821792,1.6952806 0.5891768,1.6999219 0.6025461,1.7104533 0.6025461,1.7104533 0.6104415,1.7215975 0.6138211,1.727383 0.6165189,1.7334247 0.6183985,1.7397738 0.6196194,1.7463703 0.6209635,1.7599758 0.6209635,1.7599758 0.6191341,1.7763261 0.6175113,1.7842097 0.615039,1.7917434 0.6115216,1.7988467 0.6071434,1.8055955 0.5969526,1.8185024 0.5969526,1.8185024 0.5837916,1.828697 0.576917,1.8330671 0.5696893,1.8365644 0.562036,1.8390095 0.5540387,1.8406043 0.537471,1.8423769 0.537471,1.8423769 0.5219345,1.8408028 0.5144323,1.8393533 0.5072494,1.8371088 0.5004652,1.8338719 0.4940153,1.8298025 0.4816729,1.8202759 0.4816729,1.8202759 0.4721856,1.8078098 0.4681361,1.8013012 0.4649194,1.7944623 0.4626929,1.7872304 0.4612582,1.7796843 0.4597084,1.7640685 0.4597084,1.7640685 0.4613597,1.7465803 0.4651654,1.7294164 0.4220549,1.7348734 0.4220549,1.7348734 0.4226006,1.7427861 0.4226006,1.7427861 0.4213813,1.7577447 0.4202861,1.7650823 0.4186083,1.7722499 0.4162101,1.7792073 0.413215,1.7859904 0.4062296,1.7992663 0.4062296,1.7992663 0.3960123,1.8102476 0.390482,1.8149124 0.384446,1.8185864 0.3778186,1.8211017 0.3707231,1.8227001 0.3557521,1.8243687 0.3557521,1.8243687 0.3432314,1.8230307 0.3371957,1.8218173 0.3314296,1.8199506 0.3259982,1.8172727 0.3208455,1.8139196 0.3110045,1.8060876 0.3110045,1.8060876 0.3032707,1.7955537 0.2999815,1.790065 0.2973853,1.7843102 0.2956029,1.778243 0.2944663,1.7719278 0.2932691,1.7588844 0.2932691,1.7588844 0.2945452,1.7457127 0.2957237,1.7393336 0.2975507,1.7332027 0.300188,1.727382 0.3035062,1.7218217 0.3112773,1.7111354 0.3112773,1.7111354 0.3232783,1.7018115 0.3295538,1.6977313 0.3361577,1.6943461 0.3431211,1.6917216 0.3503611,1.6896823 0.3653019,1.6865788 0.3565706,1.6374655 0.3565706,1.6374655 0.3349367,1.6431185 0.3245316,1.6466992 0.3146206,1.6511849 0.3053386,1.6568225 0.2966014,1.6634579 0.2800358,1.6783932 0.2800358,1.6783932 0.2682115,1.6964855 0.2631802,1.705839 0.2592057,1.7155612 0.2564744,1.7257173 0.2547302,1.7362178 0.2528872,1.7577929 0.2528872,1.7577929 0.253923,1.7734499 0.2562957,1.7887928 0.2609288,1.8036047 0.266939,1.8180931 0.266939,1.8180931 0.2744699,1.8305115 0.2831022,1.8419215 0.2936115,1.8516132 0.3052746,1.8602486 0.3052746,1.8602486 0.3174762,1.8663505 0.3300519,1.8711243 0.3432569,1.8736627 0.3568435,1.8748462 0.3568435,1.8748462 0.3693576,1.8737802 0.3814841,1.8714029 0.3929612,1.8668292 0.4040468,1.8609307 0.4040468,1.8609307 0.4145457,1.852328 0.4238942,1.8427682 0.4314141,1.8316874 0.4378803,1.8197302 0.4378803,1.8197302 0.443004,1.8356121 0.4461274,1.8432026 0.4499245,1.8503724 0.4545685,1.8570136 0.4599303,1.8632068 0.4718503,1.8748462 0.4718503,1.8748462 0.4868053,1.8835156 0.4944909,1.8871859 0.5024261,1.8900595 0.5106499,1.8920122 0.5191004,1.8932409 0.5363796,1.8944914 0.5363796,1.8944914 0.5613929,1.891483 0.5734198,1.8888621 0.584871,1.8849011 0.5956202,1.8793057 0.6057962,1.8723759 0.6251927,1.8562923 0.6251927,1.8562923 0.6409675,1.8347026 0.6476942,1.8234626 0.6530282,1.8116884 0.6567119,1.7992812 0.6590788,1.786369 0.6616184,1.7597029 0.6616184,1.7597029 0.6594703,1.7357568 0.6574473,1.724131 0.6542854,1.7129217 0.6496913,1.7022364 0.6438826,1.6919954 0.6302405,1.6722541 0.6302405,1.6722541 0.612586,1.6569052 0.6032967,1.6501684 0.593453,1.6445566 0.5829452,1.6402923 0.5719036,1.6371111 0.5489308,1.6325542 0.5423824,1.6816674z" transform="matrix(1,0,0,-1,3.529262,3.65)" fill="rgb(116,116,116)" fill-rule="nonzero" shaper:cutDepth="0.05cm" stroke-linecap="round" stroke-linejoin="round" /><path d="M2.9633818,-1.9419824 L2.9633818,-2.2063753 2.9633818,-2.2063753 2.954657,-2.2061204 2.9460401,-2.2052246 2.9376035,-2.2032574 2.9292754,-2.2006455 2.9292754,-2.2006455 2.9150025,-2.1941748 2.9012776,-2.1867945 2.8884229,-2.1779695 2.8760694,-2.1683126 2.8760694,-2.1683126 2.8599379,-2.1531894 2.8443946,-2.1375061 2.8297103,-2.121005 2.8154964,-2.1040561 2.8154964,-2.1040561 2.7959134,-2.0804554 2.7755549,-2.0576161 2.7537234,-2.0362229 2.7307761,-2.0159252 2.7307761,-2.0159252 2.7171935,-2.0070068 2.7102119,-2.0030596 2.7030017,-1.999727 2.6954945,-1.9971934 2.6877158,-1.99539 2.6717038,-1.9930056 2.6717038,-1.9930056 2.6578623,-1.9946213 2.6512018,-1.9960422 2.6448534,-1.9981986 2.6388876,-2.0012563 2.6332355,-2.0050531 2.6224541,-2.0138788 2.6224541,-2.0138788 2.6136618,-2.0260595 2.60993,-2.0324009 2.6069952,-2.0390435 2.6049897,-2.0460371 2.6037184,-2.0533082 2.6023995,-2.0683126 2.6023995,-2.0683126 2.6037682,-2.0840257 2.6051048,-2.0916305 2.6072242,-2.0989334 2.6103378,-2.1058526 2.614309,-2.112441 2.6236819,-2.1250657 2.6236819,-2.1250657 2.6368353,-2.1346122 2.6436946,-2.138642 2.6508926,-2.141781 2.6584747,-2.1439095 2.6663561,-2.1452508 2.6826178,-2.1466209 2.6774337,-2.1970984 2.6774337,-2.1970984 2.6532372,-2.1930521 2.6415752,-2.1900982 2.6304367,-2.1860273 2.6199708,-2.1805215 2.6100993,-2.1737472 2.5913491,-2.1580807 2.5913491,-2.1580807 2.5780719,-2.1373593 2.5724865,-2.1266414 2.5681624,-2.1154954 2.565264,-2.1038659 2.5634747,-2.09186 2.5617447,-2.0672212 2.5617447,-2.0672212 2.5636576,-2.0422308 2.5656062,-2.0300965 2.5687453,-2.0183953 2.5734102,-2.0072491 2.5794166,-1.9965909 2.5936683,-1.9760889 2.5936683,-1.9760889 2.6109657,-1.96186 2.6200395,-1.9557447 2.6296235,-1.9508284 2.6398276,-1.9473694 2.6505364,-1.9450967 2.6727952,-1.9425281 2.6727952,-1.9425281 2.6849377,-1.9433313 2.6968922,-1.9450441 2.7085371,-1.9482537 2.7199985,-1.9523508 2.7199985,-1.9523508 2.7331226,-1.9591142 2.7457175,-1.9666812 2.7575047,-1.9754749 2.7688388,-1.9849565 2.7688388,-1.9849565 2.7873175,-2.0030585 2.8052484,-2.0216755 2.8392345,-2.0606727 2.8392345,-2.0606727 2.8637947,-2.089597 2.8895755,-2.1174258 2.8895755,-2.1174258 2.9023359,-2.1284912 2.9161786,-2.1381625 2.9161786,-1.9419824 2.9633818,-1.9419824z" transform="matrix(1,0,0,-1,3.529262,3.65)" fill="rgb(116,116,116)" fill-rule="nonzero" shaper:cutDepth="0.05cm" stroke-linecap="round" stroke-linejoin="round" /><path d="M0.8733921,-2.2387309 L0.8733921,-2.4122643 0.8283716,-2.4122643 0.5691629,-2.2297268 0.5691629,-2.1896177 0.8283716,-2.1896177 0.8283716,-2.1355931 0.8733921,-2.1355931 0.8733921,-2.1896177 0.9691629,-2.1896177 0.9691629,-2.2387309 0.8733921,-2.2387309z M0.6480169,-2.2387309 L0.8283716,-2.3639697 0.8283716,-2.2387309 0.6480169,-2.2387309z" transform="matrix(1,0,0,-1,3.529262,3.65)" fill="rgb(116,116,116)" fill-rule="nonzero" shaper:cutDepth="0.05cm" stroke-linecap="round" stroke-linejoin="round" /><path d="M0.5687121,-3.487581 L0.5687121,-3.487581 0.5936271,-3.4814816 0.6057131,-3.4776908 0.6173532,-3.4730104 0.6284074,-3.4671612 0.6389038,-3.4601994 0.6589576,-3.4444023 0.6589576,-3.4444023 0.6708008,-3.427686 0.6758701,-3.4190076 0.6799168,-3.4099451 0.6827362,-3.4004215 0.6845676,-3.3905267 0.6865838,-3.3701185 0.6865838,-3.3701185 0.6838397,-3.345593 0.6814055,-3.3337676 0.677697,-3.3224671 0.6724209,-3.3118121 0.6658537,-3.3016889 0.6505675,-3.2823286 0.6505675,-3.2823286 0.630826,-3.2670366 0.620514,-3.2604815 0.6096725,-3.2552356 0.5981926,-3.2515679 0.5861967,-3.2491756 0.5613451,-3.2465168 0.5613451,-3.2465168 0.5380403,-3.2488779 0.526787,-3.2510522 0.5160127,-3.2544189 0.5058363,-3.2592743 0.4961615,-3.2653784 0.4776479,-3.2796683 0.4776479,-3.2796683 0.463417,-3.2983675 0.4573426,-3.3081303 0.4525176,-3.3183887 0.4491779,-3.3292366 0.4470258,-3.3405557 0.4447012,-3.3639793 0.4447012,-3.3639793 0.4455993,-3.3771468 0.4471781,-3.3902117 0.4528867,-3.4159575 0.3882209,-3.407772 0.3882209,-3.407772 0.3890395,-3.3959029 0.3890395,-3.3959029 0.3872104,-3.3734651 0.3855676,-3.3624587 0.3830509,-3.3517073 0.3794537,-3.3412712 0.3749609,-3.3310965 0.3644829,-3.3111826 0.3644829,-3.3111826 0.3491569,-3.2947106 0.3408615,-3.2877135 0.3318076,-3.2822025 0.3218664,-3.2784296 0.3112232,-3.276032 0.2887666,-3.2735291 0.2887666,-3.2735291 0.2699856,-3.275536 0.2609321,-3.2773561 0.252283,-3.2801563 0.2441359,-3.284173 0.2364068,-3.2892027 0.2216453,-3.3009507 0.2216453,-3.3009507 0.2100446,-3.3167516 0.2051108,-3.3249846 0.2012164,-3.3336168 0.1985429,-3.3427177 0.196838,-3.3521904 0.1950422,-3.3717556 0.1950422,-3.3717556 0.1969563,-3.3915131 0.1987241,-3.4010817 0.2014645,-3.410278 0.2054206,-3.4190092 0.2103978,-3.4273496 0.2220545,-3.4433791 0.2220545,-3.4433791 0.240056,-3.457365 0.2494692,-3.4634853 0.259375,-3.4685631 0.2698202,-3.4724997 0.2806801,-3.4755587 0.3030913,-3.480214 0.2899945,-3.5538838 0.2899945,-3.5538838 0.2575436,-3.5454044 0.2419359,-3.5400334 0.2270694,-3.5333048 0.2131464,-3.5248484 0.2000407,-3.5148952 0.1751923,-3.4924923 0.1751923,-3.4924923 0.1574557,-3.4653539 0.1499088,-3.4513237 0.143947,-3.4367403 0.13985,-3.4215062 0.1372338,-3.4057554 0.1344692,-3.3733927 0.1344692,-3.3733927 0.136023,-3.3499073 0.1374265,-3.3383118 0.139582,-3.326893 0.1426696,-3.3156931 0.1465317,-3.3046751 0.155547,-3.2829425 0.155547,-3.2829425 0.1668433,-3.2643149 0.1730078,-3.2554738 0.1797918,-3.2471999 0.1873493,-3.239634 0.1955558,-3.2326623 0.2130504,-3.2197092 0.2130504,-3.2197092 0.2313529,-3.2105563 0.2406794,-3.2066025 0.2502163,-3.2033957 0.2600128,-3.2011109 0.2700239,-3.1995882 0.2904037,-3.1978129 0.2904037,-3.1978129 0.3091749,-3.1994119 0.3183788,-3.200826 0.3273646,-3.2029777 0.3360826,-3.2060355 0.3445804,-3.2098383 0.3612086,-3.218686 0.3612086,-3.218686 0.3769571,-3.2315902 0.3842919,-3.2384909 0.3909799,-3.2459298 0.3969161,-3.2539939 0.4022597,-3.262551 0.411959,-3.2804868 0.411959,-3.2804868 0.4196446,-3.256664 0.4243296,-3.2452783 0.4300253,-3.2345235 0.4369914,-3.2245617 0.445034,-3.215272 0.462914,-3.1978129 0.462914,-3.1978129 0.4853465,-3.1848087 0.4968749,-3.1793032 0.5087778,-3.1749928 0.5211134,-3.1720637 0.5337892,-3.1702207 0.559708,-3.168345 0.559708,-3.168345 0.5786119,-3.1702662 0.5972279,-3.1728576 0.6152682,-3.176789 0.6239826,-3.1794666 0.6324451,-3.1827305 0.6406324,-3.1866352 0.6485689,-3.1911236 0.6638328,-3.2015183 0.6785235,-3.2132474 0.6929276,-3.2256437 0.6929276,-3.2256437 0.705107,-3.2417024 0.7165899,-3.2580282 0.7266799,-3.2748883 0.7309849,-3.2836021 0.7346809,-3.2925496 0.7377316,-3.3017445 0.7402063,-3.3111603 0.7437568,-3.3305286 0.7459906,-3.3504019 0.7475661,-3.3705278 0.7475661,-3.3705278 0.7462398,-3.3885915 0.744344,-3.4064469 0.7413094,-3.4238857 0.7365666,-3.4406995 0.7296755,-3.4567275 0.7209625,-3.4720891 0.7110346,-3.4870062 0.7004993,-3.501701 0.7004993,-3.501701 0.687397,-3.513494 0.6740176,-3.5247244 0.6600837,-3.5348297 0.6453181,-3.5432473 0.6295564,-3.5496438 0.612994,-3.5544155 0.5958978,-3.5581039 0.5785347,-3.5612508 0.5687121,-3.487581z" transform="matrix(1,0,0,-1,3.529262,3.65)" fill="rgb(116,116,116)" fill-rule="nonzero" shaper:cutDepth="0.05cm" stroke-linecap="round" stroke-linejoin="round" /><path d="M0.7369249,-2.7083177 L0.7369249,-3.104907 0.7369249,-3.104907 0.7238377,-3.1045246 0.7109123,-3.1031809 0.6982574,-3.1002301 0.6857653,-3.0963122 0.6857653,-3.0963122 0.664356,-3.0866062 0.6437685,-3.0755358 0.6244865,-3.0622983 0.6059563,-3.0478129 0.6059563,-3.0478129 0.581759,-3.0251281 0.5584441,-3.0016031 0.5364177,-2.9768515 0.5150968,-2.9514282 0.5150968,-2.9514282 0.4857222,-2.9160272 0.4706714,-2.8986836 0.4551844,-2.8817682 0.4391169,-2.8654228 0.4224373,-2.8496783 0.3880163,-2.8192317 0.3880163,-2.8192317 0.3676425,-2.8058542 0.35717,-2.7999335 0.3463548,-2.7949346 0.3350939,-2.7911342 0.3234258,-2.7884291 0.2994078,-2.7848525 0.2994078,-2.7848525 0.2786456,-2.787276 0.2686548,-2.7894073 0.2591323,-2.792642 0.2501835,-2.7972285 0.2417054,-2.8029237 0.2255333,-2.8161621 0.2255333,-2.8161621 0.2123448,-2.8344333 0.2067472,-2.8439454 0.202345,-2.8539092 0.1993368,-2.8643997 0.1974299,-2.8753063 0.1954515,-2.8978129 0.1954515,-2.8978129 0.1975045,-2.9213825 0.1995094,-2.9327898 0.2026885,-2.9437441 0.2073589,-2.954123 0.2133157,-2.9640054 0.2273751,-2.9829425 0.2273751,-2.9829425 0.2471051,-2.9972623 0.2573941,-3.003307 0.2681911,-3.0080154 0.2795642,-3.0112083 0.2913863,-3.0132201 0.3157789,-3.0152754 0.3080027,-3.0909916 0.3080027,-3.0909916 0.2897245,-3.0882361 0.271708,-3.0849222 0.254215,-3.0804913 0.2375072,-3.074385 0.2295283,-3.070532 0.2218083,-3.0661263 0.2070011,-3.0559648 0.1927896,-3.0445326 0.1788758,-3.032465 0.1788758,-3.032465 0.168602,-3.0170312 0.15896,-3.001383 0.1505818,-2.9853061 0.1440958,-2.9685872 0.1397482,-2.9511428 0.1370642,-2.9331341 0.1344692,-2.8961758 0.1344692,-2.8961758 0.1356063,-2.8773247 0.1373386,-2.8586902 0.1402615,-2.8404888 0.1449701,-2.8229369 0.1481764,-2.8144709 0.1519675,-2.8062177 0.160977,-2.7902303 0.17133,-2.7747316 0.1823546,-2.7594773 0.1823546,-2.7594773 0.1952002,-2.7485059 0.2083008,-2.7381341 0.2219115,-2.7289611 0.2362875,-2.7215866 0.2515936,-2.7163982 0.2676568,-2.7129891 0.2842247,-2.7107661 0.301045,-2.7091362 0.301045,-2.7091362 0.3192587,-2.7103411 0.3371904,-2.7129102 0.3546578,-2.7177246 0.3718499,-2.7238702 0.3718499,-2.7238702 0.3915361,-2.7340152 0.4104285,-2.7453658 0.4281093,-2.7585563 0.4451105,-2.7727788 0.4451105,-2.7727788 0.4728284,-2.7999318 0.4997247,-2.8278573 0.5255093,-2.8568279 0.5507039,-2.8863531 0.5507039,-2.8863531 0.5875442,-2.9297395 0.6066503,-2.9508171 0.6262155,-2.9714827 0.6262155,-2.9714827 0.6453561,-2.9880808 0.66612,-3.0025878 0.66612,-2.7083177 0.7369249,-2.7083177z" transform="matrix(1,0,0,-1,3.529262,3.65)" fill="rgb(116,116,116)" fill-rule="nonzero" shaper:cutDepth="0.05cm" stroke-linecap="round" stroke-linejoin="round" /><path d="M0.0545242,1.424164 a0.15,0.15 0 1,1 0.3,0 a0.15,0.15 0 1,1 -0.3,0z" transform="matrix(1,0,0,-1,3.529262,3.65)" fill="rgb(255,255,255)" stroke="rgb(0,0,0)" stroke-width="0.0010cm" stroke-linecap="round" stroke-linejoin="round" shaper:cutDepth="0.3cm" /><path d="M0.3691629,-2.605102 a0.15,0.15 0 1,1 0.3,0 a0.15,0.15 0 1,1 -0.3,0z" transform="matrix(1,0,0,-1,3.529262,3.65)" fill="rgb(255,255,255)" stroke="rgb(0,0,0)" stroke-width="0.0010cm" stroke-linecap="round" stroke-linejoin="round" shaper:cutDepth="0.3cm" /><path d="M2.3633818,-2.4102635 a0.15,0.15 0 1,1 0.3,0 a0.15,0.15 0 1,1 -0.3,0z" transform="matrix(1,0,0,-1,3.529262,3.65)" fill="rgb(255,255,255)" stroke="rgb(0,0,0)" stroke-width="0.0010cm" stroke-linecap="round" stroke-linejoin="round" shaper:cutDepth="0.3cm" /><path d="M-1.1784125,-1.327033 a0.15,0.15 0 1,1 0.3,0 a0.15,0.15 0 1,1 -0.3,0z" transform="matrix(1,0,0,-1,3.529262,3.65)" fill="rgb(255,255,255)" stroke="rgb(0,0,0)" stroke-width="0.0010cm" stroke-linecap="round" stroke-linejoin="round" shaper:cutDepth="0.3cm" /><path d="M1.0295423,-0.5991029 a0.15,0.15 0 1,1 0.3,0 a0.15,0.15 0 1,1 -0.3,0z" transform="matrix(1,0,0,-1,3.529262,3.65)" fill="rgb(255,255,255)" stroke="rgb(0,0,0)" stroke-width="0.0010cm" stroke-linecap="round" stroke-linejoin="round" shaper:cutDepth="0.3cm" /><path d="M-2.5342727,1.25 L-2.5342727,-1.25 -2.2342727,-1.25 -2.2342727,1.25 -2.5342727,1.25z" transform="matrix(1,0,0,-1,3.529262,3.65)" fill="rgb(255,255,255)" stroke="rgb(0,0,0)" stroke-width="0.0010cm" stroke-linecap="round" stroke-linejoin="round" shaper:cutDepth="0.3cm" /><path d="M2.979262,-3.25 a0.15,0.15 0 1,1 0.3,0 a0.15,0.15 0 1,1 -0.3,0z" transform="matrix(1,0,0,-1,3.529262,3.65)" fill="rgb(255,255,255)" stroke="rgb(0,0,0)" stroke-width="0.0010cm" stroke-linecap="round" stroke-linejoin="round" shaper:cutDepth="0.3cm" /><path d="M-1.520738,3.25 a0.15,0.15 0 1,1 0.3,0 a0.15,0.15 0 1,1 -0.3,0z" transform="matrix(1,0,0,-1,3.529262,3.65)" fill="rgb(255,255,255)" stroke="rgb(0,0,0)" stroke-width="0.0010cm" stroke-linecap="round" stroke-linejoin="round" shaper:cutDepth="0.3cm" /><path d="M2.979262,3.25 a0.15,0.15 0 1,1 0.3,0 a0.15,0.15 0 1,1 -0.3,0z" transform="matrix(1,0,0,-1,3.529262,3.65)" fill="rgb(255,255,255)" stroke="rgb(0,0,0)" stroke-width="0.0010cm" stroke-linecap="round" stroke-linejoin="round" shaper:cutDepth="0.3cm" /><path d="M-1.520738,-3.25 a0.15,0.15 0 1,1 0.3,0 a0.15,0.15 0 1,1 -0.3,0z" transform="matrix(1,0,0,-1,3.529262,3.65)" fill="rgb(255,255,255)" stroke="rgb(0,0,0)" stroke-width="0.0010cm" stroke-linecap="round" stroke-linejoin="round" shaper:cutDepth="0.3cm" /><path d="M-2.1707381,2 L-0.870738,2 -0.870738,2.7500001 -2.1707381,2.7500001 A0.3,0.3 90 0,1 -2.4707381,2.4500001 L-2.4707381,2.3 A0.3,0.3 180 0,1 -2.1707381,2z" transform="matrix(1,0,0,-1,3.529262,3.65)" fill="rgb(255,255,255)" stroke="rgb(0,0,0)" stroke-width="0.0010cm" stroke-linecap="round" stroke-linejoin="round" shaper:cutDepth="0.3cm" /></svg>