<?xml version="1.0" encoding="UTF-8"?>
<svg id="Layer_1" data-name="Layer 1" xmlns="http://www.w3.org/2000/svg" xmlns:shaper="http://www.shapertools.com/namespaces/shaper" version="1.1" viewBox="0 0 200.23 206.93">
  <defs>
    <style>
      .cls-1 {
        fill: #747474;
      }

      .cls-1, .cls-2 {
        stroke-width: 0px;
      }

      .cls-3 {
        fill: #fff;
        stroke: #000;
        stroke-linecap: round;
        stroke-linejoin: round;
        stroke-width: .8px;
      }

      .cls-2 {
        fill: #000;
      }
    </style>
  </defs>
  <g>
    <path class="cls-2" d="M0,151.65v8.5l47.54,44.48c1.58,1.47,3.65,2.29,5.81,2.29h138.37c4.7,0,8.5-3.81,8.5-8.5h0v-15.92h-8.5v-56.69h8.5V8.5C200.23,3.81,196.42,0,191.72,0H53.35C51.19,0,49.11.82,47.54,2.29L0,46.77v8.5" shaper:cutDepth="0.3cm"/>
    <path class="cls-3" d="M102.56,61.8c0-2.35-1.9-4.25-4.25-4.25s-4.25,1.9-4.25,4.25h0c0,2.35,1.9,4.25,4.25,4.25s4.25-1.9,4.25-4.25Z" shaper:cutDepth="0.3cm"/>
    <path class="cls-3" d="M78.09,159.52c0-2.35-1.9-4.25-4.25-4.25-2.35,0-4.25,1.9-4.25,4.25h0c0,2.35,1.9,4.26,4.25,4.26s4.25-1.9,4.25-4.25h0Z" shaper:cutDepth="0.3cm"/>
    <path class="cls-3" d="M151.88,178.7c0-2.35-1.9-4.25-4.25-4.25s-4.25,1.9-4.25,4.25c0,2.35,1.9,4.25,4.25,4.25,2.35,0,4.25-1.9,4.25-4.25,0,0,0,0,0,0Z" shaper:cutDepth="0.3cm"/>
    <path class="cls-3" d="M58.62,101.43c0-2.35-1.9-4.25-4.25-4.25s-4.25,1.9-4.25,4.25c0,2.35,1.9,4.25,4.25,4.25,2.35,0,4.25-1.9,4.25-4.25,0,0,0,0,0,0Z" shaper:cutDepth="0.3cm"/>
    <path class="cls-3" d="M139.79,116.74c0-2.35-1.9-4.25-4.25-4.25s-4.25,1.9-4.25,4.25c0,2.35,1.9,4.25,4.25,4.25,2.35,0,4.25-1.9,4.25-4.25,0,0,0,0,0,0Z" shaper:cutDepth="0.3cm"/>
    <path class="cls-3" d="M28.35,68.03v70.87h8.5v-70.87h-8.5Z" shaper:cutDepth="0.3cm"/>
    <path class="cls-3" d="M193.14,195.59c0-2.35-1.9-4.25-4.25-4.25-2.35,0-4.25,1.9-4.25,4.25h0c0,2.35,1.9,4.26,4.25,4.26,2.35,0,4.25-1.9,4.25-4.25h0Z" shaper:cutDepth="0.3cm"/>
    <path class="cls-3" d="M65.58,11.34c0-2.35-1.9-4.25-4.25-4.25s-4.25,1.9-4.25,4.25c0,2.35,1.9,4.25,4.25,4.25,2.35,0,4.25-1.9,4.25-4.25,0,0,0,0,0,0Z" shaper:cutDepth="0.3cm"/>
    <path class="cls-3" d="M193.14,11.34c0-2.35-1.9-4.25-4.25-4.25-2.35,0-4.25,1.9-4.25,4.25h0c0,2.35,1.9,4.26,4.25,4.26,2.35,0,4.25-1.9,4.25-4.25h0Z" shaper:cutDepth="0.3cm"/>
    <path class="cls-3" d="M65.58,195.59c0-2.35-1.9-4.25-4.25-4.25s-4.25,1.9-4.25,4.25h0c0,2.35,1.9,4.25,4.25,4.25,2.35,0,4.25-1.9,4.25-4.25,0,0,0,0,0,0Z" shaper:cutDepth="0.3cm"/>
    <path class="cls-3" d="M38.65,46.77h36.85v-21.26h-36.85c-4.7,0-8.5,3.81-8.5,8.5v4.25c0,4.7,3.81,8.5,8.5,8.5Z" shaper:cutDepth="0.3cm"/>
  </g>
  <g>
    <path class="cls-1" d="M121.5,189.53h0l.71-.17.34-.11.33-.13.31-.17.3-.2.57-.45h0l.34-.47.14-.25.11-.26.08-.27.05-.28.06-.58h0l-.08-.7-.07-.34-.11-.32-.15-.3-.19-.29-.43-.55h0l-.56-.43-.29-.19-.31-.15-.33-.1-.34-.07-.7-.08h0l-.66.07-.32.06-.31.1-.29.14-.27.17-.52.41h0l-.4.53-.17.28-.14.29-.09.31-.06.32-.07.66h0l.03.37.04.37.16.73-1.83-.23h0l.02-.34h0l-.05-.64-.05-.31-.07-.3-.1-.3-.13-.29-.3-.56h0l-.43-.47-.24-.2-.26-.16-.28-.11-.3-.07-.64-.07h0l-.53.06-.26.05-.25.08-.23.11-.22.14-.42.33h0l-.33.45-.14.23-.11.24-.08.26-.05.27-.05.55h0l.05.56.05.27.08.26.11.25.14.24.33.45h0l.51.4.27.17.28.14.3.11.31.09.64.13-.37,2.09h0l-.92-.24-.44-.15-.42-.19-.39-.24-.37-.28-.7-.64h0l-.5-.77-.21-.4-.17-.41-.12-.43-.07-.45-.08-.92h0l.04-.67.04-.33.06-.32.09-.32.11-.31.26-.62h0l.32-.53.17-.25.19-.23.21-.21.23-.2.5-.37h0l.52-.26.26-.11.27-.09.28-.06.28-.04.58-.05h0l.53.05.26.04.25.06.25.09.24.11.47.25h0l.45.37.21.2.19.21.17.23.15.24.27.51h0l.22-.68.13-.32.16-.3.2-.28.23-.26.51-.49h0l.64-.37.33-.16.34-.12.35-.08.36-.05.73-.05h0l.54.05.53.07.51.11.25.08.24.09.23.11.22.13.43.29.42.33.41.35h0l.35.46.33.46.29.48.12.25.1.25.09.26.07.27.1.55.06.56.04.57h0l-.04.51-.05.51-.09.49-.13.48-.2.45-.25.44-.28.42-.3.42h0l-.37.33-.38.32-.39.29-.42.24-.45.18-.47.14-.48.1-.49.09-.28-2.09Z" shaper:cutDepth="0.05cm"/>
    <path class="cls-1" d="M126.27,199.07h-13.31l.4.47.38.48.34.51.32.52h0l.3.53.29.54.26.56.24.57h-2.02l-.42-.82-.22-.4-.24-.39-.26-.38-.27-.37-.58-.72h0l-.51-.54-.26-.26-.28-.24-.29-.22-.3-.21-.63-.39v-1.35h17.08v2.09Z" shaper:cutDepth="0.05cm"/>
    <path class="cls-1" d="M145.13,109.42h0l.45-.1.22-.06.21-.08.2-.1.19-.13.35-.29h0l.23-.32.1-.17.08-.17.06-.18.04-.19.04-.39h0l-.06-.48-.05-.23-.08-.22-.11-.21-.14-.19-.32-.37h0l-.45-.31-.24-.13-.25-.1-.26-.07-.27-.04-.55-.04h0l-.52.04-.25.04-.24.07-.23.1-.22.13-.42.3h0l-.3.39-.13.2-.1.21-.07.23-.04.24-.05.49h0l.02.32.05.31.1.3.13.29h0l.16.25.18.23.21.2.23.18-.17,1.31-5.82-1.1v-5.64h1.33v4.52l3.05.61h0l-.29-.5-.13-.26-.1-.26-.08-.27-.05-.28-.06-.57h0l.08-.7.07-.34.11-.32.15-.3.19-.29.44-.55h0l.59-.44.31-.19.32-.15.34-.1.35-.07.73-.07h0l.72.07.35.06.34.09.33.13.31.16.61.39h0l.3.31.29.32.25.33.2.36.14.39.09.41.06.43.04.43h0l-.06.69-.05.33-.09.32-.13.31-.16.3-.38.57h0l-.5.44-.26.19-.28.16-.3.12-.31.09-.65.13-.12-1.46Z" shaper:cutDepth="0.05cm"/>
    <path class="cls-1" d="M63.95,94.11h0l.45-.1.22-.06.21-.08.2-.1.19-.13.35-.29h0l.23-.32.1-.17.08-.17.06-.18.04-.19.04-.39h0l-.06-.48-.05-.23-.08-.22-.11-.21-.14-.19-.32-.37h0l-.45-.31-.24-.13-.25-.1-.26-.07-.27-.04-.55-.04h0l-.52.04-.25.04-.24.07-.23.1-.22.13-.42.3h0l-.3.39-.13.2-.1.21-.07.23-.04.24-.05.49h0l.02.32.05.31.1.3.13.29h0l.16.25.18.23.21.2.23.18-.17,1.31-5.82-1.1v-5.64h1.33v4.52l3.05.61h0l-.29-.5-.13-.26-.1-.26-.08-.27-.05-.28-.06-.57h0l.08-.7.07-.34.11-.32.15-.3.19-.29.44-.55h0l.59-.44.31-.19.32-.15.34-.1.35-.07.73-.07h0l.72.07.35.06.34.09.33.13.31.16.61.39h0l.3.31.29.32.25.33.2.36.14.39.09.41.06.43.04.43h0l-.06.69-.05.33-.09.32-.13.31-.16.3-.38.57h0l-.5.44-.26.19-.28.16-.3.12-.31.09-.65.13-.12-1.46Z" shaper:cutDepth="0.05cm"/>
    <path class="cls-1" d="M83.41,152.22h0l.47-.12.23-.07.22-.09.21-.11.2-.13.38-.3h0l.22-.32.1-.16.08-.17.05-.18.03-.19.04-.39h0l-.05-.46-.05-.22-.07-.21-.1-.2-.12-.19-.29-.37h0l-.37-.29-.19-.12-.2-.1-.22-.07-.23-.05-.47-.05h0l-.44.04-.21.04-.2.06-.19.09-.18.12-.35.27h0l-.27.35-.11.18-.09.19-.06.21-.04.21-.04.44h0l.05.5.11.49-1.22-.15h0l.02-.22h0l-.03-.42-.03-.21-.05-.2-.07-.2-.08-.19-.2-.38h0l-.29-.31-.16-.13-.17-.1-.19-.07-.2-.05-.42-.05h0l-.35.04-.17.03-.16.05-.15.08-.15.1-.28.22h0l-.22.3-.09.16-.07.16-.05.17-.03.18-.03.37h0l.04.37.03.18.05.17.07.16.09.16.22.3h0l.34.26.18.12.19.1.2.07.21.06.42.09-.25,1.39h0l-.61-.16-.29-.1-.28-.13-.26-.16-.25-.19-.47-.42h0l-.34-.51-.14-.27-.11-.28-.08-.29-.05-.3-.05-.61h0l.03-.44.07-.43.13-.42.17-.41h0l.21-.35.24-.32.3-.27.33-.24h0l.35-.17.36-.14.37-.07.39-.03h0l.35.03.34.07.33.13.31.17h0l.3.24.26.27.21.31.18.34h0l.15-.45.09-.22.11-.2.13-.19.15-.18.34-.33h0l.42-.25.22-.1.22-.08.23-.06.24-.03.49-.04h0l.71.09.34.07.32.11.3.16.29.2.55.46h0l.45.61.19.32.15.33.1.35.07.37.07.76h0l-.06.68-.06.33-.09.32-.13.3-.16.29-.39.56h0l-.5.44-.26.19-.28.16-.3.12-.31.09-.65.13-.19-1.39Z" shaper:cutDepth="0.05cm"/>
    <path class="cls-1" d="M111.06,48.53v7.49h-.25s-.24-.03-.24-.03l-.24-.06-.24-.07h0l-.4-.18-.39-.21-.36-.25-.35-.27h0l-.46-.43-.44-.44-.42-.47-.4-.48h0l-.56-.67-.58-.65-.62-.61-.65-.58h0l-.39-.25-.2-.11-.2-.09-.21-.07-.22-.05-.45-.07h0l-.39.05-.19.04-.18.06-.17.09-.16.11-.31.25h0l-.25.35-.11.18-.08.19-.06.2-.04.21-.04.43h0l.04.45.04.22.06.21.09.2.11.19.27.36h0l.37.27.19.11.2.09.21.06.22.04.46.04-.15,1.43h0l-.69-.11-.33-.08-.32-.12-.3-.16-.28-.19-.53-.44h0l-.38-.59-.16-.3-.12-.32-.08-.33-.05-.34-.05-.7h0l.05-.71.06-.34.09-.33.13-.32.17-.3.4-.58h0l.49-.4.26-.17.27-.14.29-.1.3-.06.63-.07h0l.34.02.34.05.33.09.32.12h0l.37.19.36.21.33.25.32.27h0l.52.51.51.53.96,1.11h0l.7.82.73.79h0l.36.31.39.27v-5.56h1.34Z" shaper:cutDepth="0.05cm"/>
    <path class="cls-1" d="M157.21,171.4h0l.47-.12.23-.07.22-.09.21-.11.2-.13.38-.3h0l.22-.32.1-.16.08-.17.05-.18.03-.19.04-.39h0l-.05-.46-.05-.22-.07-.21-.1-.2-.12-.19-.29-.37h0l-.37-.29-.19-.12-.2-.1-.22-.07-.23-.05-.47-.05h0l-.44.04-.21.04-.2.06-.19.09-.18.12-.35.27h0l-.27.35-.11.18-.09.19-.06.21-.04.21-.04.44h0l.05.5.11.49-1.22-.15h0l.02-.22h0l-.03-.42-.03-.21-.05-.2-.07-.2-.08-.19-.2-.38h0l-.29-.31-.16-.13-.17-.1-.19-.07-.2-.05-.42-.05h0l-.35.04-.17.03-.16.05-.15.08-.15.1-.28.22h0l-.22.3-.09.16-.07.16-.05.17-.03.18-.03.37h0l.04.37.03.18.05.17.07.16.09.16.22.3h0l.34.26.18.12.19.1.2.07.21.06.42.09-.25,1.39h0l-.61-.16-.29-.1-.28-.13-.26-.16-.25-.19-.47-.42h0l-.34-.51-.14-.27-.11-.28-.08-.29-.05-.3-.05-.61h0l.03-.44.07-.43.13-.42.17-.41h0l.21-.35.24-.32.3-.27.33-.24h0l.35-.17.36-.14.37-.07.39-.03h0l.35.03.34.07.33.13.31.17h0l.3.24.26.27.21.31.18.34h0l.15-.45.09-.22.11-.2.13-.19.15-.18.34-.33h0l.42-.25.22-.1.22-.08.23-.06.24-.03.49-.04h0l.71.09.34.07.32.11.3.16.29.2.55.46h0l.45.61.19.32.15.33.1.35.07.37.07.76h0l-.06.68-.06.33-.09.32-.13.3-.16.29-.39.56h0l-.5.44-.26.19-.28.16-.3.12-.31.09-.65.13-.19-1.39Z" shaper:cutDepth="0.05cm"/>
  </g>
</svg>