<?xml version="1.0" encoding="utf-8"?>
<!-- Generator: Fusion 360, Shaper Origin Export Add-In, Version 1.7.0  -->
<svg xmlns="http://www.w3.org/2000/svg" xmlns:xlink="http://www.w3.org/1999/xlink" xmlns:shaper="http://www.shapertools.com/namespaces/shaper" shaper:fusionaddin="version:1.7.0" width="7.058524cm" height="7.3cm" version="1.1" x="0cm" y="0cm" viewBox="0 0 7.058524 7.3" enable-background="new 0 0 7.058524 7.3" xml:space="preserve"><path d="M-3.529262,-2.0046781 L-1.8572407,-3.5690658 A0.3,0.3 226.9047902 0,1 -1.6522768,-3.65 L3.229262,-3.65 A0.3,0.3 270 0,1 3.529262,-3.35 L3.529262,-2.7885309 3.229262,-2.7885309 3.229262,-0.7885309 3.529262,-0.7885309 3.529262,3.35 A0.3,0.3 0 0,1 3.229262,3.65 L-1.6522768,3.65 A0.3,0.3 90 0,1 -1.8572407,3.5690658 L-3.529262,2.0046781 -3.529262,1.65 -3.2342727,1.65 -3.2342727,-1.65 -3.529262,-1.65 -3.529262,-2.0046781z" transform="matrix(1,0,0,-1,3.529262,3.65)" fill="rgb(0,0,0)" shaper:cutDepth="0.3cm" stroke-linecap="round" stroke-linejoin="round" /><path d="M2.9518454,-2.1698319 L2.9518454,-2.1698319 2.9684554,-2.1657657 2.9765127,-2.1632384 2.9842728,-2.1601182 2.9916422,-2.1562187 2.9986398,-2.1515775 3.0120091,-2.1410461 3.0120091,-2.1410461 3.0199045,-2.1299019 3.0232841,-2.1241163 3.0259819,-2.1180746 3.0278615,-2.1117256 3.0290824,-2.105129 3.0304265,-2.0915236 3.0304265,-2.0915236 3.0285971,-2.0751732 3.0269743,-2.0672896 3.024502,-2.0597559 3.0209846,-2.0526526 3.0166064,-2.0459038 3.0064156,-2.032997 3.0064156,-2.032997 2.9932546,-2.0228023 2.98638,-2.0184323 2.9791523,-2.014935 2.971499,-2.0124899 2.9635017,-2.010895 2.946934,-2.0091225 2.946934,-2.0091225 2.9313975,-2.0106966 2.9238953,-2.0121461 2.9167124,-2.0143906 2.9099282,-2.0176274 2.9034783,-2.0216969 2.8911359,-2.0312234 2.8911359,-2.0312234 2.8816486,-2.0436896 2.8775991,-2.0501981 2.8743824,-2.0570371 2.8721559,-2.064269 2.8707212,-2.071815 2.8691714,-2.0874308 2.8691714,-2.0874308 2.8708227,-2.1049191 2.8746284,-2.1220829 2.8315179,-2.1166259 2.8315179,-2.1166259 2.8320637,-2.1087132 2.8320637,-2.1087132 2.8308443,-2.0937546 2.8297491,-2.086417 2.8280713,-2.0792494 2.8256731,-2.0722921 2.822678,-2.0655089 2.8156926,-2.052233 2.8156926,-2.052233 2.8054753,-2.0412517 2.799945,-2.036587 2.793909,-2.0329129 2.7872816,-2.0303976 2.7801861,-2.0287993 2.7652151,-2.0271307 2.7652151,-2.0271307 2.7526944,-2.0284686 2.7466587,-2.029682 2.7408927,-2.0315488 2.7354612,-2.0342266 2.7303085,-2.0375798 2.7204675,-2.0454117 2.7204675,-2.0454117 2.7127337,-2.0559456 2.7094445,-2.0614344 2.7068483,-2.0671891 2.705066,-2.0732564 2.7039293,-2.0795715 2.7027321,-2.092615 2.7027321,-2.092615 2.7040082,-2.1057867 2.7051867,-2.1121657 2.7070137,-2.1182966 2.7096511,-2.1241174 2.7129692,-2.1296777 2.7207403,-2.140364 2.7207403,-2.140364 2.7327413,-2.1496879 2.7390168,-2.1537681 2.7456207,-2.1571533 2.7525841,-2.1597777 2.7598241,-2.1618171 2.7747649,-2.1649206 2.7660336,-2.2140338 2.7660336,-2.2140338 2.7443997,-2.2083809 2.7339946,-2.2048002 2.7240836,-2.2003145 2.7148016,-2.1946769 2.7060644,-2.1880414 2.6894989,-2.1731061 2.6894989,-2.1731061 2.6776745,-2.1550139 2.6726432,-2.1456604 2.6686687,-2.1359381 2.6659374,-2.1257821 2.6641932,-2.1152815 2.6623502,-2.0937064 2.6623502,-2.0937064 2.663386,-2.0780495 2.6657587,-2.0627066 2.6703918,-2.0478947 2.676402,-2.0334063 2.676402,-2.0334063 2.6839329,-2.0209879 2.6925652,-2.0095778 2.7030745,-1.9998861 2.7147376,-1.9912507 2.7147376,-1.9912507 2.7269393,-1.9851488 2.7395149,-1.9803751 2.7527199,-1.9778367 2.7663065,-1.9766532 2.7663065,-1.9766532 2.7788206,-1.9777192 2.7909471,-1.9800964 2.8024243,-1.9846702 2.8135098,-1.9905686 2.8135098,-1.9905686 2.8240087,-1.9991714 2.8333572,-2.0087311 2.8408771,-2.0198119 2.8473433,-2.0317691 2.8473433,-2.0317691 2.8524671,-2.0158872 2.8555904,-2.0082968 2.8593875,-2.0011269 2.8640315,-1.9944857 2.8693933,-1.9882926 2.8813133,-1.9766532 2.8813133,-1.9766532 2.8962683,-1.9679837 2.9039539,-1.9643134 2.9118891,-1.9614398 2.9201129,-1.9594871 2.9285634,-1.9582585 2.9458426,-1.9570079 2.9458426,-1.9570079 2.9708559,-1.9600163 2.9828828,-1.9626372 2.994334,-1.9665983 3.0050832,-1.9721937 3.0152592,-1.9791235 3.0346557,-1.9952071 3.0346557,-1.9952071 3.0504305,-2.0167967 3.0571572,-2.0280368 3.0624912,-2.039811 3.0661749,-2.0522182 3.0685419,-2.0651304 3.0710814,-2.0917964 3.0710814,-2.0917964 3.0689333,-2.1157425 3.0669103,-2.1273684 3.0637484,-2.1385776 3.0591543,-2.149263 3.0533457,-2.159504 3.0397035,-2.1792453 3.0397035,-2.1792453 3.022049,-2.1945941 3.0127597,-2.201331 3.002916,-2.2069428 2.9924082,-2.2112071 2.9813666,-2.2143882 2.9583938,-2.2189451 2.9518454,-2.1698319z" transform="matrix(1,0,0,-1,3.529262,3.65)" fill="rgb(116,116,116)" fill-rule="nonzero" shaper:cutDepth="0.05cm" stroke-linecap="round" stroke-linejoin="round" /><path d="M-0.4403542,2.0231766 L-0.4403542,2.0231766 -0.424596,2.0265356 -0.4169756,2.0287461 -0.4096658,2.0315937 -0.4027583,2.0352673 -0.396215,2.0396881 -0.3837375,2.0497796 -0.3837375,2.0497796 -0.3756466,2.0610939 -0.3721773,2.0669696 -0.3693994,2.0731077 -0.3674559,2.0795623 -0.3661871,2.0862728 -0.3647744,2.1001207 -0.3647744,2.1001207 -0.3669158,2.1171435 -0.3687648,2.1253096 -0.3715475,2.1330613 -0.3754639,2.1403101 -0.3803019,2.1471499 -0.3915138,2.160148 -0.3915138,2.160148 -0.4075446,2.171049 -0.4158628,2.1756535 -0.4245441,2.1792438 -0.4336416,2.1816713 -0.443065,2.1831882 -0.4624551,2.1847046 -0.4624551,2.1847046 -0.4806883,2.1832883 -0.4895338,2.1818468 -0.4980541,2.1795255 -0.5061577,2.1760765 -0.5138949,2.1716366 -0.528758,2.1611029 -0.528758,2.1611029 -0.5393319,2.1474593 -0.5438315,2.1403217 -0.5473867,2.1328051 -0.5498303,2.1248425 -0.5513912,2.1165258 -0.5530418,2.0993021 -0.5530418,2.0993021 -0.5522666,2.0881043 -0.5504601,2.0771689 -0.5468997,2.0666799 -0.5422642,2.0564645 -0.5422642,2.0564645 -0.5365546,2.0477604 -0.5301553,2.0397022 -0.5225846,2.0327408 -0.5142969,2.0264508 -0.5202996,1.980339 -0.7257566,2.0190838 -0.7257566,2.2179924 -0.6788262,2.2179924 -0.6788262,2.0583744 -0.5713228,2.0368192 -0.5713228,2.0368192 -0.5816444,2.0543899 -0.586129,2.0633966 -0.5898023,2.0726688 -0.5924588,2.0822738 -0.5942575,2.0921595 -0.5964251,2.112399 -0.5964251,2.112399 -0.5936639,2.1371011 -0.5912128,2.1490109 -0.5874772,2.1603914 -0.5821611,2.1711204 -0.5755428,2.1813127 -0.5601359,2.2008028 -0.5601359,2.2008028 -0.5394139,2.2164363 -0.5285982,2.223097 -0.5172372,2.2283705 -0.5052317,2.2320052 -0.4927132,2.2343349 -0.4668208,2.2368192 -0.4668208,2.2368192 -0.4414405,2.2345243 -0.4290724,2.2324321 -0.4170908,2.2292062 -0.4055899,2.2245702 -0.3944903,2.218757 -0.3729599,2.2051684 -0.3729599,2.2051684 -0.362211,2.1942291 -0.3520679,2.1830058 -0.3431367,2.1712149 -0.3360231,2.1585724 -0.3310817,2.1449122 -0.3278835,2.1304354 -0.3258474,2.1154142 -0.3243924,2.1001207 -0.3243924,2.1001207 -0.3263537,2.0758456 -0.3282714,2.0640387 -0.3313135,2.0526285 -0.3357841,2.0417223 -0.3414878,2.0312513 -0.3549518,2.0110347 -0.3549518,2.0110347 -0.3725044,1.9956878 -0.3817513,1.9889688 -0.3915627,1.983395 -0.4020444,1.9791809 -0.4130617,1.976053 -0.4359886,1.9716077 -0.4403542,2.0231766z" transform="matrix(1,0,0,-1,3.529262,3.65)" fill="rgb(116,116,116)" fill-rule="nonzero" shaper:cutDepth="0.05cm" stroke-linecap="round" stroke-linejoin="round" /><path d="M-1.0296033,-2.4732416 L-1.0296033,-2.4732416 -1.0138451,-2.4698826 -1.0062248,-2.4676721 -0.9989149,-2.4648245 -0.9920075,-2.4611509 -0.9854642,-2.4567301 -0.9729867,-2.4466385 -0.9729867,-2.4466385 -0.9648957,-2.4353243 -0.9614264,-2.4294485 -0.9586485,-2.4233105 -0.956705,-2.4168559 -0.9554363,-2.4101453 -0.9540235,-2.3962975 -0.9540235,-2.3962975 -0.956165,-2.3792747 -0.9580139,-2.3711086 -0.9607967,-2.3633568 -0.9647131,-2.3561081 -0.969551,-2.3492683 -0.980763,-2.3362702 -0.980763,-2.3362702 -0.9967937,-2.3253692 -1.0051119,-2.3207647 -1.0137932,-2.3171744 -1.0228907,-2.3147469 -1.0323142,-2.31323 -1.0517043,-2.3117136 -1.0517043,-2.3117136 -1.0699374,-2.3131299 -1.078783,-2.3145713 -1.0873033,-2.3168927 -1.0954068,-2.3203416 -1.103144,-2.3247815 -1.1180071,-2.3353153 -1.1180071,-2.3353153 -1.128581,-2.3489588 -1.1330807,-2.3560965 -1.1366358,-2.3636131 -1.1390794,-2.3715756 -1.1406404,-2.3798924 -1.1422909,-2.3971161 -1.1422909,-2.3971161 -1.1415158,-2.4083139 -1.1397092,-2.4192493 -1.1361488,-2.4297383 -1.1315133,-2.4399537 -1.1315133,-2.4399537 -1.1258037,-2.4486578 -1.1194044,-2.456716 -1.1118337,-2.4636774 -1.103546,-2.4699673 -1.1095487,-2.5160792 -1.3150058,-2.4773343 -1.3150058,-2.2784257 -1.2680754,-2.2784257 -1.2680754,-2.4380437 -1.160572,-2.459599 -1.160572,-2.459599 -1.1708935,-2.4420282 -1.1753782,-2.4330216 -1.1790514,-2.4237494 -1.1817079,-2.4141444 -1.1835066,-2.4042586 -1.1856743,-2.3840192 -1.1856743,-2.3840192 -1.182913,-2.3593171 -1.1804619,-2.3474072 -1.1767263,-2.3360268 -1.1714103,-2.3252978 -1.164792,-2.3151055 -1.1493851,-2.2956154 -1.1493851,-2.2956154 -1.128663,-2.2799818 -1.1178474,-2.2733212 -1.1064863,-2.2680476 -1.0944809,-2.264413 -1.0819623,-2.2620833 -1.0560699,-2.259599 -1.0560699,-2.259599 -1.0306896,-2.2618939 -1.0183216,-2.2639861 -1.0063399,-2.267212 -0.994839,-2.271848 -0.9837394,-2.2776612 -0.9622091,-2.2912497 -0.9622091,-2.2912497 -0.9514601,-2.3021891 -0.941317,-2.3134123 -0.9323858,-2.3252033 -0.9252723,-2.3378458 -0.9203308,-2.3515059 -0.9171326,-2.3659827 -0.9150965,-2.381004 -0.9136415,-2.3962975 -0.9136415,-2.3962975 -0.9156028,-2.4205726 -0.9175205,-2.4323795 -0.9205626,-2.4437897 -0.9250333,-2.4546958 -0.930737,-2.4651669 -0.9442009,-2.4853834 -0.9442009,-2.4853834 -0.9617536,-2.5007304 -0.9710004,-2.5074494 -0.9808118,-2.5130232 -0.9912936,-2.5172373 -1.0023108,-2.5203651 -1.0252377,-2.5248105 -1.0296033,-2.4732416z" transform="matrix(1,0,0,-1,3.529262,3.65)" fill="rgb(116,116,116)" fill-rule="nonzero" shaper:cutDepth="0.05cm" stroke-linecap="round" stroke-linejoin="round" /><path d="M-0.9036202,-0.1329923 L-0.9036202,-0.3973852 -0.9036202,-0.3973852 -0.912345,-0.3971302 -0.9209619,-0.3962344 -0.9293986,-0.3942673 -0.9377266,-0.3916553 -0.9377266,-0.3916553 -0.9519995,-0.3851846 -0.9657245,-0.3778044 -0.9785791,-0.3689794 -0.9909326,-0.3593224 -0.9909326,-0.3593224 -1.0070642,-0.3441992 -1.0226074,-0.3285159 -1.0372917,-0.3120148 -1.0515056,-0.2950659 -1.0515056,-0.2950659 -1.0710886,-0.2714653 -1.0914471,-0.2486259 -1.1132786,-0.2272327 -1.1362259,-0.206935 -1.1362259,-0.206935 -1.1498085,-0.1980166 -1.1567901,-0.1940695 -1.1640003,-0.1907368 -1.1715075,-0.1882033 -1.1792863,-0.1863998 -1.1952982,-0.1840155 -1.1952982,-0.1840155 -1.2091397,-0.1856312 -1.2158003,-0.187052 -1.2221486,-0.1892085 -1.2281144,-0.1922661 -1.2337666,-0.196063 -1.2445479,-0.2048886 -1.2445479,-0.2048886 -1.2533402,-0.2170694 -1.257072,-0.2234108 -1.2600068,-0.2300533 -1.2620123,-0.2370469 -1.2632836,-0.244318 -1.2646025,-0.2593224 -1.2646025,-0.2593224 -1.2632338,-0.2750355 -1.2618972,-0.2826404 -1.2597778,-0.2899432 -1.2566642,-0.2968625 -1.252693,-0.3034508 -1.2433201,-0.3160755 -1.2433201,-0.3160755 -1.2301667,-0.3256221 -1.2233074,-0.3296518 -1.2161094,-0.3327908 -1.2085273,-0.3349194 -1.2006459,-0.3362606 -1.1843842,-0.3376308 -1.1895684,-0.3881082 -1.1895684,-0.3881082 -1.2137648,-0.3840619 -1.2254268,-0.381108 -1.2365653,-0.3770372 -1.2470313,-0.3715313 -1.2569027,-0.364757 -1.2756529,-0.3490905 -1.2756529,-0.3490905 -1.2889301,-0.3283692 -1.2945156,-0.3176512 -1.2988396,-0.3065053 -1.301738,-0.2948757 -1.3035273,-0.2828699 -1.3052573,-0.258231 -1.3052573,-0.258231 -1.3033444,-0.2332407 -1.3013958,-0.2211064 -1.2982568,-0.2094051 -1.2935918,-0.1982589 -1.2875854,-0.1876007 -1.2733337,-0.1670987 -1.2733337,-0.1670987 -1.2560363,-0.1528699 -1.2469625,-0.1467546 -1.2373785,-0.1418382 -1.2271744,-0.1383793 -1.2164656,-0.1361065 -1.1942068,-0.133538 -1.1942068,-0.133538 -1.1820643,-0.1343412 -1.1701098,-0.1360539 -1.1584649,-0.1392636 -1.1470036,-0.1433606 -1.1470036,-0.1433606 -1.1338794,-0.150124 -1.1212845,-0.1576911 -1.1094973,-0.1664847 -1.0981632,-0.1759664 -1.0981632,-0.1759664 -1.0796845,-0.1940684 -1.0617537,-0.2126854 -1.0277676,-0.2516826 -1.0277676,-0.2516826 -1.0032074,-0.2806068 -0.9774265,-0.3084357 -0.9774265,-0.3084357 -0.9646661,-0.3195011 -0.9508234,-0.3291723 -0.9508234,-0.1329923 -0.9036202,-0.1329923z" transform="matrix(1,0,0,-1,3.529262,3.65)" fill="rgb(116,116,116)" fill-rule="nonzero" shaper:cutDepth="0.05cm" stroke-linecap="round" stroke-linejoin="round" /><path d="M1.0439512,-1.8522437 L1.0439512,-2.1166366 1.0439512,-2.1166366 1.0352263,-2.1163817 1.0266094,-2.1154859 1.0181728,-2.1135187 1.0098447,-2.1109068 1.0098447,-2.1109068 0.9955718,-2.1044361 0.9818469,-2.0970558 0.9689922,-2.0882308 0.9566388,-2.0785739 0.9566388,-2.0785739 0.9405072,-2.0634507 0.924964,-2.0477673 0.9102797,-2.0312663 0.8960658,-2.0143174 0.8960658,-2.0143174 0.8764827,-1.9907167 0.8561242,-1.9678774 0.8342927,-1.9464842 0.8113454,-1.9261864 0.8113454,-1.9261864 0.7977629,-1.9172681 0.7907812,-1.9133209 0.7835711,-1.9099883 0.7760638,-1.9074547 0.7682851,-1.9056513 0.7522731,-1.9032669 0.7522731,-1.9032669 0.7384316,-1.9048826 0.7317711,-1.9063035 0.7254228,-1.9084599 0.7194569,-1.9115176 0.7138048,-1.9153144 0.7030235,-1.92414 0.7030235,-1.92414 0.6942311,-1.9363208 0.6904994,-1.9426622 0.6875645,-1.9493047 0.6855591,-1.9562984 0.6842878,-1.9635694 0.6829689,-1.9785739 0.6829689,-1.9785739 0.6843375,-1.994287 0.6856742,-2.0018918 0.6877936,-2.0091947 0.6909071,-2.0161139 0.6948784,-2.0227022 0.7042513,-2.035327 0.7042513,-2.035327 0.7174046,-2.0448735 0.7242639,-2.0489033 0.7314619,-2.0520423 0.739044,-2.0541708 0.7469254,-2.055512 0.7631872,-2.0568822 0.758003,-2.1073597 0.758003,-2.1073597 0.7338065,-2.1033134 0.7221446,-2.1003595 0.7110061,-2.0962886 0.7005401,-2.0907828 0.6906687,-2.0840085 0.6719184,-2.0683419 0.6719184,-2.0683419 0.6586412,-2.0476206 0.6530558,-2.0369027 0.6487318,-2.0257567 0.6458333,-2.0141272 0.644044,-2.0021213 0.642314,-1.9774825 0.642314,-1.9774825 0.644227,-1.9524921 0.6461755,-1.9403578 0.6493146,-1.9286566 0.6539795,-1.9175104 0.6599859,-1.9068522 0.6742376,-1.8863502 0.6742376,-1.8863502 0.6915351,-1.8721213 0.7006089,-1.866006 0.7101929,-1.8610897 0.7203969,-1.8576307 0.7311057,-1.855358 0.7533645,-1.8527894 0.7533645,-1.8527894 0.7655071,-1.8535926 0.7774615,-1.8553054 0.7891064,-1.858515 0.8005678,-1.8626121 0.8005678,-1.8626121 0.813692,-1.8693754 0.8262869,-1.8769425 0.8380741,-1.8857362 0.8494082,-1.8952178 0.8494082,-1.8952178 0.8678868,-1.9133198 0.8858177,-1.9319368 0.9198038,-1.970934 0.9198038,-1.970934 0.944364,-1.9998583 0.9701449,-2.0276871 0.9701449,-2.0276871 0.9829053,-2.0387525 0.9967479,-2.0484238 0.9967479,-1.8522437 1.0439512,-1.8522437z" transform="matrix(1,0,0,-1,3.529262,3.65)" fill="rgb(116,116,116)" fill-rule="nonzero" shaper:cutDepth="0.05cm" stroke-linecap="round" stroke-linejoin="round" /><path d="M0.9317179,-3.0181782 L0.9317179,-3.4147676 0.9317179,-3.4147676 0.9186307,-3.4143851 0.9057053,-3.4130414 0.8930504,-3.4100906 0.8805583,-3.4061728 0.8805583,-3.4061728 0.8591489,-3.3964667 0.8385615,-3.3853963 0.8192795,-3.3721589 0.8007492,-3.3576735 0.8007492,-3.3576735 0.7765519,-3.3349886 0.7532371,-3.3114636 0.7312106,-3.286712 0.7098898,-3.2612887 0.7098898,-3.2612887 0.6805152,-3.2258877 0.6654644,-3.2085441 0.6499774,-3.1916287 0.6339098,-3.1752833 0.6172302,-3.1595389 0.5828093,-3.1290923 0.5828093,-3.1290923 0.5624355,-3.1157146 0.551963,-3.1097939 0.5411478,-3.104795 0.5298869,-3.1009946 0.5182188,-3.0982895 0.4942008,-3.094713 0.4942008,-3.094713 0.4734386,-3.0971365 0.4634478,-3.0992678 0.4539253,-3.1025025 0.4449765,-3.107089 0.4364983,-3.1127842 0.4203263,-3.1260227 0.4203263,-3.1260227 0.4071378,-3.1442938 0.4015402,-3.153806 0.3971379,-3.1637697 0.3941297,-3.1742602 0.3922228,-3.1851668 0.3902445,-3.2076734 0.3902445,-3.2076734 0.3922975,-3.2312431 0.3943024,-3.2426504 0.3974815,-3.2536046 0.4021518,-3.2639835 0.4081087,-3.273866 0.4221681,-3.292803 0.4221681,-3.292803 0.4418981,-3.3071229 0.4521871,-3.3131675 0.462984,-3.317876 0.4743572,-3.3210688 0.4861793,-3.3230807 0.5105719,-3.3251359 0.5027956,-3.4008521 0.5027956,-3.4008521 0.4845174,-3.3980966 0.466501,-3.3947827 0.449008,-3.3903518 0.4323002,-3.3842455 0.4243213,-3.3803924 0.4166013,-3.3759868 0.4017941,-3.3658254 0.3875825,-3.3543931 0.3736687,-3.3423256 0.3736687,-3.3423256 0.3633949,-3.3268917 0.353753,-3.3112435 0.3453748,-3.2951666 0.3388888,-3.2784477 0.3345411,-3.2610034 0.3318572,-3.2429946 0.3292622,-3.2060363 0.3292622,-3.2060363 0.3303993,-3.1871853 0.3321316,-3.1685508 0.3350544,-3.1503494 0.3397631,-3.1327975 0.3429694,-3.1243315 0.3467605,-3.1160782 0.35577,-3.1000909 0.366123,-3.0845922 0.3771476,-3.0693378 0.3771476,-3.0693378 0.3899931,-3.0583665 0.4030937,-3.0479946 0.4167045,-3.0388216 0.4310804,-3.0314471 0.4463865,-3.0262587 0.4624497,-3.0228495 0.4790177,-3.0206266 0.4958379,-3.0189967 0.4958379,-3.0189967 0.5140517,-3.0202016 0.5319834,-3.0227707 0.5494507,-3.0275852 0.5666428,-3.0337307 0.5666428,-3.0337307 0.5863291,-3.0438758 0.6052214,-3.0552264 0.6229022,-3.0684169 0.6399034,-3.0826393 0.6399034,-3.0826393 0.6676214,-3.1097924 0.6945177,-3.1377178 0.7203023,-3.1666884 0.7454969,-3.1962137 0.7454969,-3.1962137 0.7823372,-3.2396 0.8014432,-3.2606777 0.8210084,-3.2813433 0.8210084,-3.2813433 0.8401491,-3.2979413 0.8609129,-3.3124483 0.8609129,-3.0181782 0.9317179,-3.0181782z" transform="matrix(1,0,0,-1,3.529262,3.65)" fill="rgb(116,116,116)" fill-rule="nonzero" shaper:cutDepth="0.05cm" stroke-linecap="round" stroke-linejoin="round" /><path d="M0.4439511,-2.3205248 a0.15,0.15 0 1,1 0.3,0 a0.15,0.15 0 1,1 -0.3,0z" transform="matrix(1,0,0,-1,3.529262,3.65)" fill="rgb(255,255,255)" stroke="rgb(0,0,0)" stroke-width="0.0010cm" stroke-linecap="round" stroke-linejoin="round" shaper:cutDepth="0.3cm" /><path d="M-1.5036202,-0.6012733 a0.15,0.15 0 1,1 0.3,0 a0.15,0.15 0 1,1 -0.3,0z" transform="matrix(1,0,0,-1,3.529262,3.65)" fill="rgb(255,255,255)" stroke="rgb(0,0,0)" stroke-width="0.0010cm" stroke-linecap="round" stroke-linejoin="round" shaper:cutDepth="0.3cm" /><path d="M-0.9619419,1.7975953 a0.15,0.15 0 1,1 0.3,0 a0.15,0.15 0 1,1 -0.3,0z" transform="matrix(1,0,0,-1,3.529262,3.65)" fill="rgb(255,255,255)" stroke="rgb(0,0,0)" stroke-width="0.0010cm" stroke-linecap="round" stroke-linejoin="round" shaper:cutDepth="0.3cm" /><path d="M-1.5177343,-2.7314271 a0.15,0.15 0 1,1 0.3,0 a0.15,0.15 0 1,1 -0.3,0z" transform="matrix(1,0,0,-1,3.529262,3.65)" fill="rgb(255,255,255)" stroke="rgb(0,0,0)" stroke-width="0.0010cm" stroke-linecap="round" stroke-linejoin="round" shaper:cutDepth="0.3cm" /><path d="M2.5435722,-2.4331405 a0.15,0.15 0 1,1 0.3,0 a0.15,0.15 0 1,1 -0.3,0z" transform="matrix(1,0,0,-1,3.529262,3.65)" fill="rgb(255,255,255)" stroke="rgb(0,0,0)" stroke-width="0.0010cm" stroke-linecap="round" stroke-linejoin="round" shaper:cutDepth="0.3cm" /><path d="M-2.5342727,1.25 L-2.5342727,-1.25 -2.2342727,-1.25 -2.2342727,1.25 -2.5342727,1.25z" transform="matrix(1,0,0,-1,3.529262,3.65)" fill="rgb(255,255,255)" stroke="rgb(0,0,0)" stroke-width="0.0010cm" stroke-linecap="round" stroke-linejoin="round" shaper:cutDepth="0.3cm" /><path d="M2.979262,-3.25 a0.15,0.15 0 1,1 0.3,0 a0.15,0.15 0 1,1 -0.3,0z" transform="matrix(1,0,0,-1,3.529262,3.65)" fill="rgb(255,255,255)" stroke="rgb(0,0,0)" stroke-width="0.0010cm" stroke-linecap="round" stroke-linejoin="round" shaper:cutDepth="0.3cm" /><path d="M-1.520738,3.25 a0.15,0.15 0 1,1 0.3,0 a0.15,0.15 0 1,1 -0.3,0z" transform="matrix(1,0,0,-1,3.529262,3.65)" fill="rgb(255,255,255)" stroke="rgb(0,0,0)" stroke-width="0.0010cm" stroke-linecap="round" stroke-linejoin="round" shaper:cutDepth="0.3cm" /><path d="M2.979262,3.25 a0.15,0.15 0 1,1 0.3,0 a0.15,0.15 0 1,1 -0.3,0z" transform="matrix(1,0,0,-1,3.529262,3.65)" fill="rgb(255,255,255)" stroke="rgb(0,0,0)" stroke-width="0.0010cm" stroke-linecap="round" stroke-linejoin="round" shaper:cutDepth="0.3cm" /><path d="M-1.520738,-3.25 a0.15,0.15 0 1,1 0.3,0 a0.15,0.15 0 1,1 -0.3,0z" transform="matrix(1,0,0,-1,3.529262,3.65)" fill="rgb(255,255,255)" stroke="rgb(0,0,0)" stroke-width="0.0010cm" stroke-linecap="round" stroke-linejoin="round" shaper:cutDepth="0.3cm" /><path d="M-2.1707381,2 L-0.870738,2 -0.870738,2.7500001 -2.1707381,2.7500001 A0.3,0.3 90 0,1 -2.4707381,2.4500001 L-2.4707381,2.3 A0.3,0.3 180 0,1 -2.1707381,2z" transform="matrix(1,0,0,-1,3.529262,3.65)" fill="rgb(255,255,255)" stroke="rgb(0,0,0)" stroke-width="0.0010cm" stroke-linecap="round" stroke-linejoin="round" shaper:cutDepth="0.3cm" /></svg>