<?xml version="1.0" encoding="utf-8"?>
<!-- Generator: Fusion 360, Shaper Origin Export Add-In, Version 1.7.0  -->
<svg xmlns="http://www.w3.org/2000/svg" xmlns:xlink="http://www.w3.org/1999/xlink" xmlns:shaper="http://www.shapertools.com/namespaces/shaper" shaper:fusionaddin="version:1.7.0" width="7.058524cm" height="7.3cm" version="1.1" x="0cm" y="0cm" viewBox="0 0 7.058524 7.3" enable-background="new 0 0 7.058524 7.3" xml:space="preserve"><path d="M-3.529262,-2.0046781 L-1.8572407,-3.5690658 A0.3,0.3 226.9047902 0,1 -1.6522768,-3.65 L3.229262,-3.65 A0.3,0.3 270 0,1 3.529262,-3.35 L3.529262,-2.7885309 3.229262,-2.7885309 3.229262,-0.7885309 3.529262,-0.7885309 3.529262,3.35 A0.3,0.3 0 0,1 3.229262,3.65 L-1.6522768,3.65 A0.3,0.3 90 0,1 -1.8572407,3.5690658 L-3.529262,2.0046781 -3.529262,1.65 -3.2342727,1.65 -3.2342727,-1.65 -3.529262,-1.65 -3.529262,-2.0046781z" transform="matrix(1,0,0,-1,3.529262,3.65)" fill="rgb(0,0,0)" shaper:cutDepth="0.3cm" stroke-linecap="round" stroke-linejoin="round" /><path d="M-0.5061145,1.6412708 L-0.5061145,1.3768779 -0.5061145,1.3768779 -0.5148393,1.3771328 -0.5234563,1.3780286 -0.5318929,1.3799958 -0.540221,1.3826077 -0.540221,1.3826077 -0.5544938,1.3890784 -0.5682188,1.3964587 -0.5810734,1.4052837 -0.5934269,1.4149406 -0.5934269,1.4149406 -0.6095585,1.4300638 -0.6251017,1.4457472 -0.639786,1.4622482 -0.6539999,1.4791971 -0.6539999,1.4791971 -0.673583,1.5027978 -0.6939415,1.5256371 -0.7157729,1.5470303 -0.7387203,1.5673281 -0.7387203,1.5673281 -0.7523028,1.5762465 -0.7592845,1.5801936 -0.7664946,1.5835262 -0.7740018,1.5860598 -0.7817806,1.5878632 -0.7977926,1.5902476 -0.7977926,1.5902476 -0.811634,1.5886319 -0.8182946,1.587211 -0.8246429,1.5850546 -0.8306088,1.5819969 -0.8362609,1.5782001 -0.8470422,1.5693745 -0.8470422,1.5693745 -0.8558345,1.5571937 -0.8595663,1.5508523 -0.8625011,1.5442098 -0.8645066,1.5372161 -0.8657779,1.5299451 -0.8670968,1.5149406 -0.8670968,1.5149406 -0.8657281,1.4992275 -0.8643915,1.4916227 -0.8622721,1.4843198 -0.8591585,1.4774006 -0.8551873,1.4708123 -0.8458144,1.4581875 -0.8458144,1.4581875 -0.8326611,1.448641 -0.8258017,1.4446112 -0.8186038,1.4414722 -0.8110217,1.4393437 -0.8031402,1.4380025 -0.7868785,1.4366323 -0.7920627,1.3861548 -0.7920627,1.3861548 -0.8162591,1.3902011 -0.8279211,1.393155 -0.8390596,1.3972259 -0.8495256,1.4027317 -0.859397,1.409506 -0.8781473,1.4251726 -0.8781473,1.4251726 -0.8914244,1.4458939 -0.8970099,1.4566119 -0.9013339,1.4677578 -0.9042323,1.4793873 -0.9060216,1.4913932 -0.9077516,1.516032 -0.9077516,1.516032 -0.9058387,1.5410224 -0.9038901,1.5531567 -0.9007511,1.5648579 -0.8960861,1.5760041 -0.8900798,1.5866623 -0.875828,1.6071643 -0.875828,1.6071643 -0.8585306,1.6213932 -0.8494568,1.6275085 -0.8398728,1.6324248 -0.8296687,1.6358838 -0.8189599,1.6381565 -0.7967011,1.6407251 -0.7967011,1.6407251 -0.7845586,1.6399219 -0.7726042,1.6382091 -0.7609593,1.6349995 -0.7494979,1.6309024 -0.7494979,1.6309024 -0.7363737,1.6241391 -0.7237788,1.616572 -0.7119916,1.6077783 -0.7006575,1.5982967 -0.7006575,1.5982967 -0.6821788,1.5801947 -0.664248,1.5615777 -0.6302619,1.5225805 -0.6302619,1.5225805 -0.6057017,1.4936562 -0.5799208,1.4658274 -0.5799208,1.4658274 -0.5671604,1.454762 -0.5533178,1.4450907 -0.5533178,1.6412708 -0.5061145,1.6412708z" transform="matrix(1,0,0,-1,3.529262,3.65)" fill="rgb(116,116,116)" fill-rule="nonzero" shaper:cutDepth="0.05cm" stroke-linecap="round" stroke-linejoin="round" /><path d="M-1.0695547,-2.1833944 L-1.0695547,-2.1833944 -1.0537965,-2.1800354 -1.0461761,-2.1778249 -1.0388662,-2.1749773 -1.0319588,-2.1713037 -1.0254155,-2.1668829 -1.012938,-2.1567914 -1.012938,-2.1567914 -1.004847,-2.1454771 -1.0013777,-2.1396013 -0.9985999,-2.1334633 -0.9966564,-2.1270087 -0.9953876,-2.1202981 -0.9939749,-2.1064503 -0.9939749,-2.1064503 -0.9961163,-2.0894275 -0.9979652,-2.0812614 -1.000748,-2.0735096 -1.0046644,-2.0662609 -1.0095024,-2.0594211 -1.0207143,-2.046423 -1.0207143,-2.046423 -1.0367451,-2.035522 -1.0450633,-2.0309175 -1.0537446,-2.0273272 -1.0628421,-2.0248997 -1.0722655,-2.0233828 -1.0916556,-2.0218664 -1.0916556,-2.0218664 -1.1098888,-2.0232827 -1.1187343,-2.0247241 -1.1272546,-2.0270455 -1.1353581,-2.0304944 -1.1430954,-2.0349343 -1.1579585,-2.0454681 -1.1579585,-2.0454681 -1.1685324,-2.0591116 -1.173032,-2.0662493 -1.1765871,-2.0737659 -1.1790308,-2.0817285 -1.1805917,-2.0900452 -1.1822423,-2.1072689 -1.1822423,-2.1072689 -1.1814671,-2.1184667 -1.1796605,-2.1294021 -1.1761002,-2.1398911 -1.1714646,-2.1501065 -1.1714646,-2.1501065 -1.1657551,-2.1588106 -1.1593558,-2.1668688 -1.1517851,-2.1738302 -1.1434974,-2.1801201 -1.1495001,-2.226232 -1.3549571,-2.1874872 -1.3549571,-1.9885786 -1.3080267,-1.9885786 -1.3080267,-2.1481965 -1.2005233,-2.1697518 -1.2005233,-2.1697518 -1.2108449,-2.1521811 -1.2153295,-2.1431744 -1.2190028,-2.1339022 -1.2216592,-2.1242972 -1.223458,-2.1144114 -1.2256256,-2.094172 -1.2256256,-2.094172 -1.2228643,-2.0694699 -1.2204133,-2.05756 -1.2166777,-2.0461796 -1.2113616,-2.0354506 -1.2047433,-2.0252583 -1.1893364,-2.0057682 -1.1893364,-2.0057682 -1.1686143,-1.9901346 -1.1577987,-1.983474 -1.1464377,-1.9782005 -1.1344322,-1.9745658 -1.1219136,-1.9722361 -1.0960213,-1.9697518 -1.0960213,-1.9697518 -1.070641,-1.9720467 -1.0582729,-1.9741389 -1.0462913,-1.9773648 -1.0347904,-1.9820008 -1.0236908,-1.987814 -1.0021604,-2.0014026 -1.0021604,-2.0014026 -0.9914115,-2.0123419 -0.9812684,-2.0235651 -0.9723372,-2.0353561 -0.9652236,-2.0479986 -0.9602822,-2.0616587 -0.957084,-2.0761355 -0.9550479,-2.0911568 -0.9535929,-2.1064503 -0.9535929,-2.1064503 -0.9555542,-2.1307254 -0.9574719,-2.1425323 -0.960514,-2.1539425 -0.9649846,-2.1648486 -0.9706883,-2.1753197 -0.9841523,-2.1955363 -0.9841523,-2.1955363 -1.0017049,-2.2108832 -1.0109518,-2.2176022 -1.0207632,-2.223176 -1.0312449,-2.2273901 -1.0422621,-2.2305179 -1.0651891,-2.2349633 -1.0695547,-2.1833944z" transform="matrix(1,0,0,-1,3.529262,3.65)" fill="rgb(116,116,116)" fill-rule="nonzero" shaper:cutDepth="0.05cm" stroke-linecap="round" stroke-linejoin="round" /><path d="M2.125053,-1.7600701 L2.125053,-2.024463 2.125053,-2.024463 2.1163281,-2.0242081 2.1077112,-2.0233122 2.0992746,-2.0213451 2.0909465,-2.0187331 2.0909465,-2.0187331 2.0766736,-2.0122625 2.0629487,-2.0048822 2.050094,-1.9960572 2.0377406,-1.9864003 2.0377406,-1.9864003 2.021609,-1.9712771 2.0060658,-1.9555937 1.9913815,-1.9390927 1.9771676,-1.9221438 1.9771676,-1.9221438 1.9575845,-1.8985431 1.937226,-1.8757038 1.9153945,-1.8543105 1.8924472,-1.8340128 1.8924472,-1.8340128 1.8788647,-1.8250944 1.871883,-1.8211473 1.8646729,-1.8178147 1.8571656,-1.8152811 1.8493869,-1.8134777 1.8333749,-1.8110933 1.8333749,-1.8110933 1.8195335,-1.812709 1.8128729,-1.8141298 1.8065246,-1.8162863 1.8005587,-1.819344 1.7949066,-1.8231408 1.7841253,-1.8319664 1.7841253,-1.8319664 1.7753329,-1.8441472 1.7716012,-1.8504886 1.7686663,-1.8571311 1.7666609,-1.8641248 1.7653896,-1.8713958 1.7640707,-1.8864003 1.7640707,-1.8864003 1.7654393,-1.9021134 1.766776,-1.9097182 1.7688954,-1.9170211 1.7720089,-1.9239403 1.7759802,-1.9305286 1.7853531,-1.9431534 1.7853531,-1.9431534 1.7985064,-1.9526999 1.8053657,-1.9567297 1.8125637,-1.9598687 1.8201458,-1.9619972 1.8280272,-1.9633384 1.844289,-1.9647086 1.8391048,-2.0151861 1.8391048,-2.0151861 1.8149083,-2.0111398 1.8032464,-2.0081859 1.7921079,-2.004115 1.7816419,-1.9986092 1.7717705,-1.9918349 1.7530202,-1.9761683 1.7530202,-1.9761683 1.7397431,-1.955447 1.7341576,-1.944729 1.7298336,-1.9335831 1.7269351,-1.9219536 1.7251458,-1.9099477 1.7234158,-1.8853089 1.7234158,-1.8853089 1.7253288,-1.8603185 1.7272773,-1.8481842 1.7304164,-1.836483 1.7350813,-1.8253368 1.7410877,-1.8146786 1.7553394,-1.7941765 1.7553394,-1.7941765 1.7726369,-1.7799477 1.7817107,-1.7738324 1.7912947,-1.7689161 1.8014987,-1.7654571 1.8122075,-1.7631843 1.8344663,-1.7606158 1.8344663,-1.7606158 1.8466089,-1.761419 1.8585633,-1.7631317 1.8702082,-1.7663414 1.8816696,-1.7704385 1.8816696,-1.7704385 1.8947938,-1.7772018 1.9073887,-1.7847689 1.9191759,-1.7935625 1.93051,-1.8030442 1.93051,-1.8030442 1.9489886,-1.8211462 1.9669195,-1.8397632 2.0009056,-1.8787604 2.0009056,-1.8787604 2.0254658,-1.9076847 2.0512467,-1.9355135 2.0512467,-1.9355135 2.0640071,-1.9465789 2.0778497,-1.9562502 2.0778497,-1.7600701 2.125053,-1.7600701z" transform="matrix(1,0,0,-1,3.529262,3.65)" fill="rgb(116,116,116)" fill-rule="nonzero" shaper:cutDepth="0.05cm" stroke-linecap="round" stroke-linejoin="round" /><path d="M0.8005824,-0.2242866 L0.8005824,-0.4886795 0.8005824,-0.4886795 0.7918576,-0.4884246 0.7832407,-0.4875288 0.7748041,-0.4855616 0.766476,-0.4829497 0.766476,-0.4829497 0.7522031,-0.476479 0.7384782,-0.4690987 0.7256235,-0.4602737 0.71327,-0.4506168 0.71327,-0.4506168 0.6971385,-0.4354936 0.6815953,-0.4198102 0.666911,-0.4033092 0.6526971,-0.3863603 0.6526971,-0.3863603 0.633114,-0.3627596 0.6127555,-0.3399203 0.590924,-0.3185271 0.5679767,-0.2982294 0.5679767,-0.2982294 0.5543942,-0.289311 0.5474125,-0.2853638 0.5402024,-0.2820312 0.5326951,-0.2794976 0.5249164,-0.2776942 0.5089044,-0.2753098 0.5089044,-0.2753098 0.4950629,-0.2769255 0.4884024,-0.2783464 0.482054,-0.2805028 0.4760882,-0.2835605 0.4704361,-0.2873573 0.4596548,-0.2961829 0.4596548,-0.2961829 0.4508624,-0.3083637 0.4471307,-0.3147051 0.4441958,-0.3213477 0.4421904,-0.3283413 0.4409191,-0.3356123 0.4396002,-0.3506168 0.4396002,-0.3506168 0.4409688,-0.3663299 0.4423055,-0.3739347 0.4444249,-0.3812376 0.4475384,-0.3881568 0.4515097,-0.3947452 0.4608826,-0.4073699 0.4608826,-0.4073699 0.4740359,-0.4169164 0.4808952,-0.4209462 0.4880932,-0.4240852 0.4956753,-0.4262137 0.5035567,-0.4275549 0.5198185,-0.4289251 0.5146343,-0.4794026 0.5146343,-0.4794026 0.4904378,-0.4753563 0.4787758,-0.4724024 0.4676373,-0.4683315 0.4571714,-0.4628257 0.4473,-0.4560514 0.4285497,-0.4403849 0.4285497,-0.4403849 0.4152725,-0.4196635 0.4096871,-0.4089456 0.4053631,-0.3977996 0.4024646,-0.3861701 0.4006753,-0.3741642 0.3989453,-0.3495254 0.3989453,-0.3495254 0.4008583,-0.324535 0.4028068,-0.3124007 0.4059459,-0.3006995 0.4106108,-0.2895533 0.4166172,-0.2788951 0.4308689,-0.2583931 0.4308689,-0.2583931 0.4481663,-0.2441642 0.4572402,-0.2380489 0.4668241,-0.2331326 0.4770282,-0.2296736 0.487737,-0.2274009 0.5099958,-0.2248323 0.5099958,-0.2248323 0.5221384,-0.2256355 0.5340928,-0.2273483 0.5457377,-0.2305579 0.5571991,-0.234655 0.5571991,-0.234655 0.5703233,-0.2414183 0.5829182,-0.2489854 0.5947054,-0.2577791 0.6060395,-0.2672607 0.6060395,-0.2672607 0.6245181,-0.2853627 0.642449,-0.3039797 0.6764351,-0.3429769 0.6764351,-0.3429769 0.7009953,-0.3719012 0.7267762,-0.39973 0.7267762,-0.39973 0.7395366,-0.4107954 0.7533792,-0.4204667 0.7533792,-0.2242866 0.8005824,-0.2242866z" transform="matrix(1,0,0,-1,3.529262,3.65)" fill="rgb(116,116,116)" fill-rule="nonzero" shaper:cutDepth="0.05cm" stroke-linecap="round" stroke-linejoin="round" /><path d="M2.7816039,0.0534624 L2.7816039,-0.1200711 2.7365835,-0.1200711 2.4773747,0.0624665 2.4773747,0.1025756 2.7365835,0.1025756 2.7365835,0.1566001 2.7816039,0.1566001 2.7816039,0.1025756 2.8773747,0.1025756 2.8773747,0.0534624 2.7816039,0.0534624z M2.5562288,0.0534624 L2.7365835,-0.0717764 2.7365835,0.0534624 2.5562288,0.0534624z" transform="matrix(1,0,0,-1,3.529262,3.65)" fill="rgb(116,116,116)" fill-rule="nonzero" shaper:cutDepth="0.05cm" stroke-linecap="round" stroke-linejoin="round" /><path d="M0.7517342,-3.3852892 L0.7517342,-3.3852892 0.7753715,-3.3802507 0.7868021,-3.376935 0.7977669,-3.3726635 0.808128,-3.3671532 0.8179429,-3.3605219 0.8366592,-3.3453846 0.8366592,-3.3453846 0.8487956,-3.3284132 0.8539996,-3.3195996 0.8581664,-3.3103926 0.8610816,-3.3007107 0.8629847,-3.2906448 0.8651039,-3.269873 0.8651039,-3.269873 0.8618918,-3.2443388 0.8591184,-3.2320897 0.8549443,-3.2204621 0.8490697,-3.209589 0.8418127,-3.1993293 0.8249948,-3.1798321 0.8249948,-3.1798321 0.8009487,-3.1634805 0.7884713,-3.1565738 0.7754494,-3.1511883 0.7618032,-3.1475471 0.747668,-3.1452717 0.7185828,-3.1429972 0.7185828,-3.1429972 0.691233,-3.1451216 0.6779647,-3.1472838 0.6651843,-3.1507658 0.653029,-3.1559392 0.6414232,-3.1625991 0.6191285,-3.1783996 0.6191285,-3.1783996 0.6032677,-3.198865 0.5965182,-3.2095715 0.5911855,-3.2208465 0.58752,-3.2327903 0.5851787,-3.2452653 0.5827028,-3.2711009 0.5827028,-3.2711009 0.5838656,-3.2878977 0.5865754,-3.3043007 0.5889433,-3.3122444 0.5919159,-3.3200342 0.5988693,-3.3353573 0.5988693,-3.3353573 0.6074336,-3.3484135 0.6170326,-3.3605008 0.6283886,-3.3709429 0.6408202,-3.3803778 0.631816,-3.4495456 0.3236305,-3.3914283 0.3236305,-3.0930654 0.3940262,-3.0930654 0.3940262,-3.3324924 0.5552813,-3.3648253 0.5552813,-3.3648253 0.5397989,-3.3384692 0.533072,-3.3249592 0.5275621,-3.3110509 0.5235774,-3.2966433 0.5208793,-3.2818147 0.5176278,-3.2514556 0.5176278,-3.2514556 0.5193776,-3.2327966 0.5217697,-3.2144024 0.5254463,-3.1965376 0.5279671,-3.1878865 0.5310497,-3.179467 0.5347519,-3.1713028 0.5390239,-3.1633734 0.5489513,-3.148085 0.5601809,-3.1333332 0.5720617,-3.1188498 0.5720617,-3.1188498 0.5874668,-3.1067779 0.6031448,-3.0953996 0.6193682,-3.0854086 0.6277697,-3.0811502 0.6364097,-3.0774983 0.6453016,-3.0744868 0.6544179,-3.0720463 0.6731958,-3.0685518 0.6924868,-3.0663623 0.7120344,-3.0648253 0.7120344,-3.0648253 0.7501048,-3.0682676 0.7686569,-3.0714059 0.7866293,-3.0762447 0.8038806,-3.0831987 0.8205301,-3.0919186 0.8367782,-3.1018157 0.8528256,-3.1123014 0.8528256,-3.1123014 0.8689491,-3.1287104 0.8841637,-3.1455453 0.8911461,-3.1542554 0.8975605,-3.1632317 0.9032932,-3.1725274 0.9082309,-3.1821955 0.9123183,-3.1922619 0.915643,-3.2026857 0.9183141,-3.2134157 0.9204404,-3.2244009 0.9234945,-3.2469328 0.925677,-3.269873 0.925677,-3.269873 0.9227349,-3.3062857 0.9198584,-3.3239961 0.9152952,-3.3411113 0.9085893,-3.3574706 0.9000337,-3.3731772 0.8902443,-3.3884484 0.8798379,-3.403502 0.8798379,-3.403502 0.8668145,-3.4152985 0.8535089,-3.4265224 0.8396386,-3.4366009 0.8249215,-3.4449616 0.8091989,-3.4512827 0.792673,-3.4559745 0.7756117,-3.4595801 0.7582827,-3.4626425 0.7517342,-3.3852892z" transform="matrix(1,0,0,-1,3.529262,3.65)" fill="rgb(116,116,116)" fill-rule="nonzero" shaper:cutDepth="0.05cm" stroke-linecap="round" stroke-linejoin="round" /><path d="M-2.1707381,2 L-0.870738,2 -0.870738,2.7500001 -2.1707381,2.7500001 A0.3,0.3 90 0,1 -2.4707381,2.4500001 L-2.4707381,2.3 A0.3,0.3 180 0,1 -2.1707381,2z" transform="matrix(1,0,0,-1,3.529262,3.65)" fill="rgb(255,255,255)" stroke="rgb(0,0,0)" stroke-width="0.0010cm" stroke-linecap="round" stroke-linejoin="round" shaper:cutDepth="0.3cm" /><path d="M-1.520738,-3.25 a0.15,0.15 0 1,1 0.3,0 a0.15,0.15 0 1,1 -0.3,0z" transform="matrix(1,0,0,-1,3.529262,3.65)" fill="rgb(255,255,255)" stroke="rgb(0,0,0)" stroke-width="0.0010cm" stroke-linecap="round" stroke-linejoin="round" shaper:cutDepth="0.3cm" /><path d="M2.979262,3.25 a0.15,0.15 0 1,1 0.3,0 a0.15,0.15 0 1,1 -0.3,0z" transform="matrix(1,0,0,-1,3.529262,3.65)" fill="rgb(255,255,255)" stroke="rgb(0,0,0)" stroke-width="0.0010cm" stroke-linecap="round" stroke-linejoin="round" shaper:cutDepth="0.3cm" /><path d="M-1.520738,3.25 a0.15,0.15 0 1,1 0.3,0 a0.15,0.15 0 1,1 -0.3,0z" transform="matrix(1,0,0,-1,3.529262,3.65)" fill="rgb(255,255,255)" stroke="rgb(0,0,0)" stroke-width="0.0010cm" stroke-linecap="round" stroke-linejoin="round" shaper:cutDepth="0.3cm" /><path d="M2.979262,-3.25 a0.15,0.15 0 1,1 0.3,0 a0.15,0.15 0 1,1 -0.3,0z" transform="matrix(1,0,0,-1,3.529262,3.65)" fill="rgb(255,255,255)" stroke="rgb(0,0,0)" stroke-width="0.0010cm" stroke-linecap="round" stroke-linejoin="round" shaper:cutDepth="0.3cm" /><path d="M-2.5342727,1.25 L-2.5342727,-1.25 -2.2342727,-1.25 -2.2342727,1.25 -2.5342727,1.25z" transform="matrix(1,0,0,-1,3.529262,3.65)" fill="rgb(255,255,255)" stroke="rgb(0,0,0)" stroke-width="0.0010cm" stroke-linecap="round" stroke-linejoin="round" shaper:cutDepth="0.3cm" /><path d="M1.5250529,-2.2283511 a0.15,0.15 0 1,1 0.3,0 a0.15,0.15 0 1,1 -0.3,0z" transform="matrix(1,0,0,-1,3.529262,3.65)" fill="rgb(255,255,255)" stroke="rgb(0,0,0)" stroke-width="0.0010cm" stroke-linecap="round" stroke-linejoin="round" shaper:cutDepth="0.3cm" /><path d="M-1.1061145,1.1729897 a0.15,0.15 0 1,1 0.3,0 a0.15,0.15 0 1,1 -0.3,0z" transform="matrix(1,0,0,-1,3.529262,3.65)" fill="rgb(255,255,255)" stroke="rgb(0,0,0)" stroke-width="0.0010cm" stroke-linecap="round" stroke-linejoin="round" shaper:cutDepth="0.3cm" /><path d="M2.2773747,-0.3129087 a0.15,0.15 0 1,1 0.3,0 a0.15,0.15 0 1,1 -0.3,0z" transform="matrix(1,0,0,-1,3.529262,3.65)" fill="rgb(255,255,255)" stroke="rgb(0,0,0)" stroke-width="0.0010cm" stroke-linecap="round" stroke-linejoin="round" shaper:cutDepth="0.3cm" /><path d="M0.2005824,-0.6925677 a0.15,0.15 0 1,1 0.3,0 a0.15,0.15 0 1,1 -0.3,0z" transform="matrix(1,0,0,-1,3.529262,3.65)" fill="rgb(255,255,255)" stroke="rgb(0,0,0)" stroke-width="0.0010cm" stroke-linecap="round" stroke-linejoin="round" shaper:cutDepth="0.3cm" /><path d="M-1.5576857,-2.4415799 a0.15,0.15 0 1,1 0.3,0 a0.15,0.15 0 1,1 -0.3,0z" transform="matrix(1,0,0,-1,3.529262,3.65)" fill="rgb(255,255,255)" stroke="rgb(0,0,0)" stroke-width="0.0010cm" stroke-linecap="round" stroke-linejoin="round" shaper:cutDepth="0.3cm" /></svg>