<?xml version="1.0" encoding="utf-8"?>
<!-- Generator: Fusion 360, Shaper Origin Export Add-In, Version 1.7.0  -->
<svg xmlns="http://www.w3.org/2000/svg" xmlns:xlink="http://www.w3.org/1999/xlink" xmlns:shaper="http://www.shapertools.com/namespaces/shaper" shaper:fusionaddin="version:1.7.0" width="7.058524cm" height="7.3cm" version="1.1" x="0cm" y="0cm" viewBox="0 0 7.058524 7.3" enable-background="new 0 0 7.058524 7.3" xml:space="preserve"><path d="M-3.529262,-2.0046781 L-1.8572407,-3.5690658 A0.3,0.3 226.9047902 0,1 -1.6522768,-3.65 L3.229262,-3.65 A0.3,0.3 270 0,1 3.529262,-3.35 L3.529262,-2.7885309 3.229262,-2.7885309 3.229262,-0.7885309 3.529262,-0.7885309 3.529262,3.35 A0.3,0.3 0 0,1 3.229262,3.65 L-1.6522768,3.65 A0.3,0.3 90 0,1 -1.8572407,3.5690658 L-3.529262,2.0046781 -3.529262,1.65 -3.2342727,1.65 -3.2342727,-1.65 -3.529262,-1.65 -3.529262,-2.0046781z" transform="matrix(1,0,0,-1,3.529262,3.65)" fill="rgb(0,0,0)" shaper:cutDepth="0.3cm" stroke-linecap="round" stroke-linejoin="round" /><path d="M-1.3873178,-2.1890626 L-1.3873178,-2.1890626 -1.3715596,-2.1857036 -1.3639392,-2.1834932 -1.3566293,-2.1806455 -1.3497219,-2.176972 -1.3431786,-2.1725511 -1.3307011,-2.1624596 -1.3307011,-2.1624596 -1.3226101,-2.1511453 -1.3191408,-2.1452696 -1.3163629,-2.1391316 -1.3144194,-2.132677 -1.3131507,-2.1259664 -1.3117379,-2.1121185 -1.3117379,-2.1121185 -1.3138794,-2.0950957 -1.3157283,-2.0869296 -1.3185111,-2.0791779 -1.3224275,-2.0719292 -1.3272655,-2.0650894 -1.3384774,-2.0520913 -1.3384774,-2.0520913 -1.3545081,-2.0411902 -1.3628264,-2.0365858 -1.3715077,-2.0329955 -1.3806052,-2.030568 -1.3900286,-2.029051 -1.4094187,-2.0275347 -1.4094187,-2.0275347 -1.4276519,-2.028951 -1.4364974,-2.0303924 -1.4450177,-2.0327137 -1.4531212,-2.0361627 -1.4608585,-2.0406026 -1.4757216,-2.0511363 -1.4757216,-2.0511363 -1.4862955,-2.0647799 -1.4907951,-2.0719176 -1.4943502,-2.0794342 -1.4967939,-2.0873967 -1.4983548,-2.0957134 -1.5000054,-2.1129371 -1.5000054,-2.1129371 -1.4992302,-2.124135 -1.4974236,-2.1350703 -1.4938633,-2.1455594 -1.4892277,-2.1557748 -1.4892277,-2.1557748 -1.4835182,-2.1644789 -1.4771189,-2.172537 -1.4695482,-2.1794984 -1.4612605,-2.1857884 -1.4672632,-2.2319003 -1.6727202,-2.1931554 -1.6727202,-1.9942468 -1.6257898,-1.9942468 -1.6257898,-2.1538648 -1.5182864,-2.17542 -1.5182864,-2.17542 -1.528608,-2.1578493 -1.5330926,-2.1488426 -1.5367658,-2.1395704 -1.5394223,-2.1299654 -1.5412211,-2.1200797 -1.5433887,-2.0998403 -1.5433887,-2.0998403 -1.5406274,-2.0751382 -1.5381764,-2.0632283 -1.5344408,-2.0518479 -1.5291247,-2.0411188 -1.5225064,-2.0309265 -1.5070995,-2.0114364 -1.5070995,-2.0114364 -1.4863774,-1.9958029 -1.4755618,-1.9891423 -1.4642008,-1.9838687 -1.4521953,-1.980234 -1.4396767,-1.9779044 -1.4137843,-1.9754201 -1.4137843,-1.9754201 -1.3884041,-1.9777149 -1.376036,-1.9798071 -1.3640544,-1.983033 -1.3525535,-1.987669 -1.3414539,-1.9934823 -1.3199235,-2.0070708 -1.3199235,-2.0070708 -1.3091745,-2.0180102 -1.2990315,-2.0292334 -1.2901003,-2.0410244 -1.2829867,-2.0536669 -1.2780453,-2.067327 -1.274847,-2.0818038 -1.272811,-2.0968251 -1.271356,-2.1121185 -1.271356,-2.1121185 -1.2733173,-2.1363936 -1.275235,-2.1482006 -1.2782771,-2.1596107 -1.2827477,-2.1705169 -1.2884514,-2.180988 -1.3019153,-2.2012045 -1.3019153,-2.2012045 -1.319468,-2.2165514 -1.3287149,-2.2232705 -1.3385263,-2.2288443 -1.349008,-2.2330583 -1.3600252,-2.2361862 -1.3829521,-2.2406315 -1.3873178,-2.1890626z" transform="matrix(1,0,0,-1,3.529262,3.65)" fill="rgb(116,116,116)" fill-rule="nonzero" shaper:cutDepth="0.05cm" stroke-linecap="round" stroke-linejoin="round" /><path d="M2.6830184,1.733567 L2.6830184,1.5600336 2.637998,1.5600336 2.3787892,1.7425711 2.3787892,1.7826802 2.637998,1.7826802 2.637998,1.8367048 2.6830184,1.8367048 2.6830184,1.7826802 2.7787892,1.7826802 2.7787892,1.733567 2.6830184,1.733567z M2.4576432,1.733567 L2.637998,1.6083283 2.637998,1.733567 2.4576432,1.733567z" transform="matrix(1,0,0,-1,3.529262,3.65)" fill="rgb(116,116,116)" fill-rule="nonzero" shaper:cutDepth="0.05cm" stroke-linecap="round" stroke-linejoin="round" /><path d="M-0.40786,1.6460853 L-0.40786,1.6460853 -0.39125,1.6501515 -0.3831927,1.6526788 -0.3754326,1.655799 -0.3680631,1.6596985 -0.3610655,1.6643397 -0.3476963,1.6748711 -0.3476963,1.6748711 -0.3398008,1.6860153 -0.3364212,1.6918009 -0.3337235,1.6978426 -0.3318438,1.7041916 -0.3306229,1.7107881 -0.3292788,1.7243936 -0.3292788,1.7243936 -0.3311083,1.740744 -0.332731,1.7486276 -0.3352034,1.7561612 -0.3387208,1.7632645 -0.3430989,1.7700134 -0.3532897,1.7829202 -0.3532897,1.7829202 -0.3664507,1.7931149 -0.3733254,1.7974849 -0.3805531,1.8009822 -0.3882064,1.8034273 -0.3962036,1.8050222 -0.4127713,1.8067947 -0.4127713,1.8067947 -0.4283079,1.8052206 -0.43581,1.8037711 -0.4429929,1.8015266 -0.4497772,1.7982897 -0.456227,1.7942203 -0.4685694,1.7846937 -0.4685694,1.7846937 -0.4780567,1.7722276 -0.4821063,1.7657191 -0.4853229,1.7588801 -0.4875494,1.7516482 -0.4889841,1.7441022 -0.4905339,1.7284864 -0.4905339,1.7284864 -0.4888826,1.7109981 -0.4850769,1.6938343 -0.5281874,1.6992913 -0.5281874,1.6992913 -0.5276417,1.707204 -0.5276417,1.707204 -0.5288611,1.7221626 -0.5299563,1.7295002 -0.531634,1.7366678 -0.5340322,1.7436251 -0.5370274,1.7504083 -0.5440128,1.7636842 -0.5440128,1.7636842 -0.5542301,1.7746655 -0.5597603,1.7793302 -0.5657963,1.7830042 -0.5724237,1.7855195 -0.5795192,1.7871179 -0.5944903,1.7887865 -0.5944903,1.7887865 -0.6070109,1.7874486 -0.6130466,1.7862352 -0.6188127,1.7843684 -0.6242441,1.7816906 -0.6293969,1.7783374 -0.6392379,1.7705055 -0.6392379,1.7705055 -0.6469716,1.7599716 -0.6502608,1.7544828 -0.6528571,1.7487281 -0.6546394,1.7426608 -0.655776,1.7363457 -0.6569732,1.7233022 -0.6569732,1.7233022 -0.6556971,1.7101305 -0.6545187,1.7037515 -0.6526917,1.6976206 -0.6500543,1.6917998 -0.6467361,1.6862395 -0.638965,1.6755532 -0.638965,1.6755532 -0.626964,1.6662293 -0.6206886,1.6621491 -0.6140847,1.6587639 -0.6071212,1.6561395 -0.5998813,1.6541001 -0.5849405,1.6509966 -0.5936717,1.6018834 -0.5936717,1.6018834 -0.6153056,1.6075363 -0.6257108,1.611117 -0.6356217,1.6156027 -0.6449037,1.6212403 -0.6536409,1.6278758 -0.6702065,1.6428111 -0.6702065,1.6428111 -0.6820309,1.6609033 -0.6870622,1.6702568 -0.6910367,1.6799791 -0.693768,1.6901351 -0.6955121,1.7006356 -0.6973552,1.7222108 -0.6973552,1.7222108 -0.6963194,1.7378677 -0.6939467,1.7532106 -0.6893135,1.7680225 -0.6833034,1.7825109 -0.6833034,1.7825109 -0.6757725,1.7949293 -0.6671402,1.8063394 -0.6566309,1.8160311 -0.6449677,1.8246665 -0.6449677,1.8246665 -0.6327661,1.8307684 -0.6201905,1.8355421 -0.6069854,1.8380805 -0.5933988,1.839264 -0.5933988,1.839264 -0.5808847,1.838198 -0.5687582,1.8358208 -0.5572811,1.831247 -0.5461956,1.8253486 -0.5461956,1.8253486 -0.5356966,1.8167458 -0.5263481,1.8071861 -0.5188283,1.7961053 -0.512362,1.7841481 -0.512362,1.7841481 -0.5072383,1.80003 -0.5041149,1.8076204 -0.5003178,1.8147903 -0.4956738,1.8214315 -0.490312,1.8276246 -0.478392,1.839264 -0.478392,1.839264 -0.4634371,1.8479334 -0.4557514,1.8516038 -0.4478162,1.8544774 -0.4395925,1.8564301 -0.4311419,1.8576587 -0.4138627,1.8589093 -0.4138627,1.8589093 -0.3888495,1.8559009 -0.3768226,1.8532799 -0.3653713,1.8493189 -0.3546221,1.8437235 -0.3444462,1.8367937 -0.3250496,1.8207101 -0.3250496,1.8207101 -0.3092748,1.7991204 -0.3025481,1.7878804 -0.2972141,1.7761062 -0.2935305,1.763699 -0.2911635,1.7507868 -0.288624,1.7241208 -0.288624,1.7241208 -0.290772,1.7001747 -0.2927951,1.6885488 -0.295957,1.6773396 -0.300551,1.6666542 -0.3063597,1.6564132 -0.3200019,1.6366719 -0.3200019,1.6366719 -0.3376563,1.621323 -0.3469456,1.6145862 -0.3567893,1.6089744 -0.3672971,1.6047101 -0.3783387,1.601529 -0.4013115,1.5969721 -0.40786,1.6460853z" transform="matrix(1,0,0,-1,3.529262,3.65)" fill="rgb(116,116,116)" fill-rule="nonzero" shaper:cutDepth="0.05cm" stroke-linecap="round" stroke-linejoin="round" /><path d="M0.6371119,-0.4305278 L0.6371119,-0.4305278 0.6528701,-0.4271689 0.6604905,-0.4249584 0.6678003,-0.4221107 0.6747078,-0.4184372 0.6812511,-0.4140164 0.6937286,-0.4039248 0.6937286,-0.4039248 0.7018195,-0.3926105 0.7052888,-0.3867348 0.7080667,-0.3805968 0.7100102,-0.3741422 0.711279,-0.3674316 0.7126917,-0.3535838 0.7126917,-0.3535838 0.7105503,-0.336561 0.7087014,-0.3283949 0.7059186,-0.3206431 0.7020022,-0.3133944 0.6971642,-0.3065546 0.6859523,-0.2935565 0.6859523,-0.2935565 0.6699215,-0.2826554 0.6616033,-0.278051 0.652922,-0.2744607 0.6438245,-0.2720332 0.6344011,-0.2705162 0.615011,-0.2689999 0.615011,-0.2689999 0.5967778,-0.2704162 0.5879323,-0.2718576 0.579412,-0.2741789 0.5713085,-0.2776279 0.5635712,-0.2820678 0.5487081,-0.2926015 0.5487081,-0.2926015 0.5381342,-0.3062451 0.5336346,-0.3133828 0.5300795,-0.3208994 0.5276358,-0.3288619 0.5260749,-0.3371786 0.5244243,-0.3544023 0.5244243,-0.3544023 0.5251995,-0.3656002 0.527006,-0.3765355 0.5305664,-0.3870246 0.5352019,-0.39724 0.5352019,-0.39724 0.5409115,-0.4059441 0.5473108,-0.4140023 0.5548815,-0.4209637 0.5631692,-0.4272536 0.5571665,-0.4733655 0.3517095,-0.4346206 0.3517095,-0.235712 0.3986399,-0.235712 0.3986399,-0.39533 0.5061433,-0.4168853 0.5061433,-0.4168853 0.4958217,-0.3993145 0.4913371,-0.3903079 0.4876638,-0.3810356 0.4850074,-0.3714306 0.4832086,-0.3615449 0.481041,-0.3413055 0.481041,-0.3413055 0.4838023,-0.3166034 0.4862533,-0.3046935 0.4899889,-0.2933131 0.495305,-0.282584 0.5019233,-0.2723917 0.5173302,-0.2529016 0.5173302,-0.2529016 0.5380522,-0.2372681 0.5488679,-0.2306075 0.5602289,-0.2253339 0.5722344,-0.2216993 0.5847529,-0.2193696 0.6106453,-0.2168853 0.6106453,-0.2168853 0.6360256,-0.2191801 0.6483937,-0.2212723 0.6603753,-0.2244982 0.6718762,-0.2291343 0.6829758,-0.2349475 0.7045062,-0.248536 0.7045062,-0.248536 0.7152551,-0.2594754 0.7253982,-0.2706986 0.7343294,-0.2824896 0.741443,-0.2951321 0.7463844,-0.3087922 0.7495826,-0.323269 0.7516187,-0.3382903 0.7530737,-0.3535838 0.7530737,-0.3535838 0.7511124,-0.3778588 0.7491947,-0.3896658 0.7461526,-0.401076 0.741682,-0.4119821 0.7359783,-0.4224532 0.7225143,-0.4426697 0.7225143,-0.4426697 0.7049617,-0.4580167 0.6957148,-0.4647357 0.6859034,-0.4703095 0.6754217,-0.4745236 0.6644044,-0.4776514 0.6414775,-0.4820967 0.6371119,-0.4305278z" transform="matrix(1,0,0,-1,3.529262,3.65)" fill="rgb(116,116,116)" fill-rule="nonzero" shaper:cutDepth="0.05cm" stroke-linecap="round" stroke-linejoin="round" /><path d="M2.8114145,-0.2713797 L2.8114145,-0.5357726 2.8114145,-0.5357726 2.8026897,-0.5355176 2.7940727,-0.5346218 2.7856361,-0.5326547 2.7773081,-0.5300427 2.7773081,-0.5300427 2.7630352,-0.523572 2.7493102,-0.5161918 2.7364556,-0.5073668 2.7241021,-0.4977098 2.7241021,-0.4977098 2.7079705,-0.4825866 2.6924273,-0.4669033 2.677743,-0.4504022 2.6635291,-0.4334533 2.6635291,-0.4334533 2.643946,-0.4098527 2.6235876,-0.3870133 2.6017561,-0.3656201 2.5788088,-0.3453224 2.5788088,-0.3453224 2.5652262,-0.336404 2.5582446,-0.3324569 2.5510344,-0.3291242 2.5435272,-0.3265907 2.5357484,-0.3247872 2.5197364,-0.3224029 2.5197364,-0.3224029 2.505895,-0.3240186 2.4992344,-0.3254394 2.4928861,-0.3275959 2.4869203,-0.3306535 2.4812681,-0.3344504 2.4704868,-0.343276 2.4704868,-0.343276 2.4616945,-0.3554568 2.4579627,-0.3617982 2.4550279,-0.3684407 2.4530224,-0.3754343 2.4517511,-0.3827054 2.4504322,-0.3977098 2.4504322,-0.3977098 2.4518009,-0.4134229 2.4531375,-0.4210278 2.4552569,-0.4283306 2.4583705,-0.4352499 2.4623417,-0.4418382 2.4717146,-0.4544629 2.4717146,-0.4544629 2.4848679,-0.4640095 2.4917273,-0.4680392 2.4989253,-0.4711782 2.5065073,-0.4733068 2.5143888,-0.474648 2.5306505,-0.4760182 2.5254663,-0.5264956 2.5254663,-0.5264956 2.5012699,-0.5224493 2.4896079,-0.5194954 2.4784694,-0.5154246 2.4680034,-0.5099187 2.458132,-0.5031444 2.4393818,-0.4874779 2.4393818,-0.4874779 2.4261046,-0.4667566 2.4205191,-0.4560386 2.4161951,-0.4448927 2.4132967,-0.4332631 2.4115074,-0.4212573 2.4097774,-0.3966184 2.4097774,-0.3966184 2.4116903,-0.3716281 2.4136389,-0.3594938 2.4167779,-0.3477925 2.4214429,-0.3366463 2.4274492,-0.3259881 2.441701,-0.3054861 2.441701,-0.3054861 2.4589984,-0.2912573 2.4680722,-0.285142 2.4776562,-0.2802256 2.4878603,-0.2767667 2.4985691,-0.2744939 2.5208279,-0.2719254 2.5208279,-0.2719254 2.5329704,-0.2727286 2.5449248,-0.2744413 2.5565697,-0.277651 2.5680311,-0.281748 2.5680311,-0.281748 2.5811553,-0.2885114 2.5937502,-0.2960785 2.6055374,-0.3048721 2.6168715,-0.3143538 2.6168715,-0.3143538 2.6353502,-0.3324558 2.653281,-0.3510728 2.6872671,-0.39007 2.6872671,-0.39007 2.7118273,-0.4189942 2.7376082,-0.4468231 2.7376082,-0.4468231 2.7503686,-0.4578885 2.7642112,-0.4675597 2.7642112,-0.2713797 2.8114145,-0.2713797z" transform="matrix(1,0,0,-1,3.529262,3.65)" fill="rgb(116,116,116)" fill-rule="nonzero" shaper:cutDepth="0.05cm" stroke-linecap="round" stroke-linejoin="round" /><path d="M0.7613496,-3.1904545 L0.7613496,-3.4507546 0.6938189,-3.4507546 0.3050057,-3.1769483 0.3050057,-3.1167846 0.6938189,-3.1167846 0.6938189,-3.0357478 0.7613496,-3.0357478 0.7613496,-3.1167846 0.9050058,-3.1167846 0.9050058,-3.1904545 0.7613496,-3.1904545z M0.4232868,-3.1904545 L0.6938189,-3.3783126 0.6938189,-3.1904545 0.4232868,-3.1904545z" transform="matrix(1,0,0,-1,3.529262,3.65)" fill="rgb(116,116,116)" fill-rule="nonzero" shaper:cutDepth="0.05cm" stroke-linecap="round" stroke-linejoin="round" /><path d="M2.1787892,1.3671959 a0.15,0.15 0 1,1 0.3,0 a0.15,0.15 0 1,1 -0.3,0z" transform="matrix(1,0,0,-1,3.529262,3.65)" fill="rgb(255,255,255)" stroke="rgb(0,0,0)" stroke-width="0.0010cm" stroke-linecap="round" stroke-linejoin="round" shaper:cutDepth="0.3cm" /><path d="M0.1489809,-0.6887134 a0.15,0.15 0 1,1 0.3,0 a0.15,0.15 0 1,1 -0.3,0z" transform="matrix(1,0,0,-1,3.529262,3.65)" fill="rgb(255,255,255)" stroke="rgb(0,0,0)" stroke-width="0.0010cm" stroke-linecap="round" stroke-linejoin="round" shaper:cutDepth="0.3cm" /><path d="M-1.8754487,-2.4472482 a0.15,0.15 0 1,1 0.3,0 a0.15,0.15 0 1,1 -0.3,0z" transform="matrix(1,0,0,-1,3.529262,3.65)" fill="rgb(255,255,255)" stroke="rgb(0,0,0)" stroke-width="0.0010cm" stroke-linecap="round" stroke-linejoin="round" shaper:cutDepth="0.3cm" /><path d="M-0.8957181,1.3885819 a0.15,0.15 0 1,1 0.3,0 a0.15,0.15 0 1,1 -0.3,0z" transform="matrix(1,0,0,-1,3.529262,3.65)" fill="rgb(255,255,255)" stroke="rgb(0,0,0)" stroke-width="0.0010cm" stroke-linecap="round" stroke-linejoin="round" shaper:cutDepth="0.3cm" /><path d="M2.2114145,-0.7396607 a0.15,0.15 0 1,1 0.3,0 a0.15,0.15 0 1,1 -0.3,0z" transform="matrix(1,0,0,-1,3.529262,3.65)" fill="rgb(255,255,255)" stroke="rgb(0,0,0)" stroke-width="0.0010cm" stroke-linecap="round" stroke-linejoin="round" shaper:cutDepth="0.3cm" /><path d="M-2.5342727,1.25 L-2.5342727,-1.25 -2.2342727,-1.25 -2.2342727,1.25 -2.5342727,1.25z" transform="matrix(1,0,0,-1,3.529262,3.65)" fill="rgb(255,255,255)" stroke="rgb(0,0,0)" stroke-width="0.0010cm" stroke-linecap="round" stroke-linejoin="round" shaper:cutDepth="0.3cm" /><path d="M2.979262,-3.25 a0.15,0.15 0 1,1 0.3,0 a0.15,0.15 0 1,1 -0.3,0z" transform="matrix(1,0,0,-1,3.529262,3.65)" fill="rgb(255,255,255)" stroke="rgb(0,0,0)" stroke-width="0.0010cm" stroke-linecap="round" stroke-linejoin="round" shaper:cutDepth="0.3cm" /><path d="M-1.520738,3.25 a0.15,0.15 0 1,1 0.3,0 a0.15,0.15 0 1,1 -0.3,0z" transform="matrix(1,0,0,-1,3.529262,3.65)" fill="rgb(255,255,255)" stroke="rgb(0,0,0)" stroke-width="0.0010cm" stroke-linecap="round" stroke-linejoin="round" shaper:cutDepth="0.3cm" /><path d="M2.979262,3.25 a0.15,0.15 0 1,1 0.3,0 a0.15,0.15 0 1,1 -0.3,0z" transform="matrix(1,0,0,-1,3.529262,3.65)" fill="rgb(255,255,255)" stroke="rgb(0,0,0)" stroke-width="0.0010cm" stroke-linecap="round" stroke-linejoin="round" shaper:cutDepth="0.3cm" /><path d="M-1.520738,-3.25 a0.15,0.15 0 1,1 0.3,0 a0.15,0.15 0 1,1 -0.3,0z" transform="matrix(1,0,0,-1,3.529262,3.65)" fill="rgb(255,255,255)" stroke="rgb(0,0,0)" stroke-width="0.0010cm" stroke-linecap="round" stroke-linejoin="round" shaper:cutDepth="0.3cm" /><path d="M-2.1707381,2 L-0.870738,2 -0.870738,2.7500001 -2.1707381,2.7500001 A0.3,0.3 90 0,1 -2.4707381,2.4500001 L-2.4707381,2.3 A0.3,0.3 180 0,1 -2.1707381,2z" transform="matrix(1,0,0,-1,3.529262,3.65)" fill="rgb(255,255,255)" stroke="rgb(0,0,0)" stroke-width="0.0010cm" stroke-linecap="round" stroke-linejoin="round" shaper:cutDepth="0.3cm" /></svg>