<?xml version="1.0" encoding="UTF-8"?>
<svg id="Layer_1" data-name="Layer 1" xmlns="http://www.w3.org/2000/svg" xmlns:shaper="http://www.shapertools.com/namespaces/shaper" version="1.1" viewBox="0 0 200.23 206.93">
  <defs>
    <style>
      .cls-1 {
        fill: #747474;
      }

      .cls-1, .cls-2 {
        stroke-width: 0px;
      }

      .cls-3 {
        fill: #fff;
        stroke: #000;
        stroke-linecap: round;
        stroke-linejoin: round;
        stroke-width: .8px;
      }

      .cls-2 {
        fill: #000;
      }
    </style>
  </defs>
  <g>
    <path class="cls-2" d="M0,151.65v8.5l47.54,44.48c1.58,1.47,3.65,2.29,5.81,2.29h138.37c4.7,0,8.5-3.81,8.5-8.5h0v-15.92h-8.5v-56.69h8.5V8.5C200.23,3.81,196.42,0,191.72,0H53.35C51.19,0,49.11.82,47.54,2.29L0,46.77v8.5" shaper:cutDepth="0.3cm"/>
    <path class="cls-3" d="M150.6,159.01c0,2.35,1.9,4.25,4.25,4.25s4.25-1.9,4.25-4.25h0c0-2.35-1.9-4.26-4.25-4.26-2.35,0-4.25,1.9-4.25,4.25h0Z" shaper:cutDepth="0.3cm"/>
    <path class="cls-3" d="M110.96,51.78c0,2.35,1.9,4.25,4.25,4.25s4.25-1.9,4.25-4.25-1.9-4.25-4.25-4.25-4.25,1.9-4.25,4.25h0Z" shaper:cutDepth="0.3cm"/>
    <path class="cls-3" d="M50.43,104.72c0,2.35,1.9,4.25,4.25,4.25s4.25-1.9,4.25-4.25c0-2.35-1.9-4.25-4.25-4.25-2.35,0-4.25,1.9-4.25,4.25,0,0,0,0,0,0Z" shaper:cutDepth="0.3cm"/>
    <path class="cls-3" d="M127.87,106.97c0,2.35,1.9,4.25,4.25,4.25s4.25-1.9,4.25-4.25-1.9-4.25-4.25-4.25-4.25,1.9-4.25,4.25Z" shaper:cutDepth="0.3cm"/>
    <path class="cls-3" d="M88.22,151.54c0,2.35,1.9,4.25,4.25,4.25s4.25-1.9,4.25-4.25h0c0-2.35-1.9-4.25-4.25-4.25s-4.25,1.9-4.25,4.25Z" shaper:cutDepth="0.3cm"/>
    <path class="cls-3" d="M28.35,68.03v70.87h8.5v-70.87h-8.5Z" shaper:cutDepth="0.3cm"/>
    <path class="cls-3" d="M184.64,195.59c0,2.35,1.9,4.25,4.25,4.25,2.35,0,4.25-1.9,4.25-4.25h0c0-2.35-1.9-4.26-4.25-4.26-2.35,0-4.25,1.9-4.25,4.25h0Z" shaper:cutDepth="0.3cm"/>
    <path class="cls-3" d="M57.08,11.34c0,2.35,1.9,4.25,4.25,4.25s4.25-1.9,4.25-4.25h0c0-2.35-1.9-4.25-4.25-4.25-2.35,0-4.25,1.9-4.25,4.25,0,0,0,0,0,0Z" shaper:cutDepth="0.3cm"/>
    <path class="cls-3" d="M184.64,11.34c0,2.35,1.9,4.25,4.25,4.25,2.35,0,4.25-1.9,4.25-4.25h0c0-2.35-1.9-4.26-4.25-4.26-2.35,0-4.25,1.9-4.25,4.25h0Z" shaper:cutDepth="0.3cm"/>
    <path class="cls-3" d="M57.08,195.59c0,2.35,1.9,4.25,4.25,4.25s4.25-1.9,4.25-4.25c0-2.35-1.9-4.25-4.25-4.25-2.35,0-4.25,1.9-4.25,4.25,0,0,0,0,0,0Z" shaper:cutDepth="0.3cm"/>
    <path class="cls-3" d="M38.65,46.77h36.85v-21.26h-36.85c-4.7,0-8.5,3.81-8.5,8.5v4.25c0,4.7,3.81,8.5,8.5,8.5Z" shaper:cutDepth="0.3cm"/>
  </g>
  <g>
    <path class="cls-1" d="M126.42,184.76h-13.31l.4.47.38.48.34.51.32.52h0l.3.53.29.54.26.56.24.57h-2.02l-.42-.82-.22-.4-.24-.39-.26-.38-.27-.37-.58-.72h0l-.51-.54-.26-.26-.28-.24-.29-.22-.3-.21-.63-.39v-1.35h17.08v2.09Z" shaper:cutDepth="0.05cm"/>
    <path class="cls-1" d="M121.65,201.65h0l.71-.17.34-.11.33-.13.31-.17.3-.2.57-.45h0l.34-.47.14-.25.11-.26.08-.27.05-.28.06-.58h0l-.08-.7-.07-.34-.11-.32-.15-.3-.19-.29-.43-.55h0l-.56-.43-.29-.19-.31-.15-.33-.1-.34-.07-.7-.08h0l-.66.07-.32.06-.31.1-.29.14-.27.17-.52.41h0l-.4.53-.17.28-.14.29-.09.31-.06.32-.07.66h0l.03.37.04.37.16.73-1.83-.23h0l.02-.34h0l-.05-.64-.05-.31-.07-.3-.1-.3-.13-.29-.3-.56h0l-.43-.47-.24-.2-.26-.16-.28-.11-.3-.07-.64-.07h0l-.53.06-.26.05-.25.08-.23.11-.22.14-.42.33h0l-.33.45-.14.23-.11.24-.08.26-.05.27-.05.55h0l.05.56.05.27.08.26.11.25.14.24.33.45h0l.51.4.27.17.28.14.3.11.31.09.64.13-.37,2.09h0l-.92-.24-.44-.15-.42-.19-.39-.24-.37-.28-.7-.64h0l-.5-.77-.21-.4-.17-.41-.12-.43-.07-.45-.08-.92h0l.04-.67.04-.33.06-.32.09-.32.11-.31.26-.62h0l.32-.53.17-.25.19-.23.21-.21.23-.2.5-.37h0l.52-.26.26-.11.27-.09.28-.06.28-.04.58-.05h0l.53.05.26.04.25.06.25.09.24.11.47.25h0l.45.37.21.2.19.21.17.23.15.24.27.51h0l.22-.68.13-.32.16-.3.2-.28.23-.26.51-.49h0l.64-.37.33-.16.34-.12.35-.08.36-.05.73-.05h0l.54.05.53.07.51.11.25.08.24.09.23.11.22.13.43.29.42.33.41.35h0l.35.46.33.46.29.48.12.25.1.25.09.26.07.27.1.55.06.56.04.57h0l-.04.51-.05.51-.09.49-.13.48-.2.45-.25.44-.28.42-.3.42h0l-.37.33-.38.32-.39.29-.42.24-.45.18-.47.14-.48.1-.49.09-.28-2.09Z" shaper:cutDepth="0.05cm"/>
    <path class="cls-1" d="M144.87,93.69v7.49h-.25s-.24-.03-.24-.03l-.24-.06-.24-.07h0l-.4-.18-.39-.21-.36-.25-.35-.27h0l-.46-.43-.44-.44-.42-.47-.4-.48h0l-.56-.67-.58-.65-.62-.61-.65-.58h0l-.39-.25-.2-.11-.2-.09-.21-.07-.22-.05-.45-.07h0l-.39.05-.19.04-.18.06-.17.09-.16.11-.31.25h0l-.25.35-.11.18-.08.19-.06.2-.04.21-.04.43h0l.04.45.04.22.06.21.09.2.11.19.27.36h0l.37.27.19.11.2.09.21.06.22.04.46.04-.15,1.43h0l-.69-.11-.33-.08-.32-.12-.3-.16-.28-.19-.53-.44h0l-.38-.59-.16-.3-.12-.32-.08-.33-.05-.34-.05-.7h0l.05-.71.06-.34.09-.33.13-.32.17-.3.4-.58h0l.49-.4.26-.17.27-.14.29-.1.3-.06.63-.07h0l.34.02.34.05.33.09.32.12h0l.37.19.36.21.33.25.32.27h0l.52.51.51.53.96,1.11h0l.7.82.73.79h0l.36.31.39.27v-5.56h1.34Z" shaper:cutDepth="0.05cm"/>
    <path class="cls-1" d="M164.89,148.62v4.92h-1.28l-7.35-5.17v-1.14h7.35v-1.53h1.28v1.53h2.71v1.39h-2.71ZM158.5,148.62l5.11,3.55v-3.55h-5.11Z" shaper:cutDepth="0.05cm"/>
    <path class="cls-1" d="M64.73,94.34v4.92h-1.28l-7.35-5.17v-1.14h7.35v-1.53h1.28v1.53h2.71v1.39h-2.71ZM58.34,94.34l5.11,3.55v-3.55h-5.11Z" shaper:cutDepth="0.05cm"/>
    <path class="cls-1" d="M125.26,41.39v4.92h-1.28l-7.35-5.17v-1.14h7.35v-1.53h1.28v1.53h2.71v1.39h-2.71ZM118.87,41.39l5.11,3.55v-3.55h-5.11Z" shaper:cutDepth="0.05cm"/>
    <path class="cls-1" d="M105.23,138.26v7.49h-.25s-.24-.03-.24-.03l-.24-.06-.24-.07h0l-.4-.18-.39-.21-.36-.25-.35-.27h0l-.46-.43-.44-.44-.42-.47-.4-.48h0l-.56-.67-.58-.65-.62-.61-.65-.58h0l-.39-.25-.2-.11-.2-.09-.21-.07-.22-.05-.45-.07h0l-.39.05-.19.04-.18.06-.17.09-.16.11-.31.25h0l-.25.35-.11.18-.08.19-.06.2-.04.21-.04.43h0l.04.45.04.22.06.21.09.2.11.19.27.36h0l.37.27.19.11.2.09.21.06.22.04.46.04-.15,1.43h0l-.69-.11-.33-.08-.32-.12-.3-.16-.28-.19-.53-.44h0l-.38-.59-.16-.3-.12-.32-.08-.33-.05-.34-.05-.7h0l.05-.71.06-.34.09-.33.13-.32.17-.3.4-.58h0l.49-.4.26-.17.27-.14.29-.1.3-.06.63-.07h0l.34.02.34.05.33.09.32.12h0l.37.19.36.21.33.25.32.27h0l.52.51.51.53.96,1.11h0l.7.82.73.79h0l.36.31.39.27v-5.56h1.34Z" shaper:cutDepth="0.05cm"/>
  </g>
</svg>