<?xml version="1.0" encoding="utf-8"?>
<!-- Generator: Fusion 360, Shaper Origin Export Add-In, Version 1.7.0  -->
<svg xmlns="http://www.w3.org/2000/svg" xmlns:xlink="http://www.w3.org/1999/xlink" xmlns:shaper="http://www.shapertools.com/namespaces/shaper" shaper:fusionaddin="version:1.7.0" width="7.058524cm" height="7.3cm" version="1.1" x="0cm" y="0cm" viewBox="0 0 7.058524 7.3" enable-background="new 0 0 7.058524 7.3" xml:space="preserve"><path d="M-3.529262,-2.0046781 L-1.8572407,-3.5690658 A0.3,0.3 226.9047902 0,1 -1.6522768,-3.65 L3.229262,-3.65 A0.3,0.3 270 0,1 3.529262,-3.35 L3.529262,-2.7885309 3.229262,-2.7885309 3.229262,-0.7885309 3.529262,-0.7885309 3.529262,3.35 A0.3,0.3 0 0,1 3.229262,3.65 L-1.6522768,3.65 A0.3,0.3 90 0,1 -1.8572407,3.5690658 L-3.529262,2.0046781 -3.529262,1.65 -3.2342727,1.65 -3.2342727,-1.65 -3.529262,-1.65 -3.529262,-2.0046781z" transform="matrix(1,0,0,-1,3.529262,3.65)" fill="rgb(0,0,0)" shaper:cutDepth="0.3cm" stroke-linecap="round" stroke-linejoin="round" /><path d="M1.3185703,-0.57748 L1.3185703,-0.57748 1.3351804,-0.5734138 1.3432377,-0.5708866 1.3509977,-0.5677663 1.3583672,-0.5638669 1.3653648,-0.5592256 1.378734,-0.5486942 1.378734,-0.5486942 1.3866295,-0.53755 1.3900091,-0.5317645 1.3927069,-0.5257228 1.3945865,-0.5193737 1.3958074,-0.5127772 1.3971515,-0.4991717 1.3971515,-0.4991717 1.3953221,-0.4828214 1.3936993,-0.4749378 1.3912269,-0.4674041 1.3877095,-0.4603008 1.3833314,-0.453552 1.3731406,-0.4406451 1.3731406,-0.4406451 1.3599796,-0.4304505 1.353105,-0.4260804 1.3458773,-0.4225831 1.338224,-0.420138 1.3302267,-0.4185432 1.313659,-0.4167706 1.313659,-0.4167706 1.2981225,-0.4183447 1.2906203,-0.4197942 1.2834374,-0.4220387 1.2766532,-0.4252756 1.2702033,-0.429345 1.2578609,-0.4388716 1.2578609,-0.4388716 1.2483736,-0.4513377 1.2443241,-0.4578462 1.2411074,-0.4646852 1.2388809,-0.4719171 1.2374462,-0.4794632 1.2358964,-0.4950789 1.2358964,-0.4950789 1.2375477,-0.5125672 1.2413534,-0.5297311 1.1982429,-0.524274 1.1982429,-0.524274 1.1987886,-0.5163614 1.1987886,-0.5163614 1.1975693,-0.5014028 1.1964741,-0.4940652 1.1947963,-0.4868976 1.1923981,-0.4799402 1.1894029,-0.4731571 1.1824176,-0.4598812 1.1824176,-0.4598812 1.1722002,-0.4488998 1.16667,-0.4442351 1.160634,-0.4405611 1.1540066,-0.4380458 1.1469111,-0.4364474 1.1319401,-0.4347788 1.1319401,-0.4347788 1.1194194,-0.4361168 1.1133837,-0.4373302 1.1076176,-0.4391969 1.1021862,-0.4418747 1.0970335,-0.4452279 1.0871924,-0.4530598 1.0871924,-0.4530598 1.0794587,-0.4635938 1.0761695,-0.4690825 1.0735733,-0.4748373 1.0717909,-0.4809045 1.0706543,-0.4872197 1.0694571,-0.5002631 1.0694571,-0.5002631 1.0707332,-0.5134348 1.0719117,-0.5198139 1.0737387,-0.5259448 1.076376,-0.5317655 1.0796942,-0.5373258 1.0874653,-0.5480121 1.0874653,-0.5480121 1.0994663,-0.557336 1.1057418,-0.5614162 1.1123457,-0.5648014 1.1193091,-0.5674259 1.1265491,-0.5694652 1.1414899,-0.5725687 1.1327586,-0.621682 1.1327586,-0.621682 1.1111247,-0.616029 1.1007196,-0.6124483 1.0908086,-0.6079626 1.0815266,-0.602325 1.0727894,-0.5956896 1.0562238,-0.5807543 1.0562238,-0.5807543 1.0443995,-0.562662 1.0393682,-0.5533085 1.0353937,-0.5435863 1.0326623,-0.5334302 1.0309182,-0.5229297 1.0290751,-0.5013545 1.0290751,-0.5013545 1.030111,-0.4856976 1.0324837,-0.4703547 1.0371168,-0.4555428 1.043127,-0.4410544 1.043127,-0.4410544 1.0506579,-0.428636 1.0592902,-0.417226 1.0697995,-0.4075343 1.0814626,-0.3988989 1.0814626,-0.3988989 1.0936642,-0.392797 1.1062399,-0.3880232 1.1194449,-0.3854848 1.1330315,-0.3843013 1.1330315,-0.3843013 1.1455456,-0.3853673 1.1576721,-0.3877446 1.1691492,-0.3923183 1.1802348,-0.3982168 1.1802348,-0.3982168 1.1907337,-0.4068195 1.2000822,-0.4163793 1.2076021,-0.4274601 1.2140683,-0.4394173 1.2140683,-0.4394173 1.219192,-0.4235354 1.2223154,-0.4159449 1.2261125,-0.4087751 1.2307565,-0.4021339 1.2361183,-0.3959407 1.2480383,-0.3843013 1.2480383,-0.3843013 1.2629933,-0.3756319 1.2706789,-0.3719616 1.2786141,-0.369088 1.2868378,-0.3671352 1.2952884,-0.3659066 1.3125676,-0.3646561 1.3125676,-0.3646561 1.3375808,-0.3676644 1.3496078,-0.3702854 1.361059,-0.3742464 1.3718082,-0.3798418 1.3819842,-0.3867716 1.4013807,-0.4028552 1.4013807,-0.4028552 1.4171555,-0.4244449 1.4238822,-0.4356849 1.4292162,-0.4474591 1.4328998,-0.4598663 1.4352668,-0.4727785 1.4378064,-0.4994446 1.4378064,-0.4994446 1.4356583,-0.5233906 1.4336353,-0.5350165 1.4304734,-0.5462258 1.4258793,-0.5569111 1.4200706,-0.5671521 1.4064285,-0.5868934 1.4064285,-0.5868934 1.388774,-0.6022423 1.3794847,-0.6089791 1.369641,-0.6145909 1.3591332,-0.6188552 1.3480916,-0.6220364 1.3251188,-0.6265933 1.3185703,-0.57748z" transform="matrix(1,0,0,-1,3.529262,3.65)" fill="rgb(116,116,116)" fill-rule="nonzero" shaper:cutDepth="0.05cm" stroke-linecap="round" stroke-linejoin="round" /><path d="M-1.0764416,0.7039019 L-1.0764416,0.5303685 -1.121462,0.5303685 -1.3806708,0.7129061 -1.3806708,0.7530152 -1.121462,0.7530152 -1.121462,0.8070397 -1.0764416,0.8070397 -1.0764416,0.7530152 -0.9806708,0.7530152 -0.9806708,0.7039019 -1.0764416,0.7039019z M-1.3018168,0.7039019 L-1.121462,0.5786632 -1.121462,0.7039019 -1.3018168,0.7039019z" transform="matrix(1,0,0,-1,3.529262,3.65)" fill="rgb(116,116,116)" fill-rule="nonzero" shaper:cutDepth="0.05cm" stroke-linecap="round" stroke-linejoin="round" /><path d="M2.4888534,-2.4519447 L2.4888534,-2.4519447 2.5046116,-2.4485858 2.5122319,-2.4463753 2.5195418,-2.4435276 2.5264492,-2.4398541 2.5329925,-2.4354333 2.54547,-2.4253417 2.54547,-2.4253417 2.553561,-2.4140275 2.5570303,-2.4081517 2.5598082,-2.4020137 2.5617517,-2.3955591 2.5630204,-2.3888485 2.5644332,-2.3750007 2.5644332,-2.3750007 2.5622917,-2.3579779 2.5604428,-2.3498118 2.55766,-2.34206 2.5537436,-2.3348113 2.5489056,-2.3279715 2.5376937,-2.3149734 2.5376937,-2.3149734 2.521663,-2.3040723 2.5133447,-2.2994679 2.5046635,-2.2958776 2.495566,-2.2934501 2.4861425,-2.2919331 2.4667524,-2.2904168 2.4667524,-2.2904168 2.4485192,-2.2918331 2.4396737,-2.2932745 2.4311534,-2.2955959 2.4230499,-2.2990448 2.4153127,-2.3034847 2.4004495,-2.3140184 2.4004495,-2.3140184 2.3898757,-2.327662 2.385376,-2.3347997 2.3818209,-2.3423163 2.3793772,-2.3502788 2.3778163,-2.3585955 2.3761658,-2.3758192 2.3761658,-2.3758192 2.3769409,-2.3870171 2.3787475,-2.3979525 2.3823078,-2.4084415 2.3869434,-2.4186569 2.3869434,-2.4186569 2.3926529,-2.427361 2.3990523,-2.4354192 2.4066229,-2.4423806 2.4149107,-2.4486705 2.4089079,-2.4947824 2.2034509,-2.4560375 2.2034509,-2.2571289 2.2503813,-2.2571289 2.2503813,-2.4167469 2.3578847,-2.4383022 2.3578847,-2.4383022 2.3475632,-2.4207314 2.3430785,-2.4117248 2.3394053,-2.4024525 2.3367488,-2.3928475 2.3349501,-2.3829618 2.3327824,-2.3627224 2.3327824,-2.3627224 2.3355437,-2.3380203 2.3379948,-2.3261104 2.3417304,-2.31473 2.3470464,-2.3040009 2.3536647,-2.2938086 2.3690716,-2.2743186 2.3690716,-2.2743186 2.3897937,-2.258685 2.4006093,-2.2520244 2.4119703,-2.2467508 2.4239758,-2.2431162 2.4364944,-2.2407865 2.4623868,-2.2383022 2.4623868,-2.2383022 2.487767,-2.240597 2.5001351,-2.2426892 2.5121167,-2.2459151 2.5236176,-2.2505512 2.5347173,-2.2563644 2.5562476,-2.2699529 2.5562476,-2.2699529 2.5669966,-2.2808923 2.5771396,-2.2921155 2.5860708,-2.3039065 2.5931844,-2.316549 2.5981259,-2.3302091 2.6013241,-2.3446859 2.6033601,-2.3597072 2.6048151,-2.3750007 2.6048151,-2.3750007 2.6028538,-2.3992758 2.6009362,-2.4110827 2.597894,-2.4224929 2.5934234,-2.433399 2.5877197,-2.4438701 2.5742558,-2.4640866 2.5742558,-2.4640866 2.5567031,-2.4794336 2.5474563,-2.4861526 2.5376448,-2.4917264 2.5271631,-2.4959405 2.5161459,-2.4990683 2.493219,-2.5035136 2.4888534,-2.4519447z" transform="matrix(1,0,0,-1,3.529262,3.65)" fill="rgb(116,116,116)" fill-rule="nonzero" shaper:cutDepth="0.05cm" stroke-linecap="round" stroke-linejoin="round" /><path d="M-0.5655746,-1.3323018 L-0.5655746,-1.5966947 -0.5655746,-1.5966947 -0.5742994,-1.5964398 -0.5829164,-1.5955439 -0.591353,-1.5935768 -0.5996811,-1.5909648 -0.5996811,-1.5909648 -0.6139539,-1.5844942 -0.6276789,-1.5771139 -0.6405335,-1.5682889 -0.652887,-1.558632 -0.652887,-1.558632 -0.6690186,-1.5435087 -0.6845618,-1.5278254 -0.6992461,-1.5113244 -0.71346,-1.4943755 -0.71346,-1.4943755 -0.7330431,-1.4707748 -0.7534016,-1.4479355 -0.775233,-1.4265422 -0.7981804,-1.4062445 -0.7981804,-1.4062445 -0.8117629,-1.3973261 -0.8187446,-1.393379 -0.8259547,-1.3900464 -0.833462,-1.3875128 -0.8412407,-1.3857094 -0.8572527,-1.383325 -0.8572527,-1.383325 -0.8710941,-1.3849407 -0.8777547,-1.3863615 -0.884103,-1.388518 -0.8900689,-1.3915757 -0.895721,-1.3953725 -0.9065023,-1.4041981 -0.9065023,-1.4041981 -0.9152947,-1.4163789 -0.9190264,-1.4227203 -0.9219612,-1.4293628 -0.9239667,-1.4363565 -0.925238,-1.4436275 -0.9265569,-1.4586319 -0.9265569,-1.4586319 -0.9251883,-1.4743451 -0.9238516,-1.4819499 -0.9217322,-1.4892528 -0.9186187,-1.496172 -0.9146474,-1.5027603 -0.9052745,-1.515385 -0.9052745,-1.515385 -0.8921212,-1.5249316 -0.8852619,-1.5289614 -0.8780639,-1.5321003 -0.8704818,-1.5342289 -0.8626004,-1.5355701 -0.8463386,-1.5369403 -0.8515228,-1.5874178 -0.8515228,-1.5874178 -0.8757192,-1.5833715 -0.8873812,-1.5804175 -0.8985197,-1.5763467 -0.9089857,-1.5708409 -0.9188571,-1.5640666 -0.9376074,-1.5484 -0.9376074,-1.5484 -0.9508845,-1.5276787 -0.95647,-1.5169607 -0.960794,-1.5058148 -0.9636925,-1.4941853 -0.9654817,-1.4821794 -0.9672117,-1.4575406 -0.9672117,-1.4575406 -0.9652988,-1.4325502 -0.9633503,-1.4204159 -0.9602112,-1.4087147 -0.9555462,-1.3975685 -0.9495399,-1.3869103 -0.9352882,-1.3664082 -0.9352882,-1.3664082 -0.9179907,-1.3521794 -0.9089169,-1.3460641 -0.8993329,-1.3411478 -0.8891288,-1.3376888 -0.87842,-1.335416 -0.8561613,-1.3328475 -0.8561613,-1.3328475 -0.8440187,-1.3336507 -0.8320643,-1.3353634 -0.8204194,-1.3385731 -0.808958,-1.3426702 -0.808958,-1.3426702 -0.7958338,-1.3494335 -0.7832389,-1.3570006 -0.7714517,-1.3657942 -0.7601176,-1.3752759 -0.7601176,-1.3752759 -0.741639,-1.3933779 -0.7237081,-1.4119949 -0.689722,-1.4509921 -0.689722,-1.4509921 -0.6651618,-1.4799164 -0.6393809,-1.5077452 -0.6393809,-1.5077452 -0.6266205,-1.5188106 -0.6127779,-1.5284819 -0.6127779,-1.3323018 -0.5655746,-1.3323018z" transform="matrix(1,0,0,-1,3.529262,3.65)" fill="rgb(116,116,116)" fill-rule="nonzero" shaper:cutDepth="0.05cm" stroke-linecap="round" stroke-linejoin="round" /><path d="M1.1298447,2.0237244 L1.1298447,1.7593315 1.1298447,1.7593315 1.1211199,1.7595864 1.112503,1.7604822 1.1040664,1.7624494 1.0957383,1.7650613 1.0957383,1.7650613 1.0814654,1.771532 1.0677405,1.7789123 1.0548858,1.7877373 1.0425323,1.7973942 1.0425323,1.7973942 1.0264008,1.8125174 1.0108575,1.8282008 0.9961732,1.8447018 0.9819593,1.8616507 0.9819593,1.8616507 0.9623763,1.8852514 0.9420178,1.9080907 0.9201863,1.9294839 0.897239,1.9497817 0.897239,1.9497817 0.8836565,1.9587001 0.8766748,1.9626472 0.8694646,1.9659798 0.8619574,1.9685134 0.8541787,1.9703168 0.8381667,1.9727012 0.8381667,1.9727012 0.8243252,1.9710855 0.8176647,1.9696646 0.8113163,1.9675082 0.8053505,1.9644505 0.7996984,1.9606537 0.788917,1.9518281 0.788917,1.9518281 0.7801247,1.9396473 0.7763929,1.9333059 0.7734581,1.9266634 0.7714526,1.9196697 0.7701814,1.9123987 0.7688625,1.8973942 0.7688625,1.8973942 0.7702311,1.8816811 0.7715677,1.8740763 0.7736871,1.8667734 0.7768007,1.8598542 0.7807719,1.8532659 0.7901449,1.8406411 0.7901449,1.8406411 0.8032982,1.8310946 0.8101575,1.8270648 0.8173555,1.8239258 0.8249376,1.8217973 0.832819,1.8204561 0.8490807,1.8190859 0.8438966,1.7686084 0.8438966,1.7686084 0.8197001,1.7726547 0.8080381,1.7756086 0.7968996,1.7796795 0.7864337,1.7851853 0.7765622,1.7919596 0.757812,1.8076262 0.757812,1.8076262 0.7445348,1.8283475 0.7389494,1.8390655 0.7346253,1.8502114 0.7317269,1.8618409 0.7299376,1.8738468 0.7282076,1.8984856 0.7282076,1.8984856 0.7301205,1.923476 0.7320691,1.9356103 0.7352082,1.9473115 0.7398731,1.9584577 0.7458795,1.9691159 0.7601312,1.9896179 0.7601312,1.9896179 0.7774286,2.0038468 0.7865024,2.0099621 0.7960864,2.0148784 0.8062905,2.0183374 0.8169993,2.0206101 0.8392581,2.0231787 0.8392581,2.0231787 0.8514006,2.0223755 0.8633551,2.0206627 0.875,2.0174531 0.8864614,2.013356 0.8864614,2.013356 0.8995855,2.0065927 0.9121805,1.9990256 0.9239676,1.9902319 0.9353017,1.9807503 0.9353017,1.9807503 0.9537804,1.9626483 0.9717113,1.9440313 1.0056974,1.9050341 1.0056974,1.9050341 1.0302576,1.8761098 1.0560384,1.848281 1.0560384,1.848281 1.0687988,1.8372156 1.0826415,1.8275443 1.0826415,2.0237244 1.1298447,2.0237244z" transform="matrix(1,0,0,-1,3.529262,3.65)" fill="rgb(116,116,116)" fill-rule="nonzero" shaper:cutDepth="0.05cm" stroke-linecap="round" stroke-linejoin="round" /><path d="M0.9317738,-3.1275163 L0.9317738,-3.5241057 0.9317738,-3.5241057 0.9186866,-3.5237232 0.9057612,-3.5223795 0.8931063,-3.5194288 0.8806142,-3.5155109 0.8806142,-3.5155109 0.8592049,-3.5058049 0.8386174,-3.4947345 0.8193354,-3.481497 0.8008052,-3.4670116 0.8008052,-3.4670116 0.7766079,-3.4443267 0.753293,-3.4208017 0.7312666,-3.3960502 0.7099457,-3.3706268 0.7099457,-3.3706268 0.6805711,-3.3352259 0.6655203,-3.3178822 0.6500333,-3.3009668 0.6339658,-3.2846215 0.6172862,-3.268877 0.5828652,-3.2384304 0.5828652,-3.2384304 0.5624914,-3.2250528 0.5520189,-3.2191321 0.5412037,-3.2141332 0.5299428,-3.2103328 0.5182747,-3.2076277 0.4942567,-3.2040511 0.4942567,-3.2040511 0.4734945,-3.2064747 0.4635037,-3.208606 0.4539812,-3.2118406 0.4450324,-3.2164271 0.4365543,-3.2221224 0.4203822,-3.2353608 0.4203822,-3.2353608 0.4071937,-3.253632 0.4015961,-3.2631441 0.3971939,-3.2731079 0.3941857,-3.2835983 0.3922788,-3.2945049 0.3903004,-3.3170115 0.3903004,-3.3170115 0.3923534,-3.3405812 0.3943583,-3.3519885 0.3975374,-3.3629428 0.4022078,-3.3733216 0.4081646,-3.3832041 0.422224,-3.4021412 0.422224,-3.4021412 0.441954,-3.416461 0.452243,-3.4225057 0.4630399,-3.4272141 0.4744131,-3.430407 0.4862352,-3.4324188 0.5106278,-3.434474 0.5028516,-3.5101903 0.5028516,-3.5101903 0.4845733,-3.5074348 0.4665569,-3.5041209 0.4490639,-3.49969 0.4323561,-3.4935837 0.4243772,-3.4897306 0.4166572,-3.485325 0.40185,-3.4751635 0.3876384,-3.4637313 0.3737247,-3.4516637 0.3737247,-3.4516637 0.3634509,-3.4362299 0.3538089,-3.4205817 0.3454307,-3.4045047 0.3389447,-3.3877858 0.3345971,-3.3703415 0.3319131,-3.3523327 0.3293181,-3.3153744 0.3293181,-3.3153744 0.3304552,-3.2965234 0.3321875,-3.2778889 0.3351104,-3.2596875 0.339819,-3.2421356 0.3430253,-3.2336696 0.3468164,-3.2254163 0.355826,-3.209429 0.3661789,-3.1939303 0.3772035,-3.178676 0.3772035,-3.178676 0.3900491,-3.1677046 0.4031497,-3.1573327 0.4167604,-3.1481598 0.4311364,-3.1407853 0.4464425,-3.1355969 0.4625057,-3.1321877 0.4790736,-3.1299648 0.4958939,-3.1283349 0.4958939,-3.1283349 0.5141076,-3.1295397 0.5320393,-3.1321089 0.5495067,-3.1369233 0.5666988,-3.1430689 0.5666988,-3.1430689 0.586385,-3.1532139 0.6052774,-3.1645645 0.6229582,-3.177755 0.6399594,-3.1919775 0.6399594,-3.1919775 0.6676774,-3.2191305 0.6945737,-3.2470559 0.7203583,-3.2760265 0.7455528,-3.3055518 0.7455528,-3.3055518 0.7823931,-3.3489381 0.8014992,-3.3700158 0.8210644,-3.3906814 0.8210644,-3.3906814 0.840205,-3.4072795 0.8609689,-3.4217865 0.8609689,-3.1275163 0.9317738,-3.1275163z" transform="matrix(1,0,0,-1,3.529262,3.65)" fill="rgb(116,116,116)" fill-rule="nonzero" shaper:cutDepth="0.05cm" stroke-linecap="round" stroke-linejoin="round" /><path d="M0.9317738,-2.844706 L0.4623331,-2.844706 0.4623331,-2.844706 0.4764076,-2.8611334 0.4896795,-2.8781499 0.5017255,-2.8960663 0.5130835,-2.9144877 0.5130835,-2.9144877 0.523742,-2.9333211 0.5338094,-2.9524422 0.5428229,-2.972076 0.5511462,-2.9920457 0.4799321,-2.9920457 0.4799321,-2.9920457 0.4650176,-2.9632776 0.4571107,-2.9491877 0.4486641,-2.9354508 0.4395432,-2.9221549 0.4298557,-2.9092295 0.4095364,-2.8839966 0.4095364,-2.8839966 0.3915292,-2.8650731 0.3821973,-2.8560207 0.3724715,-2.8474593 0.3622328,-2.8395372 0.3515239,-2.8322015 0.3293181,-2.8185122 0.3293181,-2.7710361 0.9317738,-2.7710361 0.9317738,-2.844706z" transform="matrix(1,0,0,-1,3.529262,3.65)" fill="rgb(116,116,116)" fill-rule="nonzero" shaper:cutDepth="0.05cm" stroke-linecap="round" stroke-linejoin="round" /><path d="M0.8307122,-0.8349835 a0.15,0.15 0 1,1 0.3,0 a0.15,0.15 0 1,1 -0.3,0z" transform="matrix(1,0,0,-1,3.529262,3.65)" fill="rgb(255,255,255)" stroke="rgb(0,0,0)" stroke-width="0.0010cm" stroke-linecap="round" stroke-linejoin="round" shaper:cutDepth="0.3cm" /><path d="M-1.1655747,-1.8005828 a0.15,0.15 0 1,1 0.3,0 a0.15,0.15 0 1,1 -0.3,0z" transform="matrix(1,0,0,-1,3.529262,3.65)" fill="rgb(255,255,255)" stroke="rgb(0,0,0)" stroke-width="0.0010cm" stroke-linecap="round" stroke-linejoin="round" shaper:cutDepth="0.3cm" /><path d="M-1.5806708,0.3375309 a0.15,0.15 0 1,1 0.3,0 a0.15,0.15 0 1,1 -0.3,0z" transform="matrix(1,0,0,-1,3.529262,3.65)" fill="rgb(255,255,255)" stroke="rgb(0,0,0)" stroke-width="0.0010cm" stroke-linecap="round" stroke-linejoin="round" shaper:cutDepth="0.3cm" /><path d="M0.5298447,1.5554433 a0.15,0.15 0 1,1 0.3,0 a0.15,0.15 0 1,1 -0.3,0z" transform="matrix(1,0,0,-1,3.529262,3.65)" fill="rgb(255,255,255)" stroke="rgb(0,0,0)" stroke-width="0.0010cm" stroke-linecap="round" stroke-linejoin="round" shaper:cutDepth="0.3cm" /><path d="M2.0007224,-2.7101303 a0.15,0.15 0 1,1 0.3,0 a0.15,0.15 0 1,1 -0.3,0z" transform="matrix(1,0,0,-1,3.529262,3.65)" fill="rgb(255,255,255)" stroke="rgb(0,0,0)" stroke-width="0.0010cm" stroke-linecap="round" stroke-linejoin="round" shaper:cutDepth="0.3cm" /><path d="M-2.5342727,1.25 L-2.5342727,-1.25 -2.2342727,-1.25 -2.2342727,1.25 -2.5342727,1.25z" transform="matrix(1,0,0,-1,3.529262,3.65)" fill="rgb(255,255,255)" stroke="rgb(0,0,0)" stroke-width="0.0010cm" stroke-linecap="round" stroke-linejoin="round" shaper:cutDepth="0.3cm" /><path d="M2.979262,-3.25 a0.15,0.15 0 1,1 0.3,0 a0.15,0.15 0 1,1 -0.3,0z" transform="matrix(1,0,0,-1,3.529262,3.65)" fill="rgb(255,255,255)" stroke="rgb(0,0,0)" stroke-width="0.0010cm" stroke-linecap="round" stroke-linejoin="round" shaper:cutDepth="0.3cm" /><path d="M-1.520738,3.25 a0.15,0.15 0 1,1 0.3,0 a0.15,0.15 0 1,1 -0.3,0z" transform="matrix(1,0,0,-1,3.529262,3.65)" fill="rgb(255,255,255)" stroke="rgb(0,0,0)" stroke-width="0.0010cm" stroke-linecap="round" stroke-linejoin="round" shaper:cutDepth="0.3cm" /><path d="M2.979262,3.25 a0.15,0.15 0 1,1 0.3,0 a0.15,0.15 0 1,1 -0.3,0z" transform="matrix(1,0,0,-1,3.529262,3.65)" fill="rgb(255,255,255)" stroke="rgb(0,0,0)" stroke-width="0.0010cm" stroke-linecap="round" stroke-linejoin="round" shaper:cutDepth="0.3cm" /><path d="M-1.520738,-3.25 a0.15,0.15 0 1,1 0.3,0 a0.15,0.15 0 1,1 -0.3,0z" transform="matrix(1,0,0,-1,3.529262,3.65)" fill="rgb(255,255,255)" stroke="rgb(0,0,0)" stroke-width="0.0010cm" stroke-linecap="round" stroke-linejoin="round" shaper:cutDepth="0.3cm" /><path d="M-2.1707381,2 L-0.870738,2 -0.870738,2.7500001 -2.1707381,2.7500001 A0.3,0.3 90 0,1 -2.4707381,2.4500001 L-2.4707381,2.3 A0.3,0.3 180 0,1 -2.1707381,2z" transform="matrix(1,0,0,-1,3.529262,3.65)" fill="rgb(255,255,255)" stroke="rgb(0,0,0)" stroke-width="0.0010cm" stroke-linecap="round" stroke-linejoin="round" shaper:cutDepth="0.3cm" /></svg>