<?xml version="1.0" encoding="utf-8"?>
<!-- Generator: Fusion 360, Shaper Origin Export Add-In, Version 1.7.0  -->
<svg xmlns="http://www.w3.org/2000/svg" xmlns:xlink="http://www.w3.org/1999/xlink" xmlns:shaper="http://www.shapertools.com/namespaces/shaper" shaper:fusionaddin="version:1.7.0" width="7.058524cm" height="7.3cm" version="1.1" x="0cm" y="0cm" viewBox="0 0 7.058524 7.3" enable-background="new 0 0 7.058524 7.3" xml:space="preserve"><path d="M-3.529262,-2.0046781 L-1.8572407,-3.5690658 A0.3,0.3 226.9047902 0,1 -1.6522768,-3.65 L3.229262,-3.65 A0.3,0.3 270 0,1 3.529262,-3.35 L3.529262,-2.7885309 3.229262,-2.7885309 3.229262,-0.7885309 3.529262,-0.7885309 3.529262,3.35 A0.3,0.3 0 0,1 3.229262,3.65 L-1.6522768,3.65 A0.3,0.3 90 0,1 -1.8572407,3.5690658 L-3.529262,2.0046781 -3.529262,1.65 -3.2342727,1.65 -3.2342727,-1.65 -3.529262,-1.65 -3.529262,-2.0046781z" transform="matrix(1,0,0,-1,3.529262,3.65)" fill="rgb(0,0,0)" shaper:cutDepth="0.3cm" stroke-linecap="round" stroke-linejoin="round" /><path d="M0.1779728,-1.227673 L0.1779728,-1.4920659 0.1779728,-1.4920659 0.169248,-1.491811 0.1606311,-1.4909151 0.1521944,-1.488948 0.1438664,-1.486336 0.1438664,-1.486336 0.1295935,-1.4798654 0.1158685,-1.4724851 0.1030139,-1.4636601 0.0906604,-1.4540032 0.0906604,-1.4540032 0.0745288,-1.4388799 0.0589856,-1.4231966 0.0443013,-1.4066956 0.0300874,-1.3897467 0.0300874,-1.3897467 0.0105044,-1.366146 -0.0098541,-1.3433067 -0.0316856,-1.3219134 -0.0546329,-1.3016157 -0.0546329,-1.3016157 -0.0682155,-1.2926973 -0.0751971,-1.2887502 -0.0824073,-1.2854176 -0.0899145,-1.282884 -0.0976933,-1.2810806 -0.1137052,-1.2786962 -0.1137052,-1.2786962 -0.1275467,-1.2803119 -0.1342073,-1.2817327 -0.1405556,-1.2838892 -0.1465214,-1.2869469 -0.1521735,-1.2907437 -0.1629549,-1.2995693 -0.1629549,-1.2995693 -0.1717472,-1.3117501 -0.175479,-1.3180915 -0.1784138,-1.324734 -0.1804193,-1.3317277 -0.1816906,-1.3389987 -0.1830095,-1.3540031 -0.1830095,-1.3540031 -0.1816408,-1.3697163 -0.1803042,-1.3773211 -0.1781848,-1.384624 -0.1750712,-1.3915432 -0.1711,-1.3981315 -0.1617271,-1.4107562 -0.1617271,-1.4107562 -0.1485737,-1.4203028 -0.1417144,-1.4243326 -0.1345164,-1.4274715 -0.1269343,-1.4296001 -0.1190529,-1.4309413 -0.1027912,-1.4323115 -0.1079754,-1.482789 -0.1079754,-1.482789 -0.1321718,-1.4787427 -0.1438338,-1.4757887 -0.1549723,-1.4717179 -0.1654383,-1.4662121 -0.1753097,-1.4594378 -0.1940599,-1.4437712 -0.1940599,-1.4437712 -0.2073371,-1.4230499 -0.2129226,-1.4123319 -0.2172466,-1.401186 -0.220145,-1.3895565 -0.2219343,-1.3775506 -0.2236643,-1.3529118 -0.2236643,-1.3529118 -0.2217514,-1.3279214 -0.2198028,-1.3157871 -0.2166638,-1.3040859 -0.2119988,-1.2929397 -0.2059924,-1.2822815 -0.1917407,-1.2617794 -0.1917407,-1.2617794 -0.1744433,-1.2475506 -0.1653695,-1.2414353 -0.1557855,-1.236519 -0.1455814,-1.23306 -0.1348726,-1.2307872 -0.1126138,-1.2282187 -0.1126138,-1.2282187 -0.1004713,-1.2290219 -0.0885168,-1.2307346 -0.0768719,-1.2339443 -0.0654105,-1.2380414 -0.0654105,-1.2380414 -0.0522864,-1.2448047 -0.0396915,-1.2523718 -0.0279043,-1.2611654 -0.0165702,-1.2706471 -0.0165702,-1.2706471 0.0019085,-1.2887491 0.0198393,-1.3073661 0.0538254,-1.3463633 0.0538254,-1.3463633 0.0783856,-1.3752876 0.1041665,-1.4031164 0.1041665,-1.4031164 0.1169269,-1.4141818 0.1307696,-1.4238531 0.1307696,-1.227673 0.1779728,-1.227673z" transform="matrix(1,0,0,-1,3.529262,3.65)" fill="rgb(116,116,116)" fill-rule="nonzero" shaper:cutDepth="0.05cm" stroke-linecap="round" stroke-linejoin="round" /><path d="M0.8845462,2.189783 L0.8845462,2.0162496 0.8395258,2.0162496 0.580317,2.1987871 0.580317,2.2388962 0.8395258,2.2388962 0.8395258,2.2929208 0.8845462,2.2929208 0.8845462,2.2388962 0.980317,2.2388962 0.980317,2.189783 0.8845462,2.189783z M0.6591711,2.189783 L0.8395258,2.0645442 0.8395258,2.189783 0.6591711,2.189783z" transform="matrix(1,0,0,-1,3.529262,3.65)" fill="rgb(116,116,116)" fill-rule="nonzero" shaper:cutDepth="0.05cm" stroke-linecap="round" stroke-linejoin="round" /><path d="M-1.250901,0.3220678 L-1.250901,0.1485344 -1.2959215,0.1485344 -1.5551302,0.331072 -1.5551302,0.3711811 -1.2959215,0.3711811 -1.2959215,0.4252056 -1.250901,0.4252056 -1.250901,0.3711811 -1.1551302,0.3711811 -1.1551302,0.3220678 -1.250901,0.3220678z M-1.4762762,0.3220678 L-1.2959215,0.1968291 -1.2959215,0.3220678 -1.4762762,0.3220678z" transform="matrix(1,0,0,-1,3.529262,3.65)" fill="rgb(116,116,116)" fill-rule="nonzero" shaper:cutDepth="0.05cm" stroke-linecap="round" stroke-linejoin="round" /><path d="M2.2826778,-1.5931389 L2.2826778,-1.7666723 2.2376573,-1.7666723 1.9784486,-1.5841348 1.9784486,-1.5440257 2.2376573,-1.5440257 2.2376573,-1.4900011 2.2826778,-1.4900011 2.2826778,-1.5440257 2.3784486,-1.5440257 2.3784486,-1.5931389 2.2826778,-1.5931389z M2.0573026,-1.5931389 L2.2376573,-1.7183777 2.2376573,-1.5931389 2.0573026,-1.5931389z" transform="matrix(1,0,0,-1,3.529262,3.65)" fill="rgb(116,116,116)" fill-rule="nonzero" shaper:cutDepth="0.05cm" stroke-linecap="round" stroke-linejoin="round" /><path d="M1.5765572,0.3446913 L1.5765572,0.0802984 1.5765572,0.0802984 1.5678324,0.0805533 1.5592155,0.0814491 1.5507789,0.0834163 1.5424508,0.0860282 1.5424508,0.0860282 1.5281779,0.0924989 1.514453,0.0998792 1.5015983,0.1087042 1.4892448,0.1183611 1.4892448,0.1183611 1.4731133,0.1334843 1.4575701,0.1491677 1.4428857,0.1656687 1.4286718,0.1826176 1.4286718,0.1826176 1.4090888,0.2062183 1.3887303,0.2290576 1.3668988,0.2504508 1.3439515,0.2707486 1.3439515,0.2707486 1.330369,0.279667 1.3233873,0.2836141 1.3161772,0.2869467 1.3086699,0.2894803 1.3008912,0.2912837 1.2848792,0.2936681 1.2848792,0.2936681 1.2710377,0.2920524 1.2643772,0.2906315 1.2580288,0.2884751 1.252063,0.2854174 1.2464109,0.2816206 1.2356295,0.272795 1.2356295,0.272795 1.2268372,0.2606142 1.2231055,0.2542728 1.2201706,0.2476303 1.2181652,0.2406366 1.2168939,0.2333656 1.215575,0.2183611 1.215575,0.2183611 1.2169436,0.202648 1.2182802,0.1950432 1.2203996,0.1877403 1.2235132,0.1808211 1.2274845,0.1742328 1.2368574,0.161608 1.2368574,0.161608 1.2500107,0.1520615 1.25687,0.1480317 1.264068,0.1448927 1.2716501,0.1427642 1.2795315,0.141423 1.2957932,0.1400528 1.2906091,0.0895753 1.2906091,0.0895753 1.2664126,0.0936216 1.2547506,0.0965755 1.2436121,0.1006464 1.2331462,0.1061522 1.2232747,0.1129265 1.2045245,0.1285931 1.2045245,0.1285931 1.1912473,0.1493144 1.1856619,0.1600324 1.1813378,0.1711783 1.1784394,0.1828078 1.1766501,0.1948137 1.1749201,0.2194525 1.1749201,0.2194525 1.1768331,0.2444429 1.1787816,0.2565772 1.1819207,0.2682784 1.1865856,0.2794246 1.192592,0.2900828 1.2068437,0.3105848 1.2068437,0.3105848 1.2241411,0.3248137 1.233215,0.330929 1.2427989,0.3358453 1.253003,0.3393043 1.2637118,0.341577 1.2859706,0.3441456 1.2859706,0.3441456 1.2981131,0.3433424 1.3100676,0.3416296 1.3217125,0.33842 1.3331739,0.3343229 1.3331739,0.3343229 1.346298,0.3275596 1.358893,0.3199925 1.3706801,0.3111988 1.3820143,0.3017172 1.3820143,0.3017172 1.4004929,0.2836152 1.4184238,0.2649982 1.4524099,0.226001 1.4524099,0.226001 1.4769701,0.1970767 1.5027509,0.1692479 1.5027509,0.1692479 1.5155114,0.1581825 1.529354,0.1485112 1.529354,0.3446913 1.5765572,0.3446913z" transform="matrix(1,0,0,-1,3.529262,3.65)" fill="rgb(116,116,116)" fill-rule="nonzero" shaper:cutDepth="0.05cm" stroke-linecap="round" stroke-linejoin="round" /><path d="M0.7574086,-3.4637715 L0.7574086,-3.4637715 0.7823236,-3.4576722 0.7944096,-3.4538813 0.8060497,-3.449201 0.8171039,-3.4433518 0.8276003,-3.4363899 0.8476542,-3.4205928 0.8476542,-3.4205928 0.8594973,-3.4038765 0.8645667,-3.3951982 0.8686133,-3.3861356 0.8714327,-3.376612 0.8732642,-3.3667172 0.8752804,-3.346309 0.8752804,-3.346309 0.8725362,-3.3217835 0.8701021,-3.3099581 0.8663935,-3.2986576 0.8611174,-3.2880027 0.8545502,-3.2778794 0.839264,-3.2585191 0.839264,-3.2585191 0.8195226,-3.2432272 0.8092106,-3.2366721 0.798369,-3.2314261 0.7868891,-3.2277585 0.7748932,-3.2253662 0.7500417,-3.2227074 0.7500417,-3.2227074 0.7267368,-3.2250685 0.7154836,-3.2272428 0.7047092,-3.2306095 0.6945328,-3.2354648 0.684858,-3.241569 0.6663445,-3.2558588 0.6663445,-3.2558588 0.6521135,-3.274558 0.6460392,-3.2843208 0.6412142,-3.2945793 0.6378744,-3.3054271 0.6357224,-3.3167462 0.6333977,-3.3401699 0.6333977,-3.3401699 0.6342959,-3.3533373 0.6358747,-3.3664023 0.6415833,-3.392148 0.5769175,-3.3839625 0.5769175,-3.3839625 0.577736,-3.3720935 0.577736,-3.3720935 0.5759069,-3.3496556 0.5742641,-3.3386492 0.5717475,-3.3278978 0.5681502,-3.3174618 0.5636575,-3.307287 0.5531794,-3.2873732 0.5531794,-3.2873732 0.5378534,-3.2709012 0.5295581,-3.2639041 0.5205041,-3.258393 0.510563,-3.2546201 0.4999197,-3.2522225 0.4774632,-3.2497197 0.4774632,-3.2497197 0.4586822,-3.2517265 0.4496286,-3.2535466 0.4409795,-3.2563468 0.4328324,-3.2603635 0.4251033,-3.2653933 0.4103418,-3.2771412 0.4103418,-3.2771412 0.3987412,-3.2929421 0.3938074,-3.3011752 0.389913,-3.3098074 0.3872395,-3.3189082 0.3855345,-3.328381 0.3837388,-3.3479461 0.3837388,-3.3479461 0.3856529,-3.3677037 0.3874206,-3.3772723 0.3901611,-3.3864686 0.3941171,-3.3951998 0.3990944,-3.4035402 0.410751,-3.4195696 0.410751,-3.4195696 0.4287525,-3.4335555 0.4381657,-3.4396758 0.4480716,-3.4447536 0.4585167,-3.4486903 0.4693767,-3.4517493 0.4917879,-3.4564045 0.478691,-3.5300744 0.478691,-3.5300744 0.4462401,-3.521595 0.4306324,-3.516224 0.415766,-3.5094954 0.4018429,-3.501039 0.3887372,-3.4910858 0.3638889,-3.4686829 0.3638889,-3.4686829 0.3461523,-3.4415445 0.3386053,-3.4275142 0.3326436,-3.4129309 0.3285466,-3.3976968 0.3259303,-3.381946 0.3231658,-3.3495833 0.3231658,-3.3495833 0.3247195,-3.3260979 0.326123,-3.3145024 0.3282786,-3.3030835 0.3313661,-3.2918836 0.3352283,-3.2808657 0.3442435,-3.259133 0.3442435,-3.259133 0.3555399,-3.2405055 0.3617044,-3.2316644 0.3684884,-3.2233904 0.3760459,-3.2158246 0.3842523,-3.2088529 0.401747,-3.1958998 0.401747,-3.1958998 0.4200494,-3.1867469 0.429376,-3.1827931 0.4389129,-3.1795863 0.4487094,-3.1773015 0.4587205,-3.1757787 0.4791003,-3.1740035 0.4791003,-3.1740035 0.4978715,-3.1756024 0.5070753,-3.1770166 0.5160612,-3.1791683 0.5247792,-3.182226 0.5332769,-3.1860289 0.5499052,-3.1948766 0.5499052,-3.1948766 0.5656536,-3.2077808 0.5729885,-3.2146815 0.5796764,-3.2221204 0.5856126,-3.2301845 0.5909562,-3.2387416 0.6006555,-3.2566774 0.6006555,-3.2566774 0.6083411,-3.2328546 0.6130261,-3.2214689 0.6187218,-3.2107141 0.6256879,-3.2007523 0.6337305,-3.1914626 0.6516105,-3.1740035 0.6516105,-3.1740035 0.674043,-3.1609992 0.6855714,-3.1554937 0.6974743,-3.1511833 0.7098099,-3.1482542 0.7224858,-3.1464113 0.7484046,-3.1445355 0.7484046,-3.1445355 0.7673084,-3.1464568 0.7859244,-3.1490481 0.8039648,-3.1529796 0.8126791,-3.1556572 0.8211416,-3.1589211 0.8293289,-3.1628257 0.8372654,-3.1673142 0.8525293,-3.1777089 0.86722,-3.189438 0.8816242,-3.2018342 0.8816242,-3.2018342 0.8938035,-3.2178929 0.9052864,-3.2342188 0.9153764,-3.2510788 0.9196814,-3.2597927 0.9233774,-3.2687401 0.9264282,-3.277935 0.9289029,-3.2873509 0.9324534,-3.3067192 0.9346872,-3.3265925 0.9362627,-3.3467183 0.9362627,-3.3467183 0.9349363,-3.3647821 0.9330406,-3.3826375 0.930006,-3.4000762 0.9252631,-3.4168901 0.9183721,-3.4329181 0.9096591,-3.4482796 0.8997312,-3.4631967 0.8891958,-3.4778916 0.8891958,-3.4778916 0.8760936,-3.4896845 0.8627141,-3.5009149 0.8487802,-3.5110202 0.8340146,-3.5194379 0.8182529,-3.5258343 0.8016906,-3.530606 0.7845944,-3.5342945 0.7672313,-3.5374414 0.7574086,-3.4637715z" transform="matrix(1,0,0,-1,3.529262,3.65)" fill="rgb(116,116,116)" fill-rule="nonzero" shaper:cutDepth="0.05cm" stroke-linecap="round" stroke-linejoin="round" /><path d="M0.9256214,-2.8678643 L0.4561808,-2.8678643 0.4561808,-2.8678643 0.4702553,-2.8842917 0.4835272,-2.9013082 0.4955731,-2.9192246 0.5069311,-2.937646 0.5069311,-2.937646 0.5175897,-2.9564795 0.527657,-2.9756005 0.5366706,-2.9952343 0.5449939,-3.015204 0.4737797,-3.015204 0.4737797,-3.015204 0.4588652,-2.986436 0.4509583,-2.9723461 0.4425117,-2.9586091 0.4333908,-2.9453132 0.4237033,-2.9323879 0.403384,-2.9071549 0.403384,-2.9071549 0.3853768,-2.8882315 0.3760449,-2.879179 0.3663191,-2.8706176 0.3560805,-2.8626956 0.3453715,-2.8553599 0.3231658,-2.8416705 0.3231658,-2.7941944 0.9256214,-2.7941944 0.9256214,-2.8678643z" transform="matrix(1,0,0,-1,3.529262,3.65)" fill="rgb(116,116,116)" fill-rule="nonzero" shaper:cutDepth="0.05cm" stroke-linecap="round" stroke-linejoin="round" /><path d="M1.7784486,-1.95951 a0.15,0.15 0 1,1 0.3,0 a0.15,0.15 0 1,1 -0.3,0z" transform="matrix(1,0,0,-1,3.529262,3.65)" fill="rgb(255,255,255)" stroke="rgb(0,0,0)" stroke-width="0.0010cm" stroke-linecap="round" stroke-linejoin="round" shaper:cutDepth="0.3cm" /><path d="M0.380317,1.8234119 a0.15,0.15 0 1,1 0.3,0 a0.15,0.15 0 1,1 -0.3,0z" transform="matrix(1,0,0,-1,3.529262,3.65)" fill="rgb(255,255,255)" stroke="rgb(0,0,0)" stroke-width="0.0010cm" stroke-linecap="round" stroke-linejoin="round" shaper:cutDepth="0.3cm" /><path d="M-1.7551303,-0.0443032 a0.15,0.15 0 1,1 0.3,0 a0.15,0.15 0 1,1 -0.3,0z" transform="matrix(1,0,0,-1,3.529262,3.65)" fill="rgb(255,255,255)" stroke="rgb(0,0,0)" stroke-width="0.0010cm" stroke-linecap="round" stroke-linejoin="round" shaper:cutDepth="0.3cm" /><path d="M0.9765572,-0.1235898 a0.15,0.15 0 1,1 0.3,0 a0.15,0.15 0 1,1 -0.3,0z" transform="matrix(1,0,0,-1,3.529262,3.65)" fill="rgb(255,255,255)" stroke="rgb(0,0,0)" stroke-width="0.0010cm" stroke-linecap="round" stroke-linejoin="round" shaper:cutDepth="0.3cm" /><path d="M-0.4220272,-1.695954 a0.15,0.15 0 1,1 0.3,0 a0.15,0.15 0 1,1 -0.3,0z" transform="matrix(1,0,0,-1,3.529262,3.65)" fill="rgb(255,255,255)" stroke="rgb(0,0,0)" stroke-width="0.0010cm" stroke-linecap="round" stroke-linejoin="round" shaper:cutDepth="0.3cm" /><path d="M-2.5342727,1.25 L-2.5342727,-1.25 -2.2342727,-1.25 -2.2342727,1.25 -2.5342727,1.25z" transform="matrix(1,0,0,-1,3.529262,3.65)" fill="rgb(255,255,255)" stroke="rgb(0,0,0)" stroke-width="0.0010cm" stroke-linecap="round" stroke-linejoin="round" shaper:cutDepth="0.3cm" /><path d="M2.979262,-3.25 a0.15,0.15 0 1,1 0.3,0 a0.15,0.15 0 1,1 -0.3,0z" transform="matrix(1,0,0,-1,3.529262,3.65)" fill="rgb(255,255,255)" stroke="rgb(0,0,0)" stroke-width="0.0010cm" stroke-linecap="round" stroke-linejoin="round" shaper:cutDepth="0.3cm" /><path d="M-1.520738,3.25 a0.15,0.15 0 1,1 0.3,0 a0.15,0.15 0 1,1 -0.3,0z" transform="matrix(1,0,0,-1,3.529262,3.65)" fill="rgb(255,255,255)" stroke="rgb(0,0,0)" stroke-width="0.0010cm" stroke-linecap="round" stroke-linejoin="round" shaper:cutDepth="0.3cm" /><path d="M2.979262,3.25 a0.15,0.15 0 1,1 0.3,0 a0.15,0.15 0 1,1 -0.3,0z" transform="matrix(1,0,0,-1,3.529262,3.65)" fill="rgb(255,255,255)" stroke="rgb(0,0,0)" stroke-width="0.0010cm" stroke-linecap="round" stroke-linejoin="round" shaper:cutDepth="0.3cm" /><path d="M-1.520738,-3.25 a0.15,0.15 0 1,1 0.3,0 a0.15,0.15 0 1,1 -0.3,0z" transform="matrix(1,0,0,-1,3.529262,3.65)" fill="rgb(255,255,255)" stroke="rgb(0,0,0)" stroke-width="0.0010cm" stroke-linecap="round" stroke-linejoin="round" shaper:cutDepth="0.3cm" /><path d="M-2.1707381,2 L-0.870738,2 -0.870738,2.7500001 -2.1707381,2.7500001 A0.3,0.3 90 0,1 -2.4707381,2.4500001 L-2.4707381,2.3 A0.3,0.3 180 0,1 -2.1707381,2z" transform="matrix(1,0,0,-1,3.529262,3.65)" fill="rgb(255,255,255)" stroke="rgb(0,0,0)" stroke-width="0.0010cm" stroke-linecap="round" stroke-linejoin="round" shaper:cutDepth="0.3cm" /></svg>