<?xml version="1.0" encoding="utf-8"?>
<!-- Generator: Fusion 360, Shaper Origin Export Add-In, Version 1.7.0  -->
<svg xmlns="http://www.w3.org/2000/svg" xmlns:xlink="http://www.w3.org/1999/xlink" xmlns:shaper="http://www.shapertools.com/namespaces/shaper" shaper:fusionaddin="version:1.7.0" width="7.058524cm" height="7.3cm" version="1.1" x="0cm" y="0cm" viewBox="0 0 7.058524 7.3" enable-background="new 0 0 7.058524 7.3" xml:space="preserve"><path d="M-3.529262,-2.0046781 L-1.8572407,-3.5690658 A0.3,0.3 226.9047902 0,1 -1.6522768,-3.65 L3.229262,-3.65 A0.3,0.3 270 0,1 3.529262,-3.35 L3.529262,-2.7885309 3.229262,-2.7885309 3.229262,-0.7885309 3.529262,-0.7885309 3.529262,3.35 A0.3,0.3 0 0,1 3.229262,3.65 L-1.6522768,3.65 A0.3,0.3 90 0,1 -1.8572407,3.5690658 L-3.529262,2.0046781 -3.529262,1.65 -3.2342727,1.65 -3.2342727,-1.65 -3.529262,-1.65 -3.529262,-2.0046781z" transform="matrix(1,0,0,-1,3.529262,3.65)" fill="rgb(0,0,0)" shaper:cutDepth="0.3cm" stroke-linecap="round" stroke-linejoin="round" /><path d="M1.2773977,2.278941 L1.2773977,2.0145481 1.2773977,2.0145481 1.2686729,2.0148031 1.260056,2.0156989 1.2516194,2.0176661 1.2432913,2.020278 1.2432913,2.020278 1.2290184,2.0267487 1.2152935,2.034129 1.2024388,2.0429539 1.1900853,2.0526109 1.1900853,2.0526109 1.1739538,2.0677341 1.1584105,2.0834174 1.1437262,2.0999185 1.1295123,2.1168674 1.1295123,2.1168674 1.1099293,2.140468 1.0895708,2.1633074 1.0677393,2.1847006 1.044792,2.2049983 1.044792,2.2049983 1.0312095,2.2139167 1.0242278,2.2178638 1.0170176,2.2211965 1.0095104,2.2237301 1.0017317,2.2255335 0.9857197,2.2279179 0.9857197,2.2279179 0.9718782,2.2263022 0.9652177,2.2248813 0.9588693,2.2227249 0.9529035,2.2196672 0.9472514,2.2158704 0.93647,2.2070447 0.93647,2.2070447 0.9276777,2.194864 0.9239459,2.1885225 0.9210111,2.18188 0.9190056,2.1748864 0.9177344,2.1676153 0.9164155,2.1526109 0.9164155,2.1526109 0.9177841,2.1368978 0.9191207,2.1292929 0.9212401,2.1219901 0.9243537,2.1150708 0.9283249,2.1084825 0.9376979,2.0958578 0.9376979,2.0958578 0.9508512,2.0863112 0.9577105,2.0822815 0.9649085,2.0791425 0.9724906,2.0770139 0.980372,2.0756727 0.9966337,2.0743026 0.9914496,2.0238251 0.9914496,2.0238251 0.9672531,2.0278714 0.9555911,2.0308253 0.9444526,2.0348962 0.9339867,2.040402 0.9241152,2.0471763 0.905365,2.0628428 0.905365,2.0628428 0.8920878,2.0835642 0.8865024,2.0942821 0.8821783,2.105428 0.8792799,2.1170576 0.8774906,2.1290634 0.8757606,2.1537023 0.8757606,2.1537023 0.8776735,2.1786927 0.8796221,2.190827 0.8827612,2.2025282 0.8874261,2.2136744 0.8934325,2.2243326 0.9076842,2.2448346 0.9076842,2.2448346 0.9249816,2.2590635 0.9340554,2.2651788 0.9436394,2.2700951 0.9538435,2.2735541 0.9645523,2.2758268 0.9868111,2.2783954 0.9868111,2.2783954 0.9989536,2.2775922 1.0109081,2.2758794 1.022553,2.2726698 1.0340144,2.2685727 1.0340144,2.2685727 1.0471385,2.2618093 1.0597335,2.2542423 1.0715206,2.2454486 1.0828547,2.235967 1.0828547,2.235967 1.1013334,2.2178649 1.1192643,2.199248 1.1532504,2.1602507 1.1532504,2.1602507 1.1778106,2.1313265 1.2035914,2.1034977 1.2035914,2.1034977 1.2163518,2.0924323 1.2301945,2.082761 1.2301945,2.278941 1.2773977,2.278941z" transform="matrix(1,0,0,-1,3.529262,3.65)" fill="rgb(116,116,116)" fill-rule="nonzero" shaper:cutDepth="0.05cm" stroke-linecap="round" stroke-linejoin="round" /><path d="M2.4930779,0.3518861 L2.4930779,0.3518861 2.5088361,0.3552451 2.5164564,0.3574555 2.5237663,0.3603032 2.5306737,0.3639767 2.537217,0.3683976 2.5496945,0.3784891 2.5496945,0.3784891 2.5577855,0.3898034 2.5612548,0.3956791 2.5640327,0.4018171 2.5659762,0.4082717 2.5672449,0.4149823 2.5686577,0.4288302 2.5686577,0.4288302 2.5665162,0.445853 2.5646673,0.4540191 2.5618845,0.4617708 2.5579681,0.4690195 2.5531301,0.4758593 2.5419182,0.4888574 2.5419182,0.4888574 2.5258875,0.4997585 2.5175692,0.5043629 2.508888,0.5079532 2.4997905,0.5103807 2.490367,0.5118977 2.4709769,0.513414 2.4709769,0.513414 2.4527437,0.5119977 2.4438982,0.5105563 2.4353779,0.508235 2.4272744,0.504786 2.4195372,0.5003461 2.404674,0.4898124 2.404674,0.4898124 2.3941002,0.4761688 2.3896005,0.4690311 2.3860454,0.4615145 2.3836017,0.453552 2.3820408,0.4452353 2.3803903,0.4280116 2.3803903,0.4280116 2.3811654,0.4168137 2.382972,0.4058784 2.3865323,0.3953893 2.3911679,0.3851739 2.3911679,0.3851739 2.3968774,0.3764699 2.4032768,0.3684117 2.4108474,0.3614503 2.4191352,0.3551603 2.4131324,0.3090484 2.2076754,0.3477933 2.2076754,0.5467019 2.2546058,0.5467019 2.2546058,0.3870839 2.3621092,0.3655287 2.3621092,0.3655287 2.3517877,0.3830994 2.347303,0.3921061 2.3436298,0.4013783 2.3409733,0.4109833 2.3391746,0.420869 2.3370069,0.4411085 2.3370069,0.4411085 2.3397682,0.4658106 2.3422193,0.4777204 2.3459549,0.4891008 2.3512709,0.4998299 2.3578892,0.5100222 2.3732961,0.5295123 2.3732961,0.5295123 2.3940182,0.5451458 2.4048338,0.5518064 2.4161949,0.55708 2.4282003,0.5607147 2.4407189,0.5630443 2.4666113,0.5655287 2.4666113,0.5655287 2.4919916,0.5632338 2.5043596,0.5611416 2.5163412,0.5579157 2.5278421,0.5532797 2.5389418,0.5474664 2.5604721,0.5338779 2.5604721,0.5338779 2.5712211,0.5229385 2.5813641,0.5117153 2.5902953,0.4999243 2.5974089,0.4872818 2.6023504,0.4736217 2.6055486,0.4591449 2.6075846,0.4441236 2.6090396,0.4288302 2.6090396,0.4288302 2.6070783,0.4045551 2.6051607,0.3927481 2.6021185,0.381338 2.5976479,0.3704318 2.5919442,0.3599607 2.5784803,0.3397442 2.5784803,0.3397442 2.5609276,0.3243973 2.5516808,0.3176783 2.5418693,0.3121045 2.5313876,0.3078904 2.5203704,0.3047625 2.4974435,0.3003172 2.4930779,0.3518861z" transform="matrix(1,0,0,-1,3.529262,3.65)" fill="rgb(116,116,116)" fill-rule="nonzero" shaper:cutDepth="0.05cm" stroke-linecap="round" stroke-linejoin="round" /><path d="M-1.4634104,-2.0539088 L-1.4634104,-2.0539088 -1.4476522,-2.0505499 -1.4400318,-2.0483394 -1.432722,-2.0454917 -1.4258145,-2.0418182 -1.4192712,-2.0373974 -1.4067937,-2.0273058 -1.4067937,-2.0273058 -1.3987028,-2.0159916 -1.3952335,-2.0101158 -1.3924556,-2.0039778 -1.3905121,-1.9975232 -1.3892433,-1.9908126 -1.3878306,-1.9769648 -1.3878306,-1.9769648 -1.389972,-1.959942 -1.391821,-1.9517759 -1.3946037,-1.9440241 -1.3985201,-1.9367754 -1.4033581,-1.9299356 -1.41457,-1.9169375 -1.41457,-1.9169375 -1.4306008,-1.9060364 -1.438919,-1.901432 -1.4476003,-1.8978417 -1.4566978,-1.8954142 -1.4661212,-1.8938972 -1.4855113,-1.8923809 -1.4855113,-1.8923809 -1.5037445,-1.8937972 -1.51259,-1.8952386 -1.5211103,-1.89756 -1.5292139,-1.9010089 -1.5369511,-1.9054488 -1.5518142,-1.9159825 -1.5518142,-1.9159825 -1.5623881,-1.9296261 -1.5668877,-1.9367638 -1.5704429,-1.9442804 -1.5728865,-1.9522429 -1.5744474,-1.9605596 -1.576098,-1.9777833 -1.576098,-1.9777833 -1.5753228,-1.9889812 -1.5735163,-1.9999166 -1.5699559,-2.0104056 -1.5653204,-2.020621 -1.5653204,-2.020621 -1.5596108,-2.0293251 -1.5532115,-2.0373833 -1.5456408,-2.0443447 -1.5373531,-2.0506346 -1.5433558,-2.0967465 -1.7488128,-2.0580016 -1.7488128,-1.859093 -1.7018824,-1.859093 -1.7018824,-2.018711 -1.594379,-2.0402663 -1.594379,-2.0402663 -1.6047006,-2.0226955 -1.6091852,-2.0136889 -1.6128585,-2.0044166 -1.615515,-1.9948116 -1.6173137,-1.9849259 -1.6194813,-1.9646865 -1.6194813,-1.9646865 -1.6167201,-1.9399844 -1.614269,-1.9280745 -1.6105334,-1.9166941 -1.6052173,-1.9059651 -1.598599,-1.8957727 -1.5831921,-1.8762827 -1.5831921,-1.8762827 -1.5624701,-1.8606491 -1.5516544,-1.8539885 -1.5402934,-1.8487149 -1.5282879,-1.8450803 -1.5157694,-1.8427506 -1.489877,-1.8402663 -1.489877,-1.8402663 -1.4644967,-1.8425612 -1.4521286,-1.8446533 -1.440147,-1.8478792 -1.4286461,-1.8525153 -1.4175465,-1.8583285 -1.3960161,-1.871917 -1.3960161,-1.871917 -1.3852672,-1.8828564 -1.3751241,-1.8940796 -1.3661929,-1.9058706 -1.3590793,-1.9185131 -1.3541379,-1.9321732 -1.3509397,-1.94665 -1.3489036,-1.9616713 -1.3474486,-1.9769648 -1.3474486,-1.9769648 -1.3494099,-2.0012399 -1.3513276,-2.0130468 -1.3543697,-2.024457 -1.3588403,-2.0353631 -1.364544,-2.0458342 -1.378008,-2.0660507 -1.378008,-2.0660507 -1.3955606,-2.0813977 -1.4048075,-2.0881167 -1.4146189,-2.0936905 -1.4251006,-2.0979046 -1.4361179,-2.1010324 -1.4590448,-2.1054777 -1.4634104,-2.0539088z" transform="matrix(1,0,0,-1,3.529262,3.65)" fill="rgb(116,116,116)" fill-rule="nonzero" shaper:cutDepth="0.05cm" stroke-linecap="round" stroke-linejoin="round" /><path d="M-1.1016315,1.5477084 L-1.1016315,1.5477084 -1.0858733,1.5510673 -1.0782529,1.5532778 -1.070943,1.5561255 -1.0640356,1.559799 -1.0574923,1.5642198 -1.0450148,1.5743114 -1.0450148,1.5743114 -1.0369238,1.5856256 -1.0334545,1.5915014 -1.0306766,1.5976394 -1.0287331,1.604094 -1.0274644,1.6108046 -1.0260516,1.6246524 -1.0260516,1.6246524 -1.0281931,1.6416752 -1.030042,1.6498413 -1.0328248,1.6575931 -1.0367412,1.6648418 -1.0415792,1.6716816 -1.0527911,1.6846797 -1.0527911,1.6846797 -1.0688218,1.6955808 -1.0771401,1.7001852 -1.0858213,1.7037755 -1.0949189,1.706203 -1.1043423,1.70772 -1.1237324,1.7092363 -1.1237324,1.7092363 -1.1419656,1.70782 -1.1508111,1.7063786 -1.1593314,1.7040573 -1.1674349,1.7006083 -1.1751722,1.6961684 -1.1900353,1.6856347 -1.1900353,1.6856347 -1.2006092,1.6719911 -1.2051088,1.6648534 -1.2086639,1.6573368 -1.2111076,1.6493743 -1.2126685,1.6410576 -1.214319,1.6238339 -1.214319,1.6238339 -1.2135439,1.612636 -1.2117373,1.6017006 -1.208177,1.5912116 -1.2035414,1.5809962 -1.2035414,1.5809962 -1.1978319,1.5722921 -1.1914325,1.5642339 -1.1838619,1.5572725 -1.1755742,1.5509826 -1.1815769,1.5048707 -1.3870339,1.5436156 -1.3870339,1.7425242 -1.3401035,1.7425242 -1.3401035,1.5829062 -1.2326001,1.5613509 -1.2326001,1.5613509 -1.2429217,1.5789217 -1.2474063,1.5879283 -1.2510795,1.5972006 -1.253736,1.6068056 -1.2555347,1.6166913 -1.2577024,1.6369307 -1.2577024,1.6369307 -1.2549411,1.6616328 -1.25249,1.6735427 -1.2487545,1.6849231 -1.2434384,1.6956522 -1.2368201,1.7058445 -1.2214132,1.7253346 -1.2214132,1.7253346 -1.2006911,1.7409681 -1.1898755,1.7476287 -1.1785145,1.7529023 -1.166509,1.7565369 -1.1539904,1.7588666 -1.128098,1.7613509 -1.128098,1.7613509 -1.1027178,1.7590561 -1.0903497,1.7569639 -1.0783681,1.753738 -1.0668672,1.7491019 -1.0557676,1.7432887 -1.0342372,1.7297002 -1.0342372,1.7297002 -1.0234882,1.7187608 -1.0133452,1.7075376 -1.004414,1.6957466 -0.9973004,1.6831041 -0.992359,1.669444 -0.9891607,1.6549672 -0.9871247,1.6399459 -0.9856697,1.6246524 -0.9856697,1.6246524 -0.987631,1.6003773 -0.9895487,1.5885704 -0.9925908,1.5771602 -0.9970614,1.5662541 -1.0027651,1.555783 -1.016229,1.5355665 -1.016229,1.5355665 -1.0337817,1.5202195 -1.0430286,1.5135005 -1.05284,1.5079267 -1.0633217,1.5037126 -1.0743389,1.5005848 -1.0972658,1.4961395 -1.1016315,1.5477084z" transform="matrix(1,0,0,-1,3.529262,3.65)" fill="rgb(116,116,116)" fill-rule="nonzero" shaper:cutDepth="0.05cm" stroke-linecap="round" stroke-linejoin="round" /><path d="M0.2757241,-0.2916347 L0.2757241,-0.2916347 0.2923341,-0.2875685 0.3003915,-0.2850412 0.3081515,-0.281921 0.315521,-0.2780215 0.3225186,-0.2733803 0.3358878,-0.2628489 0.3358878,-0.2628489 0.3437833,-0.2517047 0.3471629,-0.2459191 0.3498606,-0.2398774 0.3517403,-0.2335284 0.3529612,-0.2269319 0.3543053,-0.2133264 0.3543053,-0.2133264 0.3524758,-0.196976 0.3508531,-0.1890924 0.3483807,-0.1815588 0.3448633,-0.1744555 0.3404852,-0.1677066 0.3302944,-0.1547998 0.3302944,-0.1547998 0.3171334,-0.1446051 0.3102587,-0.1402351 0.3030311,-0.1367378 0.2953777,-0.1342927 0.2873805,-0.1326978 0.2708128,-0.1309253 0.2708128,-0.1309253 0.2552763,-0.1324994 0.2477741,-0.1339489 0.2405912,-0.1361934 0.2338069,-0.1394303 0.2273571,-0.1434997 0.2150147,-0.1530263 0.2150147,-0.1530263 0.2055274,-0.1654924 0.2014779,-0.1720009 0.1982612,-0.1788399 0.1960347,-0.1860718 0.1946,-0.1936178 0.1930502,-0.2092336 0.1930502,-0.2092336 0.1947015,-0.2267219 0.1985072,-0.2438857 0.1553967,-0.2384287 0.1553967,-0.2384287 0.1559424,-0.230516 0.1559424,-0.230516 0.154723,-0.2155574 0.1536278,-0.2082198 0.1519501,-0.2010522 0.1495519,-0.1940949 0.1465567,-0.1873117 0.1395714,-0.1740358 0.1395714,-0.1740358 0.129354,-0.1630545 0.1238238,-0.1583898 0.1177878,-0.1547158 0.1111604,-0.1522005 0.1040649,-0.1506021 0.0890938,-0.1489335 0.0890938,-0.1489335 0.0765732,-0.1502714 0.0705375,-0.1514848 0.0647714,-0.1533516 0.05934,-0.1560294 0.0541873,-0.1593826 0.0443462,-0.1672145 0.0443462,-0.1672145 0.0366125,-0.1777484 0.0333233,-0.1832372 0.030727,-0.1889919 0.0289447,-0.1950592 0.0278081,-0.2013743 0.0266109,-0.2144178 0.0266109,-0.2144178 0.027887,-0.2275895 0.0290655,-0.2339685 0.0308924,-0.2400994 0.0335298,-0.2459202 0.036848,-0.2514805 0.0446191,-0.2621668 0.0446191,-0.2621668 0.0566201,-0.2714907 0.0628955,-0.2755709 0.0694994,-0.2789561 0.0764629,-0.2815805 0.0837029,-0.2836199 0.0986436,-0.2867234 0.0899124,-0.3358366 0.0899124,-0.3358366 0.0682785,-0.3301837 0.0578733,-0.326603 0.0479624,-0.3221173 0.0386804,-0.3164797 0.0299432,-0.3098442 0.0133776,-0.2949089 0.0133776,-0.2949089 0.0015532,-0.2768167 -0.003478,-0.2674632 -0.0074525,-0.2577409 -0.0101839,-0.2475849 -0.011928,-0.2370844 -0.0137711,-0.2155092 -0.0137711,-0.2155092 -0.0127353,-0.1998523 -0.0103626,-0.1845094 -0.0057294,-0.1696975 0.0002807,-0.1552091 0.0002807,-0.1552091 0.0078116,-0.1427907 0.0164439,-0.1313806 0.0269532,-0.1216889 0.0386164,-0.1130535 0.0386164,-0.1130535 0.050818,-0.1069516 0.0633937,-0.1021779 0.0765987,-0.0996395 0.0901853,-0.098456 0.0901853,-0.098456 0.1026994,-0.099522 0.1148259,-0.1018992 0.126303,-0.106473 0.1373885,-0.1123714 0.1373885,-0.1123714 0.1478875,-0.1209742 0.157236,-0.1305339 0.1647559,-0.1416147 0.1712221,-0.1535719 0.1712221,-0.1535719 0.1763458,-0.13769 0.1794692,-0.1300996 0.1832663,-0.1229297 0.1879103,-0.1162885 0.1932721,-0.1100954 0.2051921,-0.098456 0.2051921,-0.098456 0.220147,-0.0897866 0.2278327,-0.0861162 0.2357679,-0.0832426 0.2439916,-0.0812899 0.2524422,-0.0800613 0.2697214,-0.0788107 0.2697214,-0.0788107 0.2947346,-0.0818191 0.3067615,-0.0844401 0.3182128,-0.0884011 0.328962,-0.0939965 0.3391379,-0.1009263 0.3585345,-0.1170099 0.3585345,-0.1170099 0.3743093,-0.1385996 0.381036,-0.1498396 0.38637,-0.1616138 0.3900536,-0.174021 0.3924206,-0.1869332 0.3949601,-0.2135992 0.3949601,-0.2135992 0.3928121,-0.2375453 0.390789,-0.2491712 0.3876271,-0.2603804 0.3830331,-0.2710658 0.3772244,-0.2813068 0.3635822,-0.3010481 0.3635822,-0.3010481 0.3459278,-0.316397 0.3366385,-0.3231338 0.3267948,-0.3287456 0.316287,-0.3330099 0.3052454,-0.336191 0.2822726,-0.3407479 0.2757241,-0.2916347z" transform="matrix(1,0,0,-1,3.529262,3.65)" fill="rgb(116,116,116)" fill-rule="nonzero" shaper:cutDepth="0.05cm" stroke-linecap="round" stroke-linejoin="round" /><path d="M0.9153193,-3.3837879 L0.4458787,-3.3837879 0.4458787,-3.3837879 0.4599531,-3.4002153 0.4732251,-3.4172319 0.485271,-3.4351483 0.496629,-3.4535696 0.496629,-3.4535696 0.5072875,-3.4724031 0.5173549,-3.4915242 0.5263685,-3.511158 0.5346918,-3.5311276 0.4634776,-3.5311276 0.4634776,-3.5311276 0.4485631,-3.5023596 0.4406562,-3.4882697 0.4322096,-3.4745327 0.4230887,-3.4612368 0.4134012,-3.4483115 0.3930819,-3.4230785 0.3930819,-3.4230785 0.3750747,-3.4041551 0.3657428,-3.3951027 0.356017,-3.3865413 0.3457783,-3.3786192 0.3350694,-3.3712835 0.3128637,-3.3575942 0.3128637,-3.3101181 0.9153193,-3.3101181 0.9153193,-3.3837879z" transform="matrix(1,0,0,-1,3.529262,3.65)" fill="rgb(116,116,116)" fill-rule="nonzero" shaper:cutDepth="0.05cm" stroke-linecap="round" stroke-linejoin="round" /><path d="M0.7516086,-3.044088 L0.7516086,-3.044088 0.7752459,-3.0390496 0.7866764,-3.0357339 0.7976412,-3.0314624 0.8080023,-3.0259521 0.8178173,-3.0193208 0.8365336,-3.0041836 0.8365336,-3.0041836 0.84867,-2.9872121 0.8538739,-2.9783985 0.8580407,-2.9691915 0.860956,-2.9595096 0.8628591,-2.9494437 0.8649783,-2.928672 0.8649783,-2.928672 0.8617662,-2.9031378 0.8589928,-2.8908886 0.8548187,-2.879261 0.8489441,-2.8683879 0.8416871,-2.8581282 0.8248692,-2.8386311 0.8248692,-2.8386311 0.800823,-2.8222795 0.7883457,-2.8153728 0.7753237,-2.8099874 0.7616775,-2.8063461 0.7475423,-2.8040707 0.7184571,-2.8017961 0.7184571,-2.8017961 0.6911074,-2.8039205 0.6778391,-2.8060827 0.6650586,-2.8095647 0.6529034,-2.8147381 0.6412975,-2.8213979 0.6190028,-2.8371985 0.6190028,-2.8371985 0.603142,-2.8576639 0.5963926,-2.8683704 0.5910599,-2.8796453 0.5873944,-2.8915892 0.585053,-2.9040642 0.5825772,-2.9298998 0.5825772,-2.9298998 0.5837399,-2.9466966 0.5864498,-2.9630996 0.5888176,-2.9710434 0.5917903,-2.9788332 0.5987436,-2.9941563 0.5987436,-2.9941563 0.6073079,-3.0072124 0.6169069,-3.0192997 0.6282629,-3.0297418 0.6406945,-3.0391767 0.6316904,-3.1083445 0.3235049,-3.0502272 0.3235049,-2.7518644 0.3939005,-2.7518644 0.3939005,-2.9912913 0.5551556,-3.0236242 0.5551556,-3.0236242 0.5396733,-2.9972681 0.5329463,-2.9837581 0.5274364,-2.9698498 0.5234517,-2.9554423 0.5207536,-2.9406137 0.5175021,-2.9102545 0.5175021,-2.9102545 0.519252,-2.8915956 0.5216441,-2.8732014 0.5253207,-2.8553366 0.5278414,-2.8466854 0.5309241,-2.8382659 0.5346263,-2.8301017 0.5388982,-2.8221723 0.5488256,-2.8068839 0.5600553,-2.7921321 0.571936,-2.7776487 0.571936,-2.7776487 0.5873412,-2.7655768 0.6030191,-2.7541985 0.6192426,-2.7442075 0.6276441,-2.7399491 0.6362841,-2.7362972 0.645176,-2.7332858 0.6542923,-2.7308452 0.6730701,-2.7273507 0.6923611,-2.7251612 0.7119087,-2.7236242 0.7119087,-2.7236242 0.7499791,-2.7270665 0.7685312,-2.7302048 0.7865036,-2.7350436 0.803755,-2.7419977 0.8204044,-2.7507175 0.8366525,-2.7606146 0.8526999,-2.7711003 0.8526999,-2.7711003 0.8688234,-2.7875094 0.884038,-2.8043442 0.8910204,-2.8130544 0.8974348,-2.8220307 0.9031675,-2.8313263 0.9081052,-2.8409945 0.9121926,-2.8510609 0.9155173,-2.8614847 0.9181884,-2.8722147 0.9203147,-2.8831999 0.9233688,-2.9057318 0.9255512,-2.928672 0.9255512,-2.928672 0.9226093,-2.9650846 0.9197327,-2.982795 0.9151696,-2.9999103 0.9084636,-3.0162695 0.8999081,-3.0319761 0.8901186,-3.0472473 0.8797122,-3.0623009 0.8797122,-3.0623009 0.8666889,-3.0740974 0.8533832,-3.0853213 0.8395129,-3.0953998 0.8247958,-3.1037605 0.8090732,-3.1100816 0.7925474,-3.1147734 0.7754861,-3.118379 0.758157,-3.1214414 0.7516086,-3.044088z" transform="matrix(1,0,0,-1,3.529262,3.65)" fill="rgb(116,116,116)" fill-rule="nonzero" shaper:cutDepth="0.05cm" stroke-linecap="round" stroke-linejoin="round" /><path d="M-0.212134,-0.5491381 a0.15,0.15 0 1,1 0.3,0 a0.15,0.15 0 1,1 -0.3,0z" transform="matrix(1,0,0,-1,3.529262,3.65)" fill="rgb(255,255,255)" stroke="rgb(0,0,0)" stroke-width="0.0010cm" stroke-linecap="round" stroke-linejoin="round" shaper:cutDepth="0.3cm" /><path d="M-1.7657247,1.6280859 a0.15,0.15 0 1,1 0.3,0 a0.15,0.15 0 1,1 -0.3,0z" transform="matrix(1,0,0,-1,3.529262,3.65)" fill="rgb(255,255,255)" stroke="rgb(0,0,0)" stroke-width="0.0010cm" stroke-linecap="round" stroke-linejoin="round" shaper:cutDepth="0.3cm" /><path d="M-1.9515414,-2.3120944 a0.15,0.15 0 1,1 0.3,0 a0.15,0.15 0 1,1 -0.3,0z" transform="matrix(1,0,0,-1,3.529262,3.65)" fill="rgb(255,255,255)" stroke="rgb(0,0,0)" stroke-width="0.0010cm" stroke-linecap="round" stroke-linejoin="round" shaper:cutDepth="0.3cm" /><path d="M0.6773977,1.81066 a0.15,0.15 0 1,1 0.3,0 a0.15,0.15 0 1,1 -0.3,0z" transform="matrix(1,0,0,-1,3.529262,3.65)" fill="rgb(255,255,255)" stroke="rgb(0,0,0)" stroke-width="0.0010cm" stroke-linecap="round" stroke-linejoin="round" shaper:cutDepth="0.3cm" /><path d="M2.0049469,0.0937005 a0.15,0.15 0 1,1 0.3,0 a0.15,0.15 0 1,1 -0.3,0z" transform="matrix(1,0,0,-1,3.529262,3.65)" fill="rgb(255,255,255)" stroke="rgb(0,0,0)" stroke-width="0.0010cm" stroke-linecap="round" stroke-linejoin="round" shaper:cutDepth="0.3cm" /><path d="M-2.5342727,1.25 L-2.5342727,-1.25 -2.2342727,-1.25 -2.2342727,1.25 -2.5342727,1.25z" transform="matrix(1,0,0,-1,3.529262,3.65)" fill="rgb(255,255,255)" stroke="rgb(0,0,0)" stroke-width="0.0010cm" stroke-linecap="round" stroke-linejoin="round" shaper:cutDepth="0.3cm" /><path d="M2.979262,-3.25 a0.15,0.15 0 1,1 0.3,0 a0.15,0.15 0 1,1 -0.3,0z" transform="matrix(1,0,0,-1,3.529262,3.65)" fill="rgb(255,255,255)" stroke="rgb(0,0,0)" stroke-width="0.0010cm" stroke-linecap="round" stroke-linejoin="round" shaper:cutDepth="0.3cm" /><path d="M-1.520738,3.25 a0.15,0.15 0 1,1 0.3,0 a0.15,0.15 0 1,1 -0.3,0z" transform="matrix(1,0,0,-1,3.529262,3.65)" fill="rgb(255,255,255)" stroke="rgb(0,0,0)" stroke-width="0.0010cm" stroke-linecap="round" stroke-linejoin="round" shaper:cutDepth="0.3cm" /><path d="M2.979262,3.25 a0.15,0.15 0 1,1 0.3,0 a0.15,0.15 0 1,1 -0.3,0z" transform="matrix(1,0,0,-1,3.529262,3.65)" fill="rgb(255,255,255)" stroke="rgb(0,0,0)" stroke-width="0.0010cm" stroke-linecap="round" stroke-linejoin="round" shaper:cutDepth="0.3cm" /><path d="M-1.520738,-3.25 a0.15,0.15 0 1,1 0.3,0 a0.15,0.15 0 1,1 -0.3,0z" transform="matrix(1,0,0,-1,3.529262,3.65)" fill="rgb(255,255,255)" stroke="rgb(0,0,0)" stroke-width="0.0010cm" stroke-linecap="round" stroke-linejoin="round" shaper:cutDepth="0.3cm" /><path d="M-2.1707381,2 L-0.870738,2 -0.870738,2.7500001 -2.1707381,2.7500001 A0.3,0.3 90 0,1 -2.4707381,2.4500001 L-2.4707381,2.3 A0.3,0.3 180 0,1 -2.1707381,2z" transform="matrix(1,0,0,-1,3.529262,3.65)" fill="rgb(255,255,255)" stroke="rgb(0,0,0)" stroke-width="0.0010cm" stroke-linecap="round" stroke-linejoin="round" shaper:cutDepth="0.3cm" /></svg>