<?xml version="1.0" encoding="utf-8"?>
<!-- Generator: Fusion 360, Shaper Origin Export Add-In, Version 1.7.0  -->
<svg xmlns="http://www.w3.org/2000/svg" xmlns:xlink="http://www.w3.org/1999/xlink" xmlns:shaper="http://www.shapertools.com/namespaces/shaper" shaper:fusionaddin="version:1.7.0" width="7.058524cm" height="7.3cm" version="1.1" x="0cm" y="0cm" viewBox="0 0 7.058524 7.3" enable-background="new 0 0 7.058524 7.3" xml:space="preserve"><path d="M-3.529262,-2.0046781 L-1.8572407,-3.5690658 A0.3,0.3 226.9047902 0,1 -1.6522768,-3.65 L3.229262,-3.65 A0.3,0.3 270 0,1 3.529262,-3.35 L3.529262,-2.7885309 3.229262,-2.7885309 3.229262,-0.7885309 3.529262,-0.7885309 3.529262,3.35 A0.3,0.3 0 0,1 3.229262,3.65 L-1.6522768,3.65 A0.3,0.3 90 0,1 -1.8572407,3.5690658 L-3.529262,2.0046781 -3.529262,1.65 -3.2342727,1.65 -3.2342727,-1.65 -3.529262,-1.65 -3.529262,-2.0046781z" transform="matrix(1,0,0,-1,3.529262,3.65)" fill="rgb(0,0,0)" shaper:cutDepth="0.3cm" stroke-linecap="round" stroke-linejoin="round" /><path d="M2.0116469,-2.3967506 L2.0116469,-2.3967506 2.0282569,-2.3926844 2.0363142,-2.3901571 2.0440743,-2.3870369 2.0514438,-2.3831374 2.0584414,-2.3784962 2.0718106,-2.3679648 2.0718106,-2.3679648 2.0797061,-2.3568206 2.0830856,-2.351035 2.0857834,-2.3449934 2.087663,-2.3386443 2.088884,-2.3320478 2.0902281,-2.3184423 2.0902281,-2.3184423 2.0883986,-2.3020919 2.0867759,-2.2942083 2.0843035,-2.2866747 2.0807861,-2.2795714 2.076408,-2.2728225 2.0662172,-2.2599157 2.0662172,-2.2599157 2.0530562,-2.2497211 2.0461815,-2.245351 2.0389538,-2.2418537 2.0313005,-2.2394086 2.0233033,-2.2378137 2.0067356,-2.2360412 2.0067356,-2.2360412 1.991199,-2.2376153 1.9836968,-2.2390648 1.976514,-2.2413093 1.9697297,-2.2445462 1.9632798,-2.2486156 1.9509375,-2.2581422 1.9509375,-2.2581422 1.9414502,-2.2706083 1.9374006,-2.2771168 1.9341839,-2.2839558 1.9319575,-2.2911877 1.9305227,-2.2987338 1.928973,-2.3143495 1.928973,-2.3143495 1.9306243,-2.3318378 1.93443,-2.3490016 1.8913195,-2.3435446 1.8913195,-2.3435446 1.8918652,-2.3356319 1.8918652,-2.3356319 1.8906458,-2.3206734 1.8895506,-2.3133357 1.8878728,-2.3061681 1.8854747,-2.2992108 1.8824795,-2.2924276 1.8754941,-2.2791517 1.8754941,-2.2791517 1.8652768,-2.2681704 1.8597465,-2.2635057 1.8537106,-2.2598317 1.8470831,-2.2573164 1.8399877,-2.255718 1.8250166,-2.2540494 1.8250166,-2.2540494 1.8124959,-2.2553873 1.8064603,-2.2566007 1.8006942,-2.2584675 1.7952628,-2.2611453 1.79011,-2.2644985 1.780269,-2.2723304 1.780269,-2.2723304 1.7725353,-2.2828643 1.7692461,-2.2883531 1.7666498,-2.2941078 1.7648675,-2.3001751 1.7637308,-2.3064902 1.7625337,-2.3195337 1.7625337,-2.3195337 1.7638097,-2.3327054 1.7649882,-2.3390844 1.7668152,-2.3452153 1.7694526,-2.3510361 1.7727708,-2.3565964 1.7805419,-2.3672827 1.7805419,-2.3672827 1.7925429,-2.3766066 1.7988183,-2.3806868 1.8054222,-2.384072 1.8123857,-2.3866964 1.8196256,-2.3887358 1.8345664,-2.3918393 1.8258352,-2.4409525 1.8258352,-2.4409525 1.8042013,-2.4352996 1.7937961,-2.4317189 1.7838851,-2.4272332 1.7746031,-2.4215956 1.765866,-2.4149601 1.7493004,-2.4000249 1.7493004,-2.4000249 1.737476,-2.3819326 1.7324447,-2.3725791 1.7284702,-2.3628568 1.7257389,-2.3527008 1.7239947,-2.3422003 1.7221517,-2.3206251 1.7221517,-2.3206251 1.7231875,-2.3049682 1.7255602,-2.2896253 1.7301933,-2.2748134 1.7362035,-2.260325 1.7362035,-2.260325 1.7437344,-2.2479066 1.7523667,-2.2364965 1.762876,-2.2268048 1.7745391,-2.2181694 1.7745391,-2.2181694 1.7867408,-2.2120675 1.7993164,-2.2072938 1.8125215,-2.2047554 1.826108,-2.2035719 1.826108,-2.2035719 1.8386222,-2.2046379 1.8507486,-2.2070151 1.8622258,-2.2115889 1.8733113,-2.2174873 1.8733113,-2.2174873 1.8838103,-2.2260901 1.8931588,-2.2356498 1.9006786,-2.2467306 1.9071448,-2.2586878 1.9071448,-2.2586878 1.9122686,-2.2428059 1.9153919,-2.2352155 1.9191891,-2.2280456 1.9238331,-2.2214045 1.9291948,-2.2152113 1.9411148,-2.2035719 1.9411148,-2.2035719 1.9560698,-2.1949025 1.9637554,-2.1912321 1.9716907,-2.1883585 1.9799144,-2.1864058 1.988365,-2.1851772 2.0056441,-2.1839266 2.0056441,-2.1839266 2.0306574,-2.186935 2.0426843,-2.189556 2.0541356,-2.193517 2.0648847,-2.1991124 2.0750607,-2.2060422 2.0944573,-2.2221258 2.0944573,-2.2221258 2.1102321,-2.2437155 2.1169587,-2.2549555 2.1222927,-2.2667297 2.1259764,-2.2791369 2.1283434,-2.2920491 2.1308829,-2.3187151 2.1308829,-2.3187151 2.1287349,-2.3426612 2.1267118,-2.3542871 2.1235499,-2.3654963 2.1189559,-2.3761817 2.1131472,-2.3864227 2.099505,-2.406164 2.099505,-2.406164 2.0818506,-2.4215129 2.0725613,-2.4282497 2.0627175,-2.4338615 2.0522098,-2.4381258 2.0411682,-2.4413069 2.0181953,-2.4458638 2.0116469,-2.3967506z" transform="matrix(1,0,0,-1,3.529262,3.65)" fill="rgb(116,116,116)" fill-rule="nonzero" shaper:cutDepth="0.05cm" stroke-linecap="round" stroke-linejoin="round" /><path d="M0.3836787,1.9380715 L0.3836787,1.6736786 0.3836787,1.6736786 0.3749539,1.6739336 0.366337,1.6748294 0.3579004,1.6767966 0.3495723,1.6794085 0.3495723,1.6794085 0.3352994,1.6858792 0.3215745,1.6932594 0.3087198,1.7020844 0.2963663,1.7117414 0.2963663,1.7117414 0.2802348,1.7268646 0.2646915,1.7425479 0.2500072,1.759049 0.2357933,1.7759979 0.2357933,1.7759979 0.2162103,1.7995985 0.1958518,1.8224379 0.1740203,1.8438311 0.151073,1.8641288 0.151073,1.8641288 0.1374905,1.8730472 0.1305088,1.8769943 0.1232986,1.880327 0.1157914,1.8828606 0.1080127,1.884664 0.0920007,1.8870484 0.0920007,1.8870484 0.0781592,1.8854327 0.0714987,1.8840118 0.0651503,1.8818554 0.0591845,1.8787977 0.0535324,1.8750009 0.042751,1.8661752 0.042751,1.8661752 0.0339587,1.8539945 0.0302269,1.847653 0.0272921,1.8410105 0.0252866,1.8340169 0.0240154,1.8267458 0.0226964,1.8117414 0.0226964,1.8117414 0.0240651,1.7960283 0.0254017,1.7884234 0.0275211,1.7811206 0.0306347,1.7742013 0.0346059,1.767613 0.0439789,1.7549883 0.0439789,1.7549883 0.0571322,1.7454417 0.0639915,1.741412 0.0711895,1.738273 0.0787716,1.7361444 0.086653,1.7348032 0.1029147,1.7334331 0.0977306,1.6829556 0.0977306,1.6829556 0.0735341,1.6870019 0.0618721,1.6899558 0.0507336,1.6940267 0.0402677,1.6995325 0.0303962,1.7063068 0.011646,1.7219733 0.011646,1.7219733 -0.0016312,1.7426947 -0.0072166,1.7534126 -0.0115407,1.7645585 -0.0144391,1.7761881 -0.0162284,1.7881939 -0.0179584,1.8128328 -0.0179584,1.8128328 -0.0160455,1.8378232 -0.0140969,1.8499574 -0.0109578,1.8616587 -0.0062929,1.8728049 -0.0002865,1.8834631 0.0139652,1.9039651 0.0139652,1.9039651 0.0312626,1.918194 0.0403364,1.9243093 0.0499204,1.9292256 0.0601245,1.9326846 0.0708333,1.9349573 0.0930921,1.9375259 0.0930921,1.9375259 0.1052346,1.9367227 0.1171891,1.9350099 0.128834,1.9318003 0.1402954,1.9277032 0.1402954,1.9277032 0.1534195,1.9209398 0.1660144,1.9133728 0.1778016,1.9045791 0.1891357,1.8950975 0.1891357,1.8950975 0.2076144,1.8769954 0.2255453,1.8583784 0.2595314,1.8193812 0.2595314,1.8193812 0.2840916,1.790457 0.3098724,1.7626282 0.3098724,1.7626282 0.3226328,1.7515628 0.3364755,1.7418915 0.3364755,1.9380715 0.3836787,1.9380715z" transform="matrix(1,0,0,-1,3.529262,3.65)" fill="rgb(116,116,116)" fill-rule="nonzero" shaper:cutDepth="0.05cm" stroke-linecap="round" stroke-linejoin="round" /><path d="M-0.5916343,-1.7199109 L-0.5916343,-1.7199109 -0.5750243,-1.7158447 -0.566967,-1.7133174 -0.5592069,-1.7101972 -0.5518374,-1.7062977 -0.5448398,-1.7016565 -0.5314706,-1.6911251 -0.5314706,-1.6911251 -0.5235751,-1.6799809 -0.5201956,-1.6741953 -0.5174978,-1.6681536 -0.5156182,-1.6618046 -0.5143972,-1.655208 -0.5130531,-1.6416025 -0.5130531,-1.6416025 -0.5148826,-1.6252522 -0.5165053,-1.6173686 -0.5189777,-1.6098349 -0.5224951,-1.6027316 -0.5268732,-1.5959828 -0.537064,-1.583076 -0.537064,-1.583076 -0.550225,-1.5728813 -0.5570997,-1.5685113 -0.5643274,-1.565014 -0.5719807,-1.5625689 -0.5799779,-1.560974 -0.5965456,-1.5592015 -0.5965456,-1.5592015 -0.6120822,-1.5607755 -0.6195843,-1.5622251 -0.6267672,-1.5644695 -0.6335515,-1.5677064 -0.6400014,-1.5717759 -0.6523437,-1.5813024 -0.6523437,-1.5813024 -0.661831,-1.5937686 -0.6658806,-1.6002771 -0.6690973,-1.6071161 -0.6713237,-1.614348 -0.6727585,-1.621894 -0.6743082,-1.6375098 -0.6743082,-1.6375098 -0.6726569,-1.6549981 -0.6688512,-1.6721619 -0.7119617,-1.6667049 -0.7119617,-1.6667049 -0.711416,-1.6587922 -0.711416,-1.6587922 -0.7126354,-1.6438336 -0.7137306,-1.636496 -0.7154083,-1.6293284 -0.7178065,-1.6223711 -0.7208017,-1.6155879 -0.7277871,-1.602312 -0.7277871,-1.602312 -0.7380044,-1.5913307 -0.7435347,-1.586666 -0.7495706,-1.5829919 -0.7561981,-1.5804766 -0.7632935,-1.5788782 -0.7782646,-1.5772097 -0.7782646,-1.5772097 -0.7907852,-1.5785476 -0.7968209,-1.579761 -0.802587,-1.5816278 -0.8080184,-1.5843056 -0.8131712,-1.5876587 -0.8230122,-1.5954907 -0.8230122,-1.5954907 -0.8307459,-1.6060246 -0.8340351,-1.6115133 -0.8366314,-1.6172681 -0.8384137,-1.6233354 -0.8395504,-1.6296505 -0.8407475,-1.642694 -0.8407475,-1.642694 -0.8394714,-1.6558657 -0.838293,-1.6622447 -0.836466,-1.6683756 -0.8338286,-1.6741964 -0.8305104,-1.6797567 -0.8227393,-1.690443 -0.8227393,-1.690443 -0.8107383,-1.6997669 -0.8044629,-1.7038471 -0.797859,-1.7072323 -0.7908955,-1.7098567 -0.7836556,-1.711896 -0.7687148,-1.7149996 -0.777446,-1.7641128 -0.777446,-1.7641128 -0.7990799,-1.7584599 -0.8094851,-1.7548792 -0.819396,-1.7503935 -0.8286781,-1.7447558 -0.8374152,-1.7381204 -0.8539808,-1.7231851 -0.8539808,-1.7231851 -0.8658052,-1.7050929 -0.8708365,-1.6957394 -0.874811,-1.6860171 -0.8775423,-1.675861 -0.8792865,-1.6653605 -0.8811295,-1.6437854 -0.8811295,-1.6437854 -0.8800937,-1.6281285 -0.877721,-1.6127856 -0.8730878,-1.5979737 -0.8670777,-1.5834852 -0.8670777,-1.5834852 -0.8595468,-1.5710669 -0.8509145,-1.5596568 -0.8404052,-1.5499651 -0.8287421,-1.5413297 -0.8287421,-1.5413297 -0.8165404,-1.5352278 -0.8039648,-1.5304541 -0.7907597,-1.5279157 -0.7771732,-1.5267322 -0.7771732,-1.5267322 -0.764659,-1.5277982 -0.7525326,-1.5301754 -0.7410554,-1.5347491 -0.7299699,-1.5406476 -0.7299699,-1.5406476 -0.7194709,-1.5492504 -0.7101224,-1.5588101 -0.7026026,-1.5698909 -0.6961364,-1.5818481 -0.6961364,-1.5818481 -0.6910126,-1.5659662 -0.6878893,-1.5583758 -0.6840921,-1.5512059 -0.6794481,-1.5445647 -0.6740864,-1.5383716 -0.6621664,-1.5267322 -0.6621664,-1.5267322 -0.6472114,-1.5180627 -0.6395258,-1.5143924 -0.6315905,-1.5115188 -0.6233668,-1.5095661 -0.6149162,-1.5083374 -0.5976371,-1.5070869 -0.5976371,-1.5070869 -0.5726238,-1.5100953 -0.5605969,-1.5127162 -0.5491456,-1.5166773 -0.5383965,-1.5222727 -0.5282205,-1.5292025 -0.5088239,-1.5452861 -0.5088239,-1.5452861 -0.4930491,-1.5668757 -0.4863224,-1.5781158 -0.4809885,-1.58989 -0.4773048,-1.6022972 -0.4749378,-1.6152093 -0.4723983,-1.6418754 -0.4723983,-1.6418754 -0.4745463,-1.6658215 -0.4765694,-1.6774474 -0.4797313,-1.6886566 -0.4843253,-1.6993419 -0.490134,-1.709583 -0.5037762,-1.7293243 -0.5037762,-1.7293243 -0.5214306,-1.7446731 -0.5307199,-1.75141 -0.5405637,-1.7570218 -0.5510714,-1.7612861 -0.562113,-1.7644672 -0.5850859,-1.7690241 -0.5916343,-1.7199109z" transform="matrix(1,0,0,-1,3.529262,3.65)" fill="rgb(116,116,116)" fill-rule="nonzero" shaper:cutDepth="0.05cm" stroke-linecap="round" stroke-linejoin="round" /><path d="M-1.278261,0.3300434 L-1.278261,0.3300434 -1.2625028,0.3334024 -1.2548824,0.3356129 -1.2475725,0.3384606 -1.2406651,0.3421341 -1.2341218,0.3465549 -1.2216443,0.3566465 -1.2216443,0.3566465 -1.2135533,0.3679607 -1.210084,0.3738365 -1.2073062,0.3799745 -1.2053626,0.3864291 -1.2040939,0.3931397 -1.2026812,0.4069875 -1.2026812,0.4069875 -1.2048226,0.4240103 -1.2066715,0.4321764 -1.2094543,0.4399282 -1.2133707,0.4471769 -1.2182087,0.4540167 -1.2294206,0.4670148 -1.2294206,0.4670148 -1.2454514,0.4779158 -1.2537696,0.4825203 -1.2624509,0.4861106 -1.2715484,0.4885381 -1.2809718,0.4900551 -1.3003619,0.4915714 -1.3003619,0.4915714 -1.3185951,0.4901551 -1.3274406,0.4887137 -1.3359609,0.4863923 -1.3440644,0.4829434 -1.3518017,0.4785035 -1.3666648,0.4679698 -1.3666648,0.4679698 -1.3772387,0.4543262 -1.3817383,0.4471885 -1.3852934,0.4396719 -1.3877371,0.4317094 -1.389298,0.4233927 -1.3909486,0.406169 -1.3909486,0.406169 -1.3901734,0.3949711 -1.3883668,0.3840357 -1.3848065,0.3735467 -1.3801709,0.3633313 -1.3801709,0.3633313 -1.3744614,0.3546272 -1.3680621,0.346569 -1.3604914,0.3396076 -1.3522037,0.3333177 -1.3582064,0.2872058 -1.5636634,0.3259507 -1.5636634,0.5248593 -1.516733,0.5248593 -1.516733,0.3652413 -1.4092296,0.343686 -1.4092296,0.343686 -1.4195512,0.3612568 -1.4240358,0.3702634 -1.4277091,0.3795357 -1.4303655,0.3891407 -1.4321643,0.3990264 -1.4343319,0.4192658 -1.4343319,0.4192658 -1.4315706,0.4439679 -1.4291196,0.4558778 -1.425384,0.4672582 -1.4200679,0.4779872 -1.4134496,0.4881796 -1.3980427,0.5076696 -1.3980427,0.5076696 -1.3773206,0.5233032 -1.366505,0.5299638 -1.355144,0.5352374 -1.3431385,0.538872 -1.3306199,0.5412017 -1.3047276,0.543686 -1.3047276,0.543686 -1.2793473,0.5413911 -1.2669792,0.539299 -1.2549976,0.5360731 -1.2434967,0.531437 -1.2323971,0.5256238 -1.2108667,0.5120353 -1.2108667,0.5120353 -1.2001177,0.5010959 -1.1899747,0.4898727 -1.1810435,0.4780817 -1.1739299,0.4654392 -1.1689885,0.4517791 -1.1657903,0.4373023 -1.1637542,0.422281 -1.1622992,0.4069875 -1.1622992,0.4069875 -1.1642605,0.3827124 -1.1661782,0.3709055 -1.1692203,0.3594953 -1.1736909,0.3485892 -1.1793946,0.3381181 -1.1928585,0.3179016 -1.1928585,0.3179016 -1.2104112,0.3025546 -1.2196581,0.2958356 -1.2294695,0.2902618 -1.2399512,0.2860477 -1.2509684,0.2829199 -1.2738954,0.2784746 -1.278261,0.3300434z" transform="matrix(1,0,0,-1,3.529262,3.65)" fill="rgb(116,116,116)" fill-rule="nonzero" shaper:cutDepth="0.05cm" stroke-linecap="round" stroke-linejoin="round" /><path d="M1.5854709,-0.2101639 L1.5854709,-0.2101639 1.6012291,-0.2068049 1.6088494,-0.2045944 1.6161593,-0.2017468 1.6230667,-0.1980732 1.62961,-0.1936524 1.6420875,-0.1835609 1.6420875,-0.1835609 1.6501785,-0.1722466 1.6536478,-0.1663709 1.6564257,-0.1602328 1.6583692,-0.1537782 1.6596379,-0.1470677 1.6610507,-0.1332198 1.6610507,-0.1332198 1.6589092,-0.116197 1.6570603,-0.1080309 1.6542775,-0.1002792 1.6503611,-0.0930304 1.6455232,-0.0861906 1.6343112,-0.0731925 1.6343112,-0.0731925 1.6182805,-0.0622915 1.6099623,-0.057687 1.601281,-0.0540967 1.5921835,-0.0516692 1.58276,-0.0501523 1.5633699,-0.0486359 1.5633699,-0.0486359 1.5451368,-0.0500522 1.5362912,-0.0514936 1.5277709,-0.053815 1.5196674,-0.057264 1.5119302,-0.0617038 1.4970671,-0.0722376 1.4970671,-0.0722376 1.4864932,-0.0858812 1.4819935,-0.0930188 1.4784384,-0.1005354 1.4759947,-0.108498 1.4744338,-0.1168147 1.4727833,-0.1340384 1.4727833,-0.1340384 1.4735584,-0.1452362 1.475365,-0.1561716 1.4789253,-0.1666606 1.4835609,-0.176876 1.4835609,-0.176876 1.4892705,-0.1855801 1.4956698,-0.1936383 1.5032404,-0.2005997 1.5115282,-0.2068897 1.5055255,-0.2530015 1.3000684,-0.2142567 1.3000684,-0.0153481 1.3469988,-0.0153481 1.3469988,-0.1749661 1.4545022,-0.1965213 1.4545022,-0.1965213 1.4441807,-0.1789506 1.439696,-0.1699439 1.4360228,-0.1606717 1.4333663,-0.1510667 1.4315676,-0.1411809 1.4293999,-0.1209415 1.4293999,-0.1209415 1.4321612,-0.0962394 1.4346123,-0.0843296 1.4383479,-0.0729491 1.4436639,-0.0622201 1.4502822,-0.0520278 1.4656891,-0.0325377 1.4656891,-0.0325377 1.4864112,-0.0169042 1.4972268,-0.0102435 1.5085879,-0.00497 1.5205933,-0.0013353 1.5331119,0.0009944 1.5590043,0.0034787 1.5590043,0.0034787 1.5843846,0.0011838 1.5967526,-0.0009084 1.6087342,-0.0041343 1.6202352,-0.0087703 1.6313348,-0.0145835 1.6528651,-0.0281721 1.6528651,-0.0281721 1.6636141,-0.0391114 1.6737572,-0.0503347 1.6826884,-0.0621256 1.6898019,-0.0747681 1.6947434,-0.0884283 1.6979416,-0.1029051 1.6999777,-0.1179263 1.7014327,-0.1332198 1.7014327,-0.1332198 1.6994714,-0.1574949 1.6975537,-0.1693018 1.6945116,-0.180712 1.6900409,-0.1916182 1.6843372,-0.2020892 1.6708733,-0.2223058 1.6708733,-0.2223058 1.6533206,-0.2376527 1.6440738,-0.2443717 1.6342624,-0.2499455 1.6237806,-0.2541596 1.6127634,-0.2572875 1.5898365,-0.2617328 1.5854709,-0.2101639z" transform="matrix(1,0,0,-1,3.529262,3.65)" fill="rgb(116,116,116)" fill-rule="nonzero" shaper:cutDepth="0.05cm" stroke-linecap="round" stroke-linejoin="round" /><path d="M0.9203431,-3.3726181 L0.4509024,-3.3726181 0.4509024,-3.3726181 0.4649769,-3.3890455 0.4782488,-3.406062 0.4902948,-3.4239784 0.5016528,-3.4423998 0.5016528,-3.4423998 0.5123113,-3.4612332 0.5223787,-3.4803543 0.5313922,-3.4999881 0.5397155,-3.5199578 0.4685014,-3.5199578 0.4685014,-3.5199578 0.4535869,-3.4911897 0.44568,-3.4770998 0.4372334,-3.4633629 0.4281125,-3.450067 0.418425,-3.4371417 0.3981057,-3.4119087 0.3981057,-3.4119087 0.3800984,-3.3929853 0.3707665,-3.3839328 0.3610407,-3.3753714 0.3508021,-3.3674494 0.3400931,-3.3601137 0.3178874,-3.3464244 0.3178874,-3.2989482 0.9203431,-3.2989482 0.9203431,-3.3726181z" transform="matrix(1,0,0,-1,3.529262,3.65)" fill="rgb(116,116,116)" fill-rule="nonzero" shaper:cutDepth="0.05cm" stroke-linecap="round" stroke-linejoin="round" /><path d="M0.7521303,-3.0361925 L0.7521303,-3.0361925 0.7770453,-3.0300931 0.7891313,-3.0263022 0.8007714,-3.0216219 0.8118256,-3.0157727 0.822322,-3.0088108 0.8423758,-2.9930137 0.8423758,-2.9930137 0.854219,-2.9762975 0.8592884,-2.9676191 0.863335,-2.9585566 0.8661544,-2.949033 0.8679859,-2.9391382 0.870002,-2.91873 0.870002,-2.91873 0.8672578,-2.8942045 0.8648237,-2.8823791 0.8611151,-2.8710786 0.8558391,-2.8604236 0.8492719,-2.8503004 0.8339857,-2.8309401 0.8339857,-2.8309401 0.8142442,-2.8156481 0.8039322,-2.8090931 0.7930907,-2.8038471 0.7816107,-2.8001794 0.7696149,-2.7977872 0.7447633,-2.7951283 0.7447633,-2.7951283 0.7214585,-2.7974894 0.7102052,-2.7996637 0.6994309,-2.8030304 0.6892545,-2.8078857 0.6795797,-2.8139899 0.6610661,-2.8282798 0.6610661,-2.8282798 0.6468351,-2.846979 0.6407608,-2.8567417 0.6359357,-2.8670002 0.632596,-2.8778481 0.630444,-2.8891672 0.6281193,-2.9125908 0.6281193,-2.9125908 0.6290175,-2.9257583 0.6305963,-2.9388232 0.6363049,-2.964569 0.5716391,-2.9563834 0.5716391,-2.9563834 0.5724577,-2.9445144 0.5724577,-2.9445144 0.5706286,-2.9220766 0.5689858,-2.9110702 0.5664692,-2.9003188 0.5628719,-2.8898827 0.5583791,-2.879708 0.5479011,-2.8597941 0.5479011,-2.8597941 0.5325751,-2.8433221 0.5242797,-2.836325 0.5152258,-2.830814 0.5052846,-2.827041 0.4946414,-2.8246435 0.4721848,-2.8221406 0.4721848,-2.8221406 0.4534038,-2.8241475 0.4443503,-2.8259676 0.4357012,-2.8287678 0.4275541,-2.8327845 0.419825,-2.8378142 0.4050634,-2.8495621 0.4050634,-2.8495621 0.3934628,-2.865363 0.388529,-2.8735961 0.3846346,-2.8822283 0.3819611,-2.8913292 0.3802561,-2.9008019 0.3784604,-2.9203671 0.3784604,-2.9203671 0.3803745,-2.9401246 0.3821422,-2.9496932 0.3848827,-2.9588895 0.3888388,-2.9676207 0.393816,-2.9759611 0.4054727,-2.9919905 0.4054727,-2.9919905 0.4234742,-3.0059765 0.4328873,-3.0120968 0.4427932,-3.0171746 0.4532384,-3.0211112 0.4640983,-3.0241702 0.4865095,-3.0288255 0.4734127,-3.1024953 0.4734127,-3.1024953 0.4409618,-3.0940159 0.4253541,-3.0886448 0.4104877,-3.0819163 0.3965646,-3.0734598 0.3834589,-3.0635067 0.3586105,-3.0411038 0.3586105,-3.0411038 0.3408739,-3.0139654 0.333327,-2.9999352 0.3273652,-2.9853518 0.3232682,-2.9701177 0.320652,-2.9543669 0.3178874,-2.9220042 0.3178874,-2.9220042 0.3194412,-2.8985188 0.3208447,-2.8869233 0.3230002,-2.8755045 0.3260878,-2.8643046 0.3299499,-2.8532866 0.3389652,-2.831554 0.3389652,-2.831554 0.3502616,-2.8129264 0.356426,-2.8040853 0.36321,-2.7958114 0.3707675,-2.7882455 0.378974,-2.7812738 0.3964686,-2.7683207 0.3964686,-2.7683207 0.4147711,-2.7591679 0.4240976,-2.755214 0.4336346,-2.7520073 0.443431,-2.7497225 0.4534421,-2.7481997 0.4738219,-2.7464245 0.4738219,-2.7464245 0.4925931,-2.7480235 0.501797,-2.7494376 0.5107828,-2.7515893 0.5195008,-2.754647 0.5279985,-2.7584499 0.5446268,-2.7672975 0.5446268,-2.7672975 0.5603753,-2.7802017 0.5677101,-2.7871024 0.574398,-2.7945413 0.5803343,-2.8026054 0.5856778,-2.8111625 0.5953771,-2.8290983 0.5953771,-2.8290983 0.6030628,-2.8052755 0.6077478,-2.7938898 0.6134435,-2.783135 0.6204095,-2.7731733 0.6284522,-2.7638835 0.6463322,-2.7464245 0.6463322,-2.7464245 0.6687646,-2.7334202 0.6802931,-2.7279147 0.6921959,-2.7236043 0.7045315,-2.7206752 0.7172074,-2.7188322 0.7431262,-2.7169564 0.7431262,-2.7169564 0.7620301,-2.7188777 0.7806461,-2.721469 0.7986864,-2.7254004 0.8074008,-2.728078 0.8158633,-2.731342 0.8240506,-2.7352466 0.8319871,-2.7397351 0.847251,-2.7501298 0.8619417,-2.7618589 0.8763458,-2.7742552 0.8763458,-2.7742552 0.8885251,-2.7903139 0.900008,-2.8066397 0.910098,-2.8234998 0.914403,-2.8322136 0.918099,-2.8411611 0.9211498,-2.850356 0.9236245,-2.8597719 0.927175,-2.8791401 0.9294088,-2.8990134 0.9309843,-2.9191392 0.9309843,-2.9191392 0.929658,-2.937203 0.9277622,-2.9550584 0.9247276,-2.9724971 0.9199848,-2.989311 0.9130937,-3.005339 0.9043807,-3.0207005 0.8944528,-3.0356176 0.8839174,-3.0503125 0.8839174,-3.0503125 0.8708152,-3.0621054 0.8574358,-3.0733358 0.8435018,-3.0834411 0.8287362,-3.0918588 0.8129746,-3.0982552 0.7964122,-3.1030269 0.779316,-3.1067154 0.7619529,-3.1098623 0.7521303,-3.0361925z" transform="matrix(1,0,0,-1,3.529262,3.65)" fill="rgb(116,116,116)" fill-rule="nonzero" shaper:cutDepth="0.05cm" stroke-linecap="round" stroke-linejoin="round" /><path d="M-0.2163213,1.4697905 a0.15,0.15 0 1,1 0.3,0 a0.15,0.15 0 1,1 -0.3,0z" transform="matrix(1,0,0,-1,3.529262,3.65)" fill="rgb(255,255,255)" stroke="rgb(0,0,0)" stroke-width="0.0010cm" stroke-linecap="round" stroke-linejoin="round" shaper:cutDepth="0.3cm" /><path d="M-1.0794924,-1.9774143 a0.15,0.15 0 1,1 0.3,0 a0.15,0.15 0 1,1 -0.3,0z" transform="matrix(1,0,0,-1,3.529262,3.65)" fill="rgb(255,255,255)" stroke="rgb(0,0,0)" stroke-width="0.0010cm" stroke-linecap="round" stroke-linejoin="round" shaper:cutDepth="0.3cm" /><path d="M1.5237888,-2.654254 a0.15,0.15 0 1,1 0.3,0 a0.15,0.15 0 1,1 -0.3,0z" transform="matrix(1,0,0,-1,3.529262,3.65)" fill="rgb(255,255,255)" stroke="rgb(0,0,0)" stroke-width="0.0010cm" stroke-linecap="round" stroke-linejoin="round" shaper:cutDepth="0.3cm" /><path d="M-1.766392,0.0718579 a0.15,0.15 0 1,1 0.3,0 a0.15,0.15 0 1,1 -0.3,0z" transform="matrix(1,0,0,-1,3.529262,3.65)" fill="rgb(255,255,255)" stroke="rgb(0,0,0)" stroke-width="0.0010cm" stroke-linecap="round" stroke-linejoin="round" shaper:cutDepth="0.3cm" /><path d="M1.0973399,-0.4683494 a0.15,0.15 0 1,1 0.3,0 a0.15,0.15 0 1,1 -0.3,0z" transform="matrix(1,0,0,-1,3.529262,3.65)" fill="rgb(255,255,255)" stroke="rgb(0,0,0)" stroke-width="0.0010cm" stroke-linecap="round" stroke-linejoin="round" shaper:cutDepth="0.3cm" /><path d="M-2.5342727,1.25 L-2.5342727,-1.25 -2.2342727,-1.25 -2.2342727,1.25 -2.5342727,1.25z" transform="matrix(1,0,0,-1,3.529262,3.65)" fill="rgb(255,255,255)" stroke="rgb(0,0,0)" stroke-width="0.0010cm" stroke-linecap="round" stroke-linejoin="round" shaper:cutDepth="0.3cm" /><path d="M2.979262,-3.25 a0.15,0.15 0 1,1 0.3,0 a0.15,0.15 0 1,1 -0.3,0z" transform="matrix(1,0,0,-1,3.529262,3.65)" fill="rgb(255,255,255)" stroke="rgb(0,0,0)" stroke-width="0.0010cm" stroke-linecap="round" stroke-linejoin="round" shaper:cutDepth="0.3cm" /><path d="M-1.520738,3.25 a0.15,0.15 0 1,1 0.3,0 a0.15,0.15 0 1,1 -0.3,0z" transform="matrix(1,0,0,-1,3.529262,3.65)" fill="rgb(255,255,255)" stroke="rgb(0,0,0)" stroke-width="0.0010cm" stroke-linecap="round" stroke-linejoin="round" shaper:cutDepth="0.3cm" /><path d="M2.979262,3.25 a0.15,0.15 0 1,1 0.3,0 a0.15,0.15 0 1,1 -0.3,0z" transform="matrix(1,0,0,-1,3.529262,3.65)" fill="rgb(255,255,255)" stroke="rgb(0,0,0)" stroke-width="0.0010cm" stroke-linecap="round" stroke-linejoin="round" shaper:cutDepth="0.3cm" /><path d="M-1.520738,-3.25 a0.15,0.15 0 1,1 0.3,0 a0.15,0.15 0 1,1 -0.3,0z" transform="matrix(1,0,0,-1,3.529262,3.65)" fill="rgb(255,255,255)" stroke="rgb(0,0,0)" stroke-width="0.0010cm" stroke-linecap="round" stroke-linejoin="round" shaper:cutDepth="0.3cm" /><path d="M-2.1707381,2 L-0.870738,2 -0.870738,2.7500001 -2.1707381,2.7500001 A0.3,0.3 90 0,1 -2.4707381,2.4500001 L-2.4707381,2.3 A0.3,0.3 180 0,1 -2.1707381,2z" transform="matrix(1,0,0,-1,3.529262,3.65)" fill="rgb(255,255,255)" stroke="rgb(0,0,0)" stroke-width="0.0010cm" stroke-linecap="round" stroke-linejoin="round" shaper:cutDepth="0.3cm" /></svg>