<?xml version="1.0" encoding="utf-8"?>
<!-- Generator: Fusion 360, Shaper Origin Export Add-In, Version 1.7.0  -->
<svg xmlns="http://www.w3.org/2000/svg" xmlns:xlink="http://www.w3.org/1999/xlink" xmlns:shaper="http://www.shapertools.com/namespaces/shaper" shaper:fusionaddin="version:1.7.0" width="7.058524cm" height="7.3cm" version="1.1" x="0cm" y="0cm" viewBox="0 0 7.058524 7.3" enable-background="new 0 0 7.058524 7.3" xml:space="preserve"><path d="M-3.529262,-2.0046781 L-1.8572407,-3.5690658 A0.3,0.3 226.9047902 0,1 -1.6522768,-3.65 L3.229262,-3.65 A0.3,0.3 270 0,1 3.529262,-3.35 L3.529262,-2.7885309 3.229262,-2.7885309 3.229262,-0.7885309 3.529262,-0.7885309 3.529262,3.35 A0.3,0.3 0 0,1 3.229262,3.65 L-1.6522768,3.65 A0.3,0.3 90 0,1 -1.8572407,3.5690658 L-3.529262,2.0046781 -3.529262,1.65 -3.2342727,1.65 -3.2342727,-1.65 -3.529262,-1.65 -3.529262,-2.0046781z" transform="matrix(1,0,0,-1,3.529262,3.65)" fill="rgb(0,0,0)" shaper:cutDepth="0.3cm" stroke-linecap="round" stroke-linejoin="round" /><path d="M2.7905542,2.1228431 L2.7905542,1.8584501 2.7905542,1.8584501 2.7818294,1.8587051 2.7732125,1.8596009 2.7647758,1.8615681 2.7564478,1.86418 2.7564478,1.86418 2.7421749,1.8706507 2.72845,1.878031 2.7155953,1.886856 2.7032418,1.8965129 2.7032418,1.8965129 2.6871103,1.9116361 2.671567,1.9273194 2.6568827,1.9438205 2.6426688,1.9607694 2.6426688,1.9607694 2.6230858,1.98437 2.6027273,2.0072094 2.5808958,2.0286026 2.5579485,2.0489003 2.5579485,2.0489003 2.5443659,2.0578187 2.5373843,2.0617659 2.5301741,2.0650985 2.5226669,2.0676321 2.5148882,2.0694355 2.4988762,2.0718199 2.4988762,2.0718199 2.4850347,2.0702042 2.4783741,2.0687833 2.4720258,2.0666269 2.46606,2.0635692 2.4604079,2.0597724 2.4496265,2.0509467 2.4496265,2.0509467 2.4408342,2.038766 2.4371024,2.0324246 2.4341676,2.025782 2.4321621,2.0187884 2.4308908,2.0115173 2.4295719,1.9965129 2.4295719,1.9965129 2.4309406,1.9807998 2.4322772,1.9731949 2.4343966,1.9658921 2.4375102,1.9589729 2.4414814,1.9523845 2.4508543,1.9397598 2.4508543,1.9397598 2.4640077,1.9302132 2.470867,1.9261835 2.478065,1.9230445 2.4856471,1.920916 2.4935285,1.9195747 2.5097902,1.9182046 2.504606,1.8677271 2.504606,1.8677271 2.4804096,1.8717734 2.4687476,1.8747273 2.4576091,1.8787982 2.4471431,1.884304 2.4372717,1.8910783 2.4185215,1.9067448 2.4185215,1.9067448 2.4052443,1.9274662 2.3996588,1.9381841 2.3953348,1.94933 2.3924364,1.9609596 2.3906471,1.9729655 2.3889171,1.9976043 2.3889171,1.9976043 2.39083,2.0225947 2.3927786,2.034729 2.3959176,2.0464302 2.4005826,2.0575764 2.406589,2.0682346 2.4208407,2.0887366 2.4208407,2.0887366 2.4381381,2.1029655 2.4472119,2.1090808 2.4567959,2.1139971 2.467,2.1174561 2.4777088,2.1197288 2.4999676,2.1222974 2.4999676,2.1222974 2.5121101,2.1214942 2.5240646,2.1197814 2.5357095,2.1165718 2.5471709,2.1124747 2.5471709,2.1124747 2.560295,2.1057113 2.5728899,2.0981443 2.5846771,2.0893506 2.5960112,2.079869 2.5960112,2.079869 2.6144899,2.061767 2.6324208,2.04315 2.6664068,2.0041527 2.6664068,2.0041527 2.6909671,1.9752285 2.7167479,1.9473997 2.7167479,1.9473997 2.7295083,1.9363343 2.743351,1.926663 2.743351,2.1228431 2.7905542,2.1228431z" transform="matrix(1,0,0,-1,3.529262,3.65)" fill="rgb(116,116,116)" fill-rule="nonzero" shaper:cutDepth="0.05cm" stroke-linecap="round" stroke-linejoin="round" /><path d="M0.472013,2.0768952 L0.472013,1.8125023 0.472013,1.8125023 0.4632882,1.8127573 0.4546713,1.8136531 0.4462347,1.8156202 0.4379066,1.8182322 0.4379066,1.8182322 0.4236337,1.8247028 0.4099088,1.8320831 0.3970541,1.8409081 0.3847006,1.8505651 0.3847006,1.8505651 0.3685691,1.8656883 0.3530259,1.8813716 0.3383416,1.8978726 0.3241277,1.9148215 0.3241277,1.9148215 0.3045446,1.9384222 0.2841861,1.9612616 0.2623546,1.9826548 0.2394073,2.0029525 0.2394073,2.0029525 0.2258248,2.0118709 0.2188431,2.015818 0.211633,2.0191506 0.2041257,2.0216842 0.196347,2.0234876 0.180335,2.025872 0.180335,2.025872 0.1664935,2.0242563 0.159833,2.0228355 0.1534846,2.020679 0.1475188,2.0176214 0.1418667,2.0138245 0.1310853,2.0049989 0.1310853,2.0049989 0.122293,1.9928181 0.1185613,1.9864767 0.1156264,1.9798342 0.113621,1.9728405 0.1123497,1.9655695 0.1110308,1.9505651 0.1110308,1.9505651 0.1123994,1.934852 0.1137361,1.9272471 0.1158555,1.9199443 0.118969,1.913025 0.1229403,1.9064367 0.1323132,1.893812 0.1323132,1.893812 0.1454665,1.8842654 0.1523258,1.8802356 0.1595238,1.8770967 0.1671059,1.8749681 0.1749873,1.8736269 0.1912491,1.8722567 0.1860649,1.8217793 0.1860649,1.8217793 0.1618684,1.8258255 0.1502064,1.8287795 0.1390679,1.8328503 0.128602,1.8383561 0.1187305,1.8451304 0.0999803,1.860797 0.0999803,1.860797 0.0867031,1.8815183 0.0811177,1.8922363 0.0767937,1.9033822 0.0738952,1.9150118 0.0721059,1.9270176 0.0703759,1.9516565 0.0703759,1.9516565 0.0722889,1.9766468 0.0742374,1.9887811 0.0773765,2.0004823 0.0820414,2.0116285 0.0880478,2.0222868 0.1022995,2.0427888 0.1022995,2.0427888 0.1195969,2.0570176 0.1286708,2.0631329 0.1382547,2.0680493 0.1484588,2.0715082 0.1591676,2.073781 0.1814264,2.0763495 0.1814264,2.0763495 0.1935689,2.0755463 0.2055234,2.0738336 0.2171683,2.0706239 0.2286297,2.0665269 0.2286297,2.0665269 0.2417539,2.0597635 0.2543488,2.0521964 0.2661359,2.0434028 0.2774701,2.0339211 0.2774701,2.0339211 0.2959487,2.0158191 0.3138796,1.9972021 0.3478657,1.9582049 0.3478657,1.9582049 0.3724259,1.9292806 0.3982068,1.9014518 0.3982068,1.9014518 0.4109672,1.8903864 0.4248098,1.8807151 0.4248098,2.0768952 0.472013,2.0768952z" transform="matrix(1,0,0,-1,3.529262,3.65)" fill="rgb(116,116,116)" fill-rule="nonzero" shaper:cutDepth="0.05cm" stroke-linecap="round" stroke-linejoin="round" /><path d="M1.052517,-0.1239765 L1.052517,-0.1239765 1.0682752,-0.1206176 1.0758956,-0.1184071 1.0832054,-0.1155594 1.0901128,-0.1118859 1.0966561,-0.1074651 1.1091336,-0.0973735 1.1091336,-0.0973735 1.1172246,-0.0860593 1.1206939,-0.0801835 1.1234718,-0.0740455 1.1254153,-0.0675909 1.126684,-0.0608803 1.1280968,-0.0470325 1.1280968,-0.0470325 1.1259553,-0.0300097 1.1241064,-0.0218436 1.1213237,-0.0140918 1.1174073,-0.0068431 1.1125693,-0.0000033 1.1013574,0.0129948 1.1013574,0.0129948 1.0853266,0.0238959 1.0770084,0.0285003 1.0683271,0.0320906 1.0592296,0.0345181 1.0498061,0.0360351 1.030416,0.0375514 1.030416,0.0375514 1.0121829,0.0361351 1.0033373,0.0346937 0.994817,0.0323724 0.9867135,0.0289234 0.9789763,0.0244835 0.9641132,0.0139498 0.9641132,0.0139498 0.9535393,0.0003062 0.9490397,-0.0068315 0.9454845,-0.0143481 0.9430409,-0.0223106 0.94148,-0.0306273 0.9398294,-0.047851 0.9398294,-0.047851 0.9406045,-0.0590489 0.9424111,-0.0699843 0.9459715,-0.0804733 0.950607,-0.0906887 0.950607,-0.0906887 0.9563166,-0.0993928 0.9627159,-0.107451 0.9702866,-0.1144124 0.9785743,-0.1207023 0.9725716,-0.1668142 0.7671145,-0.1280693 0.7671145,0.0708393 0.8140449,0.0708393 0.8140449,-0.0887787 0.9215484,-0.110334 0.9215484,-0.110334 0.9112268,-0.0927632 0.9067422,-0.0837566 0.9030689,-0.0744843 0.9004124,-0.0648793 0.8986137,-0.0549936 0.896446,-0.0347542 0.896446,-0.0347542 0.8992073,-0.0100521 0.9016584,0.0018578 0.905394,0.0132382 0.9107101,0.0239673 0.9173283,0.0341596 0.9327353,0.0536497 0.9327353,0.0536497 0.9534573,0.0692832 0.9642729,0.0759438 0.975634,0.0812174 0.9876394,0.084852 1.000158,0.0871817 1.0260504,0.089666 1.0260504,0.089666 1.0514307,0.0873712 1.0637988,0.085279 1.0757804,0.0820531 1.0872813,0.077417 1.0983809,0.0716038 1.1199112,0.0580153 1.1199112,0.0580153 1.1306602,0.0470759 1.1408033,0.0358527 1.1497345,0.0240617 1.156848,0.0114192 1.1617895,-0.0022409 1.1649877,-0.0167177 1.1670238,-0.031739 1.1684788,-0.0470325 1.1684788,-0.0470325 1.1665175,-0.0713076 1.1645998,-0.0831145 1.1615577,-0.0945247 1.157087,-0.1054308 1.1513833,-0.1159019 1.1379194,-0.1361184 1.1379194,-0.1361184 1.1203667,-0.1514654 1.1111199,-0.1581844 1.1013085,-0.1637582 1.0908267,-0.1679723 1.0798095,-0.1711001 1.0568826,-0.1755454 1.052517,-0.1239765z" transform="matrix(1,0,0,-1,3.529262,3.65)" fill="rgb(116,116,116)" fill-rule="nonzero" shaper:cutDepth="0.05cm" stroke-linecap="round" stroke-linejoin="round" /><path d="M0.0477437,-1.7399421 L0.0477437,-2.004335 0.0477437,-2.004335 0.0390189,-2.00408 0.030402,-2.0031842 0.0219654,-2.0012171 0.0136373,-1.9986051 0.0136373,-1.9986051 -0.0006356,-1.9921344 -0.0143605,-1.9847542 -0.0272152,-1.9759292 -0.0395687,-1.9662722 -0.0395687,-1.9662722 -0.0557002,-1.951149 -0.0712434,-1.9354657 -0.0859278,-1.9189647 -0.1001417,-1.9020158 -0.1001417,-1.9020158 -0.1197247,-1.8784151 -0.1400832,-1.8555757 -0.1619147,-1.8341825 -0.184862,-1.8138848 -0.184862,-1.8138848 -0.1984445,-1.8049664 -0.2054262,-1.8010193 -0.2126363,-1.7976867 -0.2201436,-1.7951531 -0.2279223,-1.7933497 -0.2439343,-1.7909653 -0.2439343,-1.7909653 -0.2577758,-1.792581 -0.2644363,-1.7940018 -0.2707847,-1.7961583 -0.2767505,-1.7992159 -0.2824026,-1.8030128 -0.293184,-1.8118384 -0.293184,-1.8118384 -0.3019763,-1.8240192 -0.305708,-1.8303606 -0.3086429,-1.8370031 -0.3106483,-1.8439968 -0.3119196,-1.8512678 -0.3132385,-1.8662722 -0.3132385,-1.8662722 -0.3118699,-1.8819853 -0.3105333,-1.8895902 -0.3084138,-1.896893 -0.3053003,-1.9038123 -0.301329,-1.9104006 -0.2919561,-1.9230253 -0.2919561,-1.9230253 -0.2788028,-1.9325719 -0.2719435,-1.9366017 -0.2647455,-1.9397406 -0.2571634,-1.9418692 -0.249282,-1.9432104 -0.2330203,-1.9445806 -0.2382044,-1.995058 -0.2382044,-1.995058 -0.2624009,-1.9910117 -0.2740629,-1.9880578 -0.2852014,-1.983987 -0.2956673,-1.9784812 -0.3055388,-1.9717068 -0.324289,-1.9560403 -0.324289,-1.9560403 -0.3375662,-1.935319 -0.3431516,-1.924601 -0.3474756,-1.9134551 -0.3503741,-1.9018255 -0.3521634,-1.8898197 -0.3538934,-1.8651808 -0.3538934,-1.8651808 -0.3519804,-1.8401905 -0.3500319,-1.8280562 -0.3468928,-1.8163549 -0.3422279,-1.8052088 -0.3362215,-1.7945505 -0.3219698,-1.7740485 -0.3219698,-1.7740485 -0.3046724,-1.7598197 -0.2955985,-1.7537044 -0.2860146,-1.748788 -0.2758105,-1.7453291 -0.2651017,-1.7430563 -0.2428429,-1.7404878 -0.2428429,-1.7404878 -0.2307004,-1.741291 -0.2187459,-1.7430037 -0.207101,-1.7462134 -0.1956396,-1.7503104 -0.1956396,-1.7503104 -0.1825155,-1.7570738 -0.1699205,-1.7646409 -0.1581334,-1.7734345 -0.1467992,-1.7829162 -0.1467992,-1.7829162 -0.1283206,-1.8010182 -0.1103897,-1.8196352 -0.0764036,-1.8586324 -0.0764036,-1.8586324 -0.0518434,-1.8875567 -0.0260626,-1.9153855 -0.0260626,-1.9153855 -0.0133021,-1.9264509 0.0005405,-1.9361222 0.0005405,-1.7399421 0.0477437,-1.7399421z" transform="matrix(1,0,0,-1,3.529262,3.65)" fill="rgb(116,116,116)" fill-rule="nonzero" shaper:cutDepth="0.05cm" stroke-linecap="round" stroke-linejoin="round" /><path d="M-0.8581322,0.2076831 L-0.8581322,-0.0567098 -0.8581322,-0.0567098 -0.8668571,-0.0564549 -0.875474,-0.0555591 -0.8839106,-0.0535919 -0.8922387,-0.05098 -0.8922387,-0.05098 -0.9065116,-0.0445093 -0.9202365,-0.037129 -0.9330912,-0.028304 -0.9454446,-0.0186471 -0.9454446,-0.0186471 -0.9615762,-0.0035239 -0.9771194,0.0121595 -0.9918037,0.0286605 -1.0060176,0.0456094 -1.0060176,0.0456094 -1.0256007,0.0692101 -1.0459592,0.0920494 -1.0677907,0.1134426 -1.090738,0.1337404 -1.090738,0.1337404 -1.1043205,0.1426588 -1.1113022,0.1466059 -1.1185123,0.1499385 -1.1260196,0.1524721 -1.1337983,0.1542755 -1.1498103,0.1566599 -1.1498103,0.1566599 -1.1636518,0.1550442 -1.1703123,0.1536233 -1.1766606,0.1514669 -1.1826265,0.1484092 -1.1882786,0.1446124 -1.1990599,0.1357868 -1.1990599,0.1357868 -1.2078523,0.123606 -1.211584,0.1172646 -1.2145189,0.1106221 -1.2165243,0.1036284 -1.2177956,0.0963574 -1.2191145,0.0813529 -1.2191145,0.0813529 -1.2177459,0.0656398 -1.2164092,0.058035 -1.2142898,0.0507321 -1.2111763,0.0438129 -1.207205,0.0372246 -1.1978321,0.0245998 -1.1978321,0.0245998 -1.1846788,0.0150533 -1.1778195,0.0110235 -1.1706215,0.0078845 -1.1630394,0.005756 -1.155158,0.0044148 -1.1388962,0.0030446 -1.1440804,-0.0474329 -1.1440804,-0.0474329 -1.1682769,-0.0433866 -1.1799388,-0.0404327 -1.1910773,-0.0363618 -1.2015433,-0.030856 -1.2114147,-0.0240817 -1.230165,-0.0084151 -1.230165,-0.0084151 -1.2434422,0.0123062 -1.2490276,0.0230242 -1.2533516,0.0341701 -1.2562501,0.0457996 -1.2580394,0.0578055 -1.2597694,0.0824443 -1.2597694,0.0824443 -1.2578564,0.1074347 -1.2559079,0.119569 -1.2527688,0.1312702 -1.2481039,0.1424164 -1.2420975,0.1530746 -1.2278458,0.1735766 -1.2278458,0.1735766 -1.2105483,0.1878055 -1.2014745,0.1939208 -1.1918905,0.1988371 -1.1816865,0.2022961 -1.1709777,0.2045688 -1.1487189,0.2071374 -1.1487189,0.2071374 -1.1365763,0.2063342 -1.1246219,0.2046214 -1.112977,0.2014118 -1.1015156,0.1973147 -1.1015156,0.1973147 -1.0883914,0.1905514 -1.0757965,0.1829843 -1.0640093,0.1741906 -1.0526752,0.164709 -1.0526752,0.164709 -1.0341966,0.146607 -1.0162657,0.12799 -0.9822796,0.0889928 -0.9822796,0.0889928 -0.9577194,0.0600685 -0.9319385,0.0322397 -0.9319385,0.0322397 -0.9191781,0.0211743 -0.9053355,0.011503 -0.9053355,0.2076831 -0.8581322,0.2076831z" transform="matrix(1,0,0,-1,3.529262,3.65)" fill="rgb(116,116,116)" fill-rule="nonzero" shaper:cutDepth="0.05cm" stroke-linecap="round" stroke-linejoin="round" /><path d="M0.7686428,-3.3738257 L0.7686428,-3.3738257 0.7887455,-3.3692403 0.7984807,-3.3663113 0.8078365,-3.3626188 0.8166952,-3.3579259 0.8250867,-3.3522926 0.8410848,-3.3394465 0.8410848,-3.3394465 0.8509735,-3.3246908 0.8551674,-3.3170465 0.8584611,-3.3090826 0.860708,-3.3007469 0.8621291,-3.292118 0.863595,-3.2743714 0.863595,-3.2743714 0.8625353,-3.2587312 0.8599688,-3.243492 0.8576919,-3.2361369 0.854811,-3.2289425 0.8480425,-3.2148216 0.8480425,-3.2148216 0.8393586,-3.2026516 0.8297421,-3.1914038 0.8185816,-3.1816823 0.8065009,-3.1728707 0.8065009,-3.1728707 0.7897186,-3.1640996 0.7724857,-3.1564562 0.7545829,-3.1504894 0.7363099,-3.1454492 0.7363099,-3.1454492 0.7140338,-3.1407806 0.6916298,-3.1371528 0.6690131,-3.135257 0.6462689,-3.1343987 0.6462689,-3.1343987 0.631535,-3.134808 0.631535,-3.134808 0.6484092,-3.1474309 0.6563979,-3.1541681 0.6638486,-3.1614161 0.6706523,-3.1692783 0.6769344,-3.1776358 0.6886291,-3.1951763 0.6886291,-3.1951763 0.6978932,-3.214893 0.7018777,-3.2249226 0.7050853,-3.2351579 0.7073462,-3.2456438 0.708835,-3.2563339 0.7105255,-3.2780549 0.7105255,-3.2780549 0.7087255,-3.2959338 0.7062928,-3.3135418 0.7025949,-3.3306077 0.7000738,-3.3388528 0.6969991,-3.3468607 0.6933186,-3.354609 0.6890854,-3.3621206 0.6792767,-3.3765688 0.6682047,-3.3904758 0.6565009,-3.4041122 0.6565009,-3.4041122 0.6406601,-3.415825 0.6245602,-3.4268427 0.6079423,-3.4364704 0.5993582,-3.4405457 0.5905479,-3.4440143 0.5722544,-3.4491458 0.5532535,-3.4523788 0.5337809,-3.4543464 0.5140725,-3.4556811 0.5140725,-3.4556811 0.4936997,-3.4542791 0.4735754,-3.4522173 0.4539483,-3.4488361 0.4443988,-3.4464445 0.4350669,-3.4434757 0.4259807,-3.4398545 0.4171325,-3.4356019 0.4000149,-3.4255602 0.3834423,-3.4140722 0.3671421,-3.4018612 0.3671421,-3.4018612 0.354921,-3.3871933 0.3433778,-3.3722435 0.3331904,-3.3567298 0.328817,-3.3486733 0.3250367,-3.3403702 0.3218969,-3.3318006 0.3193352,-3.3229906 0.3156158,-3.3047865 0.3132178,-3.2860329 0.3114804,-3.2670044 0.3114804,-3.2670044 0.313913,-3.2386416 0.3160555,-3.2247334 0.3193094,-3.211153 0.3239259,-3.1979745 0.3296608,-3.1851259 0.3429947,-3.1599785 0.3429947,-3.1599785 0.3615893,-3.1368846 0.3715577,-3.1261497 0.3823312,-3.1163891 0.3940625,-3.1077875 0.4065598,-3.1001129 0.432831,-3.0863086 0.432831,-3.0863086 0.474086,-3.0741758 0.4948954,-3.0692255 0.5159194,-3.0655922 0.5371615,-3.0632975 0.5585686,-3.0620152 0.6016578,-3.0611381 0.6016578,-3.0611381 0.6482038,-3.0621991 0.6713571,-3.0635478 0.6943667,-3.0658784 0.7171875,-3.0694989 0.7398288,-3.0743458 0.7848092,-3.086104 0.7848092,-3.086104 0.8146198,-3.0993469 0.8288864,-3.1068472 0.8423864,-3.1154021 0.8549121,-3.1252973 0.8665963,-3.1363504 0.8885609,-3.1603878 0.8885609,-3.1603878 0.9039099,-3.187281 0.9104664,-3.2010765 0.9156814,-3.2152907 0.9192973,-3.2300038 0.9216325,-3.2451167 0.924168,-3.2760085 0.924168,-3.2760085 0.9216673,-3.3073028 0.9192177,-3.3225306 0.915329,-3.3372551 0.9096113,-3.35134 0.9023134,-3.3648724 0.8850821,-3.3910153 0.8850821,-3.3910153 0.8611948,-3.4115926 0.8486159,-3.4206102 0.8352753,-3.4281039 0.8210575,-3.4338426 0.8061512,-3.4382038 0.7751912,-3.4446306 0.7686428,-3.3738257z M0.4097069,-3.1767589 L0.4097069,-3.1767589 0.3942293,-3.1942691 0.3875294,-3.203496 0.3820762,-3.213289 0.3781701,-3.2237845 0.3755521,-3.2348648 0.3724627,-3.2580003 0.3724627,-3.2580003 0.3759274,-3.2824129 0.3788019,-3.2940922 0.3830469,-3.3051393 0.3889161,-3.3154369 0.3960813,-3.3251365 0.4125718,-3.3435392 0.4125718,-3.3435392 0.4360662,-3.3595714 0.4482535,-3.3663658 0.4609685,-3.371695 0.4742958,-3.3753245 0.4881053,-3.3776151 0.5165282,-3.3799649 0.5165282,-3.3799649 0.5422217,-3.3776693 0.5546679,-3.3754685 0.5666333,-3.3720041 0.5779911,-3.3669424 0.5888291,-3.3605146 0.6096387,-3.345381 0.6096387,-3.345381 0.6248229,-3.3266709 0.6313486,-3.3168669 0.6365947,-3.3065242 0.6402854,-3.2955266 0.6427103,-3.283996 0.6454504,-3.2600468 0.6454504,-3.2600468 0.6428044,-3.2363114 0.6404173,-3.2249008 0.6367533,-3.2140385 0.6315074,-3.2038557 0.6249477,-3.1942371 0.6096387,-3.1759403 0.6096387,-3.1759403 0.5871384,-3.1610522 0.5754712,-3.154808 0.5633048,-3.1499998 0.5505803,-3.1467972 0.5374234,-3.1448383 0.5103891,-3.1429935 0.5103891,-3.1429935 0.482965,-3.144978 0.4696205,-3.1470234 0.4567171,-3.1503325 0.4443802,-3.1552648 0.4325439,-3.1616313 0.4097069,-3.1767589z" transform="matrix(1,0,0,-1,3.529262,3.65)" fill="rgb(116,116,116)" fill-rule="nonzero" shaper:cutDepth="0.05cm" stroke-linecap="round" stroke-linejoin="round" /><path d="M-0.5522563,-2.2082231 a0.15,0.15 0 1,1 0.3,0 a0.15,0.15 0 1,1 -0.3,0z" transform="matrix(1,0,0,-1,3.529262,3.65)" fill="rgb(255,255,255)" stroke="rgb(0,0,0)" stroke-width="0.0010cm" stroke-linecap="round" stroke-linejoin="round" shaper:cutDepth="0.3cm" /><path d="M2.1905542,1.654562 a0.15,0.15 0 1,1 0.3,0 a0.15,0.15 0 1,1 -0.3,0z" transform="matrix(1,0,0,-1,3.529262,3.65)" fill="rgb(255,255,255)" stroke="rgb(0,0,0)" stroke-width="0.0010cm" stroke-linecap="round" stroke-linejoin="round" shaper:cutDepth="0.3cm" /><path d="M-0.127987,1.6086142 a0.15,0.15 0 1,1 0.3,0 a0.15,0.15 0 1,1 -0.3,0z" transform="matrix(1,0,0,-1,3.529262,3.65)" fill="rgb(255,255,255)" stroke="rgb(0,0,0)" stroke-width="0.0010cm" stroke-linecap="round" stroke-linejoin="round" shaper:cutDepth="0.3cm" /><path d="M0.564386,-0.3821621 a0.15,0.15 0 1,1 0.3,0 a0.15,0.15 0 1,1 -0.3,0z" transform="matrix(1,0,0,-1,3.529262,3.65)" fill="rgb(255,255,255)" stroke="rgb(0,0,0)" stroke-width="0.0010cm" stroke-linecap="round" stroke-linejoin="round" shaper:cutDepth="0.3cm" /><path d="M-1.4581323,-0.260598 a0.15,0.15 0 1,1 0.3,0 a0.15,0.15 0 1,1 -0.3,0z" transform="matrix(1,0,0,-1,3.529262,3.65)" fill="rgb(255,255,255)" stroke="rgb(0,0,0)" stroke-width="0.0010cm" stroke-linecap="round" stroke-linejoin="round" shaper:cutDepth="0.3cm" /><path d="M-2.5342727,1.25 L-2.5342727,-1.25 -2.2342727,-1.25 -2.2342727,1.25 -2.5342727,1.25z" transform="matrix(1,0,0,-1,3.529262,3.65)" fill="rgb(255,255,255)" stroke="rgb(0,0,0)" stroke-width="0.0010cm" stroke-linecap="round" stroke-linejoin="round" shaper:cutDepth="0.3cm" /><path d="M2.979262,-3.25 a0.15,0.15 0 1,1 0.3,0 a0.15,0.15 0 1,1 -0.3,0z" transform="matrix(1,0,0,-1,3.529262,3.65)" fill="rgb(255,255,255)" stroke="rgb(0,0,0)" stroke-width="0.0010cm" stroke-linecap="round" stroke-linejoin="round" shaper:cutDepth="0.3cm" /><path d="M-1.520738,3.25 a0.15,0.15 0 1,1 0.3,0 a0.15,0.15 0 1,1 -0.3,0z" transform="matrix(1,0,0,-1,3.529262,3.65)" fill="rgb(255,255,255)" stroke="rgb(0,0,0)" stroke-width="0.0010cm" stroke-linecap="round" stroke-linejoin="round" shaper:cutDepth="0.3cm" /><path d="M2.979262,3.25 a0.15,0.15 0 1,1 0.3,0 a0.15,0.15 0 1,1 -0.3,0z" transform="matrix(1,0,0,-1,3.529262,3.65)" fill="rgb(255,255,255)" stroke="rgb(0,0,0)" stroke-width="0.0010cm" stroke-linecap="round" stroke-linejoin="round" shaper:cutDepth="0.3cm" /><path d="M-1.520738,-3.25 a0.15,0.15 0 1,1 0.3,0 a0.15,0.15 0 1,1 -0.3,0z" transform="matrix(1,0,0,-1,3.529262,3.65)" fill="rgb(255,255,255)" stroke="rgb(0,0,0)" stroke-width="0.0010cm" stroke-linecap="round" stroke-linejoin="round" shaper:cutDepth="0.3cm" /><path d="M-2.1707381,2 L-0.870738,2 -0.870738,2.7500001 -2.1707381,2.7500001 A0.3,0.3 90 0,1 -2.4707381,2.4500001 L-2.4707381,2.3 A0.3,0.3 180 0,1 -2.1707381,2z" transform="matrix(1,0,0,-1,3.529262,3.65)" fill="rgb(255,255,255)" stroke="rgb(0,0,0)" stroke-width="0.0010cm" stroke-linecap="round" stroke-linejoin="round" shaper:cutDepth="0.3cm" /></svg>