<?xml version="1.0" encoding="UTF-8"?>
<svg id="Layer_1" data-name="Layer 1" xmlns="http://www.w3.org/2000/svg" version="1.1" viewBox="0 0 864 864">
  <defs>
    <style>
      .cls-1 {
        fill: #010101;
      }

      .cls-1, .cls-2 {
        stroke-width: 0px;
      }

      .cls-3 {
        fill: #fff;
        stroke: #010101;
        stroke-linecap: round;
        stroke-linejoin: round;
        stroke-width: .8px;
      }

      .cls-2 {
        fill: #757575;
      }
    </style>
  </defs>
  <g>
    <path class="cls-1" d="M648.46,802.83l47.4,44.34c1.58,1.47,3.65,2.29,5.81,2.29h138.37c4.7,0,8.5-3.81,8.5-8.5h0v-15.92h-8.5v-56.69h8.5v-117.31c0-4.7-3.81-8.5-8.5-8.5h-138.37c-2.16,0-4.23.82-5.81,2.29l-47.4,44.34v10.05h8.36v93.54h-8.36v10.05Z"/>
    <path class="cls-3" d="M686.97,689.31h36.85v-21.26h-36.85c-4.7,0-8.5,3.81-8.5,8.5h0v4.25c0,4.7,3.81,8.5,8.5,8.5h0Z"/>
    <path class="cls-3" d="M705.39,838.13c0,2.35,1.9,4.25,4.25,4.25s4.25-1.9,4.25-4.25c0-2.35-1.9-4.25-4.25-4.25-2.35,0-4.25,1.9-4.25,4.25,0,0,0,0,0,0Z"/>
    <path class="cls-3" d="M832.95,653.87c0,2.35,1.9,4.25,4.25,4.25,2.35,0,4.25-1.9,4.25-4.25h0c0-2.35-1.9-4.26-4.25-4.26-2.35,0-4.25,1.9-4.25,4.25h0Z"/>
    <path class="cls-3" d="M705.39,653.87c0,2.35,1.9,4.25,4.25,4.25s4.25-1.9,4.25-4.25h0c0-2.35-1.9-4.25-4.25-4.25-2.35,0-4.25,1.9-4.25,4.25,0,0,0,0,0,0Z"/>
    <path class="cls-3" d="M832.95,838.13c0,2.35,1.9,4.25,4.25,4.25,2.35,0,4.25-1.9,4.25-4.25h0c0-2.35-1.9-4.26-4.25-4.26-2.35,0-4.25,1.9-4.25,4.25h0Z"/>
    <path class="cls-3" d="M676.66,710.57v70.87h8.5v-70.87h-8.5Z"/>
    <path class="cls-3" d="M808.7,815.16c0,2.35,1.9,4.25,4.25,4.25,2.35,0,4.25-1.9,4.25-4.25h0c0-2.35-1.9-4.26-4.25-4.26-2.35,0-4.25,1.9-4.25,4.25h0Z"/>
    <path class="cls-3" d="M765.43,767.73c0,2.35,1.9,4.25,4.25,4.25s4.25-1.9,4.25-4.25-1.9-4.25-4.25-4.25-4.25,1.9-4.25,4.25Z"/>
    <path class="cls-3" d="M710.46,731.11c0,2.35,1.9,4.25,4.25,4.25,2.35,0,4.25-1.9,4.25-4.25h0c0-2.35-1.9-4.26-4.25-4.26-2.35,0-4.25,1.9-4.25,4.25h0Z"/>
    <path class="cls-3" d="M723.82,823.66c0,2.35,1.9,4.25,4.25,4.25s4.25-1.9,4.25-4.25h0c0-2.35-1.9-4.25-4.25-4.25s-4.25,1.9-4.25,4.25Z"/>
    <path class="cls-3" d="M813.8,727.05c0,2.35,1.9,4.25,4.25,4.25,2.35,0,4.25-1.9,4.25-4.25h0c0-2.35-1.9-4.26-4.25-4.26-2.35,0-4.25,1.9-4.25,4.25h0Z"/>
    <path class="cls-1" d="M435.67,802.83l47.4,44.34c1.58,1.47,3.65,2.29,5.81,2.29h138.37c4.7,0,8.5-3.81,8.5-8.5h0v-15.92h-8.5v-56.69h8.5v-117.31c0-4.7-3.81-8.5-8.5-8.5h-138.37c-2.16,0-4.23.82-5.81,2.29l-47.4,44.34v10.05h8.36v93.54h-8.36v10.05Z"/>
    <path class="cls-3" d="M531.98,790.95c0,2.35,1.9,4.25,4.25,4.25s4.25-1.9,4.25-4.25h0c0-2.35-1.9-4.25-4.25-4.25s-4.25,1.9-4.25,4.25Z"/>
    <path class="cls-3" d="M481.57,725.8c0,2.35,1.9,4.25,4.25,4.25s4.25-1.9,4.25-4.25c0-2.35-1.9-4.25-4.25-4.25-2.35,0-4.25,1.9-4.25,4.25,0,0,0,0,0,0Z"/>
    <path class="cls-3" d="M476.35,809.53c0,2.35,1.9,4.25,4.25,4.25,2.35,0,4.25-1.9,4.25-4.25h0c0-2.35-1.9-4.26-4.25-4.26s-4.25,1.9-4.25,4.25h0Z"/>
    <path class="cls-3" d="M541.11,719.26c0,2.35,1.9,4.25,4.25,4.25s4.25-1.9,4.25-4.25-1.9-4.25-4.25-4.25-4.25,1.9-4.25,4.25Z"/>
    <path class="cls-3" d="M602.27,818.12c0,2.35,1.9,4.25,4.25,4.25,2.35,0,4.25-1.9,4.25-4.25h0c0-2.35-1.9-4.26-4.25-4.26-2.35,0-4.25,1.9-4.25,4.25h0Z"/>
    <path class="cls-3" d="M463.87,710.57v70.87h8.5v-70.87h-8.5Z"/>
    <path class="cls-3" d="M620.16,838.13c0,2.35,1.9,4.25,4.25,4.25,2.35,0,4.25-1.9,4.25-4.25h0c0-2.35-1.9-4.26-4.25-4.26-2.35,0-4.25,1.9-4.25,4.25h0Z"/>
    <path class="cls-3" d="M492.6,653.87c0,2.35,1.9,4.25,4.25,4.25s4.25-1.9,4.25-4.25h0c0-2.35-1.9-4.25-4.25-4.25-2.35,0-4.25,1.9-4.25,4.25,0,0,0,0,0,0Z"/>
    <path class="cls-3" d="M620.16,653.87c0,2.35,1.9,4.25,4.25,4.25,2.35,0,4.25-1.9,4.25-4.25h0c0-2.35-1.9-4.26-4.25-4.26-2.35,0-4.25,1.9-4.25,4.25h0Z"/>
    <path class="cls-3" d="M492.6,838.13c0,2.35,1.9,4.25,4.25,4.25s4.25-1.9,4.25-4.25c0-2.35-1.9-4.25-4.25-4.25-2.35,0-4.25,1.9-4.25,4.25,0,0,0,0,0,0Z"/>
    <path class="cls-3" d="M474.18,689.31h36.85v-21.26h-36.85c-4.7,0-8.5,3.81-8.5,8.5h0v4.25c0,4.7,3.81,8.5,8.5,8.5h0Z"/>
    <path class="cls-1" d="M222.88,801.05l47.4,44.34c1.58,1.47,3.65,2.29,5.81,2.29h138.37c4.7,0,8.5-3.81,8.5-8.5h0v-15.92h-8.5v-56.69h8.5v-117.31c0-4.7-3.81-8.5-8.5-8.5h-138.37c-2.16,0-4.23.82-5.81,2.29l-47.4,44.34v10.05h8.36v93.54h-8.36v10.05Z"/>
    <path class="cls-3" d="M289.81,756.73c0,2.35,1.9,4.25,4.25,4.25s4.25-1.9,4.25-4.25-1.9-4.25-4.25-4.25-4.25,1.9-4.25,4.25Z"/>
    <path class="cls-3" d="M333.19,815.94c0,2.35,1.9,4.25,4.25,4.25,2.35,0,4.25-1.9,4.25-4.25h0c0-2.35-1.9-4.26-4.25-4.26s-4.25,1.9-4.25,4.25Z"/>
    <path class="cls-3" d="M274,820.26c0,2.35,1.9,4.25,4.25,4.25,2.35,0,4.25-1.9,4.25-4.25h0c0-2.35-1.9-4.26-4.25-4.26-2.35,0-4.25,1.9-4.25,4.25h0Z"/>
    <path class="cls-3" d="M356.72,759.86c0,2.35,1.9,4.25,4.25,4.25,2.35,0,4.25-1.9,4.25-4.25h0c0-2.35-1.9-4.26-4.25-4.26-2.35,0-4.25,1.9-4.25,4.25h0Z"/>
    <path class="cls-3" d="M293.34,699.02c0,2.35,1.9,4.25,4.25,4.25s4.25-1.9,4.25-4.25-1.9-4.25-4.25-4.25-4.25,1.9-4.25,4.25Z"/>
    <path class="cls-3" d="M251.08,708.79v70.87h8.5v-70.87h-8.5Z"/>
    <path class="cls-3" d="M407.37,836.35c0,2.35,1.9,4.25,4.25,4.25,2.35,0,4.25-1.9,4.25-4.25h0c0-2.35-1.9-4.26-4.25-4.26-2.35,0-4.25,1.9-4.25,4.25h0Z"/>
    <path class="cls-3" d="M279.81,652.1c0,2.35,1.9,4.25,4.25,4.25s4.25-1.9,4.25-4.25h0c0-2.35-1.9-4.25-4.25-4.25-2.35,0-4.25,1.9-4.25,4.25,0,0,0,0,0,0Z"/>
    <path class="cls-3" d="M407.37,652.1c0,2.35,1.9,4.25,4.25,4.25,2.35,0,4.25-1.9,4.25-4.25h0c0-2.35-1.9-4.26-4.25-4.26-2.35,0-4.25,1.9-4.25,4.25h0Z"/>
    <path class="cls-3" d="M279.81,836.35c0,2.35,1.9,4.25,4.25,4.25s4.25-1.9,4.25-4.25c0-2.35-1.9-4.25-4.25-4.25-2.35,0-4.25,1.9-4.25,4.25,0,0,0,0,0,0Z"/>
    <path class="cls-3" d="M261.39,687.53h36.85v-21.26h-36.85c-4.7,0-8.5,3.81-8.5,8.5h0v4.25c0,4.7,3.81,8.5,8.5,8.5h0Z"/>
    <path class="cls-1" d="M7.95,803.94l47.4,44.34c1.58,1.47,3.65,2.29,5.81,2.29h138.37c4.7,0,8.5-3.81,8.5-8.5h0v-15.92h-8.5v-56.69h8.5v-117.31c0-4.7-3.81-8.5-8.5-8.5H61.15c-2.16,0-4.23.82-5.81,2.29l-47.4,44.34v10.05h8.36v93.54H7.95v10.05Z"/>
    <path class="cls-3" d="M131.54,770.78c0,2.35,1.9,4.25,4.25,4.25s4.25-1.9,4.25-4.25-1.9-4.25-4.25-4.25-4.25,1.9-4.25,4.25Z"/>
    <path class="cls-3" d="M74.95,798.15c0,2.35,1.9,4.25,4.25,4.25s4.25-1.9,4.25-4.25-1.9-4.25-4.25-4.25-4.25,1.9-4.25,4.25Z"/>
    <path class="cls-3" d="M63.18,737.55c0,2.35,1.9,4.25,4.25,4.25,2.35,0,4.25-1.9,4.25-4.25h0c0-2.35-1.9-4.26-4.25-4.26-2.35,0-4.25,1.9-4.25,4.25h0Z"/>
    <path class="cls-3" d="M123.01,703.02c0,2.35,1.9,4.25,4.25,4.25s4.25-1.9,4.25-4.25-1.9-4.25-4.25-4.25-4.25,1.9-4.25,4.25Z"/>
    <path class="cls-3" d="M164.7,823.94c0,2.35,1.9,4.25,4.25,4.25,2.35,0,4.25-1.9,4.25-4.25h0c0-2.35-1.9-4.26-4.25-4.26-2.35,0-4.25,1.9-4.25,4.25h0Z"/>
    <path class="cls-3" d="M36.15,711.68v70.87h8.5v-70.87h-8.5Z"/>
    <path class="cls-3" d="M192.44,839.24c0,2.35,1.9,4.25,4.25,4.25,2.35,0,4.25-1.9,4.25-4.25h0c0-2.35-1.9-4.26-4.25-4.26-2.35,0-4.25,1.9-4.25,4.25h0Z"/>
    <path class="cls-3" d="M64.88,654.99c0,2.35,1.9,4.25,4.25,4.25s4.25-1.9,4.25-4.25h0c0-2.35-1.9-4.25-4.25-4.25-2.35,0-4.25,1.9-4.25,4.25,0,0,0,0,0,0Z"/>
    <path class="cls-3" d="M192.44,654.99c0,2.35,1.9,4.25,4.25,4.25,2.35,0,4.25-1.9,4.25-4.25h0c0-2.35-1.9-4.26-4.25-4.26-2.35,0-4.25,1.9-4.25,4.25h0Z"/>
    <path class="cls-3" d="M64.88,839.24c0,2.35,1.9,4.25,4.25,4.25s4.25-1.9,4.25-4.25c0-2.35-1.9-4.25-4.25-4.25-2.35,0-4.25,1.9-4.25,4.25,0,0,0,0,0,0Z"/>
    <path class="cls-3" d="M46.46,690.42h36.85v-21.26h-36.85c-4.7,0-8.5,3.81-8.5,8.5h0v4.25c0,4.7,3.81,8.5,8.5,8.5h0Z"/>
    <path class="cls-1" d="M648.46,575.34l47.4,44.34c1.58,1.47,3.65,2.29,5.81,2.29h138.37c4.7,0,8.5-3.81,8.5-8.5h0v-15.92h-8.5v-56.69h8.5v-117.31c0-4.7-3.81-8.5-8.5-8.5h-138.37c-2.16,0-4.23.82-5.81,2.29l-47.4,44.34v10.05h8.36v93.54h-8.36v10.05Z"/>
    <path class="cls-3" d="M702.26,469.14c0,2.35,1.9,4.25,4.25,4.25,2.35,0,4.25-1.9,4.25-4.25h0c0-2.35-1.9-4.26-4.25-4.26-2.35,0-4.25,1.9-4.25,4.25h0Z"/>
    <path class="cls-3" d="M724.6,593.05c0,2.35,1.9,4.25,4.25,4.25s4.25-1.9,4.25-4.25h0c0-2.35-1.9-4.25-4.25-4.25s-4.25,1.9-4.25,4.25Z"/>
    <path class="cls-3" d="M781.96,563.87c0,2.35,1.9,4.25,4.25,4.25,2.35,0,4.25-1.9,4.25-4.25h0c0-2.35-1.9-4.26-4.25-4.26-2.35,0-4.25,1.9-4.25,4.25h0Z"/>
    <path class="cls-3" d="M694.86,527.95c0,2.35,1.9,4.25,4.25,4.25s4.25-1.9,4.25-4.25c0-2.35-1.9-4.25-4.25-4.25-2.35,0-4.25,1.9-4.25,4.25,0,0,0,0,0,0Z"/>
    <path class="cls-3" d="M779.8,494.27c0,2.35,1.9,4.25,4.25,4.25s4.25-1.9,4.25-4.25h0c0-2.35-1.9-4.25-4.25-4.25-2.35,0-4.25,1.9-4.25,4.25,0,0,0,0,0,0Z"/>
    <path class="cls-3" d="M676.66,483.08v70.87h8.5v-70.87h-8.5Z"/>
    <path class="cls-3" d="M832.95,610.64c0,2.35,1.9,4.25,4.25,4.25,2.35,0,4.25-1.9,4.25-4.25h0c0-2.35-1.9-4.26-4.25-4.26-2.35,0-4.25,1.9-4.25,4.25h0Z"/>
    <path class="cls-3" d="M705.39,426.39c0,2.35,1.9,4.25,4.25,4.25s4.25-1.9,4.25-4.25h0c0-2.35-1.9-4.25-4.25-4.25-2.35,0-4.25,1.9-4.25,4.25,0,0,0,0,0,0Z"/>
    <path class="cls-3" d="M832.95,426.39c0,2.35,1.9,4.25,4.25,4.25,2.35,0,4.25-1.9,4.25-4.25h0c0-2.35-1.9-4.26-4.25-4.26-2.35,0-4.25,1.9-4.25,4.25h0Z"/>
    <path class="cls-3" d="M705.39,610.64c0,2.35,1.9,4.25,4.25,4.25s4.25-1.9,4.25-4.25c0-2.35-1.9-4.25-4.25-4.25-2.35,0-4.25,1.9-4.25,4.25,0,0,0,0,0,0Z"/>
    <path class="cls-3" d="M686.97,461.82h36.85v-21.26h-36.85c-4.7,0-8.5,3.81-8.5,8.5h0v4.25c0,4.7,3.81,8.5,8.5,8.5h0Z"/>
    <path class="cls-1" d="M437.69,575.16l47.4,44.34c1.58,1.47,3.65,2.29,5.81,2.29h138.37c4.7,0,8.5-3.81,8.5-8.5h0v-15.92h-8.5v-56.69h8.5v-117.31c0-4.7-3.81-8.5-8.5-8.5h-138.37c-2.16,0-4.23.82-5.81,2.29l-47.4,44.34v10.05h8.36v93.54h-8.36v10.05Z"/>
    <path class="cls-3" d="M603.57,483.07c0,2.35,1.9,4.25,4.25,4.25,2.35,0,4.25-1.9,4.25-4.25h0c0-2.35-1.9-4.26-4.25-4.26-2.35,0-4.25,1.9-4.25,4.25h0Z"/>
    <path class="cls-3" d="M514.64,480.38c0,2.35,1.9,4.25,4.25,4.25s4.25-1.9,4.25-4.25-1.9-4.25-4.25-4.25-4.25,1.9-4.25,4.25Z"/>
    <path class="cls-3" d="M487.15,535.77c0,2.35,1.9,4.25,4.25,4.25,2.35,0,4.25-1.9,4.25-4.25h0c0-2.35-1.9-4.26-4.25-4.26-2.35,0-4.25,1.9-4.25,4.25h0Z"/>
    <path class="cls-3" d="M554.39,522.49c0,2.35,1.9,4.25,4.25,4.25s4.25-1.9,4.25-4.25-1.9-4.25-4.25-4.25-4.25,1.9-4.25,4.25Z"/>
    <path class="cls-3" d="M569.72,589.97c0,2.35,1.9,4.25,4.25,4.25,2.35,0,4.25-1.9,4.25-4.25h0c0-2.35-1.9-4.26-4.25-4.26-2.35,0-4.25,1.9-4.25,4.25h0Z"/>
    <path class="cls-3" d="M465.89,482.9v70.87h8.5v-70.87h-8.5Z"/>
    <path class="cls-3" d="M622.18,610.46c0,2.35,1.9,4.25,4.25,4.25,2.35,0,4.25-1.9,4.25-4.25h0c0-2.35-1.9-4.26-4.25-4.26-2.35,0-4.25,1.9-4.25,4.25h0Z"/>
    <path class="cls-3" d="M494.62,426.21c0,2.35,1.9,4.25,4.25,4.25s4.25-1.9,4.25-4.25h0c0-2.35-1.9-4.25-4.25-4.25-2.35,0-4.25,1.9-4.25,4.25,0,0,0,0,0,0Z"/>
    <path class="cls-3" d="M622.18,426.21c0,2.35,1.9,4.25,4.25,4.25,2.35,0,4.25-1.9,4.25-4.25h0c0-2.35-1.9-4.26-4.25-4.26-2.35,0-4.25,1.9-4.25,4.25h0Z"/>
    <path class="cls-3" d="M494.62,610.46c0,2.35,1.9,4.25,4.25,4.25s4.25-1.9,4.25-4.25c0-2.35-1.9-4.25-4.25-4.25-2.35,0-4.25,1.9-4.25,4.25,0,0,0,0,0,0Z"/>
    <path class="cls-3" d="M476.2,461.64h36.85v-21.26h-36.85c-4.7,0-8.5,3.81-8.5,8.5h0v4.25c0,4.7,3.81,8.5,8.5,8.5h0Z"/>
    <path class="cls-1" d="M221.56,575.06l47.4,44.34c1.58,1.47,3.65,2.29,5.81,2.29h138.37c4.7,0,8.5-3.81,8.5-8.5h0v-15.92h-8.5v-56.69h8.5v-117.31c0-4.7-3.81-8.5-8.5-8.5h-138.37c-2.16,0-4.23.82-5.81,2.29l-47.4,44.34v10.05h8.36v93.54h-8.36v10.05Z"/>
    <path class="cls-3" d="M366.46,496.29c0,2.35,1.9,4.25,4.25,4.25s4.25-1.9,4.25-4.25c0-2.35-1.9-4.25-4.25-4.25-2.35,0-4.25,1.9-4.25,4.25,0,0,0,0,0,0Z"/>
    <path class="cls-3" d="M301.99,531.3c0,2.35,1.9,4.25,4.25,4.25s4.25-1.9,4.25-4.25-1.9-4.25-4.25-4.25-4.25,1.9-4.25,4.25h0Z"/>
    <path class="cls-3" d="M266.56,589.14c0,2.35,1.9,4.25,4.25,4.25s4.25-1.9,4.25-4.25c0-2.35-1.9-4.25-4.25-4.25-2.35,0-4.25,1.9-4.25,4.25,0,0,0,0,0,0Z"/>
    <path class="cls-3" d="M307.93,469.94c0,2.35,1.9,4.25,4.25,4.25s4.25-1.9,4.25-4.25-1.9-4.25-4.25-4.25-4.25,1.9-4.25,4.25h0Z"/>
    <path class="cls-3" d="M371.26,557.16c0,2.35,1.9,4.25,4.25,4.25s4.25-1.9,4.25-4.25c0-2.35-1.9-4.25-4.25-4.25-2.35,0-4.25,1.9-4.25,4.25,0,0,0,0,0,0Z"/>
    <path class="cls-3" d="M249.77,482.81v70.87h8.5v-70.87h-8.5Z"/>
    <path class="cls-3" d="M406.06,610.37c0,2.35,1.9,4.25,4.25,4.25,2.35,0,4.25-1.9,4.25-4.25h0c0-2.35-1.9-4.26-4.25-4.26-2.35,0-4.25,1.9-4.25,4.25h0Z"/>
    <path class="cls-3" d="M278.5,426.11c0,2.35,1.9,4.25,4.25,4.25s4.25-1.9,4.25-4.25h0c0-2.35-1.9-4.25-4.25-4.25-2.35,0-4.25,1.9-4.25,4.25,0,0,0,0,0,0Z"/>
    <path class="cls-3" d="M406.06,426.11c0,2.35,1.9,4.25,4.25,4.25,2.35,0,4.25-1.9,4.25-4.25h0c0-2.35-1.9-4.26-4.25-4.26-2.35,0-4.25,1.9-4.25,4.25h0Z"/>
    <path class="cls-3" d="M278.5,610.37c0,2.35,1.9,4.25,4.25,4.25s4.25-1.9,4.25-4.25c0-2.35-1.9-4.25-4.25-4.25-2.35,0-4.25,1.9-4.25,4.25,0,0,0,0,0,0Z"/>
    <path class="cls-3" d="M260.07,461.55h36.85v-21.26h-36.85c-4.7,0-8.5,3.81-8.5,8.5h0v4.25c0,4.7,3.81,8.5,8.5,8.5h0Z"/>
    <path class="cls-1" d="M7.95,577.52l47.4,44.34c1.58,1.47,3.65,2.29,5.81,2.29h138.37c4.7,0,8.5-3.81,8.5-8.5h0v-15.92h-8.5v-56.69h8.5v-117.31c0-4.7-3.81-8.5-8.5-8.5H61.15c-2.16,0-4.23.82-5.81,2.29l-47.4,44.34v10.05h8.36v93.54H7.95v10.05Z"/>
    <path class="cls-3" d="M88.4,470.89c0,2.35,1.9,4.25,4.25,4.25s4.25-1.9,4.25-4.25-1.9-4.25-4.25-4.25-4.25,1.9-4.25,4.25Z"/>
    <path class="cls-3" d="M175.13,543.94c0,2.35,1.9,4.25,4.25,4.25,2.35,0,4.25-1.9,4.25-4.25h0c0-2.35-1.9-4.26-4.25-4.26-2.35,0-4.25,1.9-4.25,4.25h0Z"/>
    <path class="cls-3" d="M138.26,594.63c0,2.35,1.9,4.25,4.25,4.25s4.25-1.9,4.25-4.25c0-2.35-1.9-4.25-4.25-4.25-2.35,0-4.25,1.9-4.25,4.25,0,0,0,0,0,0Z"/>
    <path class="cls-3" d="M157.42,489.62c0,2.35,1.9,4.25,4.25,4.25,2.35,0,4.25-1.9,4.25-4.25h0c0-2.35-1.9-4.26-4.25-4.26-2.35,0-4.25,1.9-4.25,4.25h0Z"/>
    <path class="cls-3" d="M83.91,533.49c0,2.35,1.9,4.25,4.25,4.25s4.25-1.9,4.25-4.25h0c0-2.35-1.9-4.25-4.25-4.25s-4.25,1.9-4.25,4.25Z"/>
    <path class="cls-3" d="M36.15,485.26v70.87h8.5v-70.87h-8.5Z"/>
    <path class="cls-3" d="M192.44,612.82c0,2.35,1.9,4.25,4.25,4.25,2.35,0,4.25-1.9,4.25-4.25h0c0-2.35-1.9-4.26-4.25-4.26-2.35,0-4.25,1.9-4.25,4.25h0Z"/>
    <path class="cls-3" d="M64.88,428.57c0,2.35,1.9,4.25,4.25,4.25s4.25-1.9,4.25-4.25h0c0-2.35-1.9-4.25-4.25-4.25-2.35,0-4.25,1.9-4.25,4.25,0,0,0,0,0,0Z"/>
    <path class="cls-3" d="M192.44,428.57c0,2.35,1.9,4.25,4.25,4.25,2.35,0,4.25-1.9,4.25-4.25h0c0-2.35-1.9-4.26-4.25-4.26-2.35,0-4.25,1.9-4.25,4.25h0Z"/>
    <path class="cls-3" d="M64.88,612.82c0,2.35,1.9,4.25,4.25,4.25s4.25-1.9,4.25-4.25c0-2.35-1.9-4.25-4.25-4.25-2.35,0-4.25,1.9-4.25,4.25,0,0,0,0,0,0Z"/>
    <path class="cls-3" d="M46.46,464h36.85v-21.26h-36.85c-4.7,0-8.5,3.81-8.5,8.5h0v4.25c0,4.7,3.81,8.5,8.5,8.5h0Z"/>
    <path class="cls-1" d="M647.16,347.85l47.4,44.34c1.58,1.47,3.65,2.29,5.81,2.29h138.37c4.7,0,8.5-3.81,8.5-8.5h0v-15.92h-8.5v-56.69h8.5v-117.31c0-4.7-3.81-8.5-8.5-8.5h-138.37c-2.16,0-4.23.82-5.81,2.29l-47.4,44.34v10.05h8.36v93.54h-8.36v10.05Z"/>
    <path class="cls-3" d="M768.28,329.8c0,2.35,1.9,4.25,4.25,4.25s4.25-1.9,4.25-4.25-1.9-4.25-4.25-4.25-4.25,1.9-4.25,4.25Z"/>
    <path class="cls-3" d="M713.22,349.02c0,2.35,1.9,4.25,4.25,4.25s4.25-1.9,4.25-4.25-1.9-4.25-4.25-4.25-4.25,1.9-4.25,4.25Z"/>
    <path class="cls-3" d="M694.19,243.45c0,2.35,1.9,4.25,4.25,4.25s4.25-1.9,4.25-4.25c0-2.35-1.9-4.25-4.25-4.25-2.35,0-4.25,1.9-4.25,4.25,0,0,0,0,0,0Z"/>
    <path class="cls-3" d="M748.5,271.18c0,2.35,1.9,4.25,4.25,4.25s4.25-1.9,4.25-4.25h0c0-2.35-1.9-4.25-4.25-4.25s-4.25,1.9-4.25,4.25Z"/>
    <path class="cls-3" d="M811.94,289.52c0,2.35,1.9,4.25,4.25,4.25,2.35,0,4.25-1.9,4.25-4.25h0c0-2.35-1.9-4.26-4.25-4.26-2.35,0-4.25,1.9-4.25,4.25h0Z"/>
    <path class="cls-3" d="M675.37,255.59v70.87h8.5v-70.87h-8.5Z"/>
    <path class="cls-3" d="M831.66,383.15c0,2.35,1.9,4.25,4.25,4.25,2.35,0,4.25-1.9,4.25-4.25h0c0-2.35-1.9-4.26-4.25-4.26-2.35,0-4.25,1.9-4.25,4.25h0Z"/>
    <path class="cls-3" d="M704.1,198.9c0,2.35,1.9,4.25,4.25,4.25s4.25-1.9,4.25-4.25h0c0-2.35-1.9-4.25-4.25-4.25-2.35,0-4.25,1.9-4.25,4.25,0,0,0,0,0,0Z"/>
    <path class="cls-3" d="M831.66,198.9c0,2.35,1.9,4.25,4.25,4.25,2.35,0,4.25-1.9,4.25-4.25h0c0-2.35-1.9-4.26-4.25-4.26-2.35,0-4.25,1.9-4.25,4.25h0Z"/>
    <path class="cls-3" d="M704.1,383.15c0,2.35,1.9,4.25,4.25,4.25s4.25-1.9,4.25-4.25c0-2.35-1.9-4.25-4.25-4.25-2.35,0-4.25,1.9-4.25,4.25,0,0,0,0,0,0Z"/>
    <path class="cls-3" d="M685.67,234.33h36.85v-21.26h-36.85c-4.7,0-8.5,3.81-8.5,8.5h0v4.25c0,4.7,3.81,8.5,8.5,8.5h0Z"/>
    <path class="cls-1" d="M437.69,346.35l47.4,44.34c1.58,1.47,3.65,2.29,5.81,2.29h138.37c4.7,0,8.5-3.81,8.5-8.5h0v-15.92h-8.5v-56.69h8.5v-117.31c0-4.7-3.81-8.5-8.5-8.5h-138.37c-2.16,0-4.23.82-5.81,2.29l-47.4,44.34v10.05h8.36v93.54h-8.36v10.05Z"/>
    <path class="cls-3" d="M531.71,305.09c0,2.35,1.9,4.25,4.25,4.25s4.25-1.9,4.25-4.25h0c0-2.35-1.9-4.25-4.25-4.25s-4.25,1.9-4.25,4.25Z"/>
    <path class="cls-3" d="M487.68,243.37c0,2.35,1.9,4.25,4.25,4.25,2.35,0,4.25-1.9,4.25-4.25h0c0-2.35-1.9-4.26-4.25-4.26-2.35,0-4.25,1.9-4.25,4.25h0Z"/>
    <path class="cls-3" d="M482.41,355.06c0,2.35,1.9,4.25,4.25,4.25,2.35,0,4.25-1.9,4.25-4.25h0c0-2.35-1.9-4.26-4.25-4.26-2.35,0-4.25,1.9-4.25,4.25h0Z"/>
    <path class="cls-3" d="M556.93,238.2c0,2.35,1.9,4.25,4.25,4.25s4.25-1.9,4.25-4.25-1.9-4.25-4.25-4.25-4.25,1.9-4.25,4.25Z"/>
    <path class="cls-3" d="M594.56,286.87c0,2.35,1.9,4.25,4.25,4.25,2.35,0,4.25-1.9,4.25-4.25h0c0-2.35-1.9-4.26-4.25-4.26-2.35,0-4.25,1.9-4.25,4.25h0Z"/>
    <path class="cls-3" d="M465.89,254.09v70.87h8.5v-70.87h-8.5Z"/>
    <path class="cls-3" d="M622.18,381.65c0,2.35,1.9,4.25,4.25,4.25,2.35,0,4.25-1.9,4.25-4.25h0c0-2.35-1.9-4.26-4.25-4.26-2.35,0-4.25,1.9-4.25,4.25h0Z"/>
    <path class="cls-3" d="M494.62,197.4c0,2.35,1.9,4.25,4.25,4.25s4.25-1.9,4.25-4.25h0c0-2.35-1.9-4.25-4.25-4.25-2.35,0-4.25,1.9-4.25,4.25,0,0,0,0,0,0Z"/>
    <path class="cls-3" d="M622.18,197.4c0,2.35,1.9,4.25,4.25,4.25,2.35,0,4.25-1.9,4.25-4.25h0c0-2.35-1.9-4.26-4.25-4.26-2.35,0-4.25,1.9-4.25,4.25h0Z"/>
    <path class="cls-3" d="M494.62,381.65c0,2.35,1.9,4.25,4.25,4.25s4.25-1.9,4.25-4.25c0-2.35-1.9-4.25-4.25-4.25-2.35,0-4.25,1.9-4.25,4.25,0,0,0,0,0,0Z"/>
    <path class="cls-3" d="M476.2,232.83h36.85v-21.26h-36.85c-4.7,0-8.5,3.81-8.5,8.5h0v4.25c0,4.7,3.81,8.5,8.5,8.5h0Z"/>
    <path class="cls-1" d="M222.88,346.35l47.4,44.34c1.58,1.47,3.65,2.29,5.81,2.29h138.37c4.7,0,8.5-3.81,8.5-8.5h0v-15.92h-8.5v-56.69h8.5v-117.31c0-4.7-3.81-8.5-8.5-8.5h-138.37c-2.16,0-4.23.82-5.81,2.29l-47.4,44.34v10.05h8.36v93.54h-8.36v10.05Z"/>
    <path class="cls-3" d="M381.45,313.96c0,2.35,1.9,4.25,4.25,4.25,2.35,0,4.25-1.9,4.25-4.25h0c0-2.35-1.9-4.26-4.25-4.26-2.35,0-4.25,1.9-4.25,4.25h0Z"/>
    <path class="cls-3" d="M334.27,250.4c0,2.35,1.9,4.25,4.25,4.25s4.25-1.9,4.25-4.25-1.9-4.25-4.25-4.25-4.25,1.9-4.25,4.25h0Z"/>
    <path class="cls-3" d="M264.43,238.99c0,2.35,1.9,4.25,4.25,4.25,2.35,0,4.25-1.9,4.25-4.25h0c0-2.35-1.9-4.26-4.25-4.26-2.35,0-4.25,1.9-4.25,4.25h0Z"/>
    <path class="cls-3" d="M287.51,292.7c0,2.35,1.9,4.25,4.25,4.25s4.25-1.9,4.25-4.25-1.9-4.25-4.25-4.25-4.25,1.9-4.25,4.25Z"/>
    <path class="cls-3" d="M330.45,342.43c0,2.35,1.9,4.25,4.25,4.25,2.35,0,4.25-1.9,4.25-4.25h0c0-2.35-1.9-4.26-4.25-4.26s-4.25,1.9-4.25,4.25Z"/>
    <path class="cls-3" d="M251.08,254.09v70.87h8.5v-70.87h-8.5Z"/>
    <path class="cls-3" d="M407.37,381.65c0,2.35,1.9,4.25,4.25,4.25,2.35,0,4.25-1.9,4.25-4.25h0c0-2.35-1.9-4.26-4.25-4.26-2.35,0-4.25,1.9-4.25,4.25h0Z"/>
    <path class="cls-3" d="M279.81,197.4c0,2.35,1.9,4.25,4.25,4.25s4.25-1.9,4.25-4.25h0c0-2.35-1.9-4.25-4.25-4.25-2.35,0-4.25,1.9-4.25,4.25,0,0,0,0,0,0Z"/>
    <path class="cls-3" d="M407.37,197.4c0,2.35,1.9,4.25,4.25,4.25,2.35,0,4.25-1.9,4.25-4.25h0c0-2.35-1.9-4.26-4.25-4.26-2.35,0-4.25,1.9-4.25,4.25h0Z"/>
    <path class="cls-3" d="M279.81,381.65c0,2.35,1.9,4.25,4.25,4.25s4.25-1.9,4.25-4.25c0-2.35-1.9-4.25-4.25-4.25-2.35,0-4.25,1.9-4.25,4.25,0,0,0,0,0,0Z"/>
    <path class="cls-3" d="M261.39,232.83h36.85v-21.26h-36.85c-4.7,0-8.5,3.81-8.5,8.5h0v4.25c0,4.7,3.81,8.5,8.5,8.5h0Z"/>
    <path class="cls-1" d="M8.07,348.58l47.4,44.34c1.58,1.47,3.65,2.29,5.81,2.29h138.37c4.7,0,8.5-3.81,8.5-8.5h0v-15.92h-8.5v-56.69h8.5v-117.31c0-4.7-3.81-8.5-8.5-8.5H61.28c-2.16,0-4.23.82-5.81,2.29l-47.4,44.34v10.05h8.36v93.54h-8.36v10.05Z"/>
    <path class="cls-3" d="M101.98,250.09c0,2.35,1.9,4.25,4.25,4.25s4.25-1.9,4.25-4.25-1.9-4.25-4.25-4.25-4.25,1.9-4.25,4.25h0Z"/>
    <path class="cls-3" d="M77.51,347.81c0,2.35,1.9,4.25,4.25,4.25s4.25-1.9,4.25-4.25h0c0-2.35-1.9-4.25-4.25-4.25s-4.25,1.9-4.25,4.25Z"/>
    <path class="cls-3" d="M151.31,366.99c0,2.35,1.9,4.25,4.25,4.25s4.25-1.9,4.25-4.25c0-2.35-1.9-4.25-4.25-4.25-2.35,0-4.25,1.9-4.25,4.25,0,0,0,0,0,0Z"/>
    <path class="cls-3" d="M58.04,289.72c0,2.35,1.9,4.25,4.25,4.25,2.35,0,4.25-1.9,4.25-4.25h0c0-2.35-1.9-4.26-4.25-4.26-2.35,0-4.25,1.9-4.25,4.25h0Z"/>
    <path class="cls-3" d="M139.22,305.03c0,2.35,1.9,4.25,4.25,4.25,2.35,0,4.25-1.9,4.25-4.25h0c0-2.35-1.9-4.26-4.25-4.26-2.35,0-4.25,1.9-4.25,4.25h0Z"/>
    <path class="cls-3" d="M36.27,256.32v70.87h8.5v-70.87h-8.5Z"/>
    <path class="cls-3" d="M192.56,383.88c0,2.35,1.9,4.25,4.25,4.25,2.35,0,4.25-1.9,4.25-4.25h0c0-2.35-1.9-4.26-4.25-4.26-2.35,0-4.25,1.9-4.25,4.25h0Z"/>
    <path class="cls-3" d="M65,199.63c0,2.35,1.9,4.25,4.25,4.25s4.25-1.9,4.25-4.25h0c0-2.35-1.9-4.25-4.25-4.25-2.35,0-4.25,1.9-4.25,4.25,0,0,0,0,0,0Z"/>
    <path class="cls-3" d="M192.56,199.63c0,2.35,1.9,4.25,4.25,4.25,2.35,0,4.25-1.9,4.25-4.25h0c0-2.35-1.9-4.26-4.25-4.26-2.35,0-4.25,1.9-4.25,4.25h0Z"/>
    <path class="cls-3" d="M65,383.88c0,2.35,1.9,4.25,4.25,4.25s4.25-1.9,4.25-4.25c0-2.35-1.9-4.25-4.25-4.25-2.35,0-4.25,1.9-4.25,4.25,0,0,0,0,0,0Z"/>
    <path class="cls-3" d="M46.58,235.06h36.85v-21.26h-36.85c-4.7,0-8.5,3.81-8.5,8.5h0v4.25c0,4.7,3.81,8.5,8.5,8.5h0Z"/>
  </g>
  <g>
    <path class="cls-2" d="M782.44,754.46v7.49h-.25s-.24-.03-.24-.03l-.24-.06-.24-.07h0l-.4-.18-.39-.21-.36-.25-.35-.27h0l-.46-.43-.44-.44-.42-.47-.4-.48h0l-.56-.67-.58-.65-.62-.61-.65-.58h0l-.39-.25-.2-.11-.2-.09-.21-.07-.22-.05-.45-.07h0l-.39.05-.19.04-.18.06-.17.09-.16.11-.31.25h0l-.25.35-.11.18-.08.19-.06.2-.04.21-.04.43h0l.04.45.04.22.06.21.09.2.11.19.27.36h0l.37.27.19.11.2.09.21.06.22.04.46.04-.15,1.43h0l-.69-.11-.33-.08-.32-.12-.3-.16-.28-.19-.53-.44h0l-.38-.59-.16-.3-.12-.32-.08-.33-.05-.34-.05-.7h0l.05-.71.06-.34.09-.33.13-.32.17-.3.4-.58h0l.49-.4.26-.17.27-.14.29-.1.3-.06.63-.07h0l.34.02.34.05.33.09.32.12h0l.37.19.36.21.33.25.32.27h0l.52.51.51.53.96,1.11h0l.7.82.73.79h0l.36.31.39.27v-5.56h1.34Z"/>
    <path class="cls-2" d="M825.71,801.89v7.49h-.25s-.24-.03-.24-.03l-.24-.06-.24-.07h0l-.4-.18-.39-.21-.36-.25-.35-.27h0l-.46-.43-.44-.44-.42-.47-.4-.48h0l-.56-.67-.58-.65-.62-.61-.65-.58h0l-.39-.25-.2-.11-.2-.09-.21-.07-.22-.05-.45-.07h0l-.39.05-.19.04-.18.06-.17.09-.16.11-.31.25h0l-.25.35-.11.18-.08.19-.06.2-.04.21-.04.43h0l.04.45.04.22.06.21.09.2.11.19.27.36h0l.37.27.19.11.2.09.21.06.22.04.46.04-.15,1.43h0l-.69-.11-.33-.08-.32-.12-.3-.16-.28-.19-.53-.44h0l-.38-.59-.16-.3-.12-.32-.08-.33-.05-.34-.05-.7h0l.05-.71.06-.34.09-.33.13-.32.17-.3.4-.58h0l.49-.4.26-.17.27-.14.29-.1.3-.06.63-.07h0l.34.02.34.05.33.09.32.12h0l.37.19.36.21.33.25.32.27h0l.52.51.51.53.96,1.11h0l.7.82.73.79h0l.36.31.39.27v-5.56h1.34Z"/>
    <path class="cls-2" d="M727.46,717.84v7.49h-.25s-.24-.03-.24-.03l-.24-.06-.24-.07h0l-.4-.18-.39-.21-.36-.25-.35-.27h0l-.46-.43-.44-.44-.42-.47-.4-.48h0l-.56-.67-.58-.65-.62-.61-.65-.58h0l-.39-.25-.2-.11-.2-.09-.21-.07-.22-.05-.45-.07h0l-.39.05-.19.04-.18.06-.17.09-.16.11-.31.25h0l-.25.35-.11.18-.08.19-.06.2-.04.21-.04.43h0l.04.45.04.22.06.21.09.2.11.19.27.36h0l.37.27.19.11.2.09.21.06.22.04.46.04-.15,1.43h0l-.69-.11-.33-.08-.32-.12-.3-.16-.28-.19-.53-.44h0l-.38-.59-.16-.3-.12-.32-.08-.33-.05-.34-.05-.7h0l.05-.71.06-.34.09-.33.13-.32.17-.3.4-.58h0l.49-.4.26-.17.27-.14.29-.1.3-.06.63-.07h0l.34.02.34.05.33.09.32.12h0l.37.19.36.21.33.25.32.27h0l.52.51.51.53.96,1.11h0l.7.82.73.79h0l.36.31.39.27v-5.56h1.34Z"/>
    <path class="cls-2" d="M738.11,813.28v4.92h-1.28l-7.35-5.17v-1.14h7.35v-1.53h1.28v1.53h2.71v1.39h-2.71ZM731.72,813.28l5.11,3.55v-3.55h-5.11Z"/>
    <path class="cls-2" d="M828.09,716.67v4.92h-1.28l-7.35-5.17v-1.14h7.35v-1.53h1.28v1.53h2.71v1.39h-2.71ZM821.7,716.67l5.11,3.55v-3.55h-5.11Z"/>
    <path class="cls-2" d="M774.66,835.28v11.24h-.37s-.37-.05-.37-.05l-.36-.08-.35-.11h0l-.61-.28-.58-.31-.55-.38-.53-.41h0l-.69-.64-.66-.67-.62-.7-.6-.72h0l-.83-1-.43-.49-.44-.48-.46-.46-.47-.45-.98-.86h0l-.58-.38-.3-.17-.31-.14-.32-.11-.33-.08-.68-.1h0l-.59.07-.28.06-.27.09-.25.13-.24.16-.46.38h0l-.37.52-.16.27-.12.28-.09.3-.05.31-.06.64h0l.06.67.06.32.09.31.13.29.17.28.4.54h0l.56.41.29.17.31.13.32.09.34.06.69.06-.22,2.15h0l-.52-.08-.51-.09-.5-.13-.47-.17-.23-.11-.22-.12-.42-.29-.4-.32-.39-.34h0l-.29-.44-.27-.44-.24-.46-.18-.47-.12-.49-.08-.51-.07-1.05h0l.03-.53.05-.53.08-.52.13-.5.09-.24.11-.23.26-.45.29-.44.31-.43h0l.36-.31.37-.29.39-.26.41-.21.43-.15.46-.1.47-.06.48-.05h0l.52.03.51.07.5.14.49.17h0l.56.29.54.32.5.37.48.4h0l.79.77.76.79.73.82.71.84h0l1.04,1.23.54.6.55.59h0l.54.47.59.41v-8.34h2.01Z"/>
    <path class="cls-2" d="M770.58,826.35v7.38h-1.91l-11.02-7.76v-1.71h11.02v-2.3h1.91v2.3h4.07v2.09h-4.07ZM761,826.35l7.67,5.33v-5.33h-7.67Z"/>
    <path class="cls-2" d="M545.82,783.64h0l.45-.1.22-.06.21-.08.2-.1.19-.13.35-.29h0l.23-.32.1-.17.08-.17.06-.18.04-.19.04-.39h0l-.06-.48-.05-.23-.08-.22-.11-.21-.14-.19-.32-.37h0l-.45-.31-.24-.13-.25-.1-.26-.07-.27-.04-.55-.04h0l-.52.04-.25.04-.24.07-.23.1-.22.13-.42.3h0l-.3.39-.13.2-.1.21-.07.23-.04.24-.05.49h0l.02.32.05.31.1.3.13.29h0l.16.25.18.23.21.2.23.18-.17,1.31-5.82-1.1v-5.64h1.33v4.52l3.05.61h0l-.29-.5-.13-.26-.1-.26-.08-.27-.05-.28-.06-.57h0l.08-.7.07-.34.11-.32.15-.3.19-.29.44-.55h0l.59-.44.31-.19.32-.15.34-.1.35-.07.73-.07h0l.72.07.35.06.34.09.33.13.31.16.61.39h0l.3.31.29.32.25.33.2.36.14.39.09.41.06.43.04.43h0l-.06.69-.05.33-.09.32-.13.31-.16.3-.38.57h0l-.5.44-.26.19-.28.16-.3.12-.31.09-.65.13-.12-1.46Z"/>
    <path class="cls-2" d="M490.18,802.23h0l.47-.12.23-.07.22-.09.21-.11.2-.13.38-.3h0l.22-.32.1-.16.08-.17.05-.18.03-.19.04-.39h0l-.05-.46-.05-.22-.07-.21-.1-.2-.12-.19-.29-.37h0l-.37-.29-.19-.12-.2-.1-.22-.07-.23-.05-.47-.05h0l-.44.04-.21.04-.2.06-.19.09-.18.12-.35.27h0l-.27.35-.11.18-.09.19-.06.21-.04.21-.04.44h0l.05.5.11.49-1.22-.15h0l.02-.22h0l-.03-.42-.03-.21-.05-.2-.07-.2-.08-.19-.2-.38h0l-.29-.31-.16-.13-.17-.1-.19-.07-.2-.05-.42-.05h0l-.35.04-.17.03-.16.05-.15.08-.15.1-.28.22h0l-.22.3-.09.16-.07.16-.05.17-.03.18-.03.37h0l.04.37.03.18.05.17.07.16.09.16.22.3h0l.34.26.18.12.19.1.2.07.21.06.42.09-.25,1.39h0l-.61-.16-.29-.1-.28-.13-.26-.16-.25-.19-.47-.42h0l-.34-.51-.14-.27-.11-.28-.08-.29-.05-.3-.05-.61h0l.03-.44.07-.43.13-.42.17-.41h0l.21-.35.24-.32.3-.27.33-.24h0l.35-.17.36-.14.37-.07.39-.03h0l.35.03.34.07.33.13.31.17h0l.3.24.26.27.21.31.18.34h0l.15-.45.09-.22.11-.2.13-.19.15-.18.34-.33h0l.42-.25.22-.1.22-.08.23-.06.24-.03.49-.04h0l.71.09.34.07.32.11.3.16.29.2.55.46h0l.45.61.19.32.15.33.1.35.07.37.07.76h0l-.06.68-.06.33-.09.32-.13.3-.16.29-.39.56h0l-.5.44-.26.19-.28.16-.3.12-.31.09-.65.13-.19-1.39Z"/>
    <path class="cls-2" d="M558.11,705.99v7.49h-.25s-.24-.03-.24-.03l-.24-.06-.24-.07h0l-.4-.18-.39-.21-.36-.25-.35-.27h0l-.46-.43-.44-.44-.42-.47-.4-.48h0l-.56-.67-.58-.65-.62-.61-.65-.58h0l-.39-.25-.2-.11-.2-.09-.21-.07-.22-.05-.45-.07h0l-.39.05-.19.04-.18.06-.17.09-.16.11-.31.25h0l-.25.35-.11.18-.08.19-.06.2-.04.21-.04.43h0l.04.45.04.22.06.21.09.2.11.19.27.36h0l.37.27.19.11.2.09.21.06.22.04.46.04-.15,1.43h0l-.69-.11-.33-.08-.32-.12-.3-.16-.28-.19-.53-.44h0l-.38-.59-.16-.3-.12-.32-.08-.33-.05-.34-.05-.7h0l.05-.71.06-.34.09-.33.13-.32.17-.3.4-.58h0l.49-.4.26-.17.27-.14.29-.1.3-.06.63-.07h0l.34.02.34.05.33.09.32.12h0l.37.19.36.21.33.25.32.27h0l.52.51.51.53.96,1.11h0l.7.82.73.79h0l.36.31.39.27v-5.56h1.34Z"/>
    <path class="cls-2" d="M495.86,715.42v4.92h-1.28l-7.35-5.17v-1.14h7.35v-1.53h1.28v1.53h2.71v1.39h-2.71ZM489.47,715.42l5.11,3.55v-3.55h-5.11Z"/>
    <path class="cls-2" d="M616.56,807.74v4.92h-1.28l-7.35-5.17v-1.14h7.35v-1.53h1.28v1.53h2.71v1.39h-2.71ZM610.17,807.74l5.11,3.55v-3.55h-5.11Z"/>
    <path class="cls-2" d="M562.06,835.39v11.24h-.37s-.37-.05-.37-.05l-.36-.08-.35-.11h0l-.61-.28-.58-.31-.55-.38-.53-.41h0l-.69-.64-.66-.67-.62-.7-.6-.72h0l-.83-1-.43-.49-.44-.48-.46-.46-.47-.45-.98-.86h0l-.58-.38-.3-.17-.31-.14-.32-.11-.33-.08-.68-.1h0l-.59.07-.28.06-.27.09-.25.13-.24.16-.46.38h0l-.37.52-.16.27-.12.28-.09.3-.05.31-.06.64h0l.06.67.06.32.09.31.13.29.17.28.4.54h0l.56.41.29.17.31.13.32.09.34.06.69.06-.22,2.15h0l-.52-.08-.51-.09-.5-.13-.47-.17-.23-.11-.22-.12-.42-.29-.4-.32-.39-.34h0l-.29-.44-.27-.44-.24-.46-.18-.47-.12-.49-.08-.51-.07-1.05h0l.03-.53.05-.53.08-.52.13-.5.09-.24.11-.23.26-.45.29-.44.31-.43h0l.36-.31.37-.29.39-.26.41-.21.43-.15.46-.1.47-.06.48-.05h0l.52.03.51.07.5.14.49.17h0l.56.29.54.32.5.37.48.4h0l.79.77.76.79.73.82.71.84h0l1.04,1.23.54.6.55.59h0l.54.47.59.41v-8.34h2.01Z"/>
    <path class="cls-2" d="M557.29,831.05h0l.71-.17.34-.11.33-.13.31-.17.3-.2.57-.45h0l.34-.47.14-.25.11-.26.08-.27.05-.28.06-.58h0l-.08-.7-.07-.34-.11-.32-.15-.3-.19-.29-.43-.55h0l-.56-.43-.29-.19-.31-.15-.33-.1-.34-.07-.7-.08h0l-.66.07-.32.06-.31.1-.29.14-.27.17-.52.41h0l-.4.53-.17.28-.14.29-.09.31-.06.32-.07.66h0l.03.37.04.37.16.73-1.83-.23h0l.02-.34h0l-.05-.64-.05-.31-.07-.3-.1-.3-.13-.29-.3-.56h0l-.43-.47-.24-.2-.26-.16-.28-.11-.3-.07-.64-.07h0l-.53.06-.26.05-.25.08-.23.11-.22.14-.42.33h0l-.33.45-.14.23-.11.24-.08.26-.05.27-.05.55h0l.05.56.05.27.08.26.11.25.14.24.33.45h0l.51.4.27.17.28.14.3.11.31.09.64.13-.37,2.09h0l-.92-.24-.44-.15-.42-.19-.39-.24-.37-.28-.7-.64h0l-.5-.77-.21-.4-.17-.41-.12-.43-.07-.45-.08-.92h0l.04-.67.04-.33.06-.32.09-.32.11-.31.26-.62h0l.32-.53.17-.25.19-.23.21-.21.23-.2.5-.37h0l.52-.26.26-.11.27-.09.28-.06.28-.04.58-.05h0l.53.05.26.04.25.06.25.09.24.11.47.25h0l.45.37.21.2.19.21.17.23.15.24.27.51h0l.22-.68.13-.32.16-.3.2-.28.23-.26.51-.49h0l.64-.37.33-.16.34-.12.35-.08.36-.05.73-.05h0l.54.05.53.07.51.11.25.08.24.09.23.11.22.13.43.29.42.33.41.35h0l.35.46.33.46.29.48.12.25.1.25.09.26.07.27.1.55.06.56.04.57h0l-.04.51-.05.51-.09.49-.13.48-.2.45-.25.44-.28.42-.3.42h0l-.37.33-.38.32-.39.29-.42.24-.45.18-.47.14-.48.1-.49.09-.28-2.09Z"/>
    <path class="cls-2" d="M288.29,809.88v4.92h-1.28l-7.35-5.17v-1.14h7.35v-1.53h1.28v1.53h2.71v1.39h-2.71ZM281.9,809.88l5.11,3.55v-3.55h-5.11Z"/>
    <path class="cls-2" d="M303.64,749.41h0l.45-.1.22-.06.21-.08.2-.1.19-.13.35-.29h0l.23-.32.1-.17.08-.17.06-.18.04-.19.04-.39h0l-.06-.48-.05-.23-.08-.22-.11-.21-.14-.19-.32-.37h0l-.45-.31-.24-.13-.25-.1-.26-.07-.27-.04-.55-.04h0l-.52.04-.25.04-.24.07-.23.1-.22.13-.42.3h0l-.3.39-.13.2-.1.21-.07.23-.04.24-.05.49h0l.02.32.05.31.1.3.13.29h0l.16.25.18.23.21.2.23.18-.17,1.31-5.82-1.1v-5.64h1.33v4.52l3.05.61h0l-.29-.5-.13-.26-.1-.26-.08-.27-.05-.28-.06-.57h0l.08-.7.07-.34.11-.32.15-.3.19-.29.44-.55h0l.59-.44.31-.19.32-.15.34-.1.35-.07.73-.07h0l.72.07.35.06.34.09.33.13.31.16.61.39h0l.3.31.29.32.25.33.2.36.14.39.09.41.06.43.04.43h0l-.06.69-.05.33-.09.32-.13.31-.16.3-.38.57h0l-.5.44-.26.19-.28.16-.3.12-.31.09-.65.13-.12-1.46Z"/>
    <path class="cls-2" d="M312.57,691.36l-.06,4.92-1.28-.02-7.28-5.27v-1.14s7.36.1,7.36.1l.02-1.53,1.28.02-.02,1.53,2.71.04-.02,1.39-2.71-.04ZM306.18,691.28l5.07,3.62.05-3.55-5.11-.07Z"/>
    <path class="cls-2" d="M373.73,746.59v7.49h-.25s-.24-.03-.24-.03l-.24-.06-.24-.07h0l-.4-.18-.39-.21-.36-.25-.35-.27h0l-.46-.43-.44-.44-.42-.47-.4-.48h0l-.56-.67-.58-.65-.62-.61-.65-.58h0l-.39-.25-.2-.11-.2-.09-.21-.07-.22-.05-.45-.07h0l-.39.05-.19.04-.18.06-.17.09-.16.11-.31.25h0l-.25.35-.11.18-.08.19-.06.2-.04.21-.04.43h0l.04.45.04.22.06.21.09.2.11.19.27.36h0l.37.27.19.11.2.09.21.06.22.04.46.04-.15,1.43h0l-.69-.11-.33-.08-.32-.12-.3-.16-.28-.19-.53-.44h0l-.38-.59-.16-.3-.12-.32-.08-.33-.05-.34-.05-.7h0l.05-.71.06-.34.09-.33.13-.32.17-.3.4-.58h0l.49-.4.26-.17.27-.14.29-.1.3-.06.63-.07h0l.34.02.34.05.33.09.32.12h0l.37.19.36.21.33.25.32.27h0l.52.51.51.53.96,1.11h0l.7.82.73.79h0l.36.31.39.27v-5.56h1.34Z"/>
    <path class="cls-2" d="M347.03,808.63h0l.45-.1.22-.06.21-.08.2-.1.19-.13.35-.29h0l.23-.32.1-.17.08-.17.06-.18.04-.19.04-.39h0l-.06-.48-.05-.23-.08-.22-.11-.21-.14-.19-.32-.37h0l-.45-.31-.24-.13-.25-.1-.26-.07-.27-.04-.55-.04h0l-.52.04-.25.04-.24.07-.23.1-.22.13-.42.3h0l-.3.39-.13.2-.1.21-.07.23-.04.24-.05.49h0l.02.32.05.31.1.3.13.29h0l.16.25.18.23.21.2.23.18-.17,1.31-5.82-1.1v-5.64h1.33v4.52l3.05.61h0l-.29-.5-.13-.26-.1-.26-.08-.27-.05-.28-.06-.57h0l.08-.7.07-.34.11-.32.15-.3.19-.29.44-.55h0l.59-.44.31-.19.32-.15.34-.1.35-.07.73-.07h0l.72.07.35.06.34.09.33.13.31.16.61.39h0l.3.31.29.32.25.33.2.36.14.39.09.41.06.43.04.43h0l-.06.69-.05.33-.09.32-.13.31-.16.3-.38.57h0l-.5.44-.26.19-.28.16-.3.12-.31.09-.65.13-.12-1.46Z"/>
    <path class="cls-2" d="M343.94,833.28v11.24h-.37s-.37-.05-.37-.05l-.36-.08-.35-.11h0l-.61-.28-.58-.31-.55-.38-.53-.41h0l-.69-.64-.66-.67-.62-.7-.6-.72h0l-.83-1-.43-.49-.44-.48-.46-.46-.47-.45-.98-.86h0l-.58-.38-.3-.17-.31-.14-.32-.11-.33-.08-.68-.1h0l-.59.07-.28.06-.27.09-.25.13-.24.16-.46.38h0l-.37.52-.16.27-.12.28-.09.3-.05.31-.06.64h0l.06.67.06.32.09.31.13.29.17.28.4.54h0l.56.41.29.17.31.13.32.09.34.06.69.06-.22,2.15h0l-.52-.08-.51-.09-.5-.13-.47-.17-.23-.11-.22-.12-.42-.29-.4-.32-.39-.34h0l-.29-.44-.27-.44-.24-.46-.18-.47-.12-.49-.08-.51-.07-1.05h0l.03-.53.05-.53.08-.52.13-.5.09-.24.11-.23.26-.45.29-.44.31-.43h0l.36-.31.37-.29.39-.26.41-.21.43-.15.46-.1.47-.06.48-.05h0l.52.03.51.07.5.14.49.17h0l.56.29.54.32.5.37.48.4h0l.79.77.76.79.73.82.71.84h0l1.04,1.23.54.6.55.59h0l.54.47.59.41v-8.34h2.01Z"/>
    <path class="cls-2" d="M343.94,820.06v11.24h-.37s-.37-.05-.37-.05l-.36-.08-.35-.11h0l-.61-.28-.58-.31-.55-.38-.53-.41h0l-.69-.64-.66-.67-.62-.7-.6-.72h0l-.83-1-.43-.49-.44-.48-.46-.46-.47-.45-.98-.86h0l-.58-.38-.3-.17-.31-.14-.32-.11-.33-.08-.68-.1h0l-.59.07-.28.06-.27.09-.25.13-.24.16-.46.38h0l-.37.52-.16.27-.12.28-.09.3-.05.31-.06.64h0l.06.67.06.32.09.31.13.29.17.28.4.54h0l.56.41.29.17.31.13.32.09.34.06.69.06-.22,2.15h0l-.52-.08-.51-.09-.5-.13-.47-.17-.23-.11-.22-.12-.42-.29-.4-.32-.39-.34h0l-.29-.44-.27-.44-.24-.46-.18-.47-.12-.49-.08-.51-.07-1.05h0l.03-.53.05-.53.08-.52.13-.5.09-.24.11-.23.26-.45.29-.44.31-.43h0l.36-.31.37-.29.39-.26.41-.21.43-.15.46-.1.47-.06.48-.05h0l.52.03.51.07.5.14.49.17h0l.56.29.54.32.5.37.48.4h0l.79.77.76.79.73.82.71.84h0l1.04,1.23.54.6.55.59h0l.54.47.59.41v-8.34h2.01Z"/>
    <path class="cls-2" d="M145.36,763.49h0l.47-.12.23-.07.22-.09.21-.11.2-.13.38-.3h0l.22-.32.1-.16.08-.17.05-.18.03-.19.04-.39h0l-.05-.46-.05-.22-.07-.21-.1-.2-.12-.19-.29-.37h0l-.37-.29-.19-.12-.2-.1-.22-.07-.23-.05-.47-.05h0l-.44.04-.21.04-.2.06-.19.09-.18.12-.35.27h0l-.27.35-.11.18-.09.19-.06.2-.04.21-.04.44h0l.05.5.11.49-1.22-.15h0l.02-.22h0l-.03-.42-.03-.21-.05-.2-.07-.2-.08-.19-.2-.38h0l-.29-.31-.16-.13-.17-.1-.19-.07-.2-.05-.42-.05h0l-.35.04-.17.03-.16.05-.15.08-.15.1-.28.22h0l-.22.3-.09.16-.07.16-.05.17-.03.18-.03.37h0l.04.37.03.18.05.17.07.16.09.16.22.3h0l.34.26.18.12.19.1.2.07.21.06.42.09-.25,1.39h0l-.61-.16-.29-.1-.28-.13-.26-.16-.25-.19-.47-.42h0l-.34-.51-.14-.27-.11-.28-.08-.29-.05-.3-.05-.61h0l.03-.44.07-.43.13-.42.17-.41h0l.21-.35.24-.32.3-.27.33-.24h0l.35-.17.36-.14.37-.07.39-.03h0l.35.03.34.07.33.13.31.17h0l.3.24.26.27.21.31.18.34h0l.15-.45.09-.22.11-.2.13-.19.15-.18.34-.33h0l.42-.25.22-.1.22-.08.23-.06.24-.03.49-.04h0l.71.09.34.07.32.11.3.16.29.2.55.46h0l.45.61.19.32.15.33.1.35.07.37.07.76h0l-.06.68-.06.33-.09.32-.13.3-.16.29-.39.56h0l-.5.44-.26.19-.28.16-.3.12-.31.09-.65.13-.19-1.39Z"/>
    <path class="cls-2" d="M77.47,727.16v4.92h-1.28l-7.35-5.17v-1.14h7.35v-1.53h1.28v1.53h2.71v1.39h-2.71ZM71.08,727.16l5.11,3.55v-3.55h-5.11Z"/>
    <path class="cls-2" d="M178.53,816.62h0l.45-.1.22-.06.21-.08.2-.1.19-.13.35-.29h0l.23-.32.1-.17.08-.17.06-.18.04-.19.04-.39h0l-.06-.48-.05-.23-.08-.22-.11-.21-.14-.19-.32-.37h0l-.45-.31-.24-.13-.25-.1-.26-.07-.27-.04-.55-.04h0l-.52.04-.25.04-.24.07-.23.1-.22.13-.42.3h0l-.3.39-.13.2-.1.21-.07.23-.04.24-.05.49h0l.02.32.05.31.1.3.13.29h0l.16.25.18.23.21.2.23.18-.17,1.31-5.82-1.1v-5.64h1.33v4.52l3.05.61h0l-.29-.5-.13-.26-.1-.26-.08-.27-.05-.28-.06-.57h0l.08-.7.07-.34.11-.32.15-.3.19-.29.44-.55h0l.59-.44.31-.19.32-.15.34-.1.35-.07.73-.07h0l.72.07.35.06.34.09.33.13.31.16.61.39h0l.3.31.29.32.25.33.2.36.14.39.09.41.06.43.04.43h0l-.06.69-.05.33-.09.32-.13.31-.16.3-.38.57h0l-.5.44-.26.19-.28.16-.3.12-.31.09-.65.13-.12-1.46Z"/>
    <path class="cls-2" d="M91.95,784.88v7.49h-.25s-.24-.03-.24-.03l-.24-.06-.24-.07h0l-.4-.18-.39-.21-.36-.25-.35-.27h0l-.46-.43-.44-.44-.42-.47-.4-.48h0l-.56-.67-.58-.65-.62-.61-.65-.58h0l-.39-.25-.2-.11-.2-.09-.21-.07-.22-.05-.45-.07h0l-.39.05-.19.04-.18.06-.17.09-.16.11-.31.25h0l-.25.35-.11.18-.08.19-.06.2-.04.21-.04.43h0l.04.45.04.22.06.21.09.2.11.19.27.36h0l.37.27.19.11.2.09.21.06.22.04.46.04-.15,1.43h0l-.69-.11-.33-.08-.32-.12-.3-.16-.28-.19-.53-.44h0l-.38-.59-.16-.3-.12-.32-.08-.33-.05-.34-.05-.7h0l.05-.71.06-.34.09-.33.13-.32.17-.3.4-.58h0l.49-.4.26-.17.27-.14.29-.1.3-.06.63-.07h0l.34.02.34.05.33.09.32.12h0l.37.19.36.21.33.25.32.27h0l.52.51.51.53.96,1.11h0l.7.82.73.79h0l.36.31.39.27v-5.56h1.34Z"/>
    <path class="cls-2" d="M140.01,689.75v7.49h-.25s-.24-.03-.24-.03l-.24-.06-.24-.07h0l-.4-.18-.39-.21-.36-.25-.35-.27h0l-.46-.43-.44-.44-.42-.47-.4-.48h0l-.56-.67-.58-.65-.62-.61-.65-.58h0l-.39-.25-.2-.11-.2-.09-.21-.07-.22-.05-.45-.07h0l-.39.05-.19.04-.18.06-.17.09-.16.11-.31.25h0l-.25.35-.11.18-.08.19-.06.2-.04.21-.04.43h0l.04.45.04.22.06.21.09.2.11.19.27.36h0l.37.27.19.11.2.09.21.06.22.04.46.04-.15,1.43h0l-.69-.11-.33-.08-.32-.12-.3-.16-.28-.19-.53-.44h0l-.38-.59-.16-.3-.12-.32-.08-.33-.05-.34-.05-.7h0l.05-.71.06-.34.09-.33.13-.32.17-.3.4-.58h0l.49-.4.26-.17.27-.14.29-.1.3-.06.63-.07h0l.34.02.34.05.33.09.32.12h0l.37.19.36.21.33.25.32.27h0l.52.51.51.53.96,1.11h0l.7.82.73.79h0l.36.31.39.27v-5.56h1.34Z"/>
    <path class="cls-2" d="M134.4,835.77v11.24h-.37s-.37-.05-.37-.05l-.36-.08-.35-.11h0l-.61-.28-.58-.31-.55-.38-.53-.41h0l-.69-.64-.66-.67-.62-.7-.6-.72h0l-.83-1-.43-.49-.44-.48-.46-.46-.47-.45-.98-.86h0l-.58-.38-.3-.17-.31-.14-.32-.11-.33-.08-.68-.1h0l-.59.07-.28.06-.27.09-.25.13-.24.16-.46.38h0l-.37.52-.16.27-.12.28-.09.3-.05.31-.06.64h0l.06.67.06.32.09.31.13.29.17.28.4.54h0l.56.41.29.17.31.13.32.09.34.06.69.06-.22,2.15h0l-.52-.08-.51-.09-.5-.13-.47-.17-.23-.11-.22-.12-.42-.29-.4-.32-.39-.34h0l-.29-.44-.27-.44-.24-.46-.18-.47-.12-.49-.08-.51-.07-1.05h0l.03-.53.05-.53.08-.52.13-.5.09-.24.11-.23.26-.45.29-.44.31-.43h0l.36-.31.37-.29.39-.26.41-.21.43-.15.46-.1.47-.06.48-.05h0l.52.03.51.07.5.14.49.17h0l.56.29.54.32.5.37.48.4h0l.79.77.76.79.73.82.71.84h0l1.04,1.23.54.6.55.59h0l.54.47.59.41v-8.34h2.01Z"/>
    <path class="cls-2" d="M134.4,827.75h-13.31l.4.47.38.48.34.51.32.52h0l.3.53.29.54.26.56.24.57h-2.02l-.42-.82-.22-.4-.24-.39-.26-.38-.27-.37-.58-.72h0l-.51-.54-.26-.26-.28-.24-.29-.22-.3-.21-.63-.39v-1.35h17.08v2.09Z"/>
    <path class="cls-2" d="M741.6,579.78v7.49h-.25s-.24-.03-.24-.03l-.24-.06-.24-.07h0l-.4-.18-.39-.21-.36-.25-.35-.27h0l-.46-.43-.44-.44-.42-.47-.4-.48h0l-.56-.67-.58-.65-.62-.61-.65-.58h0l-.39-.25-.2-.11-.2-.09-.21-.07-.22-.05-.45-.07h0l-.39.05-.19.04-.18.06-.17.09-.16.11-.31.25h0l-.25.35-.11.18-.08.19-.06.2-.04.21-.04.43h0l.04.45.04.22.06.21.09.2.11.19.27.36h0l.37.27.19.11.2.09.21.06.22.04.46.04-.15,1.43h0l-.69-.11-.33-.08-.32-.12-.3-.16-.28-.19-.53-.44h0l-.38-.59-.16-.3-.12-.32-.08-.33-.05-.34-.05-.7h0l.05-.71.06-.34.09-.33.13-.32.17-.3.4-.58h0l.49-.4.26-.17.27-.14.29-.1.3-.06.63-.07h0l.34.02.34.05.33.09.32.12h0l.37.19.36.21.33.25.32.27h0l.52.51.51.53.96,1.11h0l.7.82.73.79h0l.36.31.39.27v-5.56h1.34Z"/>
    <path class="cls-2" d="M796.81,481v7.49h-.25s-.24-.03-.24-.03l-.24-.06-.24-.07h0l-.4-.18-.39-.21-.36-.25-.35-.27h0l-.46-.43-.44-.44-.42-.47-.4-.48h0l-.56-.67-.58-.65-.62-.61-.65-.58h0l-.39-.25-.2-.11-.2-.09-.21-.07-.22-.05-.45-.07h0l-.39.05-.19.04-.18.06-.17.09-.16.11-.31.25h0l-.25.35-.11.18-.08.19-.06.2-.04.21-.04.43h0l.04.45.04.22.06.21.09.2.11.19.27.36h0l.37.27.19.11.2.09.21.06.22.04.46.04-.15,1.43h0l-.69-.11-.33-.08-.32-.12-.3-.16-.28-.19-.53-.44h0l-.38-.59-.16-.3-.12-.32-.08-.33-.05-.34-.05-.7h0l.05-.71.06-.34.09-.33.13-.32.17-.3.4-.58h0l.49-.4.26-.17.27-.14.29-.1.3-.06.63-.07h0l.34.02.34.05.33.09.32.12h0l.37.19.36.21.33.25.32.27h0l.52.51.51.53.96,1.11h0l.7.82.73.79h0l.36.31.39.27v-5.56h1.34Z"/>
    <path class="cls-2" d="M721.83,471.59h0l.45-.1.22-.06.21-.08.2-.1.19-.13.35-.29h0l.23-.32.1-.17.08-.17.06-.18.04-.19.04-.39h0l-.06-.48-.05-.23-.08-.22-.11-.21-.14-.19-.32-.37h0l-.45-.31-.24-.13-.25-.1-.26-.07-.27-.04-.55-.04h0l-.52.04-.25.04-.24.07-.23.1-.22.13-.42.3h0l-.3.39-.13.2-.1.21-.07.23-.04.24-.05.49h0l.02.32.05.31.1.3.13.29h0l.16.25.18.23.21.2.23.18-.17,1.31-5.82-1.1v-5.64h1.33v4.52l3.05.61h0l-.29-.5-.13-.26-.1-.26-.08-.27-.05-.28-.06-.57h0l.08-.7.07-.34.11-.32.15-.3.19-.29.44-.55h0l.59-.44.31-.19.32-.15.34-.1.35-.07.73-.07h0l.72.07.35.06.34.09.33.13.31.16.61.39h0l.3.31.29.32.25.33.2.36.14.39.09.41.06.43.04.43h0l-.06.69-.05.33-.09.32-.13.31-.16.3-.38.57h0l-.5.44-.26.19-.28.16-.3.12-.31.09-.65.13-.12-1.46Z"/>
    <path class="cls-2" d="M708.69,520.65h0l.47-.12.23-.07.22-.09.21-.11.2-.13.38-.3h0l.22-.32.1-.16.08-.17.05-.18.03-.19.04-.39h0l-.05-.46-.05-.22-.07-.21-.1-.2-.12-.19-.29-.37h0l-.37-.29-.19-.12-.2-.1-.22-.07-.23-.05-.47-.05h0l-.44.04-.21.04-.2.06-.19.09-.18.12-.35.27h0l-.27.35-.11.18-.09.19-.06.2-.04.21-.04.44h0l.05.5.11.49-1.22-.15h0l.02-.22h0l-.03-.42-.03-.21-.05-.2-.07-.2-.08-.19-.2-.38h0l-.29-.31-.16-.13-.17-.1-.19-.07-.2-.05-.42-.05h0l-.35.04-.17.03-.16.05-.15.08-.15.1-.28.22h0l-.22.3-.09.16-.07.16-.05.17-.03.18-.03.37h0l.04.37.03.18.05.17.07.16.09.16.22.3h0l.34.26.18.12.19.1.2.07.21.06.42.09-.25,1.39h0l-.61-.16-.29-.1-.28-.13-.26-.16-.25-.19-.47-.42h0l-.34-.51-.14-.27-.11-.28-.08-.29-.05-.3-.05-.61h0l.03-.44.07-.43.13-.42.17-.41h0l.21-.35.24-.32.3-.27.33-.24h0l.35-.17.36-.14.37-.07.39-.03h0l.35.03.34.07.33.13.31.17h0l.3.24.26.27.21.31.18.34h0l.15-.45.09-.22.11-.2.13-.19.15-.18.34-.33h0l.42-.25.22-.1.22-.08.23-.06.24-.03.49-.04h0l.71.09.34.07.32.11.3.16.29.2.55.46h0l.45.61.19.32.15.33.1.35.07.37.07.76h0l-.06.68-.06.33-.09.32-.13.3-.16.29-.39.56h0l-.5.44-.26.19-.28.16-.3.12-.31.09-.65.13-.19-1.39Z"/>
    <path class="cls-2" d="M796.25,553.49v4.92h-1.28l-7.35-5.17v-1.14h7.35v-1.53h1.28v1.53h2.71v1.39h-2.71ZM789.86,553.49l5.11,3.55v-3.55h-5.11Z"/>
    <path class="cls-2" d="M774.73,607.87v11.24h-.37s-.37-.05-.37-.05l-.36-.08-.35-.11h0l-.61-.28-.58-.31-.55-.38-.53-.41h0l-.69-.64-.66-.67-.62-.7-.6-.72h0l-.83-1-.43-.49-.44-.48-.46-.46-.47-.45-.98-.86h0l-.58-.38-.3-.17-.31-.14-.32-.11-.33-.08-.68-.1h0l-.59.07-.28.06-.27.09-.25.13-.24.16-.46.38h0l-.37.52-.16.27-.12.28-.09.3-.05.31-.06.64h0l.06.67.06.32.09.31.13.29.17.28.4.54h0l.56.41.29.17.31.13.32.09.34.06.69.06-.22,2.15h0l-.52-.08-.51-.09-.5-.13-.47-.17-.23-.11-.22-.12-.42-.29-.4-.32-.39-.34h0l-.29-.44-.27-.44-.24-.46-.18-.47-.12-.49-.08-.51-.07-1.05h0l.03-.53.05-.53.08-.52.13-.5.09-.24.11-.23.26-.45.29-.44.31-.43h0l.36-.31.37-.29.39-.26.41-.21.43-.15.46-.1.47-.06.48-.05h0l.52.03.51.07.5.14.49.17h0l.56.29.54.32.5.37.48.4h0l.79.77.76.79.73.82.71.84h0l1.04,1.23.54.6.55.59h0l.54.47.59.41v-8.34h2.01Z"/>
    <path class="cls-2" d="M761.48,605.01h0l-.8-.32-.38-.18-.37-.21-.34-.25-.32-.28-.62-.6h0l-.44-.71-.19-.36-.15-.38-.1-.39-.06-.41-.06-.83h0l.04-.62.03-.31.06-.3.08-.3.1-.29.24-.58h0l.32-.5.17-.24.19-.22.21-.2.22-.19.47-.36h0l.6-.34.62-.29.65-.23.66-.19h0l1-.18.5-.07.5-.06,1.01-.06,1.01-.02h0l1.23.03.61.03.61.06.6.09.6.12,1.19.29h0l.8.32.39.18.37.21.35.25.33.28.62.6h0l.44.71.19.37.15.38.1.39.06.41.06.84h0l-.05.56-.07.55-.12.53-.08.26-.1.25-.12.24-.14.23-.33.43-.37.41-.39.4h0l-.81.43-.81.39-.41.18-.42.16-.42.13-.43.11-.44.09-.44.07-.9.08-.91.04h-.92s-1.23-.01-1.23-.01l-.61-.03-.61-.06-.61-.09-.6-.12-1.2-.29ZM771.91,602.5h0l.56-.49.24-.26.2-.29.15-.32.1-.34.07-.36.06-.37h0l-.06-.37-.07-.36-.1-.34-.15-.32-.2-.29-.25-.26-.56-.49h0l-.67-.27-.67-.25-.68-.2-.69-.14-.7-.08-.71-.04h-1.44s-1.45,0-1.45,0l-.72.04-.71.08-.69.14-.68.2-.67.25-.67.27h0l-.56.49-.24.27-.2.29-.15.32-.1.34-.07.36-.06.37h0l.1.68.08.32.13.3.18.27.22.25.51.47h0l.68.29.69.27.7.22.36.09.36.07.73.09.74.05h1.49s1.44.01,1.44.01l.71-.04.71-.08.69-.14.68-.2.67-.25.67-.27Z"/>
    <path class="cls-2" d="M583.55,582.68h0l.47-.12.23-.07.22-.09.21-.11.2-.13.38-.3h0l.22-.32.1-.16.08-.17.05-.18.03-.19.04-.39h0l-.05-.46-.05-.22-.07-.21-.1-.2-.12-.19-.29-.37h0l-.37-.29-.19-.12-.2-.1-.22-.07-.23-.05-.47-.05h0l-.44.04-.21.04-.2.06-.19.09-.18.12-.35.27h0l-.27.35-.11.18-.09.19-.06.21-.04.21-.04.44h0l.05.5.11.49-1.22-.15h0l.02-.22h0l-.03-.42-.03-.21-.05-.2-.07-.2-.08-.19-.2-.38h0l-.29-.31-.16-.13-.17-.1-.19-.07-.2-.05-.42-.05h0l-.35.04-.17.03-.16.05-.15.08-.15.1-.28.22h0l-.22.3-.09.16-.07.16-.05.17-.03.18-.03.37h0l.04.37.03.18.05.17.07.16.09.16.22.3h0l.34.26.18.12.19.1.2.07.21.06.42.09-.25,1.39h0l-.61-.16-.29-.1-.28-.13-.26-.16-.25-.19-.47-.42h0l-.34-.51-.14-.27-.11-.28-.08-.29-.05-.3-.05-.61h0l.03-.44.07-.43.13-.42.17-.41h0l.21-.35.24-.32.3-.27.33-.24h0l.35-.17.36-.14.37-.07.39-.03h0l.35.03.34.07.33.13.31.17h0l.3.24.26.27.21.31.18.34h0l.15-.45.09-.22.11-.2.13-.19.15-.18.34-.33h0l.42-.25.22-.1.22-.08.23-.06.24-.03.49-.04h0l.71.09.34.07.32.11.3.16.29.2.55.46h0l.45.61.19.32.15.33.1.35.07.37.07.76h0l-.06.68-.06.33-.09.32-.13.3-.16.29-.39.56h0l-.5.44-.26.19-.28.16-.3.12-.31.09-.65.13-.19-1.39Z"/>
    <path class="cls-2" d="M500.98,528.45h0l.45-.1.22-.06.21-.08.2-.1.19-.13.35-.29h0l.23-.32.1-.17.08-.17.06-.18.04-.19.04-.39h0l-.06-.48-.05-.23-.08-.22-.11-.21-.14-.19-.32-.37h0l-.45-.31-.24-.13-.25-.1-.26-.07-.27-.04-.55-.04h0l-.52.04-.25.04-.24.07-.23.1-.22.13-.42.3h0l-.3.39-.13.2-.1.21-.07.23-.04.24-.05.49h0l.02.32.05.31.1.3.13.29h0l.16.25.18.23.21.2.23.18-.17,1.31-5.82-1.1v-5.64h1.33v4.52l3.05.61h0l-.29-.5-.13-.26-.1-.26-.08-.27-.05-.28-.06-.57h0l.08-.7.07-.34.11-.32.15-.3.19-.29.44-.55h0l.59-.44.31-.19.32-.15.34-.1.35-.07.73-.07h0l.72.07.35.06.34.09.33.13.31.16.61.39h0l.3.31.29.32.25.33.2.36.14.39.09.41.06.43.04.43h0l-.06.69-.05.33-.09.32-.13.31-.16.3-.38.57h0l-.5.44-.26.19-.28.16-.3.12-.31.09-.65.13-.12-1.46Z"/>
    <path class="cls-2" d="M531.64,467.11v7.49h-.25s-.24-.03-.24-.03l-.24-.06-.24-.07h0l-.4-.18-.39-.21-.36-.25-.35-.27h0l-.46-.43-.44-.44-.42-.47-.4-.48h0l-.56-.67-.58-.65-.62-.61-.65-.58h0l-.39-.25-.2-.11-.2-.09-.21-.07-.22-.05-.45-.07h0l-.39.05-.19.04-.18.06-.17.09-.16.11-.31.25h0l-.25.35-.11.18-.08.19-.06.2-.04.21-.04.43h0l.04.45.04.22.06.21.09.2.11.19.27.36h0l.37.27.19.11.2.09.21.06.22.04.46.04-.15,1.43h0l-.69-.11-.33-.08-.32-.12-.3-.16-.28-.19-.53-.44h0l-.38-.59-.16-.3-.12-.32-.08-.33-.05-.34-.05-.7h0l.05-.71.06-.34.09-.33.13-.32.17-.3.4-.58h0l.49-.4.26-.17.27-.14.29-.1.3-.06.63-.07h0l.34.02.34.05.33.09.32.12h0l.37.19.36.21.33.25.32.27h0l.52.51.51.53.96,1.11h0l.7.82.73.79h0l.36.31.39.27v-5.56h1.34Z"/>
    <path class="cls-2" d="M617.41,475.76h0l.45-.1.22-.06.21-.08.2-.1.19-.13.35-.29h0l.23-.32.1-.17.08-.17.06-.18.04-.19.04-.39h0l-.06-.48-.05-.23-.08-.22-.11-.21-.14-.19-.32-.37h0l-.45-.31-.24-.13-.25-.1-.26-.07-.27-.04-.55-.04h0l-.52.04-.25.04-.24.07-.23.1-.22.13-.42.3h0l-.3.39-.13.2-.1.21-.07.23-.04.24-.05.49h0l.02.32.05.31.1.3.13.29h0l.16.25.18.23.21.2.23.18-.17,1.31-5.82-1.1v-5.64h1.33v4.52l3.05.61h0l-.29-.5-.13-.26-.1-.26-.08-.27-.05-.28-.06-.57h0l.08-.7.07-.34.11-.32.15-.3.19-.29.44-.55h0l.59-.44.31-.19.32-.15.34-.1.35-.07.73-.07h0l.72.07.35.06.34.09.33.13.31.16.61.39h0l.3.31.29.32.25.33.2.36.14.39.09.41.06.43.04.43h0l-.06.69-.05.33-.09.32-.13.31-.16.3-.38.57h0l-.5.44-.26.19-.28.16-.3.12-.31.09-.65.13-.12-1.46Z"/>
    <path class="cls-2" d="M568.22,515.18h0l.45-.1.22-.06.21-.08.2-.1.19-.13.35-.29h0l.23-.32.1-.17.08-.17.06-.18.04-.19.04-.39h0l-.06-.48-.05-.23-.08-.22-.11-.21-.14-.19-.32-.37h0l-.45-.31-.24-.13-.25-.1-.26-.07-.27-.04-.55-.04h0l-.52.04-.25.04-.24.07-.23.1-.22.13-.42.3h0l-.3.39-.13.2-.1.21-.07.23-.04.24-.05.49h0l.02.32.05.31.1.3.13.29h0l.16.25.18.23.21.2.23.18-.17,1.31-5.82-1.1v-5.64h1.33v4.52l3.05.61h0l-.29-.5-.13-.26-.1-.26-.08-.27-.05-.28-.06-.57h0l.08-.7.07-.34.11-.32.15-.3.19-.29.44-.55h0l.59-.44.31-.19.32-.15.34-.1.35-.07.73-.07h0l.72.07.35.06.34.09.33.13.31.16.61.39h0l.3.31.29.32.25.33.2.36.14.39.09.41.06.43.04.43h0l-.06.69-.05.33-.09.32-.13.31-.16.3-.38.57h0l-.5.44-.26.19-.28.16-.3.12-.31.09-.65.13-.12-1.46Z"/>
    <path class="cls-2" d="M563.96,613.92h-13.31l.4.47.38.48.34.51.32.52h0l.3.53.29.54.26.56.24.57h-2.02l-.42-.82-.22-.4-.24-.39-.26-.38-.27-.37-.58-.72h0l-.51-.54-.26-.26-.28-.24-.29-.22-.3-.21-.63-.39v-1.35h17.08v2.09Z"/>
    <path class="cls-2" d="M559.84,604.16h0l.57-.13.28-.08.27-.1.25-.13.24-.16.45-.36h0l.28-.42.12-.22.09-.23.06-.24.04-.24.04-.5h0l-.03-.44-.07-.43-.06-.21-.08-.2-.19-.4h0l-.25-.34-.27-.32-.32-.28-.34-.25h0l-.48-.25-.49-.22-.51-.17-.52-.14h0l-.63-.13-.64-.1-.64-.05-.64-.02h-.42s.48.37.48.37l.23.19.21.21.19.22.18.24.33.5h0l.26.56.11.28.09.29.06.3.04.3.05.62h0l-.05.51-.07.5-.1.48-.07.23-.09.23-.1.22-.12.21-.28.41-.31.39-.33.39h0l-.45.33-.46.31-.47.27-.24.12-.25.1-.52.15-.54.09-.55.06-.56.04h0l-.58-.04-.57-.06-.56-.1-.27-.07-.26-.08-.26-.1-.25-.12-.49-.28-.47-.33-.46-.35h0l-.35-.42-.33-.42-.29-.44-.12-.23-.11-.24-.09-.24-.07-.25-.11-.52-.07-.53-.05-.54h0l.07-.8.06-.39.09-.38.13-.37.16-.36.38-.71h0l.53-.65.28-.3.31-.28.33-.24.35-.22.74-.39h0l1.17-.34.59-.14.6-.1.6-.07.61-.04,1.22-.02h0l1.32.03.66.04.65.07.65.1.64.14,1.28.33h0l.85.38.4.21.38.24.36.28.33.31.62.68h0l.44.76.19.39.15.4.1.42.07.43.07.88h0l-.07.89-.07.43-.11.42-.16.4-.21.38-.49.74h0l-.68.58-.36.26-.38.21-.4.16-.42.12-.88.18-.19-2.01ZM549.66,598.57h0l-.44.5-.19.26-.15.28-.11.3-.07.31-.09.66h0l.1.69.08.33.12.31.17.29.2.27.47.52h0l.67.45.35.19.36.15.38.1.39.06.81.07h0l.73-.07.35-.06.34-.1.32-.14.31-.18.59-.43h0l.43-.53.18-.28.15-.29.1-.31.07-.33.08-.68h0l-.08-.67-.07-.32-.1-.31-.15-.29-.19-.27-.43-.52h0l-.64-.42-.33-.18-.34-.14-.36-.09-.37-.06-.77-.05h0l-.78.06-.38.06-.37.09-.35.14-.34.18-.65.43Z"/>
    <path class="cls-2" d="M385.1,549.84h0l.45-.1.22-.06.21-.08.2-.1.19-.13.35-.29h0l.23-.32.1-.17.08-.17.06-.18.04-.19.04-.39h0l-.06-.48-.05-.23-.08-.22-.11-.21-.14-.19-.32-.37h0l-.45-.31-.24-.13-.25-.1-.26-.07-.27-.04-.55-.04h0l-.52.04-.25.04-.24.07-.23.1-.22.13-.42.3h0l-.3.39-.13.2-.1.21-.07.23-.04.24-.05.49h0l.02.32.05.31.1.3.13.29h0l.16.25.18.23.21.2.23.18-.17,1.31-5.82-1.1v-5.64h1.33v4.52l3.05.61h0l-.29-.5-.13-.26-.1-.26-.08-.27-.05-.28-.06-.57h0l.08-.7.07-.34.11-.32.15-.3.19-.29.44-.55h0l.59-.44.31-.19.32-.15.34-.1.35-.07.73-.07h0l.72.07.35.06.34.09.33.13.31.16.61.39h0l.3.31.29.32.25.33.2.36.14.39.09.41.06.43.04.43h0l-.06.69-.05.33-.09.32-.13.31-.16.3-.38.57h0l-.5.44-.26.19-.28.16-.3.12-.31.09-.65.13-.12-1.46Z"/>
    <path class="cls-2" d="M383.46,483.02v7.49h-.25s-.24-.03-.24-.03l-.24-.06-.24-.07h0l-.4-.18-.39-.21-.36-.25-.35-.27h0l-.46-.43-.44-.44-.42-.47-.4-.48h0l-.56-.67-.58-.65-.62-.61-.65-.58h0l-.39-.25-.2-.11-.2-.09-.21-.07-.22-.05-.45-.07h0l-.39.05-.19.04-.18.06-.17.09-.16.11-.31.25h0l-.25.35-.11.18-.08.19-.06.2-.04.21-.04.43h0l.04.45.04.22.06.21.09.2.11.19.27.36h0l.37.27.19.11.2.09.21.06.22.04.46.04-.15,1.43h0l-.69-.11-.33-.08-.32-.12-.3-.16-.28-.19-.53-.44h0l-.38-.59-.16-.3-.12-.32-.08-.33-.05-.34-.05-.7h0l.05-.71.06-.34.09-.33.13-.32.17-.3.4-.58h0l.49-.4.26-.17.27-.14.29-.1.3-.06.63-.07h0l.34.02.34.05.33.09.32.12h0l.37.19.36.21.33.25.32.27h0l.52.51.51.53.96,1.11h0l.7.82.73.79h0l.36.31.39.27v-5.56h1.34Z"/>
    <path class="cls-2" d="M322.22,459.56v4.92h-1.28l-7.35-5.17v-1.14h7.35v-1.53h1.28v1.53h2.71v1.39h-2.71ZM315.83,459.56l5.11,3.55v-3.55h-5.11Z"/>
    <path class="cls-2" d="M280.4,581.82h0l.45-.1.22-.06.21-.08.2-.1.19-.13.35-.29h0l.23-.32.1-.17.08-.17.06-.18.04-.19.04-.39h0l-.06-.48-.05-.23-.08-.22-.11-.21-.14-.19-.32-.37h0l-.45-.31-.24-.13-.25-.1-.26-.07-.27-.04-.55-.04h0l-.52.04-.25.04-.24.07-.23.1-.22.13-.42.3h0l-.3.39-.13.2-.1.21-.07.23-.04.24-.05.49h0l.02.32.05.31.1.3.13.29h0l.16.25.18.23.21.2.23.18-.17,1.31-5.82-1.1v-5.64h1.33v4.52l3.05.61h0l-.29-.5-.13-.26-.1-.26-.08-.27-.05-.28-.06-.57h0l.08-.7.07-.34.11-.32.15-.3.19-.29.44-.55h0l.59-.44.31-.19.32-.15.34-.1.35-.07.73-.07h0l.72.07.35.06.34.09.33.13.31.16.61.39h0l.3.31.29.32.25.33.2.36.14.39.09.41.06.43.04.43h0l-.06.69-.05.33-.09.32-.13.31-.16.3-.38.57h0l-.5.44-.26.19-.28.16-.3.12-.31.09-.65.13-.12-1.46Z"/>
    <path class="cls-2" d="M316.27,520.92v4.92h-1.28l-7.35-5.17v-1.14h7.35v-1.53h1.28v1.53h2.71v1.39h-2.71ZM309.89,520.92l5.11,3.55v-3.55h-5.11Z"/>
    <path class="cls-2" d="M347.94,614.07h-13.31l.4.47.38.48.34.51.32.52h0l.3.53.29.54.26.56.24.57h-2.02l-.42-.82-.22-.4-.24-.39-.26-.38-.27-.37-.58-.72h0l-.51-.54-.26-.26-.28-.24-.29-.22-.3-.21-.63-.39v-1.35h17.08v2.09Z"/>
    <path class="cls-2" d="M337.36,605.35h0l-.49.27-.25.12-.26.09-.27.06-.28.04-.56.04h0l-.44-.04-.44-.06-.42-.09-.4-.14-.38-.2-.36-.24-.34-.27-.34-.29h0l-.29-.4-.27-.4-.24-.41-.18-.43-.13-.46-.08-.47-.08-.97h0l.08-.99.08-.48.13-.46.19-.44.24-.42.28-.41.29-.4h0l.34-.29.35-.28.36-.25.38-.2.41-.14.43-.09.44-.06.45-.05h0l.55.04.27.04.26.06.25.09.25.11.48.27h0l.44.4.2.21.18.23.16.25.14.26.24.54h0l.28-.69.16-.33.19-.31.22-.29.25-.27.55-.5h0l.63-.36.32-.15.33-.12.35-.08.35-.05.72-.06h0l.52.05.51.07.5.1.24.07.23.09.23.1.22.12.42.28.41.32.4.34h0l.34.45.32.46.28.47.12.24.1.25.15.52.09.54.06.56.04.56h0l-.04.56-.06.56-.09.54-.07.26-.08.26-.1.25-.12.24-.28.47-.32.46-.34.45h0l-.4.34-.41.32-.43.28-.22.12-.23.1-.24.09-.24.07-.5.1-.52.07-.52.05h0l-.74-.05-.36-.05-.35-.08-.34-.12-.33-.16-.64-.37h0l-.53-.51-.24-.27-.21-.29-.17-.31-.14-.33-.24-.69h0l-.24.55-.14.26-.16.25-.18.23-.2.22-.44.41ZM344.76,604.09h0l.39-.25.18-.13.17-.15.15-.17.14-.18.26-.38h0l.19-.43.15-.44.08-.46.04-.47h0l-.07-.69-.06-.33-.1-.32-.14-.3-.18-.29-.42-.55h0l-.54-.42-.28-.18-.3-.14-.32-.1-.33-.06-.68-.07h0l-.7.07-.34.07-.32.1-.3.15-.29.18-.55.43h0l-.42.56-.18.29-.14.31-.1.32-.07.34-.07.7h0l.07.68.06.33.1.31.14.3.18.28.42.54h0l.54.42.28.18.3.14.31.1.33.06.68.07h0l.45-.03.44-.07.42-.14.41-.18ZM337.15,603.07h0l.33-.45.14-.23.11-.25.08-.26.05-.27.05-.56h0l-.05-.55-.05-.27-.08-.25-.11-.24-.14-.23-.33-.44h0l-.41-.33-.21-.14-.23-.11-.24-.08-.25-.05-.52-.06h0l-.54.06-.26.05-.25.08-.23.12-.22.15-.43.34h0l-.34.44-.14.23-.11.24-.08.25-.05.27-.06.55h0l.05.55.05.27.08.26.11.24.14.23.33.44h0l.4.33.21.14.22.12.24.08.25.05.52.06h0l.55-.05.27-.05.25-.08.24-.11.23-.14.44-.34Z"/>
    <path class="cls-2" d="M105.41,457.62v7.49h-.25s-.24-.03-.24-.03l-.24-.06-.24-.07h0l-.4-.18-.39-.21-.36-.25-.35-.27h0l-.46-.43-.44-.44-.42-.47-.4-.48h0l-.56-.67-.58-.65-.62-.61-.65-.58h0l-.39-.25-.2-.11-.2-.09-.21-.07-.22-.05-.45-.07h0l-.39.05-.19.04-.18.06-.17.09-.16.11-.31.25h0l-.25.35-.11.18-.08.19-.06.2-.04.21-.04.43h0l.04.45.04.22.06.21.09.2.11.19.27.36h0l.37.27.19.11.2.09.21.06.22.04.46.04-.15,1.43h0l-.69-.11-.33-.08-.32-.12-.3-.16-.28-.19-.53-.44h0l-.38-.59-.16-.3-.12-.32-.08-.33-.05-.34-.05-.7h0l.05-.71.06-.34.09-.33.13-.32.17-.3.4-.58h0l.49-.4.26-.17.27-.14.29-.1.3-.06.63-.07h0l.34.02.34.05.33.09.32.12h0l.37.19.36.21.33.25.32.27h0l.52.51.51.53.96,1.11h0l.7.82.73.79h0l.36.31.39.27v-5.56h1.34Z"/>
    <path class="cls-2" d="M171.25,482.3h0l.45-.1.22-.06.21-.08.2-.1.19-.13.35-.29h0l.23-.32.1-.17.08-.17.06-.18.04-.19.04-.39h0l-.06-.48-.05-.23-.08-.22-.11-.21-.14-.19-.32-.37h0l-.45-.31-.24-.13-.25-.1-.26-.07-.27-.04-.55-.04h0l-.52.04-.25.04-.24.07-.23.1-.22.13-.42.3h0l-.3.39-.13.2-.1.21-.07.23-.04.24-.05.49h0l.02.32.05.31.1.3.13.29h0l.16.25.18.23.21.2.23.18-.17,1.31-5.82-1.1v-5.64h1.33v4.52l3.05.61h0l-.29-.5-.13-.26-.1-.26-.08-.27-.05-.28-.06-.57h0l.08-.7.07-.34.11-.32.15-.3.19-.29.44-.55h0l.59-.44.31-.19.32-.15.34-.1.35-.07.73-.07h0l.72.07.35.06.34.09.33.13.31.16.61.39h0l.3.31.29.32.25.33.2.36.14.39.09.41.06.43.04.43h0l-.06.69-.05.33-.09.32-.13.31-.16.3-.38.57h0l-.5.44-.26.19-.28.16-.3.12-.31.09-.65.13-.12-1.46Z"/>
    <path class="cls-2" d="M192.13,530.67v7.49h-.25s-.24-.03-.24-.03l-.24-.06-.24-.07h0l-.4-.18-.39-.21-.36-.25-.35-.27h0l-.46-.43-.44-.44-.42-.47-.4-.48h0l-.56-.67-.58-.65-.62-.61-.65-.58h0l-.39-.25-.2-.11-.2-.09-.21-.07-.22-.05-.45-.07h0l-.39.05-.19.04-.18.06-.17.09-.16.11-.31.25h0l-.25.35-.11.18-.08.19-.06.2-.04.21-.04.43h0l.04.45.04.22.06.21.09.2.11.19.27.36h0l.37.27.19.11.2.09.21.06.22.04.46.04-.15,1.43h0l-.69-.11-.33-.08-.32-.12-.3-.16-.28-.19-.53-.44h0l-.38-.59-.16-.3-.12-.32-.08-.33-.05-.34-.05-.7h0l.05-.71.06-.34.09-.33.13-.32.17-.3.4-.58h0l.49-.4.26-.17.27-.14.29-.1.3-.06.63-.07h0l.34.02.34.05.33.09.32.12h0l.37.19.36.21.33.25.32.27h0l.52.51.51.53.96,1.11h0l.7.82.73.79h0l.36.31.39.27v-5.56h1.34Z"/>
    <path class="cls-2" d="M152.55,584.25v4.92h-1.28l-7.35-5.17v-1.14h7.35v-1.53h1.28v1.53h2.71v1.39h-2.71ZM146.16,584.25l5.11,3.55v-3.55h-5.11Z"/>
    <path class="cls-2" d="M98.2,523.11v4.92h-1.28l-7.35-5.17v-1.14h7.35v-1.53h1.28v1.53h2.71v1.39h-2.71ZM91.81,523.11l5.11,3.55v-3.55h-5.11Z"/>
    <path class="cls-2" d="M134.11,616.37h-13.31l.4.47.38.48.34.51.32.52h0l.3.53.29.54.26.56.24.57h-2.02l-.42-.82-.22-.4-.24-.39-.26-.38-.27-.37-.58-.72h0l-.51-.54-.26-.26-.28-.24-.29-.22-.3-.21-.63-.39v-1.35h17.08v2.09Z"/>
    <path class="cls-2" d="M117.32,608.8v-11.01h1.62l1.08.9.55.43.57.41.58.39.6.37,1.21.71h0l1.43.73.72.35.73.32.74.29.75.27,1.52.5h0l1.15.29.58.13.58.11.59.09.59.07,1.18.11v2.15h0l-1.23-.1-.61-.07-.61-.09-.6-.11-.6-.13-1.2-.29h0l-1.41-.43-.7-.23-.69-.26-.68-.28-.67-.31-1.33-.65h0l-1.17-.66-.58-.35-.56-.36-.55-.38-.54-.4-1.05-.84v8.33h-2.01Z"/>
    <path class="cls-2" d="M826.23,279.14v4.92h-1.28l-7.35-5.17v-1.14h7.35v-1.53h1.28v1.53h2.71v1.39h-2.71ZM819.84,279.14l5.11,3.55v-3.55h-5.11Z"/>
    <path class="cls-2" d="M762.33,263.87h0l.45-.1.22-.06.21-.08.2-.1.19-.13.35-.29h0l.23-.32.1-.17.08-.17.06-.18.04-.19.04-.39h0l-.06-.48-.05-.23-.08-.22-.11-.21-.14-.19-.32-.37h0l-.45-.31-.24-.13-.25-.1-.26-.07-.27-.04-.55-.04h0l-.52.04-.25.04-.24.07-.23.1-.22.13-.42.3h0l-.3.39-.13.2-.1.21-.07.23-.04.24-.05.49h0l.02.32.05.31.1.3.13.29h0l.16.25.18.23.21.2.23.18-.17,1.31-5.82-1.1v-5.64h1.33v4.52l3.05.61h0l-.29-.5-.13-.26-.1-.26-.08-.27-.05-.28-.06-.57h0l.08-.7.07-.34.11-.32.15-.3.19-.29.44-.55h0l.59-.44.31-.19.32-.15.34-.1.35-.07.73-.07h0l.72.07.35.06.34.09.33.13.31.16.61.39h0l.3.31.29.32.25.33.2.36.14.39.09.41.06.43.04.43h0l-.06.69-.05.33-.09.32-.13.31-.16.3-.38.57h0l-.5.44-.26.19-.28.16-.3.12-.31.09-.65.13-.12-1.46Z"/>
    <path class="cls-2" d="M782.11,322.48h0l.45-.1.22-.06.21-.08.2-.1.19-.13.35-.29h0l.23-.32.1-.17.08-.17.06-.18.04-.19.04-.39h0l-.06-.48-.05-.23-.08-.22-.11-.21-.14-.19-.32-.37h0l-.45-.31-.24-.13-.25-.1-.26-.07-.27-.04-.55-.04h0l-.52.04-.25.04-.24.07-.23.1-.22.13-.42.3h0l-.3.39-.13.2-.1.21-.07.23-.04.24-.05.49h0l.02.32.05.31.1.3.13.29h0l.16.25.18.23.21.2.23.18-.17,1.31-5.82-1.1v-5.64h1.33v4.52l3.05.61h0l-.29-.5-.13-.26-.1-.26-.08-.27-.05-.28-.06-.57h0l.08-.7.07-.34.11-.32.15-.3.19-.29.44-.55h0l.59-.44.31-.19.32-.15.34-.1.35-.07.73-.07h0l.72.07.35.06.34.09.33.13.31.16.61.39h0l.3.31.29.32.25.33.2.36.14.39.09.41.06.43.04.43h0l-.06.69-.05.33-.09.32-.13.31-.16.3-.38.57h0l-.5.44-.26.19-.28.16-.3.12-.31.09-.65.13-.12-1.46Z"/>
    <path class="cls-2" d="M727.05,341.72h0l.47-.12.23-.07.22-.09.21-.11.2-.13.38-.3h0l.22-.32.1-.16.08-.17.05-.18.03-.19.04-.39h0l-.05-.46-.05-.22-.07-.21-.1-.2-.12-.19-.29-.37h0l-.37-.29-.19-.12-.2-.1-.22-.07-.23-.05-.47-.05h0l-.44.04-.21.04-.2.06-.19.09-.18.12-.35.27h0l-.27.35-.11.18-.09.19-.06.2-.04.21-.04.44h0l.05.5.11.49-1.22-.15h0l.02-.22h0l-.03-.42-.03-.21-.05-.2-.07-.2-.08-.19-.2-.38h0l-.29-.31-.16-.13-.17-.1-.19-.07-.2-.05-.42-.05h0l-.35.04-.17.03-.16.05-.15.08-.15.1-.28.22h0l-.22.3-.09.16-.07.16-.05.17-.03.18-.03.37h0l.04.37.03.18.05.17.07.16.09.16.22.3h0l.34.26.18.12.19.1.2.07.21.06.42.09-.25,1.39h0l-.61-.16-.29-.1-.28-.13-.26-.16-.25-.19-.47-.42h0l-.34-.51-.14-.27-.11-.28-.08-.29-.05-.3-.05-.61h0l.03-.44.07-.43.13-.42.17-.41h0l.21-.35.24-.32.3-.27.33-.24h0l.35-.17.36-.14.37-.07.39-.03h0l.35.03.34.07.33.13.31.17h0l.3.24.26.27.21.31.18.34h0l.15-.45.09-.22.11-.2.13-.19.15-.18.34-.33h0l.42-.25.22-.1.22-.08.23-.06.24-.03.49-.04h0l.71.09.34.07.32.11.3.16.29.2.55.46h0l.45.61.19.32.15.33.1.35.07.37.07.76h0l-.06.68-.06.33-.09.32-.13.3-.16.29-.39.56h0l-.5.44-.26.19-.28.16-.3.12-.31.09-.65.13-.19-1.39Z"/>
    <path class="cls-2" d="M712.67,246.09h0l.45-.1.22-.06.21-.08.2-.1.19-.13.35-.29h0l.23-.32.1-.17.08-.17.06-.18.04-.19.04-.39h0l-.06-.48-.05-.23-.08-.22-.11-.21-.14-.19-.32-.37h0l-.45-.31-.24-.13-.25-.1-.26-.07-.27-.04-.55-.04h0l-.52.04-.25.04-.24.07-.23.1-.22.13-.42.3h0l-.3.39-.13.2-.1.21-.07.23-.04.24-.05.49h0l.02.32.05.31.1.3.13.29h0l.16.25.18.23.21.2.23.18-.17,1.31-5.82-1.1v-5.64h1.33v4.52l3.05.61h0l-.29-.5-.13-.26-.1-.26-.08-.27-.05-.28-.06-.57h0l.08-.7.07-.34.11-.32.15-.3.19-.29.44-.55h0l.59-.44.31-.19.32-.15.34-.1.35-.07.73-.07h0l.72.07.35.06.34.09.33.13.31.16.61.39h0l.3.31.29.32.25.33.2.36.14.39.09.41.06.43.04.43h0l-.06.69-.05.33-.09.32-.13.31-.16.3-.38.57h0l-.5.44-.26.19-.28.16-.3.12-.31.09-.65.13-.12-1.46Z"/>
    <path class="cls-2" d="M773.61,386.7h-13.31l.4.47.38.48.34.51.32.52h0l.3.53.29.54.26.56.24.57h-2.02l-.42-.82-.22-.4-.24-.39-.26-.38-.27-.37-.58-.72h0l-.51-.54-.26-.26-.28-.24-.29-.22-.3-.21-.63-.39v-1.35h17.08v2.09Z"/>
    <path class="cls-2" d="M760.93,370.5h0l-.48.12-.46.16-.22.11-.21.12-.41.28h0l-.38.46-.16.24-.13.25-.09.27-.06.28-.07.59h0l.04.47.04.23.06.22.08.22.1.21.24.41h0l.45.49.24.23.25.21.27.18.29.16.6.29h0l.96.28.49.11.49.08.49.06.5.03,1,.03h0l-.51-.38-.24-.21-.22-.22-.2-.24-.19-.26-.34-.54h0l-.23-.55-.1-.28-.08-.28-.06-.29-.04-.29-.04-.59h0l.05-.5.07-.5.11-.48.07-.23.09-.23.23-.43.28-.41.31-.39.33-.38h0l.44-.33.45-.31.46-.27.24-.12.25-.1.51-.15.53-.09.54-.06.55-.04h0l.77.05.38.05.38.07.37.1.36.13.72.29h0l.62.37.29.2.28.22.25.25.23.27.43.58h0l.31.65.13.33.11.34.07.35.05.35.05.72h0l-.06.61-.08.6-.13.58-.09.28-.11.27-.13.26-.15.25-.35.48-.4.46-.42.45h0l-.73.42-.74.39-.38.17-.38.15-.39.13-.39.11-.4.08-.41.06-.83.08-.84.04-.85.02h0l-.95-.02-.95-.04-.93-.09-.46-.07-.45-.09-.45-.12-.44-.14-.43-.17-.43-.19-.84-.42-.83-.46h0l-.43-.45-.41-.46-.36-.48-.15-.25-.13-.26-.11-.27-.09-.28-.13-.59-.08-.61-.06-.62h0l.07-.9.07-.44.11-.42.16-.4.21-.39.5-.75h0l.68-.59.36-.26.38-.21.4-.17.42-.13.88-.19.16,2.08ZM770.16,376.49h0l.44-.25.21-.14.2-.15.18-.17.17-.19.31-.4h0l.21-.41.09-.21.08-.21.05-.22.04-.22.04-.46h0l-.09-.65-.08-.31-.11-.29-.16-.27-.19-.26-.44-.49h0l-.66-.43-.34-.18-.36-.14-.37-.09-.38-.06-.79-.05h0l-.76.05-.37.06-.36.09-.34.14-.33.18-.63.42h0l-.43.51-.19.27-.15.29-.1.31-.07.32-.08.67h0l.08.67.07.32.11.31.15.29.18.28.43.53h0l.59.43.31.18.32.14.34.1.36.06.73.06h0l.53-.04.52-.08.51-.15.5-.19Z"/>
    <path class="cls-2" d="M573.93,224.92v7.49h-.25s-.24-.03-.24-.03l-.24-.06-.24-.07h0l-.4-.18-.39-.21-.36-.25-.35-.27h0l-.46-.43-.44-.44-.42-.47-.4-.48h0l-.56-.67-.58-.65-.62-.61-.65-.58h0l-.39-.25-.2-.11-.2-.09-.21-.07-.22-.05-.45-.07h0l-.39.05-.19.04-.18.06-.17.09-.16.11-.31.25h0l-.25.35-.11.18-.08.19-.06.2-.04.21-.04.43h0l.04.45.04.22.06.21.09.2.11.19.27.36h0l.37.27.19.11.2.09.21.06.22.04.46.04-.15,1.43h0l-.69-.11-.33-.08-.32-.12-.3-.16-.28-.19-.53-.44h0l-.38-.59-.16-.3-.12-.32-.08-.33-.05-.34-.05-.7h0l.05-.71.06-.34.09-.33.13-.32.17-.3.4-.58h0l.49-.4.26-.17.27-.14.29-.1.3-.06.63-.07h0l.34.02.34.05.33.09.32.12h0l.37.19.36.21.33.25.32.27h0l.52.51.51.53.96,1.11h0l.7.82.73.79h0l.36.31.39.27v-5.56h1.34Z"/>
    <path class="cls-2" d="M608.39,279.55h0l.45-.1.22-.06.21-.08.2-.1.19-.13.35-.29h0l.23-.32.1-.17.08-.17.06-.18.04-.19.04-.39h0l-.06-.48-.05-.23-.08-.22-.11-.21-.14-.19-.32-.37h0l-.45-.31-.24-.13-.25-.1-.26-.07-.27-.04-.55-.04h0l-.52.04-.25.04-.24.07-.23.1-.22.13-.42.3h0l-.3.39-.13.2-.1.21-.07.23-.04.24-.05.49h0l.02.32.05.31.1.3.13.29h0l.16.25.18.23.21.2.23.18-.17,1.31-5.82-1.1v-5.64h1.33v4.52l3.05.61h0l-.29-.5-.13-.26-.1-.26-.08-.27-.05-.28-.06-.57h0l.08-.7.07-.34.11-.32.15-.3.19-.29.44-.55h0l.59-.44.31-.19.32-.15.34-.1.35-.07.73-.07h0l.72.07.35.06.34.09.33.13.31.16.61.39h0l.3.31.29.32.25.33.2.36.14.39.09.41.06.43.04.43h0l-.06.69-.05.33-.09.32-.13.31-.16.3-.38.57h0l-.5.44-.26.19-.28.16-.3.12-.31.09-.65.13-.12-1.46Z"/>
    <path class="cls-2" d="M496.24,347.75h0l.45-.1.22-.06.21-.08.2-.1.19-.13.35-.29h0l.23-.32.1-.17.08-.17.06-.18.04-.19.04-.39h0l-.06-.48-.05-.23-.08-.22-.11-.21-.14-.19-.32-.37h0l-.45-.31-.24-.13-.25-.1-.26-.07-.27-.04-.55-.04h0l-.52.04-.25.04-.24.07-.23.1-.22.13-.42.3h0l-.3.39-.13.2-.1.21-.07.23-.04.24-.05.49h0l.02.32.05.31.1.3.13.29h0l.16.25.18.23.21.2.23.18-.17,1.31-5.82-1.1v-5.64h1.33v4.52l3.05.61h0l-.29-.5-.13-.26-.1-.26-.08-.27-.05-.28-.06-.57h0l.08-.7.07-.34.11-.32.15-.3.19-.29.44-.55h0l.59-.44.31-.19.32-.15.34-.1.35-.07.73-.07h0l.72.07.35.06.34.09.33.13.31.16.61.39h0l.3.31.29.32.25.33.2.36.14.39.09.41.06.43.04.43h0l-.06.69-.05.33-.09.32-.13.31-.16.3-.38.57h0l-.5.44-.26.19-.28.16-.3.12-.31.09-.65.13-.12-1.46Z"/>
    <path class="cls-2" d="M506.5,245.65h0l.45-.1.22-.06.21-.08.2-.1.19-.13.35-.29h0l.23-.32.1-.17.08-.17.06-.18.04-.19.04-.39h0l-.06-.48-.05-.23-.08-.22-.11-.21-.14-.19-.32-.37h0l-.45-.31-.24-.13-.25-.1-.26-.07-.27-.04-.55-.04h0l-.52.04-.25.04-.24.07-.23.1-.22.13-.42.3h0l-.3.39-.13.2-.1.21-.07.23-.04.24-.05.49h0l.02.32.05.31.1.3.13.29h0l.16.25.18.23.21.2.23.18-.17,1.31-5.82-1.1v-5.64h1.33v4.52l3.05.61h0l-.29-.5-.13-.26-.1-.26-.08-.27-.05-.28-.06-.57h0l.08-.7.07-.34.11-.32.15-.3.19-.29.44-.55h0l.59-.44.31-.19.32-.15.34-.1.35-.07.73-.07h0l.72.07.35.06.34.09.33.13.31.16.61.39h0l.3.31.29.32.25.33.2.36.14.39.09.41.06.43.04.43h0l-.06.69-.05.33-.09.32-.13.31-.16.3-.38.57h0l-.5.44-.26.19-.28.16-.3.12-.31.09-.65.13-.12-1.46Z"/>
    <path class="cls-2" d="M545.54,297.79h0l.47-.12.23-.07.22-.09.21-.11.2-.13.38-.3h0l.22-.32.1-.16.08-.17.05-.18.03-.19.04-.39h0l-.05-.46-.05-.22-.07-.21-.1-.2-.12-.19-.29-.37h0l-.37-.29-.19-.12-.2-.1-.22-.07-.23-.05-.47-.05h0l-.44.04-.21.04-.2.06-.19.09-.18.12-.35.27h0l-.27.35-.11.18-.09.19-.06.2-.04.21-.04.44h0l.05.5.11.49-1.22-.15h0l.02-.22h0l-.03-.42-.03-.21-.05-.2-.07-.2-.08-.19-.2-.38h0l-.29-.31-.16-.13-.17-.1-.19-.07-.2-.05-.42-.05h0l-.35.04-.17.03-.16.05-.15.08-.15.1-.28.22h0l-.22.3-.09.16-.07.16-.05.17-.03.18-.03.37h0l.04.37.03.18.05.17.07.16.09.16.22.3h0l.34.26.18.12.19.1.2.07.21.06.42.09-.25,1.39h0l-.61-.16-.29-.1-.28-.13-.26-.16-.25-.19-.47-.42h0l-.34-.51-.14-.27-.11-.28-.08-.29-.05-.3-.05-.61h0l.03-.44.07-.43.13-.42.17-.41h0l.21-.35.24-.32.3-.27.33-.24h0l.35-.17.36-.14.37-.07.39-.03h0l.35.03.34.07.33.13.31.17h0l.3.24.26.27.21.31.18.34h0l.15-.45.09-.22.11-.2.13-.19.15-.18.34-.33h0l.42-.25.22-.1.22-.08.23-.06.24-.03.49-.04h0l.71.09.34.07.32.11.3.16.29.2.55.46h0l.45.61.19.32.15.33.1.35.07.37.07.76h0l-.06.68-.06.33-.09.32-.13.3-.16.29-.39.56h0l-.5.44-.26.19-.28.16-.3.12-.31.09-.65.13-.19-1.39Z"/>
    <path class="cls-2" d="M563.67,385.44h-13.31l.4.47.38.48.34.51.32.52h0l.3.53.29.54.26.56.24.57h-2.02l-.42-.82-.22-.4-.24-.39-.26-.38-.27-.37-.58-.72h0l-.51-.54-.26-.26-.28-.24-.29-.22-.3-.21-.63-.39v-1.35h17.08v2.09Z"/>
    <path class="cls-2" d="M559.03,375.81h0l.67-.14.32-.09.31-.12.29-.16.28-.19.53-.43h0l.34-.48.15-.25.12-.26.08-.27.05-.29.06-.59h0l-.09-.72-.08-.35-.12-.33-.17-.31-.21-.29-.48-.55h0l-.68-.46-.35-.2-.37-.15-.39-.1-.4-.06-.82-.06h0l-.78.06-.38.06-.36.1-.34.15-.33.19-.63.45h0l-.45.58-.19.3-.15.32-.1.34-.07.35-.07.73h0l.03.48.08.46.07.23.08.22.2.43h0l.24.37.27.34.32.3.35.27-.26,1.96-8.74-1.65v-8.46h2v6.79l4.57.92h0l-.44-.75-.19-.38-.16-.39-.11-.41-.08-.42-.09-.86h0l.05-.53.07-.52.1-.51.07-.25.09-.24.1-.23.12-.22.28-.43.32-.42.34-.41h0l.44-.34.44-.32.46-.28.24-.12.24-.1.25-.09.26-.07.53-.1.55-.06.55-.04h0l1.08.1.53.09.51.14.49.2.47.25.46.28.45.3h0l.46.47.43.48.2.25.18.25.16.26.14.27.12.29.09.3.08.3.06.31.09.64.06.65h0l-.08,1.03-.08.5-.13.49-.19.46-.24.45-.28.43-.29.43h0l-.37.33-.38.32-.39.29-.42.24-.45.18-.47.13-.48.1-.49.09-.19-2.19Z"/>
    <path class="cls-2" d="M285.19,241.85h0l.45-.1.22-.06.21-.08.2-.1.19-.13.35-.29h0l.23-.32.1-.17.08-.17.06-.18.04-.19.04-.39h0l-.06-.48-.05-.23-.08-.22-.11-.21-.14-.19-.32-.37h0l-.45-.31-.24-.13-.25-.1-.26-.07-.27-.04-.55-.04h0l-.52.04-.25.04-.24.07-.23.1-.22.13-.42.3h0l-.3.39-.13.2-.1.21-.07.23-.04.24-.05.49h0l.02.32.05.31.1.3.13.29h0l.16.25.18.23.21.2.23.18-.17,1.31-5.82-1.1v-5.64h1.33v4.52l3.05.61h0l-.29-.5-.13-.26-.1-.26-.08-.27-.05-.28-.06-.57h0l.08-.7.07-.34.11-.32.15-.3.19-.29.44-.55h0l.59-.44.31-.19.32-.15.34-.1.35-.07.73-.07h0l.72.07.35.06.34.09.33.13.31.16.61.39h0l.3.31.29.32.25.33.2.36.14.39.09.41.06.43.04.43h0l-.06.69-.05.33-.09.32-.13.31-.16.3-.38.57h0l-.5.44-.26.19-.28.16-.3.12-.31.09-.65.13-.12-1.46Z"/>
    <path class="cls-2" d="M395.28,306.65h0l.45-.1.22-.06.21-.08.2-.1.19-.13.35-.29h0l.23-.32.1-.17.08-.17.06-.18.04-.19.04-.39h0l-.06-.48-.05-.23-.08-.22-.11-.21-.14-.19-.32-.37h0l-.45-.31-.24-.13-.25-.1-.26-.07-.27-.04-.55-.04h0l-.52.04-.25.04-.24.07-.23.1-.22.13-.42.3h0l-.3.39-.13.2-.1.21-.07.23-.04.24-.05.49h0l.02.32.05.31.1.3.13.29h0l.16.25.18.23.21.2.23.18-.17,1.31-5.82-1.1v-5.64h1.33v4.52l3.05.61h0l-.29-.5-.13-.26-.1-.26-.08-.27-.05-.28-.06-.57h0l.08-.7.07-.34.11-.32.15-.3.19-.29.44-.55h0l.59-.44.31-.19.32-.15.34-.1.35-.07.73-.07h0l.72.07.35.06.34.09.33.13.31.16.61.39h0l.3.31.29.32.25.33.2.36.14.39.09.41.06.43.04.43h0l-.06.69-.05.33-.09.32-.13.31-.16.3-.38.57h0l-.5.44-.26.19-.28.16-.3.12-.31.09-.65.13-.12-1.46Z"/>
    <path class="cls-2" d="M351.28,237.13v7.49h-.25s-.24-.03-.24-.03l-.24-.06-.24-.07h0l-.4-.18-.39-.21-.36-.25-.35-.27h0l-.46-.43-.44-.44-.42-.47-.4-.48h0l-.56-.67-.58-.65-.62-.61-.65-.58h0l-.39-.25-.2-.11-.2-.09-.21-.07-.22-.05-.45-.07h0l-.39.05-.19.04-.18.06-.17.09-.16.11-.31.25h0l-.25.35-.11.18-.08.19-.06.2-.04.21-.04.43h0l.04.45.04.22.06.21.09.2.11.19.27.36h0l.37.27.19.11.2.09.21.06.22.04.46.04-.15,1.43h0l-.69-.11-.33-.08-.32-.12-.3-.16-.28-.19-.53-.44h0l-.38-.59-.16-.3-.12-.32-.08-.33-.05-.34-.05-.7h0l.05-.71.06-.34.09-.33.13-.32.17-.3.4-.58h0l.49-.4.26-.17.27-.14.29-.1.3-.06.63-.07h0l.34.02.34.05.33.09.32.12h0l.37.19.36.21.33.25.32.27h0l.52.51.51.53.96,1.11h0l.7.82.73.79h0l.36.31.39.27v-5.56h1.34Z"/>
    <path class="cls-2" d="M301.34,285.39h0l.45-.1.22-.06.21-.08.2-.1.19-.13.35-.29h0l.23-.32.1-.17.08-.17.06-.18.04-.19.04-.39h0l-.06-.48-.05-.23-.08-.22-.11-.21-.14-.19-.32-.37h0l-.45-.31-.24-.13-.25-.1-.26-.07-.27-.04-.55-.04h0l-.52.04-.25.04-.24.07-.23.1-.22.13-.42.3h0l-.3.39-.13.2-.1.21-.07.23-.04.24-.05.49h0l.02.32.05.31.1.3.13.29h0l.16.25.18.23.21.2.23.18-.17,1.31-5.82-1.1v-5.64h1.33v4.52l3.05.61h0l-.29-.5-.13-.26-.1-.26-.08-.27-.05-.28-.06-.57h0l.08-.7.07-.34.11-.32.15-.3.19-.29.44-.55h0l.59-.44.31-.19.32-.15.34-.1.35-.07.73-.07h0l.72.07.35.06.34.09.33.13.31.16.61.39h0l.3.31.29.32.25.33.2.36.14.39.09.41.06.43.04.43h0l-.06.69-.05.33-.09.32-.13.31-.16.3-.38.57h0l-.5.44-.26.19-.28.16-.3.12-.31.09-.65.13-.12-1.46Z"/>
    <path class="cls-2" d="M344.28,335.13h0l.47-.12.23-.07.22-.09.21-.11.2-.13.38-.3h0l.22-.32.1-.16.08-.17.05-.18.03-.19.04-.39h0l-.05-.46-.05-.22-.07-.21-.1-.2-.12-.19-.29-.37h0l-.37-.29-.19-.12-.2-.1-.22-.07-.23-.05-.47-.05h0l-.44.04-.21.04-.2.06-.19.09-.18.12-.35.27h0l-.27.35-.11.18-.09.19-.06.21-.04.21-.04.44h0l.05.5.11.49-1.22-.15h0l.02-.22h0l-.03-.42-.03-.21-.05-.2-.07-.2-.08-.19-.2-.38h0l-.29-.31-.16-.13-.17-.1-.19-.07-.2-.05-.42-.05h0l-.35.04-.17.03-.16.05-.15.08-.15.1-.28.22h0l-.22.3-.09.16-.07.16-.05.17-.03.18-.03.37h0l.04.37.03.18.05.17.07.17.09.16.22.3h0l.34.26.18.12.19.1.2.07.21.06.42.09-.25,1.39h0l-.61-.16-.29-.1-.28-.13-.26-.16-.25-.19-.47-.42h0l-.34-.51-.14-.27-.11-.28-.08-.29-.05-.3-.05-.61h0l.03-.44.07-.43.13-.42.17-.41h0l.21-.35.24-.32.3-.27.33-.24h0l.35-.17.36-.14.37-.07.39-.03h0l.35.03.34.07.33.13.31.17h0l.3.24.26.27.21.31.18.34h0l.15-.45.09-.22.11-.2.13-.19.15-.18.34-.33h0l.42-.25.22-.1.22-.08.23-.06.24-.03.49-.04h0l.71.09.34.07.32.11.3.16.29.2.55.46h0l.45.61.19.32.15.33.1.35.07.37.07.76h0l-.06.68-.06.33-.09.32-.13.3-.16.29-.39.56h0l-.5.44-.26.19-.28.16-.3.12-.31.09-.65.13-.19-1.39Z"/>
    <path class="cls-2" d="M349.09,385.09h-13.31l.4.47.38.48.34.51.32.52h0l.3.53.29.54.26.56.24.57h-2.02l-.42-.82-.22-.4-.24-.39-.26-.38-.27-.37-.58-.72h0l-.51-.54-.26-.26-.28-.24-.29-.22-.3-.21-.63-.39v-1.35h17.08v2.09Z"/>
    <path class="cls-2" d="M345.01,370.96v7.38h-1.91l-11.02-7.76v-1.71h11.02v-2.3h1.91v2.3h4.07v2.09h-4.07ZM335.43,370.96l7.67,5.33v-5.33h-7.67Z"/>
    <path class="cls-2" d="M165.13,359.7h0l.47-.12.23-.07.22-.09.21-.11.2-.13.38-.3h0l.22-.32.1-.16.08-.17.05-.18.03-.19.04-.39h0l-.05-.46-.05-.22-.07-.21-.1-.2-.12-.19-.29-.37h0l-.37-.29-.19-.12-.2-.1-.22-.07-.23-.05-.47-.05h0l-.44.04-.21.04-.2.06-.19.09-.18.12-.35.27h0l-.27.35-.11.18-.09.19-.06.21-.04.21-.04.44h0l.05.5.11.49-1.22-.15h0l.02-.22h0l-.03-.42-.03-.21-.05-.2-.07-.2-.08-.19-.2-.38h0l-.29-.31-.16-.13-.17-.1-.19-.07-.2-.05-.42-.05h0l-.35.04-.17.03-.16.05-.15.08-.15.1-.28.22h0l-.22.3-.09.16-.07.16-.05.17-.03.18-.03.37h0l.04.37.03.18.05.17.07.16.09.16.22.3h0l.34.26.18.12.19.1.2.07.21.06.42.09-.25,1.39h0l-.61-.16-.29-.1-.28-.13-.26-.16-.25-.19-.47-.42h0l-.34-.51-.14-.27-.11-.28-.08-.29-.05-.3-.05-.61h0l.03-.44.07-.43.13-.42.17-.41h0l.21-.35.24-.32.3-.27.33-.24h0l.35-.17.36-.14.37-.07.39-.03h0l.35.03.34.07.33.13.31.17h0l.3.24.26.27.21.31.18.34h0l.15-.45.09-.22.11-.2.13-.19.15-.18.34-.33h0l.42-.25.22-.1.22-.08.23-.06.24-.03.49-.04h0l.71.09.34.07.32.11.3.16.29.2.55.46h0l.45.61.19.32.15.33.1.35.07.37.07.76h0l-.06.68-.06.33-.09.32-.13.3-.16.29-.39.56h0l-.5.44-.26.19-.28.16-.3.12-.31.09-.65.13-.19-1.39Z"/>
    <path class="cls-2" d="M118.98,236.82v7.49h-.25s-.24-.03-.24-.03l-.24-.06-.24-.07h0l-.4-.18-.39-.21-.36-.25-.35-.27h0l-.46-.43-.44-.44-.42-.47-.4-.48h0l-.56-.67-.58-.65-.62-.61-.65-.58h0l-.39-.25-.2-.11-.2-.09-.21-.07-.22-.05-.45-.07h0l-.39.05-.19.04-.18.06-.17.09-.16.11-.31.25h0l-.25.35-.11.18-.08.19-.06.2-.04.21-.04.43h0l.04.45.04.22.06.21.09.2.11.19.27.36h0l.37.27.19.11.2.09.21.06.22.04.46.04-.15,1.43h0l-.69-.11-.33-.08-.32-.12-.3-.16-.28-.19-.53-.44h0l-.38-.59-.16-.3-.12-.32-.08-.33-.05-.34-.05-.7h0l.05-.71.06-.34.09-.33.13-.32.17-.3.4-.58h0l.49-.4.26-.17.27-.14.29-.1.3-.06.63-.07h0l.34.02.34.05.33.09.32.12h0l.37.19.36.21.33.25.32.27h0l.52.51.51.53.96,1.11h0l.7.82.73.79h0l.36.31.39.27v-5.56h1.34Z"/>
    <path class="cls-2" d="M91.34,340.51h0l.47-.12.23-.07.22-.09.21-.11.2-.13.38-.3h0l.22-.32.1-.16.08-.17.05-.18.03-.19.04-.39h0l-.05-.46-.05-.22-.07-.21-.1-.2-.12-.19-.29-.37h0l-.37-.29-.19-.12-.2-.1-.22-.07-.23-.05-.47-.05h0l-.44.04-.21.04-.2.06-.19.09-.18.12-.35.27h0l-.27.35-.11.18-.09.19-.06.21-.04.21-.04.44h0l.05.5.11.49-1.22-.15h0l.02-.22h0l-.03-.42-.03-.21-.05-.2-.07-.2-.08-.19-.2-.38h0l-.29-.31-.16-.13-.17-.1-.19-.07-.2-.05-.42-.05h0l-.35.04-.17.03-.16.05-.15.08-.15.1-.28.22h0l-.22.3-.09.16-.07.16-.05.17-.03.18-.03.37h0l.04.37.03.18.05.17.07.16.09.16.22.3h0l.34.26.18.12.19.1.2.07.21.06.42.09-.25,1.39h0l-.61-.16-.29-.1-.28-.13-.26-.16-.25-.19-.47-.42h0l-.34-.51-.14-.27-.11-.28-.08-.29-.05-.3-.05-.61h0l.03-.44.07-.43.13-.42.17-.41h0l.21-.35.24-.32.3-.27.33-.24h0l.35-.17.36-.14.37-.07.39-.03h0l.35.03.34.07.33.13.31.17h0l.3.24.26.27.21.31.18.34h0l.15-.45.09-.22.11-.2.13-.19.15-.18.34-.33h0l.42-.25.22-.1.22-.08.23-.06.24-.03.49-.04h0l.71.09.34.07.32.11.3.16.29.2.55.46h0l.45.61.19.32.15.33.1.35.07.37.07.76h0l-.06.68-.06.33-.09.32-.13.3-.16.29-.39.56h0l-.5.44-.26.19-.28.16-.3.12-.31.09-.65.13-.19-1.39Z"/>
    <path class="cls-2" d="M71.87,282.4h0l.45-.1.22-.06.21-.08.2-.1.19-.13.35-.29h0l.23-.32.1-.17.08-.17.06-.18.04-.19.04-.39h0l-.06-.48-.05-.23-.08-.22-.11-.21-.14-.19-.32-.37h0l-.45-.31-.24-.13-.25-.1-.26-.07-.27-.04-.55-.04h0l-.52.04-.25.04-.24.07-.23.1-.22.13-.42.3h0l-.3.39-.13.2-.1.21-.07.23-.04.24-.05.49h0l.02.32.05.31.1.3.13.29h0l.16.25.18.23.21.2.23.18-.17,1.31-5.82-1.1v-5.64h1.33v4.52l3.05.61h0l-.29-.5-.13-.26-.1-.26-.08-.27-.05-.28-.06-.57h0l.08-.7.07-.34.11-.32.15-.3.19-.29.44-.55h0l.59-.44.31-.19.32-.15.34-.1.35-.07.73-.07h0l.72.07.35.06.34.09.33.13.31.16.61.39h0l.3.31.29.32.25.33.2.36.14.39.09.41.06.43.04.43h0l-.06.69-.05.33-.09.32-.13.31-.16.3-.38.57h0l-.5.44-.26.19-.28.16-.3.12-.31.09-.65.13-.12-1.46Z"/>
    <path class="cls-2" d="M153.05,297.72h0l.45-.1.22-.06.21-.08.2-.1.19-.13.35-.29h0l.23-.32.1-.17.08-.17.06-.18.04-.19.04-.39h0l-.06-.48-.05-.23-.08-.22-.11-.21-.14-.19-.32-.37h0l-.45-.31-.24-.13-.25-.1-.26-.07-.27-.04-.55-.04h0l-.52.04-.25.04-.24.07-.23.1-.22.13-.42.3h0l-.3.39-.13.2-.1.21-.07.23-.04.24-.05.49h0l.02.32.05.31.1.3.13.29h0l.16.25.18.23.21.2.23.18-.17,1.31-5.82-1.1v-5.64h1.33v4.52l3.05.61h0l-.29-.5-.13-.26-.1-.26-.08-.27-.05-.28-.06-.57h0l.08-.7.07-.34.11-.32.15-.3.19-.29.44-.55h0l.59-.44.31-.19.32-.15.34-.1.35-.07.73-.07h0l.72.07.35.06.34.09.33.13.31.16.61.39h0l.3.31.29.32.25.33.2.36.14.39.09.41.06.43.04.43h0l-.06.69-.05.33-.09.32-.13.31-.16.3-.38.57h0l-.5.44-.26.19-.28.16-.3.12-.31.09-.65.13-.12-1.46Z"/>
    <path class="cls-2" d="M134.2,387.36h-13.31l.4.47.38.48.34.51.32.52h0l.3.53.29.54.26.56.24.57h-2.02l-.42-.82-.22-.4-.24-.39-.26-.38-.27-.37-.58-.72h0l-.51-.54-.26-.26-.28-.24-.29-.22-.3-.21-.63-.39v-1.35h17.08v2.09Z"/>
    <path class="cls-2" d="M129.43,377.82h0l.71-.17.34-.11.33-.13.31-.17.3-.2.57-.45h0l.34-.47.14-.25.11-.26.08-.27.05-.28.06-.58h0l-.08-.7-.07-.34-.11-.32-.15-.3-.19-.29-.43-.55h0l-.56-.43-.29-.19-.31-.15-.33-.1-.34-.07-.7-.08h0l-.66.07-.32.06-.31.1-.29.14-.27.17-.52.41h0l-.4.53-.17.28-.14.29-.09.31-.06.32-.07.66h0l.03.37.04.37.16.73-1.83-.23h0l.02-.34h0l-.05-.64-.05-.31-.07-.3-.1-.3-.13-.29-.3-.56h0l-.43-.47-.24-.2-.26-.16-.28-.11-.3-.07-.64-.07h0l-.53.06-.26.05-.25.08-.23.11-.22.14-.42.33h0l-.33.45-.14.23-.11.24-.08.26-.05.27-.05.55h0l.05.56.05.27.08.26.11.25.14.24.33.45h0l.51.4.27.17.28.14.3.11.31.09.64.13-.37,2.09h0l-.92-.24-.44-.15-.42-.19-.39-.24-.37-.28-.7-.64h0l-.5-.77-.21-.4-.17-.41-.12-.43-.07-.45-.08-.92h0l.04-.67.04-.33.06-.32.09-.32.11-.31.26-.62h0l.32-.53.17-.25.19-.23.21-.21.23-.2.5-.37h0l.52-.26.26-.11.27-.09.28-.06.28-.04.58-.05h0l.53.05.26.04.25.06.25.09.24.11.47.25h0l.45.37.21.2.19.21.17.23.15.24.27.51h0l.22-.68.13-.32.16-.3.2-.28.23-.26.51-.49h0l.64-.37.33-.16.34-.12.35-.08.36-.05.73-.05h0l.54.05.53.07.51.11.25.08.24.09.23.11.22.13.43.29.42.33.41.35h0l.35.46.33.46.29.48.12.25.1.25.09.26.07.27.1.55.06.56.04.57h0l-.04.51-.05.51-.09.49-.13.48-.2.45-.25.44-.28.42-.3.42h0l-.37.33-.38.32-.39.29-.42.24-.45.18-.47.14-.48.1-.49.09-.28-2.09Z"/>
  </g>
</svg>