<?xml version="1.0" encoding="UTF-8"?>
<svg id="Layer_1" data-name="Layer 1" xmlns="http://www.w3.org/2000/svg" version="1.1" viewBox="0 0 864 864">
  <defs>
    <style>
      .cls-1 {
        fill: #010101;
      }

      .cls-1, .cls-2 {
        stroke-width: 0px;
      }

      .cls-3 {
        fill: #fff;
        stroke: #010101;
        stroke-linecap: round;
        stroke-linejoin: round;
        stroke-width: .8px;
      }

      .cls-2 {
        fill: #757575;
      }
    </style>
  </defs>
  <g>
    <path class="cls-1" d="M645.46,798.83l47.4,44.34c1.58,1.47,3.65,2.29,5.81,2.29h138.37c4.7,0,8.5-3.81,8.5-8.5v-15.92h-8.5v-56.69h8.5v-117.31c0-4.7-3.81-8.5-8.5-8.5h-138.37c-2.16,0-4.23.82-5.81,2.29l-47.4,44.34v10.05h8.36v93.54h-8.36v10.05Z"/>
    <path class="cls-3" d="M810.57,709.44c0,2.35,1.9,4.25,4.25,4.25,2.35,0,4.25-1.9,4.25-4.25h0c0-2.35-1.9-4.26-4.25-4.26-2.35,0-4.25,1.9-4.25,4.25h0Z"/>
    <path class="cls-3" d="M735.07,753.73c0,2.35,1.9,4.25,4.25,4.25s4.25-1.9,4.25-4.25-1.9-4.25-4.25-4.25-4.25,1.9-4.25,4.25h0Z"/>
    <path class="cls-3" d="M694.53,818.87c0,2.35,1.9,4.25,4.25,4.25s4.25-1.9,4.25-4.25c0-2.35-1.9-4.25-4.25-4.25-2.35,0-4.25,1.9-4.25,4.25,0,0,0,0,0,0Z"/>
    <path class="cls-3" d="M750.84,694.26c0,2.35,1.9,4.25,4.25,4.25s4.25-1.9,4.25-4.25-1.9-4.25-4.25-4.25-4.25,1.9-4.25,4.25h0Z"/>
    <path class="cls-3" d="M807.41,791.29c0,2.35,1.9,4.25,4.25,4.25,2.35,0,4.25-1.9,4.25-4.25h0c0-2.35-1.9-4.26-4.25-4.26-2.35,0-4.25,1.9-4.25,4.25h0Z"/>
    <path class="cls-3" d="M673.66,706.57v70.87h8.5v-70.87h-8.5Z"/>
    <path class="cls-3" d="M829.95,834.13c0,2.35,1.9,4.25,4.25,4.25,2.35,0,4.25-1.9,4.25-4.25h0c0-2.35-1.9-4.26-4.25-4.26-2.35,0-4.25,1.9-4.25,4.25h0Z"/>
    <path class="cls-3" d="M702.39,649.87c0,2.35,1.9,4.25,4.25,4.25s4.25-1.9,4.25-4.25c0-2.35-1.9-4.25-4.25-4.25-2.35,0-4.25,1.9-4.25,4.25,0,0,0,0,0,0Z"/>
    <path class="cls-3" d="M829.95,649.87c0,2.35,1.9,4.25,4.25,4.25,2.35,0,4.25-1.9,4.25-4.25h0c0-2.35-1.9-4.26-4.25-4.26-2.35,0-4.25,1.9-4.25,4.25h0Z"/>
    <path class="cls-3" d="M702.39,834.13c0,2.35,1.9,4.25,4.25,4.25s4.25-1.9,4.25-4.25c0-2.35-1.9-4.25-4.25-4.25-2.35,0-4.25,1.9-4.25,4.25,0,0,0,0,0,0Z"/>
    <path class="cls-3" d="M683.97,685.31h36.85v-21.26h-36.85c-4.7,0-8.5,3.81-8.5,8.5h0v4.25c0,4.7,3.81,8.5,8.5,8.5Z"/>
    <path class="cls-1" d="M434.6,801.38l47.4,44.34c1.58,1.47,3.65,2.29,5.81,2.29h138.37c4.7,0,8.5-3.81,8.5-8.5h0v-15.92h-8.5v-56.69h8.5v-117.31c0-4.7-3.81-8.5-8.5-8.5h-138.37c-2.16,0-4.23.82-5.81,2.29l-47.4,44.34v10.05h8.36v93.54h-8.36v10.05Z"/>
    <path class="cls-3" d="M581.53,704.05c0,2.35,1.9,4.25,4.25,4.25s4.25-1.9,4.25-4.25c0-2.35-1.9-4.25-4.25-4.25-2.35,0-4.25,1.9-4.25,4.25,0,0,0,0,0,0Z"/>
    <path class="cls-3" d="M477.03,720.93c0,2.35,1.9,4.25,4.25,4.25,2.35,0,4.25-1.9,4.25-4.25h0c0-2.35-1.9-4.26-4.25-4.26-2.35,0-4.25,1.9-4.25,4.25h0Z"/>
    <path class="cls-3" d="M485.36,794.23c0,2.35,1.9,4.25,4.25,4.25,2.35,0,4.25-1.9,4.25-4.25h0c0-2.35-1.9-4.26-4.25-4.26-2.35,0-4.25,1.9-4.25,4.25h0Z"/>
    <path class="cls-3" d="M535.41,750.25c0,2.35,1.9,4.25,4.25,4.25s4.25-1.9,4.25-4.25-1.9-4.25-4.25-4.25-4.25,1.9-4.25,4.25Z"/>
    <path class="cls-3" d="M592.15,794.29c0,2.35,1.9,4.25,4.25,4.25,2.35,0,4.25-1.9,4.25-4.25h0c0-2.35-1.9-4.26-4.25-4.26-2.35,0-4.25,1.9-4.25,4.25h0Z"/>
    <path class="cls-3" d="M462.8,709.12v70.87h8.5v-70.87h-8.5Z"/>
    <path class="cls-3" d="M619.09,836.68c0,2.35,1.9,4.25,4.25,4.25,2.35,0,4.25-1.9,4.25-4.25h0c0-2.35-1.9-4.26-4.25-4.26-2.35,0-4.25,1.9-4.25,4.25h0Z"/>
    <path class="cls-3" d="M491.53,652.43c0,2.35,1.9,4.25,4.25,4.25s4.25-1.9,4.25-4.25h0c0-2.35-1.9-4.25-4.25-4.25-2.35,0-4.25,1.9-4.25,4.25,0,0,0,0,0,0Z"/>
    <path class="cls-3" d="M619.09,652.43c0,2.35,1.9,4.25,4.25,4.25,2.35,0,4.25-1.9,4.25-4.25h0c0-2.35-1.9-4.26-4.25-4.26-2.35,0-4.25,1.9-4.25,4.25h0Z"/>
    <path class="cls-3" d="M491.53,836.68c0,2.35,1.9,4.25,4.25,4.25s4.25-1.9,4.25-4.25c0-2.35-1.9-4.25-4.25-4.25-2.35,0-4.25,1.9-4.25,4.25,0,0,0,0,0,0Z"/>
    <path class="cls-3" d="M473.11,687.86h36.85v-21.26h-36.85c-4.7,0-8.5,3.81-8.5,8.5h0v4.25c0,4.7,3.81,8.5,8.5,8.5h0Z"/>
    <path class="cls-1" d="M221.64,800.96l47.4,44.34c1.58,1.47,3.65,2.29,5.81,2.29h138.37c4.7,0,8.5-3.81,8.5-8.5h0v-15.92h-8.5v-56.69h8.5v-117.31c0-4.7-3.81-8.5-8.5-8.5h-138.37c-2.16,0-4.23.82-5.81,2.29l-47.4,44.34v10.05h8.36v93.54h-8.36v10.05Z"/>
    <path class="cls-3" d="M275.36,769.87c0,2.35,1.9,4.25,4.25,4.25,2.35,0,4.25-1.9,4.25-4.25h0c0-2.35-1.9-4.26-4.25-4.26-2.35,0-4.25,1.9-4.25,4.25h0Z"/>
    <path class="cls-3" d="M318.11,729.53c0,2.35,1.9,4.25,4.25,4.25s4.25-1.9,4.25-4.25-1.9-4.25-4.25-4.25-4.25,1.9-4.25,4.25h0Z"/>
    <path class="cls-3" d="M266.72,698.3c0,2.35,1.9,4.25,4.25,4.25s4.25-1.9,4.25-4.25c0-2.35-1.9-4.25-4.25-4.25-2.35,0-4.25,1.9-4.25,4.25,0,0,0,0,0,0Z"/>
    <path class="cls-3" d="M362.41,765.9c0,2.35,1.9,4.25,4.25,4.25s4.25-1.9,4.25-4.25c0-2.35-1.9-4.25-4.25-4.25-2.35,0-4.25,1.9-4.25,4.25,0,0,0,0,0,0Z"/>
    <path class="cls-3" d="M321.07,815.07c0,2.35,1.9,4.25,4.25,4.25s4.25-1.9,4.25-4.25-1.9-4.25-4.25-4.25-4.25,1.9-4.25,4.25Z"/>
    <path class="cls-3" d="M249.84,708.7v70.87h8.5v-70.87h-8.5Z"/>
    <path class="cls-3" d="M406.13,836.26c0,2.35,1.9,4.25,4.25,4.25,2.35,0,4.25-1.9,4.25-4.25h0c0-2.35-1.9-4.26-4.25-4.26-2.35,0-4.25,1.9-4.25,4.25h0Z"/>
    <path class="cls-3" d="M278.57,652.01c0,2.35,1.9,4.25,4.25,4.25s4.25-1.9,4.25-4.25h0c0-2.35-1.9-4.25-4.25-4.25-2.35,0-4.25,1.9-4.25,4.25,0,0,0,0,0,0Z"/>
    <path class="cls-3" d="M406.13,652.01c0,2.35,1.9,4.25,4.25,4.25,2.35,0,4.25-1.9,4.25-4.25h0c0-2.35-1.9-4.26-4.25-4.26-2.35,0-4.25,1.9-4.25,4.25h0Z"/>
    <path class="cls-3" d="M278.57,836.26c0,2.35,1.9,4.25,4.25,4.25s4.25-1.9,4.25-4.25c0-2.35-1.9-4.25-4.25-4.25-2.35,0-4.25,1.9-4.25,4.25,0,0,0,0,0,0Z"/>
    <path class="cls-3" d="M260.15,687.44h36.85v-21.26h-36.85c-4.7,0-8.5,3.81-8.5,8.5h0v4.25c0,4.7,3.81,8.5,8.5,8.5h0Z"/>
    <path class="cls-1" d="M8.68,801.94l47.4,44.34c1.58,1.47,3.65,2.29,5.81,2.29h138.37c4.7,0,8.5-3.81,8.5-8.5h0v-15.92h-8.5v-56.69h8.5v-117.31c0-4.7-3.81-8.5-8.5-8.5H61.89c-2.16,0-4.23.82-5.81,2.29l-47.4,44.34v10.05h8.36v93.54h-8.36v10.05Z"/>
    <path class="cls-3" d="M93.07,807.71c0,2.35,1.9,4.25,4.25,4.25s4.25-1.9,4.25-4.25h0c0-2.35-1.9-4.25-4.25-4.25s-4.25,1.9-4.25,4.25Z"/>
    <path class="cls-3" d="M170.82,698.22c0,2.35,1.9,4.25,4.25,4.25,2.35,0,4.25-1.9,4.25-4.25h0c0-2.35-1.9-4.26-4.25-4.26-2.35,0-4.25,1.9-4.25,4.25h0Z"/>
    <path class="cls-3" d="M105.1,699.52c0,2.35,1.9,4.25,4.25,4.25s4.25-1.9,4.25-4.25-1.9-4.25-4.25-4.25-4.25,1.9-4.25,4.25h0Z"/>
    <path class="cls-3" d="M124.72,755.95c0,2.35,1.9,4.25,4.25,4.25s4.25-1.9,4.25-4.25-1.9-4.25-4.25-4.25-4.25,1.9-4.25,4.25Z"/>
    <path class="cls-3" d="M67.39,752.51c0,2.35,1.9,4.25,4.25,4.25,2.35,0,4.25-1.9,4.25-4.25h0c0-2.35-1.9-4.26-4.25-4.26-2.35,0-4.25,1.9-4.25,4.25h0Z"/>
    <path class="cls-3" d="M36.89,709.69v70.87h8.5v-70.87h-8.5Z"/>
    <path class="cls-3" d="M193.18,837.24c0,2.35,1.9,4.25,4.25,4.25,2.35,0,4.25-1.9,4.25-4.25h0c0-2.35-1.9-4.26-4.25-4.26-2.35,0-4.25,1.9-4.25,4.25h0Z"/>
    <path class="cls-3" d="M65.62,652.99c0,2.35,1.9,4.25,4.25,4.25s4.25-1.9,4.25-4.25h0c0-2.35-1.9-4.25-4.25-4.25-2.35,0-4.25,1.9-4.25,4.25,0,0,0,0,0,0Z"/>
    <path class="cls-3" d="M193.18,652.99c0,2.35,1.9,4.25,4.25,4.25,2.35,0,4.25-1.9,4.25-4.25h0c0-2.35-1.9-4.26-4.25-4.26-2.35,0-4.25,1.9-4.25,4.25h0Z"/>
    <path class="cls-3" d="M65.62,837.24c0,2.35,1.9,4.25,4.25,4.25s4.25-1.9,4.25-4.25c0-2.35-1.9-4.25-4.25-4.25-2.35,0-4.25,1.9-4.25,4.25,0,0,0,0,0,0Z"/>
    <path class="cls-3" d="M47.19,688.43h36.85v-21.26h-36.85c-4.7,0-8.5,3.81-8.5,8.5h0v4.25c0,4.7,3.81,8.5,8.5,8.5h0Z"/>
    <path class="cls-1" d="M646.37,572.41l47.4,44.34c1.58,1.47,3.65,2.29,5.81,2.29h138.37c4.7,0,8.5-3.81,8.5-8.5h0v-15.92h-8.5v-56.69h8.5v-117.31c0-4.7-3.81-8.5-8.5-8.5h-138.37c-2.16,0-4.23.82-5.81,2.29l-47.4,44.34v10.05h8.36v93.54h-8.36v10.05Z"/>
    <path class="cls-3" d="M742.32,573.59c0,2.35,1.9,4.25,4.25,4.25s4.25-1.9,4.25-4.25h0c0-2.35-1.9-4.25-4.25-4.25s-4.25,1.9-4.25,4.25Z"/>
    <path class="cls-3" d="M812.26,479.85c0,2.35,1.9,4.25,4.25,4.25,2.35,0,4.25-1.9,4.25-4.25h0c0-2.35-1.9-4.26-4.25-4.26-2.35,0-4.25,1.9-4.25,4.25h0Z"/>
    <path class="cls-3" d="M802.44,588.68c0,2.35,1.9,4.25,4.25,4.25s4.25-1.9,4.25-4.25c0-2.35-1.9-4.25-4.25-4.25-2.35,0-4.25,1.9-4.25,4.25,0,0,0,0,0,0Z"/>
    <path class="cls-3" d="M757.77,509.32c0,2.35,1.9,4.25,4.25,4.25,2.35,0,4.25-1.9,4.25-4.25h0c0-2.35-1.9-4.26-4.25-4.26s-4.25,1.9-4.25,4.25Z"/>
    <path class="cls-3" d="M691.1,541c0,2.35,1.9,4.25,4.25,4.25,2.35,0,4.25-1.9,4.25-4.25h0c0-2.35-1.9-4.26-4.25-4.26-2.35,0-4.25,1.9-4.25,4.25h0Z"/>
    <path class="cls-3" d="M674.57,480.15v70.87h8.5v-70.87h-8.5Z"/>
    <path class="cls-3" d="M830.86,607.71c0,2.35,1.9,4.25,4.25,4.25,2.35,0,4.25-1.9,4.25-4.25h0c0-2.35-1.9-4.26-4.25-4.26-2.35,0-4.25,1.9-4.25,4.25h0Z"/>
    <path class="cls-3" d="M703.3,423.46c0,2.35,1.9,4.25,4.25,4.25s4.25-1.9,4.25-4.25h0c0-2.35-1.9-4.25-4.25-4.25-2.35,0-4.25,1.9-4.25,4.25,0,0,0,0,0,0Z"/>
    <path class="cls-3" d="M830.86,423.46c0,2.35,1.9,4.25,4.25,4.25,2.35,0,4.25-1.9,4.25-4.25h0c0-2.35-1.9-4.26-4.25-4.26-2.35,0-4.25,1.9-4.25,4.25h0Z"/>
    <path class="cls-3" d="M703.3,607.71c0,2.35,1.9,4.25,4.25,4.25s4.25-1.9,4.25-4.25c0-2.35-1.9-4.25-4.25-4.25-2.35,0-4.25,1.9-4.25,4.25,0,0,0,0,0,0Z"/>
    <path class="cls-3" d="M684.88,458.89h36.85v-21.26h-36.85c-4.7,0-8.5,3.81-8.5,8.5h0v4.25c0,4.7,3.81,8.5,8.5,8.5h0Z"/>
    <path class="cls-1" d="M432.5,572.41l47.4,44.34c1.58,1.47,3.65,2.29,5.81,2.29h138.37c4.7,0,8.5-3.81,8.5-8.5h0v-15.92h-8.5v-56.69h8.5v-117.31c0-4.7-3.81-8.5-8.5-8.5h-138.37c-2.16,0-4.23.82-5.81,2.29l-47.4,44.34v10.05h8.36v93.54h-8.36v10.05Z"/>
    <path class="cls-3" d="M471.01,458.89h36.85v-21.26h-36.85c-4.7,0-8.5,3.81-8.5,8.5h0v4.25c0,4.7,3.81,8.5,8.5,8.5h0Z"/>
    <path class="cls-3" d="M489.43,607.71c0,2.35,1.9,4.25,4.25,4.25s4.25-1.9,4.25-4.25c0-2.35-1.9-4.25-4.25-4.25-2.35,0-4.25,1.9-4.25,4.25,0,0,0,0,0,0Z"/>
    <path class="cls-3" d="M616.99,423.46c0,2.35,1.9,4.25,4.25,4.25,2.35,0,4.25-1.9,4.25-4.25h0c0-2.35-1.9-4.26-4.25-4.26-2.35,0-4.25,1.9-4.25,4.25h0Z"/>
    <path class="cls-3" d="M489.43,423.46c0,2.35,1.9,4.25,4.25,4.25s4.25-1.9,4.25-4.25h0c0-2.35-1.9-4.25-4.25-4.25-2.35,0-4.25,1.9-4.25,4.25,0,0,0,0,0,0Z"/>
    <path class="cls-3" d="M616.99,607.71c0,2.35,1.9,4.25,4.25,4.25,2.35,0,4.25-1.9,4.25-4.25h0c0-2.35-1.9-4.26-4.25-4.26-2.35,0-4.25,1.9-4.25,4.25h0Z"/>
    <path class="cls-3" d="M460.7,480.15v70.87h8.5v-70.87h-8.5Z"/>
    <path class="cls-3" d="M570.32,589.56c0,2.35,1.9,4.25,4.25,4.25s4.25-1.9,4.25-4.25c0-2.35-1.9-4.25-4.25-4.25-2.35,0-4.25,1.9-4.25,4.25,0,0,0,0,0,0Z"/>
    <path class="cls-3" d="M485.53,523.58c0,2.35,1.9,4.25,4.25,4.25,2.35,0,4.25-1.9,4.25-4.25h0c0-2.35-1.9-4.26-4.25-4.26-2.35,0-4.25,1.9-4.25,4.25h0Z"/>
    <path class="cls-3" d="M596.46,479.39c0,2.35,1.9,4.25,4.25,4.25,2.35,0,4.25-1.9,4.25-4.25h0c0-2.35-1.9-4.26-4.25-4.26-2.35,0-4.25,1.9-4.25,4.25h0Z"/>
    <path class="cls-3" d="M523.17,477.84c0,2.35,1.9,4.25,4.25,4.25s4.25-1.9,4.25-4.25-1.9-4.25-4.25-4.25-4.25,1.9-4.25,4.25h0Z"/>
    <path class="cls-3" d="M555.69,532.99c0,2.35,1.9,4.25,4.25,4.25,2.35,0,4.25-1.9,4.25-4.25h0c0-2.35-1.9-4.26-4.25-4.26s-4.25,1.9-4.25,4.25Z"/>
    <path class="cls-1" d="M221.03,574.13l47.4,44.34c1.58,1.47,3.65,2.29,5.81,2.29h138.37c4.7,0,8.5-3.81,8.5-8.5h0v-15.92h-8.5v-56.69h8.5v-117.31c0-4.7-3.81-8.5-8.5-8.5h-138.37c-2.16,0-4.23.82-5.81,2.29l-47.4,44.34v10.05h8.36v93.54h-8.36v10.05Z"/>
    <path class="cls-3" d="M372.28,512.59c0,2.35,1.9,4.25,4.25,4.25s4.25-1.9,4.25-4.25c0-2.35-1.9-4.25-4.25-4.25-2.35,0-4.25,1.9-4.25,4.25,0,0,0,0,0,0Z"/>
    <path class="cls-3" d="M317.82,539.68c0,2.35,1.9,4.25,4.25,4.25,2.35,0,4.25-1.9,4.25-4.25h0c0-2.35-1.9-4.25-4.25-4.25s-4.25,1.9-4.25,4.25Z"/>
    <path class="cls-3" d="M261.15,568.55c0,2.35,1.9,4.25,4.25,4.25,2.35,0,4.25-1.9,4.25-4.25h0c0-2.35-1.9-4.26-4.25-4.26-2.35,0-4.25,1.9-4.25,4.25h0Z"/>
    <path class="cls-3" d="M307.85,478.24c0,2.35,1.9,4.25,4.25,4.25s4.25-1.9,4.25-4.25-1.9-4.25-4.25-4.25-4.25,1.9-4.25,4.25h0Z"/>
    <path class="cls-3" d="M357.36,592.81c0,2.35,1.9,4.25,4.25,4.25s4.25-1.9,4.25-4.25c0-2.35-1.9-4.25-4.25-4.25-2.35,0-4.25,1.9-4.25,4.25,0,0,0,0,0,0Z"/>
    <path class="cls-3" d="M249.24,481.88v70.87h8.5v-70.87h-8.5Z"/>
    <path class="cls-3" d="M277.97,425.18c0,2.35,1.9,4.25,4.25,4.25s4.25-1.9,4.25-4.25h0c0-2.35-1.9-4.25-4.25-4.25-2.35,0-4.25,1.9-4.25,4.25,0,0,0,0,0,0Z"/>
    <path class="cls-3" d="M405.52,425.18c0,2.35,1.9,4.25,4.25,4.25,2.35,0,4.25-1.9,4.25-4.25h0c0-2.35-1.9-4.26-4.25-4.26-2.35,0-4.25,1.9-4.25,4.25h0Z"/>
    <path class="cls-3" d="M259.54,460.62h36.85v-21.26h-36.85c-4.7,0-8.5,3.81-8.5,8.5h0v4.25c0,4.7,3.81,8.5,8.5,8.5h0Z"/>
    <path class="cls-1" d="M646.37,343.86l47.4,44.34c1.58,1.47,3.65,2.29,5.81,2.29h138.37c4.7,0,8.5-3.81,8.5-8.5h0v-15.92h-8.5v-56.69h8.5v-117.31c0-4.7-3.81-8.5-8.5-8.5h-138.37c-2.16,0-4.23.82-5.81,2.29l-47.4,44.34v10.05h8.36v93.54h-8.36v10.05Z"/>
    <path class="cls-3" d="M808.17,248.28c0,2.35,1.9,4.25,4.25,4.25,2.35,0,4.25-1.9,4.25-4.25h0c0-2.35-1.9-4.26-4.25-4.26-2.35,0-4.25,1.9-4.25,4.25h0Z"/>
    <path class="cls-3" d="M750.63,306.56c0,2.35,1.9,4.25,4.25,4.25s4.25-1.9,4.25-4.25-1.9-4.25-4.25-4.25-4.25,1.9-4.25,4.25Z"/>
    <path class="cls-3" d="M693.25,356.4c0,2.35,1.9,4.25,4.25,4.25,2.35,0,4.25-1.9,4.25-4.25h0c0-2.35-1.9-4.26-4.25-4.26-2.35,0-4.25,1.9-4.25,4.25h0Z"/>
    <path class="cls-3" d="M721.02,247.67c0,2.35,1.9,4.25,4.25,4.25s4.25-1.9,4.25-4.25-1.9-4.25-4.25-4.25-4.25,1.9-4.25,4.25Z"/>
    <path class="cls-3" d="M809.1,308c0,2.35,1.9,4.25,4.25,4.25,2.35,0,4.25-1.9,4.25-4.25h0c0-2.35-1.9-4.26-4.25-4.26-2.35,0-4.25,1.9-4.25,4.25h0Z"/>
    <path class="cls-3" d="M674.57,251.6v70.87h8.5v-70.87h-8.5Z"/>
    <path class="cls-3" d="M830.86,379.16c0,2.35,1.9,4.25,4.25,4.25,2.35,0,4.25-1.9,4.25-4.25h0c0-2.35-1.9-4.26-4.25-4.26-2.35,0-4.25,1.9-4.25,4.25h0Z"/>
    <path class="cls-3" d="M703.3,194.91c0,2.35,1.9,4.25,4.25,4.25s4.25-1.9,4.25-4.25h0c0-2.35-1.9-4.25-4.25-4.25-2.35,0-4.25,1.9-4.25,4.25,0,0,0,0,0,0Z"/>
    <path class="cls-3" d="M830.86,194.91c0,2.35,1.9,4.25,4.25,4.25,2.35,0,4.25-1.9,4.25-4.25h0c0-2.35-1.9-4.26-4.25-4.26-2.35,0-4.25,1.9-4.25,4.25h0Z"/>
    <path class="cls-3" d="M703.3,379.16c0,2.35,1.9,4.25,4.25,4.25s4.25-1.9,4.25-4.25c0-2.35-1.9-4.25-4.25-4.25-2.35,0-4.25,1.9-4.25,4.25,0,0,0,0,0,0Z"/>
    <path class="cls-3" d="M684.88,230.34h36.85v-21.26h-36.85c-4.7,0-8.5,3.81-8.5,8.5h0v4.25c0,4.7,3.81,8.5,8.5,8.5h0Z"/>
    <path class="cls-1" d="M431.04,343.86l47.4,44.34c1.58,1.47,3.65,2.29,5.81,2.29h138.37c4.7,0,8.5-3.81,8.5-8.5h0v-15.92h-8.5v-56.69h8.5v-117.31c0-4.7-3.81-8.5-8.5-8.5h-138.37c-2.16,0-4.23.82-5.81,2.29l-47.4,44.34v10.05h8.36v93.54h-8.36v10.05Z"/>
    <path class="cls-3" d="M584.29,252.41c0,2.35,1.9,4.25,4.25,4.25s4.25-1.9,4.25-4.25h0c0-2.35-1.9-4.25-4.25-4.25-2.35,0-4.25,1.9-4.25,4.25,0,0,0,0,0,0Z"/>
    <path class="cls-3" d="M478.66,296.64c0,2.35,1.9,4.25,4.25,4.25s4.25-1.9,4.25-4.25c0-2.35-1.9-4.25-4.25-4.25-2.35,0-4.25,1.9-4.25,4.25,0,0,0,0,0,0Z"/>
    <path class="cls-3" d="M486.92,355.38c0,2.35,1.9,4.25,4.25,4.25s4.25-1.9,4.25-4.25c0-2.35-1.9-4.25-4.25-4.25-2.35,0-4.25,1.9-4.25,4.25,0,0,0,0,0,0Z"/>
    <path class="cls-3" d="M540.68,289.21c0,2.35,1.9,4.25,4.25,4.25,2.35,0,4.25-1.9,4.25-4.25h0c0-2.35-1.9-4.26-4.25-4.26s-4.25,1.9-4.25,4.25Z"/>
    <path class="cls-3" d="M568.29,363.46c0,2.35,1.9,4.25,4.25,4.25,2.35,0,4.25-1.9,4.25-4.25h0c0-2.35-1.9-4.26-4.25-4.26-2.35,0-4.25,1.9-4.25,4.25h0Z"/>
    <path class="cls-3" d="M459.24,251.6v70.87h8.5v-70.87h-8.5Z"/>
    <path class="cls-3" d="M615.53,379.16c0,2.35,1.9,4.25,4.25,4.25,2.35,0,4.25-1.9,4.25-4.25h0c0-2.35-1.9-4.26-4.25-4.26-2.35,0-4.25,1.9-4.25,4.25h0Z"/>
    <path class="cls-3" d="M487.97,194.91c0,2.35,1.9,4.25,4.25,4.25s4.25-1.9,4.25-4.25h0c0-2.35-1.9-4.25-4.25-4.25-2.35,0-4.25,1.9-4.25,4.25,0,0,0,0,0,0Z"/>
    <path class="cls-3" d="M615.53,194.91c0,2.35,1.9,4.25,4.25,4.25,2.35,0,4.25-1.9,4.25-4.25h0c0-2.35-1.9-4.26-4.25-4.26-2.35,0-4.25,1.9-4.25,4.25h0Z"/>
    <path class="cls-3" d="M487.97,379.16c0,2.35,1.9,4.25,4.25,4.25s4.25-1.9,4.25-4.25c0-2.35-1.9-4.25-4.25-4.25-2.35,0-4.25,1.9-4.25,4.25,0,0,0,0,0,0Z"/>
    <path class="cls-3" d="M469.54,230.34h36.85v-21.26h-36.85c-4.7,0-8.5,3.81-8.5,8.5h0v4.25c0,4.7,3.81,8.5,8.5,8.5h0Z"/>
    <path class="cls-1" d="M219.22,346.04l47.4,44.34c1.58,1.47,3.65,2.29,5.81,2.29h138.37c4.7,0,8.5-3.81,8.5-8.5h0v-15.92h-8.5v-56.69h8.5v-117.31c0-4.7-3.81-8.5-8.5-8.5h-138.37c-2.16,0-4.23.82-5.81,2.29l-47.4,44.34v10.05h8.36v93.54h-8.36v10.05Z"/>
    <path class="cls-3" d="M331.85,354.99c0,2.35,1.9,4.25,4.25,4.25,2.35,0,4.25-1.9,4.25-4.25h0c0-2.35-1.9-4.26-4.25-4.26s-4.25,1.9-4.25,4.25Z"/>
    <path class="cls-3" d="M276.64,306.26c0,2.35,1.9,4.25,4.25,4.25,2.35,0,4.25-1.9,4.25-4.25h0c0-2.35-1.9-4.26-4.25-4.26-2.35,0-4.25,1.9-4.25,4.25h0Z"/>
    <path class="cls-3" d="M292,238.26c0,2.35,1.9,4.25,4.25,4.25s4.25-1.9,4.25-4.25-1.9-4.25-4.25-4.25-4.25,1.9-4.25,4.25Z"/>
    <path class="cls-3" d="M276.24,366.64c0,2.35,1.9,4.25,4.25,4.25,2.35,0,4.25-1.9,4.25-4.25h0c0-2.35-1.9-4.26-4.25-4.26-2.35,0-4.25,1.9-4.25,4.25h0Z"/>
    <path class="cls-3" d="M391.37,358.18c0,2.35,1.9,4.25,4.25,4.25,2.35,0,4.25-1.9,4.25-4.25h0c0-2.35-1.9-4.26-4.25-4.26-2.35,0-4.25,1.9-4.25,4.25h0Z"/>
    <path class="cls-3" d="M247.43,253.78v70.87h8.5v-70.87h-8.5Z"/>
    <path class="cls-3" d="M403.72,381.34c0,2.35,1.9,4.25,4.25,4.25,2.35,0,4.25-1.9,4.25-4.25h0c0-2.35-1.9-4.26-4.25-4.26-2.35,0-4.25,1.9-4.25,4.25h0Z"/>
    <path class="cls-3" d="M276.16,197.09c0,2.35,1.9,4.25,4.25,4.25s4.25-1.9,4.25-4.25h0c0-2.35-1.9-4.25-4.25-4.25-2.35,0-4.25,1.9-4.25,4.25,0,0,0,0,0,0Z"/>
    <path class="cls-3" d="M403.72,197.09c0,2.35,1.9,4.25,4.25,4.25,2.35,0,4.25-1.9,4.25-4.25h0c0-2.35-1.9-4.26-4.25-4.26-2.35,0-4.25,1.9-4.25,4.25h0Z"/>
    <path class="cls-3" d="M276.16,381.34c0,2.35,1.9,4.25,4.25,4.25s4.25-1.9,4.25-4.25c0-2.35-1.9-4.25-4.25-4.25-2.35,0-4.25,1.9-4.25,4.25,0,0,0,0,0,0Z"/>
    <path class="cls-3" d="M257.73,232.52h36.85v-21.26h-36.85c-4.7,0-8.5,3.81-8.5,8.5h0v4.25c0,4.7,3.81,8.5,8.5,8.5h0Z"/>
    <path class="cls-1" d="M9.56,576.5l47.4,44.34c1.58,1.47,3.65,2.29,5.81,2.29h138.37c4.7,0,8.5-3.81,8.5-8.5h0v-15.92h-8.5v-56.69h8.5v-117.31c0-4.7-3.81-8.5-8.5-8.5H62.77c-2.16,0-4.23.82-5.81,2.29l-47.4,44.34v10.05h8.36v93.54h-8.36v10.05Z"/>
    <path class="cls-3" d="M48.07,462.98h36.85v-21.26h-36.85c-4.7,0-8.5,3.81-8.5,8.5h0v4.25c0,4.7,3.81,8.5,8.5,8.5h0Z"/>
    <path class="cls-3" d="M66.5,611.8c0,2.35,1.9,4.25,4.25,4.25s4.25-1.9,4.25-4.25c0-2.35-1.9-4.25-4.25-4.25-2.35,0-4.25,1.9-4.25,4.25,0,0,0,0,0,0Z"/>
    <path class="cls-3" d="M194.06,427.55c0,2.35,1.9,4.25,4.25,4.25,2.35,0,4.25-1.9,4.25-4.25h0c0-2.35-1.9-4.26-4.25-4.26-2.35,0-4.25,1.9-4.25,4.25h0Z"/>
    <path class="cls-3" d="M66.5,427.55c0,2.35,1.9,4.25,4.25,4.25s4.25-1.9,4.25-4.25h0c0-2.35-1.9-4.25-4.25-4.25-2.35,0-4.25,1.9-4.25,4.25,0,0,0,0,0,0Z"/>
    <path class="cls-3" d="M194.06,611.8c0,2.35,1.9,4.25,4.25,4.25,2.35,0,4.25-1.9,4.25-4.25h0c0-2.35-1.9-4.26-4.25-4.26-2.35,0-4.25,1.9-4.25,4.25h0Z"/>
    <path class="cls-3" d="M37.77,484.24v70.87h8.5v-70.87h-8.5Z"/>
    <path class="cls-3" d="M152.83,582.84c0,2.35,1.9,4.25,4.25,4.25s4.25-1.9,4.25-4.25c0-2.35-1.9-4.25-4.25-4.25-2.35,0-4.25,1.9-4.25,4.25,0,0,0,0,0,0Z"/>
    <path class="cls-3" d="M78.25,486.43c0,2.35,1.9,4.25,4.25,4.25s4.25-1.9,4.25-4.25-1.9-4.25-4.25-4.25-4.25,1.9-4.25,4.25Z"/>
    <path class="cls-3" d="M174.16,528.55c0,2.35,1.9,4.25,4.25,4.25,2.35,0,4.25-1.9,4.25-4.25h0c0-2.35-1.9-4.26-4.25-4.26-2.35,0-4.25,1.9-4.25,4.25h0Z"/>
    <path class="cls-3" d="M115.29,539.31c0,2.35,1.9,4.25,4.25,4.25,2.35,0,4.25-1.9,4.25-4.25h0c0-2.35-1.9-4.25-4.25-4.25s-4.25,1.9-4.25,4.25Z"/>
    <path class="cls-3" d="M65.45,588.89c0,2.35,1.9,4.25,4.25,4.25s4.25-1.9,4.25-4.25c0-2.35-1.9-4.25-4.25-4.25-2.35,0-4.25,1.9-4.25,4.25,0,0,0,0,0,0Z"/>
    <path class="cls-1" d="M10.68,348.52l47.4,44.34c1.58,1.47,3.65,2.29,5.81,2.29h138.37c4.7,0,8.5-3.81,8.5-8.5h0v-15.92h-8.5v-56.69h8.5v-117.31c0-4.7-3.81-8.5-8.5-8.5H63.88c-2.16,0-4.23.82-5.81,2.29l-47.4,44.34v10.05h8.36v93.54h-8.36v10.05Z"/>
    <path class="cls-3" d="M177.16,241.21c0,2.35,1.9,4.25,4.25,4.25,2.35,0,4.25-1.9,4.25-4.25h0c0-2.35-1.9-4.26-4.25-4.26-2.35,0-4.25,1.9-4.25,4.25h0Z"/>
    <path class="cls-3" d="M105.65,300.86c0,2.35,1.9,4.25,4.25,4.25s4.25-1.9,4.25-4.25-1.9-4.25-4.25-4.25-4.25,1.9-4.25,4.25Z"/>
    <path class="cls-3" d="M51.29,246.45c0,2.35,1.9,4.25,4.25,4.25,2.35,0,4.25-1.9,4.25-4.25h0c0-2.35-1.9-4.26-4.25-4.26-2.35,0-4.25,1.9-4.25,4.25h0Z"/>
    <path class="cls-3" d="M163.17,296.78c0,2.35,1.9,4.25,4.25,4.25,2.35,0,4.25-1.9,4.25-4.25h0c0-2.35-1.9-4.26-4.25-4.26-2.35,0-4.25,1.9-4.25,4.25h0Z"/>
    <path class="cls-3" d="M176.71,363.73c0,2.35,1.9,4.25,4.25,4.25,2.35,0,4.25-1.9,4.25-4.25h0c0-2.35-1.9-4.26-4.25-4.26-2.35,0-4.25,1.9-4.25,4.25h0Z"/>
    <path class="cls-3" d="M38.88,256.26v70.87h8.5v-70.87h-8.5Z"/>
    <path class="cls-3" d="M195.17,383.82c0,2.35,1.9,4.25,4.25,4.25,2.35,0,4.25-1.9,4.25-4.25h0c0-2.35-1.9-4.26-4.25-4.26-2.35,0-4.25,1.9-4.25,4.25h0Z"/>
    <path class="cls-3" d="M67.61,199.57c0,2.35,1.9,4.25,4.25,4.25s4.25-1.9,4.25-4.25h0c0-2.35-1.9-4.25-4.25-4.25-2.35,0-4.25,1.9-4.25,4.25,0,0,0,0,0,0Z"/>
    <path class="cls-3" d="M195.17,199.57c0,2.35,1.9,4.25,4.25,4.25,2.35,0,4.25-1.9,4.25-4.25h0c0-2.35-1.9-4.26-4.25-4.26-2.35,0-4.25,1.9-4.25,4.25h0Z"/>
    <path class="cls-3" d="M67.61,383.82c0,2.35,1.9,4.25,4.25,4.25s4.25-1.9,4.25-4.25c0-2.35-1.9-4.25-4.25-4.25-2.35,0-4.25,1.9-4.25,4.25,0,0,0,0,0,0Z"/>
    <path class="cls-3" d="M49.19,235h36.85v-21.26h-36.85c-4.7,0-8.5,3.81-8.5,8.5h0v4.25c0,4.7,3.81,8.5,8.5,8.5h0Z"/>
  </g>
  <g>
    <path class="cls-2" d="M827.58,696.16v7.49h-.25s-.24-.03-.24-.03l-.24-.06-.24-.07h0l-.4-.18-.39-.21-.36-.25-.35-.27h0l-.46-.43-.44-.44-.42-.47-.4-.48h0l-.56-.67-.58-.65-.62-.61-.65-.58h0l-.39-.25-.2-.11-.2-.09-.21-.07-.22-.05-.45-.07h0l-.39.05-.19.04-.18.06-.17.09-.16.11-.31.25h0l-.25.35-.11.18-.08.19-.06.2-.04.21-.04.43h0l.04.45.04.22.06.21.09.2.11.19.27.36h0l.37.27.19.11.2.09.21.06.22.04.46.04-.15,1.43h0l-.69-.11-.33-.08-.32-.12-.3-.16-.28-.19-.53-.44h0l-.38-.59-.16-.3-.12-.32-.08-.33-.05-.34-.05-.7h0l.05-.71.06-.34.09-.33.13-.32.17-.3.4-.58h0l.49-.4.26-.17.27-.14.29-.1.3-.06.63-.07h0l.34.02.34.05.33.09.32.12h0l.37.19.36.21.33.25.32.27h0l.52.51.51.53.96,1.11h0l.7.82.73.79h0l.36.31.39.27v-5.56h1.34Z"/>
    <path class="cls-2" d="M821.7,780.91v4.92h-1.28l-7.35-5.17v-1.14h7.35v-1.53h1.28v1.53h2.71v1.39h-2.71ZM815.32,780.91l5.11,3.55v-3.55h-5.11Z"/>
    <path class="cls-2" d="M749.37,743.34v4.92h-1.28l-7.35-5.17v-1.14h7.35v-1.53h1.28v1.53h2.71v1.39h-2.71ZM742.98,743.34l5.11,3.55v-3.55h-5.11Z"/>
    <path class="cls-2" d="M711.54,805.59v7.49h-.25s-.24-.03-.24-.03l-.24-.06-.24-.07h0l-.4-.18-.39-.21-.36-.25-.35-.27h0l-.46-.43-.44-.44-.42-.47-.4-.48h0l-.56-.67-.58-.65-.62-.61-.65-.58h0l-.39-.25-.2-.11-.2-.09-.21-.07-.22-.05-.45-.07h0l-.39.05-.19.04-.18.06-.17.09-.16.11-.31.25h0l-.25.35-.11.18-.08.19-.06.2-.04.21-.04.43h0l.04.45.04.22.06.21.09.2.11.19.27.36h0l.37.27.19.11.2.09.21.06.22.04.46.04-.15,1.43h0l-.69-.11-.33-.08-.32-.12-.3-.16-.28-.19-.53-.44h0l-.38-.59-.16-.3-.12-.32-.08-.33-.05-.34-.05-.7h0l.05-.71.06-.34.09-.33.13-.32.17-.3.4-.58h0l.49-.4.26-.17.27-.14.29-.1.3-.06.63-.07h0l.34.02.34.05.33.09.32.12h0l.37.19.36.21.33.25.32.27h0l.52.51.51.53.96,1.11h0l.7.82.73.79h0l.36.31.39.27v-5.56h1.34Z"/>
    <path class="cls-2" d="M764.68,686.94h0l.45-.1.22-.06.21-.08.2-.1.19-.13.35-.29h0l.23-.32.1-.17.08-.17.06-.18.04-.19.04-.39h0l-.06-.48-.05-.23-.08-.22-.11-.21-.14-.19-.32-.37h0l-.45-.31-.24-.13-.25-.1-.26-.07-.27-.04-.55-.04h0l-.52.04-.25.04-.24.07-.23.1-.22.13-.42.3h0l-.3.39-.13.2-.1.21-.07.23-.04.24-.05.49h0l.02.32.05.31.1.3.13.29h0l.16.25.18.23.21.2.23.18-.17,1.31-5.82-1.1v-5.64h1.33v4.52l3.05.61h0l-.29-.5-.13-.26-.1-.26-.08-.27-.05-.28-.06-.57h0l.08-.7.07-.34.11-.32.15-.3.19-.29.44-.55h0l.59-.44.31-.19.32-.15.34-.1.35-.07.73-.07h0l.72.07.35.06.34.09.33.13.31.16.61.39h0l.3.31.29.32.25.33.2.36.14.39.09.41.06.43.04.43h0l-.06.69-.05.33-.09.32-.13.31-.16.3-.38.57h0l-.5.44-.26.19-.28.16-.3.12-.31.09-.65.13-.12-1.46Z"/>
    <path class="cls-2" d="M771.63,837.47h-13.31l.4.47.38.48.34.51.32.52h0l.3.53.29.54.26.56.24.57h-2.02l-.42-.82-.22-.4-.24-.39-.26-.38-.27-.37-.58-.72h0l-.51-.54-.26-.26-.28-.24-.29-.22-.3-.21-.63-.39v-1.35h17.08v2.09Z"/>
    <path class="cls-2" d="M771.63,819.06v11.24h-.37s-.37-.05-.37-.05l-.36-.08-.35-.11h0l-.61-.28-.58-.31-.55-.38-.53-.41h0l-.69-.64-.66-.67-.62-.7-.6-.72h0l-.83-1-.43-.49-.44-.48-.46-.46-.47-.45-.98-.86h0l-.58-.38-.3-.17-.31-.14-.32-.11-.33-.08-.68-.1h0l-.59.07-.28.06-.27.09-.25.13-.24.16-.46.38h0l-.37.52-.16.27-.12.28-.09.3-.05.31-.06.64h0l.06.67.06.32.09.31.13.29.17.28.4.54h0l.56.41.29.17.31.13.32.09.34.06.69.06-.22,2.15h0l-.52-.08-.51-.09-.5-.13-.47-.17-.23-.11-.22-.12-.42-.29-.4-.32-.39-.34h0l-.29-.44-.27-.44-.24-.46-.18-.47-.12-.49-.08-.51-.07-1.05h0l.03-.53.05-.53.08-.52.13-.5.09-.24.11-.23.26-.45.29-.44.31-.43h0l.36-.31.37-.29.39-.26.41-.21.43-.15.46-.1.47-.06.48-.05h0l.52.03.51.07.5.14.49.17h0l.56.29.54.32.5.37.48.4h0l.79.77.76.79.73.82.71.84h0l1.04,1.23.54.6.55.59h0l.54.47.59.41v-8.34h2.01Z"/>
    <path class="cls-2" d="M490.87,713.61h0l.45-.1.22-.06.21-.08.2-.1.19-.13.35-.29h0l.23-.32.1-.17.08-.17.06-.18.04-.19.04-.39h0l-.06-.48-.05-.23-.08-.22-.11-.21-.14-.19-.32-.37h0l-.45-.31-.24-.13-.25-.1-.26-.07-.27-.04-.55-.04h0l-.52.04-.25.04-.24.07-.23.1-.22.13-.42.3h0l-.3.39-.13.2-.1.21-.07.23-.04.24-.05.49h0l.02.32.05.31.1.3.13.29h0l.16.25.18.23.21.2.23.18-.17,1.31-5.82-1.1v-5.64h1.33v4.52l3.05.61h0l-.29-.5-.13-.26-.1-.26-.08-.27-.05-.28-.06-.57h0l.08-.7.07-.34.11-.32.15-.3.19-.29.44-.55h0l.59-.44.31-.19.32-.15.34-.1.35-.07.73-.07h0l.72.07.35.06.34.09.33.13.31.16.61.39h0l.3.31.29.32.25.33.2.36.14.39.09.41.06.43.04.43h0l-.06.69-.05.33-.09.32-.13.31-.16.3-.38.57h0l-.5.44-.26.19-.28.16-.3.12-.31.09-.65.13-.12-1.46Z"/>
    <path class="cls-2" d="M549.25,742.93h0l.45-.1.22-.06.21-.08.2-.1.19-.13.35-.29h0l.23-.32.1-.17.08-.17.06-.18.04-.19.04-.39h0l-.06-.48-.05-.23-.08-.22-.11-.21-.14-.19-.32-.37h0l-.45-.31-.24-.13-.25-.1-.26-.07-.27-.04-.55-.04h0l-.52.04-.25.04-.24.07-.23.1-.22.13-.42.3h0l-.3.39-.13.2-.1.21-.07.23-.04.24-.05.49h0l.02.32.05.31.1.3.13.29h0l.16.25.18.23.21.2.23.18-.17,1.31-5.82-1.1v-5.64h1.33v4.52l3.05.61h0l-.29-.5-.13-.26-.1-.26-.08-.27-.05-.28-.06-.57h0l.08-.7.07-.34.11-.32.15-.3.19-.29.44-.55h0l.59-.44.31-.19.32-.15.34-.1.35-.07.73-.07h0l.72.07.35.06.34.09.33.13.31.16.61.39h0l.3.31.29.32.25.33.2.36.14.39.09.41.06.43.04.43h0l-.06.69-.05.33-.09.32-.13.31-.16.3-.38.57h0l-.5.44-.26.19-.28.16-.3.12-.31.09-.65.13-.12-1.46Z"/>
    <path class="cls-2" d="M598.54,690.78v7.49h-.25s-.24-.03-.24-.03l-.24-.06-.24-.07h0l-.4-.18-.39-.21-.36-.25-.35-.27h0l-.46-.43-.44-.44-.42-.47-.4-.48h0l-.56-.67-.58-.65-.62-.61-.65-.58h0l-.39-.25-.2-.11-.2-.09-.21-.07-.22-.05-.45-.07h0l-.39.05-.19.04-.18.06-.17.09-.16.11-.31.25h0l-.25.35-.11.18-.08.19-.06.2-.04.21-.04.43h0l.04.45.04.22.06.21.09.2.11.19.27.36h0l.37.27.19.11.2.09.21.06.22.04.46.04-.15,1.43h0l-.69-.11-.33-.08-.32-.12-.3-.16-.28-.19-.53-.44h0l-.38-.59-.16-.3-.12-.32-.08-.33-.05-.34-.05-.7h0l.05-.71.06-.34.09-.33.13-.32.17-.3.4-.58h0l.49-.4.26-.17.27-.14.29-.1.3-.06.63-.07h0l.34.02.34.05.33.09.32.12h0l.37.19.36.21.33.25.32.27h0l.52.51.51.53.96,1.11h0l.7.82.73.79h0l.36.31.39.27v-5.56h1.34Z"/>
    <path class="cls-2" d="M605.99,786.97h0l.45-.1.22-.06.21-.08.2-.1.19-.13.35-.29h0l.23-.32.1-.17.08-.17.06-.18.04-.19.04-.39h0l-.06-.48-.05-.23-.08-.22-.11-.21-.14-.19-.32-.37h0l-.45-.31-.24-.13-.25-.1-.26-.07-.27-.04-.55-.04h0l-.52.04-.25.04-.24.07-.23.1-.22.13-.42.3h0l-.3.39-.13.2-.1.21-.07.23-.04.24-.05.49h0l.02.32.05.31.1.3.13.29h0l.16.25.18.23.21.2.23.18-.17,1.31-5.82-1.1v-5.64h1.33v4.52l3.05.61h0l-.29-.5-.13-.26-.1-.26-.08-.27-.05-.28-.06-.57h0l.08-.7.07-.34.11-.32.15-.3.19-.29.44-.55h0l.59-.44.31-.19.32-.15.34-.1.35-.07.73-.07h0l.72.07.35.06.34.09.33.13.31.16.61.39h0l.3.31.29.32.25.33.2.36.14.39.09.41.06.43.04.43h0l-.06.69-.05.33-.09.32-.13.31-.16.3-.38.57h0l-.5.44-.26.19-.28.16-.3.12-.31.09-.65.13-.12-1.46Z"/>
    <path class="cls-2" d="M502.37,780.95v7.49h-.25s-.24-.03-.24-.03l-.24-.06-.24-.07h0l-.4-.18-.39-.21-.36-.25-.35-.27h0l-.46-.43-.44-.44-.42-.47-.4-.48h0l-.56-.67-.58-.65-.62-.61-.65-.58h0l-.39-.25-.2-.11-.2-.09-.21-.07-.22-.05-.45-.07h0l-.39.05-.19.04-.18.06-.17.09-.16.11-.31.25h0l-.25.35-.11.18-.08.19-.06.2-.04.21-.04.43h0l.04.45.04.22.06.21.09.2.11.19.27.36h0l.37.27.19.11.2.09.21.06.22.04.46.04-.15,1.43h0l-.69-.11-.33-.08-.32-.12-.3-.16-.28-.19-.53-.44h0l-.38-.59-.16-.3-.12-.32-.08-.33-.05-.34-.05-.7h0l.05-.71.06-.34.09-.33.13-.32.17-.3.4-.58h0l.49-.4.26-.17.27-.14.29-.1.3-.06.63-.07h0l.34.02.34.05.33.09.32.12h0l.37.19.36.21.33.25.32.27h0l.52.51.51.53.96,1.11h0l.7.82.73.79h0l.36.31.39.27v-5.56h1.34Z"/>
    <path class="cls-2" d="M561.13,837.85h-13.31l.4.47.38.48.34.51.32.52h0l.3.53.29.54.26.56.24.57h-2.02l-.42-.82-.22-.4-.24-.39-.26-.38-.27-.37-.58-.72h0l-.51-.54-.26-.26-.28-.24-.29-.22-.3-.21-.63-.39v-1.35h17.08v2.09Z"/>
    <path class="cls-2" d="M561.13,826.39h-13.31l.4.47.38.48.34.51.32.52h0l.3.53.29.54.26.56.24.57h-2.02l-.42-.82-.22-.4-.24-.39-.26-.38-.27-.37-.58-.72h0l-.51-.54-.26-.26-.28-.24-.29-.22-.3-.21-.63-.39v-1.35h17.08v2.09Z"/>
    <path class="cls-2" d="M334.91,807.75h0l.45-.1.22-.06.21-.08.2-.1.19-.13.35-.29h0l.23-.32.1-.17.08-.17.06-.18.04-.19.04-.39h0l-.06-.48-.05-.23-.08-.22-.11-.21-.14-.19-.32-.37h0l-.45-.31-.24-.13-.25-.1-.26-.07-.27-.04-.55-.04h0l-.52.04-.25.04-.24.07-.23.1-.22.13-.42.3h0l-.3.39-.13.2-.1.21-.07.23-.04.24-.05.49h0l.02.32.05.31.1.3.13.29h0l.16.25.18.23.21.2.23.18-.17,1.31-5.82-1.1v-5.64h1.33v4.52l3.05.61h0l-.29-.5-.13-.26-.1-.26-.08-.27-.05-.28-.06-.57h0l.08-.7.07-.34.11-.32.15-.3.19-.29.44-.55h0l.59-.44.31-.19.32-.15.34-.1.35-.07.73-.07h0l.72.07.35.06.34.09.33.13.31.16.61.39h0l.3.31.29.32.25.33.2.36.14.39.09.41.06.43.04.43h0l-.06.69-.05.33-.09.32-.13.31-.16.3-.38.57h0l-.5.44-.26.19-.28.16-.3.12-.31.09-.65.13-.12-1.46Z"/>
    <path class="cls-2" d="M379.42,752.62v7.49h-.25s-.24-.03-.24-.03l-.24-.06-.24-.07h0l-.4-.18-.39-.21-.36-.25-.35-.27h0l-.46-.43-.44-.44-.42-.47-.4-.48h0l-.56-.67-.58-.65-.62-.61-.65-.58h0l-.39-.25-.2-.11-.2-.09-.21-.07-.22-.05-.45-.07h0l-.39.05-.19.04-.18.06-.17.09-.16.11-.31.25h0l-.25.35-.11.18-.08.19-.06.2-.04.21-.04.43h0l.04.45.04.22.06.21.09.2.11.19.27.36h0l.37.27.19.11.2.09.21.06.22.04.46.04-.15,1.43h0l-.69-.11-.33-.08-.32-.12-.3-.16-.28-.19-.53-.44h0l-.38-.59-.16-.3-.12-.32-.08-.33-.05-.34-.05-.7h0l.05-.71.06-.34.09-.33.13-.32.17-.3.4-.58h0l.49-.4.26-.17.27-.14.29-.1.3-.06.63-.07h0l.34.02.34.05.33.09.32.12h0l.37.19.36.21.33.25.32.27h0l.52.51.51.53.96,1.11h0l.7.82.73.79h0l.36.31.39.27v-5.56h1.34Z"/>
    <path class="cls-2" d="M288.16,699.96h0l.45-.1.22-.06.21-.08.2-.1.19-.13.35-.29h0l.23-.32.1-.17.08-.17.06-.18.04-.19.04-.39h0l-.06-.48-.05-.23-.08-.22-.11-.21-.14-.19-.32-.37h0l-.45-.31-.24-.13-.25-.1-.26-.07-.27-.04-.55-.04h0l-.52.04-.25.04-.24.07-.23.1-.22.13-.42.3h0l-.3.39-.13.2-.1.21-.07.23-.04.24-.05.49h0l.02.32.05.31.1.3.13.29h0l.16.25.18.23.21.2.23.18-.17,1.31-5.82-1.1v-5.64s1.33,0,1.33,0v4.52s3.05.61,3.05.61h0l-.29-.5-.13-.26-.1-.26-.08-.27-.05-.28-.06-.57h0l.08-.7.07-.34.11-.32.15-.3.19-.29.44-.55h0l.59-.44.31-.19.32-.15.34-.1.35-.07.73-.07h0l.72.07.35.06.34.09.33.13.31.16.61.39h0l.3.31.29.32.25.33.2.36.14.39.09.41.06.43.04.43h0l-.06.69-.05.33-.09.32-.13.31-.16.3-.38.57h0l-.5.43-.26.19-.28.16-.3.12-.31.09-.65.13-.12-1.46Z"/>
    <path class="cls-2" d="M292.37,756.59v7.49h-.25s-.24-.03-.24-.03l-.24-.06-.24-.07h0l-.4-.18-.39-.21-.36-.25-.35-.27h0l-.46-.43-.44-.44-.42-.47-.4-.48h0l-.56-.67-.58-.65-.62-.61-.65-.58h0l-.39-.25-.2-.11-.2-.09-.21-.07-.22-.05-.45-.07h0l-.39.05-.19.04-.18.06-.17.09-.16.11-.31.25h0l-.25.35-.11.18-.08.19-.06.2-.04.21-.04.43h0l.04.45.04.22.06.21.09.2.11.19.27.36h0l.37.27.19.11.2.09.21.06.22.04.46.04-.15,1.43h0l-.69-.11-.33-.08-.32-.12-.3-.16-.28-.19-.53-.44h0l-.38-.59-.16-.3-.12-.32-.08-.33-.05-.34-.05-.7h0l.05-.71.06-.34.09-.33.13-.32.17-.3.4-.58h0l.49-.4.26-.17.27-.14.29-.1.3-.06.63-.07h0l.34.02.34.05.33.09.32.12h0l.37.19.36.21.33.25.32.27h0l.52.51.51.53.96,1.11h0l.7.82.73.79h0l.36.31.39.27v-5.56h1.34Z"/>
    <path class="cls-2" d="M331.95,722.23h0l.47-.12.23-.07.22-.09.21-.11.2-.13.38-.3h0l.22-.32.1-.16.08-.17.05-.18.03-.19.04-.39h0l-.05-.46-.05-.22-.07-.21-.1-.2-.12-.19-.29-.37h0l-.37-.29-.19-.12-.2-.1-.22-.07-.23-.05-.47-.05h0l-.44.04-.21.04-.2.06-.19.09-.18.12-.35.27h0l-.27.35-.11.18-.09.19-.06.2-.04.21-.04.44h0l.05.5.11.49-1.22-.15h0l.02-.22h0l-.03-.42-.03-.21-.05-.2-.07-.2-.08-.19-.2-.38h0l-.29-.31-.16-.13-.17-.1-.19-.07-.2-.05-.42-.05h0l-.35.04-.17.03-.16.05-.15.08-.15.1-.28.22h0l-.22.3-.09.16-.07.16-.05.17-.03.18-.03.37h0l.04.37.03.18.05.17.07.16.09.16.22.3h0l.34.26.18.12.19.1.2.07.21.06.42.09-.25,1.39h0l-.61-.16-.29-.1-.28-.13-.26-.16-.25-.19-.47-.42h0l-.34-.51-.14-.27-.11-.28-.08-.29-.05-.3-.05-.61h0l.03-.44.07-.43.13-.42.17-.41h0l.21-.35.24-.32.3-.27.33-.24h0l.35-.17.36-.14.37-.07.39-.03h0l.35.03.34.07.33.13.31.17h0l.3.24.26.27.21.31.18.34h0l.15-.45.09-.22.11-.2.13-.19.15-.18.34-.33h0l.42-.25.22-.1.22-.08.23-.06.24-.03.49-.04h0l.71.09.34.07.32.11.3.16.29.2.55.46h0l.45.61.19.32.15.33.1.35.07.37.07.76h0l-.06.68-.06.33-.09.32-.13.3-.16.29-.39.56h0l-.5.44-.26.19-.28.16-.3.12-.31.09-.65.13-.19-1.39Z"/>
    <path class="cls-2" d="M347.78,839.64h-13.31l.4.47.38.48.34.51.32.52h0l.3.53.29.54.26.56.24.57h-2.02l-.42-.82-.22-.4-.24-.39-.26-.38-.27-.37-.58-.72h0l-.51-.54-.26-.26-.28-.24-.29-.22-.3-.21-.63-.39v-1.35h17.08v2.09Z"/>
    <path class="cls-2" d="M334.54,831.58h0l-.8-.32-.38-.18-.37-.21-.34-.25-.32-.28-.62-.6h0l-.44-.71-.19-.36-.15-.38-.1-.39-.06-.41-.06-.83h0l.04-.62.03-.31.06-.3.08-.3.1-.29.24-.58h0l.32-.5.17-.24.19-.22.21-.2.22-.19.47-.36h0l.6-.34.62-.29.65-.23.66-.19h0l1-.18.5-.07.5-.06,1.01-.06,1.01-.02h0l1.23.03.61.03.61.06.6.09.6.12,1.19.29h0l.8.32.39.18.37.21.35.25.33.28.62.6h0l.44.71.19.37.15.38.1.39.06.41.06.84h0l-.05.56-.07.55-.12.53-.08.26-.1.25-.12.24-.14.23-.33.43-.37.41-.39.4h0l-.81.43-.81.39-.41.18-.42.16-.42.13-.43.11-.44.09-.44.07-.9.08-.91.04h-.92s-1.23-.01-1.23-.01l-.61-.03-.61-.06-.61-.09-.6-.12-1.2-.29ZM344.97,829.07h0l.56-.49.24-.26.2-.29.15-.32.1-.34.07-.36.06-.37h0l-.06-.37-.07-.36-.1-.34-.15-.32-.2-.29-.25-.26-.56-.49h0l-.67-.27-.67-.25-.68-.2-.69-.14-.7-.08-.71-.04h-1.44s-1.45,0-1.45,0l-.72.04-.71.08-.69.14-.68.2-.67.25-.67.27h0l-.56.49-.24.27-.2.29-.15.32-.1.34-.07.36-.06.37h0l.1.68.08.32.13.3.18.27.22.25.51.47h0l.68.29.69.27.7.22.36.09.36.07.73.09.74.05h1.49s1.44.01,1.44.01l.71-.04.71-.08.69-.14.68-.2.67-.25.67-.27Z"/>
    <path class="cls-2" d="M187.83,684.94v7.49h-.25s-.24-.03-.24-.03l-.24-.06-.24-.07h0l-.4-.18-.39-.21-.36-.25-.35-.27h0l-.46-.43-.44-.44-.42-.47-.4-.48h0l-.56-.67-.58-.65-.62-.61-.65-.58h0l-.39-.25-.2-.11-.2-.09-.21-.07-.22-.05-.45-.07h0l-.39.05-.19.04-.18.06-.17.09-.16.11-.31.25h0l-.25.35-.11.18-.08.19-.06.2-.04.21-.04.43h0l.04.45.04.22.06.21.09.2.11.19.27.36h0l.37.27.19.11.2.09.21.06.22.04.46.04-.15,1.43h0l-.69-.11-.33-.08-.32-.12-.3-.16-.28-.19-.53-.44h0l-.38-.59-.16-.3-.12-.32-.08-.33-.05-.34-.05-.7h0l.05-.71.06-.34.09-.33.13-.32.17-.3.4-.58h0l.49-.4.26-.17.27-.14.29-.1.3-.06.63-.07h0l.34.02.34.05.33.09.32.12h0l.37.19.36.21.33.25.32.27h0l.52.51.51.53.96,1.11h0l.7.82.73.79h0l.36.31.39.27v-5.56h1.34Z"/>
    <path class="cls-2" d="M122.11,686.24v7.49h-.25s-.24-.03-.24-.03l-.24-.06-.24-.07h0l-.4-.18-.39-.21-.36-.25-.35-.27h0l-.46-.43-.44-.44-.42-.47-.4-.48h0l-.56-.67-.58-.65-.62-.61-.65-.58h0l-.39-.25-.2-.11-.2-.09-.21-.07-.22-.05-.45-.07h0l-.39.05-.19.04-.18.06-.17.09-.16.11-.31.25h0l-.25.35-.11.18-.08.19-.06.2-.04.21-.04.43h0l.04.45.04.22.06.21.09.2.11.19.27.36h0l.37.27.19.11.2.09.21.06.22.04.46.04-.15,1.43h0l-.69-.11-.33-.08-.32-.12-.3-.16-.28-.19-.53-.44h0l-.38-.59-.16-.3-.12-.32-.08-.33-.05-.34-.05-.7h0l.05-.71.06-.34.09-.33.13-.32.17-.3.4-.58h0l.49-.4.26-.17.27-.14.29-.1.3-.06.63-.07h0l.34.02.34.05.33.09.32.12h0l.37.19.36.21.33.25.32.27h0l.52.51.51.53.96,1.11h0l.7.82.73.79h0l.36.31.39.27v-5.56h1.34Z"/>
    <path class="cls-2" d="M138.56,748.63h0l.45-.1.22-.06.21-.08.2-.1.19-.13.35-.29h0l.23-.32.1-.17.08-.17.06-.18.04-.19.04-.39h0l-.06-.48-.05-.23-.08-.22-.11-.21-.14-.19-.32-.37h0l-.45-.31-.24-.13-.25-.1-.26-.07-.27-.04-.55-.04h0l-.52.04-.25.04-.24.07-.23.1-.22.13-.42.3h0l-.3.39-.13.2-.1.21-.07.23-.04.24-.05.49h0l.02.32.05.31.1.3.13.29h0l.16.25.18.23.21.2.23.18-.17,1.31-5.82-1.1v-5.64h1.33v4.52l3.05.61h0l-.29-.5-.13-.26-.1-.26-.08-.27-.05-.28-.06-.57h0l.08-.7.07-.34.11-.32.15-.3.19-.29.44-.55h0l.59-.44.31-.19.32-.15.34-.1.35-.07.73-.07h0l.72.07.35.06.34.09.33.13.31.16.61.39h0l.3.31.29.32.25.33.2.36.14.39.09.41.06.43.04.43h0l-.06.69-.05.33-.09.32-.13.31-.16.3-.38.57h0l-.5.44-.26.19-.28.16-.3.12-.31.09-.65.13-.12-1.46Z"/>
    <path class="cls-2" d="M110.08,794.44v7.49h-.25s-.24-.03-.24-.03l-.24-.06-.24-.07h0l-.4-.18-.39-.21-.36-.25-.35-.27h0l-.46-.43-.44-.44-.42-.47-.4-.48h0l-.56-.67-.58-.65-.62-.61-.65-.58h0l-.39-.25-.2-.11-.2-.09-.21-.07-.22-.05-.45-.07h0l-.39.05-.19.04-.18.06-.17.09-.16.11-.31.25h0l-.25.35-.11.18-.08.19-.06.2-.04.21-.04.43h0l.04.45.04.22.06.21.09.2.11.19.27.36h0l.37.27.19.11.2.09.21.06.22.04.46.04-.15,1.43h0l-.69-.11-.33-.08-.32-.12-.3-.16-.28-.19-.53-.44h0l-.38-.59-.16-.3-.12-.32-.08-.33-.05-.34-.05-.7h0l.05-.71.06-.34.09-.33.13-.32.17-.3.4-.58h0l.49-.4.26-.17.27-.14.29-.1.3-.06.63-.07h0l.34.02.34.05.33.09.32.12h0l.37.19.36.21.33.25.32.27h0l.52.51.51.53.96,1.11h0l.7.82.73.79h0l.36.31.39.27v-5.56h1.34Z"/>
    <path class="cls-2" d="M84.4,739.23v7.49h-.25s-.24-.03-.24-.03l-.24-.06-.24-.07h0l-.4-.18-.39-.21-.36-.25-.35-.27h0l-.46-.43-.44-.44-.42-.47-.4-.48h0l-.56-.67-.58-.65-.62-.61-.65-.58h0l-.39-.25-.2-.11-.2-.09-.21-.07-.22-.05-.45-.07h0l-.39.05-.19.04-.18.06-.17.09-.16.11-.31.25h0l-.25.35-.11.18-.08.19-.06.2-.04.21-.04.43h0l.04.45.04.22.06.21.09.2.11.19.27.36h0l.37.27.19.11.2.09.21.06.22.04.46.04-.15,1.43h0l-.69-.11-.33-.08-.32-.12-.3-.16-.28-.19-.53-.44h0l-.38-.59-.16-.3-.12-.32-.08-.33-.05-.34-.05-.7h0l.05-.71.06-.34.09-.33.13-.32.17-.3.4-.58h0l.49-.4.26-.17.27-.14.29-.1.3-.06.63-.07h0l.34.02.34.05.33.09.32.12h0l.37.19.36.21.33.25.32.27h0l.52.51.51.53.96,1.11h0l.7.82.73.79h0l.36.31.39.27v-5.56h1.34Z"/>
    <path class="cls-2" d="M130.51,840.75h0l.57-.13.28-.08.27-.1.25-.13.24-.16.45-.36h0l.28-.42.12-.22.09-.23.06-.24.04-.24.04-.5h0l-.03-.44-.07-.43-.06-.21-.08-.2-.19-.4h0l-.25-.34-.27-.32-.32-.28-.34-.25h0l-.48-.25-.49-.22-.51-.17-.52-.14h0l-.63-.13-.64-.1-.64-.05-.64-.02h-.42s.48.37.48.37l.23.19.21.21.19.22.18.24.33.5h0l.26.56.11.28.09.29.06.3.04.3.05.62h0l-.05.51-.07.5-.1.48-.07.23-.09.23-.1.22-.12.21-.28.41-.31.39-.33.39h0l-.45.33-.46.31-.47.27-.24.12-.25.1-.52.15-.54.09-.55.06-.56.04h0l-.58-.04-.57-.06-.56-.1-.27-.07-.26-.08-.26-.1-.25-.12-.49-.28-.47-.33-.46-.35h0l-.35-.42-.33-.42-.29-.44-.12-.23-.11-.24-.09-.24-.07-.25-.11-.52-.07-.53-.05-.54h0l.07-.8.06-.39.09-.38.13-.37.16-.36.38-.71h0l.53-.65.28-.3.31-.28.33-.24.35-.22.74-.39h0l1.17-.34.59-.14.6-.1.6-.07.61-.04,1.22-.02h0l1.32.03.66.04.65.07.65.1.64.14,1.28.33h0l.85.38.4.21.38.24.36.28.33.31.62.68h0l.44.76.19.39.15.4.1.42.07.43.07.88h0l-.07.89-.07.43-.11.42-.16.4-.21.38-.49.74h0l-.68.58-.36.26-.38.21-.4.16-.42.12-.88.18-.19-2.01ZM120.34,835.17h0l-.44.5-.19.26-.15.28-.11.3-.07.31-.09.66h0l.1.69.08.33.12.31.17.29.2.27.47.52h0l.67.45.35.19.36.15.38.1.39.06.81.07h0l.73-.07.35-.06.34-.1.32-.14.31-.18.59-.43h0l.43-.53.18-.28.15-.29.1-.31.07-.33.08-.68h0l-.08-.67-.07-.32-.1-.31-.15-.29-.19-.27-.43-.52h0l-.64-.42-.33-.18-.34-.14-.36-.09-.37-.06-.77-.05h0l-.78.06-.38.06-.37.09-.35.14-.34.18-.65.43Z"/>
    <path class="cls-2" d="M759.33,560.31v7.49h-.25s-.24-.03-.24-.03l-.24-.06-.24-.07h0l-.4-.18-.39-.21-.36-.25-.35-.27h0l-.46-.43-.44-.44-.42-.47-.4-.48h0l-.56-.67-.58-.65-.62-.61-.65-.58h0l-.39-.25-.2-.11-.2-.09-.21-.07-.22-.05-.45-.07h0l-.39.05-.19.04-.18.06-.17.09-.16.11-.31.25h0l-.25.35-.11.18-.08.19-.06.2-.04.21-.04.43h0l.04.45.04.22.06.21.09.2.11.19.27.36h0l.37.27.19.11.2.09.21.06.22.04.46.04-.15,1.43h0l-.69-.11-.33-.08-.32-.12-.3-.16-.28-.19-.53-.44h0l-.38-.59-.16-.3-.12-.32-.08-.33-.05-.34-.05-.7h0l.05-.71.06-.34.09-.33.13-.32.17-.3.4-.58h0l.49-.4.26-.17.27-.14.29-.1.3-.06.63-.07h0l.34.02.34.05.33.09.32.12h0l.37.19.36.21.33.25.32.27h0l.52.51.51.53.96,1.11h0l.7.82.73.79h0l.36.31.39.27v-5.56h1.34Z"/>
    <path class="cls-2" d="M704.93,533.68h0l.45-.1.22-.06.21-.08.2-.1.19-.13.35-.29h0l.23-.32.1-.17.08-.17.06-.18.04-.19.04-.39h0l-.06-.48-.05-.23-.08-.22-.11-.21-.14-.19-.32-.37h0l-.45-.31-.24-.13-.25-.1-.26-.07-.27-.04-.55-.04h0l-.52.04-.25.04-.24.07-.23.1-.22.13-.42.3h0l-.3.39-.13.2-.1.21-.07.23-.04.24-.05.49h0l.02.32.05.31.1.3.13.29h0l.16.25.18.23.21.2.23.18-.17,1.31-5.82-1.1v-5.64h1.33v4.52l3.05.61h0l-.29-.5-.13-.26-.1-.26-.08-.27-.05-.28-.06-.57h0l.08-.7.07-.34.11-.32.15-.3.19-.29.44-.55h0l.59-.44.31-.19.32-.15.34-.1.35-.07.73-.07h0l.72.07.35.06.34.09.33.13.31.16.61.39h0l.3.31.29.32.25.33.2.36.14.39.09.41.06.43.04.43h0l-.06.69-.05.33-.09.32-.13.31-.16.3-.38.57h0l-.5.44-.26.19-.28.16-.3.12-.31.09-.65.13-.12-1.46Z"/>
    <path class="cls-2" d="M772.06,498.93v4.92h-1.28l-7.35-5.17v-1.14h7.35v-1.53h1.28v1.53h2.71v1.39h-2.71ZM765.68,498.93l5.11,3.55v-3.55h-5.11Z"/>
    <path class="cls-2" d="M826.1,472.53h0l.45-.1.22-.06.21-.08.2-.1.19-.13.35-.29h0l.23-.32.1-.17.08-.17.06-.18.04-.19.04-.39h0l-.06-.48-.05-.23-.08-.22-.11-.21-.14-.19-.32-.37h0l-.45-.31-.24-.13-.25-.1-.26-.07-.27-.04-.55-.04h0l-.52.04-.25.04-.24.07-.23.1-.22.13-.42.3h0l-.3.39-.13.2-.1.21-.07.23-.04.24-.05.49h0l.02.32.05.31.1.3.13.29h0l.16.25.18.23.21.2.23.18-.17,1.31-5.82-1.1v-5.64h1.33v4.52l3.05.61h0l-.29-.5-.13-.26-.1-.26-.08-.27-.05-.28-.06-.57h0l.08-.7.07-.34.11-.32.15-.3.19-.29.44-.55h0l.59-.44.31-.19.32-.15.34-.1.35-.07.73-.07h0l.72.07.35.06.34.09.33.13.31.16.61.39h0l.3.31.29.32.25.33.2.36.14.39.09.41.06.43.04.43h0l-.06.69-.05.33-.09.32-.13.31-.16.3-.38.57h0l-.5.44-.26.19-.28.16-.3.12-.31.09-.65.13-.12-1.46Z"/>
    <path class="cls-2" d="M816.28,581.35h0l.45-.1.22-.06.21-.08.2-.1.19-.13.35-.29h0l.23-.32.1-.17.08-.17.06-.18.04-.19.04-.39h0l-.06-.48-.05-.23-.08-.22-.11-.21-.14-.19-.32-.37h0l-.45-.31-.24-.13-.25-.1-.26-.07-.27-.04-.55-.04h0l-.52.04-.25.04-.24.07-.23.1-.22.13-.42.3h0l-.3.39-.13.2-.1.21-.07.23-.04.24-.05.49h0l.02.32.05.31.1.3.13.29h0l.16.25.18.23.21.2.23.18-.17,1.31-5.82-1.1v-5.64h1.33v4.52l3.05.61h0l-.29-.5-.13-.26-.1-.26-.08-.27-.05-.28-.06-.57h0l.08-.7.07-.34.11-.32.15-.3.19-.29.44-.55h0l.59-.44.31-.19.32-.15.34-.1.35-.07.73-.07h0l.72.07.35.06.34.09.33.13.31.16.61.39h0l.3.31.29.32.25.33.2.36.14.39.09.41.06.43.04.43h0l-.06.69-.05.33-.09.32-.13.31-.16.3-.38.57h0l-.5.44-.26.19-.28.16-.3.12-.31.09-.65.13-.12-1.46Z"/>
    <path class="cls-2" d="M761.94,612.46h0l-.49.27-.25.12-.26.09-.27.06-.28.04-.56.04h0l-.44-.04-.44-.06-.42-.09-.4-.14-.38-.2-.36-.24-.34-.27-.34-.29h0l-.29-.4-.27-.4-.24-.41-.18-.43-.13-.46-.08-.47-.08-.97h0l.08-.99.08-.48.13-.46.19-.44.24-.42.28-.41.29-.4h0l.34-.29.35-.28.36-.25.38-.2.41-.14.43-.09.44-.06.45-.05h0l.55.04.27.04.26.06.25.09.25.11.48.27h0l.44.4.2.21.18.23.16.25.14.26.24.54h0l.28-.69.16-.33.19-.31.22-.29.25-.27.55-.5h0l.63-.36.32-.15.33-.12.35-.08.35-.05.72-.06h0l.52.05.51.07.5.1.24.07.23.09.23.1.22.12.42.28.41.32.4.34h0l.34.45.32.46.28.47.12.24.1.25.15.52.09.54.06.56.04.56h0l-.04.56-.06.56-.09.54-.07.26-.08.26-.1.25-.12.24-.28.47-.32.46-.34.45h0l-.4.34-.41.32-.43.28-.22.12-.23.1-.24.09-.24.07-.5.1-.52.07-.52.05h0l-.74-.05-.36-.05-.35-.08-.34-.12-.33-.16-.64-.37h0l-.53-.51-.24-.27-.21-.29-.17-.31-.14-.33-.24-.69h0l-.24.55-.14.26-.16.25-.18.23-.2.22-.44.41ZM761.74,610.18h0l.33-.45.14-.23.11-.25.08-.26.05-.27.05-.56h0l-.05-.55-.05-.27-.08-.25-.11-.24-.14-.23-.33-.44h0l-.41-.33-.21-.14-.23-.11-.24-.08-.25-.05-.52-.06h0l-.54.06-.26.05-.25.08-.23.12-.22.15-.43.34h0l-.34.44-.14.23-.11.24-.08.25-.05.27-.06.55h0l.05.55.05.27.08.26.11.24.14.23.33.44h0l.4.33.21.14.22.12.24.08.25.05.52.06h0l.55-.05.27-.05.25-.08.24-.11.23-.14.44-.34ZM769.35,611.2h0l.39-.25.18-.13.17-.15.15-.17.14-.18.26-.38h0l.19-.43.15-.44.08-.46.04-.47h0l-.07-.69-.06-.33-.1-.32-.14-.3-.18-.29-.42-.55h0l-.54-.42-.28-.18-.3-.14-.32-.1-.33-.06-.68-.07h0l-.7.07-.34.07-.32.1-.3.15-.29.18-.55.43h0l-.42.56-.18.29-.14.31-.1.32-.07.34-.07.7h0l.07.68.06.33.1.31.14.3.18.28.42.54h0l.54.42.28.18.3.14.31.1.33.06.68.07h0l.45-.03.44-.07.42-.14.41-.18Z"/>
    <path class="cls-2" d="M537.47,467.45v4.92h-1.28l-7.35-5.17v-1.14h7.35v-1.53h1.28v1.53h2.71v1.39h-2.71ZM531.08,467.45l5.11,3.55v-3.55h-5.11Z"/>
    <path class="cls-2" d="M584.61,579.17v4.92h-1.28l-7.35-5.17v-1.14h7.35v-1.53h1.28v1.53h2.71v1.39h-2.71ZM578.22,579.17l5.11,3.55v-3.55h-5.11Z"/>
    <path class="cls-2" d="M502.54,510.31v7.49h-.25s-.24-.03-.24-.03l-.24-.06-.24-.07h0l-.4-.18-.39-.21-.36-.25-.35-.27h0l-.46-.43-.44-.44-.42-.47-.4-.48h0l-.56-.67-.58-.65-.62-.61-.65-.58h0l-.39-.25-.2-.11-.2-.09-.21-.07-.22-.05-.45-.07h0l-.39.05-.19.04-.18.06-.17.09-.16.11-.31.25h0l-.25.35-.11.18-.08.19-.06.2-.04.21-.04.43h0l.04.45.04.22.06.21.09.2.11.19.27.36h0l.37.27.19.11.2.09.21.06.22.04.46.04-.15,1.43h0l-.69-.11-.33-.08-.32-.12-.3-.16-.28-.19-.53-.44h0l-.38-.59-.16-.3-.12-.32-.08-.33-.05-.34-.05-.7h0l.05-.71.06-.34.09-.33.13-.32.17-.3.4-.58h0l.49-.4.26-.17.27-.14.29-.1.3-.06.63-.07h0l.34.02.34.05.33.09.32.12h0l.37.19.36.21.33.25.32.27h0l.52.51.51.53.96,1.11h0l.7.82.73.79h0l.36.31.39.27v-5.56h1.34Z"/>
    <path class="cls-2" d="M569.98,522.6v4.92h-1.28l-7.35-5.17v-1.14h7.35v-1.53h1.28v1.53h2.71v1.39h-2.71ZM563.59,522.6l5.11,3.55v-3.55h-5.11Z"/>
    <path class="cls-2" d="M613.47,466.12v7.49h-.25s-.24-.03-.24-.03l-.24-.06-.24-.07h0l-.4-.18-.39-.21-.36-.25-.35-.27h0l-.46-.43-.44-.44-.42-.47-.4-.48h0l-.56-.67-.58-.65-.62-.61-.65-.58h0l-.39-.25-.2-.11-.2-.09-.21-.07-.22-.05-.45-.07h0l-.39.05-.19.04-.18.06-.17.09-.16.11-.31.25h0l-.25.35-.11.18-.08.19-.06.2-.04.21-.04.43h0l.04.45.04.22.06.21.09.2.11.19.27.36h0l.37.27.19.11.2.09.21.06.22.04.46.04-.15,1.43h0l-.69-.11-.33-.08-.32-.12-.3-.16-.28-.19-.53-.44h0l-.38-.59-.16-.3-.12-.32-.08-.33-.05-.34-.05-.7h0l.05-.71.06-.34.09-.33.13-.32.17-.3.4-.58h0l.49-.4.26-.17.27-.14.29-.1.3-.06.63-.07h0l.34.02.34.05.33.09.32.12h0l.37.19.36.21.33.25.32.27h0l.52.51.51.53.96,1.11h0l.7.82.73.79h0l.36.31.39.27v-5.56h1.34Z"/>
    <path class="cls-2" d="M541.66,613.37v-11.01h1.62l1.08.9.55.43.57.41.58.39.6.37,1.21.71h0l1.43.73.72.35.73.32.74.29.75.27,1.52.5h0l1.15.29.58.13.58.11.59.09.59.07,1.18.11v2.15h0l-1.23-.1-.61-.07-.61-.09-.6-.11-.6-.13-1.2-.29h0l-1.41-.43-.7-.23-.69-.26-.68-.28-.67-.31-1.33-.65h0l-1.17-.66-.58-.35-.56-.36-.55-.38-.54-.4-1.05-.84v8.33h-2.01Z"/>
    <path class="cls-2" d="M371.2,585.5h0l.47-.12.23-.07.22-.09.21-.11.2-.13.38-.3h0l.22-.32.1-.16.08-.17.05-.18.03-.19.04-.39h0l-.05-.46-.05-.22-.07-.21-.1-.2-.12-.19-.29-.37h0l-.37-.29-.19-.12-.2-.1-.22-.07-.23-.05-.47-.05h0l-.44.04-.21.04-.2.06-.19.09-.18.12-.35.27h0l-.27.35-.11.18-.09.19-.06.21-.04.21-.04.44h0l.05.5.11.49-1.22-.15h0l.02-.22h0l-.03-.42-.03-.21-.05-.2-.07-.2-.08-.19-.2-.38h0l-.29-.31-.16-.13-.17-.1-.19-.07-.2-.05-.42-.05h0l-.35.04-.17.03-.16.05-.15.08-.15.1-.28.22h0l-.22.3-.09.16-.07.16-.05.17-.03.18-.03.37h0l.04.37.03.18.05.17.07.17.09.16.22.3h0l.34.26.18.12.19.1.2.07.21.06.42.09-.25,1.39h0l-.61-.16-.29-.1-.28-.13-.26-.16-.25-.19-.47-.42h0l-.34-.51-.14-.27-.11-.28-.08-.29-.05-.3-.05-.61h0l.03-.44.07-.43.13-.42.17-.41h0l.21-.35.24-.32.3-.27.33-.24h0l.35-.17.36-.14.37-.07.39-.03h0l.35.03.34.07.33.13.31.17h0l.3.24.26.27.21.31.18.34h0l.15-.45.09-.22.11-.2.13-.19.15-.18.34-.33h0l.42-.25.22-.1.22-.08.23-.06.24-.03.49-.04h0l.71.09.34.07.32.11.3.16.29.2.55.46h0l.45.61.19.32.15.33.1.35.07.37.07.76h0l-.06.68-.06.33-.09.32-.13.3-.16.29-.39.56h0l-.5.44-.26.19-.28.16-.3.12-.31.09-.65.13-.19-1.39Z"/>
    <path class="cls-2" d="M334.83,526.4v7.49h-.25s-.24-.03-.24-.03l-.24-.06-.24-.07h0l-.4-.18-.39-.21-.36-.25-.35-.27h0l-.46-.43-.44-.44-.42-.47-.4-.48h0l-.56-.67-.58-.65-.62-.61-.65-.58h0l-.39-.25-.2-.11-.2-.09-.21-.07-.22-.05-.45-.07h0l-.39.05-.19.04-.18.06-.17.09-.16.11-.31.25h0l-.25.35-.11.18-.08.19-.06.2-.04.21-.04.43h0l.04.45.04.22.06.21.09.2.11.19.27.36h0l.37.27.19.11.2.09.21.06.22.04.46.04-.15,1.43h0l-.69-.11-.33-.08-.32-.12-.3-.16-.28-.19-.53-.44h0l-.38-.59-.16-.3-.12-.32-.08-.33-.05-.34-.05-.7h0l.05-.71.06-.34.09-.33.13-.32.17-.3.4-.58h0l.49-.4.26-.17.27-.14.29-.1.3-.06.63-.07h0l.34.02.34.05.33.09.32.12h0l.37.19.36.21.33.25.32.27h0l.52.51.51.53.96,1.11h0l.7.82.73.79h0l.36.31.39.27v-5.56h1.34Z"/>
    <path class="cls-2" d="M386.12,505.27h0l.45-.1.22-.06.21-.08.2-.1.19-.13.35-.29h0l.23-.32.1-.17.08-.17.06-.18.04-.19.04-.39h0l-.06-.48-.05-.23-.08-.22-.11-.21-.14-.19-.32-.37h0l-.45-.31-.24-.13-.25-.1-.26-.07-.27-.04-.55-.04h0l-.52.04-.25.04-.24.07-.23.1-.22.13-.42.3h0l-.3.39-.13.2-.1.21-.07.23-.04.24-.05.49h0l.02.32.05.31.1.3.13.29h0l.16.25.18.23.21.2.23.18-.17,1.31-5.82-1.1v-5.64h1.33v4.52l3.05.61h0l-.29-.5-.13-.26-.1-.26-.08-.27-.05-.28-.06-.57h0l.08-.7.07-.34.11-.32.15-.3.19-.29.44-.55h0l.59-.44.31-.19.32-.15.34-.1.35-.07.73-.07h0l.72.07.35.06.34.09.33.13.31.16.61.39h0l.3.31.29.32.25.33.2.36.14.39.09.41.06.43.04.43h0l-.06.69-.05.33-.09.32-.13.31-.16.3-.38.57h0l-.5.44-.26.19-.28.16-.3.12-.31.09-.65.13-.12-1.46Z"/>
    <path class="cls-2" d="M321.68,470.94h0l.47-.12.23-.07.22-.09.21-.11.2-.13.38-.3h0l.22-.32.1-.16.08-.17.05-.18.03-.19.04-.39h0l-.05-.46-.05-.22-.07-.21-.1-.2-.12-.19-.29-.37h0l-.37-.29-.19-.12-.2-.1-.22-.07-.23-.05-.47-.05h0l-.44.04-.21.04-.2.06-.19.09-.18.12-.35.27h0l-.27.35-.11.18-.09.19-.06.21-.04.21-.04.44h0l.05.5.11.49-1.22-.15h0l.02-.22h0l-.03-.42-.03-.21-.05-.2-.07-.2-.08-.19-.2-.38h0l-.29-.31-.16-.13-.17-.1-.19-.07-.2-.05-.42-.05h0l-.35.04-.17.03-.16.05-.15.08-.15.1-.28.22h0l-.22.3-.09.16-.07.16-.05.17-.03.18-.03.37h0l.04.37.03.18.05.17.07.17.09.16.22.3h0l.34.26.18.12.19.1.2.07.21.06.42.09-.25,1.39h0l-.61-.16-.29-.1-.28-.13-.26-.16-.25-.19-.47-.42h0l-.34-.51-.14-.27-.11-.28-.08-.29-.05-.3-.05-.61h0l.03-.44.07-.43.13-.42.17-.41h0l.21-.35.24-.32.3-.27.33-.24h0l.35-.17.36-.14.37-.07.39-.03h0l.35.03.34.07.33.13.31.17h0l.3.24.26.27.21.31.18.34h0l.15-.45.09-.22.11-.2.13-.19.15-.18.34-.33h0l.42-.25.22-.1.22-.08.23-.06.24-.03.49-.04h0l.71.09.34.07.32.11.3.16.29.2.55.46h0l.45.61.19.32.15.33.1.35.07.37.07.76h0l-.06.68-.06.33-.09.32-.13.3-.16.29-.39.56h0l-.5.44-.26.19-.28.16-.3.12-.31.09-.65.13-.19-1.39Z"/>
    <path class="cls-2" d="M274.99,561.23h0l.45-.1.22-.06.21-.08.2-.1.19-.13.35-.29h0l.23-.32.1-.17.08-.17.06-.18.04-.19.04-.39h0l-.06-.48-.05-.23-.08-.22-.11-.21-.14-.19-.32-.37h0l-.45-.31-.24-.13-.25-.1-.26-.07-.27-.04-.55-.04h0l-.52.04-.25.04-.24.07-.23.1-.22.13-.42.3h0l-.3.39-.13.2-.1.21-.07.23-.04.24-.05.49h0l.02.32.05.31.1.3.13.29h0l.16.25.18.23.21.2.23.18-.17,1.31-5.82-1.1v-5.64h1.33v4.52l3.05.61h0l-.29-.5-.13-.26-.1-.26-.08-.27-.05-.28-.06-.57h0l.08-.7.07-.34.11-.32.15-.3.19-.29.44-.55h0l.59-.44.31-.19.32-.15.34-.1.35-.07.73-.07h0l.72.07.35.06.34.09.33.13.31.16.61.39h0l.3.31.29.32.25.33.2.36.14.39.09.41.06.43.04.43h0l-.06.69-.05.33-.09.32-.13.31-.16.3-.38.57h0l-.5.44-.26.19-.28.16-.3.12-.31.09-.65.13-.12-1.46Z"/>
    <path class="cls-2" d="M334.69,606.15h0l-.48.12-.46.16-.22.11-.21.12-.41.28h0l-.38.46-.16.24-.13.25-.09.27-.06.28-.07.59h0l.04.47.04.23.06.22.08.22.1.21.24.41h0l.45.49.24.23.25.21.27.18.29.16.6.29h0l.96.28.49.11.49.08.49.06.5.03,1,.03h0l-.51-.38-.24-.21-.22-.22-.2-.24-.19-.26-.34-.54h0l-.23-.55-.1-.28-.08-.28-.06-.29-.04-.29-.04-.59h0l.05-.5.07-.5.11-.48.07-.23.09-.23.23-.43.28-.41.31-.39.33-.38h0l.44-.33.45-.31.46-.27.24-.12.25-.1.51-.15.53-.09.54-.06.55-.04h0l.77.05.38.05.38.07.37.1.36.13.72.29h0l.62.37.29.2.28.22.25.25.23.27.43.58h0l.31.65.13.33.11.34.07.35.05.35.05.72h0l-.06.61-.08.6-.13.58-.09.28-.11.27-.13.26-.15.25-.35.48-.4.46-.42.45h0l-.73.42-.74.39-.38.17-.38.15-.39.13-.39.11-.4.08-.41.06-.83.08-.84.04-.85.02h0l-.95-.02-.95-.04-.93-.09-.46-.07-.45-.09-.45-.12-.44-.14-.43-.17-.43-.19-.84-.42-.83-.46h0l-.43-.45-.41-.46-.36-.48-.15-.25-.13-.26-.11-.27-.09-.28-.13-.59-.08-.61-.06-.62h0l.07-.9.07-.44.11-.42.16-.4.21-.39.5-.75h0l.68-.59.36-.26.38-.21.4-.17.42-.13.88-.19.16,2.08ZM343.93,612.14h0l.44-.25.21-.14.2-.15.18-.17.17-.19.31-.4h0l.21-.41.09-.21.08-.21.05-.22.04-.22.04-.46h0l-.09-.65-.08-.31-.11-.29-.16-.27-.19-.26-.44-.49h0l-.66-.43-.34-.18-.36-.14-.37-.09-.38-.06-.79-.05h0l-.76.05-.37.06-.36.09-.34.14-.33.18-.63.42h0l-.43.51-.19.27-.15.29-.1.31-.07.32-.08.67h0l.08.67.07.32.11.31.15.29.18.28.43.53h0l.59.43.31.18.32.14.34.1.36.06.73.06h0l.53-.04.52-.08.51-.15.5-.19Z"/>
    <path class="cls-2" d="M707.09,349.08h0l.45-.1.22-.06.21-.08.2-.1.19-.13.35-.29h0l.23-.32.1-.17.08-.17.06-.18.04-.19.04-.39h0l-.06-.48-.05-.23-.08-.22-.11-.21-.14-.19-.32-.37h0l-.45-.31-.24-.13-.25-.1-.26-.07-.27-.04-.55-.04h0l-.52.04-.25.04-.24.07-.23.1-.22.13-.42.3h0l-.3.39-.13.2-.1.21-.07.23-.04.24-.05.49h0l.02.32.05.31.1.3.13.29h0l.16.25.18.23.21.2.23.18-.17,1.31-5.82-1.1v-5.64h1.33v4.52l3.05.61h0l-.29-.5-.13-.26-.1-.26-.08-.27-.05-.28-.06-.57h0l.08-.7.07-.34.11-.32.15-.3.19-.29.44-.55h0l.59-.44.31-.19.32-.15.34-.1.35-.07.73-.07h0l.72.07.35.06.34.09.33.13.31.16.61.39h0l.3.31.29.32.25.33.2.36.14.39.09.41.06.43.04.43h0l-.06.69-.05.33-.09.32-.13.31-.16.3-.38.57h0l-.5.44-.26.19-.28.16-.3.12-.31.09-.65.13-.12-1.46Z"/>
    <path class="cls-2" d="M822.47,237.89v4.92h-1.28l-7.35-5.17v-1.14h7.35v-1.53h1.28v1.53h2.71v1.39h-2.71ZM816.08,237.89l5.11,3.55v-3.55h-5.11Z"/>
    <path class="cls-2" d="M734.85,240.37h0l.47-.12.23-.07.22-.09.21-.11.2-.13.38-.3h0l.22-.32.1-.16.08-.17.05-.18.03-.19.04-.39h0l-.05-.46-.05-.22-.07-.21-.1-.2-.12-.19-.29-.37h0l-.37-.29-.19-.12-.2-.1-.22-.07-.23-.05-.47-.05h0l-.44.04-.21.04-.2.06-.19.09-.18.12-.35.27h0l-.27.35-.11.18-.09.19-.06.21-.04.21-.04.44h0l.05.5.11.49-1.22-.15h0l.02-.22h0l-.03-.42-.03-.21-.05-.2-.07-.2-.08-.19-.2-.38h0l-.29-.31-.16-.13-.17-.1-.19-.07-.2-.05-.42-.05h0l-.35.04-.17.03-.16.05-.15.08-.15.1-.28.22h0l-.22.3-.09.16-.07.16-.05.17-.03.18-.03.37h0l.04.37.03.18.05.17.07.17.09.16.22.3h0l.34.26.18.12.19.1.2.07.21.06.42.09-.25,1.39h0l-.61-.16-.29-.1-.28-.13-.26-.16-.25-.19-.47-.42h0l-.34-.51-.14-.27-.11-.28-.08-.29-.05-.3-.05-.61h0l.03-.44.07-.43.13-.42.17-.41h0l.21-.35.24-.32.3-.27.33-.24h0l.35-.17.36-.14.37-.07.39-.03h0l.35.03.34.07.33.13.31.17h0l.3.24.26.27.21.31.18.34h0l.15-.45.09-.22.11-.2.13-.19.15-.18.34-.33h0l.42-.25.22-.1.22-.08.23-.06.24-.03.49-.04h0l.71.09.34.07.32.11.3.16.29.2.55.46h0l.45.61.19.32.15.33.1.35.07.37.07.76h0l-.06.68-.06.33-.09.32-.13.3-.16.29-.39.56h0l-.5.44-.26.19-.28.16-.3.12-.31.09-.65.13-.19-1.39Z"/>
    <path class="cls-2" d="M764.47,299.23h0l.45-.1.22-.06.21-.08.2-.1.19-.13.35-.29h0l.23-.32.1-.17.08-.17.06-.18.04-.19.04-.39h0l-.06-.48-.05-.23-.08-.22-.11-.21-.14-.19-.32-.37h0l-.45-.31-.24-.13-.25-.1-.26-.07-.27-.04-.55-.04h0l-.52.04-.25.04-.24.07-.23.1-.22.13-.42.3h0l-.3.39-.13.2-.1.21-.07.23-.04.24-.05.49h0l.02.32.05.31.1.3.13.29h0l.16.25.18.23.21.2.23.18-.17,1.31-5.82-1.1v-5.64h1.33v4.52l3.05.61h0l-.29-.5-.13-.26-.1-.26-.08-.27-.05-.28-.06-.57h0l.08-.7.07-.34.11-.32.15-.3.19-.29.44-.55h0l.59-.44.31-.19.32-.15.34-.1.35-.07.73-.07h0l.72.07.35.06.34.09.33.13.31.16.61.39h0l.3.31.29.32.25.33.2.36.14.39.09.41.06.43.04.43h0l-.06.69-.05.33-.09.32-.13.31-.16.3-.38.57h0l-.5.44-.26.19-.28.16-.3.12-.31.09-.65.13-.12-1.46Z"/>
    <path class="cls-2" d="M826.11,294.72v7.49h-.25s-.24-.03-.24-.03l-.24-.06-.24-.07h0l-.4-.18-.39-.21-.36-.25-.35-.27h0l-.46-.43-.44-.44-.42-.47-.4-.48h0l-.56-.67-.58-.65-.62-.61-.65-.58h0l-.39-.25-.2-.11-.2-.09-.21-.07-.22-.05-.45-.07h0l-.39.05-.19.04-.18.06-.17.09-.16.11-.31.25h0l-.25.35-.11.18-.08.19-.06.2-.04.21-.04.43h0l.04.45.04.22.06.21.09.2.11.19.27.36h0l.37.27.19.11.2.09.21.06.22.04.46.04-.15,1.43h0l-.69-.11-.33-.08-.32-.12-.3-.16-.28-.19-.53-.44h0l-.38-.59-.16-.3-.12-.32-.08-.33-.05-.34-.05-.7h0l.05-.71.06-.34.09-.33.13-.32.17-.3.4-.58h0l.49-.4.26-.17.27-.14.29-.1.3-.06.63-.07h0l.34.02.34.05.33.09.32.12h0l.37.19.36.21.33.25.32.27h0l.52.51.51.53.96,1.11h0l.7.82.73.79h0l.36.31.39.27v-5.56h1.34Z"/>
    <path class="cls-2" d="M767.99,377.47v7.38h-1.91l-11.02-7.76v-1.71h11.02v-2.3h1.91v2.3h4.07v2.09h-4.07ZM758.41,377.47l7.67,5.33v-5.33h-7.67Z"/>
    <path class="cls-2" d="M582.59,353.07v4.92h-1.28l-7.35-5.17v-1.14h7.35v-1.53h1.28v1.53h2.71v1.39h-2.71ZM576.2,353.07l5.11,3.55v-3.55h-5.11Z"/>
    <path class="cls-2" d="M554.52,281.89h0l.45-.1.22-.06.21-.08.2-.1.19-.13.35-.29h0l.23-.32.1-.17.08-.17.06-.18.04-.19.04-.39h0l-.06-.48-.05-.23-.08-.22-.11-.21-.14-.19-.32-.37h0l-.45-.31-.24-.13-.25-.1-.26-.07-.27-.04-.55-.04h0l-.52.04-.25.04-.24.07-.23.1-.22.13-.42.3h0l-.3.39-.13.2-.1.21-.07.23-.04.24-.05.49h0l.02.32.05.31.1.3.13.29h0l.16.25.18.23.21.2.23.18-.17,1.31-5.82-1.1v-5.64h1.33v4.52l3.05.61h0l-.29-.5-.13-.26-.1-.26-.08-.27-.05-.28-.06-.57h0l.08-.7.07-.34.11-.32.15-.3.19-.29.44-.55h0l.59-.44.31-.19.32-.15.34-.1.35-.07.73-.07h0l.72.07.35.06.34.09.33.13.31.16.61.39h0l.3.31.29.32.25.33.2.36.14.39.09.41.06.43.04.43h0l-.06.69-.05.33-.09.32-.13.31-.16.3-.38.57h0l-.5.44-.26.19-.28.16-.3.12-.31.09-.65.13-.12-1.46Z"/>
    <path class="cls-2" d="M500.76,348.06h0l.45-.1.22-.06.21-.08.2-.1.19-.13.35-.29h0l.23-.32.1-.17.08-.17.06-.18.04-.19.04-.39h0l-.06-.48-.05-.23-.08-.22-.11-.21-.14-.19-.32-.37h0l-.45-.31-.24-.13-.25-.1-.26-.07-.27-.04-.55-.04h0l-.52.04-.25.04-.24.07-.23.1-.22.13-.42.3h0l-.3.39-.13.2-.1.21-.07.23-.04.24-.05.49h0l.02.32.05.31.1.3.13.29h0l.16.25.18.23.21.2.23.18-.17,1.31-5.82-1.1v-5.64h1.33v4.52l3.05.61h0l-.29-.5-.13-.26-.1-.26-.08-.27-.05-.28-.06-.57h0l.08-.7.07-.34.11-.32.15-.3.19-.29.44-.55h0l.59-.44.31-.19.32-.15.34-.1.35-.07.73-.07h0l.72.07.35.06.34.09.33.13.31.16.61.39h0l.3.31.29.32.25.33.2.36.14.39.09.41.06.43.04.43h0l-.06.69-.05.33-.09.32-.13.31-.16.3-.38.57h0l-.5.44-.26.19-.28.16-.3.12-.31.09-.65.13-.12-1.46Z"/>
    <path class="cls-2" d="M495.67,283.36v7.49h-.25s-.24-.03-.24-.03l-.24-.06-.24-.07h0l-.4-.18-.39-.21-.36-.25-.35-.27h0l-.46-.43-.44-.44-.42-.47-.4-.48h0l-.56-.67-.58-.65-.62-.61-.65-.58h0l-.39-.25-.2-.11-.2-.09-.21-.07-.22-.05-.45-.07h0l-.39.05-.19.04-.18.06-.17.09-.16.11-.31.25h0l-.25.35-.11.18-.08.19-.06.2-.04.21-.04.43h0l.04.45.04.22.06.21.09.2.11.19.27.36h0l.37.27.19.11.2.09.21.06.22.04.46.04-.15,1.43h0l-.69-.11-.33-.08-.32-.12-.3-.16-.28-.19-.53-.44h0l-.38-.59-.16-.3-.12-.32-.08-.33-.05-.34-.05-.7h0l.05-.71.06-.34.09-.33.13-.32.17-.3.4-.58h0l.49-.4.26-.17.27-.14.29-.1.3-.06.63-.07h0l.34.02.34.05.33.09.32.12h0l.37.19.36.21.33.25.32.27h0l.52.51.51.53.96,1.11h0l.7.82.73.79h0l.36.31.39.27v-5.56h1.34Z"/>
    <path class="cls-2" d="M598.13,245.09h0l.45-.1.22-.06.21-.08.2-.1.19-.13.35-.29h0l.23-.32.1-.17.08-.17.06-.18.04-.19.04-.39h0l-.06-.48-.05-.23-.08-.22-.11-.21-.14-.19-.32-.37h0l-.45-.31-.24-.13-.25-.1-.26-.07-.27-.04-.55-.04h0l-.52.04-.25.04-.24.07-.23.1-.22.13-.42.3h0l-.3.39-.13.2-.1.21-.07.23-.04.24-.05.49h0l.02.32.05.31.1.3.13.29h0l.16.25.18.23.21.2.23.18-.17,1.31-5.82-1.1v-5.64h1.33v4.52l3.05.61h0l-.29-.5-.13-.26-.1-.26-.08-.27-.05-.28-.06-.57h0l.08-.7.07-.34.11-.32.15-.3.19-.29.44-.55h0l.59-.44.31-.19.32-.15.34-.1.35-.07.73-.07h0l.72.07.35.06.34.09.33.13.31.16.61.39h0l.3.31.29.32.25.33.2.36.14.39.09.41.06.43.04.43h0l-.06.69-.05.33-.09.32-.13.31-.16.3-.38.57h0l-.5.44-.26.19-.28.16-.3.12-.31.09-.65.13-.12-1.46Z"/>
    <path class="cls-2" d="M554.15,382.11h0l.71-.17.34-.11.33-.13.31-.17.3-.2.57-.45h0l.34-.47.14-.25.11-.26.08-.27.05-.28.06-.58h0l-.08-.7-.07-.34-.11-.32-.15-.3-.19-.29-.43-.55h0l-.56-.43-.29-.19-.31-.15-.33-.1-.34-.07-.7-.08h0l-.66.07-.32.06-.31.1-.29.14-.27.17-.52.41h0l-.4.53-.17.28-.14.29-.09.31-.06.32-.07.66h0l.03.37.04.37.16.73-1.83-.23h0l.02-.34h0l-.05-.64-.05-.31-.07-.3-.1-.3-.13-.29-.3-.56h0l-.43-.47-.24-.2-.26-.16-.28-.11-.3-.07-.64-.07h0l-.53.06-.26.05-.25.08-.23.11-.22.14-.42.33h0l-.33.45-.14.23-.11.24-.08.26-.05.27-.05.55h0l.05.56.05.27.08.26.11.25.14.24.33.45h0l.51.4.27.17.28.14.3.11.31.09.64.13-.37,2.09h0l-.92-.24-.44-.15-.42-.19-.39-.24-.37-.28-.7-.64h0l-.5-.77-.21-.4-.17-.41-.12-.43-.07-.45-.08-.92h0l.04-.67.04-.33.06-.32.09-.32.11-.31.26-.62h0l.32-.53.17-.25.19-.23.21-.21.23-.2.5-.37h0l.52-.26.26-.11.27-.09.28-.06.28-.04.58-.05h0l.53.05.26.04.25.06.25.09.24.11.47.25h0l.45.37.21.2.19.21.17.23.15.24.27.51h0l.22-.68.13-.32.16-.3.2-.28.23-.26.51-.49h0l.64-.37.33-.16.34-.12.35-.08.36-.05.73-.05h0l.54.05.53.07.51.11.25.08.24.09.23.11.22.13.43.29.42.33.41.35h0l.35.46.33.46.29.48.12.25.1.25.09.26.07.27.1.55.06.56.04.57h0l-.04.51-.05.51-.09.49-.13.48-.2.45-.25.44-.28.42-.3.42h0l-.37.33-.38.32-.39.29-.42.24-.45.18-.47.14-.48.1-.49.09-.28-2.09Z"/>
    <path class="cls-2" d="M402.94,350.72h0l.47-.12.23-.07.22-.09.21-.11.2-.13.38-.3h0l.22-.32.1-.16.08-.17.05-.18.03-.19.04-.39h0l-.05-.46-.05-.22-.07-.21-.1-.2-.12-.19-.29-.37h0l-.37-.29-.19-.12-.2-.1-.22-.07-.23-.05-.47-.05h0l-.44.04-.21.04-.2.06-.19.09-.18.12-.35.27h0l-.27.35-.11.18-.09.19-.06.21-.04.21-.04.44h0l.05.5.11.49-1.22-.15h0l.02-.22h0l-.03-.42-.03-.21-.05-.2-.07-.2-.08-.19-.2-.38h0l-.29-.31-.16-.13-.17-.1-.19-.07-.2-.05-.42-.05h0l-.35.04-.17.03-.16.05-.15.08-.15.1-.28.22h0l-.22.3-.09.16-.07.16-.05.17-.03.18-.03.37h0l.04.37.03.18.05.17.07.16.09.16.22.3h0l.34.26.18.12.19.1.2.07.21.06.42.09-.25,1.39h0l-.61-.16-.29-.1-.28-.13-.26-.16-.25-.19-.47-.42h0l-.34-.51-.14-.27-.11-.28-.08-.29-.05-.3-.05-.61h0l.03-.44.07-.43.13-.42.17-.41h0l.21-.35.24-.32.3-.27.33-.24h0l.35-.17.36-.14.37-.07.39-.03h0l.35.03.34.07.33.13.31.17h0l.3.24.26.27.21.31.18.34h0l.15-.45.09-.22.11-.2.13-.19.15-.18.34-.33h0l.42-.25.22-.1.22-.08.23-.06.24-.03.49-.04h0l.71.09.34.07.32.11.3.16.29.2.55.46h0l.45.61.19.32.15.33.1.35.07.37.07.76h0l-.06.68-.06.33-.09.32-.13.3-.16.29-.39.56h0l-.5.44-.26.19-.28.16-.3.12-.31.09-.65.13-.19-1.39Z"/>
    <path class="cls-2" d="M306.79,231.86h0l.45-.1.22-.06.21-.08.2-.1.19-.13.35-.29h0l.23-.32.1-.17.08-.17.06-.18.04-.19.04-.39h0l-.06-.48-.05-.23-.08-.22-.11-.21-.14-.19-.32-.37h0l-.45-.31-.24-.13-.25-.1-.26-.07-.27-.04-.55-.04h0l-.52.04-.25.04-.24.07-.23.1-.22.13-.42.3h0l-.3.39-.13.2-.1.21-.07.23-.04.24-.05.49h0l.02.32.05.31.1.3.13.29h0l.16.25.18.23.21.2.23.18-.17,1.31-5.82-1.1v-5.64h1.33v4.52l3.05.61h0l-.29-.5-.13-.26-.1-.26-.08-.27-.05-.28-.06-.57h0l.08-.7.07-.34.11-.32.15-.3.19-.29.44-.55h0l.59-.44.31-.19.32-.15.34-.1.35-.07.73-.07h0l.72.07.35.06.34.09.33.13.31.16.61.39h0l.3.31.29.32.25.33.2.36.14.39.09.41.06.43.04.43h0l-.06.69-.05.33-.09.32-.13.31-.16.3-.38.57h0l-.5.44-.26.19-.28.16-.3.12-.31.09-.65.13-.12-1.46Z"/>
    <path class="cls-2" d="M290.08,359.32h0l.45-.1.22-.06.21-.08.2-.1.19-.13.35-.29h0l.23-.32.1-.17.08-.17.06-.18.04-.19.04-.39h0l-.06-.48-.05-.23-.08-.22-.11-.21-.14-.19-.32-.37h0l-.45-.31-.24-.13-.25-.1-.26-.07-.27-.04-.55-.04h0l-.52.04-.25.04-.24.07-.23.1-.22.13-.42.3h0l-.3.39-.13.2-.1.21-.07.23-.04.24-.05.49h0l.02.32.05.31.1.3.13.29h0l.16.25.18.23.21.2.23.18-.17,1.31-5.82-1.1v-5.64h1.33v4.52l3.05.61h0l-.29-.5-.13-.26-.1-.26-.08-.27-.05-.28-.06-.57h0l.08-.7.07-.34.11-.32.15-.3.19-.29.44-.55h0l.59-.44.31-.19.32-.15.34-.1.35-.07.73-.07h0l.72.07.35.06.34.09.33.13.31.16.61.39h0l.3.31.29.32.25.33.2.36.14.39.09.41.06.43.04.43h0l-.06.69-.05.33-.09.32-.13.31-.16.3-.38.57h0l-.5.44-.26.19-.28.16-.3.12-.31.09-.65.13-.12-1.46Z"/>
    <path class="cls-2" d="M293.65,292.98v7.49h-.25s-.24-.03-.24-.03l-.24-.06-.24-.07h0l-.4-.18-.39-.21-.36-.25-.35-.27h0l-.46-.43-.44-.44-.42-.47-.4-.48h0l-.56-.67-.58-.65-.62-.61-.65-.58h0l-.39-.25-.2-.11-.2-.09-.21-.07-.22-.05-.45-.07h0l-.39.05-.19.04-.18.06-.17.09-.16.11-.31.25h0l-.25.35-.11.18-.08.19-.06.2-.04.21-.04.43h0l.04.45.04.22.06.21.09.2.11.19.27.36h0l.37.27.19.11.2.09.21.06.22.04.46.04-.15,1.43h0l-.69-.11-.33-.08-.32-.12-.3-.16-.28-.19-.53-.44h0l-.38-.59-.16-.3-.12-.32-.08-.33-.05-.34-.05-.7h0l.05-.71.06-.34.09-.33.13-.32.17-.3.4-.58h0l.49-.4.26-.17.27-.14.29-.1.3-.06.63-.07h0l.34.02.34.05.33.09.32.12h0l.37.19.36.21.33.25.32.27h0l.52.51.51.53.96,1.11h0l.7.82.73.79h0l.36.31.39.27v-5.56h1.34Z"/>
    <path class="cls-2" d="M348.86,341.71v7.49h-.25s-.24-.03-.24-.03l-.24-.06-.24-.07h0l-.4-.18-.39-.21-.36-.25-.35-.27h0l-.46-.43-.44-.44-.42-.47-.4-.48h0l-.56-.67-.58-.65-.62-.61-.65-.58h0l-.39-.25-.2-.11-.2-.09-.21-.07-.22-.05-.45-.07h0l-.39.05-.19.04-.18.06-.17.09-.16.11-.31.25h0l-.25.35-.11.18-.08.19-.06.2-.04.21-.04.43h0l.04.45.04.22.06.21.09.2.11.19.27.36h0l.37.27.19.11.2.09.21.06.22.04.46.04-.15,1.43h0l-.69-.11-.33-.08-.32-.12-.3-.16-.28-.19-.53-.44h0l-.38-.59-.16-.3-.12-.32-.08-.33-.05-.34-.05-.7h0l.05-.71.06-.34.09-.33.13-.32.17-.3.4-.58h0l.49-.4.26-.17.27-.14.29-.1.3-.06.63-.07h0l.34.02.34.05.33.09.32.12h0l.37.19.36.21.33.25.32.27h0l.52.51.51.53.96,1.11h0l.7.82.73.79h0l.36.31.39.27v-5.56h1.34Z"/>
    <path class="cls-2" d="M345.68,374.76v11.24h-.37s-.37-.05-.37-.05l-.36-.08-.35-.11h0l-.61-.28-.58-.31-.55-.38-.53-.41h0l-.69-.64-.66-.67-.62-.7-.6-.72h0l-.83-1-.43-.49-.44-.48-.46-.46-.47-.45-.98-.86h0l-.58-.38-.3-.17-.31-.14-.32-.11-.33-.08-.68-.1h0l-.59.07-.28.06-.27.09-.25.13-.24.16-.46.38h0l-.37.52-.16.27-.12.28-.09.3-.05.31-.06.64h0l.06.67.06.32.09.31.13.29.17.28.4.54h0l.56.41.29.17.31.13.32.09.34.06.69.06-.22,2.15h0l-.52-.08-.51-.09-.5-.13-.47-.17-.23-.11-.22-.12-.42-.29-.4-.32-.39-.34h0l-.29-.44-.27-.44-.24-.46-.18-.47-.12-.49-.08-.51-.07-1.05h0l.03-.53.05-.53.08-.52.13-.5.09-.24.11-.23.26-.45.29-.44.31-.43h0l.36-.31.37-.29.39-.26.41-.21.43-.15.46-.1.47-.06.48-.05h0l.52.03.51.07.5.14.49.17h0l.56.29.54.32.5.37.48.4h0l.79.77.76.79.73.82.71.84h0l1.04,1.23.54.6.55.59h0l.54.47.59.41v-8.34h2.01Z"/>
    <path class="cls-2" d="M95.26,473.15v7.49h-.25s-.24-.03-.24-.03l-.24-.06-.24-.07h0l-.4-.18-.39-.21-.36-.25-.35-.27h0l-.46-.43-.44-.44-.42-.47-.4-.48h0l-.56-.67-.58-.65-.62-.61-.65-.58h0l-.39-.25-.2-.11-.2-.09-.21-.07-.22-.05-.45-.07h0l-.39.05-.19.04-.18.06-.17.09-.16.11-.31.25h0l-.25.35-.11.18-.08.19-.06.2-.04.21-.04.43h0l.04.45.04.22.06.21.09.2.11.19.27.36h0l.37.27.19.11.2.09.21.06.22.04.46.04-.15,1.43h0l-.69-.11-.33-.08-.32-.12-.3-.16-.28-.19-.53-.44h0l-.38-.59-.16-.3-.12-.32-.08-.33-.05-.34-.05-.7h0l.05-.71.06-.34.09-.33.13-.32.17-.3.4-.58h0l.49-.4.26-.17.27-.14.29-.1.3-.06.63-.07h0l.34.02.34.05.33.09.32.12h0l.37.19.36.21.33.25.32.27h0l.52.51.51.53.96,1.11h0l.7.82.73.79h0l.36.31.39.27v-5.56h1.34Z"/>
    <path class="cls-2" d="M79.29,581.57h0l.45-.1.22-.06.21-.08.2-.1.19-.13.35-.29h0l.23-.32.1-.17.08-.17.06-.18.04-.19.04-.39h0l-.06-.48-.05-.23-.08-.22-.11-.21-.14-.19-.32-.37h0l-.45-.31-.24-.13-.25-.1-.26-.07-.27-.04-.55-.04h0l-.52.04-.25.04-.24.07-.23.1-.22.13-.42.3h0l-.3.39-.13.2-.1.21-.07.23-.04.24-.05.49h0l.02.32.05.31.1.3.13.29h0l.16.25.18.23.21.2.23.18-.17,1.31-5.82-1.1v-5.64h1.33v4.52l3.05.61h0l-.29-.5-.13-.26-.1-.26-.08-.27-.05-.28-.06-.57h0l.08-.7.07-.34.11-.32.15-.3.19-.29.44-.55h0l.59-.44.31-.19.32-.15.34-.1.35-.07.73-.07h0l.72.07.35.06.34.09.33.13.31.16.61.39h0l.3.31.29.32.25.33.2.36.14.39.09.41.06.43.04.43h0l-.06.69-.05.33-.09.32-.13.31-.16.3-.38.57h0l-.5.44-.26.19-.28.16-.3.12-.31.09-.65.13-.12-1.46Z"/>
    <path class="cls-2" d="M169.84,569.57v7.49h-.25s-.24-.03-.24-.03l-.24-.06-.24-.07h0l-.4-.18-.39-.21-.36-.25-.35-.27h0l-.46-.43-.44-.44-.42-.47-.4-.48h0l-.56-.67-.58-.65-.62-.61-.65-.58h0l-.39-.25-.2-.11-.2-.09-.21-.07-.22-.05-.45-.07h0l-.39.05-.19.04-.18.06-.17.09-.16.11-.31.25h0l-.25.35-.11.18-.08.19-.06.2-.04.21-.04.43h0l.04.45.04.22.06.21.09.2.11.19.27.36h0l.37.27.19.11.2.09.21.06.22.04.46.04-.15,1.43h0l-.69-.11-.33-.08-.32-.12-.3-.16-.28-.19-.53-.44h0l-.38-.59-.16-.3-.12-.32-.08-.33-.05-.34-.05-.7h0l.05-.71.06-.34.09-.33.13-.32.17-.3.4-.58h0l.49-.4.26-.17.27-.14.29-.1.3-.06.63-.07h0l.34.02.34.05.33.09.32.12h0l.37.19.36.21.33.25.32.27h0l.52.51.51.53.96,1.11h0l.7.82.73.79h0l.36.31.39.27v-5.56h1.34Z"/>
    <path class="cls-2" d="M132.3,526.03v7.49h-.25s-.24-.03-.24-.03l-.24-.06-.24-.07h0l-.4-.18-.39-.21-.36-.25-.35-.27h0l-.46-.43-.44-.44-.42-.47-.4-.48h0l-.56-.67-.58-.65-.62-.61-.65-.58h0l-.39-.25-.2-.11-.2-.09-.21-.07-.22-.05-.45-.07h0l-.39.05-.19.04-.18.06-.17.09-.16.11-.31.25h0l-.25.35-.11.18-.08.19-.06.2-.04.21-.04.43h0l.04.45.04.22.06.21.09.2.11.19.27.36h0l.37.27.19.11.2.09.21.06.22.04.46.04-.15,1.43h0l-.69-.11-.33-.08-.32-.12-.3-.16-.28-.19-.53-.44h0l-.38-.59-.16-.3-.12-.32-.08-.33-.05-.34-.05-.7h0l.05-.71.06-.34.09-.33.13-.32.17-.3.4-.58h0l.49-.4.26-.17.27-.14.29-.1.3-.06.63-.07h0l.34.02.34.05.33.09.32.12h0l.37.19.36.21.33.25.32.27h0l.52.51.51.53.96,1.11h0l.7.82.73.79h0l.36.31.39.27v-5.56h1.34Z"/>
    <path class="cls-2" d="M188.45,518.16v4.92h-1.28l-7.35-5.17v-1.14h7.35v-1.53h1.28v1.53h2.71v1.39h-2.71ZM182.07,518.16l5.11,3.55v-3.55h-5.11Z"/>
    <path class="cls-2" d="M130.91,615.63h0l.67-.14.32-.09.31-.12.29-.16.28-.19.53-.43h0l.34-.48.15-.25.12-.26.08-.27.05-.29.06-.59h0l-.09-.72-.08-.35-.12-.33-.17-.31-.21-.29-.48-.55h0l-.68-.46-.35-.2-.37-.15-.39-.1-.4-.06-.82-.06h0l-.78.06-.38.06-.36.1-.34.15-.33.19-.63.45h0l-.45.58-.19.3-.15.32-.1.34-.07.35-.07.73h0l.03.48.08.46.07.23.08.22.2.43h0l.24.37.27.34.32.3.35.27-.26,1.96-8.74-1.65v-8.46h2v6.79l4.57.92h0l-.44-.75-.19-.38-.16-.39-.11-.41-.08-.42-.09-.86h0l.05-.53.07-.52.1-.51.07-.25.09-.24.1-.23.12-.22.28-.43.32-.42.34-.41h0l.44-.34.44-.32.46-.28.24-.12.24-.1.25-.09.26-.07.53-.1.55-.06.55-.04h0l1.08.1.53.09.51.14.49.2.47.25.46.28.45.3h0l.46.47.43.48.2.25.18.25.16.26.14.27.12.29.09.3.08.3.06.31.09.64.06.65h0l-.08,1.03-.08.5-.13.49-.19.46-.24.45-.28.43-.29.43h0l-.37.33-.38.32-.39.29-.42.24-.45.18-.47.13-.48.1-.49.09-.19-2.19Z"/>
    <path class="cls-2" d="M191.01,353.35v4.92h-1.28l-7.35-5.17v-1.14h7.35v-1.53h1.28v1.53h2.71v1.39h-2.71ZM184.62,353.35l5.11,3.55v-3.55h-5.11Z"/>
    <path class="cls-2" d="M180.18,283.51v7.49h-.25s-.24-.03-.24-.03l-.24-.06-.24-.07h0l-.4-.18-.39-.21-.36-.25-.35-.27h0l-.46-.43-.44-.44-.42-.47-.4-.48h0l-.56-.67-.58-.65-.62-.61-.65-.58h0l-.39-.25-.2-.11-.2-.09-.21-.07-.22-.05-.45-.07h0l-.39.05-.19.04-.18.06-.17.09-.16.11-.31.25h0l-.25.35-.11.18-.08.19-.06.2-.04.21-.04.43h0l.04.45.04.22.06.21.09.2.11.19.27.36h0l.37.27.19.11.2.09.21.06.22.04.46.04-.15,1.43h0l-.69-.11-.33-.08-.32-.12-.3-.16-.28-.19-.53-.44h0l-.38-.59-.16-.3-.12-.32-.08-.33-.05-.34-.05-.7h0l.05-.71.06-.34.09-.33.13-.32.17-.3.4-.58h0l.49-.4.26-.17.27-.14.29-.1.3-.06.63-.07h0l.34.02.34.05.33.09.32.12h0l.37.19.36.21.33.25.32.27h0l.52.51.51.53.96,1.11h0l.7.82.73.79h0l.36.31.39.27v-5.56h1.34Z"/>
    <path class="cls-2" d="M72.97,239.52v7.49h-.25s-.24-.03-.24-.03l-.24-.06-.24-.07h0l-.4-.18-.39-.21-.36-.25-.35-.27h0l-.46-.43-.44-.44-.42-.47-.4-.48h0l-.56-.67-.58-.65-.62-.61-.65-.58h0l-.39-.25-.2-.11-.2-.09-.21-.07-.22-.05-.45-.07h0l-.39.05-.19.04-.18.06-.17.09-.16.11-.31.25h0l-.25.35-.11.18-.08.19-.06.2-.04.21-.04.43h0l.04.45.04.22.06.21.09.2.11.19.27.36h0l.37.27.19.11.2.09.21.06.22.04.46.04-.15,1.43h0l-.69-.11-.33-.08-.32-.12-.3-.16-.28-.19-.53-.44h0l-.38-.59-.16-.3-.12-.32-.08-.33-.05-.34-.05-.7h0l.05-.71.06-.34.09-.33.13-.32.17-.3.4-.58h0l.49-.4.26-.17.27-.14.29-.1.3-.06.63-.07h0l.34.02.34.05.33.09.32.12h0l.37.19.36.21.33.25.32.27h0l.52.51.51.53.96,1.11h0l.7.82.73.79h0l.36.31.39.27v-5.56h1.34Z"/>
    <path class="cls-2" d="M119.48,293.56h0l.47-.12.23-.07.22-.09.21-.11.2-.13.38-.3h0l.22-.32.1-.16.08-.17.05-.18.03-.19.04-.39h0l-.05-.46-.05-.22-.07-.21-.1-.2-.12-.19-.29-.37h0l-.37-.29-.19-.12-.2-.1-.22-.07-.23-.05-.47-.05h0l-.44.04-.21.04-.2.06-.19.09-.18.12-.35.27h0l-.27.35-.11.18-.09.19-.06.2-.04.21-.04.44h0l.05.5.11.49-1.22-.15h0l.02-.22h0l-.03-.42-.03-.21-.05-.2-.07-.2-.08-.19-.2-.38h0l-.29-.31-.16-.13-.17-.1-.19-.07-.2-.05-.42-.05h0l-.35.04-.17.03-.16.05-.15.08-.15.1-.28.22h0l-.22.3-.09.16-.07.16-.05.17-.03.18-.03.37h0l.04.37.03.18.05.17.07.16.09.16.22.3h0l.34.26.18.12.19.1.2.07.21.06.42.09-.25,1.39h0l-.61-.16-.29-.1-.28-.13-.26-.16-.25-.19-.47-.42h0l-.34-.51-.14-.27-.11-.28-.08-.29-.05-.3-.05-.61h0l.03-.44.07-.43.13-.42.17-.41h0l.21-.35.24-.32.3-.27.33-.24h0l.35-.17.36-.14.37-.07.39-.03h0l.35.03.34.07.33.13.31.17h0l.3.24.26.27.21.31.18.34h0l.15-.45.09-.22.11-.2.13-.19.15-.18.34-.33h0l.42-.25.22-.1.22-.08.23-.06.24-.03.49-.04h0l.71.09.34.07.32.11.3.16.29.2.55.46h0l.45.61.19.32.15.33.1.35.07.37.07.76h0l-.06.68-.06.33-.09.32-.13.3-.16.29-.39.56h0l-.5.44-.26.19-.28.16-.3.12-.31.09-.65.13-.19-1.39Z"/>
    <path class="cls-2" d="M191,233.89h0l.45-.1.22-.06.21-.08.2-.1.19-.13.35-.29h0l.23-.32.1-.17.08-.17.06-.18.04-.19.04-.39h0l-.06-.48-.05-.23-.08-.22-.11-.21-.14-.19-.32-.37h0l-.45-.31-.24-.13-.25-.1-.26-.07-.27-.04-.55-.04h0l-.52.04-.25.04-.24.07-.23.1-.22.13-.42.3h0l-.3.39-.13.2-.1.21-.07.23-.04.24-.05.49h0l.02.32.05.31.1.3.13.29h0l.16.25.18.23.21.2.23.18-.17,1.31-5.82-1.1v-5.64h1.33v4.52l3.05.61h0l-.29-.5-.13-.26-.1-.26-.08-.27-.05-.28-.06-.57h0l.08-.7.07-.34.11-.32.15-.3.19-.29.44-.55h0l.59-.44.31-.19.32-.15.34-.1.35-.07.73-.07h0l.72.07.35.06.34.09.33.13.31.16.61.39h0l.3.31.29.32.25.33.2.36.14.39.09.41.06.43.04.43h0l-.06.69-.05.33-.09.32-.13.31-.16.3-.38.57h0l-.5.44-.26.19-.28.16-.3.12-.31.09-.65.13-.12-1.46Z"/>
    <path class="cls-2" d="M136.24,381.73h-13.31l.4.47.38.48.34.51.32.52h0l.3.53.29.54.26.56.24.57h-2.02l-.42-.82-.22-.4-.24-.39-.26-.38-.27-.37-.58-.72h0l-.51-.54-.26-.26-.28-.24-.29-.22-.3-.21-.63-.39v-1.35h17.08v2.09Z"/>
  </g>
</svg>