<?xml version="1.0" encoding="UTF-8"?>
<svg id="Layer_1" data-name="Layer 1" xmlns="http://www.w3.org/2000/svg" version="1.1" viewBox="0 0 864 864">
  <defs>
    <style>
      .cls-1 {
        fill: #010101;
      }

      .cls-1, .cls-2 {
        stroke-width: 0px;
      }

      .cls-3 {
        stroke-width: .8px;
      }

      .cls-3, .cls-4 {
        fill: #fff;
        stroke: #010101;
        stroke-linecap: round;
        stroke-linejoin: round;
      }

      .cls-4 {
        stroke-width: .8px;
      }

      .cls-2 {
        fill: #757575;
      }
    </style>
  </defs>
  <path class="cls-4" d="M307.91,507.46c0-2.35-1.91-4.25-4.26-4.24s-4.25,1.91-4.24,4.26,1.91,4.25,4.26,4.24,4.25-1.91,4.24-4.26Z"/>
  <g>
    <g>
      <path class="cls-1" d="M16.51,607.32l.02,8.5,47.65,44.36c1.58,1.47,3.66,2.28,5.82,2.28l138.37-.34c4.7-.01,8.49-3.83,8.48-8.52h0l-.04-15.92-8.5.02-.14-56.69,8.5-.02-.29-117.31c0-4.69-3.82-8.49-8.52-8.48l-138.37.34c-2.16,0-4.24.83-5.8,2.3l-47.43,44.6.02,8.5"/>
      <path class="cls-4" d="M182.9,508.24c0,2.35,1.91,4.25,4.26,4.24s4.25-1.91,4.24-4.26h0c0-2.35-1.91-4.26-4.26-4.25s-4.25,1.91-4.24,4.26h0Z"/>
      <path class="cls-4" d="M111.52,568.06c0,2.35,1.91,4.25,4.26,4.24s4.25-1.91,4.24-4.26-1.91-4.25-4.26-4.24-4.25,1.91-4.24,4.26Z"/>
      <path class="cls-4" d="M57.04,513.78c0,2.35,1.91,4.25,4.26,4.24s4.25-1.91,4.24-4.26h0c0-2.35-1.91-4.26-4.26-4.25s-4.25,1.91-4.24,4.26h0Z"/>
      <path class="cls-4" d="M169.03,563.84c0,2.35,1.91,4.25,4.26,4.24s4.25-1.91,4.24-4.26h0c0-2.35-1.91-4.26-4.26-4.25s-4.25,1.91-4.24,4.26h0Z"/>
      <path class="cls-4" d="M182.75,630.76c0,2.35,1.91,4.25,4.26,4.24s4.25-1.91,4.24-4.26h0c0-2.35-1.91-4.26-4.26-4.25s-4.25,1.91-4.24,4.26h0Z"/>
      <path class="cls-4" d="M44.65,523.63l.17,70.87,8.5-.02-.17-70.87s-8.5.02-8.5.02Z"/>
      <path class="cls-4" d="M201.26,650.8c0,2.35,1.91,4.25,4.26,4.24s4.25-1.91,4.24-4.26h0c0-2.35-1.91-4.26-4.26-4.25s-4.25,1.91-4.24,4.26h0Z"/>
      <path class="cls-4" d="M73.24,466.87c0,2.35,1.91,4.25,4.26,4.24s4.25-1.91,4.24-4.26h0c0-2.35-1.91-4.25-4.26-4.24s-4.25,1.91-4.24,4.26h0Z"/>
      <path class="cls-4" d="M200.8,466.55c0,2.35,1.91,4.25,4.26,4.24s4.25-1.91,4.24-4.26h0c0-2.35-1.91-4.26-4.26-4.25s-4.25,1.91-4.24,4.26h0Z"/>
      <path class="cls-4" d="M73.7,651.12c0,2.35,1.91,4.25,4.26,4.24s4.25-1.91,4.24-4.26-1.91-4.25-4.26-4.24-4.25,1.91-4.24,4.26h0Z"/>
      <path class="cls-4" d="M54.9,502.34l36.85-.09-.05-21.26-36.85.09c-4.7.01-8.49,3.83-8.48,8.52v4.25c.02,4.7,3.84,8.49,8.53,8.48h0Z"/>
    </g>
    <g>
      <path class="cls-1" d="M227.73,606.8l.02,8.5,47.65,44.36c1.58,1.47,3.66,2.28,5.82,2.28l138.37-.34c4.7-.01,8.49-3.83,8.48-8.52h0l-.04-15.92-8.5.02-.14-56.69,8.5-.02-.29-117.31c0-4.69-3.82-8.49-8.52-8.48l-138.37.34c-2.16,0-4.24.83-5.8,2.3l-47.43,44.6.02,8.5"/>
      <path class="cls-4" d="M349.04,624.09c0-2.35-1.91-4.25-4.26-4.24s-4.25,1.91-4.24,4.26,1.91,4.25,4.26,4.24,4.25-1.91,4.24-4.26Z"/>
      <path class="cls-4" d="M293.72,575.49c0-2.35-1.91-4.25-4.26-4.24s-4.25,1.91-4.24,4.26h0c0,2.35,1.91,4.26,4.26,4.25s4.25-1.91,4.24-4.26h0Z"/>
      <path class="cls-4" d="M293.47,635.88c0-2.35-1.91-4.25-4.26-4.24s-4.25,1.91-4.24,4.26,1.91,4.25,4.26,4.24,4.25-1.91,4.24-4.26h0Z"/>
      <path class="cls-4" d="M408.57,627.14c0-2.35-1.91-4.25-4.26-4.24s-4.25,1.91-4.24,4.26h0c0,2.35,1.91,4.26,4.26,4.25s4.25-1.91,4.24-4.26h0Z"/>
      <path class="cls-4" d="M255.87,523.11l.17,70.87,8.5-.02-.17-70.87-8.5.02Z"/>
      <path class="cls-4" d="M420.98,650.26c0-2.35-1.91-4.25-4.26-4.24s-4.25,1.91-4.24,4.26h0c0,2.35,1.91,4.26,4.26,4.25s4.25-1.91,4.24-4.26h0Z"/>
      <path class="cls-4" d="M292.96,466.33c0-2.35-1.91-4.25-4.26-4.24s-4.25,1.91-4.24,4.26,1.91,4.25,4.26,4.24,4.25-1.91,4.24-4.26h0Z"/>
      <path class="cls-4" d="M420.52,466.01c0-2.35-1.91-4.25-4.26-4.24s-4.25,1.91-4.24,4.26h0c0,2.35,1.91,4.26,4.26,4.25s4.25-1.91,4.24-4.26h0Z"/>
      <path class="cls-4" d="M293.42,650.58c0-2.35-1.91-4.25-4.26-4.24s-4.25,1.91-4.24,4.26h0c0,2.35,1.91,4.25,4.26,4.24s4.25-1.91,4.24-4.26h0Z"/>
      <path class="cls-4" d="M266.12,501.82l36.85-.09-.05-21.26-36.85.09c-4.7.01-8.49,3.83-8.48,8.52v4.25c.02,4.7,3.84,8.49,8.53,8.48h0Z"/>
    </g>
    <g>
      <path class="cls-1" d="M439.42,606.28l.02,8.5,47.65,44.36c1.58,1.47,3.66,2.29,5.82,2.28l138.37-.34c4.7-.01,8.49-3.83,8.48-8.52h0s-.04-15.92-.04-15.92l-8.5.02-.14-56.69,8.5-.02-.29-117.31c-.01-4.7-3.83-8.49-8.52-8.48h0s-138.37.34-138.37.34c-2.16,0-4.23.83-5.8,2.31l-47.43,44.59.02,8.5"/>
      <path class="cls-3" d="M592.61,523.09c0,2.35,1.91,4.25,4.26,4.24,2.35,0,4.25-1.91,4.24-4.26h0c0-2.35-1.91-4.25-4.26-4.25-2.35,0-4.25,1.91-4.24,4.26h0Z"/>
      <path class="cls-3" d="M487.09,567.58c0,2.35,1.91,4.25,4.26,4.24,2.35,0,4.25-1.91,4.24-4.26h0c0-2.35-1.91-4.25-4.26-4.25-2.35,0-4.25,1.91-4.24,4.26h0Z"/>
      <path class="cls-3" d="M495.49,626.3c0,2.35,1.91,4.25,4.26,4.24,2.35,0,4.25-1.91,4.24-4.26h0c0-2.35-1.91-4.25-4.26-4.25-2.35,0-4.25,1.91-4.24,4.26h0Z"/>
      <path class="cls-3" d="M549.1,560c0,2.35,1.91,4.25,4.26,4.24s4.25-1.91,4.24-4.26-1.91-4.25-4.26-4.24-4.25,1.91-4.24,4.26Z"/>
      <path class="cls-3" d="M576.89,634.18c0,2.35,1.91,4.25,4.26,4.24s4.25-1.91,4.24-4.26c0-2.35-1.91-4.25-4.26-4.24-2.35,0-4.25,1.91-4.24,4.26,0,0,0,0,0,0Z"/>
      <path class="cls-3" d="M467.56,522.59l.17,70.87,8.5-.02-.17-70.87-8.5.02Z"/>
      <path class="cls-3" d="M624.16,649.76c0,2.35,1.91,4.25,4.26,4.24,2.35,0,4.25-1.91,4.24-4.26h0c0-2.35-1.91-4.25-4.26-4.25-2.35,0-4.25,1.91-4.24,4.26h0Z"/>
      <path class="cls-3" d="M496.15,465.83c0,2.35,1.91,4.25,4.26,4.24s4.25-1.91,4.24-4.26h0c0-2.35-1.91-4.25-4.26-4.24-2.35,0-4.25,1.91-4.24,4.26,0,0,0,0,0,0Z"/>
      <path class="cls-3" d="M623.71,465.51c0,2.35,1.91,4.25,4.26,4.24,2.35,0,4.25-1.91,4.24-4.26h0c0-2.35-1.91-4.25-4.26-4.25-2.35,0-4.25,1.91-4.24,4.26h0Z"/>
      <path class="cls-3" d="M496.6,650.08c0,2.35,1.91,4.25,4.26,4.24s4.25-1.91,4.24-4.26c0-2.35-1.91-4.25-4.26-4.24-2.35,0-4.25,1.91-4.24,4.26,0,0,0,0,0,0Z"/>
      <path class="cls-3" d="M477.81,501.3l36.85-.09-.05-21.26-36.85.09c-4.7.01-8.49,3.83-8.48,8.52v4.25c.02,4.7,3.84,8.49,8.54,8.48Z"/>
    </g>
    <g>
      <path class="cls-1" d="M652.89,605.56l.02,8.5,47.65,44.36c1.58,1.47,3.66,2.29,5.82,2.28l138.37-.34c4.7-.01,8.49-3.83,8.48-8.52h0s-.04-15.92-.04-15.92l-8.5.02-.14-56.69,8.5-.02-.29-117.31c-.01-4.7-3.83-8.49-8.52-8.48h0s-138.37.34-138.37.34c-2.16,0-4.23.83-5.8,2.31l-47.43,44.59.02,8.5"/>
      <path class="cls-3" d="M814.63,518.21c0,2.35,1.91,4.25,4.26,4.24,2.35,0,4.25-1.91,4.24-4.26h0c0-2.35-1.91-4.25-4.26-4.25-2.35,0-4.25,1.91-4.24,4.26h0Z"/>
      <path class="cls-3" d="M757.23,576.63c0,2.35,1.91,4.25,4.26,4.24s4.25-1.91,4.24-4.26-1.91-4.25-4.26-4.24-4.25,1.91-4.24,4.26Z"/>
      <path class="cls-3" d="M699.97,626.62c0,2.35,1.91,4.25,4.26,4.24,2.35,0,4.25-1.91,4.24-4.26h0c0-2.35-1.91-4.25-4.26-4.25-2.35,0-4.25,1.91-4.24,4.26h0Z"/>
      <path class="cls-3" d="M727.47,517.82c0,2.35,1.91,4.25,4.26,4.24s4.25-1.91,4.24-4.26-1.91-4.25-4.26-4.24-4.25,1.91-4.24,4.26Z"/>
      <path class="cls-3" d="M815.7,577.93c0,2.35,1.91,4.25,4.26,4.24,2.35,0,4.25-1.91,4.24-4.26h0c0-2.35-1.91-4.25-4.26-4.25-2.35,0-4.25,1.91-4.24,4.26h0Z"/>
      <path class="cls-3" d="M681.04,521.87l.17,70.87,8.5-.02-.17-70.87-8.5.02Z"/>
      <path class="cls-3" d="M837.64,649.04c0,2.35,1.91,4.25,4.26,4.24,2.35,0,4.25-1.91,4.24-4.26h0c0-2.35-1.91-4.25-4.26-4.25-2.35,0-4.25,1.91-4.24,4.26h0Z"/>
      <path class="cls-3" d="M709.63,465.1c0,2.35,1.91,4.25,4.26,4.24s4.25-1.91,4.24-4.26h0c0-2.35-1.91-4.25-4.26-4.24-2.35,0-4.25,1.91-4.24,4.26,0,0,0,0,0,0Z"/>
      <path class="cls-3" d="M837.18,464.79c0,2.35,1.91,4.25,4.26,4.24,2.35,0,4.25-1.91,4.24-4.26h0c0-2.35-1.91-4.25-4.26-4.25-2.35,0-4.25,1.91-4.24,4.26h0Z"/>
      <path class="cls-3" d="M710.08,649.35c0,2.35,1.91,4.25,4.26,4.24s4.25-1.91,4.24-4.26c0-2.35-1.91-4.25-4.26-4.24-2.35,0-4.25,1.91-4.24,4.26,0,0,0,0,0,0Z"/>
      <path class="cls-3" d="M691.29,500.58l36.85-.09-.05-21.26-36.85.09c-4.7.01-8.49,3.83-8.48,8.52v4.25c.02,4.7,3.84,8.49,8.54,8.48Z"/>
    </g>
    <g>
      <path class="cls-1" d="M16.61,387.56l.05,8.5,47.81,44.18c1.58,1.46,3.67,2.27,5.82,2.26l138.37-.87c4.7-.03,8.48-3.86,8.45-8.56h0s-.1-15.92-.1-15.92l-8.5.05-.35-56.69,8.5-.05-.73-117.31c-.03-4.7-3.86-8.48-8.56-8.45h0s-138.37.87-138.37.87c-2.16.01-4.23.85-5.8,2.33l-47.26,44.77.05,8.5"/>
      <path class="cls-3" d="M72.77,408.23c.01,2.35,1.93,4.24,4.28,4.23,2.35-.01,4.24-1.93,4.23-4.28h0c-.01-2.35-1.93-4.25-4.28-4.23-2.35.01-4.24,1.93-4.23,4.28h0Z"/>
      <path class="cls-3" d="M122.3,358.35c.01,2.35,1.93,4.24,4.28,4.23s4.24-1.93,4.23-4.28h0c-.01-2.35-1.93-4.24-4.28-4.23s-4.24,1.93-4.23,4.28Z"/>
      <path class="cls-3" d="M181.1,347.22c.01,2.35,1.93,4.24,4.28,4.23,2.35-.01,4.24-1.93,4.23-4.28h0c-.01-2.35-1.93-4.25-4.28-4.23-2.35.01-4.24,1.93-4.23,4.28h0Z"/>
      <path class="cls-3" d="M84.93,305.7c.01,2.35,1.93,4.24,4.28,4.23s4.24-1.93,4.23-4.28-1.93-4.24-4.28-4.23-4.24,1.93-4.23,4.28Z"/>
      <path class="cls-3" d="M160.11,401.64c.01,2.35,1.93,4.24,4.28,4.23,2.35-.01,4.24-1.93,4.23-4.28h0c-.01-2.35-1.93-4.25-4.28-4.23-2.35.01-4.24,1.93-4.23,4.28h0Z"/>
      <path class="cls-3" d="M44.43,303.77l.44,70.86,8.5-.05-.44-70.86-8.5.05Z"/>
      <path class="cls-3" d="M201.52,430.35c.01,2.35,1.93,4.24,4.28,4.23,2.35-.01,4.24-1.93,4.23-4.28h0c-.01-2.35-1.93-4.25-4.28-4.23-2.35.01-4.24,1.93-4.23,4.28h0Z"/>
      <path class="cls-3" d="M72.81,246.9c.01,2.35,1.93,4.24,4.28,4.23s4.24-1.93,4.23-4.28h0c-.01-2.35-1.93-4.24-4.28-4.23-2.35.01-4.24,1.93-4.23,4.28,0,0,0,0,0,0Z"/>
      <path class="cls-3" d="M200.36,246.1c.01,2.35,1.93,4.24,4.28,4.23,2.35-.01,4.24-1.93,4.23-4.28h0c-.01-2.35-1.93-4.25-4.28-4.23-2.35.01-4.24,1.93-4.23,4.28h0Z"/>
      <path class="cls-3" d="M73.96,431.14c.01,2.35,1.93,4.24,4.28,4.23s4.24-1.93,4.23-4.28c-.01-2.35-1.93-4.24-4.28-4.23-2.35.01-4.24,1.93-4.23,4.28,0,0,0,0,0,0Z"/>
      <path class="cls-3" d="M54.6,282.44l36.85-.23-.13-21.26-36.85.23c-4.7.03-8.48,3.86-8.45,8.56l.03,4.25c.03,4.7,3.86,8.48,8.56,8.45Z"/>
    </g>
    <g>
      <path class="cls-1" d="M226.95,389.15l.02,8.5,47.65,44.36c1.58,1.47,3.66,2.29,5.82,2.28l138.37-.34c4.7-.01,8.49-3.83,8.48-8.52h0s-.04-15.92-.04-15.92l-8.5.02-.14-56.69,8.5-.02-.29-117.31c-.01-4.7-3.83-8.49-8.52-8.48h0s-138.37.34-138.37.34c-2.16,0-4.23.83-5.8,2.31l-47.43,44.59.02,8.5"/>
      <path class="cls-3" d="M378.21,335.87c0,2.35,1.91,4.25,4.26,4.24,2.35,0,4.25-1.91,4.24-4.26h0c0-2.35-1.91-4.25-4.26-4.25-2.35,0-4.25,1.91-4.24,4.26h0Z"/>
      <path class="cls-3" d="M323.82,363.09c0,2.35,1.91,4.25,4.26,4.24s4.25-1.91,4.24-4.26-1.91-4.25-4.26-4.24-4.25,1.91-4.24,4.26Z"/>
      <path class="cls-3" d="M267.22,392.11c0,2.35,1.91,4.25,4.26,4.24,2.35,0,4.25-1.91,4.24-4.26h0c0-2.35-1.91-4.25-4.26-4.25-2.35,0-4.25,1.91-4.24,4.26h0Z"/>
      <path class="cls-3" d="M313.7,301.68c0,2.35,1.91,4.25,4.26,4.24s4.25-1.91,4.24-4.26-1.91-4.25-4.26-4.24-4.25,1.91-4.24,4.26h0Z"/>
      <path class="cls-3" d="M363.49,416.12c0,2.35,1.91,4.25,4.26,4.24s4.25-1.91,4.24-4.26c0-2.35-1.91-4.25-4.26-4.24-2.35,0-4.25,1.91-4.24,4.26,0,0,0,0,0,0Z"/>
      <path class="cls-3" d="M255.09,305.46l.17,70.87,8.5-.02-.17-70.87-8.5.02Z"/>
      <path class="cls-3" d="M411.69,432.63c0,2.35,1.91,4.25,4.26,4.24,2.35,0,4.25-1.91,4.24-4.26h0c0-2.35-1.91-4.25-4.26-4.25-2.35,0-4.25,1.91-4.24,4.26h0Z"/>
      <path class="cls-3" d="M283.68,248.7c0,2.35,1.91,4.25,4.26,4.24s4.25-1.91,4.24-4.26h0c0-2.35-1.91-4.25-4.26-4.24-2.35,0-4.25,1.91-4.24,4.26,0,0,0,0,0,0Z"/>
      <path class="cls-3" d="M411.24,248.38c0,2.35,1.91,4.25,4.26,4.24,2.35,0,4.25-1.91,4.24-4.26h0c0-2.35-1.91-4.25-4.26-4.25-2.35,0-4.25,1.91-4.24,4.26h0Z"/>
      <path class="cls-3" d="M284.13,432.95c0,2.35,1.91,4.25,4.26,4.24s4.25-1.91,4.24-4.26c0-2.35-1.91-4.25-4.26-4.24-2.35,0-4.25,1.91-4.24,4.26,0,0,0,0,0,0Z"/>
      <path class="cls-3" d="M265.34,284.18l36.85-.09-.05-21.26-36.85.09c-4.7.01-8.49,3.83-8.48,8.52v4.25c.02,4.7,3.84,8.49,8.54,8.48Z"/>
    </g>
    <g>
      <path class="cls-1" d="M438.64,388.71l.02,8.5,47.65,44.36c1.58,1.47,3.66,2.29,5.82,2.28l138.37-.34c4.7-.01,8.49-3.83,8.48-8.52h0s-.04-15.92-.04-15.92l-8.5.02-.14-56.69,8.5-.02-.29-117.31c-.01-4.7-3.83-8.49-8.52-8.48h0s-138.37.34-138.37.34c-2.16,0-4.23.83-5.8,2.31l-47.43,44.59.02,8.5"/>
      <path class="cls-3" d="M561.89,357.62c0,2.35,1.91,4.25,4.26,4.24,2.35,0,4.25-1.91,4.24-4.26h0c0-2.35-1.91-4.25-4.26-4.25s-4.25,1.91-4.24,4.26Z"/>
      <path class="cls-3" d="M529.24,302.55c0,2.35,1.91,4.25,4.26,4.24s4.25-1.91,4.24-4.26-1.91-4.25-4.26-4.24-4.25,1.91-4.24,4.26h0Z"/>
      <path class="cls-3" d="M602.54,303.93c0,2.35,1.91,4.25,4.26,4.24,2.35,0,4.25-1.91,4.24-4.26h0c0-2.35-1.91-4.25-4.26-4.25-2.35,0-4.25,1.91-4.24,4.26h0Z"/>
      <path class="cls-3" d="M491.71,348.39c0,2.35,1.91,4.25,4.26,4.24,2.35,0,4.25-1.91,4.24-4.26h0c0-2.35-1.91-4.25-4.26-4.25-2.35,0-4.25,1.91-4.24,4.26h0Z"/>
      <path class="cls-3" d="M576.66,414.16c0,2.35,1.91,4.25,4.26,4.24s4.25-1.91,4.24-4.26c0-2.35-1.91-4.25-4.26-4.24-2.35,0-4.25,1.91-4.24,4.26,0,0,0,0,0,0Z"/>
      <path class="cls-3" d="M466.78,305.02l.17,70.87,8.5-.02-.17-70.87-8.5.02Z"/>
      <path class="cls-3" d="M623.38,432.19c0,2.35,1.91,4.25,4.26,4.24,2.35,0,4.25-1.91,4.24-4.26h0c0-2.35-1.91-4.25-4.26-4.25-2.35,0-4.25,1.91-4.24,4.26h0Z"/>
      <path class="cls-3" d="M495.37,248.25c0,2.35,1.91,4.25,4.26,4.24s4.25-1.91,4.24-4.26h0c0-2.35-1.91-4.25-4.26-4.24-2.35,0-4.25,1.91-4.24,4.26,0,0,0,0,0,0Z"/>
      <path class="cls-3" d="M622.93,247.94c0,2.35,1.91,4.25,4.26,4.24,2.35,0,4.25-1.91,4.24-4.26h0c0-2.35-1.91-4.25-4.26-4.25-2.35,0-4.25,1.91-4.24,4.26h0Z"/>
      <path class="cls-3" d="M495.83,432.5c0,2.35,1.91,4.25,4.26,4.24s4.25-1.91,4.24-4.26c0-2.35-1.91-4.25-4.26-4.24-2.35,0-4.25,1.91-4.24,4.26,0,0,0,0,0,0Z"/>
      <path class="cls-3" d="M477.03,283.73l36.85-.09-.05-21.26-36.85.09c-4.7.01-8.49,3.83-8.48,8.52v4.25c.02,4.7,3.84,8.49,8.54,8.48Z"/>
    </g>
    <g>
      <path class="cls-1" d="M652.12,388.18l.02,8.5,47.65,44.36c1.58,1.47,3.66,2.29,5.82,2.28l138.37-.34c4.7-.01,8.49-3.83,8.48-8.52h0s-.04-15.92-.04-15.92l-8.5.02-.14-56.69,8.5-.02-.29-117.31c-.01-4.7-3.83-8.49-8.52-8.48h0s-138.37.34-138.37.34c-2.16,0-4.23.83-5.8,2.31l-47.43,44.59.02,8.5"/>
      <path class="cls-3" d="M748.24,397.76c0,2.35,1.91,4.25,4.26,4.24s4.25-1.91,4.24-4.26h0c0-2.35-1.91-4.25-4.26-4.24s-4.25,1.91-4.24,4.26Z"/>
      <path class="cls-3" d="M817.95,303.85c0,2.35,1.91,4.25,4.26,4.24,2.35,0,4.25-1.91,4.24-4.26h0c0-2.35-1.91-4.25-4.26-4.25-2.35,0-4.25,1.91-4.24,4.26h0Z"/>
      <path class="cls-3" d="M808.4,412.7c0,2.35,1.91,4.25,4.26,4.24s4.25-1.91,4.24-4.26c0-2.35-1.91-4.25-4.26-4.24-2.35,0-4.25,1.91-4.24,4.26,0,0,0,0,0,0Z"/>
      <path class="cls-3" d="M763.53,333.45c0,2.35,1.91,4.25,4.26,4.24,2.35,0,4.25-1.91,4.24-4.26h0c0-2.35-1.91-4.25-4.26-4.24s-4.25,1.91-4.24,4.26Z"/>
      <path class="cls-3" d="M696.93,365.3c0,2.35,1.91,4.25,4.26,4.24s4.25-1.91,4.24-4.26c0-2.35-1.91-4.25-4.26-4.24-2.35,0-4.25,1.91-4.24,4.26,0,0,0,0,0,0Z"/>
      <path class="cls-3" d="M680.26,304.49l.17,70.87,8.5-.02-.17-70.87-8.5.02Z"/>
      <path class="cls-3" d="M836.86,431.66c0,2.35,1.91,4.25,4.26,4.24,2.35,0,4.25-1.91,4.24-4.26h0c0-2.35-1.91-4.25-4.26-4.25-2.35,0-4.25,1.91-4.24,4.26h0Z"/>
      <path class="cls-3" d="M708.85,247.73c0,2.35,1.91,4.25,4.26,4.24s4.25-1.91,4.24-4.26h0c0-2.35-1.91-4.25-4.26-4.24-2.35,0-4.25,1.91-4.24,4.26,0,0,0,0,0,0Z"/>
      <path class="cls-3" d="M836.41,247.41c0,2.35,1.91,4.25,4.26,4.24,2.35,0,4.25-1.91,4.24-4.26h0c0-2.35-1.91-4.25-4.26-4.25-2.35,0-4.25,1.91-4.24,4.26h0Z"/>
      <path class="cls-3" d="M709.3,431.98c0,2.35,1.91,4.25,4.26,4.24s4.25-1.91,4.24-4.26c0-2.35-1.91-4.25-4.26-4.24-2.35,0-4.25,1.91-4.24,4.26,0,0,0,0,0,0Z"/>
      <path class="cls-3" d="M690.51,283.21l36.85-.09-.05-21.26-36.85.09c-4.7.01-8.49,3.83-8.48,8.52v4.25c.02,4.7,3.84,8.49,8.54,8.48Z"/>
    </g>
    <g>
      <path class="cls-1" d="M10.8,168.25l.03,8.5,47.67,44.33c1.58,1.47,3.66,2.28,5.82,2.28l138.37-.42c4.7-.01,8.49-3.83,8.48-8.53h0s-.05-15.92-.05-15.92l-8.5.03-.17-56.69,8.5-.03-.35-117.31c-.01-4.7-3.83-8.49-8.53-8.48h0s-138.37.42-138.37.42c-2.16,0-4.23.83-5.8,2.31L10.49,63.36l.03,8.5"/>
      <path class="cls-3" d="M95.38,182.4c0,2.35,1.92,4.25,4.26,4.24s4.25-1.92,4.24-4.26h0c0-2.35-1.92-4.25-4.26-4.24s-4.25,1.92-4.24,4.26Z"/>
      <path class="cls-3" d="M172.79,72.67c0,2.35,1.91,4.25,4.26,4.24,2.35,0,4.25-1.91,4.24-4.26h0c0-2.35-1.91-4.25-4.26-4.25-2.35,0-4.25,1.91-4.24,4.26h0Z"/>
      <path class="cls-3" d="M107.07,74.17c0,2.35,1.92,4.25,4.26,4.24s4.25-1.92,4.24-4.26-1.92-4.25-4.26-4.24-4.25,1.92-4.24,4.26h0Z"/>
      <path class="cls-3" d="M126.87,130.54c0,2.35,1.92,4.25,4.26,4.24s4.25-1.92,4.24-4.26c0-2.35-1.92-4.25-4.26-4.24s-4.25,1.92-4.24,4.26Z"/>
      <path class="cls-3" d="M69.53,127.27c0,2.35,1.92,4.25,4.26,4.24,2.35,0,4.25-1.92,4.24-4.26,0-2.35-1.91-4.25-4.26-4.24-2.35,0-4.25,1.91-4.24,4.26,0,0,0,0,0,0Z"/>
      <path class="cls-3" d="M38.9,84.54l.21,70.87,8.5-.03-.21-70.87-8.5.03Z"/>
      <path class="cls-3" d="M195.57,211.62c0,2.35,1.91,4.25,4.26,4.24,2.35,0,4.25-1.91,4.24-4.26h0c0-2.35-1.91-4.25-4.26-4.25-2.35,0-4.25,1.91-4.24,4.26h0Z"/>
      <path class="cls-3" d="M67.45,27.76c0,2.35,1.92,4.25,4.26,4.24s4.25-1.92,4.24-4.26h0c0-2.35-1.91-4.25-4.26-4.24-2.35,0-4.25,1.91-4.24,4.26,0,0,0,0,0,0Z"/>
      <path class="cls-3" d="M195.01,27.37c0,2.35,1.91,4.25,4.26,4.24,2.35,0,4.25-1.91,4.24-4.26h0c0-2.35-1.91-4.25-4.26-4.25-2.35,0-4.25,1.91-4.24,4.26h0Z"/>
      <path class="cls-3" d="M68.01,212.01c0,2.35,1.92,4.25,4.26,4.24s4.25-1.92,4.24-4.26c0-2.35-1.91-4.25-4.26-4.24-2.35,0-4.25,1.91-4.24,4.26,0,0,0,0,0,0Z"/>
      <path class="cls-3" d="M49.14,63.25l36.85-.11-.06-21.26-36.85.11c-4.7.01-8.49,3.83-8.48,8.53v4.25c.03,4.7,3.85,8.49,8.54,8.48Z"/>
    </g>
    <g>
      <path class="cls-1" d="M224.34,169.51l.02,8.5,47.65,44.36c1.58,1.47,3.66,2.29,5.82,2.28l138.37-.34c4.7-.01,8.49-3.83,8.48-8.52h0s-.04-15.92-.04-15.92l-8.5.02-.14-56.69,8.5-.02-.29-117.31c-.01-4.7-3.83-8.49-8.52-8.48h0s-138.37.34-138.37.34c-2.16,0-4.23.83-5.8,2.31l-47.43,44.59.02,8.5"/>
      <path class="cls-3" d="M278.15,146.92c0,2.35,1.91,4.25,4.26,4.24,2.35,0,4.25-1.91,4.24-4.26h0c0-2.35-1.91-4.25-4.26-4.25-2.35,0-4.25,1.91-4.24,4.26h0Z"/>
      <path class="cls-3" d="M320.8,106.48c0,2.35,1.91,4.25,4.26,4.24s4.25-1.91,4.24-4.26-1.91-4.25-4.26-4.24-4.25,1.91-4.24,4.26h0Z"/>
      <path class="cls-3" d="M269.33,75.37c0,2.35,1.91,4.25,4.26,4.24s4.25-1.91,4.24-4.26c0-2.35-1.91-4.25-4.26-4.24-2.35,0-4.25,1.91-4.24,4.26,0,0,0,0,0,0Z"/>
      <path class="cls-3" d="M365.19,142.74c0,2.35,1.91,4.25,4.26,4.24,2.35,0,4.25-1.91,4.24-4.26h0c0-2.35-1.91-4.25-4.26-4.25-2.35,0-4.25,1.91-4.24,4.26h0Z"/>
      <path class="cls-3" d="M323.97,192.02c0,2.35,1.91,4.25,4.26,4.24s4.25-1.91,4.24-4.26-1.91-4.25-4.26-4.24-4.25,1.91-4.24,4.26Z"/>
      <path class="cls-3" d="M252.48,85.82l.17,70.87,8.5-.02-.17-70.87-8.5.02Z"/>
      <path class="cls-3" d="M409.09,212.99c0,2.35,1.91,4.25,4.26,4.24,2.35,0,4.25-1.91,4.24-4.26h0c0-2.35-1.91-4.25-4.26-4.25-2.35,0-4.25,1.91-4.24,4.26h0Z"/>
      <path class="cls-3" d="M281.07,29.05c0,2.35,1.91,4.25,4.26,4.24s4.25-1.91,4.24-4.26h0c0-2.35-1.91-4.25-4.26-4.24-2.35,0-4.25,1.91-4.24,4.26,0,0,0,0,0,0Z"/>
      <path class="cls-3" d="M408.63,28.74c0,2.35,1.91,4.25,4.26,4.24,2.35,0,4.25-1.91,4.24-4.26h0c0-2.35-1.91-4.25-4.26-4.25-2.35,0-4.25,1.91-4.24,4.26h0Z"/>
      <path class="cls-3" d="M281.53,213.3c0,2.35,1.91,4.25,4.26,4.24s4.25-1.91,4.24-4.26c0-2.35-1.91-4.25-4.26-4.24-2.35,0-4.25,1.91-4.24,4.26,0,0,0,0,0,0Z"/>
      <path class="cls-3" d="M262.74,64.53l36.85-.09-.05-21.26-36.85.09c-4.7.01-8.49,3.83-8.48,8.52v4.25c.02,4.7,3.84,8.49,8.54,8.48Z"/>
    </g>
    <g>
      <path class="cls-1" d="M439.3,167.12l.02,8.5,47.65,44.36c1.58,1.47,3.66,2.29,5.82,2.28l138.37-.34c4.7-.01,8.49-3.83,8.48-8.52h0s-.04-15.92-.04-15.92l-8.5.02-.14-56.69,8.5-.02-.29-117.31c-.01-4.7-3.83-8.49-8.52-8.48h0s-138.37.34-138.37.34c-2.16,0-4.23.83-5.8,2.31l-47.43,44.59.02,8.5"/>
      <path class="cls-3" d="M594.66,78.05c0-2.35-1.91-4.25-4.26-4.24-2.35,0-4.25,1.91-4.24,4.26h0c0,2.35,1.91,4.25,4.26,4.25,2.35,0,4.25-1.91,4.24-4.26h0Z"/>
      <path class="cls-3" d="M490.2,95.18c0-2.35-1.91-4.25-4.26-4.24-2.35,0-4.25,1.91-4.24,4.26h0c0,2.35,1.91,4.25,4.26,4.25,2.35,0,4.25-1.91,4.24-4.26h0Z"/>
      <path class="cls-3" d="M498.72,168.46c0-2.35-1.91-4.25-4.26-4.24-2.35,0-4.25,1.91-4.24,4.26h0c0,2.35,1.91,4.25,4.26,4.25,2.35,0,4.25-1.91,4.24-4.26h0Z"/>
      <path class="cls-3" d="M548.66,124.36c0-2.35-1.91-4.25-4.26-4.24s-4.25,1.91-4.24,4.26,1.91,4.25,4.26,4.24,4.25-1.91,4.24-4.26Z"/>
      <path class="cls-3" d="M605.5,168.26c0-2.35-1.91-4.25-4.26-4.24-2.35,0-4.25,1.91-4.24,4.26h0c0,2.35,1.91,4.25,4.26,4.25,2.35,0,4.25-1.91,4.24-4.26h0Z"/>
      <path class="cls-3" d="M467.44,83.43l.17,70.87,8.5-.02-.17-70.87-8.5.02Z"/>
      <path class="cls-3" d="M632.55,210.58c0-2.35-1.91-4.25-4.26-4.24-2.35,0-4.25,1.91-4.24,4.26h0c0,2.35,1.91,4.25,4.26,4.25,2.35,0,4.25-1.91,4.24-4.26h0Z"/>
      <path class="cls-3" d="M504.54,26.65c0-2.35-1.91-4.25-4.26-4.24s-4.25,1.91-4.24,4.26c0,2.35,1.91,4.25,4.26,4.24,2.35,0,4.25-1.91,4.24-4.26,0,0,0,0,0,0Z"/>
      <path class="cls-3" d="M632.1,26.33c0-2.35-1.91-4.25-4.26-4.24-2.35,0-4.25,1.91-4.24,4.26h0c0,2.35,1.91,4.25,4.26,4.25,2.35,0,4.25-1.91,4.24-4.26h0Z"/>
      <path class="cls-3" d="M504.99,210.9c0-2.35-1.91-4.25-4.26-4.24s-4.25,1.91-4.24,4.26h0c0,2.35,1.91,4.25,4.26,4.24,2.35,0,4.25-1.91,4.24-4.26,0,0,0,0,0,0Z"/>
      <path class="cls-3" d="M477.7,62.15l36.85-.09-.05-21.26-36.85.09c-4.7.01-8.49,3.83-8.48,8.52v4.25c.02,4.7,3.84,8.49,8.54,8.48Z"/>
    </g>
    <g>
      <path class="cls-1" d="M651.65,167.8l.02,8.5,47.65,44.36c1.58,1.47,3.66,2.29,5.82,2.28l138.37-.34c4.7-.01,8.49-3.83,8.48-8.52h0l-.04-15.92-8.5.02-.14-56.69,8.5-.02-.29-117.31c-.01-4.7-3.83-8.49-8.52-8.48h0s-138.37.34-138.37.34c-2.16,0-4.23.83-5.8,2.31l-47.43,44.59.02,8.5"/>
      <path class="cls-3" d="M816.7,86.64c0,2.35,1.91,4.25,4.26,4.24,2.35,0,4.25-1.91,4.24-4.26h0c0-2.35-1.91-4.25-4.26-4.25-2.35,0-4.25,1.91-4.24,4.26h0Z"/>
      <path class="cls-3" d="M741.31,131.12c0,2.35,1.91,4.25,4.26,4.24s4.25-1.91,4.24-4.26-1.91-4.25-4.26-4.24-4.25,1.91-4.24,4.26h0Z"/>
      <path class="cls-3" d="M700.94,196.36c0,2.35,1.91,4.25,4.26,4.24,2.35,0,4.25-1.91,4.24-4.26h0c0-2.35-1.91-4.25-4.26-4.25-2.35,0-4.25,1.91-4.24,4.26h0Z"/>
      <path class="cls-3" d="M756.94,71.61c0,2.35,1.91,4.25,4.26,4.24s4.25-1.91,4.24-4.26-1.91-4.25-4.26-4.24-4.25,1.91-4.24,4.26h0Z"/>
      <path class="cls-3" d="M813.74,168.51c0,2.35,1.91,4.25,4.26,4.24,2.35,0,4.25-1.91,4.24-4.26h0c0-2.35-1.91-4.25-4.26-4.25-2.35,0-4.25,1.91-4.24,4.26h0Z"/>
      <path class="cls-3" d="M679.79,84.11l.17,70.87,8.5-.02-.17-70.87-8.5.02Z"/>
      <path class="cls-3" d="M836.39,211.28c0,2.35,1.91,4.25,4.26,4.24,2.35,0,4.25-1.91,4.24-4.26h0c0-2.35-1.91-4.25-4.26-4.25-2.35,0-4.25,1.91-4.24,4.26h0Z"/>
      <path class="cls-3" d="M708.38,27.35c0,2.35,1.91,4.25,4.26,4.24s4.25-1.91,4.24-4.26c0-2.35-1.91-4.25-4.26-4.24-2.35,0-4.25,1.91-4.24,4.26,0,0,0,0,0,0Z"/>
      <path class="cls-3" d="M835.94,27.03c0,2.35,1.91,4.25,4.26,4.24,2.35,0,4.25-1.91,4.24-4.26h0c0-2.35-1.91-4.25-4.26-4.25-2.35,0-4.25,1.91-4.24,4.26h0Z"/>
      <path class="cls-3" d="M708.83,211.6c0,2.35,1.91,4.25,4.26,4.24s4.25-1.91,4.24-4.26c0-2.35-1.91-4.25-4.26-4.24-2.35,0-4.25,1.91-4.24,4.26,0,0,0,0,0,0Z"/>
      <path class="cls-3" d="M690.04,62.83l36.85-.09-.05-21.26-36.85.09c-4.7.01-8.49,3.83-8.48,8.52v4.25c.02,4.7,3.84,8.49,8.54,8.48Z"/>
    </g>
  </g>
  <g>
    <g>
      <path class="cls-2" d="M142.32,648.87l-13.31.03.4.47.38.48.34.51.32.52h0l.3.53.29.54.26.56.24.57h-2.02s-.42-.81-.42-.81l-.22-.4-.24-.39-.26-.38-.27-.37-.58-.72h0l-.51-.54-.26-.26-.28-.24-.29-.22-.3-.21-.63-.39v-1.35s17.08-.04,17.08-.04v2.09s-.01.02-.01.02Z"/>
      <path class="cls-2" d="M196.71,500.88h0l.45-.1.22-.06.21-.08.2-.1.19-.13.35-.29h0l.23-.32.1-.17.08-.17.06-.18.04-.19.04-.39h0l-.06-.48-.05-.23-.08-.22-.11-.21-.14-.19-.32-.37h0l-.45-.31-.24-.13-.25-.1-.26-.07-.27-.04-.55-.04h0l-.52.04-.25.04-.24.07-.23.1-.22.13-.42.3h0l-.3.39-.13.2-.1.21-.07.23-.04.24-.05.49h0l.02.32.05.31.1.3.13.29h0l.16.25.18.23.21.2.23.18-.17,1.31-5.82-1.09v-5.64s1.32,0,1.32,0v4.52s3.06.6,3.06.6h0l-.29-.5-.13-.26-.1-.26-.08-.27-.05-.28-.06-.57h0l.08-.7.07-.34.11-.32.15-.3.19-.29.44-.55h0l.59-.44.31-.19.32-.15.34-.1.35-.07.73-.07h0l.72.07.35.06.34.09.33.13.31.16.61.39h0l.3.31.29.32.25.33.2.36.14.39.09.41.06.43.04.43h0l-.06.69-.05.33-.09.32-.13.31-.16.3-.38.57h0l-.5.44-.26.19-.28.16-.3.12-.31.09-.65.13-.12-1.46v-.06Z"/>
      <path class="cls-2" d="M125.34,560.73h0l.47-.12.23-.07.22-.09.21-.11.2-.13.38-.3h0l.22-.32.1-.16.08-.17.05-.18.03-.19.04-.39h0l-.05-.46-.05-.22-.07-.21-.1-.2-.12-.19-.29-.37h0l-.37-.29-.19-.12-.2-.1-.22-.07-.23-.05-.47-.05h0l-.44.04-.21.04-.2.06-.19.09-.18.12-.35.27h0l-.27.35-.11.18-.09.19-.06.2-.04.21-.04.44h0l.05.5.11.49-1.22-.15h0l.02-.22h0l-.03-.42-.03-.21-.05-.2-.07-.2-.08-.19-.2-.38h0l-.29-.31-.16-.13-.17-.1-.19-.07-.2-.05-.42-.05h0l-.35.04-.17.03-.16.05-.15.08-.15.1-.28.22h0l-.22.3-.09.16-.07.16-.05.17-.03.18-.03.37h0l.04.37.03.18.05.17.07.16.09.16.22.3h0l.34.26.18.12.19.1.2.07.21.06.42.09-.25,1.39h0l-.61-.16-.29-.1-.28-.13-.26-.16-.25-.19-.47-.42h0l-.34-.51-.14-.27-.11-.28-.08-.29-.05-.3-.05-.61h0l.03-.44.07-.43.13-.42.17-.41h0l.21-.35.24-.32.3-.27.33-.24h0l.35-.17.36-.14.37-.07.39-.03h0l.35.03.34.07.33.13.31.17h0l.3.24.26.27.21.31.18.34h0l.15-.45.09-.22.11-.2.13-.19.15-.18.34-.33h0l.42-.25.22-.1.22-.08.23-.06.24-.03.49-.04h0l.71.09.34.07.32.11.3.16.29.2.55.46h0l.45.61.19.32.15.33.1.35.07.37.07.76h0l-.06.68-.06.33-.09.32-.13.3-.16.29-.39.56h0l-.5.44-.26.19-.28.16-.3.12-.31.09-.65.13-.19-1.39h-.05Z"/>
      <path class="cls-2" d="M78.69,506.8l.02,7.49h-.25s-.24-.03-.24-.03l-.24-.06-.24-.07h0l-.4-.18-.39-.21-.36-.25-.35-.27h0l-.46-.43-.44-.44-.42-.47-.4-.48h0l-.56-.67-.58-.65-.62-.61-.65-.58h0l-.39-.25-.2-.11-.2-.09-.21-.07-.22-.05-.45-.07h0l-.39.05-.19.04-.18.06-.17.09-.16.11-.31.25h0l-.25.35-.11.18-.08.19-.06.2-.04.21-.04.43h0l.04.45.04.22.06.21.09.2.11.19.27.36h0l.37.27.19.11.2.09.21.06.22.04.46.04-.15,1.43h0l-.69-.11-.33-.08-.32-.12-.3-.16-.28-.19-.53-.44h0l-.38-.59-.16-.3-.12-.32-.08-.33-.05-.34-.05-.7h0l.05-.71.06-.34.09-.33.13-.32.17-.3.4-.58h0l.49-.4.26-.17.27-.14.29-.1.3-.06.63-.07h0l.34.02.34.05.33.09.32.12h0l.37.19.36.21.33.25.32.27h0l.52.51.51.53.96,1.11h0l.7.82.73.79h0l.36.31.39.27v-5.56s1.33,0,1.33,0l.07-.06Z"/>
      <path class="cls-2" d="M186.01,550.53l.02,7.49h-.25s-.24-.03-.24-.03l-.24-.06-.24-.07h0l-.4-.18-.39-.21-.36-.25-.35-.27h0l-.46-.43-.44-.44-.42-.47-.4-.48h0l-.56-.67-.58-.65-.62-.61-.65-.58h0l-.39-.25-.2-.11-.2-.09-.21-.07-.22-.05-.45-.07h0l-.39.05-.19.04-.18.06-.17.09-.16.11-.31.25h0l-.25.35-.11.18-.08.19-.06.2-.04.21-.04.43h0l.04.45.04.22.06.21.09.2.11.19.27.36h0l.37.27.19.11.2.09.21.06.22.04.46.04-.15,1.43h0l-.69-.11-.33-.08-.32-.12-.3-.16-.28-.19-.53-.44h0l-.38-.59-.16-.3-.12-.32-.08-.33-.05-.34-.05-.7h0l.05-.71.06-.34.09-.33.13-.32.17-.3.4-.58h0l.49-.4.26-.17.27-.14.29-.1.3-.06.63-.07h0l.34.02.34.05.33.09.32.12h0l.37.19.36.21.33.25.32.27h0l.52.51.51.53.96,1.11h0l.7.82.73.79h0l.36.31.39.27v-5.56s1.33,0,1.33,0l.07-.06Z"/>
      <path class="cls-2" d="M197.01,620.34v4.92s-1.27,0-1.27,0l-7.36-5.15v-1.14s7.35-.02,7.35-.02v-1.53s1.28,0,1.28,0v1.53s2.71,0,2.71,0v1.39s-2.71,0-2.71,0ZM190.62,620.36l5.12,3.54v-3.55s-5.12.01-5.12.01Z"/>
    </g>
    <g>
      <path class="cls-2" d="M354.41,643.86l.03,11.24h-.37s-.37-.05-.37-.05l-.36-.08-.35-.11h0l-.61-.28-.58-.31-.55-.38-.53-.41h0l-.69-.64-.66-.67-.62-.7-.6-.72h0l-.83-1-.43-.49-.44-.48-.46-.46-.47-.45-.98-.86h0l-.58-.38-.3-.17-.31-.14-.32-.11-.33-.08-.68-.1h0l-.59.07-.28.06-.27.09-.25.13-.24.16-.46.38h0l-.37.52-.16.27-.12.28-.09.3-.05.31-.06.64h0l.06.67.06.32.09.31.13.29.17.28.4.54h0l.56.41.29.17.31.13.32.09.34.06.69.06-.21,2.15h0l-.52-.08-.51-.09-.5-.13-.47-.17-.23-.11-.22-.12-.42-.29-.4-.32-.39-.34h0l-.29-.44-.27-.44-.24-.46-.18-.47-.12-.49-.08-.51-.07-1.05h0l.03-.53.05-.53.08-.52.13-.5.09-.24.11-.23.26-.45.29-.44.31-.43h0l.36-.31.37-.29.39-.26.41-.21.43-.15.46-.1.47-.06.48-.05h0l.52.03.51.07.5.14.49.17h0l.56.29.54.32.5.37.48.4h0l.79.77.76.79.73.82.71.84h0l1.04,1.23.54.6.55.59h0l.54.47.59.41-.02-8.34h2.01s-.01-.02-.01-.02Z"/>
      <path class="cls-2" d="M357.52,610.8l.02,7.49h-.25s-.24-.03-.24-.03l-.24-.06-.24-.07h0l-.4-.18-.39-.21-.36-.25-.35-.27h0l-.46-.43-.44-.44-.42-.47-.4-.48h0l-.56-.67-.58-.65-.62-.61-.65-.58h0l-.39-.25-.2-.11-.2-.09-.21-.07-.22-.05-.45-.07h0l-.39.05-.19.04-.18.06-.17.09-.16.11-.31.25h0l-.25.35-.11.18-.08.19-.06.2-.04.21-.04.43h0l.04.45.04.22.06.21.09.2.11.19.27.36h0l.37.27.19.11.2.09.21.06.22.04.46.04-.15,1.43h0l-.69-.11-.33-.08-.32-.12-.3-.16-.28-.19-.53-.44h0l-.38-.59-.16-.3-.12-.32-.08-.33-.05-.34-.05-.7h0l.05-.71.06-.34.09-.33.13-.32.17-.3.4-.58h0l.49-.4.26-.17.27-.14.29-.1.3-.06.63-.07h0l.34.02.34.05.33.09.32.12h0l.37.19.36.21.33.25.32.27h0l.52.51.51.53.96,1.11h0l.7.82.73.79h0l.36.31.39.27v-5.56s1.33,0,1.33,0l.07-.06Z"/>
      <path class="cls-2" d="M302.19,562.19l.02,7.49h-.25s-.24-.03-.24-.03l-.24-.06-.24-.07h0l-.4-.18-.39-.21-.36-.25-.35-.27h0l-.46-.43-.44-.44-.42-.47-.4-.48h0l-.56-.67-.58-.65-.62-.61-.65-.58h0l-.39-.25-.2-.11-.2-.09-.21-.07-.22-.05-.45-.07h0l-.39.05-.19.04-.18.06-.17.09-.16.11-.31.25h0l-.25.35-.11.18-.08.19-.06.2-.04.21-.04.43h0l.04.45.04.22.06.21.09.2.11.19.27.36h0l.37.27.19.11.2.09.21.06.22.04.46.04-.15,1.43h0l-.69-.11-.33-.08-.32-.12-.3-.16-.28-.19-.53-.44h0l-.38-.59-.16-.3-.12-.32-.08-.33-.05-.34-.05-.7h0l.05-.71.06-.34.09-.33.13-.32.17-.3.4-.58h0l.49-.4.26-.17.27-.14.29-.1.3-.06.63-.07h0l.34.02.34.05.33.09.32.12h0l.37.19.36.21.33.25.32.27h0l.52.51.51.53.96,1.11h0l.7.82.73.79h0l.36.31.39.27v-5.56s1.33,0,1.33,0l.07-.06Z"/>
      <path class="cls-2" d="M298.78,628.54h0l.45-.1.22-.06.21-.08.2-.1.19-.13.35-.29h0l.23-.32.1-.17.08-.17.06-.18.04-.19.04-.39h0l-.06-.48-.05-.23-.08-.22-.11-.21-.14-.19-.32-.37h0l-.45-.31-.24-.13-.25-.1-.26-.07-.27-.04-.55-.04h0l-.52.04-.25.04-.24.07-.23.1-.22.13-.42.3h0l-.3.39-.13.2-.1.21-.07.23-.04.24-.05.49h0l.02.32.05.31.1.3.13.29h0l.16.25.18.23.21.2.23.18-.17,1.31-5.82-1.09v-5.64s1.32,0,1.32,0v4.52s3.06.6,3.06.6h0l-.29-.5-.13-.26-.1-.26-.08-.27-.05-.28-.06-.57h0l.08-.7.07-.34.11-.32.15-.3.19-.29.44-.55h0l.59-.44.31-.19.32-.15.34-.1.35-.07.73-.07h0l.72.07.35.06.34.09.33.13.31.16.61.39h0l.3.31.29.32.25.33.2.36.14.39.09.41.06.43.04.43h0l-.06.69-.05.33-.09.32-.13.31-.16.3-.38.57h0l-.5.44-.26.19-.28.16-.3.12-.31.09-.65.13-.12-1.46v-.06Z"/>
      <path class="cls-2" d="M315.17,501.04h0l.45-.1.22-.06.21-.08.2-.1.19-.13.35-.29h0l.23-.32.1-.17.08-.17.06-.18.04-.19.04-.39h0l-.06-.48-.05-.23-.08-.22-.11-.21-.14-.19-.32-.37h0l-.45-.31-.24-.13-.25-.1-.26-.07-.27-.04-.55-.04h0l-.52.04-.25.04-.24.07-.23.1-.22.13-.42.3h0l-.3.39-.13.2-.1.21-.07.23-.04.24-.05.49h0l.02.32.05.31.1.3.13.29h0l.16.25.18.23.21.2.23.18-.17,1.31-5.82-1.09v-5.64s1.32,0,1.32,0v4.52s3.06.6,3.06.6h0l-.29-.5-.13-.26-.1-.26-.08-.27-.05-.28-.06-.57h0l.08-.7.07-.34.11-.32.15-.3.19-.29.44-.55h0l.59-.44.31-.19.32-.15.34-.1.35-.07.73-.07h0l.72.07.35.06.34.09.33.13.31.16.61.39h0l.3.31.29.32.25.33.2.36.14.39.09.41.06.43.04.43h0l-.06.69-.05.33-.09.32-.13.31-.16.3-.38.57h0l-.5.44-.26.19-.28.16-.3.12-.31.09-.65.13-.12-1.46v-.06Z"/>
      <path class="cls-2" d="M411.62,619.66h0l.47-.12.23-.07.22-.09.21-.11.2-.13.38-.3h0l.22-.32.1-.16.08-.17.05-.18.03-.19.04-.39h0l-.05-.46-.05-.22-.07-.21-.1-.2-.12-.19-.29-.37h0l-.37-.29-.19-.12-.2-.1-.22-.07-.23-.05-.47-.05h0l-.44.04-.21.04-.2.06-.19.09-.18.12-.35.27h0l-.27.35-.11.18-.09.19-.06.21-.04.21-.04.44h0l.05.5.11.49-1.22-.15h0l.02-.22h0l-.03-.42-.03-.21-.05-.2-.07-.2-.08-.19-.2-.38h0l-.29-.31-.16-.13-.17-.1-.19-.07-.2-.05-.42-.05h0l-.35.04-.17.03-.16.05-.15.08-.15.1-.28.22h0l-.22.3-.09.16-.07.16-.05.17-.03.18-.03.37h0l.04.37.03.18.05.17.07.16.09.16.22.3h0l.34.26.18.12.19.1.2.07.21.06.42.09-.25,1.39h0l-.61-.16-.29-.1-.28-.13-.26-.16-.25-.19-.47-.42h0l-.34-.51-.14-.27-.11-.28-.08-.29-.05-.3-.05-.61h0l.03-.44.07-.43.13-.42.17-.41h0l.21-.35.24-.32.3-.27.33-.24h0l.35-.17.36-.14.37-.07.39-.03h0l.35.03.34.07.33.13.31.17h0l.3.24.27.27.21.31.18.34h0l.15-.45.09-.22.11-.2.13-.19.15-.18.34-.33h0l.42-.25.22-.1.22-.08.23-.06.24-.03.49-.04h0l.71.09.34.07.32.11.3.16.29.2.55.46h0l.45.61.19.32.15.33.1.35.07.37.07.76h0l-.06.68-.06.33-.09.32-.13.3-.16.29-.39.56h0l-.5.44-.26.19-.28.16-.3.12-.31.09-.65.13-.19-1.39h-.06Z"/>
    </g>
    <g>
      <path class="cls-2" d="M562.79,652.87h0l.71-.17.34-.11.33-.13.31-.17.3-.2.57-.45h0l.33-.47.14-.25.11-.26.08-.27.05-.28.06-.58h0l-.08-.7-.07-.34-.11-.32-.15-.3-.19-.29-.43-.55h0l-.56-.43-.29-.19-.31-.15-.33-.1-.34-.07-.7-.07h0l-.66.07-.32.06-.31.1-.29.14-.27.17-.52.41h0l-.4.53-.17.28-.14.29-.09.31-.06.32-.06.66h0l.03.37.05.37.16.73-1.83-.23h0l.02-.34h0l-.05-.64-.05-.31-.07-.3-.1-.3-.13-.29-.3-.56h0l-.44-.47-.24-.2-.26-.16-.28-.11-.3-.07-.64-.07h0l-.53.06-.26.05-.24.08-.23.11-.22.14-.42.33h0l-.33.45-.14.23-.11.24-.08.26-.05.27-.05.55h0l.06.56.05.27.08.26.11.25.14.24.33.45h0l.51.4.27.17.28.14.3.11.31.09.64.13-.37,2.09h0l-.92-.24-.44-.15-.42-.19-.4-.24-.37-.28-.71-.63h0l-.5-.77-.21-.4-.17-.41-.12-.43-.08-.45-.08-.92h0l.04-.67.04-.33.06-.32.09-.32.11-.31.25-.62h0l.32-.53.17-.25.19-.24.21-.21.23-.2.5-.37h0l.52-.26.26-.11.27-.09.28-.07.28-.04.58-.05h0l.53.04.26.04.25.06.25.09.24.11.47.25h0l.45.36.21.2.19.21.17.23.15.24.28.51h0l.22-.68.13-.32.16-.31.2-.28.23-.26.51-.5h0l.63-.37.33-.16.34-.12.35-.08.36-.05.73-.05h0l.54.05.53.07.51.11.25.08.24.09.23.11.23.13.43.29.42.33.41.35h0l.35.45.33.46.29.48.12.25.11.25.09.26.07.27.1.55.06.56.05.57h0l-.04.51-.05.51-.08.49-.13.48-.19.45-.25.44-.28.42-.3.42h0l-.37.34-.38.32-.39.29-.42.24-.45.18-.47.14-.48.11-.49.09-.28-2.09Z"/>
      <path class="cls-2" d="M606.43,515.74h0l.45-.1.22-.06.21-.08.2-.1.19-.13.35-.29h0l.23-.32.1-.17.08-.17.05-.18.04-.19.04-.39h0l-.06-.48-.05-.23-.08-.22-.11-.21-.14-.19-.32-.37h0l-.46-.31-.24-.13-.25-.1-.26-.07-.27-.04-.55-.04h0l-.52.04-.25.04-.24.07-.23.1-.22.13-.42.3h0l-.3.39-.13.2-.1.21-.07.23-.04.24-.05.49h0l.02.32.05.31.1.3.13.29h0l.16.25.18.23.22.2.24.18-.17,1.31-5.83-1.08v-5.64s1.32,0,1.32,0v4.52s3.06.6,3.06.6h0l-.29-.5-.13-.25-.1-.26-.08-.27-.05-.28-.06-.57h0l.08-.7.07-.34.11-.32.15-.3.19-.29.44-.55h0l.59-.44.31-.19.32-.15.34-.1.35-.07.73-.07h0l.72.06.35.06.34.09.33.13.32.16.61.38h0l.31.31.29.32.25.33.2.36.14.39.09.41.06.43.04.43h0l-.05.69-.05.33-.09.32-.13.31-.16.3-.38.57h0l-.5.44-.26.19-.28.16-.3.12-.31.09-.65.13-.13-1.46Z"/>
      <path class="cls-2" d="M504.06,554.26l.02,7.49h-.25s-.24-.03-.24-.03l-.24-.06-.24-.07h0l-.41-.18-.39-.21-.36-.25-.35-.27h0l-.46-.43-.44-.44-.42-.47-.4-.48h0l-.56-.67-.58-.65-.62-.6-.65-.57h0l-.39-.25-.2-.11-.2-.09-.21-.07-.22-.05-.45-.07h0l-.39.05-.19.04-.18.06-.17.09-.16.11-.3.25h0l-.25.35-.11.18-.08.19-.06.2-.04.21-.04.43h0l.04.45.04.22.06.21.09.2.11.19.27.36h0l.37.27.19.11.2.09.22.06.22.04.46.04-.14,1.43h0l-.69-.11-.33-.08-.32-.11-.3-.16-.28-.19-.53-.44h0l-.38-.59-.16-.3-.12-.32-.08-.33-.05-.34-.05-.7h0l.05-.71.05-.34.09-.33.13-.32.17-.3.4-.58h0l.49-.4.26-.17.27-.14.29-.1.3-.07.63-.07h0l.34.02.34.05.33.09.33.12h0l.37.19.36.21.33.25.32.27h0l.53.51.51.53.97,1.1h0l.7.82.73.79h0l.36.31.39.27v-5.56s1.32,0,1.32,0Z"/>
      <path class="cls-2" d="M509.31,618.95h0l.45-.1.22-.06.21-.08.2-.1.19-.13.35-.29h0l.23-.32.1-.17.08-.17.05-.18.04-.19.04-.39h0l-.06-.48-.05-.23-.08-.22-.11-.21-.14-.19-.32-.37h0l-.46-.31-.24-.13-.25-.1-.26-.07-.27-.04-.55-.04h0l-.52.04-.25.04-.24.07-.23.1-.22.13-.42.3h0l-.3.39-.13.2-.1.21-.07.23-.04.24-.05.49h0l.02.32.05.31.1.3.13.29h0l.16.25.18.23.22.2.24.18-.17,1.31-5.83-1.08v-5.64s1.32,0,1.32,0v4.52s3.06.6,3.06.6h0l-.29-.5-.13-.25-.1-.26-.08-.27-.05-.28-.06-.57h0l.08-.7.07-.34.11-.32.15-.3.19-.29.44-.55h0l.59-.44.31-.19.32-.15.34-.1.35-.07.73-.07h0l.72.06.35.06.34.09.33.13.32.16.61.38h0l.31.31.29.32.25.33.2.36.14.39.09.41.06.43.04.43h0l-.05.69-.05.33-.09.32-.13.31-.16.3-.38.57h0l-.5.44-.26.19-.28.16-.3.12-.31.09-.65.13-.13-1.46Z"/>
      <path class="cls-2" d="M562.91,552.65h0l.45-.1.22-.06.21-.08.2-.1.19-.13.35-.29h0l.23-.32.1-.17.08-.17.05-.18.04-.19.04-.39h0l-.06-.48-.05-.23-.08-.22-.11-.21-.14-.19-.32-.37h0l-.46-.31-.24-.13-.25-.1-.26-.07-.27-.04-.55-.04h0l-.52.04-.25.04-.24.07-.23.1-.22.13-.42.3h0l-.3.39-.13.2-.1.21-.07.23-.04.24-.05.49h0l.02.32.05.31.1.3.13.29h0l.16.25.18.23.22.2.24.18-.17,1.31-5.83-1.08v-5.64s1.32,0,1.32,0v4.52s3.06.6,3.06.6h0l-.29-.5-.13-.25-.1-.26-.08-.27-.05-.28-.06-.57h0l.08-.7.07-.34.11-.32.15-.3.19-.29.44-.55h0l.59-.44.31-.19.32-.15.34-.1.35-.07.73-.07h0l.72.06.35.06.34.09.33.13.32.16.61.38h0l.31.31.29.32.25.33.2.36.14.39.09.41.06.43.04.43h0l-.05.69-.05.33-.09.32-.13.31-.16.3-.38.57h0l-.5.44-.26.19-.28.16-.3.12-.31.09-.65.13-.13-1.46Z"/>
      <path class="cls-2" d="M591.15,623.76v4.92s-1.26,0-1.26,0l-7.36-5.16v-1.14s7.34-.02,7.34-.02v-1.53s1.27,0,1.27,0v1.53s2.72,0,2.72,0v1.39s-2.71,0-2.71,0ZM584.77,623.77l5.12,3.54v-3.55s-5.12.01-5.12.01Z"/>
    </g>
    <g>
      <path class="cls-2" d="M774.76,647.51l.02,7.38h-1.91s-11.04-7.73-11.04-7.73v-1.71s11.02-.03,11.02-.03v-2.3s1.91,0,1.91,0v2.3s4.08-.01,4.08-.01v2.09s-4.07.01-4.07.01ZM765.18,647.53l7.68,5.31v-5.33s-7.68.02-7.68.02Z"/>
      <path class="cls-2" d="M832.67,564.62l.02,7.49h-.25s-.24-.03-.24-.03l-.24-.06-.24-.07h0l-.41-.18-.39-.21-.36-.25-.35-.27h0l-.46-.43-.44-.44-.42-.47-.4-.48h0l-.56-.67-.58-.65-.62-.6-.65-.57h0l-.39-.25-.2-.11-.2-.09-.21-.07-.22-.05-.45-.07h0l-.39.05-.19.04-.18.06-.17.09-.16.11-.3.25h0l-.25.35-.11.18-.08.19-.06.2-.04.21-.04.43h0l.04.45.04.22.06.21.09.2.11.19.27.36h0l.37.27.19.11.2.09.22.06.22.04.46.04-.14,1.43h0l-.69-.11-.33-.08-.32-.11-.3-.16-.28-.19-.53-.44h0l-.38-.59-.16-.3-.12-.32-.08-.33-.05-.34-.05-.7h0l.05-.71.05-.34.09-.33.13-.32.17-.3.4-.58h0l.49-.4.26-.17.27-.14.29-.1.3-.07.63-.07h0l.34.02.34.05.33.09.33.12h0l.37.19.36.21.33.25.32.27h0l.53.51.51.53.97,1.1h0l.7.82.73.79h0l.36.31.39.27v-5.56s1.32,0,1.32,0Z"/>
      <path class="cls-2" d="M771.05,569.28h0l.45-.1.22-.06.21-.08.2-.1.19-.13.35-.29h0l.23-.32.1-.17.08-.17.05-.18.04-.19.04-.39h0l-.06-.48-.05-.23-.08-.22-.11-.21-.14-.19-.32-.37h0l-.46-.31-.24-.13-.25-.1-.26-.07-.27-.04-.55-.04h0l-.52.04-.25.04-.24.07-.23.1-.22.13-.42.3h0l-.3.39-.13.2-.1.21-.07.23-.04.24-.05.49h0l.02.32.05.31.1.3.13.29h0l.16.25.18.23.22.2.24.18-.17,1.31-5.83-1.08v-5.64s1.32,0,1.32,0v4.52s3.06.6,3.06.6h0l-.29-.5-.13-.25-.1-.26-.08-.27-.05-.28-.06-.57h0l.08-.7.07-.34.11-.32.15-.3.19-.29.44-.55h0l.59-.44.31-.19.32-.15.34-.1.35-.07.73-.07h0l.72.06.35.06.34.09.33.13.32.16.61.38h0l.31.31.29.32.25.33.2.36.14.39.09.41.06.43.04.43h0l-.05.69-.05.33-.09.32-.13.31-.16.3-.38.57h0l-.5.44-.26.19-.28.16-.3.12-.31.09-.65.13-.13-1.46Z"/>
      <path class="cls-2" d="M741.28,510.49h0l.47-.12.23-.07.22-.09.21-.11.2-.13.38-.3h0l.22-.32.1-.16.08-.17.05-.18.03-.19.04-.39h0l-.05-.46-.05-.22-.07-.21-.1-.2-.12-.19-.29-.37h0l-.37-.29-.2-.12-.21-.1-.22-.07-.23-.04-.47-.05h0l-.44.05-.21.04-.2.06-.19.09-.18.12-.35.27h0l-.27.35-.11.18-.09.19-.06.21-.04.21-.04.44h0l.05.5.11.49-1.22-.15h0v-.22h.01l-.04-.42-.03-.21-.05-.2-.07-.2-.09-.19-.2-.38h0l-.29-.31-.16-.13-.17-.1-.19-.07-.2-.04-.42-.05h0l-.35.04-.17.03-.16.05-.15.08-.15.1-.28.22h0l-.22.3-.09.16-.07.16-.05.17-.03.18-.03.37h0l.04.37.03.18.05.17.08.16.09.16.22.3h0l.34.26.18.12.19.1.2.07.21.06.42.09-.24,1.39h0l-.61-.16-.3-.1-.28-.13-.26-.16-.25-.19-.47-.42h0l-.34-.51-.14-.26-.11-.28-.08-.29-.05-.3-.05-.61h0l.03-.44.07-.44.13-.42.17-.41h0l.21-.35.24-.32.3-.28.33-.25h0l.35-.17.36-.14.37-.07.39-.03h0l.35.03.34.07.33.13.31.17h0l.3.24.27.27.21.31.18.34h0l.14-.45.09-.22.11-.2.13-.19.15-.18.34-.33h0l.42-.25.22-.1.22-.08.23-.06.24-.04.49-.04h0l.71.08.34.07.32.11.31.16.29.2.55.45h0l.45.61.19.32.15.33.11.35.07.37.07.76h0l-.06.68-.06.33-.09.32-.13.3-.16.29-.39.56h0l-.5.44-.26.19-.28.16-.3.12-.31.09-.65.13-.19-1.39Z"/>
      <path class="cls-2" d="M828.89,507.79v4.92s-1.26,0-1.26,0l-7.36-5.16v-1.14s7.34-.02,7.34-.02v-1.53s1.27,0,1.27,0v1.53s2.72,0,2.72,0v1.39s-2.71,0-2.71,0ZM822.5,507.81l5.12,3.54v-3.55s-5.12.01-5.12.01Z"/>
      <path class="cls-2" d="M713.79,619.27h0l.45-.1.22-.06.21-.08.2-.1.19-.13.35-.29h0l.23-.32.1-.17.08-.17.05-.18.04-.19.04-.39h0l-.06-.48-.05-.23-.08-.22-.11-.21-.14-.19-.32-.37h0l-.46-.31-.24-.13-.25-.1-.26-.07-.27-.04-.55-.04h0l-.52.04-.25.04-.24.07-.23.1-.22.13-.42.3h0l-.3.39-.13.2-.1.21-.07.23-.04.24-.05.49h0l.02.32.05.31.1.3.13.29h0l.16.25.18.23.22.2.24.18-.17,1.31-5.83-1.08v-5.64s1.32,0,1.32,0v4.52s3.06.6,3.06.6h0l-.29-.5-.13-.25-.1-.26-.08-.27-.05-.28-.06-.57h0l.08-.7.07-.34.11-.32.15-.3.19-.29.44-.55h0l.59-.44.31-.19.32-.15.34-.1.35-.07.73-.07h0l.72.06.35.06.34.09.33.13.32.16.61.38h0l.31.31.29.32.25.33.2.36.14.39.09.41.06.43.04.43h0l-.05.69-.05.33-.09.32-.13.31-.16.3-.38.57h0l-.5.44-.26.19-.28.16-.3.12-.31.09-.65.13-.13-1.46Z"/>
    </g>
    <g>
      <path class="cls-2" d="M138.4,434.58h0l.67-.15.32-.1.31-.12.29-.16.28-.19.53-.43h0l.34-.48.15-.25.12-.26.08-.27.05-.29.06-.59h0l-.1-.72-.08-.35-.12-.33-.17-.31-.21-.29-.48-.55h0l-.68-.46-.35-.19-.37-.15-.39-.1-.4-.06-.82-.06h0l-.77.07-.38.06-.36.1-.34.15-.33.19-.63.45h0l-.45.58-.19.3-.15.32-.1.34-.06.35-.07.73h0l.04.48.08.46.07.22.09.22.2.43h0l.25.37.27.34.32.29.35.27-.24,1.96-8.75-1.59-.05-8.46h2s.04,6.77.04,6.77l4.58.89h0l-.44-.74-.19-.38-.16-.39-.12-.41-.08-.42-.1-.86h0l.05-.53.06-.52.1-.51.07-.25.09-.24.1-.23.12-.23.28-.44.32-.42.33-.41h0l.43-.34.44-.33.46-.29.24-.12.24-.11.25-.09.26-.07.53-.1.55-.07.55-.05h0l1.08.09.53.09.51.13.49.19.47.24.46.28.46.29h0l.46.46.43.47.2.25.18.25.16.26.14.27.12.28.1.29.08.3.06.31.09.64.07.65h0l-.08,1.03-.08.5-.13.49-.19.46-.24.45-.27.43-.29.43h0l-.37.34-.38.32-.39.29-.42.24-.44.18-.47.14-.48.11-.49.09-.2-2.19Z"/>
      <path class="cls-2" d="M195.33,336.74l.03,4.92h-1.28s-7.38-5.12-7.38-5.12v-1.14s7.34-.05,7.34-.05v-1.53s1.27,0,1.27,0v1.53s2.72-.02,2.72-.02v1.39s-2.71.02-2.71.02ZM188.94,336.78l5.13,3.52-.02-3.55-5.11.03Z"/>
      <path class="cls-2" d="M139.22,344.97l.05,7.49h-.25s-.24-.03-.24-.03l-.24-.05-.24-.07h0l-.41-.18-.39-.21-.37-.25-.35-.27h0l-.46-.43-.44-.44-.42-.47-.41-.48h0l-.56-.67-.58-.64-.62-.6-.65-.57h0l-.39-.25-.2-.11-.2-.09-.21-.07-.22-.05-.45-.06h0l-.39.05-.19.04-.18.06-.17.09-.16.11-.3.25h0l-.25.35-.1.18-.08.19-.06.2-.03.21-.03.43h0l.04.45.04.22.06.21.09.2.11.19.27.36h0l.37.27.2.11.2.09.22.06.22.04.46.04-.14,1.43h0l-.69-.11-.33-.08-.32-.11-.3-.15-.28-.19-.53-.44h0l-.38-.59-.16-.3-.12-.32-.08-.33-.05-.34-.05-.7h0l.05-.71.05-.34.09-.33.13-.32.17-.3.4-.58h0l.49-.41.26-.17.27-.14.29-.1.3-.07.63-.08h0l.34.02.34.05.33.09.33.11h0l.37.19.36.21.34.25.32.27h0l.53.51.51.52.97,1.1h0l.7.82.74.78h0l.36.31.39.27-.03-5.56h1.34Z"/>
      <path class="cls-2" d="M177.04,388.26l.05,7.49h-.25s-.24-.03-.24-.03l-.24-.05-.24-.07h0l-.41-.18-.39-.21-.37-.25-.35-.27h0l-.46-.43-.44-.44-.42-.47-.41-.48h0l-.56-.67-.58-.64-.62-.6-.65-.57h0l-.39-.25-.2-.11-.2-.09-.21-.07-.22-.05-.45-.06h0l-.39.05-.19.04-.18.06-.17.09-.16.11-.3.25h0l-.25.35-.1.18-.08.19-.06.2-.03.21-.03.43h0l.04.45.04.22.06.21.09.2.11.19.27.36h0l.37.27.2.11.2.09.22.06.22.04.46.04-.14,1.43h0l-.69-.11-.33-.08-.32-.11-.3-.15-.28-.19-.53-.44h0l-.38-.59-.16-.3-.12-.32-.08-.33-.05-.34-.05-.7h0l.05-.71.05-.34.09-.33.13-.32.17-.3.4-.58h0l.49-.41.26-.17.27-.14.29-.1.3-.07.63-.08h0l.34.02.34.05.33.09.33.11h0l.37.19.36.21.34.25.32.27h0l.53.51.51.52.97,1.1h0l.7.82.74.78h0l.36.31.39.27-.03-5.56h1.34Z"/>
      <path class="cls-2" d="M86.56,400.83h0l.45-.1.22-.06.21-.08.2-.11.18-.13.35-.29h0l.23-.32.1-.17.08-.17.05-.18.03-.19.04-.39h0l-.06-.48-.05-.23-.08-.22-.11-.2-.14-.19-.32-.37h0l-.46-.31-.24-.13-.25-.1-.26-.07-.27-.04-.55-.04h0l-.52.04-.25.04-.24.07-.23.1-.22.13-.42.3h0l-.3.39-.13.2-.1.21-.07.23-.04.24-.04.49h0l.02.32.05.31.1.3.13.29h0l.16.25.18.23.22.2.24.18-.16,1.31-5.83-1.06-.04-5.64h1.33s.03,4.52.03,4.52l3.05.59h0l-.3-.5-.13-.25-.11-.26-.08-.27-.05-.28-.07-.57h0l.07-.7.07-.34.1-.32.15-.31.19-.29.43-.56h0l.58-.45.31-.19.32-.15.34-.11.35-.07.73-.08h0l.72.06.35.06.34.09.33.13.32.16.61.38h0l.31.31.29.32.26.33.2.36.14.39.09.41.06.43.04.43h0l-.05.69-.05.34-.08.32-.12.31-.16.3-.38.58h0l-.49.44-.26.19-.28.16-.3.12-.31.09-.65.13-.13-1.46Z"/>
      <path class="cls-2" d="M101.85,292.32l.05,7.49h-.25s-.24-.03-.24-.03l-.24-.05-.24-.07h0l-.41-.18-.39-.21-.37-.25-.35-.27h0l-.46-.43-.44-.44-.42-.47-.41-.48h0l-.56-.67-.58-.64-.62-.6-.65-.57h0l-.39-.25-.2-.11-.2-.09-.21-.07-.22-.05-.45-.06h0l-.39.05-.19.04-.18.06-.17.09-.16.11-.3.25h0l-.25.35-.1.18-.08.19-.06.2-.03.21-.03.43h0l.04.45.04.22.06.21.09.2.11.19.27.36h0l.37.27.2.11.2.09.22.06.22.04.46.04-.14,1.43h0l-.69-.11-.33-.08-.32-.11-.3-.15-.28-.19-.53-.44h0l-.38-.59-.16-.3-.12-.32-.08-.33-.05-.34-.05-.7h0l.05-.71.05-.34.09-.33.13-.32.17-.3.4-.58h0l.49-.41.26-.17.27-.14.29-.1.3-.07.63-.08h0l.34.02.34.05.33.09.33.11h0l.37.19.36.21.34.25.32.27h0l.53.51.51.52.97,1.1h0l.7.82.74.78h0l.36.31.39.27-.03-5.56h1.34Z"/>
    </g>
    <g>
      <path class="cls-2" d="M340.85,429.53h0l-.48.12-.46.16-.22.11-.21.12-.41.28h0l-.38.46-.16.24-.13.25-.09.27-.06.28-.07.59h0l.04.47.04.23.06.22.08.21.1.21.24.41h0l.45.49.24.23.25.2.27.18.29.16.6.29h0l.96.27.49.11.49.08.49.05.5.03,1,.03h0l-.51-.38-.24-.2-.22-.22-.2-.24-.19-.26-.34-.54h0l-.23-.55-.1-.28-.08-.28-.06-.29-.04-.29-.05-.59h0l.05-.5.07-.5.1-.48.07-.23.09-.23.22-.43.28-.41.31-.39.33-.39h0l.44-.33.45-.31.46-.27.24-.12.25-.1.51-.15.53-.09.54-.06.55-.04h0l.77.05.38.05.38.07.37.1.36.13.72.29h0l.62.37.29.2.28.22.25.25.23.27.43.58h0l.32.65.14.33.11.34.08.35.05.35.05.72h0l-.06.61-.08.6-.13.58-.09.28-.11.27-.13.26-.15.25-.35.48-.4.46-.42.45h0l-.73.42-.74.39-.38.17-.38.15-.39.13-.39.11-.4.09-.41.07-.83.08-.84.04-.85.02h0l-.95-.02-.95-.04-.93-.09-.46-.07-.45-.09-.45-.12-.44-.14-.43-.17-.43-.19-.84-.42-.83-.45h0l-.43-.45-.41-.46-.36-.48-.15-.25-.13-.26-.11-.27-.09-.28-.13-.59-.08-.61-.06-.62h0l.07-.9.07-.44.11-.42.16-.4.21-.39.49-.75h0l.67-.59.35-.26.38-.22.4-.17.42-.13.88-.19.17,2.08ZM350.1,435.5h0l.44-.25.21-.14.2-.15.18-.17.17-.19.31-.4h0l.21-.41.09-.21.08-.21.05-.22.04-.22.04-.46h0l-.09-.65-.08-.31-.11-.29-.16-.27-.19-.26-.44-.49h0l-.66-.43-.34-.18-.36-.14-.37-.09-.38-.06-.79-.05h0l-.76.06-.37.06-.36.09-.34.14-.33.18-.63.42h0l-.43.52-.18.27-.15.29-.1.31-.07.32-.07.67h0l.08.67.07.32.11.31.15.29.19.28.43.53h0l.6.43.31.18.33.14.34.1.36.06.73.06h0l.53-.04.52-.08.51-.15.5-.19Z"/>
      <path class="cls-2" d="M281.04,384.76h0l.45-.1.22-.06.21-.08.2-.1.19-.13.35-.29h0l.23-.32.1-.17.08-.17.05-.18.04-.19.04-.39h0l-.06-.48-.05-.23-.08-.22-.11-.21-.14-.19-.32-.37h0l-.46-.31-.24-.13-.25-.1-.26-.07-.27-.04-.55-.04h0l-.52.04-.25.04-.24.07-.23.1-.22.13-.42.3h0l-.3.39-.13.2-.1.21-.07.23-.04.24-.05.49h0l.02.32.05.31.1.3.13.29h0l.16.25.18.23.22.2.24.18-.17,1.31-5.83-1.08v-5.64s1.32,0,1.32,0v4.52s3.06.6,3.06.6h0l-.29-.5-.13-.25-.1-.26-.08-.27-.05-.28-.06-.57h0l.08-.7.07-.34.11-.32.15-.3.19-.29.44-.55h0l.59-.44.31-.19.32-.15.34-.1.35-.07.73-.07h0l.72.06.35.06.34.09.33.13.32.16.61.38h0l.31.31.29.32.25.33.2.36.14.39.09.41.06.43.04.43h0l-.05.69-.05.33-.09.32-.13.31-.16.3-.38.57h0l-.5.44-.26.19-.28.16-.3.12-.31.09-.65.13-.13-1.46Z"/>
      <path class="cls-2" d="M327.51,294.35h0l.47-.12.23-.07.22-.09.21-.11.2-.13.38-.3h0l.22-.32.1-.16.08-.17.05-.18.03-.19.04-.39h0l-.05-.46-.05-.22-.07-.21-.1-.2-.12-.19-.29-.37h0l-.37-.29-.2-.12-.21-.1-.22-.07-.23-.04-.47-.05h0l-.44.05-.21.04-.2.06-.19.09-.18.12-.35.27h0l-.27.35-.11.18-.09.19-.06.21-.04.21-.04.44h0l.05.5.11.49-1.22-.15h0v-.22h.01l-.04-.42-.03-.21-.05-.2-.07-.2-.09-.19-.2-.38h0l-.29-.31-.16-.13-.17-.1-.19-.07-.2-.04-.42-.05h0l-.35.04-.17.03-.16.05-.15.08-.15.1-.28.22h0l-.22.3-.09.16-.07.16-.05.17-.03.18-.03.37h0l.04.37.03.18.05.17.08.16.09.16.22.3h0l.34.26.18.12.19.1.2.07.21.06.42.09-.24,1.39h0l-.61-.16-.3-.1-.28-.13-.26-.16-.25-.19-.47-.42h0l-.34-.51-.14-.26-.11-.28-.08-.29-.05-.3-.05-.61h0l.03-.44.07-.44.13-.42.17-.41h0l.21-.35.24-.32.3-.28.33-.25h0l.35-.17.36-.14.37-.07.39-.03h0l.35.03.34.07.33.13.31.17h0l.3.24.27.27.21.31.18.34h0l.14-.45.09-.22.11-.2.13-.19.15-.18.34-.33h0l.42-.25.22-.1.22-.08.23-.06.24-.04.49-.04h0l.71.08.34.07.32.11.31.16.29.2.55.45h0l.45.61.19.32.15.33.11.35.07.37.07.76h0l-.06.68-.06.33-.09.32-.13.3-.16.29-.39.56h0l-.5.44-.26.19-.28.16-.3.12-.31.09-.65.13-.19-1.39Z"/>
      <path class="cls-2" d="M392.03,328.52h0l.45-.1.22-.06.21-.08.2-.1.19-.13.35-.29h0l.23-.32.1-.17.08-.17.05-.18.04-.19.04-.39h0l-.06-.48-.05-.23-.08-.22-.11-.21-.14-.19-.32-.37h0l-.46-.31-.24-.13-.25-.1-.26-.07-.27-.04-.55-.04h0l-.52.04-.25.04-.24.07-.23.1-.22.13-.42.3h0l-.3.39-.13.2-.1.21-.07.23-.04.24-.05.49h0l.02.32.05.31.1.3.13.29h0l.16.25.18.23.22.2.24.18-.17,1.31-5.83-1.08v-5.64s1.32,0,1.32,0v4.52s3.06.6,3.06.6h0l-.29-.5-.13-.25-.1-.26-.08-.27-.05-.28-.06-.57h0l.08-.7.07-.34.11-.32.15-.3.19-.29.44-.55h0l.59-.44.31-.19.32-.15.34-.1.35-.07.73-.07h0l.72.06.35.06.34.09.33.13.32.16.61.38h0l.31.31.29.32.25.33.2.36.14.39.09.41.06.43.04.43h0l-.05.69-.05.33-.09.32-.13.31-.16.3-.38.57h0l-.5.44-.26.19-.28.16-.3.12-.31.09-.65.13-.13-1.46Z"/>
      <path class="cls-2" d="M340.8,349.78l.02,7.49h-.25s-.24-.03-.24-.03l-.24-.06-.24-.07h0l-.41-.18-.39-.21-.37-.25-.35-.27h0l-.46-.43-.44-.44-.42-.47-.4-.48h0l-.56-.67-.58-.65-.62-.6-.65-.57h0l-.39-.25-.2-.11-.2-.09-.21-.07-.22-.05-.45-.07h0l-.39.05-.19.04-.18.06-.17.09-.16.11-.3.25h0l-.25.35-.11.18-.08.19-.06.2-.04.21-.04.43h0l.04.45.04.22.06.21.09.2.11.19.27.36h0l.37.27.19.11.2.09.22.06.22.04.46.04-.14,1.43h0l-.69-.11-.33-.08-.32-.11-.3-.16-.28-.19-.53-.44h0l-.38-.59-.16-.3-.12-.32-.08-.33-.05-.34-.05-.7h0l.05-.71.05-.34.09-.33.13-.32.17-.3.4-.58h0l.49-.4.26-.17.27-.14.29-.1.3-.07.63-.07h0l.34.02.34.05.33.09.33.12h0l.37.19.36.21.33.25.32.27h0l.53.51.51.53.97,1.1h0l.7.82.73.79h0l.36.31.39.27v-5.56s1.32,0,1.32,0Z"/>
      <path class="cls-2" d="M377.3,408.79h0l.47-.12.23-.07.22-.09.21-.11.2-.13.38-.3h0l.22-.32.1-.16.08-.17.05-.18.03-.19.04-.39h0l-.05-.46-.05-.22-.07-.21-.1-.2-.12-.19-.29-.37h0l-.37-.29-.2-.12-.21-.1-.22-.07-.23-.04-.47-.05h0l-.44.05-.21.04-.2.06-.19.09-.18.12-.35.27h0l-.27.35-.11.18-.09.19-.06.21-.04.21-.04.44h0l.05.5.11.49-1.22-.15h0v-.22h.01l-.04-.42-.03-.21-.05-.2-.07-.2-.09-.19-.2-.38h0l-.29-.31-.16-.13-.17-.1-.19-.07-.2-.04-.42-.05h0l-.35.04-.17.03-.16.05-.15.08-.15.1-.28.22h0l-.22.3-.09.16-.07.16-.05.17-.03.18-.03.37h0l.04.37.03.18.05.17.08.16.09.16.22.3h0l.34.26.18.12.19.1.2.07.21.06.42.09-.24,1.39h0l-.61-.16-.3-.1-.28-.13-.26-.16-.25-.19-.47-.42h0l-.34-.51-.14-.26-.11-.28-.08-.29-.05-.3-.05-.61h0l.03-.44.07-.44.13-.42.17-.41h0l.21-.35.24-.32.3-.28.33-.25h0l.35-.17.36-.14.37-.07.39-.03h0l.35.03.34.07.33.13.31.17h0l.3.24.27.27.21.31.18.34h0l.14-.45.09-.22.11-.2.13-.19.15-.18.34-.33h0l.42-.25.22-.1.22-.08.23-.06.24-.04.49-.04h0l.71.08.34.07.32.11.31.16.29.2.55.45h0l.45.61.19.32.15.33.11.35.07.37.07.76h0l-.06.68-.06.33-.09.32-.13.3-.16.29-.39.56h0l-.5.44-.26.19-.28.16-.3.12-.31.09-.65.13-.19-1.39Z"/>
    </g>
    <g>
      <path class="cls-2" d="M548.06,438.04l-.03-11.01h1.62s1.08.9,1.08.9l.55.43.57.41.58.39.6.37,1.22.71h0l1.43.73.72.34.73.32.74.29.75.27,1.52.5h0l1.15.29.58.13.58.11.59.09.59.07,1.18.11v2.15h0l-1.23-.09-.61-.07-.61-.09-.6-.11-.6-.13-1.2-.29h0l-1.41-.43-.7-.23-.69-.26-.68-.28-.67-.3-1.33-.65h0l-1.17-.66-.58-.34-.57-.36-.55-.38-.54-.4-1.05-.84.02,8.33h-2.01Z"/>
      <path class="cls-2" d="M619.51,290.61l.02,7.49h-.25s-.24-.03-.24-.03l-.24-.06-.24-.07h0l-.41-.18-.39-.21-.36-.25-.35-.27h0l-.46-.43-.44-.44-.42-.47-.4-.48h0l-.56-.67-.58-.65-.62-.6-.65-.57h0l-.39-.25-.2-.11-.2-.09-.21-.07-.22-.05-.45-.07h0l-.39.05-.19.04-.18.06-.17.09-.16.11-.3.25h0l-.25.35-.11.18-.08.19-.06.2-.04.21-.04.43h0l.04.45.04.22.06.21.09.2.11.19.27.36h0l.37.27.19.11.2.09.22.06.22.04.46.04-.14,1.43h0l-.69-.11-.33-.08-.32-.11-.3-.16-.28-.19-.53-.44h0l-.38-.59-.16-.3-.12-.32-.08-.33-.05-.34-.05-.7h0l.05-.71.05-.34.09-.33.13-.32.17-.3.4-.58h0l.49-.4.26-.17.27-.14.29-.1.3-.07.63-.07h0l.34.02.34.05.33.09.33.12h0l.37.19.36.21.33.25.32.27h0l.53.51.51.53.97,1.1h0l.7.82.73.79h0l.36.31.39.27v-5.56s1.32,0,1.32,0Z"/>
      <path class="cls-2" d="M576.16,347.2v4.92s-1.26,0-1.26,0l-7.36-5.16v-1.14s7.34-.02,7.34-.02v-1.53s1.27,0,1.27,0v1.53s2.72,0,2.72,0v1.39s-2.71,0-2.71,0ZM569.77,347.21l5.12,3.54v-3.55s-5.12.01-5.12.01Z"/>
      <path class="cls-2" d="M508.69,335.07l.02,7.49h-.25s-.24-.03-.24-.03l-.24-.06-.24-.07h0l-.41-.18-.39-.21-.36-.25-.35-.27h0l-.46-.43-.44-.44-.42-.47-.4-.48h0l-.56-.67-.58-.65-.62-.6-.65-.57h0l-.39-.25-.2-.11-.2-.09-.21-.07-.22-.05-.45-.07h0l-.39.05-.19.04-.18.06-.17.09-.16.11-.3.25h0l-.25.35-.11.18-.08.19-.06.2-.04.21-.04.43h0l.04.45.04.22.06.21.09.2.11.19.27.36h0l.37.27.19.11.2.09.22.06.22.04.46.04-.14,1.43h0l-.69-.11-.33-.08-.32-.11-.3-.16-.28-.19-.53-.44h0l-.38-.59-.16-.3-.12-.32-.08-.33-.05-.34-.05-.7h0l.05-.71.05-.34.09-.33.13-.32.17-.3.4-.58h0l.49-.4.26-.17.27-.14.29-.1.3-.07.63-.07h0l.34.02.34.05.33.09.33.12h0l.37.19.36.21.33.25.32.27h0l.53.51.51.53.97,1.1h0l.7.82.73.79h0l.36.31.39.27v-5.56s1.32,0,1.32,0Z"/>
      <path class="cls-2" d="M590.93,403.74v4.92s-1.26,0-1.26,0l-7.36-5.16v-1.14s7.34-.02,7.34-.02v-1.53s1.27,0,1.27,0v1.53s2.72,0,2.72,0v1.39s-2.71,0-2.71,0ZM584.54,403.75l5.12,3.54v-3.55s-5.12.01-5.12.01Z"/>
      <path class="cls-2" d="M543.51,292.13v4.92s-1.26,0-1.26,0l-7.36-5.16v-1.14s7.34-.02,7.34-.02v-1.53s1.27,0,1.27,0v1.53s2.72,0,2.72,0v1.39s-2.71,0-2.71,0ZM537.12,292.15l5.12,3.54v-3.55s-5.12.01-5.12.01Z"/>
    </g>
    <g>
      <path class="cls-2" d="M767.95,436.59h0l-.49.27-.25.12-.26.09-.27.06-.28.04-.56.04h0l-.44-.04-.44-.06-.42-.09-.4-.14-.38-.19-.36-.24-.34-.27-.34-.29h0l-.29-.4-.27-.4-.24-.41-.19-.43-.13-.46-.08-.47-.08-.97h0l.08-.99.08-.48.13-.46.19-.44.24-.42.28-.41.29-.4h0l.34-.29.35-.28.36-.25.38-.2.41-.14.43-.09.44-.06.45-.05h0l.55.04.27.04.26.06.25.09.25.11.48.27h0l.44.4.2.21.18.23.16.25.14.26.24.54h0l.28-.69.16-.33.19-.31.22-.29.25-.27.54-.5h0l.63-.36.32-.15.33-.12.35-.08.35-.05.72-.06h0l.52.05.51.07.5.1.24.07.23.09.23.1.22.12.42.28.41.32.4.34h0l.34.45.32.46.28.47.12.24.1.25.15.52.09.54.06.56.04.56h0l-.04.56-.06.56-.09.54-.07.26-.08.26-.1.25-.12.24-.28.47-.32.46-.34.45h0l-.4.34-.41.32-.43.28-.22.12-.23.11-.24.09-.24.07-.5.1-.52.07-.52.05h0l-.74-.05-.36-.05-.35-.08-.34-.12-.33-.16-.65-.37h0l-.53-.5-.24-.27-.21-.29-.17-.31-.14-.33-.24-.69h0l-.24.55-.14.27-.16.25-.18.23-.2.22-.44.41ZM767.74,434.3h0l.33-.45.14-.23.11-.25.08-.26.05-.27.05-.56h0l-.05-.55-.05-.27-.08-.25-.11-.24-.14-.23-.33-.44h0l-.41-.33-.21-.14-.23-.11-.24-.08-.25-.05-.52-.06h0l-.54.06-.26.05-.25.08-.23.12-.22.15-.42.34h0l-.33.44-.14.23-.11.24-.08.25-.05.27-.06.55h0l.06.55.05.27.08.25.11.24.14.23.33.44h0l.4.33.21.14.22.12.24.08.25.05.52.06h0l.55-.06.27-.05.25-.08.24-.11.23-.14.44-.34ZM775.35,435.31h0l.39-.25.18-.14.17-.15.15-.17.14-.18.26-.38h0l.19-.43.15-.44.08-.46.03-.47h0l-.07-.69-.06-.33-.1-.32-.14-.3-.18-.29-.42-.55h0l-.54-.42-.28-.18-.3-.14-.32-.1-.33-.06-.68-.07h0l-.7.07-.34.07-.32.1-.3.15-.29.19-.55.43h0l-.42.56-.18.29-.14.31-.1.32-.06.34-.07.7h0l.07.68.07.33.1.31.14.3.18.28.42.54h0l.54.41.28.18.3.14.31.1.33.06.68.07h0l.45-.04.44-.07.42-.14.41-.18Z"/>
      <path class="cls-2" d="M822.21,405.35h0l.45-.1.22-.06.21-.08.2-.1.19-.13.35-.29h0l.23-.32.1-.17.08-.17.05-.18.04-.19.04-.39h0l-.06-.48-.05-.23-.08-.22-.11-.21-.14-.19-.32-.37h0l-.46-.31-.24-.13-.25-.1-.26-.07-.27-.04-.55-.04h0l-.52.04-.25.04-.24.07-.23.1-.22.13-.42.3h0l-.3.39-.13.2-.1.21-.07.23-.04.24-.05.49h0l.02.32.05.31.1.3.13.29h0l.16.25.18.23.22.2.24.18-.17,1.31-5.83-1.08v-5.64s1.32,0,1.32,0v4.52s3.06.6,3.06.6h0l-.29-.5-.13-.25-.1-.26-.08-.27-.05-.28-.06-.57h0l.08-.7.07-.34.11-.32.15-.3.19-.29.44-.55h0l.59-.44.31-.19.32-.15.34-.1.35-.07.73-.07h0l.72.06.35.06.34.09.33.13.32.16.61.38h0l.31.31.29.32.25.33.2.36.14.39.09.41.06.43.04.43h0l-.05.69-.05.33-.09.32-.13.31-.16.3-.38.57h0l-.5.44-.26.19-.28.16-.3.12-.31.09-.65.13-.13-1.46Z"/>
      <path class="cls-2" d="M831.76,296.5h0l.45-.1.22-.06.21-.08.2-.1.19-.13.35-.29h0l.23-.32.1-.17.08-.17.05-.18.04-.19.04-.39h0l-.06-.48-.05-.23-.08-.22-.11-.21-.14-.19-.32-.37h0l-.46-.31-.24-.13-.25-.1-.26-.07-.27-.04-.55-.04h0l-.52.04-.25.04-.24.07-.23.1-.22.13-.42.3h0l-.3.39-.13.2-.1.21-.07.23-.04.24-.05.49h0l.02.32.05.31.1.3.13.29h0l.16.25.18.23.22.2.24.18-.17,1.31-5.83-1.08v-5.64s1.32,0,1.32,0v4.52s3.06.6,3.06.6h0l-.29-.5-.13-.25-.1-.26-.08-.27-.05-.28-.06-.57h0l.08-.7.07-.34.11-.32.15-.3.19-.29.44-.55h0l.59-.44.31-.19.32-.15.34-.1.35-.07.73-.07h0l.72.06.35.06.34.09.33.13.32.16.61.38h0l.31.31.29.32.25.33.2.36.14.39.09.41.06.43.04.43h0l-.05.69-.05.33-.09.32-.13.31-.16.3-.38.57h0l-.5.44-.26.19-.28.16-.3.12-.31.09-.65.13-.13-1.46Z"/>
      <path class="cls-2" d="M777.8,323.03v4.92s-1.26,0-1.26,0l-7.36-5.16v-1.14s7.34-.02,7.34-.02v-1.53s1.27,0,1.27,0v1.53s2.72,0,2.72,0v1.39s-2.71,0-2.71,0ZM771.41,323.05l5.12,3.54v-3.55s-5.12.01-5.12.01Z"/>
      <path class="cls-2" d="M710.75,357.95h0l.45-.1.22-.06.21-.08.2-.1.19-.13.35-.29h0l.23-.32.1-.17.08-.17.05-.18.04-.19.04-.39h0l-.06-.48-.05-.23-.08-.22-.11-.21-.14-.19-.32-.37h0l-.46-.31-.24-.13-.25-.1-.26-.07-.27-.04-.55-.04h0l-.52.04-.25.04-.24.07-.23.1-.22.13-.42.3h0l-.3.39-.13.2-.1.21-.07.23-.04.24-.05.49h0l.02.32.05.31.1.3.13.29h0l.16.25.18.23.22.2.24.18-.17,1.31-5.83-1.08v-5.64s1.32,0,1.32,0v4.52s3.06.6,3.06.6h0l-.29-.5-.13-.25-.1-.26-.08-.27-.05-.28-.06-.57h0l.08-.7.07-.34.11-.32.15-.3.19-.29.44-.55h0l.59-.44.31-.19.32-.15.34-.1.35-.07.73-.07h0l.72.06.35.06.34.09.33.13.32.16.61.38h0l.31.31.29.32.25.33.2.36.14.39.09.41.06.43.04.43h0l-.05.69-.05.33-.09.32-.13.31-.16.3-.38.57h0l-.5.44-.26.19-.28.16-.3.12-.31.09-.65.13-.13-1.46Z"/>
      <path class="cls-2" d="M765.21,384.44l.02,7.49h-.25s-.24-.03-.24-.03l-.24-.06-.24-.07h0l-.41-.18-.39-.21-.37-.25-.35-.27h0l-.46-.43-.44-.44-.42-.47-.4-.48h0l-.56-.67-.58-.65-.62-.6-.65-.57h0l-.39-.25-.2-.11-.2-.09-.21-.07-.22-.05-.45-.07h0l-.39.05-.19.04-.18.06-.17.09-.16.11-.3.25h0l-.25.35-.11.18-.08.19-.06.2-.04.21-.04.43h0l.04.45.04.22.06.21.09.2.11.19.27.36h0l.37.27.19.11.2.09.22.06.22.04.46.04-.14,1.43h0l-.69-.11-.33-.08-.32-.11-.3-.16-.28-.19-.53-.44h0l-.38-.59-.16-.3-.12-.32-.08-.33-.05-.34-.05-.7h0l.05-.71.05-.34.09-.33.13-.32.17-.3.4-.58h0l.49-.4.26-.17.27-.14.29-.1.3-.07.63-.07h0l.34.02.34.05.33.09.33.12h0l.37.19.36.21.33.25.32.27h0l.53.51.51.53.97,1.1h0l.7.82.73.79h0l.36.31.39.27v-5.56s1.32,0,1.32,0Z"/>
    </g>
    <g>
      <path class="cls-2" d="M132.92,215.32h0l.57-.13.28-.08.26-.11.25-.13.24-.16.45-.37h0l.28-.42.12-.22.09-.23.06-.24.04-.24.04-.5h0l-.03-.44-.07-.43-.07-.21-.08-.2-.19-.4h0l-.25-.34-.27-.32-.32-.27-.34-.25h0l-.48-.25-.49-.22-.51-.17-.52-.14h0l-.63-.13-.64-.1-.64-.05-.64-.02h-.42s.48.37.48.37l.23.19.21.2.19.22.18.24.33.5h0l.26.56.11.28.09.29.06.3.04.3.05.62h0l-.05.51-.07.5-.1.48-.07.23-.09.23-.1.22-.12.21-.28.41-.31.4-.33.39h0l-.45.33-.46.31-.47.27-.24.12-.25.1-.52.15-.54.09-.55.06-.56.04h0l-.58-.04-.57-.06-.56-.09-.27-.07-.26-.08-.26-.1-.25-.12-.49-.28-.47-.32-.46-.34h0l-.35-.41-.33-.42-.29-.44-.12-.23-.11-.24-.09-.24-.07-.25-.11-.52-.07-.53-.05-.54h0l.07-.8.06-.39.09-.39.13-.37.16-.36.38-.71h0l.53-.66.28-.31.3-.28.33-.24.35-.22.74-.39h0l1.17-.35.59-.14.6-.1.6-.07.61-.04,1.22-.03h0l1.32.03.66.04.65.06.65.1.64.14,1.28.33h0l.85.37.41.21.38.24.36.28.33.31.62.68h0l.44.76.19.39.15.4.1.42.07.43.07.88h0l-.07.89-.07.43-.11.42-.16.4-.21.38-.49.74h0l-.68.59-.36.26-.38.21-.4.16-.42.12-.88.18-.19-2.01ZM122.73,209.77h0l-.44.5-.19.26-.15.28-.11.3-.07.31-.09.66h0l.1.69.08.33.12.31.17.29.2.27.47.52h0l.67.45.35.19.36.15.38.1.39.06.81.06h0l.73-.07.35-.06.34-.1.32-.14.31-.18.59-.43h0l.43-.53.18-.28.15-.29.1-.31.07-.33.08-.68h0l-.08-.67-.07-.32-.1-.31-.15-.29-.19-.27-.44-.52h0l-.64-.42-.33-.18-.35-.14-.36-.09-.37-.05-.77-.05h0l-.78.06-.38.06-.37.09-.35.14-.33.18-.65.43Z"/>
      <path class="cls-2" d="M86.5,113.94l.02,7.49h-.25s-.24-.03-.24-.03l-.24-.06-.24-.07h0l-.41-.18-.39-.21-.37-.25-.35-.27h0l-.46-.43-.44-.44-.42-.47-.4-.48h0l-.56-.67-.58-.65-.62-.6-.65-.57h0l-.39-.25-.2-.11-.2-.09-.21-.07-.22-.05-.45-.07h0l-.39.05-.19.04-.18.06-.17.09-.16.11-.3.25h0l-.25.35-.11.18-.08.19-.06.2-.04.21-.04.43h0l.04.45.04.22.06.21.09.2.11.19.27.36h0l.37.27.19.11.2.09.22.06.22.04.46.04-.14,1.43h0l-.69-.11-.33-.08-.32-.11-.3-.16-.28-.19-.53-.44h0l-.38-.59-.16-.3-.12-.32-.08-.33-.05-.34-.05-.7h0l.05-.71.05-.34.09-.33.13-.32.17-.3.4-.58h0l.49-.4.26-.17.27-.14.29-.1.3-.07.63-.07h0l.34.02.34.05.33.09.33.12h0l.37.19.36.21.33.25.32.27h0l.53.51.51.53.97,1.1h0l.7.82.73.79h0l.36.31.39.27-.02-5.56h1.34Z"/>
      <path class="cls-2" d="M112.34,169.07l.02,7.49h-.25s-.24-.03-.24-.03l-.24-.06-.24-.07h0l-.41-.18-.39-.21-.37-.25-.35-.27h0l-.46-.43-.44-.44-.42-.47-.4-.48h0l-.56-.67-.58-.65-.62-.6-.65-.57h0l-.39-.25-.2-.11-.2-.09-.21-.07-.22-.05-.45-.07h0l-.39.05-.19.04-.18.06-.17.09-.16.11-.3.25h0l-.25.35-.11.18-.08.19-.06.2-.04.21-.04.43h0l.04.45.04.22.06.21.09.2.11.19.27.36h0l.37.27.19.11.2.09.22.06.22.04.46.04-.14,1.43h0l-.69-.11-.33-.08-.32-.11-.3-.16-.28-.19-.53-.44h0l-.38-.59-.16-.3-.12-.32-.08-.33-.05-.34-.05-.7h0l.05-.71.05-.34.09-.33.13-.32.17-.3.4-.58h0l.49-.4.26-.17.27-.14.29-.1.3-.07.63-.07h0l.34.02.34.05.33.09.33.12h0l.37.19.36.21.33.25.32.27h0l.53.51.51.53.97,1.1h0l.7.82.73.79h0l.36.31.39.27-.02-5.56h1.34Z"/>
      <path class="cls-2" d="M140.69,123.18h0l.45-.1.22-.06.21-.08.2-.1.19-.13.35-.29h0l.23-.32.1-.17.08-.17.05-.18.04-.19.04-.39h0l-.06-.48-.05-.23-.08-.22-.11-.21-.14-.19-.32-.37h0l-.46-.31-.24-.13-.25-.1-.26-.07-.27-.04-.55-.04h0l-.52.04-.25.04-.24.07-.23.1-.22.13-.42.3h0l-.3.39-.13.2-.1.21-.07.23-.04.24-.05.49h0l.02.32.05.31.1.3.13.29h0l.16.25.18.23.22.2.24.18-.17,1.31-5.83-1.08-.02-5.64h1.33s.01,4.52.01,4.52l3.05.6h0l-.29-.5-.13-.25-.1-.26-.08-.27-.05-.28-.06-.57h0l.08-.7.07-.34.1-.32.15-.3.19-.29.44-.55h0l.59-.44.31-.19.32-.15.34-.1.35-.07.73-.07h0l.72.06.35.06.34.09.33.13.32.16.61.38h0l.31.31.29.32.25.33.2.36.14.39.09.41.06.43.04.43h0l-.05.69-.05.33-.09.32-.13.31-.16.3-.38.57h0l-.5.44-.26.19-.28.16-.3.12-.31.09-.65.13-.13-1.46Z"/>
      <path class="cls-2" d="M124.04,60.84l.02,7.49h-.25s-.24-.03-.24-.03l-.24-.06-.24-.07h0l-.41-.18-.39-.21-.37-.25-.35-.27h0l-.46-.43-.44-.44-.42-.47-.4-.48h0l-.56-.67-.58-.65-.62-.6-.65-.57h0l-.39-.25-.2-.11-.2-.09-.21-.07-.22-.05-.45-.07h0l-.39.05-.19.04-.18.06-.17.09-.16.11-.3.25h0l-.25.35-.11.18-.08.19-.06.2-.04.21-.04.43h0l.04.45.04.22.06.21.09.2.11.19.27.36h0l.37.27.19.11.2.09.22.06.22.04.46.04-.14,1.43h0l-.69-.11-.33-.08-.32-.11-.3-.16-.28-.19-.53-.44h0l-.38-.59-.16-.3-.12-.32-.08-.33-.05-.34-.05-.7h0l.05-.71.05-.34.09-.33.13-.32.17-.3.4-.58h0l.49-.4.26-.17.27-.14.29-.1.3-.07.63-.07h0l.34.02.34.05.33.09.33.12h0l.37.19.36.21.33.25.32.27h0l.53.51.51.53.97,1.1h0l.7.82.73.79h0l.36.31.39.27-.02-5.56h1.34Z"/>
      <path class="cls-2" d="M189.76,59.34l.02,7.49h-.25s-.24-.03-.24-.03l-.24-.06-.24-.07h0l-.41-.18-.39-.21-.37-.25-.35-.27h0l-.46-.43-.44-.44-.42-.47-.4-.48h0l-.56-.67-.58-.65-.62-.6-.65-.57h0l-.39-.25-.2-.11-.2-.09-.21-.07-.22-.05-.45-.07h0l-.39.05-.19.04-.18.06-.17.09-.16.11-.3.25h0l-.25.35-.11.18-.08.19-.06.2-.04.21-.04.43h0l.04.45.04.22.06.21.09.2.11.19.27.36h0l.37.27.19.11.2.09.22.06.22.04.46.04-.14,1.43h0l-.69-.11-.33-.08-.32-.11-.3-.16-.28-.19-.53-.44h0l-.38-.59-.16-.3-.12-.32-.08-.33-.05-.34-.05-.7h0l.05-.71.05-.34.09-.33.13-.32.17-.3.4-.58h0l.49-.4.26-.17.27-.14.29-.1.3-.07.63-.07h0l.34.02.34.05.33.09.33.12h0l.37.19.36.21.33.25.32.27h0l.53.51.51.53.97,1.1h0l.7.82.73.79h0l.36.31.39.27-.02-5.56h1.34Z"/>
    </g>
    <g>
      <path class="cls-2" d="M337.48,208.49h0l-.8-.32-.39-.18-.37-.21-.35-.25-.33-.28-.62-.6h0l-.44-.71-.19-.36-.15-.38-.1-.39-.06-.41-.07-.83h0l.03-.62.03-.31.05-.3.08-.3.1-.29.24-.58h0l.32-.5.17-.24.19-.22.21-.2.22-.19.47-.36h0l.6-.34.62-.3.65-.23.66-.2h0l1-.18.5-.08.5-.06,1.01-.06,1.01-.02h0l1.23.02.61.03.61.06.6.09.6.12,1.19.28h0l.8.32.39.18.37.21.35.24.33.27.62.6h0l.44.71.19.37.15.38.1.39.06.41.07.83h0l-.05.56-.07.55-.11.53-.08.26-.1.25-.12.24-.14.23-.32.44-.37.41-.39.4h0l-.81.43-.81.4-.41.18-.42.16-.42.13-.43.11-.44.09-.44.07-.9.09-.91.04-.92.02h0l-1.23-.02-.61-.03-.61-.06-.61-.09-.6-.12-1.2-.29ZM347.9,205.96h0l.56-.49.24-.26.2-.29.15-.32.1-.34.07-.36.06-.37h0l-.06-.37-.07-.36-.1-.34-.15-.32-.2-.29-.25-.26-.56-.48h0l-.67-.27-.67-.25-.68-.2-.69-.14-.7-.08-.71-.04h-1.44s-1.45,0-1.45,0l-.72.04-.71.08-.69.14-.68.2-.67.25-.67.27h0l-.56.49-.24.27-.2.29-.15.32-.1.34-.07.36-.05.37h0l.1.68.09.32.13.3.18.27.22.25.51.47h0l.69.29.69.26.7.22.36.08.36.07.73.09.74.04h1.49s1.44,0,1.44,0l.71-.04.71-.08.69-.14.68-.2.67-.25.67-.27Z"/>
      <path class="cls-2" d="M350.74,216.52l-13.31.03h0l.4.46.38.48.34.51.32.52h0l.3.53.29.54.26.56.24.57h-2.02s-.42-.81-.42-.81l-.23-.4-.24-.39-.26-.38-.28-.37-.58-.71h0l-.51-.54-.27-.26-.28-.24-.29-.22-.3-.21-.63-.39v-1.35s17.07-.04,17.07-.04v2.09Z"/>
      <path class="cls-2" d="M334.61,99.15h0l.47-.12.23-.07.22-.09.21-.11.2-.13.38-.3h0l.22-.32.1-.16.08-.17.05-.18.03-.19.04-.39h0l-.05-.46-.05-.22-.07-.21-.1-.2-.12-.19-.29-.37h0l-.37-.29-.2-.12-.21-.1-.22-.07-.23-.04-.47-.05h0l-.44.05-.21.04-.2.06-.19.09-.18.12-.35.27h0l-.27.35-.11.18-.09.19-.06.21-.04.21-.04.44h0l.05.5.11.49-1.22-.15h0v-.22h.01l-.04-.42-.03-.21-.05-.2-.07-.2-.09-.19-.2-.38h0l-.29-.31-.16-.13-.17-.1-.19-.07-.2-.04-.42-.05h0l-.35.04-.17.03-.16.05-.15.08-.15.1-.28.22h0l-.22.3-.09.16-.07.16-.05.17-.03.18-.03.37h0l.04.37.03.18.05.17.08.16.09.16.22.3h0l.34.26.18.12.19.1.2.07.21.06.42.09-.24,1.39h0l-.61-.16-.3-.1-.28-.13-.26-.16-.25-.19-.47-.42h0l-.34-.51-.14-.26-.11-.28-.08-.29-.05-.3-.05-.61h0l.03-.44.07-.44.13-.42.17-.41h0l.21-.35.24-.32.3-.28.33-.25h0l.35-.17.36-.14.37-.07.39-.03h0l.35.03.34.07.33.13.31.17h0l.3.24.27.27.21.31.18.34h0l.14-.45.09-.22.11-.2.13-.19.15-.18.34-.33h0l.42-.25.22-.1.22-.08.23-.06.24-.04.49-.04h0l.71.08.34.07.32.11.31.16.29.2.55.45h0l.45.61.19.32.15.33.11.35.07.37.07.76h0l-.06.68-.06.33-.09.32-.13.3-.16.29-.39.56h0l-.5.44-.26.19-.28.16-.3.12-.31.09-.65.13-.19-1.39Z"/>
      <path class="cls-2" d="M295.13,133.61l.02,7.49h-.25s-.24-.03-.24-.03l-.24-.06-.24-.07h0l-.41-.18-.39-.21-.36-.25-.35-.27h0l-.46-.43-.44-.44-.42-.47-.4-.48h0l-.56-.67-.58-.65-.62-.6-.65-.57h0l-.39-.25-.2-.11-.2-.09-.21-.07-.22-.05-.45-.07h0l-.39.05-.19.04-.18.06-.17.09-.16.11-.3.25h0l-.25.35-.11.18-.08.19-.06.2-.04.21-.04.43h0l.04.45.04.22.06.21.09.2.11.19.27.36h0l.37.27.19.11.2.09.22.06.22.04.46.04-.14,1.43h0l-.69-.11-.33-.08-.32-.11-.3-.16-.28-.19-.53-.44h0l-.38-.59-.16-.3-.12-.32-.08-.33-.05-.34-.05-.7h0l.05-.71.05-.34.09-.33.13-.32.17-.3.4-.58h0l.49-.4.26-.17.27-.14.29-.1.3-.07.63-.07h0l.34.02.34.05.33.09.33.12h0l.37.19.36.21.33.25.32.27h0l.53.51.51.53.97,1.1h0l.7.82.73.79h0l.36.31.39.27v-5.56s1.32,0,1.32,0Z"/>
      <path class="cls-2" d="M290.78,76.99h0l.45-.1.22-.06.21-.08.2-.1.19-.13.35-.29h0l.23-.32.1-.17.08-.17.05-.18.04-.19.04-.39h0l-.06-.48-.05-.23-.08-.22-.11-.21-.14-.19-.32-.37h0l-.46-.31-.24-.13-.25-.1-.26-.07-.27-.04-.55-.04h0l-.52.04-.25.04-.24.07-.23.1-.22.13-.42.3h0l-.3.39-.13.2-.1.21-.07.23-.04.24-.05.49h0l.02.32.05.31.1.3.13.29h0l.16.25.18.23.22.2.24.18-.17,1.31-5.83-1.09v-5.64s1.32,0,1.32,0v4.52s3.06.6,3.06.6h0l-.29-.5-.13-.26-.1-.26-.08-.27-.05-.28-.06-.57h0l.08-.7.07-.34.11-.32.15-.3.19-.29.44-.55h0l.59-.44.31-.19.32-.15.34-.1.35-.07.73-.07h0l.72.06.35.06.34.09.33.13.31.16.61.38h0l.31.31.29.32.25.33.2.36.14.39.09.41.06.43.04.43h0l-.05.69-.05.33-.09.32-.13.31-.16.3-.38.57h0l-.5.44-.26.19-.28.16-.3.12-.31.09-.65.13-.13-1.46Z"/>
      <path class="cls-2" d="M382.16,129.43l.02,7.49h-.25s-.24-.03-.24-.03l-.24-.06-.24-.07h0l-.41-.18-.39-.21-.36-.25-.35-.27h0l-.46-.43-.44-.44-.42-.47-.4-.48h0l-.56-.67-.58-.65-.62-.6-.65-.57h0l-.39-.25-.2-.11-.2-.09-.21-.07-.22-.05-.45-.07h0l-.39.05-.19.04-.18.06-.17.09-.16.11-.3.25h0l-.25.35-.11.18-.08.19-.06.2-.04.21-.04.43h0l.04.45.04.22.06.21.09.2.11.19.27.36h0l.37.27.19.11.2.09.22.06.22.04.46.04-.14,1.43h0l-.69-.11-.33-.08-.32-.11-.3-.16-.28-.19-.53-.44h0l-.38-.59-.16-.3-.12-.32-.08-.33-.05-.34-.05-.7h0l.05-.71.05-.34.09-.33.13-.32.17-.3.4-.58h0l.49-.4.26-.17.27-.14.29-.1.3-.07.63-.07h0l.34.02.34.05.33.09.33.12h0l.37.19.36.21.33.25.32.27h0l.53.51.51.53.97,1.1h0l.7.82.73.79h0l.36.31.39.27v-5.56s1.32,0,1.32,0Z"/>
      <path class="cls-2" d="M337.79,184.66h0l.45-.1.22-.06.21-.08.2-.1.19-.13.35-.29h0l.23-.32.1-.17.08-.17.05-.18.04-.19.04-.39h0l-.06-.48-.05-.23-.08-.22-.11-.21-.14-.19-.32-.37h0l-.46-.31-.24-.13-.25-.1-.26-.07-.27-.04-.55-.04h0l-.52.04-.25.04-.24.07-.23.1-.22.13-.42.3h0l-.3.39-.13.2-.1.21-.07.23-.04.24-.05.49h0l.02.32.05.31.1.3.13.29h0l.16.25.18.23.22.2.24.18-.17,1.31-5.83-1.08v-5.64s1.32,0,1.32,0v4.52s3.06.6,3.06.6h0l-.29-.5-.13-.25-.1-.26-.08-.27-.05-.28-.06-.57h0l.08-.7.07-.34.11-.32.15-.3.19-.29.44-.55h0l.59-.44.31-.19.32-.15.34-.1.35-.07.73-.07h0l.72.06.35.06.34.09.33.13.32.16.61.38h0l.31.31.29.32.25.33.2.36.14.39.09.41.06.43.04.43h0l-.05.69-.05.33-.09.32-.13.31-.16.3-.38.57h0l-.5.44-.26.19-.28.16-.3.12-.31.09-.65.13-.13-1.46Z"/>
    </g>
    <g>
      <path class="cls-2" d="M566.06,200.47l-13.31.03h0l.4.46.38.48.34.51.32.52h0l.3.53.29.54.26.56.24.57h-2.02s-.42-.81-.42-.81l-.23-.4-.24-.39-.26-.38-.28-.37-.58-.71h0l-.51-.54-.27-.26-.28-.24-.29-.22-.3-.21-.63-.39v-1.35s17.07-.04,17.07-.04v2.09Z"/>
      <path class="cls-2" d="M566.08,211.92l-13.31.03h0l.4.46.38.48.34.51.32.52h0l.3.53.29.54.26.56.24.57h-2.02s-.42-.81-.42-.81l-.23-.4-.24-.39-.26-.38-.28-.37-.58-.71h0l-.51-.54-.27-.26-.28-.24-.29-.22-.3-.21-.63-.39v-1.35s17.07-.04,17.07-.04v2.09Z"/>
      <path class="cls-2" d="M507.19,155.17l.02,7.49h-.25s-.24-.03-.24-.03l-.24-.06-.24-.07h0l-.41-.18-.39-.21-.36-.25-.35-.27h0l-.46-.43-.44-.44-.42-.47-.4-.48h0l-.56-.67-.58-.65-.62-.6-.65-.57h0l-.39-.25-.2-.11-.2-.09-.21-.07-.22-.05-.45-.07h0l-.39.05-.19.04-.18.06-.17.09-.16.11-.3.25h0l-.25.35-.11.18-.08.19-.06.2-.04.21-.04.43h0l.04.45.04.22.06.21.09.2.11.19.27.36h0l.37.27.19.11.2.09.22.06.22.04.46.04-.14,1.43h0l-.69-.11-.33-.08-.32-.11-.3-.16-.28-.19-.53-.44h0l-.38-.59-.16-.3-.12-.32-.08-.33-.05-.34-.05-.7h0l.05-.71.05-.34.09-.33.13-.32.17-.3.4-.58h0l.49-.4.26-.17.27-.14.29-.1.3-.07.63-.07h0l.34.02.34.05.33.09.33.12h0l.37.19.36.21.33.25.32.27h0l.53.51.51.53.97,1.1h0l.7.82.73.79h0l.36.31.39.27v-5.56s1.32,0,1.32,0Z"/>
      <path class="cls-2" d="M610.82,160.93h0l.45-.1.22-.06.21-.08.2-.1.19-.13.35-.29h0l.23-.32.1-.17.08-.17.05-.18.04-.19.04-.39h0l-.06-.48-.05-.23-.08-.22-.11-.21-.14-.19-.32-.37h0l-.46-.31-.24-.13-.25-.1-.26-.07-.27-.04-.55-.04h0l-.52.04-.25.04-.24.07-.23.1-.22.13-.42.3h0l-.3.39-.13.2-.1.21-.07.23-.04.24-.05.49h0l.02.32.05.31.1.3.13.29h0l.16.25.18.23.22.2.24.18-.17,1.31-5.83-1.08v-5.64s1.32,0,1.32,0v4.52s3.06.6,3.06.6h0l-.29-.5-.13-.25-.1-.26-.08-.27-.05-.28-.06-.57h0l.08-.7.07-.34.11-.32.15-.3.19-.29.44-.55h0l.59-.44.31-.19.32-.15.34-.1.35-.07.73-.07h0l.72.06.35.06.34.09.33.13.32.16.61.38h0l.31.31.29.32.25.33.2.36.14.39.09.41.06.43.04.43h0l-.05.69-.05.33-.09.32-.13.31-.16.3-.38.57h0l-.5.44-.26.19-.28.16-.3.12-.31.09-.65.13-.13-1.46Z"/>
      <path class="cls-2" d="M603.13,64.76l.02,7.49h-.25s-.24-.03-.24-.03l-.24-.06-.24-.07h0l-.41-.18-.39-.21-.36-.25-.35-.27h0l-.46-.43-.44-.44-.42-.47-.4-.48h0l-.56-.67-.58-.65-.62-.6-.65-.57h0l-.39-.25-.2-.11-.2-.09-.21-.07-.22-.05-.45-.07h0l-.39.05-.19.04-.18.06-.17.09-.16.11-.3.25h0l-.25.35-.11.18-.08.19-.06.2-.04.21-.04.43h0l.04.45.04.22.06.21.09.2.11.19.27.36h0l.37.27.19.11.2.09.22.06.22.04.46.04-.14,1.43h0l-.69-.11-.33-.08-.32-.11-.3-.16-.28-.19-.53-.44h0l-.38-.59-.16-.3-.12-.32-.08-.33-.05-.34-.05-.7h0l.05-.71.05-.34.09-.33.13-.32.17-.3.4-.58h0l.49-.4.26-.17.27-.14.29-.1.3-.07.63-.07h0l.34.02.34.05.33.09.33.12h0l.37.19.36.21.33.25.32.27h0l.53.51.51.53.97,1.1h0l.7.82.73.79h0l.36.31.39.27v-5.56s1.32,0,1.32,0Z"/>
      <path class="cls-2" d="M553.97,117.03h0l.45-.1.22-.06.21-.08.2-.1.19-.13.35-.29h0l.23-.32.1-.17.08-.17.05-.18.04-.19.04-.39h0l-.06-.48-.05-.23-.08-.22-.11-.21-.14-.19-.32-.37h0l-.46-.31-.24-.13-.25-.1-.26-.07-.27-.04-.55-.04h0l-.52.04-.25.04-.24.07-.23.1-.22.13-.42.3h0l-.3.39-.13.2-.1.21-.07.23-.04.24-.05.49h0l.02.32.05.31.1.3.13.29h0l.16.25.18.23.22.2.24.18-.17,1.31-5.83-1.08v-5.64s1.32,0,1.32,0v4.52s3.06.6,3.06.6h0l-.29-.5-.13-.25-.1-.26-.08-.27-.05-.28-.06-.57h0l.08-.7.07-.34.11-.32.15-.3.19-.29.44-.55h0l.59-.44.31-.19.32-.15.34-.1.35-.07.73-.07h0l.72.06.35.06.34.09.33.13.32.16.61.38h0l.31.31.29.32.25.33.2.36.14.39.09.41.06.43.04.43h0l-.05.69-.05.33-.09.32-.13.31-.16.3-.38.57h0l-.5.44-.26.19-.28.16-.3.12-.31.09-.65.13-.13-1.46Z"/>
      <path class="cls-2" d="M495.52,87.85h0l.45-.1.22-.06.21-.08.2-.1.19-.13.35-.29h0l.23-.32.1-.17.08-.17.05-.18.04-.19.04-.39h0l-.06-.48-.05-.23-.08-.22-.11-.21-.14-.19-.32-.37h0l-.46-.31-.24-.13-.25-.1-.26-.07-.27-.04-.55-.04h0l-.52.04-.25.04-.24.07-.23.1-.22.13-.42.3h0l-.3.39-.13.2-.1.21-.07.23-.04.24-.05.49h0l.02.32.05.31.1.3.13.29h0l.16.25.18.23.22.2.24.18-.17,1.31-5.83-1.08v-5.64s1.32,0,1.32,0v4.52s3.06.6,3.06.6h0l-.29-.5-.13-.25-.1-.26-.08-.27-.05-.28-.06-.57h0l.08-.7.07-.34.11-.32.15-.3.19-.29.44-.55h0l.59-.44.31-.19.32-.15.34-.1.35-.07.73-.07h0l.72.06.35.06.34.09.33.13.32.16.61.38h0l.31.31.29.32.25.33.2.36.14.39.09.41.06.43.04.43h0l-.05.69-.05.33-.09.32-.13.31-.16.3-.38.57h0l-.5.44-.26.19-.28.16-.3.12-.31.09-.65.13-.13-1.46Z"/>
    </g>
    <g>
      <path class="cls-2" d="M778.03,196.37l.03,11.24h-.37s-.37-.05-.37-.05l-.36-.08-.35-.11h0l-.61-.27-.58-.31-.55-.37-.53-.41h0l-.69-.64-.66-.67-.63-.7-.61-.72h0l-.84-1-.43-.49-.44-.48-.46-.46-.47-.45-.98-.86h0l-.58-.38-.3-.17-.31-.14-.32-.11-.33-.08-.68-.1h0l-.59.07-.28.06-.27.09-.25.13-.24.16-.46.38h0l-.37.52-.16.27-.12.28-.08.3-.05.31-.05.64h0l.06.67.06.32.09.31.13.29.17.28.4.54h0l.56.4.29.17.31.13.32.09.34.06.69.06-.22,2.15h0l-.52-.08-.51-.09-.5-.12-.47-.17-.23-.11-.22-.12-.42-.29-.4-.32-.4-.34h0l-.29-.44-.27-.44-.24-.46-.19-.47-.12-.49-.08-.51-.08-1.05h0l.03-.53.05-.53.08-.52.13-.5.09-.24.11-.23.25-.45.29-.44.31-.43h0l.36-.31.37-.29.39-.26.41-.21.43-.15.46-.1.47-.06.48-.05h0l.52.03.51.07.5.14.49.17h0l.56.29.54.32.5.37.48.4h0l.79.77.76.79.73.82.72.84h0l1.05,1.23.54.6.56.58h0l.54.47.59.41-.02-8.34h2.01Z"/>
      <path class="cls-2" d="M778.07,214.78l-13.31.03h0l.4.46.38.48.34.51.32.52h0l.3.53.29.54.26.56.24.57h-2.02s-.42-.81-.42-.81l-.23-.4-.24-.39-.26-.38-.28-.37-.58-.71h0l-.51-.54-.27-.26-.28-.24-.29-.22-.3-.21-.63-.39v-1.35s17.07-.04,17.07-.04v2.09Z"/>
      <path class="cls-2" d="M770.76,64.26h0l.45-.1.22-.06.21-.08.2-.1.19-.13.35-.29h0l.23-.32.1-.17.08-.17.05-.18.04-.19.04-.39h0l-.06-.48-.05-.23-.08-.22-.11-.21-.14-.19-.32-.37h0l-.46-.31-.24-.13-.25-.1-.26-.07-.27-.04-.55-.04h0l-.52.04-.25.04-.24.07-.23.1-.22.13-.42.3h0l-.3.39-.13.2-.1.21-.07.23-.04.24-.05.49h0l.02.32.05.31.1.3.13.29h0l.16.25.18.23.22.2.24.18-.17,1.31-5.83-1.08v-5.64s1.32,0,1.32,0v4.52s3.06.6,3.06.6h0l-.29-.5-.13-.25-.1-.26-.08-.27-.05-.28-.06-.57h0l.08-.7.07-.34.11-.32.15-.3.19-.29.44-.55h0l.59-.44.31-.19.32-.15.34-.1.35-.07.73-.07h0l.72.06.35.06.34.09.33.13.32.16.61.38h0l.31.31.29.32.25.33.2.36.14.39.09.41.06.43.04.43h0l-.05.69-.05.33-.09.32-.13.31-.16.3-.38.57h0l-.5.44-.26.19-.28.16-.3.12-.31.09-.65.13-.13-1.46Z"/>
      <path class="cls-2" d="M717.91,183.04l.02,7.49h-.25s-.24-.03-.24-.03l-.24-.06-.24-.07h0l-.41-.18-.39-.21-.36-.25-.35-.27h0l-.46-.43-.44-.44-.42-.47-.4-.48h0l-.56-.67-.58-.65-.62-.6-.65-.57h0l-.39-.25-.2-.11-.2-.09-.21-.07-.22-.05-.45-.07h0l-.39.05-.19.04-.18.06-.17.09-.16.11-.3.25h0l-.25.35-.11.18-.08.19-.06.2-.04.21-.04.43h0l.04.45.04.22.06.21.09.2.11.19.27.36h0l.37.27.19.11.2.09.22.06.22.04.46.04-.14,1.43h0l-.69-.11-.33-.08-.32-.11-.3-.16-.28-.19-.53-.44h0l-.38-.59-.16-.3-.12-.32-.08-.33-.05-.34-.05-.7h0l.05-.71.05-.34.09-.33.13-.32.17-.3.4-.58h0l.49-.4.26-.17.27-.14.29-.1.3-.07.63-.07h0l.34.02.34.05.33.09.33.12h0l.37.19.36.21.33.25.32.27h0l.53.51.51.53.97,1.1h0l.7.82.73.79h0l.36.31.39.27v-5.56s1.32,0,1.32,0Z"/>
      <path class="cls-2" d="M755.58,120.7v4.92s-1.26,0-1.26,0l-7.36-5.16v-1.14s7.34-.02,7.34-.02v-1.53s1.27,0,1.27,0v1.53s2.72,0,2.72,0v1.39s-2.71,0-2.71,0ZM749.19,120.72l5.12,3.54v-3.55s-5.12.01-5.12.01Z"/>
      <path class="cls-2" d="M828.01,158.09v4.92s-1.26,0-1.26,0l-7.36-5.16v-1.14s7.34-.02,7.34-.02v-1.53s1.27,0,1.27,0v1.53s2.72,0,2.72,0v1.39s-2.71,0-2.71,0ZM821.62,158.1l5.12,3.54v-3.55s-5.12.01-5.12.01Z"/>
      <path class="cls-2" d="M833.68,73.33l.02,7.49h-.25s-.24-.03-.24-.03l-.24-.06-.24-.07h0l-.41-.18-.39-.21-.36-.25-.35-.27h0l-.46-.43-.44-.44-.42-.47-.4-.48h0l-.56-.67-.58-.65-.62-.6-.65-.57h0l-.39-.25-.2-.11-.2-.09-.21-.07-.22-.05-.45-.07h0l-.39.05-.19.04-.18.06-.17.09-.16.11-.3.25h0l-.25.35-.11.18-.08.19-.06.2-.04.21-.04.43h0l.04.45.04.22.06.21.09.2.11.19.27.36h0l.37.27.19.11.2.09.22.06.22.04.46.04-.14,1.43h0l-.69-.11-.33-.08-.32-.11-.3-.16-.28-.19-.53-.44h0l-.38-.59-.16-.3-.12-.32-.08-.33-.05-.34-.05-.7h0l.05-.71.05-.34.09-.33.13-.32.17-.3.4-.58h0l.49-.4.26-.17.27-.14.29-.1.3-.07.63-.07h0l.34.02.34.05.33.09.33.12h0l.37.19.36.21.33.25.32.27h0l.53.51.51.53.97,1.1h0l.7.82.73.79h0l.36.31.39.27v-5.56s1.32,0,1.32,0Z"/>
    </g>
  </g>
</svg>