<?xml version="1.0" standalone="no"?>
<!DOCTYPE svg PUBLIC "-//W3C//DTD SVG 1.1//EN"
  "http://www.w3.org/Graphics/SVG/1.1/DTD/svg11.dtd">
<svg width="77mm" height="115.99999999999997mm" viewBox="-147 -147.99999999999997 77 115.99999999999997" xmlns="http://www.w3.org/2000/svg" version="1.1">
	<title>svgOutput</title>
	<desc>made with tinkercad</desc>
<path d="M -71.04900360107422 -84.62599945068358 L -71 -83.99999999999999 L -71 -81.9199981689453 L -71 -65.53600311279295 L -71 -49.15200042724608 L -71 -40.95999908447265 L -71 -36.99999999999999 L -71.04900360107422 -36.3740005493164 L -71.19599914550781 -35.76399993896484 L -71.43599700927734 -35.18399810791015 L -71.76399993896484 -34.64899826049804 L -72.1719970703125 -34.17200088500976 L -72.64900207519531 -33.76399993896484 L -73.18399810791016 -33.4360008239746 L -73.72799682617188 -33.21089553833007 L -73.76399993896484 -33.195999145507805 L -74.3740005493164 -33.048999786376946 L -75 -32.99999999999999 L -77.8239974975586 -32.99999999999999 L -81.91999816894531 -32.99999999999999 L -98.30400085449219 -32.99999999999999 L -131.07200622558594 -32.99999999999999 L -139.26400756835938 -32.99999999999999 L -142 -32.99999999999999 L -142.62600708007812 -33.048999786376946 L -143.23599243164062 -33.195999145507805 L -143.8159942626953 -33.4360008239746 L -144.20489501953125 -33.67442321777343 L -144.3509979248047 -33.76399993896484 L -144.8280029296875 -34.17200088500976 L -145.22714233398438 -34.6386489868164 L -145.23599243164062 -34.64899826049804 L -145.56399536132812 -35.18399810791015 L -145.8040008544922 -35.76399993896484 L -145.8284149169922 -35.865337371826165 L -145.9510040283203 -36.3740005493164 L -145.98934936523438 -36.86399841308593 L -146 -36.99999999999999 L -146 -40.95999908447265 L -146 -49.15200042724608 L -146 -65.53600311279295 L -146 -77.30068206787108 L -146 -79.31840515136717 L -146 -80.84278106689452 L -146 -81.9199981689453 L -146 -83.99999999999999 L -145.9510040283203 -84.62599945068358 L -145.8040008544922 -85.23600006103514 L -145.56399536132812 -85.81600189208983 L -145.23599243164062 -86.35099792480467 L -144.8280029296875 -86.82800292968749 L -144.3509979248047 -87.23600006103514 L -143.8159942626953 -87.56400299072264 L -143.36000061035156 -87.75269317626952 L -143.23599243164062 -87.80400085449217 L -142.62600708007812 -87.95099639892577 L -142 -87.99999999999999 L -139.26400756835938 -87.99999999999999 L -131.07200622558594 -87.99999999999999 L -98.30400085449219 -87.99999999999999 L -81.91999816894531 -87.99999999999999 L -77.8239974975586 -87.99999999999999 L -75 -87.99999999999999 L -74.3740005493164 -87.95099639892577 L -73.76399993896484 -87.80400085449217 L -73.72799682617188 -87.78910064697264 L -73.18399810791016 -87.56400299072264 L -72.64900207519531 -87.23600006103514 L -72.1719970703125 -86.82800292968749 L -71.76399993896484 -86.35099792480467 L -71.43599700927734 -85.81600189208983 L -71.19599914550781 -85.23600006103514 L -71.04900360107422 -84.62599945068358 M -71.04900360107422 -143.6260070800781 L -71 -142.99999999999997 L -71 -139.26400756835935 L -71 -131.0720062255859 L -71 -100.68159484863278 L -71 -99.15721893310544 L -71 -98.30400085449216 L -71 -95.99999999999997 L -71.04900360107422 -95.37400054931639 L -71.19599914550781 -94.76399993896483 L -71.43599700927734 -94.18399810791014 L -71.76399993896484 -93.6490020751953 L -72.1719970703125 -93.17199707031249 L -72.64900207519531 -92.76399993896483 L -73.18399810791016 -92.43599700927733 L -73.72799682617188 -92.21089935302733 L -73.76399993896484 -92.1959991455078 L -74.3740005493164 -92.0490036010742 L -75 -91.99999999999999 L -77.8239974975586 -91.99999999999999 L -81.91999816894531 -91.99999999999999 L -98.30400085449219 -91.99999999999999 L -131.07200622558594 -91.99999999999999 L -139.26400756835938 -91.99999999999999 L -142 -91.99999999999999 L -142.62600708007812 -92.0490036010742 L -143.23599243164062 -92.1959991455078 L -143.36000061035156 -92.24730682373045 L -143.8159942626953 -92.43599700927733 L -144.3509979248047 -92.76399993896483 L -144.8280029296875 -93.17199707031249 L -145.23599243164062 -93.6490020751953 L -145.56399536132812 -94.18399810791014 L -145.8040008544922 -94.76399993896483 L -145.9510040283203 -95.37400054931639 L -146 -95.99999999999997 L -146 -98.30400085449216 L -146 -131.0720062255859 L -146 -139.26400756835935 L -146 -142.99999999999997 L -145.97181701660156 -143.36000061035153 L -145.9510040283203 -143.6260070800781 L -145.8040008544922 -144.2359924316406 L -145.56399536132812 -144.81599426269528 L -145.23599243164062 -145.35099792480466 L -144.8280029296875 -145.82800292968747 L -144.3509979248047 -146.2359924316406 L -143.8159942626953 -146.5639953613281 L -143.23599243164062 -146.80400085449216 L -142.62600708007812 -146.95100402832028 L -142 -146.99999999999997 L -139.26400756835938 -146.99999999999997 L -131.07200622558594 -146.99999999999997 L -98.30400085449219 -146.99999999999997 L -81.91999816894531 -146.99999999999997 L -77.8239974975586 -146.99999999999997 L -75 -146.99999999999997 L -74.3740005493164 -146.95100402832028 L -73.76399993896484 -146.80400085449216 L -73.72799682617188 -146.78910827636716 L -73.18399810791016 -146.5639953613281 L -72.64900207519531 -146.2359924316406 L -72.1719970703125 -145.82800292968747 L -71.76399993896484 -145.35099792480466 L -71.43599700927734 -144.81599426269528 L -71.19599914550781 -144.2359924316406 L -71.04900360107422 -143.6260070800781 M -76.38800048828125 -84.44899749755858 L -76.75 -84.2990036010742 L -77.06099700927734 -84.06099700927733 L -77.13217163085938 -83.96800231933592 L -77.29900360107422 -83.74999999999999 L -77.4489974975586 -83.38800048828124 L -77.5 -82.99999999999999 L -77.4489974975586 -82.61199951171874 L -77.29900360107422 -82.24999999999999 L -77.06099700927734 -81.93900299072264 L -77.03617095947266 -81.9199981689453 L -76.75 -81.70099639892577 L -76.38800048828125 -81.55100250244139 L -76 -81.49999999999999 L -75.61199951171875 -81.55100250244139 L -75.25 -81.70099639892577 L -74.96382904052734 -81.9199981689453 L -74.93900299072266 -81.93900299072264 L -74.70099639892578 -82.24999999999999 L -74.5510025024414 -82.61199951171874 L -74.5 -82.99999999999999 L -74.5510025024414 -83.38800048828124 L -74.70099639892578 -83.74999999999999 L -74.86782836914062 -83.96800231933592 L -74.93900299072266 -84.06099700927733 L -75.25 -84.2990036010742 L -75.61199951171875 -84.44899749755858 L -76 -84.49999999999999 L -76.38800048828125 -84.44899749755858 M -74.5 -37.99999999999999 L -74.5510025024414 -38.38800048828124 L -74.70099639892578 -38.74999999999999 L -74.8249740600586 -38.91199874877929 L -74.93900299072266 -39.0610008239746 L -75.25 -39.298999786376946 L -75.61199951171875 -39.44900131225585 L -76 -39.49999999999999 L -76.38800048828125 -39.44900131225585 L -76.75 -39.298999786376946 L -77.06099700927734 -39.0610008239746 L -77.1750259399414 -38.91199874877929 L -77.29900360107422 -38.74999999999999 L -77.4489974975586 -38.38800048828124 L -77.5 -37.99999999999999 L -77.4489974975586 -37.61199951171874 L -77.29900360107422 -37.24999999999999 L -77.06099700927734 -36.93899917602538 L -76.96299743652344 -36.86399841308593 L -76.75 -36.70100021362304 L -76.38800048828125 -36.55099868774413 L -76 -36.49999999999999 L -75.61199951171875 -36.55099868774413 L -75.25 -36.70100021362304 L -75.03700256347656 -36.86399841308593 L -74.93900299072266 -36.93899917602538 L -74.70099639892578 -37.24999999999999 L -74.5510025024414 -37.61199951171874 L -74.5 -37.99999999999999 M -142.06100463867188 -81.93900299072264 L -142.0361785888672 -81.9199981689453 L -141.75 -81.70099639892577 L -141.38800048828125 -81.55100250244139 L -141 -81.49999999999999 L -140.61199951171875 -81.55100250244139 L -140.25 -81.70099639892577 L -139.9638214111328 -81.9199981689453 L -139.93899536132812 -81.93900299072264 L -139.7010040283203 -82.24999999999999 L -139.55099487304688 -82.61199951171874 L -139.5 -82.99999999999999 L -139.55099487304688 -83.38800048828124 L -139.7010040283203 -83.74999999999999 L -139.86782836914062 -83.96800231933592 L -139.93899536132812 -84.06099700927733 L -140.25 -84.2990036010742 L -140.61199951171875 -84.44899749755858 L -141 -84.49999999999999 L -141.38800048828125 -84.44899749755858 L -141.75 -84.2990036010742 L -142.06100463867188 -84.06099700927733 L -142.13217163085938 -83.96800231933592 L -142.2989959716797 -83.74999999999999 L -142.44900512695312 -83.38800048828124 L -142.5 -82.99999999999999 L -142.44900512695312 -82.61199951171874 L -142.2989959716797 -82.24999999999999 L -142.06100463867188 -81.93900299072264 M -141.75 -39.298999786376946 L -142.06100463867188 -39.0610008239746 L -142.17501831054688 -38.91199874877929 L -142.2989959716797 -38.74999999999999 L -142.44900512695312 -38.38800048828124 L -142.5 -37.99999999999999 L -142.44900512695312 -37.61199951171874 L -142.2989959716797 -37.24999999999999 L -142.06100463867188 -36.93899917602538 L -141.96299743652344 -36.86399841308593 L -141.75 -36.70100021362304 L -141.38800048828125 -36.55099868774413 L -141 -36.49999999999999 L -140.61199951171875 -36.55099868774413 L -140.25 -36.70100021362304 L -140.03700256347656 -36.86399841308593 L -139.93899536132812 -36.93899917602538 L -139.7010040283203 -37.24999999999999 L -139.55099487304688 -37.61199951171874 L -139.5 -37.99999999999999 L -139.55099487304688 -38.38800048828124 L -139.7010040283203 -38.74999999999999 L -139.82498168945312 -38.91199874877929 L -139.93899536132812 -39.0610008239746 L -140.25 -39.298999786376946 L -140.61199951171875 -39.44900131225585 L -141 -39.49999999999999 L -141.38800048828125 -39.44900131225585 L -141.75 -39.298999786376946 M -74.5 -141.99999999999997 L -74.5510025024414 -142.38800048828122 L -74.70099639892578 -142.74999999999997 L -74.93900299072266 -143.06100463867185 L -75.25 -143.29899597167966 L -75.397216796875 -143.36000061035153 L -75.61199951171875 -143.4490051269531 L -76 -143.49999999999997 L -76.38800048828125 -143.4490051269531 L -76.602783203125 -143.36000061035153 L -76.75 -143.29899597167966 L -77.06099700927734 -143.06100463867185 L -77.29900360107422 -142.74999999999997 L -77.4489974975586 -142.38800048828122 L -77.5 -141.99999999999997 L -77.4489974975586 -141.61199951171872 L -77.32469177246094 -141.3119964599609 L -77.29900360107422 -141.24999999999997 L -77.06099700927734 -140.9389953613281 L -76.75 -140.70100402832028 L -76.38800048828125 -140.55099487304685 L -76 -140.49999999999997 L -75.61199951171875 -140.55099487304685 L -75.25 -140.70100402832028 L -74.93900299072266 -140.9389953613281 L -74.70099639892578 -141.24999999999997 L -74.67530822753906 -141.3119964599609 L -74.5510025024414 -141.61199951171872 L -74.5 -141.99999999999997 M -74.5 -96.99999999999997 L -74.5510025024414 -97.38800048828122 L -74.70099639892578 -97.74999999999997 L -74.93900299072266 -98.06099700927732 L -75.25 -98.29900360107419 L -75.26206970214844 -98.30400085449216 L -75.61199951171875 -98.44899749755857 L -76 -98.49999999999997 L -76.38800048828125 -98.44899749755857 L -76.73793029785156 -98.30400085449216 L -76.75 -98.29900360107419 L -77.06099700927734 -98.06099700927732 L -77.29900360107422 -97.74999999999997 L -77.4489974975586 -97.38800048828122 L -77.5 -96.99999999999997 L -77.4489974975586 -96.61199951171872 L -77.30148315429688 -96.25599670410153 L -77.29900360107422 -96.24999999999997 L -77.06099700927734 -95.93900299072264 L -76.75 -95.70099639892577 L -76.38800048828125 -95.55100250244139 L -76 -95.49999999999999 L -75.61199951171875 -95.55100250244139 L -75.25 -95.70099639892577 L -74.93900299072266 -95.93900299072264 L -74.70099639892578 -96.24999999999997 L -74.69851684570312 -96.25599670410153 L -74.5510025024414 -96.61199951171872 L -74.5 -96.99999999999997 M -139.5 -141.99999999999997 L -139.55099487304688 -142.38800048828122 L -139.7010040283203 -142.74999999999997 L -139.93899536132812 -143.06100463867185 L -140.25 -143.29899597167966 L -140.397216796875 -143.36000061035153 L -140.61199951171875 -143.4490051269531 L -141 -143.49999999999997 L -141.38800048828125 -143.4490051269531 L -141.602783203125 -143.36000061035153 L -141.75 -143.29899597167966 L -142.06100463867188 -143.06100463867185 L -142.2989959716797 -142.74999999999997 L -142.44900512695312 -142.38800048828122 L -142.5 -141.99999999999997 L -142.44900512695312 -141.61199951171872 L -142.32469177246094 -141.3119964599609 L -142.2989959716797 -141.24999999999997 L -142.06100463867188 -140.9389953613281 L -141.75 -140.70100402832028 L -141.38800048828125 -140.55099487304685 L -141 -140.49999999999997 L -140.61199951171875 -140.55099487304685 L -140.25 -140.70100402832028 L -139.93899536132812 -140.9389953613281 L -139.7010040283203 -141.24999999999997 L -139.67530822753906 -141.3119964599609 L -139.55099487304688 -141.61199951171872 L -139.5 -141.99999999999997 M -139.5 -96.99999999999997 L -139.55099487304688 -97.38800048828122 L -139.7010040283203 -97.74999999999997 L -139.93899536132812 -98.06099700927732 L -140.25 -98.29900360107419 L -140.26206970214844 -98.30400085449216 L -140.61199951171875 -98.44899749755857 L -141 -98.49999999999997 L -141.38800048828125 -98.44899749755857 L -141.73793029785156 -98.30400085449216 L -141.75 -98.29900360107419 L -142.06100463867188 -98.06099700927732 L -142.2989959716797 -97.74999999999997 L -142.44900512695312 -97.38800048828122 L -142.5 -96.99999999999997 L -142.44900512695312 -96.61199951171872 L -142.30148315429688 -96.25599670410153 L -142.2989959716797 -96.24999999999997 L -142.06100463867188 -95.93900299072264 L -141.75 -95.70099639892577 L -141.38800048828125 -95.55100250244139 L -141 -95.49999999999999 L -140.61199951171875 -95.55100250244139 L -140.25 -95.70099639892577 L -139.93899536132812 -95.93900299072264 L -139.7010040283203 -96.24999999999997 L -139.69851684570312 -96.25599670410153 L -139.55099487304688 -96.61199951171872 L -139.5 -96.99999999999997 z" fill="none" stroke="rgb(255,0,0)" stroke-width="0.001mm" />
</svg>