<?xml version="1.0" standalone="no"?>
<!DOCTYPE svg PUBLIC "-//W3C//DTD SVG 1.1//EN"
  "http://www.w3.org/Graphics/SVG/1.1/DTD/svg11.dtd">
<svg width="42mm" height="28.999999999999993mm" viewBox="-21 -14.499999999999996 42 28.999999999999993" xmlns="http://www.w3.org/2000/svg" version="1.1">
	<title>svgOutput</title>
	<desc>made with tinkercad</desc>
<path d="M 17 -4.499999999999999 L 18.5 1.1102230246251565e-16 L 20 4.499999999999999 L 20 10.499999999999998 L 16.5 10.499999999999998 L 16.5 13.499999999999996 L 16.384000778198242 13.499999999999996 L 11.5 13.499999999999996 L 11.5 8.19200038909912 L 11.5 4.999999999999999 L 8.192000389099121 4.999999999999999 L 0 4.999999999999999 L -8.192000389099121 4.999999999999999 L -11.5 4.999999999999999 L -11.5 8.19200038909912 L -11.5 13.499999999999996 L -16.384000778198242 13.499999999999996 L -16.5 13.499999999999996 L -16.5 10.499999999999998 L -20 10.499999999999998 L -20 4.499999999999999 L -18.5 1.1102230246251565e-16 L -17 -4.499999999999999 L -16.384000778198242 -4.499999999999999 L -15 -4.499999999999999 L -15 -8.19200038909912 L -15 -10.999999999999998 L -14.975000381469727 -11.355999946594237 L -14.89900016784668 -11.70400047302246 L -14.77400016784668 -12.038999557495114 L -14.602999687194824 -12.352000236511227 L -14.388999938964844 -12.637000083923336 L -14.13700008392334 -12.88899993896484 L -13.85200023651123 -13.10299968719482 L -13.538999557495117 -13.274000167846676 L -13.204000473022461 -13.399000167846676 L -12.855999946594238 -13.475000381469723 L -12.5 -13.499999999999996 L -12.288000106811523 -13.499999999999996 L -8.192000389099121 -13.499999999999996 L 0 -13.499999999999996 L 8.192000389099121 -13.499999999999996 L 12.288000106811523 -13.499999999999996 L 12.5 -13.499999999999996 L 12.855999946594238 -13.475000381469723 L 13.204000473022461 -13.399000167846676 L 13.538999557495117 -13.274000167846676 L 13.85200023651123 -13.10299968719482 L 14.13700008392334 -12.88899993896484 L 14.388999938964844 -12.637000083923336 L 14.602999687194824 -12.352000236511227 L 14.77400016784668 -12.038999557495114 L 14.89900016784668 -11.70400047302246 L 14.975000381469727 -11.355999946594237 L 15 -10.999999999999998 L 15 -8.19200038909912 L 15 -4.499999999999999 L 16.384000778198242 -4.499999999999999 L 17 -4.499999999999999 M 10.439000129699707 -11.628000259399412 L 10.239999771118164 -11.593174934387205 L 10.199000358581543 -11.586000442504881 L 9.975000381469727 -11.489000320434569 L 9.779000282287598 -11.343999862670897 L 9.623000144958496 -11.156999588012694 L 9.512999534606934 -10.939000129699705 L 9.456999778747559 -10.701999664306639 L 9.456999778747559 -10.458000183105467 L 9.50851058959961 -10.239999771118162 L 9.512999534606934 -10.2209997177124 L 9.623000144958496 -10.003000259399412 L 9.779000282287598 -9.81599998474121 L 9.975000381469727 -9.670999526977537 L 10.199000358581543 -9.574000358581541 L 10.439000129699707 -9.531999588012694 L 10.682000160217285 -9.545999526977537 L 10.916000366210938 -9.616000175476072 L 11.126999855041504 -9.737999916076658 L 11.303999900817871 -9.90499973297119 L 11.437999725341797 -10.10900020599365 L 11.486052513122559 -10.239999771118162 L 11.522000312805176 -10.338000297546385 L 11.550000190734863 -10.579999923706053 L 11.522000312805176 -10.82199954986572 L 11.437999725341797 -11.050999641418455 L 11.303999900817871 -11.255000114440916 L 11.126999855041504 -11.421999931335447 L 10.916000366210938 -11.543999671936033 L 10.682000160217285 -11.614000320434569 L 10.439000129699707 -11.628000259399412 M 9.456999778747559 1.8780000209808345 L 9.456999778747559 2.04800009727478 L 9.456999778747559 2.1219999790191646 L 9.512999534606934 2.358999967575073 L 9.623000144958496 2.5769999027252193 L 9.779000282287598 2.7639999389648433 L 9.975000381469727 2.908999919891357 L 10.199000358581543 3.006000041961669 L 10.439000129699707 3.0480000972747794 L 10.682000160217285 3.0339999198913565 L 10.916000366210938 2.963999986648559 L 11.126999855041504 2.842000007629394 L 11.303999900817871 2.6749999523162837 L 11.437999725341797 2.470999956130981 L 11.522000312805176 2.2420001029968257 L 11.544445991516113 2.04800009727478 L 11.550000190734863 1.9999999999999996 L 11.522000312805176 1.758000016212463 L 11.437999725341797 1.529000043869018 L 11.303999900817871 1.3250000476837158 L 11.126999855041504 1.1579999923706055 L 10.916000366210938 1.0360000133514404 L 10.682000160217285 0.9660000205039977 L 10.439000129699707 0.9520000219345092 L 10.199000358581543 0.9940000176429747 L 9.975000381469727 1.090999960899353 L 9.779000282287598 1.2359999418258667 L 9.623000144958496 1.4229999780654907 L 9.512999534606934 1.6410000324249263 L 9.456999778747559 1.8780000209808345 M -10.083999633789062 -11.543999671936033 L -10.239999771118164 -11.590666770935057 L -10.317999839782715 -11.614000320434569 L -10.560999870300293 -11.628000259399412 L -10.800999641418457 -11.586000442504881 L -11.024999618530273 -11.489000320434569 L -11.220999717712402 -11.343999862670897 L -11.376999855041504 -11.156999588012694 L -11.487000465393066 -10.939000129699705 L -11.543000221252441 -10.701999664306639 L -11.543000221252441 -10.458000183105467 L -11.49148941040039 -10.239999771118162 L -11.487000465393066 -10.2209997177124 L -11.376999855041504 -10.003000259399412 L -11.220999717712402 -9.81599998474121 L -11.024999618530273 -9.670999526977537 L -10.800999641418457 -9.574000358581541 L -10.560999870300293 -9.531999588012694 L -10.317999839782715 -9.545999526977537 L -10.083999633789062 -9.616000175476072 L -9.873000144958496 -9.737999916076658 L -9.696000099182129 -9.90499973297119 L -9.562000274658203 -10.10900020599365 L -9.513947486877441 -10.239999771118162 L -9.477999687194824 -10.338000297546385 L -9.449999809265137 -10.579999923706053 L -9.477999687194824 -10.82199954986572 L -9.562000274658203 -11.050999641418455 L -9.696000099182129 -11.255000114440916 L -9.873000144958496 -11.421999931335447 L -10.083999633789062 -11.543999671936033 M -10.800999641418457 0.9940000176429747 L -11.024999618530273 1.090999960899353 L -11.220999717712402 1.2359999418258667 L -11.376999855041504 1.4229999780654907 L -11.487000465393066 1.6410000324249263 L -11.543000221252441 1.8780000209808345 L -11.543000221252441 2.04800009727478 L -11.543000221252441 2.1219999790191646 L -11.487000465393066 2.358999967575073 L -11.376999855041504 2.5769999027252193 L -11.220999717712402 2.7639999389648433 L -11.024999618530273 2.908999919891357 L -10.800999641418457 3.006000041961669 L -10.560999870300293 3.0480000972747794 L -10.317999839782715 3.0339999198913565 L -10.083999633789062 2.963999986648559 L -9.873000144958496 2.842000007629394 L -9.696000099182129 2.6749999523162837 L -9.562000274658203 2.470999956130981 L -9.477999687194824 2.2420001029968257 L -9.455554008483887 2.04800009727478 L -9.449999809265137 1.9999999999999996 L -9.477999687194824 1.758000016212463 L -9.562000274658203 1.529000043869018 L -9.696000099182129 1.3250000476837158 L -9.873000144958496 1.1579999923706055 L -10.083999633789062 1.0360000133514404 L -10.317999839782715 0.9660000205039977 L -10.560999870300293 0.9520000219345092 L -10.800999641418457 0.9940000176429747 z" fill="none" stroke="rgb(255,0,0)" stroke-width="0.001mm" />
</svg>