<?xml version="1.0" standalone="no"?>
<!DOCTYPE svg PUBLIC "-//W3C//DTD SVG 1.1//EN"
  "http://www.w3.org/Graphics/SVG/1.1/DTD/svg11.dtd">
<svg width="201mm" height="173.77400207519528mm" viewBox="-142 -136.77400207519528 201 173.77400207519528" xmlns="http://www.w3.org/2000/svg" version="1.1">
	<title>svgOutput</title>
	<desc>made with tinkercad</desc>
<path d="M -11.37399959564209 35.95100021362304 L -12 35.99999999999999 L -32.768001556396484 35.99999999999999 L -59 35.99999999999999 L -59.625999450683594 35.95100021362304 L -60.236000061035156 35.80400085449218 L -60.816001892089844 35.56399917602538 L -61.35100173950195 35.23600006103515 L -61.827999114990234 34.82799911499023 L -62.236000061035156 34.351001739501946 L -62.45119094848633 33.99999999999999 L -62.56399917602539 33.81600189208984 L -62.80400085449219 33.23600006103515 L -62.916778564453125 32.76800155639648 L -62.95100021362305 32.62599945068359 L -63 31.999999999999993 L -63 28.67200088500976 L -63 24.57600021362304 L -63 16.38400077819824 L -63 1.1102230246251565e-16 L -63 -32.76800155639648 L -63 -34.99999999999999 L -62.95100021362305 -35.62599945068359 L -62.89201354980469 -35.87077331542968 L -62.80400085449219 -36.23600006103515 L -62.56399917602539 -36.81600189208984 L -62.53457260131836 -36.86399841308593 L -62.236000061035156 -37.351001739501946 L -61.827999114990234 -37.82799911499023 L -61.35100173950195 -38.23600006103515 L -60.816001892089844 -38.56399917602538 L -60.236000061035156 -38.80400085449218 L -59.625999450683594 -38.95100021362304 L -59 -38.99999999999999 L -57.34400177001953 -38.99999999999999 L -57.1572151184082 -38.99999999999999 L -49.152000427246094 -38.99999999999999 L -37 -38.99999999999999 L -32.768001556396484 -38.99999999999999 L -16.384000778198242 -38.99999999999999 L -12.288000106811523 -38.99999999999999 L -12 -38.99999999999999 L -11.37399959564209 -38.95100021362304 L -10.763999938964844 -38.80400085449218 L -10.184000015258789 -38.56399917602538 L -9.64900016784668 -38.23600006103515 L -9.17199993133545 -37.82799911499023 L -8.763999938964844 -37.351001739501946 L -8.465428352355957 -36.86399841308593 L -8.435999870300293 -36.81600189208984 L -8.196000099182129 -36.23600006103515 L -8.192000389099121 -36.219402313232415 L -8.048999786376953 -35.62599945068359 L -8 -34.99999999999999 L -8 -32.76800155639648 L -8 -30.318403244018548 L -8 1.1102230246251565e-16 L -8 16.38400077819824 L -8 24.57600021362304 L -8 31.999999999999993 L -8.048999786376953 32.62599945068359 L -8.083219528198242 32.76800155639648 L -8.196000099182129 33.23600006103515 L -8.435999870300293 33.81600189208984 L -8.548807144165039 33.99999999999999 L -8.763999938964844 34.351001739501946 L -9.17199993133545 34.82799911499023 L -9.64900016784668 35.23600006103515 L -10.184000015258789 35.56399917602538 L -10.763999938964844 35.80400085449218 L -11.37399959564209 35.95100021362304 M -64.60564422607422 -131.4649963378906 L -63.64736557006836 -131.0720062255859 L -63.368221282958984 -130.95751953124997 L -63.1469841003418 -130.86431884765622 L -63 -130.7977142333984 L -61.95372772216797 -130.32353210449216 L -61.73598861694336 -130.22315979003903 L -60.58773422241211 -129.64987182617185 L -60.37399673461914 -129.54216003417966 L -59.271568298339844 -128.9355316162109 L -59.0625 -128.81999206542966 L -58.85859680175781 -128.69645690917966 L -57.802833557128906 -128.0565032958984 L -57.604434967041016 -127.92445373535153 L -56.59450149536133 -127.25116729736325 L -56.40227127075195 -127.11045837402341 L -55.440670013427734 -126.40383148193357 L -55.254940032958984 -126.25411987304685 L -54.34000015258789 -125.5133361816406 L -54.0067253112793 -125.21306610107419 L -52.36349868774414 -123.7323303222656 L -52.216617584228516 -123.58245086669919 L -51.48416519165039 -122.83416748046872 L -51.34611892700195 -122.67644500732419 L -50.65700149536133 -121.88899993896482 L -49.882999420166016 -120.8970031738281 L -49.467567443847656 -120.1245422363281 L -49.44200134277344 -120.07700347900388 L -49.34479904174805 -119.92745208740232 L -49.152000427246094 -119.6179275512695 L -48.41986083984375 -118.44255065917966 L -48.32883071899414 -118.28949737548825 L -47.513885498046875 -116.72543334960935 L -47.349830627441406 -116.40916442871091 L -46.643211364746094 -114.76593780517575 L -46.609832763671875 -114.68800354003903 L -46.502830505371094 -114.43816375732419 L -45.901206970214844 -112.71578216552732 L -45.784000396728516 -112.37899780273435 L -45.42235565185547 -111.04075622558591 L -45.34416580200195 -110.74848937988278 L -45.03501892089844 -109.36274719238278 L -44.97032928466797 -109.06648254394528 L -44.712013244628906 -107.63407897949216 L -44.66016387939453 -107.33531188964841 L -44.451011657714844 -105.85874938964841 L -44.4109992980957 -105.55914306640622 L -44.2518424987793 -104.03758239746091 L -44.222164154052734 -103.73614501953122 L -44.1113395690918 -102.1704177856445 L -44.09149932861328 -101.86748504638669 L -44.02817153930664 -100.25842285156247 L -44.01749801635742 -99.95515441894528 L -44.00251388549805 -98.30400085449216 L -44.00250244140625 -98.3027648925781 L -44 -97.99999999999997 L -44 -81.9199981689453 L -44 -65.53600311279295 L -44 -42.99999999999999 L -63 -42.99999999999999 L -68 -42.99999999999999 L -71.5 -42.99999999999999 L -71.5 -46.99999999999999 L -81.5 -46.99999999999999 L -81.5 -42.99999999999999 L -101.5 -42.99999999999999 L -101.5 -46.99999999999999 L -111.5 -46.99999999999999 L -111.5 -42.99999999999999 L -131.07200622558594 -42.99999999999999 L -139 -42.99999999999999 L -139 -97.99999999999997 L -138.99749755859375 -98.3027648925781 L -138.9824981689453 -99.95515441894528 L -138.97183227539062 -100.25842285156247 L -138.90850830078125 -101.86748504638669 L -138.88865661621094 -102.1704177856445 L -138.77783203125 -103.73614501953122 L -138.74815368652344 -104.03758239746091 L -138.58900451660156 -105.55914306640622 L -138.5489959716797 -105.85874938964841 L -138.33984375 -107.33531188964841 L -138.28797912597656 -107.63407897949216 L -138.0296630859375 -109.06648254394528 L -137.96498107910156 -109.36274719238278 L -137.6558380126953 -110.74848937988278 L -137.57763671875 -111.04075622558591 L -137.21600341796875 -112.37899780273435 L -137.0988006591797 -112.71578216552732 L -136.49716186523438 -114.43816375732419 L -136.35678100585938 -114.76593780517575 L -136.1272735595703 -115.29965972900388 L -135.65016174316406 -116.40916442871091 L -135.48611450195312 -116.72543334960935 L -134.67117309570312 -118.28949737548825 L -134.58013916015625 -118.44255065917966 L -133.6551971435547 -119.92745208740232 L -133.55799865722656 -120.07700347900388 L -133.11700439453125 -120.8970031738281 L -132.34300231933594 -121.88899993896482 L -131.6538848876953 -122.67644500732419 L -131.51583862304688 -122.83416748046872 L -131.07200622558594 -123.28759002685544 L -130.78338623046875 -123.58245086669919 L -130.63650512695312 -123.7323303222656 L -128.99327087402344 -125.21306610107419 L -128.6548309326172 -125.51766967773435 L -127.7398910522461 -126.2584533691406 L -127.548828125 -126.41183471679685 L -126.58722686767578 -127.11845397949216 L -126.38916015625 -127.26250457763669 L -125.37922668457031 -127.93579101562497 L -125.1748275756836 -128.07051086425778 L -124.11906433105469 -128.71046447753903 L -123.90898895263672 -128.8363342285156 L -122.87999725341797 -129.40255737304685 L -122.80656433105469 -129.44296264648435 L -122.59132385253906 -129.5601654052734 L -121.44306945800781 -130.13346862792966 L -121.22349548339844 -130.24250793457028 L -120.03024291992188 -130.78329467773435 L -119.80699920654297 -130.8845062255859 L -119.806396484375 -130.8847503662109 L -119.57975769042969 -130.97819519042966 L -119.35102844238281 -131.0720062255859 L -118.34233856201172 -131.48565673828122 L -118.1115951538086 -131.57235717773435 L -116.83084869384766 -132.0464935302734 L -116.59693908691406 -132.12652587890622 L -115.27285766601562 -132.56732177734372 L -115.03644561767578 -132.6408538818359 L -113.67070770263672 -133.0483245849609 L -113.19204711914062 -133.17669677734372 L -111.78380584716797 -133.55000305175778 L -110.3355712890625 -133.89082336425778 L -109.85240936279297 -133.99601745605466 L -108.36251068115234 -134.30265808105466 L -108.02906799316406 -134.36268615722653 L -106.5 -134.63600158691403 L -106.5 -131.63600158691403 L -98.30400085449219 -131.63600158691403 L -76.5 -131.63600158691403 L -76.5 -134.63600158691403 L -74.97093200683594 -134.36268615722653 L -74.63748931884766 -134.30265808105466 L -73.14759063720703 -133.99601745605466 L -72.85982513427734 -133.93617248535153 L -71.41159057617188 -133.59535217285153 L -71.14383697509766 -133.5323333740234 L -70.89524841308594 -133.46681213378903 L -69.48701477050781 -133.09350585937497 L -69.2552719116211 -133.0259857177734 L -68 -132.6514739990234 L -67.8895263671875 -132.6185150146484 L -66.56544494628906 -132.17770385742185 L -66.11062622070312 -132.02531433105466 L -65.53600311279297 -131.81259155273435 L -64.82987976074219 -131.5511779785156 L -64.60564422607422 -131.4649963378906 M 38.1633186340332 -131.1555023193359 L 38.35576629638672 -131.0720062255859 L 39.45590591430664 -130.5946350097656 L 39.68915939331055 -130.4921722412109 L 40.930076599121094 -129.89379882812497 L 41.159000396728516 -129.78300476074216 L 42.38199996948242 -129.13400268554685 L 43.55799865722656 -128.45300292968747 L 44.68899917602539 -127.73799896240232 L 45.77199935913086 -126.9899978637695 L 46.808998107910156 -126.20899963378903 L 47.79800033569336 -125.39499664306638 L 48.7400016784668 -124.54799652099607 L 49.152000427246094 -124.1419982910156 L 49.632999420166016 -123.6679992675781 L 50.47999954223633 -122.75399780273435 L 51.27799987792969 -121.80699920654294 L 52.029998779296875 -120.82700347900388 L 52.73400115966797 -119.81400299072263 L 53.391998291015625 -118.76799774169919 L 54.00400161743164 -117.68800354003903 L 54.56999969482422 -116.57599639892575 L 55.09199905395508 -115.43099975585935 L 55.38791275024414 -114.68800354003903 L 55.589534759521484 -114.18174743652341 L 55.68925476074219 -113.931037902832 L 55.689666748046875 -113.93000030517575 L 56.12886047363281 -112.6357498168945 L 56.215999603271484 -112.37899780273435 L 56.49018478393555 -111.38726806640622 L 56.54833221435547 -111.17600250244138 L 56.79335021972656 -110.157600402832 L 56.843997955322266 -109.94400787353513 L 57.0606803894043 -108.89977264404294 L 57.14181900024414 -108.46791839599607 L 57.33016586303711 -107.39867401123044 L 57.49100875854492 -106.30360412597653 L 57.547157287597656 -105.86907958984372 L 57.68050003051758 -104.74983978271482 L 57.787174224853516 -103.60643005371091 L 57.82182693481445 -103.16841125488278 L 57.9010009765625 -101.99999999999997 L 58 -101.99999999999997 L 58 -100.5389709472656 L 58 -98.30400085449216 L 58 -81.9199981689453 L 58 -73.72799682617186 L 58 -65.53600311279295 L 58 -62.31322860717772 L 58 -49.15200042724608 L 58 -42.99999999999999 L 49.152000427246094 -42.99999999999999 L 33 -42.99999999999999 L 32.768001556396484 -42.99999999999999 L 30.5 -42.99999999999999 L 30.5 -46.99999999999999 L 25 -46.99999999999999 L 20.5 -46.99999999999999 L 20.5 -42.99999999999999 L 0.5 -42.99999999999999 L 0.5 -46.99999999999999 L 0 -46.99999999999999 L -8 -46.99999999999999 L -9.5 -46.99999999999999 L -9.5 -42.99999999999999 L -12 -42.99999999999999 L -16.384000778198242 -42.99999999999999 L -32.768001556396484 -42.99999999999999 L -37 -42.99999999999999 L -37 -65.53600311279295 L -37 -98.30400085449216 L -37 -100.5389709472656 L -37 -101.99999999999997 L -36.9010009765625 -101.99999999999997 L -36.82182693481445 -103.16841125488278 L -36.787174224853516 -103.60643005371091 L -36.68050003051758 -104.74983978271482 L -36.547157287597656 -105.86907958984372 L -36.49100875854492 -106.30360412597653 L -36.33016586303711 -107.39867401123044 L -36.14181900024414 -108.46791839599607 L -36.0606803894043 -108.89977264404294 L -35.843997955322266 -109.94400787353513 L -35.79335021972656 -110.157600402832 L -35.54833221435547 -111.17600250244138 L -35.49018478393555 -111.38726806640622 L -35.215999603271484 -112.37899780273435 L -35.12886047363281 -112.6357498168945 L -34.689666748046875 -113.93000030517575 L -34.68925476074219 -113.931037902832 L -34.589534759521484 -114.18174743652341 L -34.09199905395508 -115.43099975585935 L -33.56999969482422 -116.57599639892575 L -33.00400161743164 -117.68800354003903 L -32.768001556396484 -118.10446929931638 L -32.391998291015625 -118.76799774169919 L -31.733999252319336 -119.81400299072263 L -31.030000686645508 -120.82700347900388 L -30.277999877929688 -121.80699920654294 L -29.479999542236328 -122.75399780273435 L -28.632999420166016 -123.6679992675781 L -27.739999771118164 -124.54799652099607 L -26.79800033569336 -125.39499664306638 L -25.80900001525879 -126.20899963378903 L -24.77199935913086 -126.9899978637695 L -23.68899917602539 -127.73799896240232 L -22.558000564575195 -128.45300292968747 L -21.381999969482422 -129.13400268554685 L -20.159000396728516 -129.78300476074216 L -18.91808319091797 -130.3813781738281 L -18.62401580810547 -130.52182006835935 L -17.356081008911133 -131.0720062255859 L -17.33142852783203 -131.08270263671872 L -17.03086280822754 -131.20965576171872 L -15.688273429870605 -131.7330169677734 L -15.38104248046875 -131.84765624999997 L -13.990116119384766 -132.33268737792966 L -13.677720069885254 -132.43548583984372 L -12.237624168395996 -132.88301086425778 L -11.92123031616211 -132.97448730468747 L -10.434464454650879 -133.3845062255859 L -10.115070343017578 -133.4653167724609 L -8.580801963806152 -133.83700561523435 L -8.25974178314209 -133.90765380859372 L -8 -133.96244812011716 L -6.6796369552612305 -134.24101257324216 L -6.357910633087158 -134.3019866943359 L -4.731968879699707 -134.5961761474609 L -4.409243106842041 -134.64831542968747 L -2.7391319274902344 -134.90499877929685 L -2.4144067764282227 -134.94898986816403 L -0.6992925405502319 -135.16566467285153 L -0.37273475527763367 -135.20182800292966 L 0 -135.2396087646484 L 1.3865491151809692 -135.38017272949216 L 1.71427321434021 -135.40899658203122 L 3.5168933868408203 -135.54733276367185 L 4.1741743087768555 -135.58415222167966 L 6.0209641456604 -135.6833343505859 L 7.911089897155762 -135.74333190917966 L 8.567371368408203 -135.75483703613278 L 10.5 -135.77400207519528 L 10.746917724609375 -135.77250671386716 L 12.679546356201172 -135.7533264160156 L 12.919300079345703 -135.74867248535153 L 14.809426307678223 -135.68865966796872 L 15.041848182678223 -135.68116760253903 L 15.26727294921875 -135.67066955566403 L 16.384000778198242 -135.6107025146484 L 17.114063262939453 -135.57150268554685 L 17.332656860351562 -135.5585021972656 L 17.54442024230957 -135.5429992675781 L 19.3470401763916 -135.40466308593747 L 19.750404357910156 -135.36666870117185 L 21.509689331054688 -135.18832397460935 L 21.88706398010254 -135.14201354980466 L 23.602176666259766 -134.92533874511716 L 23.95439338684082 -134.87200927734372 L 25.62450408935547 -134.61532592773435 L 25.95256233215332 -134.5560150146484 L 27.57850456237793 -134.2618255615234 L 27.883235931396484 -134.1978607177734 L 29.463340759277344 -133.86450195312497 L 29.745412826538086 -133.7970275878906 L 31.279682159423828 -133.4253234863281 L 31.540096282958984 -133.35534667968747 L 32.768001556396484 -133.0167083740234 L 33.02686309814453 -132.94532775878903 L 33.271278381347656 -132.87251281738278 L 34.71137619018555 -132.42498779296872 L 34.95329666137695 -132.34552001953122 L 36.34422302246094 -131.86047363281247 L 36.5839729309082 -131.77351379394528 L 37.92656326293945 -131.25013732910153 L 38.1633186340332 -131.1555023193359 M -84.5 -36.636001586914055 L -80.88108825683594 -32.76800155639648 L -75.12965393066406 -26.620700836181634 L -74.5489273071289 -25.999999999999993 L -74.00215148925781 -25.41559410095214 L -73.21662902832031 -24.57600021362304 L -69.3843994140625 -20.479999542236325 L -68.80899810791016 -19.86499977111816 L -68.46499633789062 -19.42000007629394 L -68.20999908447266 -18.91799926757812 L -68.0530014038086 -18.37599945068359 L -68 -17.815999984741207 L -68 -16.38400077819824 L -68 -12.28800010681152 L -68 -8.19200038909912 L -68 1.1102230246251565e-16 L -68 16.38400077819824 L -68 22.34468078613281 L -68 23.59330368041992 L -68 24.57600021362304 L -68 28.67200088500976 L -68 30.999999999999993 L -68.05799865722656 31.58499908447265 L -68.22799682617188 32.147998809814446 L -68.50599670410156 32.66600036621093 L -68.58961486816406 32.76800155639648 L -68.87899780273438 33.12099838256835 L -69.33300018310547 33.493999481201165 L -69.85199737548828 33.77099990844726 L -70.41500091552734 33.94200134277343 L -71 33.99999999999999 L -98.30400085449219 33.99999999999999 L -112.38500213623047 33.99999999999999 L -112.38500213623047 30.999999999999993 L -131.07200622558594 30.999999999999993 L -132.38499450683594 30.999999999999993 L -132.38499450683594 32.76800155639648 L -132.38499450683594 33.99999999999999 L -138 33.99999999999999 L -138.5850067138672 33.94200134277343 L -139.1479949951172 33.77099990844726 L -139.66700744628906 33.493999481201165 L -140.12100219726562 33.12099838256835 L -140.41038513183594 32.76800155639648 L -140.49400329589844 32.66600036621093 L -140.77200317382812 32.147998809814446 L -140.94200134277344 31.58499908447265 L -141 30.999999999999993 L -141 24.57600021362304 L -141 16.38400077819824 L -141 1.1102230246251565e-16 L -141 -8.19200038909912 L -141 -16.38400077819824 L -141 -17.815999984741207 L -140.94700622558594 -18.37599945068359 L -140.7899932861328 -18.91799926757812 L -140.53500366210938 -19.42000007629394 L -140.1909942626953 -19.86499977111816 L -139.26400756835938 -20.85580444335937 L -135.7833709716797 -24.57600021362304 L -131.07200622558594 -29.611654281616204 L -127.30680847167969 -33.636001586914055 L -124.5 -36.636001586914055 L -121 -36.636001586914055 L -121 -33.636001586914055 L -98.30400085449219 -33.636001586914055 L -88 -33.636001586914055 L -88 -36.636001586914055 L -84.5 -36.636001586914055 M -67.95185852050781 -126.97599792480466 L -68 -126.92990112304685 L -68.072998046875 -126.86000061035153 L -68.25900268554688 -126.55200195312497 L -68.35900115966797 -126.20800018310544 L -68.36699676513672 -125.84899902343747 L -68.28099822998047 -125.49999999999997 L -68.10800170898438 -125.18599700927732 L -68 -125.07366180419919 L -67.8599624633789 -124.92800140380857 L -67.85900115966797 -124.92700195312497 L -67.552001953125 -124.7409973144531 L -67.20700073242188 -124.640998840332 L -66.8489990234375 -124.63400268554685 L -66.5 -124.7190017700195 L -66.18599700927734 -124.8919982910156 L -66.14855194091797 -124.92800140380857 L -65.927001953125 -125.140998840332 L -65.74099731445312 -125.44799804687497 L -65.64099884033203 -125.7929992675781 L -65.63300323486328 -126.15200042724607 L -65.71900177001953 -126.49999999999997 L -65.89199829101562 -126.81500244140622 L -66.04678344726562 -126.97599792480466 L -66.14099884033203 -127.07399749755857 L -66.447998046875 -127.26000213623044 L -66.79299926757812 -127.36000061035153 L -67.1510009765625 -127.36699676513669 L -67.5 -127.28099822998044 L -67.81400299072266 -127.10800170898435 L -67.95185852050781 -126.97599792480466 M -66.447998046875 -69.26000213623045 L -66.79299926757812 -69.36000061035155 L -67.1510009765625 -69.3669967651367 L -67.5 -69.28099822998045 L -67.81400299072266 -69.10800170898436 L -68 -68.92990112304686 L -68.072998046875 -68.86000061035155 L -68.25900268554688 -68.55200195312499 L -68.35900115966797 -68.20800018310545 L -68.36699676513672 -67.84899902343749 L -68.30169677734375 -67.58399963378905 L -68.28099822998047 -67.49999999999999 L -68.10800170898438 -67.18599700927733 L -68 -67.0736618041992 L -67.85900115966797 -66.92700195312499 L -67.552001953125 -66.74099731445311 L -67.20700073242188 -66.64099884033202 L -66.8489990234375 -66.63400268554686 L -66.5 -66.71900177001952 L -66.18599700927734 -66.8929977416992 L -65.927001953125 -67.14099884033202 L -65.74099731445312 -67.44799804687499 L -65.70157623291016 -67.58399963378905 L -65.64099884033203 -67.79299926757811 L -65.63300323486328 -68.15200042724608 L -65.71900177001953 -68.49999999999999 L -65.89199829101562 -68.81500244140624 L -66.14099884033203 -69.07399749755858 L -66.447998046875 -69.26000213623045 M 44.29899978637695 -113.74999999999997 L 44.06100082397461 -114.06099700927732 L 43.75 -114.29900360107419 L 43.38800048828125 -114.44899749755857 L 43 -114.49999999999997 L 42.61199951171875 -114.44899749755857 L 42.25 -114.29900360107419 L 41.93899917602539 -114.06099700927732 L 41.70100021362305 -113.74999999999997 L 41.55099868774414 -113.38800048828122 L 41.5 -112.99999999999997 L 41.54732131958008 -112.63999938964841 L 41.55099868774414 -112.61199951171872 L 41.70100021362305 -112.24999999999997 L 41.93899917602539 -111.93900299072263 L 42.25 -111.70099639892575 L 42.61199951171875 -111.55100250244138 L 43 -111.49999999999997 L 43.38800048828125 -111.55100250244138 L 43.75 -111.70099639892575 L 44.06100082397461 -111.93900299072263 L 44.29899978637695 -112.24999999999997 L 44.44900131225586 -112.61199951171872 L 44.45267868041992 -112.63999938964841 L 44.5 -112.99999999999997 L 44.44900131225586 -113.38800048828122 L 44.29899978637695 -113.74999999999997 M 17.43899917602539 -130.06100463867185 L 17.201000213623047 -129.74999999999997 L 17.051000595092773 -129.38800048828122 L 17.003154754638672 -129.02400207519528 L 17 -128.99999999999997 L 17.051000595092773 -128.61199951171872 L 17.201000213623047 -128.24999999999997 L 17.43899917602539 -127.93900299072263 L 17.75 -127.70099639892575 L 18.11199951171875 -127.55100250244138 L 18.5 -127.49999999999997 L 18.88800048828125 -127.55100250244138 L 19.25 -127.70099639892575 L 19.56100082397461 -127.93900299072263 L 19.798999786376953 -128.24999999999997 L 19.948999404907227 -128.61199951171872 L 20 -128.99999999999997 L 19.996845245361328 -129.02400207519528 L 19.948999404907227 -129.38800048828122 L 19.798999786376953 -129.74999999999997 L 19.56100082397461 -130.06100463867185 L 19.25 -130.29899597167966 L 18.88800048828125 -130.4490051269531 L 18.5 -130.49999999999997 L 18.11199951171875 -130.4490051269531 L 17.75 -130.29899597167966 L 17.43899917602539 -130.06100463867185 M 4 -128.99999999999997 L 3.996845245361328 -129.02400207519528 L 3.9489998817443848 -129.38800048828122 L 3.7990000247955322 -129.74999999999997 L 3.561000108718872 -130.06100463867185 L 3.25 -130.29899597167966 L 2.888000011444092 -130.4490051269531 L 2.5 -130.49999999999997 L 2.111999988555908 -130.4490051269531 L 1.75 -130.29899597167966 L 1.4390000104904175 -130.06100463867185 L 1.2009999752044678 -129.74999999999997 L 1.0509999990463257 -129.38800048828122 L 1.0031546354293823 -129.02400207519528 L 1 -128.99999999999997 L 1.0509999990463257 -128.61199951171872 L 1.2009999752044678 -128.24999999999997 L 1.4390000104904175 -127.93900299072263 L 1.75 -127.70099639892575 L 2.111999988555908 -127.55100250244138 L 2.5 -127.49999999999997 L 2.888000011444092 -127.55100250244138 L 3.25 -127.70099639892575 L 3.561000108718872 -127.93900299072263 L 3.7990000247955322 -128.24999999999997 L 3.9489998817443848 -128.61199951171872 L 4 -128.99999999999997 M 12 -115.14399719238278 L 11.949000358581543 -115.53199768066403 L 11.798999786376953 -115.89399719238278 L 11.560999870300293 -116.20400238037107 L 11.25 -116.443000793457 L 10.887999534606934 -116.59300231933591 L 10.5 -116.64399719238278 L 10.112000465393066 -116.59300231933591 L 9.75 -116.443000793457 L 9.439000129699707 -116.20400238037107 L 9.201000213623047 -115.89399719238278 L 9.050999641418457 -115.53199768066403 L 9 -115.14399719238278 L 9.050999641418457 -114.75499725341794 L 9.078839302062988 -114.68800354003903 L 9.201000213623047 -114.39399719238278 L 9.439000129699707 -114.08300018310544 L 9.75 -113.8450012207031 L 10.112000465393066 -113.69499969482419 L 10.5 -113.64399719238278 L 10.887999534606934 -113.69499969482419 L 11.25 -113.8450012207031 L 11.560999870300293 -114.08300018310544 L 11.798999786376953 -114.39399719238278 L 11.921160697937012 -114.68800354003903 L 11.949000358581543 -114.75499725341794 L 12 -115.14399719238278 M 50.4370002746582 -67.78500366210936 L 50.41090393066406 -67.58399963378905 L 50.400001525878906 -67.49999999999999 L 50.4370002746582 -67.21499633789061 L 50.547000885009766 -66.94999694824217 L 50.72200012207031 -66.7220001220703 L 50.95000076293945 -66.54699707031249 L 51.21500015258789 -66.43800354003905 L 51.5 -66.40000152587889 L 51.78499984741211 -66.43800354003905 L 52.04999923706055 -66.54699707031249 L 52.27799987792969 -66.7220001220703 L 52.452999114990234 -66.94999694824217 L 52.5629997253418 -67.21499633789061 L 52.599998474121094 -67.49999999999999 L 52.58909606933594 -67.58399963378905 L 52.5629997253418 -67.78500366210936 L 52.452999114990234 -68.0500030517578 L 52.27799987792969 -68.27799987792967 L 52.04999923706055 -68.45300292968749 L 51.78499984741211 -68.56300354003905 L 51.5 -68.59999847412108 L 51.21500015258789 -68.56300354003905 L 50.95000076293945 -68.45300292968749 L 50.72200012207031 -68.27799987792967 L 50.547000885009766 -68.0500030517578 L 50.4370002746582 -67.78500366210936 M 44.44900131225586 -67.61199951171874 L 44.5 -67.99999999999999 L 44.44900131225586 -68.38800048828124 L 44.29899978637695 -68.74999999999999 L 44.06100082397461 -69.06099700927733 L 43.75 -69.2990036010742 L 43.38800048828125 -69.44899749755858 L 43 -69.49999999999999 L 42.61199951171875 -69.44899749755858 L 42.25 -69.2990036010742 L 41.93899917602539 -69.06099700927733 L 41.70100021362305 -68.74999999999999 L 41.55099868774414 -68.38800048828124 L 41.5 -67.99999999999999 L 41.55099868774414 -67.61199951171874 L 41.56260299682617 -67.58399963378905 L 41.70100021362305 -67.24999999999999 L 41.93899917602539 -66.93900299072264 L 42.25 -66.70099639892577 L 42.61199951171875 -66.55100250244139 L 43 -66.49999999999999 L 43.38800048828125 -66.55100250244139 L 43.75 -66.70099639892577 L 44.06100082397461 -66.93900299072264 L 44.29899978637695 -67.24999999999999 L 44.43739700317383 -67.58399963378905 L 44.44900131225586 -67.61199951171874 M 25 -65.99999999999999 L 25 -65.53600311279295 L 25 -50.999999999999986 L 30.5 -50.999999999999986 L 32.768001556396484 -50.999999999999986 L 33 -50.999999999999986 L 33 -65.53600311279295 L 33 -65.99999999999999 L 32.768001556396484 -65.99999999999999 L 25 -65.99999999999999 M 50.4370002746582 -49.215000152587876 L 50.46315002441406 -49.15200042724608 L 50.547000885009766 -48.95000076293944 L 50.72200012207031 -48.7220001220703 L 50.95000076293945 -48.54700088500975 L 51.21500015258789 -48.43799972534178 L 51.5 -48.40000152587889 L 51.78499984741211 -48.43799972534178 L 52.04999923706055 -48.54700088500975 L 52.27799987792969 -48.7220001220703 L 52.452999114990234 -48.95000076293944 L 52.53684997558594 -49.15200042724608 L 52.5629997253418 -49.215000152587876 L 52.599998474121094 -49.499999999999986 L 52.5629997253418 -49.784999847412095 L 52.452999114990234 -50.04999923706053 L 52.27799987792969 -50.27799987792967 L 52.04999923706055 -50.45299911499022 L 51.78499984741211 -50.56299972534178 L 51.5 -50.59999847412108 L 51.21500015258789 -50.56299972534178 L 50.95000076293945 -50.45299911499022 L 50.72200012207031 -50.27799987792967 L 50.547000885009766 -50.04999923706053 L 50.4370002746582 -49.784999847412095 L 50.400001525878906 -49.499999999999986 L 50.4370002746582 -49.215000152587876 M -57.54732131958008 -112.63999938964841 L -57.5 -112.99999999999997 L -57.55099868774414 -113.38899993896482 L -57.70100021362305 -113.74999999999997 L -57.93899917602539 -114.06099700927732 L -58.25 -114.29900360107419 L -58.61199951171875 -114.44899749755857 L -59 -114.49999999999997 L -59.38800048828125 -114.44899749755857 L -59.75 -114.29900360107419 L -60.06100082397461 -114.06099700927732 L -60.29899978637695 -113.74999999999997 L -60.44900131225586 -113.38899993896482 L -60.5 -112.99999999999997 L -60.45267868041992 -112.63999938964841 L -60.44900131225586 -112.61199951171872 L -60.29899978637695 -112.24999999999997 L -60.06100082397461 -111.94000244140622 L -59.75 -111.70099639892575 L -59.38800048828125 -111.55100250244138 L -59 -111.49999999999997 L -58.61199951171875 -111.55100250244138 L -58.25 -111.70099639892575 L -57.93899917602539 -111.94000244140622 L -57.70100021362305 -112.24999999999997 L -57.55099868774414 -112.61199951171872 L -57.54732131958008 -112.63999938964841 M -57.5 -67.99999999999999 L -57.55099868774414 -68.38899993896483 L -57.70100021362305 -68.74999999999999 L -57.93899917602539 -69.06099700927733 L -58.25 -69.2990036010742 L -58.61199951171875 -69.44899749755858 L -59 -69.49999999999999 L -59.38800048828125 -69.44899749755858 L -59.75 -69.2990036010742 L -60.06100082397461 -69.06099700927733 L -60.29899978637695 -68.74999999999999 L -60.44900131225586 -68.38899993896483 L -60.5 -67.99999999999999 L -60.44900131225586 -67.61199951171874 L -60.43739700317383 -67.58399963378905 L -60.29899978637695 -67.24999999999999 L -60.06100082397461 -66.94000244140624 L -59.75 -66.70099639892577 L -59.38800048828125 -66.55100250244139 L -59 -66.49999999999999 L -58.61199951171875 -66.55100250244139 L -58.25 -66.70099639892577 L -57.93899917602539 -66.94000244140624 L -57.70100021362305 -67.24999999999999 L -57.56260299682617 -67.58399963378905 L -57.55099868774414 -67.61199951171874 L -57.5 -67.99999999999999 M -22 -114.49999999999997 L -22.38800048828125 -114.44899749755857 L -22.75 -114.29900360107419 L -23.06100082397461 -114.06099700927732 L -23.298999786376953 -113.74999999999997 L -23.448999404907227 -113.38800048828122 L -23.5 -112.99999999999997 L -23.452680587768555 -112.63999938964841 L -23.448999404907227 -112.61199951171872 L -23.298999786376953 -112.24999999999997 L -23.06100082397461 -111.93900299072263 L -22.75 -111.70099639892575 L -22.38800048828125 -111.55100250244138 L -22 -111.49999999999997 L -21.61199951171875 -111.55100250244138 L -21.25 -111.70099639892575 L -20.93899917602539 -111.93900299072263 L -20.701000213623047 -112.24999999999997 L -20.551000595092773 -112.61199951171872 L -20.547319412231445 -112.63999938964841 L -20.5 -112.99999999999997 L -20.551000595092773 -113.38800048828122 L -20.701000213623047 -113.74999999999997 L -20.93899917602539 -114.06099700927732 L -21.25 -114.29900360107419 L -21.61199951171875 -114.44899749755857 L -22 -114.49999999999997 M -23.5 -67.99999999999999 L -23.448999404907227 -67.61199951171874 L -23.437397003173828 -67.58399963378905 L -23.298999786376953 -67.24999999999999 L -23.06100082397461 -66.93900299072264 L -22.75 -66.70099639892577 L -22.38800048828125 -66.55100250244139 L -22 -66.49999999999999 L -21.61199951171875 -66.55100250244139 L -21.25 -66.70099639892577 L -20.93899917602539 -66.93900299072264 L -20.701000213623047 -67.24999999999999 L -20.562602996826172 -67.58399963378905 L -20.551000595092773 -67.61199951171874 L -20.5 -67.99999999999999 L -20.551000595092773 -68.38800048828124 L -20.701000213623047 -68.74999999999999 L -20.93899917602539 -69.06099700927733 L -21.25 -69.2990036010742 L -21.61199951171875 -69.44899749755858 L -22 -69.49999999999999 L -22.38800048828125 -69.44899749755858 L -22.75 -69.2990036010742 L -23.06100082397461 -69.06099700927733 L -23.298999786376953 -68.74999999999999 L -23.448999404907227 -68.38800048828124 L -23.5 -67.99999999999999 M -31.562999725341797 -67.78500366210936 L -31.589094161987305 -67.58399963378905 L -31.600000381469727 -67.49999999999999 L -31.562999725341797 -67.21499633789061 L -31.452999114990234 -66.94999694824217 L -31.277999877929688 -66.7220001220703 L -31.049999237060547 -66.54699707031249 L -30.78499984741211 -66.43800354003905 L -30.5 -66.40000152587889 L -30.21500015258789 -66.43800354003905 L -29.950000762939453 -66.54699707031249 L -29.722000122070312 -66.7220001220703 L -29.547000885009766 -66.94999694824217 L -29.437000274658203 -67.21499633789061 L -29.399999618530273 -67.49999999999999 L -29.410905838012695 -67.58399963378905 L -29.437000274658203 -67.78500366210936 L -29.547000885009766 -68.0500030517578 L -29.722000122070312 -68.27799987792967 L -29.950000762939453 -68.45300292968749 L -30.21500015258789 -68.56300354003905 L -30.5 -68.59999847412108 L -30.78499984741211 -68.56300354003905 L -31.049999237060547 -68.45300292968749 L -31.277999877929688 -68.27799987792967 L -31.452999114990234 -68.0500030517578 L -31.562999725341797 -67.78500366210936 M -31.600000381469727 -49.499999999999986 L -31.562999725341797 -49.215000152587876 L -31.536849975585938 -49.15200042724608 L -31.452999114990234 -48.95000076293944 L -31.277999877929688 -48.7220001220703 L -31.049999237060547 -48.54700088500975 L -30.78499984741211 -48.43799972534178 L -30.5 -48.40000152587889 L -30.21500015258789 -48.43799972534178 L -29.950000762939453 -48.54700088500975 L -29.722000122070312 -48.7220001220703 L -29.547000885009766 -48.95000076293944 L -29.463150024414062 -49.15200042724608 L -29.437000274658203 -49.215000152587876 L -29.399999618530273 -49.499999999999986 L -29.437000274658203 -49.784999847412095 L -29.547000885009766 -50.04999923706053 L -29.722000122070312 -50.27799987792967 L -29.950000762939453 -50.45299911499022 L -30.21500015258789 -50.56299972534178 L -30.5 -50.59999847412108 L -30.78499984741211 -50.56299972534178 L -31.049999237060547 -50.45299911499022 L -31.277999877929688 -50.27799987792967 L -31.452999114990234 -50.04999923706053 L -31.562999725341797 -49.784999847412095 L -31.600000381469727 -49.499999999999986 M -14.298999786376953 -34.74999999999999 L -14.449000358581543 -34.38800048828124 L -14.5 -33.99999999999999 L -14.449000358581543 -33.61199951171874 L -14.298999786376953 -33.24999999999999 L -14.060999870300293 -32.93899917602538 L -13.837550163269043 -32.76800155639648 L -13.75 -32.70100021362304 L -13.387999534606934 -32.55099868774413 L -13 -32.49999999999999 L -12.612000465393066 -32.55099868774413 L -12.25 -32.70100021362304 L -12.162449836730957 -32.76800155639648 L -11.939000129699707 -32.93899917602538 L -11.701000213623047 -33.24999999999999 L -11.550999641418457 -33.61199951171874 L -11.5 -33.99999999999999 L -11.550999641418457 -34.38800048828124 L -11.701000213623047 -34.74999999999999 L -11.939000129699707 -35.0610008239746 L -12.25 -35.298999786376946 L -12.288000106811523 -35.314746856689446 L -12.612000465393066 -35.44900131225585 L -13 -35.49999999999999 L -13.387999534606934 -35.44900131225585 L -13.75 -35.298999786376946 L -14.060999870300293 -35.0610008239746 L -14.298999786376953 -34.74999999999999 M -56.93899917602539 -32.93899917602538 L -56.70100021362305 -33.24999999999999 L -56.55099868774414 -33.61199951171874 L -56.5 -33.99999999999999 L -56.55099868774414 -34.38800048828124 L -56.70100021362305 -34.74999999999999 L -56.93899917602539 -35.0610008239746 L -57.25 -35.298999786376946 L -57.34400177001953 -35.33795166015624 L -57.61199951171875 -35.44900131225585 L -58 -35.49999999999999 L -58.38800048828125 -35.44900131225585 L -58.75 -35.298999786376946 L -59.06100082397461 -35.0610008239746 L -59.29899978637695 -34.74999999999999 L -59.44900131225586 -34.38800048828124 L -59.5 -33.99999999999999 L -59.44900131225586 -33.61199951171874 L -59.29899978637695 -33.24999999999999 L -59.06100082397461 -32.93899917602538 L -58.83755111694336 -32.76800155639648 L -58.75 -32.70100021362304 L -58.38800048828125 -32.55099868774413 L -58 -32.49999999999999 L -57.61199951171875 -32.55099868774413 L -57.25 -32.70100021362304 L -57.16244888305664 -32.76800155639648 L -56.93899917602539 -32.93899917602538 M -11.550999641418457 30.611999511718743 L -11.701000213623047 30.249999999999993 L -11.939000129699707 29.938999176025384 L -12.25 29.70100021362304 L -12.288000106811523 29.685255050659173 L -12.612000465393066 29.551000595092766 L -13 29.499999999999993 L -13.387999534606934 29.551000595092766 L -13.75 29.70100021362304 L -14.060999870300293 29.938999176025384 L -14.298999786376953 30.249999999999993 L -14.449000358581543 30.611999511718743 L -14.5 30.999999999999993 L -14.449000358581543 31.388000488281243 L -14.298999786376953 31.749999999999993 L -14.060999870300293 32.0610008239746 L -13.75 32.298999786376946 L -13.387999534606934 32.44900131225585 L -13 32.49999999999999 L -12.612000465393066 32.44900131225585 L -12.288000106811523 32.314746856689446 L -12.25 32.298999786376946 L -11.939000129699707 32.0610008239746 L -11.701000213623047 31.749999999999993 L -11.550999641418457 31.388000488281243 L -11.5 30.999999999999993 L -11.550999641418457 30.611999511718743 M -58 32.49999999999999 L -57.61199951171875 32.44900131225585 L -57.34400177001953 32.33795166015624 L -57.25 32.298999786376946 L -56.93899917602539 32.0610008239746 L -56.70100021362305 31.749999999999993 L -56.55099868774414 31.388000488281243 L -56.5 30.999999999999993 L -56.55099868774414 30.611999511718743 L -56.70100021362305 30.249999999999993 L -56.93899917602539 29.938999176025384 L -57.25 29.70100021362304 L -57.34400177001953 29.662050247192376 L -57.61199951171875 29.551000595092766 L -58 29.499999999999993 L -58.38800048828125 29.551000595092766 L -58.75 29.70100021362304 L -59.06100082397461 29.938999176025384 L -59.29899978637695 30.249999999999993 L -59.44900131225586 30.611999511718743 L -59.5 30.999999999999993 L -59.44900131225586 31.388000488281243 L -59.29899978637695 31.749999999999993 L -59.06100082397461 32.0610008239746 L -58.75 32.298999786376946 L -58.38800048828125 32.44900131225585 L -58 32.49999999999999 M -116.5 -127.28099822998044 L -116.81400299072266 -127.10800170898435 L -116.95185852050781 -126.97599792480466 L -117.072998046875 -126.86000061035153 L -117.25900268554688 -126.55200195312497 L -117.35900115966797 -126.20800018310544 L -117.36699676513672 -125.84899902343747 L -117.28099822998047 -125.49999999999997 L -117.10800170898438 -125.18599700927732 L -116.8599624633789 -124.92800140380857 L -116.85900115966797 -124.92700195312497 L -116.552001953125 -124.7409973144531 L -116.20700073242188 -124.640998840332 L -115.8489990234375 -124.63400268554685 L -115.5 -124.7190017700195 L -115.18599700927734 -124.8919982910156 L -115.14855194091797 -124.92800140380857 L -114.927001953125 -125.140998840332 L -114.74099731445312 -125.44799804687497 L -114.68800354003906 -125.63085174560544 L -114.64099884033203 -125.7929992675781 L -114.63300323486328 -126.15200042724607 L -114.68800354003906 -126.37455749511716 L -114.71900177001953 -126.49999999999997 L -114.89199829101562 -126.81500244140622 L -115.04678344726562 -126.97599792480466 L -115.14099884033203 -127.07399749755857 L -115.447998046875 -127.26000213623044 L -115.79299926757812 -127.36000061035153 L -116.1510009765625 -127.36699676513669 L -116.5 -127.28099822998044 M -125.4489974975586 -113.38899993896482 L -125.5 -112.99999999999997 L -125.45268249511719 -112.63999938964841 L -125.4489974975586 -112.61199951171872 L -125.29900360107422 -112.24999999999997 L -125.06099700927734 -111.94000244140622 L -124.75 -111.70099639892575 L -124.38800048828125 -111.55100250244138 L -124 -111.49999999999997 L -123.61199951171875 -111.55100250244138 L -123.25 -111.70099639892575 L -122.93900299072266 -111.94000244140622 L -122.87999725341797 -112.01684570312497 L -122.70099639892578 -112.24999999999997 L -122.5510025024414 -112.61199951171872 L -122.5 -112.99999999999997 L -122.5510025024414 -113.38899993896482 L -122.70099639892578 -113.74999999999997 L -122.87999725341797 -113.98390197753903 L -122.93900299072266 -114.06099700927732 L -123.25 -114.29900360107419 L -123.61199951171875 -114.44899749755857 L -124 -114.49999999999997 L -124.38800048828125 -114.44899749755857 L -124.75 -114.29900360107419 L -125.06099700927734 -114.06099700927732 L -125.29900360107422 -113.74999999999997 L -125.4489974975586 -113.38899993896482 M -117.35900115966797 -68.20800018310545 L -117.36699676513672 -67.84899902343749 L -117.30169677734375 -67.58399963378905 L -117.28099822998047 -67.49999999999999 L -117.10800170898438 -67.18599700927733 L -116.85900115966797 -66.92700195312499 L -116.552001953125 -66.74099731445311 L -116.20700073242188 -66.64099884033202 L -115.8489990234375 -66.63400268554686 L -115.5 -66.71900177001952 L -115.18599700927734 -66.8929977416992 L -114.927001953125 -67.14099884033202 L -114.74099731445312 -67.44799804687499 L -114.70157623291016 -67.58399963378905 L -114.68800354003906 -67.63085174560545 L -114.64099884033203 -67.79299926757811 L -114.63300323486328 -68.15200042724608 L -114.68800354003906 -68.37455749511717 L -114.71900177001953 -68.49999999999999 L -114.89199829101562 -68.81500244140624 L -115.14099884033203 -69.07399749755858 L -115.447998046875 -69.26000213623045 L -115.79299926757812 -69.36000061035155 L -116.1510009765625 -69.3669967651367 L -116.5 -69.28099822998045 L -116.81400299072266 -69.10800170898436 L -117.072998046875 -68.86000061035155 L -117.25900268554688 -68.55200195312499 L -117.35900115966797 -68.20800018310545 M -122.5 -67.99999999999999 L -122.5510025024414 -68.38899993896483 L -122.70099639892578 -68.74999999999999 L -122.87999725341797 -68.98390197753905 L -122.93900299072266 -69.06099700927733 L -123.25 -69.2990036010742 L -123.61199951171875 -69.44899749755858 L -124 -69.49999999999999 L -124.38800048828125 -69.44899749755858 L -124.75 -69.2990036010742 L -125.06099700927734 -69.06099700927733 L -125.29900360107422 -68.74999999999999 L -125.4489974975586 -68.38899993896483 L -125.5 -67.99999999999999 L -125.4489974975586 -67.61199951171874 L -125.4374008178711 -67.58399963378905 L -125.29900360107422 -67.24999999999999 L -125.06099700927734 -66.94000244140624 L -124.75 -66.70099639892577 L -124.38800048828125 -66.55100250244139 L -124 -66.49999999999999 L -123.61199951171875 -66.55100250244139 L -123.25 -66.70099639892577 L -122.93900299072266 -66.94000244140624 L -122.87999725341797 -67.01684570312499 L -122.70099639892578 -67.24999999999999 L -122.5510025024414 -67.61199951171874 L -122.5 -67.99999999999999 M -72.38800048828125 -16.448999404907223 L -72.54486846923828 -16.38400077819824 L -72.75 -16.29899978637695 L -73.06099700927734 -16.061000823974606 L -73.29900360107422 -15.749999999999996 L -73.4489974975586 -15.38899993896484 L -73.5 -14.999999999999996 L -73.4489974975586 -14.612000465393063 L -73.33463287353516 -14.33600044250488 L -73.29900360107422 -14.249999999999996 L -73.06099700927734 -13.939999580383297 L -72.75 -13.701000213623043 L -72.38800048828125 -13.550999641418453 L -72 -13.499999999999996 L -71.61199951171875 -13.550999641418453 L -71.25 -13.701000213623043 L -70.93900299072266 -13.939999580383297 L -70.70099639892578 -14.249999999999996 L -70.66536712646484 -14.33600044250488 L -70.5510025024414 -14.612000465393063 L -70.5 -14.999999999999996 L -70.5510025024414 -15.38899993896484 L -70.70099639892578 -15.749999999999996 L -70.93900299072266 -16.061000823974606 L -71.25 -16.29899978637695 L -71.45513153076172 -16.38400077819824 L -71.61199951171875 -16.448999404907223 L -71.90070343017578 -16.48694801330566 L -72 -16.499999999999996 L -72.38800048828125 -16.448999404907223 M -75.73200225830078 -20.607000350952145 L -75.91981506347656 -20.479999542236325 L -75.94200134277344 -20.465000152587887 L -76.1259994506836 -20.288999557495114 L -76.2770004272461 -20.08399963378906 L -76.39199829101562 -19.857000350952145 L -76.46600341796875 -19.614000320434567 L -76.4990005493164 -19.361999511718746 L -76.48799896240234 -19.107000350952145 L -76.43399810791016 -18.858999252319332 L -76.33899688720703 -18.622999191284176 L -76.22193908691406 -18.431999206542965 L -76.20600128173828 -18.406000137329098 L -76.03800201416016 -18.215000152587887 L -75.83999633789062 -18.055000305175778 L -75.61799621582031 -17.93099975585937 L -75.37799835205078 -17.846000671386715 L -75.12699890136719 -17.802999496459957 L -74.87300109863281 -17.802999496459957 L -74.62200164794922 -17.846000671386715 L -74.38200378417969 -17.93099975585937 L -74.16000366210938 -18.055000305175778 L -73.96199798583984 -18.215000152587887 L -73.79399871826172 -18.406000137329098 L -73.77806091308594 -18.431999206542965 L -73.72799682617188 -18.513683319091793 L -73.66100311279297 -18.622999191284176 L -73.56600189208984 -18.858999252319332 L -73.51200103759766 -19.107000350952145 L -73.5009994506836 -19.361999511718746 L -73.53399658203125 -19.614000320434567 L -73.60800170898438 -19.857000350952145 L -73.7229995727539 -20.08399963378906 L -73.72799682617188 -20.09078788757324 L -73.8740005493164 -20.288999557495114 L -74.05799865722656 -20.465000152587887 L -74.08018493652344 -20.479999542236325 L -74.26799774169922 -20.607000350952145 L -74.5 -20.711999893188473 L -74.74600219726562 -20.775999069213864 L -75 -20.798000335693356 L -75.25299835205078 -20.775999069213864 L -75.40122985839844 -20.73759269714355 L -75.5 -20.711999893188473 L -75.73200225830078 -20.607000350952145 M -84.5 -22.999999999999996 L -84.5 -16.38400077819824 L -84.5 -9.999999999999998 L -81.91999816894531 -9.999999999999998 L -77 -9.999999999999998 L -77 -16.38400077819824 L -77 -16.468692779541012 L -77 -17.003791809082028 L -77 -17.43861389160156 L -77 -17.802999496459957 L -77 -18.123872756958004 L -77 -18.420457839965817 L -77 -18.431999206542965 L -77 -19.70147323608398 L -77 -20.265062332153317 L -77 -20.479999542236325 L -77 -22.999999999999996 L -77.05799865722656 -23.58600044250488 L -77.22799682617188 -24.14800071716308 L -77.4572525024414 -24.57600021362304 L -77.50599670410156 -24.666999816894524 L -77.87899780273438 -25.12199974060058 L -78.33300018310547 -25.49500083923339 L -78.85199737548828 -25.771999359130852 L -79.41500091552734 -25.943000793457024 L -80 -25.999999999999993 L -81.5 -25.999999999999993 L -81.91999816894531 -25.959077835083 L -82.08499908447266 -25.943000793457024 L -82.64800262451172 -25.771999359130852 L -83.16699981689453 -25.49500083923339 L -83.62100219726562 -25.12199974060058 L -83.99400329589844 -24.666999816894524 L -84.27200317382812 -24.14800071716308 L -84.44200134277344 -23.58600044250488 L -84.5 -22.999999999999996 M -92 -26.635999679565423 L -98.30400085449219 -26.635999679565423 L -117 -26.635999679565423 L -117 -23.635999679565426 L -98.30400085449219 -23.635999679565426 L -92 -23.635999679565426 L -92 -24.976922988891594 L -92 -26.635999679565423 M -75.94200134277344 24.534999847412102 L -75.98486328125 24.57600021362304 L -76.1259994506836 24.711000442504876 L -76.2770004272461 24.91600036621093 L -76.39199829101562 25.142999649047844 L -76.46600341796875 25.385999679565423 L -76.4990005493164 25.638000488281243 L -76.48799896240234 25.892999649047844 L -76.43399810791016 26.141000747680657 L -76.33899688720703 26.377000808715813 L -76.20600128173828 26.59399986267089 L -76.17961120605469 26.6240005493164 L -76.03800201416016 26.784999847412102 L -75.83999633789062 26.94499969482421 L -75.61799621582031 27.069000244140618 L -75.37799835205078 27.153999328613274 L -75.12699890136719 27.197000503540032 L -74.87300109863281 27.197000503540032 L -74.62200164794922 27.153999328613274 L -74.38200378417969 27.069000244140618 L -74.16000366210938 26.94499969482421 L -73.96199798583984 26.784999847412102 L -73.82038879394531 26.6240005493164 L -73.79399871826172 26.59399986267089 L -73.72799682617188 26.486316680908196 L -73.66100311279297 26.377000808715813 L -73.56600189208984 26.141000747680657 L -73.51200103759766 25.892999649047844 L -73.5009994506836 25.638000488281243 L -73.53399658203125 25.385999679565423 L -73.60800170898438 25.142999649047844 L -73.7229995727539 24.91600036621093 L -73.72799682617188 24.90921211242675 L -73.8740005493164 24.711000442504876 L -74.01513671875 24.57600021362304 L -74.05799865722656 24.534999847412102 L -74.26799774169922 24.392999649047844 L -74.5 24.288000106811516 L -74.74600219726562 24.224000930786126 L -75 24.201999664306634 L -75.25299835205078 24.224000930786126 L -75.5 24.288000106811516 L -75.73200225830078 24.392999649047844 L -75.94200134277344 24.534999847412102 M -72.38800048828125 28.551000595092766 L -72.68001556396484 28.67200088500976 L -72.75 28.70100021362304 L -73.06099700927734 28.938999176025384 L -73.29900360107422 29.249999999999993 L -73.4489974975586 29.61100006103515 L -73.5 29.999999999999993 L -73.4489974975586 30.388000488281243 L -73.31143188476562 30.719999313354485 L -73.29900360107422 30.749999999999993 L -73.06099700927734 31.059999465942376 L -72.75 31.298999786376946 L -72.38800048828125 31.44899940490722 L -72 31.499999999999993 L -71.61199951171875 31.44899940490722 L -71.25 31.298999786376946 L -70.93900299072266 31.059999465942376 L -70.70099639892578 30.749999999999993 L -70.68856811523438 30.719999313354485 L -70.5510025024414 30.388000488281243 L -70.5 29.999999999999993 L -70.5510025024414 29.61100006103515 L -70.70099639892578 29.249999999999993 L -70.93900299072266 28.938999176025384 L -71.25 28.70100021362304 L -71.31998443603516 28.67200088500976 L -71.61199951171875 28.551000595092766 L -71.90070343017578 28.51305198669433 L -72 28.499999999999993 L -72.38800048828125 28.551000595092766 M -135.73199462890625 -20.607000350952145 L -135.91981506347656 -20.479999542236325 L -135.94200134277344 -20.465000152587887 L -136.12600708007812 -20.288999557495114 L -136.27699279785156 -20.08399963378906 L -136.39199829101562 -19.857000350952145 L -136.46600341796875 -19.614000320434567 L -136.49899291992188 -19.361999511718746 L -136.48800659179688 -19.107000350952145 L -136.4340057373047 -18.858999252319332 L -136.33900451660156 -18.622999191284176 L -136.22193908691406 -18.431999206542965 L -136.20599365234375 -18.406000137329098 L -136.03799438476562 -18.215000152587887 L -135.83999633789062 -18.055000305175778 L -135.6179962158203 -17.93099975585937 L -135.3780059814453 -17.846000671386715 L -135.16799926757812 -17.810024261474606 L -135.1269989013672 -17.802999496459957 L -134.8730010986328 -17.802999496459957 L -134.6219940185547 -17.846000671386715 L -134.3820037841797 -17.93099975585937 L -134.16000366210938 -18.055000305175778 L -133.96200561523438 -18.215000152587887 L -133.79400634765625 -18.406000137329098 L -133.77806091308594 -18.431999206542965 L -133.66099548339844 -18.622999191284176 L -133.5659942626953 -18.858999252319332 L -133.51199340820312 -19.107000350952145 L -133.50100708007812 -19.361999511718746 L -133.53399658203125 -19.614000320434567 L -133.60800170898438 -19.857000350952145 L -133.72300720214844 -20.08399963378906 L -133.87399291992188 -20.288999557495114 L -134.05799865722656 -20.465000152587887 L -134.08018493652344 -20.479999542236325 L -134.26800537109375 -20.607000350952145 L -134.5 -20.711999893188473 L -134.7469940185547 -20.775999069213864 L -135 -20.798000335693356 L -135.25399780273438 -20.775999069213864 L -135.5 -20.711999893188473 L -135.73199462890625 -20.607000350952145 M -137.38800048828125 -16.448999404907223 L -137.54486083984375 -16.38400077819824 L -137.75 -16.29899978637695 L -138.06100463867188 -16.061000823974606 L -138.2989959716797 -15.749999999999996 L -138.44900512695312 -15.38899993896484 L -138.5 -14.999999999999996 L -138.44900512695312 -14.612000465393063 L -138.3346405029297 -14.33600044250488 L -138.2989959716797 -14.249999999999996 L -138.06100463867188 -13.939999580383297 L -137.75 -13.701000213623043 L -137.38800048828125 -13.550999641418453 L -137 -13.499999999999996 L -136.61199951171875 -13.550999641418453 L -136.25 -13.701000213623043 L -135.93899536132812 -13.939999580383297 L -135.7010040283203 -14.249999999999996 L -135.6653594970703 -14.33600044250488 L -135.55099487304688 -14.612000465393063 L -135.5 -14.999999999999996 L -135.55099487304688 -15.38899993896484 L -135.7010040283203 -15.749999999999996 L -135.93899536132812 -16.061000823974606 L -136.25 -16.29899978637695 L -136.45513916015625 -16.38400077819824 L -136.61199951171875 -16.448999404907223 L -137 -16.499999999999996 L -137.38800048828125 -16.448999404907223 M -135.73199462890625 24.392999649047844 L -135.94200134277344 24.534999847412102 L -135.98486328125 24.57600021362304 L -136.12600708007812 24.711000442504876 L -136.27699279785156 24.91600036621093 L -136.39199829101562 25.142999649047844 L -136.46600341796875 25.385999679565423 L -136.49899291992188 25.638000488281243 L -136.48800659179688 25.892999649047844 L -136.4340057373047 26.141000747680657 L -136.33900451660156 26.377000808715813 L -136.20599365234375 26.59399986267089 L -136.1796112060547 26.6240005493164 L -136.03799438476562 26.784999847412102 L -135.83999633789062 26.94499969482421 L -135.6179962158203 27.069000244140618 L -135.3780059814453 27.153999328613274 L -135.16799926757812 27.189975738525384 L -135.1269989013672 27.197000503540032 L -134.8730010986328 27.197000503540032 L -134.6219940185547 27.153999328613274 L -134.3820037841797 27.069000244140618 L -134.16000366210938 26.94499969482421 L -133.96200561523438 26.784999847412102 L -133.79400634765625 26.59399986267089 L -133.66099548339844 26.377000808715813 L -133.5659942626953 26.141000747680657 L -133.51199340820312 25.892999649047844 L -133.50100708007812 25.638000488281243 L -133.53399658203125 25.385999679565423 L -133.60800170898438 25.142999649047844 L -133.72300720214844 24.91600036621093 L -133.87399291992188 24.711000442504876 L -134.01513671875 24.57600021362304 L -134.05799865722656 24.534999847412102 L -134.26800537109375 24.392999649047844 L -134.5 24.288000106811516 L -134.7469940185547 24.224000930786126 L -135 24.201999664306634 L -135.25399780273438 24.224000930786126 L -135.5 24.288000106811516 L -135.73199462890625 24.392999649047844 M -137.38800048828125 28.551000595092766 L -137.6800079345703 28.67200088500976 L -137.75 28.70100021362304 L -138.06100463867188 28.938999176025384 L -138.2989959716797 29.249999999999993 L -138.44900512695312 29.61100006103515 L -138.5 29.999999999999993 L -138.44900512695312 30.388000488281243 L -138.31143188476562 30.719999313354485 L -138.2989959716797 30.749999999999993 L -138.06100463867188 31.059999465942376 L -137.75 31.298999786376946 L -137.38800048828125 31.44899940490722 L -137 31.499999999999993 L -136.61199951171875 31.44899940490722 L -136.25 31.298999786376946 L -135.93899536132812 31.059999465942376 L -135.7010040283203 30.749999999999993 L -135.68856811523438 30.719999313354485 L -135.55099487304688 30.388000488281243 L -135.5 29.999999999999993 L -135.55099487304688 29.61100006103515 L -135.7010040283203 29.249999999999993 L -135.93899536132812 28.938999176025384 L -136.25 28.70100021362304 L -136.3199920654297 28.67200088500976 L -136.61199951171875 28.551000595092766 L -137 28.499999999999993 L -137.38800048828125 28.551000595092766 M -4 -65.99999999999999 L -8 -65.99999999999999 L -12 -65.99999999999999 L -12 -65.53600311279295 L -12 -50.999999999999986 L -9.5 -50.999999999999986 L -8 -50.999999999999986 L -4 -50.999999999999986 L -4 -65.53600311279295 L -4 -65.99999999999999 M -56 -105.99999999999997 L -62 -105.99999999999997 L -62 -98.30400085449216 L -62 -81.9199981689453 L -62 -73.72799682617186 L -62 -71.99999999999999 L -57.34400177001953 -71.99999999999999 L -56 -71.99999999999999 L -56 -73.72799682617186 L -56 -81.9199981689453 L -56 -98.30400085449216 L -56 -105.99999999999997 z" fill="none" stroke="rgb(255,0,0)" stroke-width="0.001mm" />
</svg>