# WaveFront *.obj file (generated by Autodesk ATF)

mtllib Back Panel 3mm.mtl

g Body28

v 67.500000 -2.000000 -1.000000
v 67.500000 -5.000000 -1.000000
v 57.500000 -5.000000 -1.000000
v 57.500000 -2.000000 -1.000000
v 27.500000 -2.000000 -1.000000
v 37.500000 -2.000000 -1.000000
v 37.500000 -5.000000 -1.000000
v 27.500000 -5.000000 -1.000000
v 67.500000 -2.000000 2.000000
v 67.500000 -5.000000 2.000000
v 27.500000 -5.000000 2.000000
v 27.500000 -2.000000 2.000000
v 75.000000 -5.000000 2.000000
v 75.000000 -5.000000 52.000001
v 67.500000 -5.000000 52.000001
v 67.500000 -5.000000 55.000001
v 57.500000 -5.000000 55.000001
v 57.500000 -5.000000 52.000001
v 37.500000 -5.000000 52.000001
v 37.500000 -5.000000 55.000001
v 27.500000 -5.000000 55.000001
v 27.500000 -5.000000 52.000001
v 20.000000 -5.000000 52.000001
v 20.000000 -5.000000 2.000000
v 37.500000 -5.000000 2.000000
v 57.500000 -5.000000 2.000000
v 37.500000 -2.000000 2.000000
v 57.500000 -2.000000 2.000000
v 20.000000 -2.000000 2.000000
v 75.000000 -2.000000 2.000000
v 57.500000 -2.000000 55.000001
v 67.500000 -2.000000 55.000001
v 27.500000 -2.000000 55.000001
v 37.500000 -2.000000 55.000001
v 75.000000 -2.000000 52.000001
v 20.000000 -2.000000 52.000001
v 27.500000 -2.000000 52.000001
v 37.500000 -2.000000 52.000001
v 57.500000 -2.000000 52.000001
v 67.500000 -2.000000 52.000001
vt -0.500000 -0.100000 0.000000
vt 0.500000 -0.100000 0.000000
vt -0.500000 0.200000 0.000000
vt 0.500000 0.200000 0.000000
vt 0.500000 0.200000 0.000000
vt -0.500000 0.200000 0.000000
vt 0.500000 -0.100000 0.000000
vt -0.500000 -0.100000 0.000000
vt 0.300000 0.000000 0.000000
vt 0.000000 0.000000 0.000000
vt 0.300000 -0.300000 0.000000
vt 0.000000 -0.300000 0.000000
vt 0.300000 0.200000 0.000000
vt 0.000000 0.200000 0.000000
vt 0.300000 -0.100000 0.000000
vt -0.000000 -0.100000 0.000000
vt -2.000000 0.200000 0.000000
vt -3.000000 0.200000 0.000000
vt -2.000000 -0.100000 0.000000
vt -3.000000 -0.100000 0.000000
vt -2.000000 -5.100000 0.000000
vt -3.000000 -5.100000 0.000000
vt -2.000000 -5.400000 0.000000
vt -3.000000 -5.400000 0.000000
vt -3.750000 -0.100000 0.000000
vt -3.750000 -5.100000 0.000000
vt -0.000000 -5.100000 0.000000
vt -0.000000 -0.100000 0.000000
vt 1.000000 -5.100000 0.000000
vt 1.000000 -0.100000 0.000000
vt 1.750000 -5.100000 0.000000
vt 1.750000 -0.100000 0.000000
vt -0.000000 -5.400000 0.000000
vt 1.000000 -5.400000 0.000000
vt 1.000000 0.200000 0.000000
vt 0.000000 0.200000 0.000000
vt 1.000000 -4.088715 0.000000
vt -1.000000 -4.088715 0.000000
vt 1.000000 -4.388715 0.000000
vt -1.000000 -4.388715 0.000000
vt 2.750000 -4.088715 0.000000
vt 2.000000 -4.088715 0.000000
vt 2.750000 -4.388715 0.000000
vt 2.000000 -4.388715 0.000000
vt -2.750000 -4.388715 0.000000
vt -2.000000 -4.388715 0.000000
vt -2.750000 -4.088715 0.000000
vt -2.000000 -4.088715 0.000000
vt 0.300000 0.000000 0.000000
vt 0.000000 0.000000 0.000000
vt 0.300000 -0.300000 0.000000
vt 0.000000 -0.300000 0.000000
vt -0.500000 -0.100000 0.000000
vt 0.500000 -0.100000 0.000000
vt -0.500000 0.200000 0.000000
vt 0.500000 0.200000 0.000000
vt -0.500000 -0.100000 0.000000
vt 0.500000 -0.100000 0.000000
vt -0.500000 0.200000 0.000000
vt 0.500000 0.200000 0.000000
vt 4.900000 0.300000 0.000000
vt -0.100000 0.300000 0.000000
vt 4.900000 0.000000 0.000000
vt -0.100000 -0.000000 0.000000
vt 4.000000 0.200000 0.000000
vt 3.000000 0.200000 0.000000
vt 4.000000 -0.100000 0.000000
vt 3.000000 -0.100000 0.000000
vt 4.000000 -5.100000 0.000000
vt 3.000000 -5.100000 0.000000
vt 4.000000 -5.400000 0.000000
vt 3.000000 -5.400000 0.000000
vt 1.000000 -0.100000 0.000000
vt 1.000000 -5.100000 0.000000
vt 0.000000 -0.100000 0.000000
vt 0.000000 -5.100000 0.000000
vt -0.750000 -0.100000 0.000000
vt -0.750000 -5.100000 0.000000
vt 1.000000 0.200000 0.000000
vt -0.000000 0.200000 0.000000
vt 0.000000 -5.400000 0.000000
vt 1.000000 -5.400000 0.000000
vt 4.750000 -5.100000 0.000000
vt 4.750000 -0.100000 0.000000
vt 4.750000 -0.000000 0.000000
vt 5.500000 -0.000000 0.000000
vt 4.750000 0.300000 0.000000
vt 5.500000 0.300000 0.000000
vt 1.750000 -0.000000 0.000000
vt 3.750000 -0.000000 0.000000
vt 1.750000 0.300000 0.000000
vt 3.750000 0.300000 0.000000
vt 0.750000 0.300000 0.000000
vt 0.000000 0.300000 0.000000
vt 0.750000 -0.000000 0.000000
vt 0.000000 0.000000 0.000000
vt 0.100000 -0.000000 0.000000
vt 5.100000 -0.000000 0.000000
vt 0.100000 0.300000 0.000000
vt 5.100000 0.300000 0.000000
vt -0.000000 0.100000 0.000000
vt 0.300000 0.100000 0.000000
vt -0.000000 0.400000 0.000000
vt 0.300000 0.400000 0.000000
vt -0.100000 0.100000 0.000000
vt 0.200000 0.100000 0.000000
vt -0.100000 0.400000 0.000000
vt 0.200000 0.400000 0.000000
vt -0.000000 0.100000 0.000000
vt 0.300000 0.100000 0.000000
vt -0.000000 0.400000 0.000000
vt 0.300000 0.400000 0.000000
vt -0.100000 0.100000 0.000000
vt 0.200000 0.100000 0.000000
vt -0.100000 0.400000 0.000000
vt 0.200000 0.400000 0.000000
vt 0.300000 0.200000 0.000000
vt 0.000000 0.200000 0.000000
vt 0.300000 -0.100000 0.000000
vt -0.000000 -0.100000 0.000000
vn 0.000000 -0.000000 -0.100000
vn 0.000000 -0.000000 -0.100000
vn 0.000000 -0.000000 -0.100000
vn 0.000000 -0.000000 -0.100000
vn 0.000000 -0.000000 -0.100000
vn 0.000000 -0.000000 -0.100000
vn 0.000000 -0.000000 -0.100000
vn 0.000000 -0.000000 -0.100000
vn 0.100000 0.000000 0.000000
vn 0.100000 0.000000 0.000000
vn 0.100000 0.000000 0.000000
vn 0.100000 0.000000 0.000000
vn -0.100000 -0.000000 -0.000000
vn -0.100000 -0.000000 -0.000000
vn -0.100000 -0.000000 -0.000000
vn -0.100000 -0.000000 -0.000000
vn 0.000000 -0.100000 0.000000
vn 0.000000 -0.100000 0.000000
vn 0.000000 -0.100000 0.000000
vn 0.000000 -0.100000 0.000000
vn 0.000000 -0.100000 0.000000
vn 0.000000 -0.100000 0.000000
vn 0.000000 -0.100000 0.000000
vn 0.000000 -0.100000 0.000000
vn 0.000000 -0.100000 0.000000
vn 0.000000 -0.100000 0.000000
vn 0.000000 -0.100000 0.000000
vn 0.000000 -0.100000 0.000000
vn 0.000000 -0.100000 0.000000
vn 0.000000 -0.100000 0.000000
vn 0.000000 -0.100000 0.000000
vn 0.000000 -0.100000 0.000000
vn 0.000000 -0.100000 0.000000
vn 0.000000 -0.100000 0.000000
vn 0.000000 -0.100000 0.000000
vn 0.000000 -0.100000 0.000000
vn 0.000000 -0.000000 -0.100000
vn 0.000000 -0.000000 -0.100000
vn 0.000000 -0.000000 -0.100000
vn 0.000000 -0.000000 -0.100000
vn 0.000000 -0.000000 -0.100000
vn 0.000000 -0.000000 -0.100000
vn 0.000000 -0.000000 -0.100000
vn 0.000000 -0.000000 -0.100000
vn 0.000000 -0.000000 -0.100000
vn 0.000000 -0.000000 -0.100000
vn 0.000000 -0.000000 -0.100000
vn 0.000000 -0.000000 -0.100000
vn 0.100000 0.000000 0.000000
vn 0.100000 0.000000 0.000000
vn 0.100000 0.000000 0.000000
vn 0.100000 0.000000 0.000000
vn -0.000000 0.000000 0.100000
vn -0.000000 0.000000 0.100000
vn -0.000000 0.000000 0.100000
vn -0.000000 0.000000 0.100000
vn -0.000000 0.000000 0.100000
vn -0.000000 0.000000 0.100000
vn -0.000000 0.000000 0.100000
vn -0.000000 0.000000 0.100000
vn 0.100000 0.000000 0.000000
vn 0.100000 0.000000 0.000000
vn 0.100000 0.000000 0.000000
vn 0.100000 0.000000 0.000000
vn -0.000000 0.100000 -0.000000
vn -0.000000 0.100000 -0.000000
vn -0.000000 0.100000 -0.000000
vn -0.000000 0.100000 -0.000000
vn -0.000000 0.100000 -0.000000
vn -0.000000 0.100000 -0.000000
vn -0.000000 0.100000 -0.000000
vn -0.000000 0.100000 -0.000000
vn -0.000000 0.100000 -0.000000
vn -0.000000 0.100000 -0.000000
vn -0.000000 0.100000 -0.000000
vn -0.000000 0.100000 -0.000000
vn -0.000000 0.100000 -0.000000
vn -0.000000 0.100000 -0.000000
vn -0.000000 0.100000 -0.000000
vn -0.000000 0.100000 -0.000000
vn -0.000000 0.100000 -0.000000
vn -0.000000 0.100000 -0.000000
vn -0.000000 0.100000 -0.000000
vn -0.000000 0.100000 -0.000000
vn -0.000000 0.000000 0.100000
vn -0.000000 0.000000 0.100000
vn -0.000000 0.000000 0.100000
vn -0.000000 0.000000 0.100000
vn -0.000000 0.000000 0.100000
vn -0.000000 0.000000 0.100000
vn -0.000000 0.000000 0.100000
vn -0.000000 0.000000 0.100000
vn -0.000000 0.000000 0.100000
vn -0.000000 0.000000 0.100000
vn -0.000000 0.000000 0.100000
vn -0.000000 0.000000 0.100000
vn -0.100000 -0.000000 -0.000000
vn -0.100000 -0.000000 -0.000000
vn -0.100000 -0.000000 -0.000000
vn -0.100000 -0.000000 -0.000000
vn 0.100000 0.000000 0.000000
vn 0.100000 0.000000 0.000000
vn 0.100000 0.000000 0.000000
vn 0.100000 0.000000 0.000000
vn -0.100000 -0.000000 -0.000000
vn -0.100000 -0.000000 -0.000000
vn -0.100000 -0.000000 -0.000000
vn -0.100000 -0.000000 -0.000000
vn 0.100000 0.000000 0.000000
vn 0.100000 0.000000 0.000000
vn 0.100000 0.000000 0.000000
vn 0.100000 0.000000 0.000000
vn -0.100000 -0.000000 -0.000000
vn -0.100000 -0.000000 -0.000000
vn -0.100000 -0.000000 -0.000000
vn -0.100000 -0.000000 -0.000000
vn -0.100000 -0.000000 -0.000000
vn -0.100000 -0.000000 -0.000000
vn -0.100000 -0.000000 -0.000000
vn -0.100000 -0.000000 -0.000000
usemtl Acrylic_(Clear)
f 2/1/1 3/2/2 1/3/3
f 1/3/3 3/2/2 4/4/4
f 5/5/5 6/6/6 8/7/7
f 8/7/7 6/6/6 7/8/8
f 2/9/9 1/10/10 10/11/11
f 10/11/11 1/10/10 9/12/12
f 5/13/13 8/14/14 12/15/15
f 12/15/15 8/14/14 11/16/16
f 3/17/17 2/18/18 26/19/19
f 26/19/19 2/18/18 10/20/20
f 26/19/19 10/20/20 18/21/21
f 18/21/21 10/20/20 15/22/22
f 18/21/21 15/22/22 17/23/23
f 17/23/23 15/22/22 16/24/24
f 10/20/20 13/25/25 15/22/22
f 15/22/22 13/25/25 14/26/26
f 18/21/21 19/27/27 26/19/19
f 26/19/19 19/27/27 25/28/28
f 25/28/28 19/27/27 22/29/29
f 25/28/28 22/29/29 11/30/30
f 11/30/30 22/29/29 23/31/31
f 11/30/30 23/31/31 24/32/32
f 20/33/33 21/34/34 19/27/27
f 19/27/27 21/34/34 22/29/29
f 8/35/35 7/36/36 11/30/30
f 11/30/30 7/36/36 25/28/28
f 27/37/37 28/38/38 25/39/39
f 25/39/39 28/38/38 26/40/40
f 29/41/41 12/42/42 24/43/43
f 24/43/43 12/42/42 11/44/44
f 13/45/45 10/46/46 30/47/47
f 30/47/47 10/46/46 9/48/48
f 7/49/49 6/50/50 25/51/51
f 25/51/51 6/50/50 27/52/52
f 17/53/53 16/54/54 31/55/55
f 31/55/55 16/54/54 32/56/56
f 21/57/57 20/58/58 33/59/59
f 33/59/59 20/58/58 34/60/60
f 30/61/61 35/62/62 13/63/63
f 13/63/63 35/62/62 14/64/64
f 1/65/65 4/66/66 9/67/67
f 9/67/67 4/66/66 28/68/68
f 9/67/67 28/68/68 40/69/69
f 40/69/69 28/68/68 39/70/70
f 40/69/69 39/70/70 32/71/71
f 32/71/71 39/70/70 31/72/72
f 28/68/68 27/73/73 39/70/70
f 39/70/70 27/73/73 38/74/74
f 38/74/74 27/73/73 12/75/75
f 38/74/74 12/75/75 37/76/76
f 37/76/76 12/75/75 29/77/77
f 37/76/76 29/77/77 36/78/78
f 6/79/79 5/80/80 27/73/73
f 27/73/73 5/80/80 12/75/75
f 33/81/81 34/82/82 37/76/76
f 37/76/76 34/82/82 38/74/74
f 40/69/69 35/83/83 9/67/67
f 9/67/67 35/83/83 30/84/84
f 15/85/85 14/86/86 40/87/87
f 40/87/87 14/86/86 35/88/88
f 19/89/89 18/90/90 38/91/91
f 38/91/91 18/90/90 39/92/92
f 37/93/93 36/94/94 22/95/95
f 22/95/95 36/94/94 23/96/96
f 24/97/97 23/98/98 29/99/99
f 29/99/99 23/98/98 36/100/100
f 15/101/101 40/102/102 16/103/103
f 16/103/103 40/102/102 32/104/104
f 39/105/105 18/106/106 31/107/107
f 31/107/107 18/106/106 17/108/108
f 19/109/109 38/110/110 20/111/111
f 20/111/111 38/110/110 34/112/112
f 37/113/113 22/114/114 33/115/115
f 33/115/115 22/114/114 21/116/116
f 4/117/117 3/118/118 28/119/119
f 28/119/119 3/118/118 26/120/120
# 40 vertices
# 120 texture params
# 120 normals
# 76 facets

# 1 groups
